/* XPM */
static char *_b464bfacbaa482bdb3a775626320c71D9ocT0GfzDwVg6Ub[] = {
/* columns rows colors chars-per-pixel */
"64 64 149 2 ",
"   c #6D331F",
".  c #743117",
"X  c #75341C",
"o  c #7A361D",
"O  c #76381F",
"+  c #7C391F",
"@  c #743621",
"#  c #793721",
"$  c #753924",
"%  c #7C3B23",
"&  c #763D29",
"*  c #7B3E2A",
"=  c #7E4027",
"-  c #77402C",
";  c #7C412D",
":  c #7E4431",
">  c #7F4834",
",  c #813B1F",
"<  c #823E24",
"1  c #813F2A",
"2  c #844126",
"3  c #894327",
"4  c #84432A",
"5  c #8A452B",
"6  c #86492F",
"7  c #8C492E",
"8  c #914A2E",
"9  c #824633",
"0  c #884732",
"q  c #834936",
"w  c #8C4B32",
"e  c #854C39",
"r  c #8A4E3A",
"t  c #904F33",
"y  c #914E33",
"u  c #904D31",
"i  c #914F35",
"p  c #924F34",
"a  c #924D33",
"s  c #914F39",
"d  c #87503B",
"f  c #87503C",
"g  c #88513D",
"h  c #8B513D",
"j  c #8E513C",
"k  c #8C523C",
"l  c #8D533D",
"z  c #8E513E",
"x  c #8C533F",
"c  c #8D533F",
"v  c #8F523F",
"b  c #8F553F",
"n  c #8C513E",
"m  c #905035",
"M  c #925135",
"N  c #935137",
"B  c #925237",
"V  c #965037",
"C  c #945337",
"Z  c #945136",
"A  c #985236",
"S  c #935338",
"D  c #975138",
"F  c #945238",
"G  c #955238",
"H  c #955339",
"J  c #955438",
"K  c #945439",
"L  c #965539",
"P  c #97553B",
"I  c #94573B",
"U  c #97563A",
"Y  c #96563B",
"T  c #92543F",
"R  c #97573C",
"E  c #94543B",
"W  c #98573B",
"Q  c #98563C",
"!  c #99563C",
"~  c #99573D",
"^  c #99553B",
"/  c #96593C",
"(  c #98583D",
")  c #9A593D",
"_  c #99593E",
"`  c #9A583E",
"'  c #9A593E",
"]  c #A15C3F",
"[  c #8D5440",
"{  c #8E5440",
"}  c #8E5541",
"|  c #8F5541",
" . c #8E5441",
".. c #915240",
"X. c #905340",
"o. c #935240",
"O. c #915441",
"+. c #905640",
"@. c #915741",
"#. c #925542",
"$. c #905642",
"%. c #905743",
"&. c #915743",
"*. c #935643",
"=. c #945744",
"-. c #965745",
";. c #925542",
":. c #985741",
">. c #925842",
",. c #935943",
"<. c #955843",
"1. c #915844",
"2. c #925844",
"3. c #925945",
"4. c #935945",
"5. c #955845",
"6. c #945A44",
"7. c #955B45",
"8. c #975A45",
"9. c #965946",
"0. c #975A47",
"q. c #955D46",
"w. c #965C46",
"e. c #975D47",
"r. c #945944",
"t. c #9B5B40",
"y. c #9C5A40",
"u. c #9D5B41",
"i. c #9C5C41",
"p. c #9B5B43",
"a. c #965C48",
"s. c #975D49",
"d. c #975F48",
"f. c #965D48",
"g. c #9A5D48",
"h. c #985E48",
"j. c #995F49",
"k. c #9B5E49",
"l. c #9A5D4A",
"z. c #985E4A",
"x. c #9A5D49",
"c. c #A15F45",
"v. c #9C6046",
"b. c #976149",
"n. c #9A604A",
"m. c #9A604C",
"M. c #9D614B",
"N. c #A06047",
"B. c #A0624B",
/* pixels */
"5 u u 7 7 i w 2 < 7 w 5 5 7 4 + < 5 7 5 5 5 5 2 3 7 u 7 7 u 7 5 < 7 w 5 5 7 5 < < 5 5 4 5 w 4 + 2 7 w 7 7 u 7 % % 4 7 5 7 7 7 2 ",
"i ` y.P Q y.Q w w P ` H H P N 5 7 N P V P W P w w P ` P P ` P u w P ` H H Q H 7 u V H H P ` N 4 w ` y./ P u.P w 7 N P N F P N 7 ",
"% 4 = $ % 4 4 $ $ = = $ @ % % X O $ $ X $ = = $ % 4 4 % % 4 4 % $ = = $ @ % % X # % $ # % 4 = $ % 4 4 % % 4 4 $ $ * % $ $ * * $ ",
"0.j.0.r r 0.j.>.0.j.=.e e &.0.&.<.&.r q r 0.j.0.g.n.0.k v 0.j.w.0.s.2.e q T =.T O.T r w v w.m.w.s.j.2.r d 0.j.>.s.j.2.e r &.s.w.",
"e r e ; : e r 9 q r e ; ; q r q q q : * : r h q q e q ; ; q q : q f e ; * q e 9 9 q 9 ; : e h e e r e ; ; e e q q e q * * 9 e q ",
"; q e q q e q & * q e q q e q * ; : q 9 q e q ; * 9 q 9 q q : & - q e > 9 e q * ; q q q q e > - ; q e : q e q & ; > q : : q q ; ",
"q v &.h v &.v 9 q | 0.| O.2.O.q e v &.b &.&.v q q v &.b &.&.{ e q { 2.| | =.O.q r &.=.&.| &.v q q v &.v | 2.v : e | &.| | 2.&.r ",
"$ * % X @ * * @ @ * * $ $ * * @ $ * = $ $ % % @ X % $ X X % % $ @ * ; $ % 4 4 % % * * $ $ ; ; * $ * * $ $ = * @ $ * % @ @ * = % ",
"y.F y.w w c.P y.:.H :.4 5 y.P :.Q N Q 4 4 ` H Q Q H y.7 7 u.P ` y.T p.0 0 k.Q :.y.s P 4 6 y.T k.k.P y.0 0 k.P N.y.F ` 6 0 y.P y.",
"< 2 < o + < 5 % < 4 < o + < 5 + < 4 < % < 2 5 + < 5 2 + + 2 7 < % 4 % X o < 2 o < < % o + % 2 + + < % $ % < 2 % 4 4 < + % < 5 < ",
"< V 5 u a 7 p < < A 8 V p 7 A < , u 3 7 7 3 u o , p 3 7 7 3 p , 2 P 7 u u 7 p , < V 5 u u 4 u % % u 5 u u 5 p < < u < 5 7 < u + ",
"< u 7 u p u u < < p p V A p a % < u 7 7 8 7 a < 3 V p V p u p < 2 N i V V u p < 5 p 7 7 w 7 w < 2 u 7 w u 7 i < < u 7 w u 7 u % ",
"# o < X o 4 # + # + 1 X o 5 < % < % < . . 4 < % < 2 7 + o 5 < % + $ 6 + % 5 < + < % < . X 2 $ % % % 4 X o 2 % % % o < X o 4 % % ",
"y.w P 4 4 :.F y.y.F :.4 4 p.Q k.:.F y.4 4 p.F :.p.P y.4 4 :.s :.<.k <.4 6 k.P p.y.F y.0 0 g.T g.y.F p.0 0 y.s :.<.w T 1 1 <.r :.",
"1 1 * @ @ * * * * * * X @ 4 9 1 4 4 4 % % 0 9 1 4 0 0 # # 4 0 4 * ; *   @ ; 4 * * * ; $ $ : ; * * * 4 % % ; * * 9 4 4 # # 9 9 4 ",
"q =.r &.O.r O.* ; O.r v O.r O.* ; v 9 q e q v * ; &.r v v r &.; : | e h v r | ; q &.e v { e | : q 2.r &.&.r &.: : { q v v e v * ",
"; { e v v e h & & h q r r q r & : { q e r q { ; ; | e h h e [ ; * { e h h e { & q | q e r e | : : &.e h h e b ; ; | e h v e | * ",
"; ; ; $ $ : : ; ; : : $ $ ; ; ; * ; ; & & : : ; ; : q & & : : & : 9 : $ $ 9 9 ; ; ; : & * 9 9 ; ; 9 9 $ * 9 ; * ; ; ; @ @ ; ; * ",
"p.F y.6 0 M.<.k.<.k <.4 4 <.k <.<.k g.w k M.T g.g.<.M.w w M.T w.y.k <.4 4 y.F <.<.k g.w w B.<.k.k.<.M.w w B.P y.p.T <.4 4 p.T y.",
"% % 4 o $ 7 4 < % < 5 + $ 4 % % % % 4 + % 7 4 4 2 2 7 + $ 6 4 = % % 6 + $ 5 < % % % 4 o $ 5 4 2 2 2 5 % % 7 < % % % 4 o o 4 % % ",
"5 W V P Q P Q 5 4 V i V N u N 2 w ` N P P P ` w 5 W H P H V Q 7 2 V u N V i H 2 w W N H W H ` 7 5 Q V P W P Q 5 7 Q H W W W ` 5 ",
"7 ` u N V u ` 4 < V 5 7 7 4 V < 7 ' w H P u ` 5 2 W w H H u Q 2 < V 5 7 7 5 V < u y.p W ` i ' 7 2 ^ u A W p ^ 2 7 ] u V A p ] 7 ",
"< 4 < o o < 4 % 2 7 4 % % 2 5 < < 4 < % % < 4 + + 4 < % % 2 4 % 2 5 2 % % 4 7 < < 4 2 < < 4 4 % % 4 < + % 2 4 + < 5 < o o < 5 < ",
"y.P u.0 0 k.P y.y.P y.6 6 y.F P k.P y.0 0 u.P y.u.P u.7 0 k.` k.y.P y.6 7 u.P ` u.P y.0 w k.P y.c.Q y.5 7 c.` c.y.P y.5 5 y.H ` ",
"$ * * $ $ * * @ @ * * @ $ * * X @ % % @ @ % % @ $ * * % % * % @ @ * * $ $ * * $ $ * % @ @ * * @ $ % % $ % 4 4 $ # % * # # % % # ",
"h &.0.2.2.0.v q q v &.v v 2.v 9 q v &.&.&.&.v q r &.0.0.0.0.&.e q v &.| | &.v q e v &.| | 2.| q r T <.T O.<.r 9 e T <.T O.<.v q ",
"; q q q q q : & & : q : : q : $ * : q 9 9 q q * * q e q q e q ; * : q : : q : & & : q : q e q * 9 e r q e r q * * 9 q 9 9 q 9 * ",
": 9 ; & * 9 q 9 : q : $ & : q ; ; 9 ; $ & 9 q 9 9 q 9 * * 9 q 9 q q : & & ; 9 ; ; : ; & * 9 q : ; 9 * % * 9 q 9 0 q 9 * * 9 q 9 ",
"&.&.v q r &.0.<.&.<.v 9 9 v &.k v T r 9 9 r O.T &.<.T e e T 0.<.=.<.v 0 q r &.T v T r 0 q v &.T P P s 0 e o.p.:.<.<.s 0 0 s <.<.",
"$ % % # # % % X # % % X X % % . X % $ X X % % # X % % X X % % @ $ % % @ X % % @ # % % @ # * % # % < < % % 1 1 % # < % o o % % o ",
"w N H N N H w 4 w H Q N N P i 4 7 V W H H W V w 5 i H i i V u 5 w H P H H P N w w H P H H Q H w 7 u p u u p 7 < u A W A A W V 7 ",
"% 2 5 4 4 5 2 + < 5 7 4 4 5 2 X < 5 5 5 5 5 5 < < 5 7 5 5 5 2 + % 4 5 4 4 5 4 < < 5 5 2 2 5 5 < < 3 7 5 3 7 3 + < 5 7 5 5 7 3 , ",
"5 7 5 < % 2 4 2 4 7 5 < 2 w u 5 7 u 7 < < 7 8 5 7 7 5 < < 5 7 5 5 5 3 < 2 7 7 5 5 8 7 < < 7 8 5 7 7 5 < < 5 7 4 5 7 5 < < 5 7 4 ",
"N P V 7 7 N P H H Q H w w Q y.H P ` A 7 7 H Q p A A u 5 7 H ` W P P N w u W ` H V ` A 7 7 A ^ p u i w 4 4 w N w N H N 7 w H Q P ",
"$ % % $ $ % * % % = = $ % 4 4 % $ 4 1 # @ * % @ # % $ X # * * $ % = % $ % 4 4 % $ 4 4 + o < < o % 1 % $ % 1 1 $ $ % * % % 4 4 1 ",
"r b 2.b &.>.v q r >.s.>.0.j.0.r q &.0.&.&.<.O.0 e T <.&.&.<.v 9 d >.w.<.w.w.<.r r <.j.y.:.p.P 0 r T &.T &.<.v 0 r <.0.0.0.j.0.T ",
"* : : ; : 9 : & ; e e q q e q ; & : q : : 9 : $ * : q : : q : $ ; q e q q q q ; ; q e q 9 q 9 & * : 9 ; : q 9 * : q e q q e q ; ",
"> q : & ; e f e e h f : : e f e q f e ; ; q e > > q : ; : e f e e f f > : q f e q f e ; ; q e q q q q ; : h | h e h e ; ; q e q ",
"2.2.h e h s.m.s.2.m.s.h e 2.s.2.0.s.2.e e 2.s.2.| 2.| r h s.m.s.q.b.s.l h @.s.q.2.s.2.e e >.a.&.h v r q e &.s.0.s.j.2.h r | 2.&.",
"$ * $ $ $ ; ; $ $ ; ; $ $ $ $ @ $ ; ; $ @ * ; $ @ $ $ $ $ ; ; $ $ ; ; $ $ $ $ $ $ ; ; $ $ ; ; $ $ * * $ % ; = $ % = * $ $ * % @ ",
"w g.P k.k.P y.6 6 p.T p.p.P y.4 0 g.T p.g.T t.4 w p./ v.g.T <.6 4 / I _ p.P ` 4 6 p.I p.p.I _ 4 0 y.P k.k.P y.5 w P y.P P y.P w ",
"% < 2 % % 2 % o o % < o + 4 % X + 2 4 % % 4 = O % 2 4 % % 2 % + + 2 4 % % 4 2 % + 2 4 % = 4 = X % < 4 % % 4 < % + < < + % < < % ",
"V 7 N < < V 5 u w 5 N % < W 7 i u 7 V 2 2 P 7 m N 7 N < < N 7 N u 5 m + < J 5 w w 5 J 2 3 U 5 7 N 7 V 2 < H 7 V u i u 5 5 u p u ",
"V u p 2 4 p w u u 7 p 2 5 A i u N u i < < V i N u 7 i 2 4 i w u V p W 5 5 W V N N u N 2 2 N w w w 7 i 2 2 i w u w N i 7 7 i V u ",
"# 4 % % < % 1 . . < # + % % 4 . # 4 % % % % 4 . X 2 $ % % + 4 X X 4 % % < < 4 X % 6 % % % % 4 X . < $ % % + < . X % % + $ % % o ",
"0 y.s :.:.s :.4 0 p.s :.:.P p.6 0 k.P k.k.P y.1 6 :.w P P w :.6 4 :.w P P s y.4 0 k.T g.g.T p.4 0 <.r <.<.w <.4 e F T F F P T w ",
"% * * # % * * @ # 4 * * * 9 0 % # 9 4 * * 9 * @ # * * $ # * * @ % 0 4 * 1 9 0 % @ = ; ; ; ; ; X $ ; * & $ & * @ $ * * $ $ ; ; $ ",
"{ q v * ; v q r e q r * * &.r v O.r v * * &.r O.O.r O.: ; v q r e q r * * v q e r q v ; ; @.d | | e | : ; h q e e e q ; ; q e e ",
"r q r * * r q e e q h * ; { e e r e { * * { e r r q v ; ; h q r r 9 r ; 9 | e v h q v ; ; v q h r q h ; ; h q e e : e & * h e h ",
"& : ; * * ; ; $ $ ; * $ & ; ; @ @ ; * $ $ * ; # $ 4 ; * * ; ; $ @ * * % * = ; $ $ = * % % * = $ ; q : ; : 9 q * $ ; & $ & ; ; $ ",
"r M.T g.k.T k.0 0 g.T <.y.T g.6 0 p.F <.<.T k.0 w k.P k.p.T k.e e p.F p.p.P p.0 0 k.F y.y.F k.0 w g.F p.p.T g.0 w g.F p.g.T g.0 ",
"$ 4 % < < % 4 . X 4 % < < 2 6 X X 4 < % < % 4 o o 4 % < < % 4 X o 4 < 2 2 < 4 o o 4 < < < % 4 o % 4 < 2 4 < 4 X o 4 % 2 4 < 6 o ",
"N w i 2 4 u 7 7 w w N 2 5 W N i i u H 4 5 H p N p 7 p 2 < u 7 u p w p 5 5 P u N p w V 4 5 V u N N w i 2 4 i 7 7 u 7 i 2 5 H u i ",
"W w A 2 2 P 7 i u 7 V < 2 ` u V V u W < < W u A A 7 V < < V 7 V V 7 A 2 3 ^ 8 A V 7 A 2 2 A 7 V u 4 u % < u 2 7 p 5 p < 2 W u H ",
"< 2 4 % < 4 2 % % 2 4 % < 5 2 % % 2 4 % % 5 4 % < 2 4 % % 4 2 < < 2 4 < < 5 2 % % < 2 % % 2 < % < 2 4 < < 5 2 % % < 2 % % 4 2 < ",
"7 y.F u.k.P y.6 0 k.P k.k.P y.4 5 y.Q y.y.P y.5 w k.P k.y.P y.0 w u.Q c.c.Q ` 4 5 ' P u.u.P y.5 6 ` F u.k.P y.6 w k.P k.k.P k.0 ",
"$ * % @ @ % % @ @ * * @ $ = * @ % * * % % * * $ @ % % $ $ * * $ $ % % $ $ * % $ $ % % $ % = * $ $ % % $ $ = * $ * ; = $ % = * $ ",
"| &.h q e &.0.2.| 2.| q e &.0.| v O.r q q r O.v O.&.v e r &.0.&.v T r 0 q v &.v v T r 9 q k O.h &.2.| e r &.2.&.| &.h q q v | v ",
": q : & * q e q : q : & & q q : q e q * * q e q 9 q 9 * * 9 q 9 q e q ; ; q e 9 q q 9 * * 9 q q q q : * ; q q : q e q ; ; q e q ",
"; q q 9 9 q : $ & : q ; : q : $ & ; 9 ; * : 9 * * 9 q 9 9 q 9 & * ; 9 ; 4 9 4 $ * ; 9 ; ; : ; $ ; 9 q 9 q q : & & ; : ; : q : & ",
"v <.0.<.=.<.v 0 q T 0.T &.0.O.0 q v &.T O.&.O.e e T 0.<.=.0.O.e w T <.&.<.<.T 0 e v &.T T <.T q r &.0.<.=.0.O.q q v &.T &.<.O.e ",
"@ % % X @ % % X @ % % X X % % X $ % % $ $ 1 1 % # % % @ @ % % $ % 4 2 $ $ 4 2 $ $ % % + $ 2 2 $ $ % % X @ % % @ % * % # $ 1 1 % ",
"i i w 4 7 H Q P H P i 4 4 i H w w i w 4 4 u V i H P i 5 7 V Q W V V w 4 4 w N u w u 7 4 5 u V u H P i 5 5 N P H N N w 2 4 w N i ",
"4 5 4 < 2 7 u 7 7 w 5 % % 5 7 4 5 7 5 < 2 7 u 7 7 u 7 < < 7 u u 8 8 5 , < 5 7 5 3 7 3 < 2 7 8 7 7 w 5 < < 7 u 7 w w 5 % < 5 7 7 "
};
