/* XPM */
static char *result[] = {
/* columns rows colors chars-per-pixel */
"45 45 17 1 ",
"  c black",
". c #111111",
"X c #222222",
"o c gray20",
"O c #444444",
"+ c #555555",
"@ c gray40",
"# c #777777",
"$ c #888888",
"% c gray60",
"& c #AAAAAA",
"* c #BBBBBB",
"= c gray80",
"- c #DDDDDD",
"; c #EEEEEE",
": c white",
"> c None",
/* pixels */
">>>>>>>>>>>>>>>>>>>>>>>>>>>>>>>>>>>>>>>>>>>>>",
">>>>>>>>>>>>>>>>>>>>>>>>>>>>>>>>>>>>>>>>>>>>>",
">>>>>>>>>>>>>>>>>>>>>>>>>        >>>>>>>>>>>>",
">>>>>>>>>>>>>                     >>>>>>>>>>>",
">>>>>>>>>>                         >>>>>>>>>>",
">>>>>>>>        .o                  >>>>>>>>>",
">>>>>>>>       O:::%.                >>>>>>>>",
">>>>>>>>>      &:::::o  OOO$%&--;;-X   >>>>>>",
">>>>>>>>       -:::::::::::::::::::X       >>",
">>>>>>        =:::::::::::::::::=+        >>>",
">>>>>>        *:::::::::::::::#.        >>>>>",
">>>>>>>>      O::::::::::::-@          >>>>>>",
">>>>>>>>      $::::::::::-O           >>>>>>>",
">>>>>>>>      =::::::::-O            >>>>>>>>",
">>>>>>>>      :::::::*o            >>>>>>>>>>",
">>>>>>>      X::::-@X            >>>>>>>>>>>>",
">>>>>>>      #::::O              >>>>>>>>>>>>",
">>>>>>>      =:::*                 >>>>>>>>>>",
">>>>>>>     .::::X                  >>>>>>>>>",
">>>>>>      @:::%                    >>>>>>>>",
">>>>>       ;:::--;;::;;-*$O          >>>>>>>",
">>>         :::::::::::::::::=O       >>>>>>>",
">>>         :::::::::::::::::::-X     >>>>>>>",
">>>>>>      ;::::::::::::::::::::o    >>>>>>>",
">>>>>>      #::::::::*+. .%::::::;.    >>>>>>",
">>>>>       .::::::@.      ;::::::$    >>>>>>",
">>>>>        o:::@         &::::::;    >>>>>>",
">>>>  >>>     X#.          =:::::::    >>>>>>",
">>>>>>>>>                 .::::::::     >>>>>",
">>>>>>>>>>                @::::::::      >>>>",
">>>>>>>>>>               .:::::::::       >>>",
">>>>>>>>>>>>>            %::::::::=        >>",
">>>>>>>>>>>>            +:::::::::O       >>>",
">>>>>>>>>>>            o:::::::::&       >>>>",
">>>>>>>>>>            +:::::::::-       >>>>>",
">>>>>>>>>            %:::::::::*.      >>>>>>",
">>>>>>>>           O;:::::::::#       >>>>>>>",
">>>>>>>>         @-:::::::::&.       >>>>>>>>",
">>>>>>>      X@*::::::::::%X        >>>>>>>>>",
">>>>>>      -:::::::::;&O          >>>>>>>>>>",
">>>>>       :::::;=%+.            >>>>>>>>>>>",
">>>>>>>       .                  >>>>>>>>>>>>",
">>>>>>>>>                       >>>>>>>>>>>>>",
">>>>>>>>>>>                    >>>>>>>>>>>>>>",
">>>>>>>>>>>>>                >>>>>>>>>>>>>>>>"
};
