/* XPM */
static char *result[] = {
/* columns rows colors chars-per-pixel */
"64 64 251 2 ",
"   c #1C131D",
".  c #24181C",
"X  c #2C111B",
"o  c #18391B",
"O  c #181B22",
"+  c #1F0A20",
"@  c #241D25",
"#  c #291B23",
"$  c #381723",
"%  c #1B2626",
"&  c #1E3A21",
"*  c #252225",
"=  c #2A2324",
"-  c #242B24",
";  c #27292A",
":  c #372424",
">  c #213E22",
",  c #253224",
"<  c #3A3327",
"1  c #2D2B32",
"2  c #273836",
"3  c #2A3735",
"4  c #3E231C",
"5  c #57191E",
"6  c #4C191E",
"7  c #4A351A",
"8  c #68331C",
"9  c #76361C",
"0  c #462D27",
"q  c #562921",
"w  c #563925",
"e  c #49392E",
"r  c #6D2423",
"t  c #6B3C23",
"y  c #653B25",
"u  c #743D26",
"i  c #6C312C",
"p  c #631A21",
"a  c #1D441E",
"s  c #1A551A",
"d  c #2F5B1F",
"f  c #2C551A",
"g  c #1C6F19",
"h  c #1A4821",
"j  c #1E5C28",
"k  c #234722",
"l  c #354723",
"z  c #225323",
"x  c #275727",
"c  c #385825",
"v  c #324D37",
"b  c #1A6822",
"n  c #1C7724",
"m  c #216322",
"M  c #236B23",
"N  c #2A6A27",
"B  c #326922",
"V  c #247423",
"C  c #2A7C29",
"Z  c #267628",
"A  c #336834",
"S  c #2D7832",
"D  c #347734",
"F  c #2E6733",
"G  c #226B1F",
"H  c #544529",
"J  c #475828",
"K  c #545925",
"L  c #534C33",
"P  c #694329",
"I  c #6C4628",
"U  c #764729",
"Y  c #665A24",
"T  c #665735",
"R  c #785C35",
"E  c #755231",
"W  c #477529",
"Q  c #566337",
"!  c #577834",
"~  c #4B6935",
"^  c #686322",
"/  c #666522",
"(  c #746824",
")  c #667824",
"_  c #706B37",
"`  c #5F591D",
"'  c #365A49",
"]  c #2C5541",
"[  c #396B4E",
"{  c #437654",
"}  c #4B7D58",
"|  c #4B7150",
" . c #6C674A",
".. c #72764D",
"X. c #425E47",
"o. c #94151D",
"O. c #8C2523",
"+. c #932222",
"@. c #B1292A",
"#. c #872F1D",
"$. c #ED2A28",
"%. c #DD2927",
"&. c #824927",
"*. c #86592B",
"=. c #855A35",
"-. c #96533B",
";. c #856436",
":. c #8D6536",
">. c #976B37",
",. c #9D743B",
"<. c #9A7539",
"1. c #8F6C2C",
"2. c #A4793C",
"3. c #A4702D",
"4. c #A16E1E",
"5. c #965943",
"6. c #856548",
"7. c #936E4C",
"8. c #AD714F",
"9. c #A67A61",
"0. c #CB6F52",
"q. c #30901C",
"w. c #3BB71E",
"e. c #38AD1E",
"r. c #2B832B",
"t. c #2E8931",
"y. c #338C33",
"u. c #378639",
"i. c #359335",
"p. c #399739",
"a. c #339629",
"s. c #3FA43F",
"d. c #3DA639",
"f. c #39B025",
"g. c #558539",
"h. c #558236",
"j. c #428E39",
"k. c #638631",
"l. c #4CB232",
"z. c #67AB3E",
"x. c #38D121",
"c. c #46CD22",
"v. c #44C827",
"b. c #56C222",
"n. c #55C923",
"m. c #4CDB2B",
"M. c #49D627",
"N. c #4BCE35",
"B. c #48C539",
"V. c #4CD431",
"C. c #56DB2A",
"Z. c #4EE524",
"A. c #4EE922",
"S. c #4BE827",
"D. c #53EA22",
"F. c #4EF423",
"G. c #4FF922",
"H. c #4DE433",
"J. c #65EA24",
"K. c #78E927",
"L. c #65DF32",
"P. c #3D874B",
"I. c #3D9847",
"U. c #3FA341",
"Y. c #479953",
"T. c #558F4C",
"R. c #63884A",
"E. c #6C8559",
"W. c #76895D",
"Q. c #739257",
"!. c #41A641",
"~. c #43AD43",
"^. c #49AB45",
"/. c #46B345",
"(. c #46BA43",
"). c #47B847",
"_. c #49A259",
"`. c #56A65D",
"'. c #589867",
"]. c #568B66",
"[. c #768B65",
"{. c #6A9862",
"}. c #779C63",
"|. c #6D8F60",
" X c #5CA766",
".X c #54B76A",
"XX c #4CA861",
"oX c #63A864",
"OX c #76A669",
"+X c #65B269",
"@X c #70B576",
"#X c #6EB357",
"$X c #4EC443",
"%X c #5EC77B",
"&X c #67C67B",
"*X c #B3901D",
"=X c #8D8627",
"-X c #AC8725",
";X c #A99724",
":X c #BA9C27",
">X c #ACAD29",
",X c #B5AA1F",
"<X c #CAAF1C",
"1X c #C9B528",
"2X c #C39C33",
"3X c #BDEE22",
"4X c #97ED22",
"5X c #CBC522",
"6X c #D8CF23",
"7X c #EADC23",
"8X c #EBD82F",
"9X c #C9F025",
"0X c #F4ED22",
"qX c #FCEB2A",
"wX c #FDF322",
"eX c #FDF923",
"rX c #F5E73A",
"tX c #EDED2B",
"yX c #C0F01F",
"uX c #8B8741",
"iX c #B38E56",
"pX c #968C72",
"aX c #B89773",
"sX c #BAA778",
"dX c #AFBC65",
"fX c #87AD69",
"gX c #C7946C",
"hX c #FD9279",
"jX c #D3B075",
"kX c #D6A155",
"lX c #A1C958",
"zX c #EED155",
"xX c #D5D15E",
"cX c #68D58A",
"vX c #6AD187",
"bX c #BCA987",
"nX c #D6B18D",
"mX c #E4BA97",
"MX c #8BD494",
"NX c #92DB9B",
"BX c #84C98A",
"VX c #9BE3A4",
"CX c #AEDBA5",
"ZX c #D4CB9A",
"AX c #E5D2A7",
"SX c #EBCDA8",
"DX c #F9E2BB",
"FX c #D8D3A4",
"GX c #FFF3CD",
"HX c #FFF1CA",
"JX c None",
/* pixels */
"JXJXJXJXJXJXJXJXJXJXJXJXJXJXJXJXJXJXJXJXJXJXJXJXJXJXJXJXJXJXJXJXJXJXJXJXJXJXJXJXJXJXJXJXJXJXJXJXJXJXJXJXJXJXJXJXJXJXJXJXJXJXJXJX",
"JXJXJXJXJXJXJXJXJXJXJXJXJXJXJXJXJXJXJXJXJXJXJXJXJXJXJXJXJXJXJXJXJXJXJXJXJXJXJXJXJXJXJXJXJXJXJXJXJXJXJXJXJXJXJXJXJXJXJXJXJXJXJXJX",
"JXJXJXJXJXJXJXJXJXJXJXJXJXJXJXJXJXJXJXJXJXJXJXJXJXJXJXJXJXJXJXJXJXJXJXJXJXJXJXJXJXJXJXJXJXJXJXJXJXJXJXJXJXJXJXJXJXJXJXJXJXJXJXJX",
"JXJXJXJXJXJXJXJXJXJXJXJXJXJXJXJXJXJXJXJXJXJXJXJXJXJXJXJXJXJXJXJXJXJXJXJXJXJXJXJXJXJXJXJXJXJXJXJXJXJXJXJXJXJXJXJXJXJXJXJXJXJXJXJX",
"JXJXJXJXJXJXJXJXJXJXJXJXJXJXJXJXJXJXJXJXJXJXJXJXJXJXJXJXJXJXJXJXJXJXJXJXJXJXJXJXJXJXJXJXJXJXJXJXJXJXJXJXJXJXJXJXJXJXJXJXJXJXJXJX",
"JXJXJXJXJXJXJXJXJXJXJXJXJXJXJXJXJXJXJXJXJXJXJXJXJXJXJXJXJXJXJXJXJXJXJXJXJXJXJXJXJXJXJXJXJXJXJXJXJXJXJXJXJXJXJXJXJXJXJXJXJXJXJXJX",
"JXJXJXJXJXJXJXJXJXJXJXJXJXJXJXJXJXJXJXJXJXJXJXJXJXJXJXJXJXJX{...E.E.E.E...E.JXJXJXJXJXJXJXJXJXJXJXJXJXJXJXJXJXJXJXJXJXJXJXJXJXJX",
"JXJXJXJXJXJXJXJXJXJXJXJXJXJXJXJXJXJXJXJXJXJXJXJXJXJXJXJXJXJXR u u u P u u U OXJXJXJXJXJXJXJXJXJXJXJXJXJXJXJXJXJXJXJXJXJXJXJXJXJX",
"JXJXJXJXJXJXJXJXJXJXJXJXJXJXJXJXJXJXJXJXJXJXJXJXJX&X|.|.E.pX7.2.-X*X*X*X*X;X=X|.JXJXJXJXJXJXJXJXJXJXJXJXJXJXJXJXJXJXJXJXJXJXJXJX",
"JXJXJXJXJXJXJXJXJXJXJXJXJXJXJXJXJXJXJXJXJXJXJXJXJXOXU 8 H 6.gXjXrX0X0X0XeX7X-XI [.JXJXJXJXJXJXJXJXJXJXJXJXJXJXJXJXJXJXJXJXJXJXJX",
"JXJXJXJXJXJXJXJXJXJXJXJXJXJXJXJXJXJXJXJXJXJXJXJX X[.5.8.4.2XzXzXqXwXwXwXeXwX<X-XuX{.JXJXJXJXJXJXJXJXJXJXJXJXJXJXJXJXJXJXJXJXJXJX",
"JXJXJXJXJXJXJXJXJXJXJXJXJXJXJXJXJXJXJXJXJXJXJXXXC W.gXzX8XwXqXqXqXwXwX0XwX0XwX7X;XE E.JXJXJXJXJXJXJXJXJXJXJXJXJXJXJXJXJXJXJXJXJX",
"JXJXJXJXJXJXJXJXJXJXJXJXJXJXJXJXJXJXJXJXJXvX.XU.q.z.dXxX9XyX3XyX3X3XyXyXtXwXeXeX<X3.=XOXJXJXJXJXJXJXJXJXJXJXJXJXJXJXJXJXJXJXJXJX",
"JXJXJXJXJXJXJXJXJXJXJXJXJXJXJXJXJXJXJXJXJXXXS e.M.C.J.D.J.J.J.J.J.J.D.J.yXwXwXwX0X7X:XR ..JXJXJXJXJXJXJXJXJXJXJXJXJXJXJXJXJXJXJX",
"JXJXJXJXJXJXJXJXJXJXJXJXJXJXJXJXJXJXJXvX.X!.q.w.A.F.A.A.A.S.S.A.S.S.S.A.4X9X8XzXeXeX<X#. .JXJXJXJXJXJXJXJXJXJXJXJXJXJXJXJXJXJXJX",
"JXJXJXJXJXJXJXJXJXJXJXJXJXJXJXJXJXJXJX_.P.f.x.Z.A.A.A.A.A.S.A.Z.A.A.S.A.J.K.lXzXzXeX<XU  .JXJXJXJXJXJXJXJXJXJXJXJXJXJXJXJXJXJXJX",
"JXJXJXJXJXJXJXJXJXJXJXJXJXJXJXJXJXJXJXP.g w.F.D.A.Z.A.A.A.A.A.A.A.A.A.A.F.H.#XsXzXzX:X9  .JXJXJXJXJXJXJXJXJXJXJXJXJXJXJXJXJXJXJX",
"JXJXJXJXJXJXJXJXJXJXJXJXJXJXJXJXJXJXcXP.g w.F.A.A.A.A.D.A.A.A.A.A.A.A.A.A.H.L.#XdXzXiXU ..JXJXJXJXJXJXJXJXJXJXJXJXJXJXJXJXJXJXJX",
"JXJXJXJXJXJXJXJXJXJXJXJXJXJXJXJXvXcX%XI.r.w.Z.A.A.A.A.A.D.A.A.S.A.A.A.A.A.S.v.U.fXgX8.U  .@XJXJXJXJXJXJXJXJXJXJXJXJXJXJXJXJXJXJX",
"JXJXJXJXJXJXJXJXJXJXJXJXJXJXJXE._ T.I.I.l.v.A.A.A.Z.A.A.Z.A.D.D.A.A.A.A.A.S.N./.^.R._ 8 w [ [ ' } JXJXJXJXJXJXJXJXJXJXJXJXJXJXJX",
"JXJXJXJXJXJXJXJXJXJXJXJXJXJXOX6.P N r.p.~.N.S.Z.A.A.D.A.A.A.A.A.A.A.A.A.A.m.B./.i.n J E i @ @   ] '.JXJXJXJXJXJXJXJXJXJXJXJXJXJX",
"JXJXJXJXJXJXJXJXJXJXJXJXJXE.pXgXpXW n i.).(.B.m.Z.A.D.A.A.D.A.A.A.A.D.Z.H.N.$X~.t.n R.sX9.i q P T | ].JXJXJXJXJXJXJXJXJXJXJXJXJX",
"JXJXJXJXJXJXJXJXJXJXJXJXJXI 5.SXFXR.n i./.).(.N.Z.A.A.Z.D.A.A.A.A.S.A.m.l.U./.~.y.g fXSXnX=.U <.5.0 2 JXJXJXJXJXJXJXJXJXJXJXJXJX",
"JXJXJXJXJXJXJXJXJXJXJXJXJXI 5.mXZXR.n r.p.j./.N.A.D.A.A.A.Z.A.A.A.S.m.l.d.i.s./.i.G }.AXnX=.&.2.:.0 % JXJXJXJXJXJXJXJXJXJXJXJXJX",
"JXJXJXJXJXJXJXJXJXJXJXJXJXE -.gXjXg.b g Z p./.N.Z.A.A.A.A.A.Z.A.A.m.B.~.t.N p.l.t.n Q.nXiXR &.>.;.0 2 JXJXJXJXJXJXJXJXJXJXJXJXJX",
"JXJXJXJXJXJXJXJXJXJXJXJXJXI &.iXiXj.b j x u.^.$XN.m.A.A.A.S.V.N.V.N.(.!.t.V r.i.r.n _ iX8.U &.>.;.0 2 JXJXJXJXJXJXJXJXJXJXJXJXJX",
"JXJXJXJXJXJXJXJXJXJXJXJXJXE #.3.<.! b o , D /.).(.N.Z.A.A.m.l./.)././.!.y.M V Z V n ! <.>.U &.>.;.0 2 JXJXJXJXJXJXJXJXJXJXJXJXJX",
"JXJXJXJXJXJXJXJXJXJXJXJXJXJX7.:.( K l - * F p.U./.l.V.V.V.B.)././.~.s.y.N z b b N c / *.=.*.:.,.;.0 2 JXJXJXJXJXJXJXJXJXJXJXJXJX",
"JXJXJXJXJXJXJXJXJXJXJXJXJXJX@X .t t H 4 , z C p./.).).).(././././.!.y.N > ; h N B y t U *.>.,.2.;.0 2 JXJXJXJXJXJXJXJXJXJXJXJXJX",
"JXJXJXJXJXJXJXJXJXJXJXJXJXJXJXL 8 1.4.7 % a V i.~./.~.~././././.!.i.N z k > l B ( 4.*.8 y =.>.2.;.0 2 JXJXJXJXJXJXJXJXJXJXJXJXJX",
"JXJXJXJXJXJXJXJXJXJXJXJXJXJXJX3 7 <X6X^ O a V i.~././././././.U.y.N k > k b l y *X7X;X< : P =.2.;.0 2 JXJXJXJXJXJXJXJXJXJXJXJXJX",
"JXJXJXJXJXJXJXJXJXJXJXJXJXJXJX[ Q >X1X=XJ f m y.~././././.^.U.i.r.j % * c W ( 4.,X6X=X= # y &.,.;.0 2 JXJXJXJXJXJXJXJXJXJXJXJXJX",
"JXJXJXJXJXJXJXJXJXJXJXJXJXJXJXJX'.~ Y ,X5X) > S ~././././.s.y.C V m & = L <.1X7X;XK , % = y &.>.;.0 2 JXJXJXJXJXJXJXJXJXJXJXJXJX",
"JXJXJXJXJXJXJXJXJXJXJXJXJXJXJXJXJX' L >X6X( @ F ~.)./.~.!.i.C m m z l e E <.1X6X=X: @ < w P *.2.;.0 2 JXJXJXJXJXJXJXJXJXJXJXJXJX",
"JXJXJXJXJXJXJXJXJXJXJXJXJXJXJXJXJXJX'.R.Y 7 = A /.)./.s.y.C V b k l E =.P e H / ( R R R ;.:.>.2.:.: 3 JXJXJXJXJXJXJXJXJXJXJXJXJX",
"JXJXJXJXJXJXJXJXJXJXJXJXJXJXJXJXJXJXcXX.O + , A U.~.s.i.C M b f & < R :.L % O 3 Q <.2.<.>.2.2.>.R e v JXJXJXJXJXJXJXJXJXJXJXJXJX",
"JXJXJXJXJXJXJXJXJXJXJXJXJXJXJXJXJXJXcXP.o O * x t.i.t.r.V x k , @ # e H l j { ].R.! K H R 8.>.P L } JXJXJXJXJXJXJXJXJXJXJXJXJXJX",
"JXJXJXJXJXJXJXJXJXJXJXJXJXJXJXJXJXJXvX_.Z z - k m M M M M z > * * ; * , s S +XNX+Xr.a % H :.R 0 ] JXJXJXJXJXJXJXJXJXJXJXJXJXJXJX",
"JXJXJXJXJXJXJXJXJXJXJXJXJXJXJXJXJX.X_.`.`.~ z a > a > > a x F [ D D D F N C +XNXBX XP.z k H Q } JXJXJXJXJXJXJXJXJXJXJXJXJXJXJXJX",
"JXJXJXJXJXJXJXJXJXJXJXJXJXJXJXJX%Xu.r.@XMX_.N a * * * @ * v p.)./././.l.r.C oXMXNXNXoXC s - ' JXJXJXJXJXJXJXJXJXJXJXJXJXJXJXJXJX",
"JXJXJXJXJXJXJXJXJXJXJXJXJXJXJX.X_.Y.+XMXNX`.n m D A A A A D !.)././.).~.t.Z  XNXVXVX@Xr.N [ JXJXJXJXJXJXJXJXJXJXJXJXJXJXJXJXJXJX",
"JXJXJXJXJXJXJXJXJXJXJXJXJXJX@Xt.u.@XNXVXMXY.Z t.U.U.U./.^.~.~././././.!.r.C  XNXVXNXoXZ p.JXJXJXJXJXJXJXJXJXJXJXJXJXJXJXJXJXJXJX",
"JXJXJXJXJXJXJXJXJXJXJXJXJXJX}.}.fXCXCXfX X! J j.(.$X).).).)./././.).).!.W J R.oX+X+X`._.JXJXJXJXJXJXJXJXJXJXJXJXJXJXJXJXJXJXJXJX",
"JXJXJXJXJXJXJXJXJXJXJXJXJXR 6.nXDXHXZX{.N H y ! ).(./././././././.^.).^.Q t J D C r._.JXJXJXJXJXJXJXJXJXJXJXJXJXJXJXJXJXJXJXJXJX",
"JXJXJXJXJXJXJXJXJXJXJXJXJXt -.SXGXGXAX{.b B ) k.g.g.g.g.g.g.g.g.g.g.g.g.) ) W g s f Y.JXJXJXJXJXJXJXJXJXJXJXJXJXJXJXJXJXJXJXJXJX",
"JXJXJXJXJXJXJXJXJXJXJXJXJXt 5.AXGXGXAXQ.g e.n.k.I 8 I I P P P P P y u Y k.M.a.V a % } JXJXJXJXJXJXJXJXJXJXJXJXJXJXJXJXJXJXJXJXJX",
"JXJXJXJXJXJXJXJXJXJXJXJXJX..7.bXnXmXbXR.g x.G.b.^ ^ ^ ^ ^ ^ / ^ ^ ^ Y ) n.F.e.g a @ { JXJXJXJXJXJXJXJXJXJXJXJXJXJXJXJXJXJXJXJXJX",
"JXJXJXJXJXJXJXJXJXJXJXJXJXJXOX6.-.5.;.~ q.w.D.D.n.b.n.l.b.b.b.b.b.b.l.n.D.F.e.n a * { JXJXJXJXJXJXJXJXJXJXJXJXJXJXJXJXJXJXJXJXJX",
"JXJXJXJXJXJXJXJXJXJXJXJXJXJXJX..P q w l G q.v.M.S.F.F.F.F.F.F.F.F.F.F.S.F.m.a.m , * { JXJXJXJXJXJXJXJXJXJXJXJXJXJXJXJXJXJXJXJXJX",
"JXJXJXJXJXJXJXJXJXJXJXJXJXJXJXJX{.L # - k f B j.B.H.F.G.G.F.G.F.G.G.G.F.H.l.D k O = { JXJXJXJXJXJXJXJXJXJXJXJXJXJXJXJXJXJXJXJXJX",
"JXJXJXJXJXJXJXJXJXJXJXJXJXJXJXJXJXX.O # : X $ v j.l.v.M.c.c.c.c.c.c.M.v.d.I.c # X @ { JXJXJXJXJXJXJXJXJXJXJXJXJXJXJXJXJXJXJXJXJX",
"JXJXJXJXJXJXJXJXJXJXJXJXJXJXJXJXJX] + 6 r O.r w F x B B d d c x B B N N j x w r 6 * { JXJXJXJXJXJXJXJXJXJXJXJXJXJXJXJXJXJXJXJXJX",
"JXJXJXJXJXJXJXJXJXJXJXJXJXJXJXJXJX[ : r +.+.O.q = @ # @ 1 1 1 1 @ # # $ = 4 r +.p * { JXJXJXJXJXJXJXJXJXJXJXJXJXJXJXJXJXJXJXJXJX",
"JXJXJXJXJXJXJXJXJXJXJXJXJXJXJXJXJXJXJXL 6 6 6 $   + + v } '.'.{ 3 $ p o.o.o.+.+.5 @ { JXJXJXJXJXJXJXJXJXJXJXJXJXJXJXJXJXJXJXJXJX",
"JXJXJXJXJXJXJXJXJXJXJXJXJXJXJXJXJXJXJXJX@ O ; ; ; = = { JXJXJXJX] $ @.$.$.%.@.O.5 * [ JXJXJXJXJXJXJXJXJXJXJXJXJXJXJXJXJXJXJXJXJX",
"JXJXJXJXJXJXJXJXJXJXJXJXJXJXJXJXJXJXJXJXJXJXJXJXJXJXJXJXJXJXJXJX2 6 8.hXhXhX0.-.q @ { JXJXJXJXJXJXJXJXJXJXJXJXJXJXJXJXJXJXJXJXJX",
"JXJXJXJXJXJXJXJXJXJXJXJXJXJXJXJXJXJXJXJXJXJXJXJXJXJXJXJXJXJXJXJXv e bXDXHXDXbX5.P ; JXJXJXJXJXJXJXJXJXJXJXJXJXJXJXJXJXJXJXJXJXJX",
"JXJXJXJXJXJXJXJXJXJXJXJXJXJXJXJXJXJXJXJXJXJXJXJXJXJXJXJXJXJXJXJXJX} ..bXbX..6.T Q } JXJXJXJXJXJXJXJXJXJXJXJXJXJXJXJXJXJXJXJXJXJX",
"JXJXJXJXJXJXJXJXJXJXJXJXJXJXJXJXJXJXJXJXJXJXJXJXJXJXJXJXJXJXJXJXJXJXX.1 # 1 @ @ } JXJXJXJXJXJXJXJXJXJXJXJXJXJXJXJXJXJXJXJXJXJXJX",
"JXJXJXJXJXJXJXJXJXJXJXJXJXJXJXJXJXJXJXJXJXJXJXJXJXJXJXJXJXJXJXJXJXJXJXJX] [ ' JXJXJXJXJXJXJXJXJXJXJXJXJXJXJXJXJXJXJXJXJXJXJXJXJX",
"JXJXJXJXJXJXJXJXJXJXJXJXJXJXJXJXJXJXJXJXJXJXJXJXJXJXJXJXJXJXJXJXJXJXJXJXJXJXJXJXJXJXJXJXJXJXJXJXJXJXJXJXJXJXJXJXJXJXJXJXJXJXJXJX",
"JXJXJXJXJXJXJXJXJXJXJXJXJXJXJXJXJXJXJXJXJXJXJXJXJXJXJXJXJXJXJXJXJXJXJXJXJXJXJXJXJXJXJXJXJXJXJXJXJXJXJXJXJXJXJXJXJXJXJXJXJXJXJXJX",
"JXJXJXJXJXJXJXJXJXJXJXJXJXJXJXJXJXJXJXJXJXJXJXJXJXJXJXJXJXJXJXJXJXJXJXJXJXJXJXJXJXJXJXJXJXJXJXJXJXJXJXJXJXJXJXJXJXJXJXJXJXJXJXJX",
"JXJXJXJXJXJXJXJXJXJXJXJXJXJXJXJXJXJXJXJXJXJXJXJXJXJXJXJXJXJXJXJXJXJXJXJXJXJXJXJXJXJXJXJXJXJXJXJXJXJXJXJXJXJXJXJXJXJXJXJXJXJXJXJX"
};
