/* XPM */
static char *result[] = {
/* columns rows colors chars-per-pixel */
"64 64 245 2 ",
"   c #1E101C",
".  c #271A1D",
"X  c #341A1D",
"o  c #1F391F",
"O  c #1E241F",
"+  c #1F1F21",
"@  c #231C23",
"#  c #281823",
"$  c #381722",
"%  c #1E3121",
"&  c #232423",
"*  c #232923",
"=  c #282626",
"-  c #3C2322",
";  c #332623",
":  c #233323",
">  c #243C24",
",  c #2A3628",
"<  c #373128",
"1  c #2C2D31",
"2  c #273837",
"3  c #2A3534",
"4  c #323836",
"5  c #3E241C",
"6  c #4B191D",
"7  c #52131D",
"8  c #68181E",
"9  c #513F19",
"0  c #6D331A",
"q  c #462D27",
"w  c #472B26",
"e  c #572C23",
"r  c #483626",
"t  c #573625",
"y  c #662222",
"u  c #782323",
"i  c #6A3D25",
"p  c #673925",
"a  c #743D23",
"s  c #731C20",
"d  c #1B581D",
"f  c #1F4419",
"g  c #2A491E",
"h  c #365A1E",
"j  c #1B731B",
"k  c #2D691E",
"l  c #1F4D24",
"z  c #1D592A",
"x  c #244C24",
"c  c #274724",
"v  c #275925",
"b  c #2F5A31",
"n  c #354D30",
"m  c #1C7826",
"M  c #226D23",
"N  c #286628",
"B  c #237223",
"V  c #2B752A",
"C  c #2B7B2B",
"Z  c #257827",
"A  c #38792A",
"S  c #346834",
"D  c #2A7C31",
"F  c #367A36",
"G  c #37672C",
"H  c #57442B",
"J  c #475625",
"K  c #535030",
"L  c #6A4326",
"P  c #6D442A",
"I  c #664728",
"U  c #714029",
"Y  c #774A29",
"T  c #66542B",
"R  c #665938",
"E  c #795832",
"W  c #76552D",
"Q  c #476A27",
"!  c #4A7727",
"~  c #597C35",
"^  c #567B3A",
"/  c #526D34",
"(  c #666D21",
")  c #686927",
"_  c #706B30",
"`  c #354942",
"'  c #375945",
"]  c #2C4B42",
"[  c #3A684C",
"{  c #397554",
"}  c #47634A",
"|  c #487855",
" . c #4E784E",
".. c #6D694A",
"X. c #6D7A57",
"o. c #74754D",
"O. c #505D45",
"+. c #9E1A1E",
"@. c #A2131D",
"#. c #8B1F22",
"$. c #892225",
"%. c #942624",
"&. c #813A19",
"*. c #ED3631",
"=. c #C43031",
"-. c #844929",
";. c #82512B",
":. c #85592E",
">. c #875B34",
",. c #905038",
"<. c #856336",
"1. c #8A6537",
"2. c #9A6C37",
"3. c #976B38",
"4. c #9B733A",
"5. c #967637",
"6. c #876A2E",
"7. c #A5783C",
"8. c #A77531",
"9. c #A1711C",
"0. c #9A5E4C",
"q. c #906F4D",
"w. c #AF7B4D",
"e. c #8A7F6C",
"r. c #36AD1D",
"t. c #2C832A",
"y. c #2D8B32",
"u. c #378736",
"i. c #339334",
"p. c #359836",
"a. c #3B9D3B",
"s. c #39973A",
"d. c #328F2E",
"f. c #3BB623",
"g. c #3EA73A",
"h. c #3AAA29",
"j. c #5A8239",
"k. c #52832B",
"l. c #628227",
"z. c #638A31",
"x. c #4AB032",
"c. c #65B23A",
"v. c #3CD121",
"b. c #43C222",
"n. c #46CC2A",
"m. c #4DDB2B",
"M. c #4BD827",
"N. c #54D222",
"B. c #54DB22",
"V. c #4ACC35",
"C. c #4AC639",
"Z. c #46C737",
"A. c #4CD632",
"S. c #56CC2B",
"D. c #4EE524",
"F. c #4EE922",
"G. c #4DE129",
"H. c #4BEC26",
"J. c #51EC22",
"K. c #5BE725",
"L. c #4EF323",
"P. c #4FF822",
"I. c #4DE432",
"U. c #6DE827",
"Y. c #3D9546",
"T. c #3D884B",
"R. c #3FA340",
"E. c #449B42",
"W. c #499D59",
"Q. c #539A55",
"!. c #4F854A",
"~. c #648B4D",
"^. c #6C8459",
"/. c #6B845B",
"(. c #728758",
"). c #718F50",
"_. c #41A442",
"`. c #43AD43",
"'. c #4DA540",
"]. c #45B345",
"[. c #46BA44",
"{. c #47B647",
"}. c #4CAB5C",
"|. c #57A45B",
" X c #70B059",
".X c #539265",
"XX c #749C64",
"oX c #6E9167",
"OX c #5EA864",
"+X c #56AF6D",
"@X c #60AA65",
"#X c #65B46B",
"$X c #6CB774",
"%X c #75BB7A",
"&X c #74A86E",
"*X c #47C045",
"=X c #5CC77A",
"-X c #77C467",
";X c #B8901E",
":X c #B6951C",
">X c #8B8736",
",X c #AA8423",
"<X c #B29325",
"1X c #B3AF23",
"2X c #9FA52A",
"3X c #C7B326",
"4X c #CEAA24",
"5X c #B7F323",
"6X c #B5EE2C",
"7X c #90EC21",
"8X c #EADC22",
"9X c #C1F024",
"0X c #F7EC22",
"qX c #FEF222",
"wX c #EEEC2B",
"eX c #8A8652",
"rX c #AA8A50",
"tX c #8A896C",
"yX c #B49B76",
"uX c #B1AE6C",
"iX c #CE8F66",
"pX c #CEA77B",
"aX c #C0874C",
"sX c #ACD254",
"dX c #EACB57",
"fX c #F8E743",
"gX c #E7C26F",
"hX c #64CB81",
"jX c #67D58B",
"kX c #73C582",
"lX c #69E690",
"zX c #D0B089",
"xX c #F8A98B",
"cX c #C59C82",
"vX c #84CE8C",
"bX c #8ED795",
"nX c #94DD9C",
"mX c #88D18F",
"MX c #99E2A2",
"NX c #A3EAAC",
"BX c #97DFA0",
"VX c #EED7B0",
"CX c #D9CC9C",
"ZX c #FFEAC3",
"AX c None",
/* pixels */
"AXAXAXAXAXAXAXAXAXAXAXAXAXAXAXAXAXAXAXAXAXAXAXAXAXAXAXAXAXAXAXAXAXAXAXAXAXAXAXAXAXAXAXAXAXAXAXAXAXAXAXAXAXAXAXAXAXAXAXAXAXAXAXAX",
"AXAXAXAXAXAXAXAXAXAXAXAXAXAXAXAXAXAXAXAXAXAXAXAXAXAXAXAXAXAXAXAXAXAXAXAXAXAXAXAXAXAXAXAXAXAXAXAXAXAXAXAXAXAXAXAXAXAXAXAXAXAXAXAX",
"AXAXAXAXAXAXAXAXAXAXAXAXAXAXAXAXAXAXAXAXAXAXAXAXAXAXAXAXAXAXAXAXAXAXAXAXAXAXAXAXAXAXAXAXAXAXAXAXAXAXAXAXAXAXAXAXAXAXAXAXAXAXAXAX",
"AXAXAXAXAXAXAXAXAXAXAXAXAXAXAXAXAXAXAXAXAXAXAXAXAXAXAXAXAXAXAXAXAXAXAXAXAXAXAXAXAXAXAXAXAXAXAXAXAXAXAXAXAXAXAXAXAXAXAXAXAXAXAXAX",
"AXAXAXAXAXAXAXAXAXAXAXAXAXAXAXAXAXAXAXAXAXAXAXAXAXAXAXAXAXAXAXAXAXAXAXAXAXAXAXAXAXAXAXAXAXAXAXAXAXAXAXAXAXAXAXAXAXAXAXAXAXAXAXAX",
"AXAXAXAXAXAXAXAXAXAXAXAXAXAXAXAXAXAXAXAXAXAXAXAXAXAXAXAXAXAXAXAXAXAXAXAXAXAXAXAXAXAXAXAXAXAXAXAXAXAXAXAXAXAXAXAXAXAXAXAXAXAXAXAX",
"AXAXAXAXAXAXAXAXAXAXAXAXAXAXAXAXAXAXAXAXAXAXAXAXAX%X/.X.^.^.^.^.^.^.^.^.X./.AXAXAXAXAXAXAXAXAXAXAXAXAXAXAXAXAXAXAXAXAXAXAXAXAXAX",
"AXAXAXAXAXAXAXAXAXAXAXAXAXAXAXAXAXAXAXAXAXAXAXAXAXXXW 0 a U U U U U a a a Y XXAXAXAXAXAXAXAXAXAXAXAXAXAXAXAXAXAXAXAXAXAXAXAXAXAX",
"AXAXAXAXAXAXAXAXAXAXAXAXAXAXAXAXAXAXAXAXAXAXAXhX|.(.0.7.;X:X;X:X;X;X;X;X:X<X>XoXAXAXAXAXAXAXAXAXAXAXAXAXAXAXAXAXAXAXAXAXAXAXAXAX",
"AXAXAXAXAXAXAXAXAXAXAXAXAXAXAXAXAXAXAXAXAXAXAX}.C (.pXgXwX0X0X0X0X0X0X0XqX8X,XT /.AXAXAXAXAXAXAXAXAXAXAXAXAXAXAXAXAXAXAXAXAXAXAX",
"AXAXAXAXAXAXAXAXAXAXAXAXAXAXAXAXAXAXAXAXAXhX+XR.r.c.sXsX6X5X5X5X5X5X5X5XqXqX3X8.q.XXAXAXAXAXAXAXAXAXAXAXAXAXAXAXAXAXAXAXAXAXAXAX",
"AXAXAXAXAXAXAXAXAXAXAXAXAXAXAXAXAXAXAXAXAXW.Z r.M.B.U.B.K.K.K.F.K.K.J.U.9XqXqX8X<XW /.AXAXAXAXAXAXAXAXAXAXAXAXAXAXAXAXAXAXAXAXAX",
"AXAXAXAXAXAXAXAXAXAXAXAXAXAXAXAXAXAXAXhX}.g.d.f.L.L.F.H.D.H.H.D.F.H.v.L.7X5XwXfX3X9.5.@XAXAXAXAXAXAXAXAXAXAXAXAXAXAXAXAXAXAXAXAX",
"AXAXAXAXAXAXAXAXAXAXAXAXAXAXAXAXAXAXAX}.u.r.D.D.D.F.F.F.J.D.D.D.H.D.F.F.J.U.sXgXdX8X<Xq.X.AXAXAXAXAXAXAXAXAXAXAXAXAXAXAXAXAXAXAX",
"AXAXAXAXAXAXAXAXAXAXAXAXAXAXAXAXAXAXAXT.j r.L.L.F.F.F.F.D.J.D.F.F.F.F.F.F.G.-XuXdXfX4X&...AXAXAXAXAXAXAXAXAXAXAXAXAXAXAXAXAXAXAX",
"AXAXAXAXAXAXAXAXAXAXAXAXAXAXAXAXAXAXjXE.k r.F.F.D.F.F.F.J.F.F.F.F.F.F.F.F.D.S. XsXgXw.&...AXAXAXAXAXAXAXAXAXAXAXAXAXAXAXAXAXAXAX",
"AXAXAXAXAXAXAXAXAXAXAXAXAXAXAXkX%XhX=XY.t.f.D.F.F.F.F.F.F.F.F.F.F.F.F.F.F.D.Z.]. XyXq.a o.AXAXAXAXAXAXAXAXAXAXAXAXAXAXAXAXAXAXAX",
"AXAXAXAXAXAXAXAXAXAXAXAXAXAXkXo./ !.Y.Y.g.n.F.F.F.F.F.F.F.F.K.F.J.F.D.F.H.D.V.].Q.j.T 0 ..AXAXAXAXAXAXAXAXAXAXAXAXAXAXAXAXAXAXAX",
"AXAXAXAXAXAXAXAXAXAXAXAXAXAX&Xq.Y h m s.[.V.G.D.F.F.F.D.F.F.F.F.D.F.F.D.D.M.C.].i.j J E eX%XAXAXAXAXAXAXAXAXAXAXAXAXAXAXAXAXAXAX",
"AXAXAXAXAXAXAXAXAXAXAXAXAX(.eXcXyX^ m p.].[.Z.M.D.F.F.J.F.F.F.F.D.J.D.D.A.C.[.`.d.j ~.zXyXo.XXAXAXAXAXAXAXAXAXAXAXAXAXAXAXAXAXAX",
"AXAXAXAXAXAXAXAXAXAXAXAXAXU 0.CXCX~.m p.].].{.V.D.J.F.F.D.F.D.J.F.J.F.D.Z.].{.`.y.j tXVXxX;.R $XAXAXAXAXAXAXAXAXAXAXAXAXAXAXAXAX",
"AXAXAXAXAXAXAXAXAXAXAXAXAXY ,.xXCX~.j p.].].[.V.D.F.F.F.F.J.F.D.F.F.F.m.C.].].`.y.m  XCXcX-.t } .XAXAXAXAXAXAXAXAXAXAXAXAXAXAXAX",
"AXAXAXAXAXAXAXAXAXAXAXAXAXW ,.pXuXj.m p.`.`.].V.D.D.F.F.J.D.F.F.J.D.F.m.Z.`.{.R.y.V ).pXrX,.e X ] +XAXAXAXAXAXAXAXAXAXAXAXAXAXAX",
"AXAXAXAXAXAXAXAXAXAXAXAXAXP -.w.rX! m a.`.g.p.g.V.m.D.F.F.F.D.J.F.D.M.Z.g.p.R.].i.C z.rXw.;.i I R } .XAXAXAXAXAXAXAXAXAXAXAXAXAX",
"AXAXAXAXAXAXAXAXAXAXAXAXAXW Y 2.o.A Z p.R.y.C i.].A.I.H.J.F.F.D.D.m.Z.`.y.C i.x.d.Z ( 5.1.Y Y 4.1.r 2 AXAXAXAXAXAXAXAXAXAXAXAXAX",
"AXAXAXAXAXAXAXAXAXAXAXAXAXAXo.1.W T h u.i.N x F `.x.V.m.H.F.J.D.m.Z.[.E.S x V p.A h T 6.;.a ;.8.1.- 1 AXAXAXAXAXAXAXAXAXAXAXAXAX",
"AXAXAXAXAXAXAXAXAXAXAXAXAXAX&X..p 0 L Q N c = F `.{.[.Z.B.F.J.m.C.{.{.E.b * l m Q L a Y a L ;.2.<.q 2 AXAXAXAXAXAXAXAXAXAXAXAXAX",
"AXAXAXAXAXAXAXAXAXAXAXAXAXAX%XK 0 9.,X( h : = S ].{.{.x.V.A.A.C.[.`.{._.b # > J 6.9.6.9 e 0 ;.2.1.q 2 AXAXAXAXAXAXAXAXAXAXAXAXAX",
"AXAXAXAXAXAXAXAXAXAXAXAXAXAXAX2 9 3X8X9.t - = S ].{.].].{.[.{.{.].].{.R.b # w L :XwX2X5 . p ;.2.<.q 2 AXAXAXAXAXAXAXAXAXAXAXAXAX",
"AXAXAXAXAXAXAXAXAXAXAXAXAXAXAX{ / 2X3X9.Y r = N g.R.`.].`.].`.].].].R.u.x ; t ;.<X3X>XJ H Y >.4.<.q 2 AXAXAXAXAXAXAXAXAXAXAXAXAX",
"AXAXAXAXAXAXAXAXAXAXAXAXAXAXAXAX.X} 9 <.2.H = x D i.`.].].].].].].R.i.V > ; I 4.E J T <.5.3.5.7.<.q 2 AXAXAXAXAXAXAXAXAXAXAXAXAX",
"AXAXAXAXAXAXAXAXAXAXAXAXAXAXAXAXAX{ ` R <.r = o z u.`.].].].].].{.R.C l % < H <.H # H <.3.3.3.w.<.q 2 AXAXAXAXAXAXAXAXAXAXAXAXAX",
"AXAXAXAXAXAXAXAXAXAXAXAXAXAXAXAXAXjX+XO.- $ & O * F ].].].].`.].{.Y.b * * & ; r w e t r H Y :.4.<.w 2 AXAXAXAXAXAXAXAXAXAXAXAXAX",
"AXAXAXAXAXAXAXAXAXAXAXAXAXAXAXAXAXlX=X| 2 , : & @ b a.].].].].`.`.i.c @ * : 3 2 K L r O ; p ;.2.<.w 2 AXAXAXAXAXAXAXAXAXAXAXAXAX",
"AXAXAXAXAXAXAXAXAXAXAXAXAXAXAXAXjX}.Y.|.oX| v % @ x C p.`.{.].`.i.V : @ o b !.&X!.Q > * ; 0 Y 2.<.q 2 AXAXAXAXAXAXAXAXAXAXAXAXAX",
"AXAXAXAXAXAXAXAXAXAXAXAXAXAXAXAX#XT.u.%XbX}.B x , c N D E.`.`.i.V v > , d D #XnX#Xy.v % < L :.4.1.w 2 AXAXAXAXAXAXAXAXAXAXAXAXAX",
"AXAXAXAXAXAXAXAXAXAXAXAXAXAXAX}.}.OX$XmXbXQ.Z V F b o v t.i.i.V c c S u.V C @XnXvX$X!.v J E 2.7.1.w 1 AXAXAXAXAXAXAXAXAXAXAXAXAX",
"AXAXAXAXAXAXAXAXAXAXAXAXAXAXAXD C $XnXnXvXQ.B d.].F , : z M M v * , Y.R.y.V @XbXBXnX+XD ! 3.w.7.E r n AXAXAXAXAXAXAXAXAXAXAXAXAX",
"AXAXAXAXAXAXAXAXAXAXAXAXAXAXAXV V %XNXNXmXQ.m d.].E.F b c o > c S F E.R.y.V @XnXNXMX#Xt.! 5.q.Y K | AXAXAXAXAXAXAXAXAXAXAXAXAXAX",
"AXAXAXAXAXAXAXAXAXAXAXAXAXAXAXu.F $XnXMXvXQ.Z i.`.].].F 3 @ @ c Y.].].x.t.D |.bXMXbXOXC ! 3.>.- n AXAXAXAXAXAXAXAXAXAXAXAXAXAXAX",
"AXAXAXAXAXAXAXAXAXAXAXAXAXAXAXAX}.|.|.@X|./ J k.`.{.*XE.F S S u.R.*X{.`.! J  .|.@XOX~.j._ T K | AXAXAXAXAXAXAXAXAXAXAXAXAXAXAXAX",
"AXAXAXAXAXAXAXAXAXAXAXAXAXAXAXAX=XE.B Z A H L ^ ].[.{.].`.`.`.`.].].{.'.( a J C m D ~ 5.E ; ' AXAXAXAXAXAXAXAXAXAXAXAXAXAXAXAXAX",
"AXAXAXAXAXAXAXAXAXAXAXAXAXAXAXAXAX{ f d j k.l.l.~ ^ ~ ~ j.j.j.j.~ ~ ^ ~ ( l.A k d l J Y R } AXAXAXAXAXAXAXAXAXAXAXAXAXAXAXAXAXAX",
"AXAXAXAXAXAXAXAXAXAXAXAXAXAXAXAXAX' O d Z f.B.z.P p L i i i P i P i p T x.N.r.B d : # . } AXAXAXAXAXAXAXAXAXAXAXAXAXAXAXAXAXAXAX",
"AXAXAXAXAXAXAXAXAXAXAXAXAXAXAXAXAX` & f t.v.L.N.( ( ( ( ( ( ( ( ( ( ) ( B.L.r.B c @ 1 ' AXAXAXAXAXAXAXAXAXAXAXAXAXAXAXAXAXAXAXAX",
"AXAXAXAXAXAXAXAXAXAXAXAXAXAXAXAXAX' + l t.r.J.N.N.N.N.N.N.N.N.N.N.N.N.B.L.F.f.B o & [ AXAXAXAXAXAXAXAXAXAXAXAXAXAXAXAXAXAXAXAXAX",
"AXAXAXAXAXAXAXAXAXAXAXAXAXAXAXAXAX' @ o M h.B.F.L.P.L.L.L.L.J.L.P.L.H.I.n.x.t.d o = | AXAXAXAXAXAXAXAXAXAXAXAXAXAXAXAXAXAXAXAXAX",
"AXAXAXAXAXAXAXAXAXAXAXAXAXAXAXAXAX' @ + > u.C.G.L.P.J.P.L.L.P.P.P.H.A.[.t.c f % O @ | AXAXAXAXAXAXAXAXAXAXAXAXAXAXAXAXAXAXAXAXAX",
"AXAXAXAXAXAXAXAXAXAXAXAXAXAXAXAXAX' # X < Q T.g.b.b.b.b.x.b.b.b.b.x.g.! H $ $ - # @ | AXAXAXAXAXAXAXAXAXAXAXAXAXAXAXAXAXAXAXAXAX",
"AXAXAXAXAXAXAXAXAXAXAXAXAXAXAXAXAX' $ 7 u r l z d N v h c n g g h v b n e u #.s 6   AXAXAXAXAXAXAXAXAXAXAXAXAXAXAXAXAXAXAXAXAXAX",
"AXAXAXAXAXAXAXAXAXAXAXAXAXAXAXAXAX[ X s $.y - $ $ $ # = 4 4 4 4 +   + # y $.#.$.e 4 AXAXAXAXAXAXAXAXAXAXAXAXAXAXAXAXAXAXAXAXAXAX",
"AXAXAXAXAXAXAXAXAXAXAXAXAXAXAXAXAX' # 8 %.+.+.@.+.8 # ` .X+XAX| 1     # $ $ 7 6 O.AXAXAXAXAXAXAXAXAXAXAXAXAXAXAXAXAXAXAXAXAXAXAX",
"AXAXAXAXAXAXAXAXAXAXAXAXAXAXAXAXAX' # y +.=.*.*.*.$.# { AXAXAXAXAX= 1 3 3 3 * , AXAXAXAXAXAXAXAXAXAXAXAXAXAXAXAXAXAXAXAXAXAXAXAX",
"AXAXAXAXAXAXAXAXAXAXAXAXAXAXAXAXAX] X i w.iXxXxXxX0.# ' AXAXAXAXAXAXAXAXAXAXAXAXAXAXAXAXAXAXAXAXAXAXAXAXAXAXAXAXAXAXAXAXAXAXAXAX",
"AXAXAXAXAXAXAXAXAXAXAXAXAXAXAXAXAX' ; R w.zXVXZXVXtX4 [ AXAXAXAXAXAXAXAXAXAXAXAXAXAXAXAXAXAXAXAXAXAXAXAXAXAXAXAXAXAXAXAXAXAXAXAX",
"AXAXAXAXAXAXAXAXAXAXAXAXAXAXAXAXAXAX| K I q.e.tXtXX..XAXAXAXAXAXAXAXAXAXAXAXAXAXAXAXAXAXAXAXAXAXAXAXAXAXAXAXAXAXAXAXAXAXAXAXAXAX",
"AXAXAXAXAXAXAXAXAXAXAXAXAXAXAXAXAXAXAX} @ @ = . 1 | AXAXAXAXAXAXAXAXAXAXAXAXAXAXAXAXAXAXAXAXAXAXAXAXAXAXAXAXAXAXAXAXAXAXAXAXAXAX",
"AXAXAXAXAXAXAXAXAXAXAXAXAXAXAXAXAXAXAXAXAXAXAXAXAXAXAXAXAXAXAXAXAXAXAXAXAXAXAXAXAXAXAXAXAXAXAXAXAXAXAXAXAXAXAXAXAXAXAXAXAXAXAXAX",
"AXAXAXAXAXAXAXAXAXAXAXAXAXAXAXAXAXAXAXAXAXAXAXAXAXAXAXAXAXAXAXAXAXAXAXAXAXAXAXAXAXAXAXAXAXAXAXAXAXAXAXAXAXAXAXAXAXAXAXAXAXAXAXAX",
"AXAXAXAXAXAXAXAXAXAXAXAXAXAXAXAXAXAXAXAXAXAXAXAXAXAXAXAXAXAXAXAXAXAXAXAXAXAXAXAXAXAXAXAXAXAXAXAXAXAXAXAXAXAXAXAXAXAXAXAXAXAXAXAX",
"AXAXAXAXAXAXAXAXAXAXAXAXAXAXAXAXAXAXAXAXAXAXAXAXAXAXAXAXAXAXAXAXAXAXAXAXAXAXAXAXAXAXAXAXAXAXAXAXAXAXAXAXAXAXAXAXAXAXAXAXAXAXAXAX",
"AXAXAXAXAXAXAXAXAXAXAXAXAXAXAXAXAXAXAXAXAXAXAXAXAXAXAXAXAXAXAXAXAXAXAXAXAXAXAXAXAXAXAXAXAXAXAXAXAXAXAXAXAXAXAXAXAXAXAXAXAXAXAXAX",
"AXAXAXAXAXAXAXAXAXAXAXAXAXAXAXAXAXAXAXAXAXAXAXAXAXAXAXAXAXAXAXAXAXAXAXAXAXAXAXAXAXAXAXAXAXAXAXAXAXAXAXAXAXAXAXAXAXAXAXAXAXAXAXAX",
"AXAXAXAXAXAXAXAXAXAXAXAXAXAXAXAXAXAXAXAXAXAXAXAXAXAXAXAXAXAXAXAXAXAXAXAXAXAXAXAXAXAXAXAXAXAXAXAXAXAXAXAXAXAXAXAXAXAXAXAXAXAXAXAX"
};
