/* XPM */
static char *result[] = {
/* columns rows colors chars-per-pixel */
"64 64 240 2 ",
"   c #18121C",
".  c #271A1C",
"X  c #2A1518",
"o  c #222519",
"O  c #181822",
"+  c #251B23",
"@  c #1C2827",
"#  c #1B3821",
"$  c #242324",
"%  c #242A23",
"&  c #232D2A",
"*  c #282627",
"=  c #372825",
"-  c #223B22",
";  c #273326",
":  c #272C31",
">  c #293B35",
",  c #35362E",
"<  c #1F3C1E",
"1  c #53131B",
"2  c #69351B",
"3  c #73361B",
"4  c #451820",
"5  c #482725",
"6  c #592921",
"7  c #4F3429",
"8  c #473826",
"9  c #5A3422",
"0  c #453A35",
"q  c #6B3E26",
"w  c #653B24",
"e  c #763C23",
"r  c #6F2022",
"t  c #423218",
"y  c #1F461D",
"u  c #1B571D",
"i  c #364D1D",
"p  c #1D6B1D",
"a  c #1C761E",
"s  c #226D1E",
"d  c #1D4424",
"f  c #1F5A28",
"g  c #254824",
"h  c #394B25",
"j  c #215122",
"k  c #285A26",
"l  c #3B5722",
"z  c #2A4537",
"x  c #314B39",
"c  c #1D6824",
"v  c #1C7725",
"b  c #226422",
"n  c #236C22",
"m  c #2A6C26",
"M  c #247424",
"N  c #2A7C2A",
"B  c #277729",
"V  c #35762B",
"C  c #356936",
"Z  c #2D7A30",
"A  c #367937",
"S  c #296632",
"D  c #534B1A",
"F  c #4B412B",
"G  c #594827",
"H  c #495426",
"J  c #595525",
"K  c #5B4E34",
"L  c #684828",
"P  c #7D4B29",
"I  c #764626",
"U  c #6A5734",
"Y  c #765533",
"T  c #6F5130",
"R  c #426925",
"E  c #597D37",
"W  c #597935",
"Q  c #4D772E",
"!  c #676B24",
"~  c #667721",
"^  c #656334",
"/  c #727429",
"(  c #395545",
")  c #364D40",
"_  c #3A664A",
"`  c #3F7251",
"'  c #397864",
"]  c #455949",
"[  c #4F5143",
"{  c #6D5B43",
"}  c #45664A",
"|  c #557945",
" . c #447755",
".. c #4D724A",
"X. c #6B6749",
"o. c #7A6748",
"O. c #686D51",
"+. c #6C7653",
"@. c #737A4E",
"#. c #B0121D",
"$. c #8B2C25",
"%. c #9B2526",
"&. c #C2322E",
"*. c #84572B",
"=. c #885936",
"-. c #915238",
";. c #894A2B",
":. c #8A6737",
">. c #966A36",
",. c #936C38",
"<. c #996C37",
"1. c #8B7639",
"2. c #977538",
"3. c #8F7322",
"4. c #A56E3B",
"5. c #A6773D",
"6. c #8D5519",
"7. c #ED443D",
"8. c #887658",
"9. c #917153",
"0. c #AF7B51",
"q. c #9D6C5A",
"w. c #DC4D48",
"e. c #36AD1E",
"r. c #2C852C",
"t. c #2D8534",
"y. c #338D33",
"u. c #398A3C",
"i. c #349435",
"p. c #3A9D3C",
"a. c #338F2A",
"s. c #3CB623",
"d. c #3FA33E",
"f. c #3BA535",
"g. c #39AA29",
"h. c #31831F",
"j. c #5A9134",
"k. c #62822D",
"l. c #43A83B",
"z. c #4CB831",
"x. c #3AD623",
"c. c #44C926",
"v. c #4DDC2B",
"b. c #46D624",
"n. c #54D423",
"m. c #55DB21",
"M. c #49C539",
"N. c #49C936",
"B. c #4BD532",
"V. c #58C72E",
"C. c #4EE524",
"Z. c #4EE922",
"A. c #4AE928",
"S. c #57EA24",
"D. c #4EF523",
"F. c #67E926",
"G. c #3A9343",
"H. c #3F844C",
"J. c #3EAD43",
"K. c #459853",
"L. c #52904F",
"P. c #748657",
"I. c #699552",
"U. c #769559",
"Y. c #67874C",
"T. c #41A542",
"R. c #44AD44",
"E. c #4CAB41",
"W. c #46B345",
"Q. c #47B846",
"!. c #5AA35E",
"~. c #56A65E",
"^. c #4EA85D",
"/. c #6AB156",
"(. c #4D8C63",
"). c #569866",
"_. c #528E65",
"`. c #6B966B",
"'. c #5AAA65",
"]. c #5DB277",
"[. c #53B167",
"{. c #67B26D",
"}. c #6CB672",
"|. c #73AB6F",
" X c #48C346",
".X c #5EC579",
"XX c #6DC67A",
"oX c #79CB4C",
"OX c #BC9D1E",
"+X c #AE911F",
"@X c #938D2C",
"#X c #B89823",
"$X c #AD8626",
"%X c #B9AD23",
"&X c #CCB31B",
"*X c #C7AE2C",
"=X c #B5ED22",
"-X c #B6F028",
";X c #9FEE20",
":X c #DCC71E",
">X c #D2CB22",
",X c #EADB23",
"<X c #DBE92C",
"1X c #F4ED23",
"2X c #F9EE25",
"3X c #FCF422",
"4X c #FBF723",
"5X c #F8E936",
"6X c #B29271",
"7X c #ACAB72",
"8X c #AC8F54",
"9X c #C68F6D",
"0X c #D0AF78",
"qX c #DFA368",
"wX c #ADD64D",
"eX c #9BC55C",
"rX c #EFD44C",
"tX c #F1E243",
"yX c #DAC56B",
"uX c #6DCA85",
"iX c #66D989",
"pX c #B6A487",
"aX c #B6AF90",
"sX c #DBAC87",
"dX c #EDB78F",
"fX c #C19C80",
"gX c #88D38F",
"hX c #93DC9B",
"jX c #89D190",
"kX c #9BE3A5",
"lX c #A3EBAE",
"zX c #DAC997",
"xX c #EBC796",
"cX c #FBD9A7",
"vX c #F4DBB4",
"bX c #E8DBB0",
"nX c #FFE7BD",
"mX c #FFEBC2",
"MX c #FFF4C6",
"NX c None",
/* pixels */
"NXNXNXNXNXNXNXNXNXNXNXNXNXNXNXNXNXNXNXNXNXNXNXNXNXNXNXNXNXNXNXNXNXNXNXNXNXNXNXNXNXNXNXNXNXNXNXNXNXNXNXNXNXNXNXNXNXNXNXNXNXNXNXNX",
"NXNXNXNXNXNXNXNXNXNXNXNXNXNXNXNXNXNXNXNXNXNXNXNXNXNXNXNXNXNXNXNXNXNXNXNXNXNXNXNXNXNXNXNXNXNXNXNXNXNXNXNXNXNXNXNXNXNXNXNXNXNXNXNX",
"NXNXNXNXNXNXNXNXNXNXNXNXNXNXNXNXNXNXNXNXNXNXNXNXNXNXNXNXNXNXNXNXNXNXNXNXNXNXNXNXNXNXNXNXNXNXNXNXNXNXNXNXNXNXNXNXNXNXNXNXNXNXNXNX",
"NXNXNXNXNXNXNXNXNXNXNXNXNXNXNXNXNXNXNXNXNXNXNXNXNXNXNXNXNXNXNXNXNXNXNXNXNXNXNXNXNXNXNXNXNXNXNXNXNXNXNXNXNXNXNXNXNXNXNXNXNXNXNXNX",
"NXNXNXNXNXNXNXNXNXNXNXNXNXNXNXNXNXNXNXNXNXNXNXNXNXNXNXNXNXNXNXNXU.o.O.+.+.+.O.+.NXNXNXNXNXNXNXNXNXNXNXNXNXNXNXNXNXNXNXNXNXNXNXNX",
"NXNXNXNXNXNXNXNXNXNXNXNXNXNXNXNXNXNXNXNXNXNXNXNXNXNXNXNXNXNXNXNXo.e e P P e 3 ;.U.NXNXNXNXNXNXNXNXNXNXNXNXNXNXNXNXNXNXNXNXNXNXNX",
"NXNXNXNXNXNXNXNXNXNXNXNXNXNXNXNXNXNXNXNXNXNXNXNXNXNXNX}.`.+.P.@.9.8X$X#XOXOXOX#X@XP.NXNXNXNXNXNXNXNXNXNXNXNXNXNXNXNXNXNXNXNXNXNX",
"NXNXNXNXNXNXNXNXNXNXNXNXNXNXNXNXNXNXNXNXNXNXNXNXNXNXNX|.Y 3 2 =.9X0X5X1X3X1X3X1XOXI +.NXNXNXNXNXNXNXNXNXNXNXNXNXNXNXNXNXNXNXNXNX",
"NXNXNXNXNXNXNXNXNXNXNXNXNXNXNXNXNXNXNXNXNXNXNXNXNXiX[.P.q.5.$X*XrXrX5X3X4X4X4X3X:X+X@XP.NXNXNXNXNXNXNXNXNXNXNXNXNXNXNXNXNXNXNXNX",
"NXNXNXNXNXNXNXNXNXNXNXNXNXNXNXNXNXNXNXNXNXNXNXNXNX[.N Y.0XqX5X1X1X2X3X2X3X1X3X3X1X1XOXP +.NXNXNXNXNXNXNXNXNXNXNXNXNXNXNXNXNXNXNX",
"NXNXNXNXNXNXNXNXNXNXNXNXNXNXNXNXNXNXNXNXNXNXNXNX[.J.a.z.eXwX-X=X=X=X=X=X=X=X<X1X4X4X:X+X2.U.NXNXNXNXNXNXNXNXNXNXNXNXNXNXNXNXNXNX",
"NXNXNXNXNXNXNXNXNXNXNXNXNXNXNXNXNXNXNXNXNXNXNX[.N a.v.S.m.F.S.S.F.S.S.S.Z.F.=X1X3X1X1X1X*X*.O.NXNXNXNXNXNXNXNXNXNXNXNXNXNXNXNXNX",
"NXNXNXNXNXNXNXNXNXNXNXNXNXNXNXNXNXNXNXNXNXNX[.l.a.s.Z.D.Z.Z.Z.A.Z.Z.A.A.x.D.;X=X<XtXtX4X&X6.{ NXNXNXNXNXNXNXNXNXNXNXNXNXNXNXNXNX",
"NXNXNXNXNXNXNXNXNXNXNXNXNXNXNXNXNXNXNXNXNX^.t.e.b.C.Z.Z.Z.Z.Z.Z.Z.Z.Z.Z.Z.Z.D.F.wX0XrX4X&X;.{ NXNXNXNXNXNXNXNXNXNXNXNXNXNXNXNXNX",
"NXNXNXNXNXNXNXNXNXNXNXNXNXNXNXNXNXNXNXNXNXK.p e.Z.D.Z.Z.C.Z.Z.C.Z.Z.Z.Z.Z.Z.Z.x.oX7XyXtX*X;.U NXNXNXNXNXNXNXNXNXNXNXNXNXNXNXNXNX",
"NXNXNXNXNXNXNXNXNXNXNXNXNXNXNXNXNXNXNXNXNXK.s e.Z.Z.Z.Z.Z.Z.Z.Z.Z.Z.Z.Z.Z.Z.Z.Z.V./.eXyX9X;.{ NXNXNXNXNXNXNXNXNXNXNXNXNXNXNXNXNX",
"NXNXNXNXNXNXNXNXNXNXNXNXNXNXNXNXNXuX}.iX.XK.r.s.C.Z.Z.Z.Z.Z.C.Z.Z.Z.S.Z.Z.Z.Z.C.B.d./.7X0.I X.NXNXNXNXNXNXNXNXNXNXNXNXNXNXNXNXNX",
"NXNXNXNXNXNXNXNXNXNXNXNXNXNXNXNXuXP.^ Q G.G.f.N.C.Z.Z.Z.Z.Z.Z.S.Z.Z.Z.Z.C.Z.S.Z.B.l.L.L.^ 2 U NXNXNXNXNXNXNXNXNXNXNXNXNXNXNXNXNX",
"NXNXNXNXNXNXNXNXNXNXNXNXNXNXNXNX|.9.e H a i.W.N.v.C.C.Z.Z.Z.Z.Z.Z.Z.Z.Z.Z.Z.Z.v.B.J.i.v l T 8.|.NXNXNXNXNXNXNXNXNXNXNXNXNXNXNXNX",
"NXNXNXNXNXNXNXNXNXNXNXNXNXNXNXP.8.0XpX| a i.W.Q.M.v.C.Z.Z.Z.Z.Z.Z.Z.Z.Z.Z.Z.B.M. XQ.a.v Y.pXpX8.`.NXNXNXNXNXNXNXNXNXNXNXNXNXNXNX",
"NXNXNXNXNXNXNXNXNXNXNXNXNXNXNXT -.dXbXU.a i.W.R.R.M.v.C.Z.Z.Z.Z.S.Z.Z.Z.Z.A.N.W.R.J.t.p I.bXdX-.L |.NXNXNXNXNXNXNXNXNXNXNXNXNXNX",
"NXNXNXNXNXNXNXNXNXNXNXNXNXNXNXT -.sXzXI.s i.W.p.y.f.M.v.Z.Z.Z.S.C.C.Z.Z.Z.C.N.W.p.i.r.a I.zXsX-.9 K (.NXNXNXNXNXNXNXNXNXNXNXNXNX",
"NXNXNXNXNXNXNXNXNXNXNXNXNXNXNXU ;.6X7XY.v y.l.i.M y.d.M.v.C.A.A.Z.Z.Z.Z.Z.v.N.J.y.M p p Y.0X9X=.6 X z ).NXNXNXNXNXNXNXNXNXNXNXNX",
"NXNXNXNXNXNXNXNXNXNXNXNXNXNXNXY $.0.8Xk.v r.y.r.s N y.l.N.N.N.B.C.Z.Z.C.v.N. XW.A d u c k.8X0.;.L q U .._.NXNXNXNXNXNXNXNXNXNXNX",
"NXNXNXNXNXNXNXNXNXNXNXNXNXNXNXU e <.2.Q a s M n n M M y.R.W.W.z.v.Z.Z.v.N.W.W.R.C % g u Q 1.>.P P <.,.7 > NXNXNXNXNXNXNXNXNXNXNX",
"NXNXNXNXNXNXNXNXNXNXNXNXNXNXNXNXP.:.*.J H k s b j j M r.T.W.W.W.N.N.B.N.z.W.d.u.k + ; H J *.*.I P <.2.7 @ NXNXNXNXNXNXNXNXNXNXNX",
"NXNXNXNXNXNXNXNXNXNXNXNXNXNXNXNXNXo.3 3 I R m j % d n t.T.R.W.W.W.W.W.W.W.R.i.B j % = D I I I q P >.,.7 & NXNXNXNXNXNXNXNXNXNXNX",
"NXNXNXNXNXNXNXNXNXNXNXNXNXNXNXNXNXK 6 3.3./ l g y g j m y.J.R.W.W.E.W.W.W.R.i.n # . D +X3.w 5 2 P <.,.7 & NXNXNXNXNXNXNXNXNXNXNX",
"NXNXNXNXNXNXNXNXNXNXNXNXNXNXNXNXNXx t %X,X+X9 l b d % j m y.l.R.W.R.W.W.W.T.y.m #   ~ ,X%XF + 9 P <.>.7 & NXNXNXNXNXNXNXNXNXNXNX",
"NXNXNXNXNXNXNXNXNXNXNXNXNXNXNXNXNXNX} @X&XOX$Xk.Q h + # c r.i.d.R.W.W.W.W.R.Z b H ! @X&X@XJ F I =.2.>.7 & NXNXNXNXNXNXNXNXNXNXNX",
"NXNXNXNXNXNXNXNXNXNXNXNXNXNXNXNXNXNXNX} D +X,X*X2.K + # b M N y.T.W.W.W.W.T.C ; @X:X%XJ J :.2.,.2.5.:.7 & _.NXNXNXNXNXNXNXNXNXNX",
"NXNXNXNXNXNXNXNXNXNXNXNXNXNXNXNXNXNXNX' x @X>X#X:.T F h j b s N u.T.R.W.Q.T.S $ ! >X@X= 8 Y ,.>.>.5.:.7 & _.NXNXNXNXNXNXNXNXNXNX",
"NXNXNXNXNXNXNXNXNXNXNXNXNXNXNXNXNXNXNXiX].| D 8 8 K :.T ; g b M N y.l.W.Q.T.C + = J G 9 9 8 G T *.<.,.7 & NXNXNXNXNXNXNXNXNXNXNX",
"NXNXNXNXNXNXNXNXNXNXNXNXNXNXNXNXNXNXNXiXuX(.: @ @ G ,.T = # j b n B i.d.T.d.S $ : > 0 L 8 % o 9 ;.>.,.7 & NXNXNXNXNXNXNXNXNXNXNX",
"NXNXNXNXNXNXNXNXNXNXNXNXNXNXNXNXNXNXNX[.G.).`. .f h 8 8 + . % g b M r.r.y.N g + [ `.L.R i o = 9 P <.,.7 & NXNXNXNXNXNXNXNXNXNXNX",
"NXNXNXNXNXNXNXNXNXNXNXNXNXNXNXNXNXNX.XG.Z {.hX'.B j ; & & ; * g k c b b b k y : _.hX}.u.f % , 2 *.<.,.8 : NXNXNXNXNXNXNXNXNXNXNX",
"NXNXNXNXNXNXNXNXNXNXNXNXNXNXNXNXNXNX^.'.}.jXhX~.B B A A A A u.C j % < - < < y k ).hXgX}.K.S H Y >.5.<.7 + NXNXNXNXNXNXNXNXNXNXNX",
"NXNXNXNXNXNXNXNXNXNXNXNXNXNXNXNXNXt.B {.hXkXjX!.m r.W.Q.W.W.W.u.x + $ % * % d V '.jXhXhX{.t.R 1.5.5.:.7 > NXNXNXNXNXNXNXNXNXNXNX",
"NXNXNXNXNXNXNXNXNXNXNXNXNXNXNXNXNXZ n }.kXlXhX~.M r.W.W.^.Q.Q.T.u.C C A C A M B '.jXlXkX}.t.V @X4.T K ..NXNXNXNXNXNXNXNXNXNXNXNX",
"NXNXNXNXNXNXNXNXNXNXNXNXNXNXNXNXNXu.V {.hXhXjX!.N r.R.W.W.W.W.R.R.R.W.R.W.J.t.B ~.jXkXhX{.Z R 1.:.5 > NXNXNXNXNXNXNXNXNXNXNXNXNX",
"NXNXNXNXNXNXNXNXNXNXNXNXNXNXNXNXNXNX^.'.'.'.!.W H Q W.Q.W.Q.W.Q.Q.Q.Q.Q. XQ.j.H W !.'.'.I.E ^ L K ..NXNXNXNXNXNXNXNXNXNXNXNXNXNX",
"NXNXNXNXNXNXNXNXNXNXNXNXNXNXNXNXNXNXNXK.M a V H q W E.Q.R.W.R.R.E.R.R.W.Q.l.W w F V v B Q 2.:.= x NXNXNXNXNXNXNXNXNXNXNXNXNXNXNX",
"NXNXNXNXNXNXNXNXNXNXNXNXNXNXNXNXNXNXNXH.y u b R ^ W E E E E E E E E E E k.E k.k.R n f u h T U } _.NXNXNXNXNXNXNXNXNXNXNXNXNXNXNX",
"NXNXNXNXNXNXNXNXNXNXNXNXNXNXNXNXNXNXNX} % y M u.T.E L q q q q q q q L q 3 D j.n.s.M u ; + . ] NXNXNXNXNXNXNXNXNXNXNXNXNXNXNXNXNX",
"NXNXNXNXNXNXNXNXNXNXNXNXNXNXNXNXNXNXNX} $ y M p.W.L.! ! ~ ~ ~ ~ ! ! ~ ! ! ~ V.D.c.a d . * ( _.NXNXNXNXNXNXNXNXNXNXNXNXNXNXNXNXNX",
"NXNXNXNXNXNXNXNXNXNXNXNXNXNXNXNXNXNXNX_ $ y M i.W.W.E.z.v.m.n.n.n.n.n.n.n.m.S.D.s.M y . ( NXNXNXNXNXNXNXNXNXNXNXNXNXNXNXNXNXNXNX",
"NXNXNXNXNXNXNXNXNXNXNXNXNXNXNXNXNXNXNX} $ # b Z y.G.u.f.z.b.A.A.D.D.D.D.A.A.c.e.h.s k x _.NXNXNXNXNXNXNXNXNXNXNXNXNXNXNXNXNXNXNX",
"NXNXNXNXNXNXNXNXNXNXNXNXNXNXNXNXNXNXNX_ + o ; - z d d d d V l.B.A.D.D.D.v.Q.A h o o } ].NXNXNXNXNXNXNXNXNXNXNXNXNXNXNXNXNXNXNXNX",
"NXNXNXNXNXNXNXNXNXNXNXNXNXNXNXNXNXNXNX .+ O $ = = 4 X 1 4 0 } f.z.c.c.z.l.u.( ) , x _.NXNXNXNXNXNXNXNXNXNXNXNXNXNXNXNXNXNXNXNXNX",
"NXNXNXNXNXNXNXNXNXNXNXNXNXNXNXNXNXNXNX] X O $ 1 r %.#.#.#.%.0 z k k i g ; > (.].].NXNXNXNXNXNXNXNXNXNXNXNXNXNXNXNXNXNXNXNXNXNXNX",
"NXNXNXNXNXNXNXNXNXNXNXNXNXNXNXNXNXNXNX .: & * 6 %.&.7.7.7.&.=     + : , * z ).NXNXNXNXNXNXNXNXNXNXNXNXNXNXNXNXNXNXNXNXNXNXNXNXNX",
"NXNXNXNXNXNXNXNXNXNXNXNXNXNXNXNXNXNXNXNX_.( $ 1 %.w.qXdXdX0.0     *  .'.NXNXNXNXNXNXNXNXNXNXNXNXNXNXNXNXNXNXNXNXNXNXNXNXNXNXNXNX",
"NXNXNXNXNXNXNXNXNXNXNXNXNXNXNXNXNXNXNXNXNX .+ 1 $.0.bXMXMXaX] O + ( NXNXNXNXNXNXNXNXNXNXNXNXNXNXNXNXNXNXNXNXNXNXNXNXNXNXNXNXNXNX",
"NXNXNXNXNXNXNXNXNXNXNXNXNXNXNXNXNXNXNXNXNX .+ T q.dXvXmXmXaX, :  .NXNXNXNXNXNXNXNXNXNXNXNXNXNXNXNXNXNXNXNXNXNXNXNXNXNXNXNXNXNXNX",
"NXNXNXNXNXNXNXNXNXNXNXNXNXNXNXNXNXNXNXNXNX .+ o.dXxXvXmXmXpX, > NXNXNXNXNXNXNXNXNXNXNXNXNXNXNXNXNXNXNXNXNXNXNXNXNXNXNXNXNXNXNXNX",
"NXNXNXNXNXNXNXNXNXNXNXNXNXNXNXNXNXNXNXNXNX_ . 8.dXcXvXmXmXpX0 > NXNXNXNXNXNXNXNXNXNXNXNXNXNXNXNXNXNXNXNXNXNXNXNXNXNXNXNXNXNXNXNX",
"NXNXNXNXNXNXNXNXNXNXNXNXNXNXNXNXNXNXNXNXNX_ * o.sXxXvXnXmXpX, z NXNXNXNXNXNXNXNXNXNXNXNXNXNXNXNXNXNXNXNXNXNXNXNXNXNXNXNXNXNXNXNX",
"NXNXNXNXNXNXNXNXNXNXNXNXNXNXNXNXNXNXNXNXNXNXNXO.8.6XxXcXvX6X, > NXNXNXNXNXNXNXNXNXNXNXNXNXNXNXNXNXNXNXNXNXNXNXNXNXNXNXNXNXNXNXNX",
"NXNXNXNXNXNXNXNXNXNXNXNXNXNXNXNXNXNXNXNXNXNXNXNX; 9.sXxXdX0.5 z NXNXNXNXNXNXNXNXNXNXNXNXNXNXNXNXNXNXNXNXNXNXNXNXNXNXNXNXNXNXNXNX",
"NXNXNXNXNXNXNXNXNXNXNXNXNXNXNXNXNXNXNXNXNXNXNXNX_ [ 8.9.q.+...NXNXNXNXNXNXNXNXNXNXNXNXNXNXNXNXNXNXNXNXNXNXNXNXNXNXNXNXNXNXNXNXNX",
"NXNXNXNXNXNXNXNXNXNXNXNXNXNXNXNXNXNXNXNXNXNXNXNXNXNX, X = ] NXNXNXNXNXNXNXNXNXNXNXNXNXNXNXNXNXNXNXNXNXNXNXNXNXNXNXNXNXNXNXNXNXNX",
"NXNXNXNXNXNXNXNXNXNXNXNXNXNXNXNXNXNXNXNXNXNXNXNXNXNX_ x x (.NXNXNXNXNXNXNXNXNXNXNXNXNXNXNXNXNXNXNXNXNXNXNXNXNXNXNXNXNXNXNXNXNXNX",
"NXNXNXNXNXNXNXNXNXNXNXNXNXNXNXNXNXNXNXNXNXNXNXNXNXNXNXNXNXNXNXNXNXNXNXNXNXNXNXNXNXNXNXNXNXNXNXNXNXNXNXNXNXNXNXNXNXNXNXNXNXNXNXNX",
"NXNXNXNXNXNXNXNXNXNXNXNXNXNXNXNXNXNXNXNXNXNXNXNXNXNXNXNXNXNXNXNXNXNXNXNXNXNXNXNXNXNXNXNXNXNXNXNXNXNXNXNXNXNXNXNXNXNXNXNXNXNXNXNX"
};
