/* XPM */
static char *result[] = {
/* columns rows colors chars-per-pixel */
"64 64 251 2 ",
"   c #1C101D",
".  c #25191D",
"X  c #321B1D",
"o  c #230B17",
"O  c #1E391F",
"+  c #1F2D1F",
"@  c #231C23",
"#  c #271823",
"$  c #3C1722",
"%  c #1E3920",
"&  c #1F2721",
"*  c #242424",
"=  c #292324",
"-  c #252A27",
";  c #372523",
":  c #233323",
">  c #243A24",
",  c #2B3527",
"<  c #273837",
"1  c #2A3634",
"2  c #323838",
"3  c #33302D",
"4  c #2E1E1F",
"5  c #48171C",
"6  c #5A1A1F",
"7  c #4C0D1B",
"8  c #4E391B",
"9  c #6A341B",
"0  c #72361B",
"q  c #462D27",
"w  c #452926",
"e  c #562621",
"r  c #473626",
"t  c #563624",
"y  c #782223",
"u  c #6A3D25",
"i  c #673925",
"p  c #743D23",
"a  c #632A27",
"s  c #77151E",
"d  c #1D501F",
"f  c #2A491E",
"g  c #365A1E",
"h  c #1B731B",
"j  c #30661E",
"k  c #1D5727",
"l  c #244C24",
"z  c #264825",
"x  c #275825",
"c  c #2A4537",
"v  c #2F5A31",
"b  c #395932",
"n  c #354F2B",
"m  c #1C7826",
"M  c #1B6F20",
"N  c #256826",
"B  c #237323",
"V  c #2A742A",
"C  c #2B7A2B",
"Z  c #237628",
"A  c #397B28",
"S  c #336934",
"D  c #2A7B31",
"F  c #357936",
"G  c #37672C",
"H  c #59432C",
"J  c #475625",
"K  c #4B4736",
"L  c #514F2F",
"P  c #6A4326",
"I  c #6A4629",
"U  c #714029",
"Y  c #774A29",
"T  c #65552B",
"R  c #675937",
"E  c #785732",
"W  c #76552D",
"Q  c #466827",
"!  c #597C35",
"~  c #587D3A",
"^  c #506F32",
"/  c #666E21",
"(  c #676825",
")  c #6E6E2E",
"_  c #43791C",
"`  c #395A45",
"'  c #304C42",
"]  c #3B6648",
"[  c #486348",
"{  c #547A46",
"}  c #427654",
"|  c #497856",
" . c #536D4A",
".. c #6D694A",
"X. c #72744E",
"o. c #475F4B",
"O. c #9D1A1E",
"+. c #A4131C",
"@. c #882122",
"#. c #912523",
"$. c #833F27",
"%. c #B4332D",
"&. c #822C1E",
"*. c #ED3334",
"=. c #844829",
"-. c #82512B",
";. c #85592E",
":. c #875B34",
">. c #97553B",
",. c #894A30",
"<. c #856436",
"1. c #8A6537",
"2. c #9A6C37",
"3. c #976B38",
"4. c #9B733B",
"5. c #967637",
"6. c #876A2E",
"7. c #A5783C",
"8. c #A77B2D",
"9. c #A1711C",
"0. c #985E45",
"q. c #916C4B",
"w. c #AF7B4D",
"e. c #A37565",
"r. c #D47958",
"t. c #36AD1D",
"y. c #2B832A",
"u. c #2D8E31",
"i. c #378836",
"p. c #339334",
"a. c #3B9D3B",
"s. c #369937",
"d. c #32902B",
"f. c #3BB624",
"g. c #3EA73A",
"h. c #37A923",
"j. c #5A8239",
"k. c #4C8331",
"l. c #628229",
"z. c #638A31",
"x. c #46BB3D",
"c. c #4AB12B",
"v. c #65B23A",
"b. c #3BC923",
"n. c #3DD521",
"m. c #44C222",
"M. c #47CB2C",
"N. c #4DDB2B",
"B. c #4AD728",
"V. c #54D222",
"C. c #4ACC35",
"Z. c #4AC639",
"A. c #46C736",
"S. c #4CD732",
"D. c #56C82B",
"F. c #4EE524",
"G. c #4EE923",
"H. c #4DE229",
"J. c #4AEC26",
"K. c #51EB22",
"L. c #5BE725",
"P. c #4EF323",
"I. c #4EF822",
"U. c #4CE133",
"Y. c #6DE827",
"T. c #3B9645",
"R. c #3D884B",
"E. c #3EA647",
"W. c #448A45",
"Q. c #449B42",
"!. c #4C9A57",
"~. c #558E51",
"^. c #648B4D",
"/. c #6C8459",
"(. c #6B845B",
"). c #728858",
"_. c #719156",
"`. c #41A442",
"'. c #43AD43",
"]. c #4DA540",
"[. c #45B345",
"{. c #46BA44",
"}. c #47B647",
"|. c #52A75E",
" X c #70B059",
".X c #4F8F65",
"XX c #749C63",
"oX c #738D64",
"OX c #5EA963",
"+X c #53AE68",
"@X c #60AB65",
"#X c #66B46B",
"$X c #72B273",
"%X c #47C045",
"&X c #5AC478",
"*X c #77C467",
"=X c #B8901E",
"-X c #B6951C",
";X c #8B8736",
":X c #AA8423",
">X c #B29325",
",X c #B3AF23",
"<X c #9FA52A",
"1X c #C7B326",
"2X c #CEAA24",
"3X c #B7F323",
"4X c #B5EE2C",
"5X c #90EC21",
"6X c #EADC22",
"7X c #C1F024",
"8X c #F7EC22",
"9X c #FEF222",
"0X c #EEEC2B",
"qX c #89845B",
"wX c #8C8C41",
"eX c #AB8E53",
"rX c #888B6C",
"tX c #B49B76",
"yX c #AF956E",
"uX c #B1AE6C",
"iX c #8FA16B",
"pX c #C89873",
"aX c #CDA77A",
"sX c #C0874C",
"dX c #ACD254",
"fX c #EACB57",
"gX c #F8E743",
"hX c #E7C26F",
"jX c #64CB81",
"kX c #77C785",
"lX c #66D88C",
"zX c #AEAE86",
"xX c #97BF85",
"cX c #D4B28F",
"vX c #F5AD8D",
"bX c #E09C82",
"nX c #8CD695",
"mX c #94DD9C",
"MX c #84CF8C",
"NX c #9BE3A5",
"BX c #ABEBB0",
"VX c #A6DDA2",
"CX c #CFC799",
"ZX c #DCD4A7",
"AX c #EDDDB1",
"SX c #EACCA7",
"DX c #FCE3BA",
"FX c #D7D6A5",
"GX c #FFECC4",
"HX c #FFF8D1",
"JX c None",
/* pixels */
"JXJXJXJXJXJXJXJXJXJXJXJXJXJXJXJXJXJXJXJXJXJXJXJXJXJXJXJXJXJXJXJXJXJXJXJXJXJXJXJXJXJXJXJXJXJXJXJXJXJXJXJXJXJXJXJXJXJXJXJXJXJXJXJX",
"JXJXJXJXJXJXJXJXJXJXJXJXJXJXJXJXJXJXJXJXJXJXJXJXJXJXJXJXJXJXJXJXJXJXJXJXJXJXJXJXJXJXJXJXJXJXJXJXJXJXJXJXJXJXJXJXJXJXJXJXJXJXJXJX",
"JXJXJXJXJXJXJXJXJXJXJXJXJXJXJXJXJXJXJXJXJXJXJXJXJXJXJXJXJXJXJXJXJXJXJXJXJXJXJXJXJXJXJXJXJXJXJXJXJXJXJXJXJXJXJXJXJXJXJXJXJXJXJXJX",
"JXJXJXJXJXJXJXJXJXJXJXJXJXJXJXJXJXJXJXJXJXJXJXJXJXJXJXJXJXJXJXJXJXJXJXJXJXJXJXJXJXJXJXJXJXJXJXJXJXJXJXJXJXJXJXJXJXJXJXJXJXJXJXJX",
"JXJXJXJXJXJXJXJXJXJXJXJXJXJXJXJXJXJXJXJXJXJXJXJXJXJXJXJXJXJXJXJXJXJXJXJXJXJXJXJXJXJXJXJXJXJXJXJXJXJXJXJXJXJXJXJXJXJXJXJXJXJXJXJX",
"JXJXJXJXJXJXJXJXJXJXJXJXJXJXJXJXJXJXJXJXJXJXJXJXJXJXJXJXJXJXJXJXJXJXJXJXJXJXJXJXJXJXJXJXJXJXJXJXJXJXJXJXJXJXJXJXJXJXJXJXJXJXJXJX",
"JXJXJXJXJXJXJXJXJXJXJXJXJXJXJXJXJXJXJXJXJXJXJXJXJX$XoXX././././././.(.(.X.).JXJXJXJXJXJXJXJXJXJXJXJXJXJXJXJXJXJXJXJXJXJXJXJXJXJX",
"JXJXJXJXJXJXJXJXJXJXJXJXJXJXJXJXJXJXJXJXJXJXJXJXJXXXW i U U U U U U U U p Y XXJXJXJXJXJXJXJXJXJXJXJXJXJXJXJXJXJXJXJXJXJXJXJXJXJX",
"JXJXJXJXJXJXJXJXJXJXJXJXJXJXJXJXJXJXJXJXJXJXJX&XOX).w.7.=X=X=X=X=X=X=X=X-X>XwXoXJXJXJXJXJXJXJXJXJXJXJXJXJXJXJXJXJXJXJXJXJXJXJXJX",
"JXJXJXJXJXJXJXJXJXJXJXJXJXJXJXJXJXJXJXJXJXJXJX|.C X.aXhX0X8X8X8X8X8X8X8X9X6X:XI oXJXJXJXJXJXJXJXJXJXJXJXJXJXJXJXJXJXJXJXJXJXJXJX",
"JXJXJXJXJXJXJXJXJXJXJXJXJXJXJXJXJXJXJXJXJXjX+XE.h.v.dXdX4X3X3X3X3X3X3X3X9X9X1X:XwXXXJXJXJXJXJXJXJXJXJXJXJXJXJXJXJXJXJXJXJXJXJXJX",
"JXJXJXJXJXJXJXJXJXJXJXJXJXJXJXJXJXJXJXJXJX|.Z h.B.N.N.L.L.L.L.K.L.L.K.Y.3X9X9X6X>XI (.JXJXJXJXJXJXJXJXJXJXJXJXJXJXJXJXJXJXJXJXJX",
"JXJXJXJXJXJXJXJXJXJXJXJXJXJXJXJXJXJXJXjX+Xc.d.b.K.P.G.G.F.J.F.F.J.J.n.P.5X3X0XgX2X9.;XXXJXJXJXJXJXJXJXJXJXJXJXJXJXJXJXJXJXJXJXJX",
"JXJXJXJXJXJXJXJXJXJXJXJXJXJXJXJXJXJXJX!.y.t.n.G.G.G.G.G.G.G.F.J.G.G.G.G.L.Y.dXhXfX6X,X;.X.JXJXJXJXJXJXJXJXJXJXJXJXJXJXJXJXJXJXJX",
"JXJXJXJXJXJXJXJXJXJXJXJXJXJXJXJXJXJXJXR.h t.P.G.G.G.G.G.G.G.G.G.G.G.G.G.J.N.*XuXfXgX1X&...JXJXJXJXJXJXJXJXJXJXJXJXJXJXJXJXJXJXJX",
"JXJXJXJXJXJXJXJXJXJXJXJXJXJXJXJXJXJXlXQ.j t.G.G.G.G.G.G.G.G.G.G.G.G.G.G.G.F.D. XuXhXeX$...JXJXJXJXJXJXJXJXJXJXJXJXJXJXJXJXJXJXJX",
"JXJXJXJXJXJXJXJXJXJXJXJXJXJXJXkX$XlX&XT.y.f.G.P.K.G.F.K.F.G.K.G.K.G.G.G.G.F.A.[. XyXq.p X.JXJXJXJXJXJXJXJXJXJXJXJXJXJXJXJXJXJXJX",
"JXJXJXJXJXJXJXJXJXJXJXJXJXJX&XX.R W.T.T.g.M.G.G.G.G.G.G.K.G.G.G.G.F.G.G.J.G.A.[.Q.^.( 9 ..JXJXJXJXJXJXJXJXJXJXJXJXJXJXJXJXJXJXJX",
"JXJXJXJXJXJXJXJXJXJXJXJXJXJX$Xq.Y g m s.{.C.N.G.F.G.G.G.F.G.G.F.G.G.K.F.G.N.Z.[.i.h g E qX$XJXJXJXJXJXJXJXJXJXJXJXJXJXJXJXJXJXJX",
"JXJXJXJXJXJXJXJXJXJXJXJXJX).e.tXtXj.m s.[.x.Z.B.F.K.G.G.G.K.G.K.G.G.G.H.C.Z.}.'.u.m ^.cXtXq.XXJXJXJXJXJXJXJXJXJXJXJXJXJXJXJXJXJX",
"JXJXJXJXJXJXJXJXJXJXJXJXJXI >.SXFX~.m s.[.[.[.C.F.K.G.K.F.K.K.F.G.G.K.N.Z.[.'.'.u.B XXAXcX,.R #XJXJXJXJXJXJXJXJXJXJXJXJXJXJXJXJX",
"JXJXJXJXJXJXJXJXJXJXJXJXJXI >.vXCX~.h p.[.}.}.C.G.G.G.F.G.G.G.G.G.G.K.F.Z.'.}.'.u.B _.SXbX,.t ` .XJXJXJXJXJXJXJXJXJXJXJXJXJXJXJX",
"JXJXJXJXJXJXJXJXJXJXJXJXJXW >.pXuX! m s.'.'.[.C.H.G.F.K.K.F.G.G.K.G.F.N.x.x.[.'.d.V _.aXsX:.e X ' @XJXJXJXJXJXJXJXJXJXJXJXJXJXJX",
"JXJXJXJXJXJXJXJXJXJXJXJXJXI $.eXeX^ y.T.'.g.p.c.C.B.G.G.G.G.F.G.G.H.B.A.g.s.g.[.p.Z z.eXw.Y P P R | .XJXJXJXJXJXJXJXJXJXJXJXJXJX",
"JXJXJXJXJXJXJXJXJXJXJXJXJXE =.3.6.A Z s.g.u.C p.[.C.H.K.G.G.G.K.G.B.Z.x.D C p.[.p.Z ! 5.3.Y -.2.1.q < JXJXJXJXJXJXJXJXJXJXJXJXJX",
"JXJXJXJXJXJXJXJXJXJXJXJXJXJXq.<.E T g i.p.N z F '.%XC.B.G.K.G.F.N.C.{.`.S l V p.A J T ;.-.p Y 7.3.; 1 JXJXJXJXJXJXJXJXJXJXJXJXJX",
"JXJXJXJXJXJXJXJXJXJXJXJXJXJX$X..p 9 P G N f - F `.}.{.C.N.K.K.N.Z.[.[.Q.v - l B Q 0 0 p 0 p -.2.<.w < JXJXJXJXJXJXJXJXJXJXJXJXJX",
"JXJXJXJXJXJXJXJXJXJXJXJXJXJXJXK 9 9.:X/ n , = S [.}.[.x.C.S.S.Z.[.[.}.`.v . > J / :X6.8 t 9 -.2.<.q < JXJXJXJXJXJXJXJXJXJXJXJXJX",
"JXJXJXJXJXJXJXJXJXJXJXJXJXJXJX< 8 1X6X9.t ; - S [.[.[.[.{.{.}.}.[.[.[.E.v # w P -X0X<X8 X i -.2.<.q < JXJXJXJXJXJXJXJXJXJXJXJXJX",
"JXJXJXJXJXJXJXJXJXJXJXJXJXJXJXJX^ <X1X8.Y q = N a.'.[.[.'.'.'.[.[.[.g.i.x = t -.>X1X;XJ H Y 1.2.<.q < JXJXJXJXJXJXJXJXJXJXJXJXJX",
"JXJXJXJXJXJXJXJXJXJXJXJXJXJXJXJXJX^ r ;.2.H * l C p.'.[.}.}.'.}.[.`.p.V z ; I 7.E J T 1.5.1.5.7.<.q < JXJXJXJXJXJXJXJXJXJXJXJXJX",
"JXJXJXJXJXJXJXJXJXJXJXJXJXJXJXJXJXJX' R <.t - O x i.'.[.[.'.}.'.[.E.V d O = H <.H = H E 3.3.3.w.<.q < JXJXJXJXJXJXJXJXJXJXJXJXJX",
"JXJXJXJXJXJXJXJXJXJXJXJXJXJXJXJXJXJXJX .w = * & - S '.[.}.'.[.[.[.Q.v : & * ; q r t t r t Y :.7.;.q < JXJXJXJXJXJXJXJXJXJXJXJXJX",
"JXJXJXJXJXJXJXJXJXJXJXJXJXJXJXJXJXJX&X] * + : * @ v c.'.'.[.[.'.'.i.z @ & : 1 2 L P r & = i -.2.<.r < JXJXJXJXJXJXJXJXJXJXJXJXJX",
"JXJXJXJXJXJXJXJXJXJXJXJXJXJXJXJXJX+Xi.N d d k % @ z D a.'.}.[.'.p.V : @ % v ~.@X~.g f - ; t -.2.<.q < JXJXJXJXJXJXJXJXJXJXJXJXJX",
"JXJXJXJXJXJXJXJXJXJXJXJXJXJXJXJX&Xi.V F y.C N x 1 z N y.T.'.'.s.C x > , x D #XmX#Xi.k : r P -.2.1.w < JXJXJXJXJXJXJXJXJXJXJXJXJX",
"JXJXJXJXJXJXJXJXJXJXJXJXJXJXJXE.T.OXOX#XOXk.Z C F v : x y.p.u.C z > S F V C #XmXMX#XW.v J E 3.7.1.; , JXJXJXJXJXJXJXJXJXJXJXJXJX",
"JXJXJXJXJXJXJXJXJXJXJXJXJXJX#Xi.k.kXNXNXnX!.V p.E.i., % x M N x : 1 i.[.y.V OXnXmXmX+XD _ 5.7.w.<.r c JXJXJXJXJXJXJXJXJXJXJXJXJX",
"JXJXJXJXJXJXJXJXJXJXJXJXJXXXrXiXxXCXFXBXnX!.M p.[.Q.F v z O z l v i.Q.[.u.Z OXmXBXNX@Xy.^ 5.0.Y H | JXJXJXJXJXJXJXJXJXJXJXJXJXJX",
"JXJXJXJXJXJXJXJXJXJXJXJXJXI 3.cXGXGXAXVXMX!.Z u.[.[.[.F , # # c k.[.`.x.y.V OXnXNXnXOXy.^ 5.:.; c JXJXJXJXJXJXJXJXJXJXJXJXJXJXJX",
"JXJXJXJXJXJXJXJXJXJXJXJXJXu >.SXHXGXAXxX~.^ J k.[.}.{.Q.F S S F E.%X}.E.^ J { OXOXOX~.! ( T R | JXJXJXJXJXJXJXJXJXJXJXJXJXJXJXJX",
"JXJXJXJXJXJXJXJXJXJXJXJXJXY >.SXGXGXZXXXV H P ! [.}.}.[.'.'.'.'.}.}.{.].( P J Z m D ! 4.E 3 ' JXJXJXJXJXJXJXJXJXJXJXJXJXJXJXJXJX",
"JXJXJXJXJXJXJXJXJXJXJXJXJXJXqXyXbXbXyXW.h y.l.l.~ ~ ! j.j.j.j.j.! ~ j.j./ l._ B k f J Y R o.JXJXJXJXJXJXJXJXJXJXJXJXJXJXJXJXJXJX",
"JXJXJXJXJXJXJXJXJXJXJXJXJXJXJX..p Y R J h f.V.z.u i P U u P P u u u i T c.V.h.B d : . = o.JXJXJXJXJXJXJXJXJXJXJXJXJXJXJXJXJXJXJX",
"JXJXJXJXJXJXJXJXJXJXJXJXJXJXJX_.R t w g y.n.I.c./ / / / / / / / / / ( / V.J.t.B d @ 1 ` JXJXJXJXJXJXJXJXJXJXJXJXJXJXJXJXJXJXJXJX",
"JXJXJXJXJXJXJXJXJXJXJXJXJXJXJXJXJXL = d y.m.K.K.V.V.V.V.V.V.V.V.V.V.V.V.K.F.h.M O * o.JXJXJXJXJXJXJXJXJXJXJXJXJXJXJXJXJXJXJXJXJX",
"JXJXJXJXJXJXJXJXJXJXJXJXJXJXJXJXJX` . O j d.m.V.U.P.P.I.K.P.K.P.P.P.I.K.J.N.d.N O * } JXJXJXJXJXJXJXJXJXJXJXJXJXJXJXJXJXJXJXJXJX",
"JXJXJXJXJXJXJXJXJXJXJXJXJXJXJXJXJX` . + O > f d.x.U.P.I.I.I.I.I.P.P.I.J.S.x.F :   * } JXJXJXJXJXJXJXJXJXJXJXJXJXJXJXJXJXJXJXJXJX",
"JXJXJXJXJXJXJXJXJXJXJXJXJXJXJXJXJX` # # w $ $ J R.g.m.m.c.m.m.m.m.m.m.b.g.k.n ; # @ } JXJXJXJXJXJXJXJXJXJXJXJXJXJXJXJXJXJXJXJXJX",
"JXJXJXJXJXJXJXJXJXJXJXJXJXJXJXJXJX' o 6 y @.y r n v g x f z f f n j x x k z t y 6 * } JXJXJXJXJXJXJXJXJXJXJXJXJXJXJXJXJXJXJXJXJX",
"JXJXJXJXJXJXJXJXJXJXJXJXJXJXJXJXJXJXr a @.O.@.e =   # @ 2 2 2 1 @ # $ $ = $ y #.6 @ } JXJXJXJXJXJXJXJXJXJXJXJXJXJXJXJXJXJXJXJXJX",
"JXJXJXJXJXJXJXJXJXJXJXJXJXJXJXJXJXJXJXK 7 7 $ X .   o ' .X+XJX| 2 $ s +.+.O.O.#.6 = } JXJXJXJXJXJXJXJXJXJXJXJXJXJXJXJXJXJXJXJXJX",
"JXJXJXJXJXJXJXJXJXJXJXJXJXJXJXJXJXJXJXJX- - < 2 1 = 3 JXJXJXJXJX' X %.*.*.*.%.#.e # } JXJXJXJXJXJXJXJXJXJXJXJXJXJXJXJXJXJXJXJXJX",
"JXJXJXJXJXJXJXJXJXJXJXJXJXJXJXJXJXJXJXJXJXJXJXJXJXJXJXJXJXJXJXJXc ; r.vXvXvXr.>.t # JXJXJXJXJXJXJXJXJXJXJXJXJXJXJXJXJXJXJXJXJXJX",
"JXJXJXJXJXJXJXJXJXJXJXJXJXJXJXJXJXJXJXJXJXJXJXJXJXJXJXJXJXJXJXJX' ' zXDXGXSXaXq.H - JXJXJXJXJXJXJXJXJXJXJXJXJXJXJXJXJXJXJXJXJXJX",
"JXJXJXJXJXJXJXJXJXJXJXJXJXJXJXJXJXJXJXJXJXJXJXJXJXJXJXJXJXJXJXJXJXJXX.e.rXe...I  .JXJXJXJXJXJXJXJXJXJXJXJXJXJXJXJXJXJXJXJXJXJXJX",
"JXJXJXJXJXJXJXJXJXJXJXJXJXJXJXJXJXJXJXJXJXJXJXJXJXJXJXJXJXJXJXJXJXJX] # @ - @ = JXJXJXJXJXJXJXJXJXJXJXJXJXJXJXJXJXJXJXJXJXJXJXJX",
"JXJXJXJXJXJXJXJXJXJXJXJXJXJXJXJXJXJXJXJXJXJXJXJXJXJXJXJXJXJXJXJXJXJXJXJXJXJXJXJXJXJXJXJXJXJXJXJXJXJXJXJXJXJXJXJXJXJXJXJXJXJXJXJX",
"JXJXJXJXJXJXJXJXJXJXJXJXJXJXJXJXJXJXJXJXJXJXJXJXJXJXJXJXJXJXJXJXJXJXJXJXJXJXJXJXJXJXJXJXJXJXJXJXJXJXJXJXJXJXJXJXJXJXJXJXJXJXJXJX",
"JXJXJXJXJXJXJXJXJXJXJXJXJXJXJXJXJXJXJXJXJXJXJXJXJXJXJXJXJXJXJXJXJXJXJXJXJXJXJXJXJXJXJXJXJXJXJXJXJXJXJXJXJXJXJXJXJXJXJXJXJXJXJXJX",
"JXJXJXJXJXJXJXJXJXJXJXJXJXJXJXJXJXJXJXJXJXJXJXJXJXJXJXJXJXJXJXJXJXJXJXJXJXJXJXJXJXJXJXJXJXJXJXJXJXJXJXJXJXJXJXJXJXJXJXJXJXJXJXJX",
"JXJXJXJXJXJXJXJXJXJXJXJXJXJXJXJXJXJXJXJXJXJXJXJXJXJXJXJXJXJXJXJXJXJXJXJXJXJXJXJXJXJXJXJXJXJXJXJXJXJXJXJXJXJXJXJXJXJXJXJXJXJXJXJX",
"JXJXJXJXJXJXJXJXJXJXJXJXJXJXJXJXJXJXJXJXJXJXJXJXJXJXJXJXJXJXJXJXJXJXJXJXJXJXJXJXJXJXJXJXJXJXJXJXJXJXJXJXJXJXJXJXJXJXJXJXJXJXJXJX",
"JXJXJXJXJXJXJXJXJXJXJXJXJXJXJXJXJXJXJXJXJXJXJXJXJXJXJXJXJXJXJXJXJXJXJXJXJXJXJXJXJXJXJXJXJXJXJXJXJXJXJXJXJXJXJXJXJXJXJXJXJXJXJXJX"
};
