/* XPM */
static char *result[] = {
/* columns rows colors chars-per-pixel */
"64 64 248 2 ",
"   c #1A151D",
".  c #19061A",
"X  c #251B1C",
"o  c #301C1B",
"O  c #1F331F",
"+  c #22241B",
"@  c #3D261E",
"#  c #151922",
"$  c #261B24",
"%  c #301F20",
"&  c #1C2923",
"*  c #173229",
"=  c #252424",
"-  c #242B24",
";  c #272927",
":  c #382623",
">  c #223B22",
",  c #253527",
"<  c #273837",
"1  c #2A3935",
"2  c #353936",
"3  c #2F2D2C",
"4  c #4E131B",
"5  c #4F321A",
"6  c #6C361B",
"7  c #76371B",
"8  c #451820",
"9  c #462D27",
"0  c #472B27",
"q  c #562723",
"w  c #473627",
"e  c #583822",
"r  c #4B3732",
"t  c #6A3D25",
"y  c #643723",
"u  c #733B23",
"i  c #68302B",
"p  c #1D4D1E",
"a  c #2C4F1E",
"s  c #1B741C",
"d  c #30661F",
"f  c #1A4724",
"g  c #1F5D26",
"h  c #224E22",
"j  c #264624",
"k  c #384624",
"l  c #265725",
"z  c #2C4A3A",
"x  c #354E36",
"c  c #1A6A21",
"v  c #1C7828",
"b  c #226322",
"n  c #236D23",
"m  c #286827",
"M  c #247324",
"N  c #2A742A",
"B  c #277A28",
"V  c #356B36",
"C  c #2B7932",
"Z  c #367736",
"A  c #376B2E",
"S  c #4A4A25",
"D  c #554527",
"F  c #465724",
"G  c #4B4339",
"H  c #53463C",
"J  c #41543E",
"K  c #5B5530",
"L  c #6B4326",
"P  c #6B492A",
"I  c #784727",
"U  c #65552C",
"Y  c #645635",
"T  c #785833",
"R  c #6E512F",
"E  c #596C35",
"W  c #597D36",
"Q  c #567B37",
"!  c #4C712D",
"~  c #686923",
"^  c #667622",
"/  c #6F6E30",
"(  c #50651A",
")  c #355143",
"_  c #3A684A",
"`  c #535047",
"'  c #725847",
"]  c #466249",
"[  c #547A46",
"{  c #457956",
"}  c #4D6F4E",
"|  c #6D6A4B",
" . c #6B7654",
".. c #70734B",
"X. c #B1121D",
"o. c #8C1B21",
"O. c #892F25",
"+. c #BD3732",
"@. c #823D17",
"#. c #844728",
"$. c #82512A",
"%. c #855A2E",
"&. c #875B34",
"*. c #93513A",
"=. c #856436",
"-. c #896636",
";. c #986B37",
":. c #997539",
">. c #867229",
",. c #A6773C",
"<. c #A07B23",
"1. c #9E6D1F",
"2. c #ED433D",
"3. c #985E45",
"4. c #837755",
"5. c #956D4E",
"6. c #AE7850",
"7. c #BB5147",
"8. c #DC6053",
"9. c #36AD1D",
"0. c #2D832C",
"q. c #28842A",
"w. c #2E8B31",
"e. c #2F8530",
"r. c #338B33",
"t. c #378839",
"y. c #349335",
"u. c #3A9A39",
"i. c #338B2B",
"p. c #3DB725",
"a. c #3EA33E",
"s. c #38A035",
"d. c #38AC25",
"f. c #33881F",
"g. c #4F853A",
"h. c #62862D",
"j. c #42B926",
"k. c #43A538",
"l. c #46BE3B",
"z. c #56B82C",
"x. c #65B23A",
"c. c #3BC923",
"v. c #3DD521",
"b. c #44C925",
"n. c #4BD92A",
"m. c #54D322",
"M. c #54D825",
"N. c #4BCD35",
"B. c #49C739",
"V. c #4BD333",
"C. c #56C93E",
"Z. c #4EE524",
"A. c #4EE922",
"S. c #4DE229",
"D. c #49E827",
"F. c #51EB22",
"G. c #5BE725",
"H. c #4EF523",
"J. c #4EF625",
"K. c #4CE133",
"L. c #6EE827",
"P. c #3B9546",
"I. c #3D884B",
"U. c #3FA240",
"Y. c #48835B",
"T. c #4B9A58",
"R. c #4F8F4C",
"E. c #728557",
"W. c #79955D",
"Q. c #6A8C53",
"!. c #44AD43",
"~. c #46A741",
"^. c #45B345",
"/. c #47B846",
"(. c #56A35C",
"). c #46AD5C",
"_. c #70AF59",
"`. c #529265",
"'. c #749B62",
"]. c #6D9B6C",
"[. c #5DA965",
"{. c #55AF6C",
"}. c #60AB65",
"|. c #66B46B",
" X c #74B575",
".X c #48C345",
"XX c #5AC77A",
"oX c #7FC751",
"OX c #BD9D1E",
"+X c #928931",
"@X c #B28A23",
"#X c #B79826",
"$X c #AD8222",
"%X c #B0A926",
"&X c #C9AD1C",
"*X c #CAB728",
"=X c #B6EE24",
"-X c #B7F320",
";X c #A3EE20",
":X c #D3CC23",
">X c #CFE72F",
",X c #EBE623",
"<X c #F8EE24",
"1X c #FDF422",
"2X c #F9F623",
"3X c #F7EA35",
"4X c #E1CD20",
"5X c #89845B",
"6X c #B1894F",
"7X c #B39975",
"8X c #B0926D",
"9X c #B0B06E",
"0X c #88A067",
"qX c #C79671",
"wX c #CCA878",
"eX c #D7AB7E",
"rX c #E4A777",
"tX c #ABD154",
"yX c #F1D74B",
"uX c #E9C56B",
"iX c #E3CF5C",
"pX c #64CB81",
"aX c #77C785",
"sX c #9FBB84",
"dX c #CAB797",
"fX c #D0AD8B",
"gX c #F4B090",
"hX c #C59C82",
"jX c #8CD695",
"kX c #94DD9C",
"lX c #84CF8C",
"zX c #9BE3A5",
"xX c #ABEBB0",
"cX c #A6DDA2",
"vX c #CFC799",
"bX c #E7C798",
"nX c #F0C88F",
"mX c #DCD4A7",
"MX c #F9D8AC",
"NX c #EDDDB1",
"BX c #F3DAB2",
"VX c #EACAA7",
"CX c #FEE6BC",
"ZX c #CBE1AE",
"AX c #FFECC4",
"SX c #FFF3C7",
"DX c #FFF8D1",
"FX c None",
/* pixels */
"FXFXFXFXFXFXFXFXFXFXFXFXFXFXFXFXFXFXFXFXFXFXFXFXFXFXFXFXFXFXFXFXFXFXFXFXFXFXFXFXFXFXFXFXFXFXFXFXFXFXFXFXFXFXFXFXFXFXFXFXFXFXFXFX",
"FXFXFXFXFXFXFXFXFXFXFXFXFXFXFXFXFXFXFXFXFXFXFXFXFXFXFXFXFXFXFXFXFXFXFXFXFXFXFXFXFXFXFXFXFXFXFXFXFXFXFXFXFXFXFXFXFXFXFXFXFXFXFXFX",
"FXFXFXFXFXFXFXFXFXFXFXFXFXFXFXFXFXFXFXFXFXFXFXFXFXFXFXFXFXFXFXFXFXFXFXFXFXFXFXFXFXFXFXFXFXFXFXFXFXFXFXFXFXFXFXFXFXFXFXFXFXFXFXFX",
"FXFXFXFXFXFXFXFXFXFXFXFXFXFXFXFXFXFXFXFXFXFXFXFXFXFXFXFXFXFXFXFXFXFXFXFXFXFXFXFXFXFXFXFXFXFXFXFXFXFXFXFXFXFXFXFXFXFXFXFXFXFXFXFX",
"FXFXFXFXFXFXFXFXFXFXFXFXFXFXFXFXFXFXFXFXFXFXFXFXFXFXFXFXFXFXE...| .. .| |  .FXFXFXFXFXFXFXFXFXFXFXFXFXFXFXFXFXFXFXFXFXFXFXFXFXFX",
"FXFXFXFXFXFXFXFXFXFXFXFXFXFXFXFXFXFXFXFXFXFXFXFXFXFXFXFXFX XT u u I u I 7 I '.FXFXFXFXFXFXFXFXFXFXFXFXFXFXFXFXFXFXFXFXFXFXFXFXFX",
"FXFXFXFXFXFXFXFXFXFXFXFXFXFXFXFXFXFXFXFXFXFXFXFXFX X'. .E.E.6.6.#XOXOXOX#X#X+XE.FXFXFXFXFXFXFXFXFXFXFXFXFXFXFXFXFXFXFXFXFXFXFXFX",
"FXFXFXFXFXFXFXFXFXFXFXFXFXFXFXFXFXFXFXFXFXFXFXFXFX'.P 6 6 3.7XuX3X1X2X2X2X,X@XI E.FXFXFXFXFXFXFXFXFXFXFXFXFXFXFXFXFXFXFXFXFXFXFX",
"FXFXFXFXFXFXFXFXFXFXFXFXFXFXFXFXFXFXFXFXFXFXFXXX[.W.5.6.@X#XyXyX3X1X1X1X2X2X:X$X+XW.FXFXFXFXFXFXFXFXFXFXFXFXFXFXFXFXFXFXFXFXFXFX",
"FXFXFXFXFXFXFXFXFXFXFXFXFXFXFXFXFXFXFXFXFXFXFX).M ..wXuX3X<X,X<X<X<X2X<X2X,X2X,X#XL  .FXFXFXFXFXFXFXFXFXFXFXFXFXFXFXFXFXFXFXFXFX",
"FXFXFXFXFXFXFXFXFXFXFXFXFXFXFXFXFXFXFXFXFXpX{.a.9.x.tXtX=X=X-X-X=X=X=X=X,X2X1X2X4X$X+X'.FXFXFXFXFXFXFXFXFXFXFXFXFXFXFXFXFXFXFXFX",
"FXFXFXFXFXFXFXFXFXFXFXFXFXFXFXFXFXFXFXFXFXT.q.d.n.M.G.G.G.L.G.F.G.G.F.L.>X1X1X<X<X,X#XT  .FXFXFXFXFXFXFXFXFXFXFXFXFXFXFXFXFXFXFX",
"FXFXFXFXFXFXFXFXFXFXFXFXFXFXFXFXFXFXFXpX{.k.f.c.A.H.D.A.D.D.D.D.D.D.D.A.;X;X>X3X3X1XOX@.' FXFXFXFXFXFXFXFXFXFXFXFXFXFXFXFXFXFXFX",
"FXFXFXFXFXFXFXFXFXFXFXFXFXFXFXFXFXFXFXT.i.p.v.Z.A.A.A.A.A.Z.A.A.D.A.A.A.F.L.tXeXyX2X&X#.| FXFXFXFXFXFXFXFXFXFXFXFXFXFXFXFXFXFXFX",
"FXFXFXFXFXFXFXFXFXFXFXFXFXFXFXFXFXFXFXR.s 9.H.A.A.A.A.A.A.A.A.F.A.A.A.A.D.S.oX9XiXyX%X#.| FXFXFXFXFXFXFXFXFXFXFXFXFXFXFXFXFXFXFX",
"FXFXFXFXFXFXFXFXFXFXFXFXFXFXFXFXFXFXFXP.d 9.A.A.A.A.A.A.F.A.Z.A.A.A.A.A.A.Z.C._.9XuX6X#.| FXFXFXFXFXFXFXFXFXFXFXFXFXFXFXFXFXFXFX",
"FXFXFXFXFXFXFXFXFXFXFXFXFXFXFXaXXXpXXXP.B p.A.F.A.Z.A.A.Z.A.F.Z.A.A.A.F.A.D.V.U._.7X5.7 ..FXFXFXFXFXFXFXFXFXFXFXFXFXFXFXFXFXFXFX",
"FXFXFXFXFXFXFXFXFXFXFXFXFXFXaX..U R.P.P.s.V.A.F.A.A.A.A.F.Z.A.A.A.Z.A.A.A.D.N.^.R.g.~ 6 ..FXFXFXFXFXFXFXFXFXFXFXFXFXFXFXFXFXFXFX",
"FXFXFXFXFXFXFXFXFXFXFXFXFXFX X3.I d N u./.N.n.A.A.A.F.A.F.Z.F.A.F.Z.A.A.A.n.B.^.y.s F T 4. XFXFXFXFXFXFXFXFXFXFXFXFXFXFXFXFXFXFX",
"FXFXFXFXFXFXFXFXFXFXFXFXFXE.4.hX7Xg.v u./.l.B.n.A.A.A.A.Z.F.F.Z.A.A.F.Z.V.B..XU.y.s Q.fX7X4.'.FXFXFXFXFXFXFXFXFXFXFXFXFXFXFXFXFX",
"FXFXFXFXFXFXFXFXFXFXFXFXFXP 3.VXmXQ.v y.k.!.^.N.Z.A.A.A.A.A.A.A.A.Z.Z.n.l.!.!.!.w.c '.CXfX#.T |.FXFXFXFXFXFXFXFXFXFXFXFXFXFXFXFX",
"FXFXFXFXFXFXFXFXFXFXFXFXFXI *.gXvXR.v B y.~.^.N.A.A.F.A.A.A.F.F.F.Z.V.l.s.w.U.^.y.s W.bXfX#.y ] `.FXFXFXFXFXFXFXFXFXFXFXFXFXFXFX",
"FXFXFXFXFXFXFXFXFXFXFXFXFXR 3.qX9XW v c N y.^.N.S.A.A.F.A.Z.Z.Z.A.n.B.!.w.N y.U.y.N Q.wX6X*.q o ) {.FXFXFXFXFXFXFXFXFXFXFXFXFXFX",
"FXFXFXFXFXFXFXFXFXFXFXFXFXP O.6X6XQ c p j t.!.B.N.n.A.A.A.M.V.B.B.B./.~.w.B q.w.q.v h.6X6.T 6 L K } `.FXFXFXFXFXFXFXFXFXFXFXFXFX",
"FXFXFXFXFXFXFXFXFXFXFXFXFXT @.;.>.! c > ; Z ^.^.^.B.S.A.Z.V.B.^.^.^.^.~.e.n n M M M E :.;.I $.;.-.9 1 FXFXFXFXFXFXFXFXFXFXFXFXFX",
"FXFXFXFXFXFXFXFXFXFXFXFXFXFX .-.T ( k 3 = m y.~.^.l.B.V.N.B.^.^.^.!.u.r.m h g n d a U %.$.I $.,.;.: < FXFXFXFXFXFXFXFXFXFXFXFXFX",
"FXFXFXFXFXFXFXFXFXFXFXFXFXFX X/ u 6 t @ - h B u.!.^./.l.^./.^.^.^.a.r.n j + h n ( 6 6 I u L $.;.&.9 < FXFXFXFXFXFXFXFXFXFXFXFXFX",
"FXFXFXFXFXFXFXFXFXFXFXFXFXFXFXH 6 1.<.D # f M y.!.^.!.!.!.!.^.!.a.r.m h f j j F >.<.>.e 5 6 $.;.=.9 < FXFXFXFXFXFXFXFXFXFXFXFXFX",
"FXFXFXFXFXFXFXFXFXFXFXFXFXFXFX1 5 *X4X~ # p N y.!.^.^.!.^.).^.a.r.m > - h b k 6 @X,X%X- % y $.;.=.9 < FXFXFXFXFXFXFXFXFXFXFXFXFX",
"FXFXFXFXFXFXFXFXFXFXFXFXFXFXFXFX! %X&X+X~ d b w.!.^.^.^.^.~.a.y.B b + = k W / $XOX*X+XS D I -.;.=.9 < FXFXFXFXFXFXFXFXFXFXFXFXFX",
"FXFXFXFXFXFXFXFXFXFXFXFXFXFXFXFXFX] D %X:X^ + V !./.^.^.^.~.e.B M b * = Y +X:X,X@XF K =.5.;.:.,.=.9 < FXFXFXFXFXFXFXFXFXFXFXFXFX",
"FXFXFXFXFXFXFXFXFXFXFXFXFXFXFXFXFXFXJ %X:X~ + A !./.^.!.k.y.N c b l k r R ;.#X:X^ : w &.;.;.:.,.=.9 < FXFXFXFXFXFXFXFXFXFXFXFXFX",
"FXFXFXFXFXFXFXFXFXFXFXFXFXFXFXFXFXFXFXW D : = V !./.^.a.e.B M c p 2 T =.P : S S D e e w e R %.:.-.9 1 FXFXFXFXFXFXFXFXFXFXFXFXFX",
"FXFXFXFXFXFXFXFXFXFXFXFXFXFXFXFXFXFXFX_     = A a.!.k.y.B n b h O @ T -.G & * 1 r L 5 & : y $.;.=.9 < FXFXFXFXFXFXFXFXFXFXFXFXFX",
"FXFXFXFXFXFXFXFXFXFXFXFXFXFXFXFXFXFXt.m f O = l 0.w.0.q.M b j - X $ w S k m { ].R.F j = : y I ;.=.9 < FXFXFXFXFXFXFXFXFXFXFXFXFX",
"FXFXFXFXFXFXFXFXFXFXFXFXFXFXFXFXFXR.N 0.Z l - j b b b b b l , ; , ; ; , g C |.zX|.e.g , : L %.,.=.0 < FXFXFXFXFXFXFXFXFXFXFXFXFX",
"FXFXFXFXFXFXFXFXFXFXFXFXFXFXFXFXP.[.|.|.}.Q g f > > > O O l V Z t.Z Z C n B |.kXlX|.R.g F T ;.,.-.8 ; FXFXFXFXFXFXFXFXFXFXFXFXFX",
"FXFXFXFXFXFXFXFXFXFXFXFXFXFXFXt.t. XzXzXjXT.n f - ; ; = = x k./.^.^./.!.0.N }.jXkXkX{.C ! :.,.6.T w z FXFXFXFXFXFXFXFXFXFXFXFXFX",
"FXFXFXFXFXFXFXFXFXFXFXFXFX'.5X0XsXvXZXxXjXT.v n Z V Z V V I.~.^.^.^.^.!.0.N }.kXxXzX|.q.! :.;.P K { FXFXFXFXFXFXFXFXFXFXFXFXFXFX",
"FXFXFXFXFXFXFXFXFXFXFXFXFXR 3.dXAXCXBXcXlXT.B e.!.^.!.^.!.!.^.^./.^.^.k.i.N [.jXzXjX[.e.( :.&.: z FXFXFXFXFXFXFXFXFXFXFXFXFXFXFX",
"FXFXFXFXFXFXFXFXFXFXFXFXFX6 3.VXDXAXBXsX(.E S g./..X/./././.^./.^.^./.~.! F R.}.}.[.Q.W ~ U K { FXFXFXFXFXFXFXFXFXFXFXFXFXFXFXFX",
"FXFXFXFXFXFXFXFXFXFXFXFXFXR 3.vXAXAXmX}.b S L Q /./.^.!.!.!.!.^.^.^./.~.E u S N B B W :.T 3 ) FXFXFXFXFXFXFXFXFXFXFXFXFXFXFXFXFX",
"FXFXFXFXFXFXFXFXFXFXFXFXFXFX5X8XqXhX7X[ s f.h.h.Q Q Q Q W W Q [ W W W W W E A b b h S U ' ] FXFXFXFXFXFXFXFXFXFXFXFXFXFXFXFXFXFX",
"FXFXFXFXFXFXFXFXFXFXFXFXFXFXFX3.#.#.T F s p.m.h.P i L L L t L t t t i R h.k.i.n p , X X ] FXFXFXFXFXFXFXFXFXFXFXFXFXFXFXFXFXFXFX",
"FXFXFXFXFXFXFXFXFXFXFXFXFXFXFXFXY 5 5 l f.c.H.z.^ ~ ~ ~ ~ ^ ^ ^ ^ ^ Y E R.B.y.v p X 3 ) FXFXFXFXFXFXFXFXFXFXFXFXFXFXFXFXFXFXFXFX",
"FXFXFXFXFXFXFXFXFXFXFXFXFXFXFXFXFXG X h B c.H.F.m.m.m.m.m.m.M.M.M.M.z.~./.^.y.M f $ ] FXFXFXFXFXFXFXFXFXFXFXFXFXFXFXFXFXFXFXFXFX",
"FXFXFXFXFXFXFXFXFXFXFXFXFXFXFXFXFXFXx l d f.9.m.S.J.J.H.H.H.J.K.V.p.s.P.t.t.A l O = { FXFXFXFXFXFXFXFXFXFXFXFXFXFXFXFXFXFXFXFXFX",
"FXFXFXFXFXFXFXFXFXFXFXFXFXFXFXFXFXFX{.x + + k i.B.S.H.H.H.D..Xk.m f f f j z > , + $ { FXFXFXFXFXFXFXFXFXFXFXFXFXFXFXFXFXFXFXFXFX",
"FXFXFXFXFXFXFXFXFXFXFXFXFXFXFXFXFXFXFXY.x 2 ) _ I.k.j.b.b.l.k.! 0 4 4 8 8 o % = X $ { FXFXFXFXFXFXFXFXFXFXFXFXFXFXFXFXFXFXFXFXFX",
"FXFXFXFXFXFXFXFXFXFXFXFXFXFXFXFXFXFXFXFXFX|.{.{ , , a a l l j r o.X.X.X.o.i 0 $   X FXFXFXFXFXFXFXFXFXFXFXFXFXFXFXFXFXFXFXFXFXFX",
"FXFXFXFXFXFXFXFXFXFXFXFXFXFXFXFXFXFXFXFXFXFXFXFX1 ; 2 : $ # # q +.2.2.2.+.o.q = ; 2 FXFXFXFXFXFXFXFXFXFXFXFXFXFXFXFXFXFXFXFXFXFX",
"FXFXFXFXFXFXFXFXFXFXFXFXFXFXFXFXFXFXFXFXFXFXFXFXFXFXFX] $ . . H 8.gXgXrX7.o.4 3 _ FXFXFXFXFXFXFXFXFXFXFXFXFXFXFXFXFXFXFXFXFXFXFX",
"FXFXFXFXFXFXFXFXFXFXFXFXFXFXFXFXFXFXFXFXFXFXFXFXFXFXFXFX) X   ` ZXAXDXVX6.O.4 $ { FXFXFXFXFXFXFXFXFXFXFXFXFXFXFXFXFXFXFXFXFXFXFX",
"FXFXFXFXFXFXFXFXFXFXFXFXFXFXFXFXFXFXFXFXFXFXFXFXFXFXFXFXFX_ & ` dXDXDXBXeX6.I 3 Y.FXFXFXFXFXFXFXFXFXFXFXFXFXFXFXFXFXFXFXFXFXFXFX",
"FXFXFXFXFXFXFXFXFXFXFXFXFXFXFXFXFXFXFXFXFXFXFXFXFXFXFXFXFXFX1 G fXAXCXBXnXwX' ; { FXFXFXFXFXFXFXFXFXFXFXFXFXFXFXFXFXFXFXFXFXFXFX",
"FXFXFXFXFXFXFXFXFXFXFXFXFXFXFXFXFXFXFXFXFXFXFXFXFXFXFXFXFXFX> ` dXAXAXBXMXfX' # { FXFXFXFXFXFXFXFXFXFXFXFXFXFXFXFXFXFXFXFXFXFXFX",
"FXFXFXFXFXFXFXFXFXFXFXFXFXFXFXFXFXFXFXFXFXFXFXFXFXFXFXFXFXFX- ` dXCXCXBXnXwX' = FXFXFXFXFXFXFXFXFXFXFXFXFXFXFXFXFXFXFXFXFXFXFXFX",
"FXFXFXFXFXFXFXFXFXFXFXFXFXFXFXFXFXFXFXFXFXFXFXFXFXFXFXFXFXFX* r hXBXMXbX8X4.| FXFXFXFXFXFXFXFXFXFXFXFXFXFXFXFXFXFXFXFXFXFXFXFXFX",
"FXFXFXFXFXFXFXFXFXFXFXFXFXFXFXFXFXFXFXFXFXFXFXFXFXFXFXFXFXFX1 r 8XgXnXfX' 1 Y.FXFXFXFXFXFXFXFXFXFXFXFXFXFXFXFXFXFXFXFXFXFXFXFXFX",
"FXFXFXFXFXFXFXFXFXFXFXFXFXFXFXFXFXFXFXFXFXFXFXFXFXFXFXFXFXFXFX} | 5.5.4.` _ FXFXFXFXFXFXFXFXFXFXFXFXFXFXFXFXFXFXFXFXFXFXFXFXFXFX",
"FXFXFXFXFXFXFXFXFXFXFXFXFXFXFXFXFXFXFXFXFXFXFXFXFXFXFXFXFXFXFXFX` % % x `.FXFXFXFXFXFXFXFXFXFXFXFXFXFXFXFXFXFXFXFXFXFXFXFXFXFXFX",
"FXFXFXFXFXFXFXFXFXFXFXFXFXFXFXFXFXFXFXFXFXFXFXFXFXFXFXFXFXFXFXFX{ z z _ FXFXFXFXFXFXFXFXFXFXFXFXFXFXFXFXFXFXFXFXFXFXFXFXFXFXFXFX",
"FXFXFXFXFXFXFXFXFXFXFXFXFXFXFXFXFXFXFXFXFXFXFXFXFXFXFXFXFXFXFXFXFXFXFXFXFXFXFXFXFXFXFXFXFXFXFXFXFXFXFXFXFXFXFXFXFXFXFXFXFXFXFXFX",
"FXFXFXFXFXFXFXFXFXFXFXFXFXFXFXFXFXFXFXFXFXFXFXFXFXFXFXFXFXFXFXFXFXFXFXFXFXFXFXFXFXFXFXFXFXFXFXFXFXFXFXFXFXFXFXFXFXFXFXFXFXFXFXFX"
};
