/* XPM */
static char *result[] = {
/* columns rows colors chars-per-pixel */
"64 64 247 2 ",
"   c #26181E",
".  c #37131E",
"X  c #1D2A1E",
"o  c #32311F",
"O  c #231E22",
"+  c #2A1F22",
"@  c #301120",
"#  c #1C3223",
"$  c #232322",
"%  c #2B2523",
"&  c #232A23",
"*  c #25292B",
"=  c #2B2929",
"-  c #362623",
";  c #223222",
":  c #263827",
">  c #393426",
",  c #263432",
"<  c #353635",
"1  c #1A171F",
"2  c #4A161E",
"3  c #52151D",
"4  c #721A1E",
"5  c #6F3A1D",
"6  c #481A22",
"7  c #531B21",
"8  c #671B20",
"9  c #462724",
"0  c #552824",
"q  c #473427",
"w  c #523D29",
"e  c #563625",
"r  c #4E3331",
"t  c #682625",
"y  c #7A2223",
"u  c #683A23",
"i  c #723F22",
"p  c #5A321F",
"a  c #1C5C1E",
"s  c #1D4724",
"d  c #1C5C20",
"f  c #244324",
"g  c #244D24",
"h  c #2A4D23",
"j  c #2A452B",
"k  c #235423",
"l  c #275A27",
"z  c #395E24",
"x  c #324934",
"c  c #1F7B28",
"v  c #276726",
"b  c #3B6A28",
"n  c #2A742A",
"m  c #2B7B2B",
"M  c #267926",
"N  c #35772A",
"B  c #336934",
"V  c #2D7B32",
"C  c #357B35",
"Z  c #367835",
"A  c #2E6730",
"S  c #22641D",
"D  c #584726",
"F  c #575627",
"G  c #484937",
"H  c #4F5031",
"J  c #6D4324",
"K  c #69492C",
"L  c #744325",
"P  c #75492A",
"I  c #65582C",
"U  c #7A5428",
"Y  c #684D34",
"T  c #724934",
"R  c #6C5837",
"E  c #775A34",
"W  c #486828",
"Q  c #517432",
"!  c #64662B",
"~  c #646430",
"^  c #736837",
"/  c #6F772E",
"(  c #65601D",
")  c #345447",
"_  c #325E50",
"`  c #3B684D",
"'  c #3E6D51",
"]  c #3C7B42",
"[  c #4D5D44",
"{  c #6B5E42",
"}  c #43624A",
"|  c #497452",
" . c #536F4D",
".. c #756846",
"X. c #70734C",
"o. c #8F1B1F",
"O. c #B21C1F",
"+. c #981E22",
"@. c #871D21",
"#. c #A51D21",
"$. c #862222",
"%. c #952223",
"&. c #803A20",
"*. c #AF2323",
"=. c #D12222",
"-. c #E22222",
";. c #955C1F",
":. c #82411C",
">. c #87592C",
",. c #955D20",
"<. c #8B4A34",
"1. c #895934",
"2. c #854C29",
"3. c #856436",
"4. c #896636",
"5. c #996E39",
"6. c #956838",
"7. c #997439",
"8. c #8F7029",
"9. c #A2763C",
"0. c #A4793D",
"q. c #AB7923",
"w. c #936C4C",
"e. c #A8754C",
"r. c #2C8F1C",
"t. c #298229",
"y. c #399B23",
"u. c #2B8334",
"i. c #348334",
"p. c #338C33",
"a. c #39873B",
"s. c #339334",
"d. c #3A9C3B",
"f. c #389839",
"g. c #309228",
"h. c #38A926",
"j. c #3CB525",
"k. c #3EA33E",
"l. c #3DA738",
"z. c #3CB71F",
"x. c #52923E",
"c. c #4F8C37",
"v. c #638621",
"b. c #628B24",
"n. c #63922B",
"m. c #47BD3C",
"M. c #4EAE2E",
"N. c #479F1F",
"B. c #44CD1F",
"V. c #43C923",
"C. c #54CC22",
"Z. c #5BC221",
"A. c #4CDB2B",
"S. c #48D825",
"D. c #53D927",
"F. c #4ACC35",
"G. c #49C43B",
"H. c #47C636",
"J. c #4CD431",
"K. c #4CDC34",
"L. c #5BD337",
"P. c #4DE524",
"I. c #4EE923",
"U. c #4DE229",
"Y. c #4AE925",
"T. c #52E923",
"R. c #4FF322",
"E. c #4FE92A",
"W. c #6CEB24",
"Q. c #6EE42D",
"!. c #3E9649",
"~. c #3FAD42",
"^. c #439A45",
"/. c #558657",
"(. c #469B54",
"). c #569B58",
"_. c #4B894D",
"`. c #738A51",
"'. c #42A441",
"]. c #43AD43",
"[. c #4BA341",
"{. c #46B245",
"}. c #46B349",
"|. c #47B945",
" X c #49A659",
".X c #59A657",
"XX c #6D9363",
"oX c #6C9A65",
"OX c #769462",
"+X c #5DAA63",
"@X c #54B86C",
"#X c #69A768",
"$X c #73B776",
"%X c #6FAD6E",
"&X c #6CAE56",
"*X c #5EC378",
"=X c #6BC77E",
"-X c #60C448",
";X c #3EE823",
":X c #948D2C",
">X c #AF9324",
",X c #BCA623",
"<X c #A89621",
"1X c #D2B51E",
"2X c #CDB31F",
"3X c #D2B424",
"4X c #CDB124",
"5X c #B6F323",
"6X c #ABED27",
"7X c #80EB21",
"8X c #E6DA24",
"9X c #F5EC24",
"0X c #F5F422",
"qX c #ECEE29",
"wX c #D3D823",
"eX c #8C8C57",
"rX c #B08752",
"tX c #929666",
"yX c #B99976",
"uX c #B59165",
"iX c #88A56A",
"pX c #97B067",
"aX c #94B762",
"sX c #C79976",
"dX c #D4B674",
"fX c #C89150",
"gX c #A4D350",
"hX c #EAD150",
"jX c #C7C068",
"kX c #E1D74E",
"lX c #74D28B",
"zX c #71CD85",
"xX c #ADBD88",
"cX c #D1B089",
"vX c #D5AD8D",
"bX c #87C98A",
"nX c #89D292",
"mX c #8ED996",
"MX c #95DA9B",
"NX c #BAD6A1",
"BX c #9AE2A3",
"VX c #E5D4AA",
"CX c #F2D9AF",
"ZX c #FCE4BB",
"AX c #D8CD9E",
"SX c #FFF0CA",
"DX c None",
/* pixels */
"DXDXDXDXDXDXDXDXDXDXDXDXDXDXDXDXDXDXDXDXDXDXDXDXDXDXDXDXDXDXDXDXDXDXDXDXDXDXDXDXDXDXDXDXDXDXDXDXDXDXDXDXDXDXDXDXDXDXDXDXDXDXDXDX",
"DXDXDXDXDXDXDXDXDXDXDXDXDXDXDXDXDXDXDXDXDXDXDXDXDXDXlXlXlXlXlXlXlXlXlXDXDXDXDXDXDXDXDXDXDXDXDXDXDXDXDXDXDXDXDXDXDXDXDXDXDXDXDXDX",
"DXDXDXDXDXDXDXDXDXDXDXDXDXDXDXDXDXDXDXDXDXDXDX$XoXXXXXXXoXXXXXXXXXoXXXXXOXoXDXDXDXDXDXDXDXDXDXDXDXDXDXDXDXDXDXDXDXDXDXDXDXDXDXDX",
"DXDXDXDXDXDXDXDXDXDXDXDXDXDXDXDXDXDXDXDXDXDX=XX.P P T T T T T T T T T T i ..#XDXDXDXDXDXDXDXDXDXDXDXDXDXDXDXDXDXDXDXDXDXDXDXDXDX",
"DXDXDXDXDXDXDXDXDXDXDXDXDXDXDXDXDXDXDXDXDX=X#Xw.<.>.,.,.,.,.;.,.;.;.;.;.,.4.eX$XDXDXDXDXDXDXDXDXDXDXDXDXDXDXDXDXDXDXDXDXDXDXDXDX",
"DXDXDXDXDXDXDXDXDXDXDXDXDXDXDXDXDXDXDXDX*X'./.eXfXfX4X3X3X3X3X2X2X1X2X2X4X,X:X..XXDXDXDXDXDXDXDXDXDXDXDXDXDXDXDXDXDXDXDXDXDXDXDX",
"DXDXDXDXDXDXDXDXDXDXDXDXDXDXDXDXDXDXDXzX~.V c.tXdXhX9X9X9X9XqX9X9XqX0X0X9X8X>XU ..$XDXDXDXDXDXDXDXDXDXDXDXDXDXDXDXDXDXDXDXDXDXDX",
"DXDXDXDXDXDXDXDXDXDXDXDXDXDXDXDXDXDX*X X!.h.M.aXgXgX5X5X5X5X5X5X5X5X5XqX0X9X1X>X:XeX#XDXDXDXDXDXDXDXDXDXDXDXDXDXDXDXDXDXDXDXDXDX",
"DXDXDXDXDXDXDXDXDXDXDXDXDXDXDXDXDX*X!.i.h.V.D.D.Q.W.W.W.W.W.W.W.W.T.W.6XqX9X9X8X4X6.{ oXDXDXDXDXDXDXDXDXDXDXDXDXDXDXDXDXDXDXDXDX",
"DXDXDXDXDXDXDXDXDXDXDXDXDXDXDXDXzX X!.t.z.A.I.R.P.I.I.I.I.I.P.I.Y.;XR.W.5XqX9XqX3Xq.1.OX$XDXDXDXDXDXDXDXDXDXDXDXDXDXDXDXDXDXDXDX",
"DXDXDXDXDXDXDXDXDXDXDXDXDXDXDX@X XM.h.z.B.I.I.I.Y.Y.Y.Y.I.I.Y.Y.I.;XT.W.W.6XkXhXhX8X,X:X`.OXDXDXDXDXDXDXDXDXDXDXDXDXDXDXDXDXDXDX",
"DXDXDXDXDXDXDXDXDXDXDXDXDXDXDX Xm g.V.I.I.I.I.I.I.I.I.I.I.I.I.I.I.I.I.I.R.E.gXcXdXhX8X>X2...DXDXDXDXDXDXDXDXDXDXDXDXDXDXDXDXDXDX",
"DXDXDXDXDXDXDXDXDXDXDXDXDXDXDX(.n r.B.R.R.I.I.P.P.I.I.I.T.I.I.T.I.I.I.I.;XD.-XaXjXhX8X>X&.<.DXDXDXDXDXDXDXDXDXDXDXDXDXDXDXDXDXDX",
"DXDXDXDXDXDXDXDXDXDXDXDXDXDXDX Xn r.V.P.T.I.P.I.I.I.P.I.T.I.I.I.I.I.I.I.I.D.F.&XaXjXdXrX<.{ DXDXDXDXDXDXDXDXDXDXDXDXDXDXDXDXDXDX",
"DXDXDXDXDXDXDXDXDXDXDXDXDXDX*X(.V y.B.I.T.T.I.I.I.I.P.I.I.I.T.I.I.I.I.I.R.S.J.l.&XpXsXw.P { DXDXDXDXDXDXDXDXDXDXDXDXDXDXDXDXDXDX",
"DXDXDXDXDXDXDXDXDXDX%X`./.(. X!.f.h.S.I.R.T.I.P.I.I.I.I.P.T.I.I.I.I.I.I.T.P.H.m.[.`.`.U u { %XDXDXDXDXDXDXDXDXDXDXDXDXDXDXDXDXDX",
"DXDXDXDXDXDXDXDXDXzXw.T D B u.s.~.m.A.T.T.I.T.I.I.I.I.I.I.I.P.I.I.I.T.T.T.U.H.m.!.p.N D u X.$XDXDXDXDXDXDXDXDXDXDXDXDXDXDXDXDXDX",
"DXDXDXDXDXDXDXDXDX%XtXw...b M s.].m.F.J.U.P.I.I.I.I.I.I.I.T.T.I.I.T.I.U.A.F.G.{.f.M v  .w.e.tX$XDXDXDXDXDXDXDXDXDXDXDXDXDXDXDXDX",
"DXDXDXDXDXDXDXDXX.w.yXvXtXc.n s.].|.|.G.J.P.I.I.I.I.T.I.I.T.I.T.P.T.P.A.F.m.}.{.f.t.V OXcXvXw.X.#XDXDXDXDXDXDXDXDXDXDXDXDXDXDXDX",
"DXDXDXDXDXDXDXDXU <.sXCXxX_.M s.].}.{.m.F.P.I.I.I.I.I.I.I.I.I.T.I.I.P.J.m.{.}.{.s.t.] iXVXAXe.i X.DXDXDXDXDXDXDXDXDXDXDXDXDXDXDX",
"DXDXDXDXDXDXDXDXT <.sXVXpX_.c s.].}.~.|.F.P.T.I.T.I.I.I.I.I.I.I.I.I.I.A.m.}.}.}.f.t.u.iXAXvXe.5 H  .DXDXDXDXDXDXDXDXDXDXDXDXDXDX",
"DXDXDXDXDXDXDXDXR <.rXvXpXQ c s.].}.{.|.F.P.I.I.P.T.T.I.T.I.I.I.I.T.P.J.m.{.}.].f.t.t.eXdXsXw.5 9 < ) DXDXDXDXDXDXDXDXDXDXDXDXDX",
"DXDXDXDXDXDXDXDXT 2.e.fXeXQ m s.].].M.!.m.J.A.T.I.I.P.T.I.I.I.I.P.U.A.H.l.~.].].d.t.m `.uXrX6.J p 9 G /.DXDXDXDXDXDXDXDXDXDXDXDX",
"DXDXDXDXDXDXDXDXP 5 e.rX`.Q c f.].~.p.p.h.m.F.U.I.I.I.I.I.I.I.I.P.J.H.l.s.p.d.~.k.t.A n.rXe.1.L P U E [ } DXDXDXDXDXDXDXDXDXDXDX",
"DXDXDXDXDXDXDXDXE P 6.5./ W M s.k.f.m M p.].m.J.U.T.P.I.I.I.I.P.A.G.].f.N n p.].f.N b ! 8.6.2.P >.5.4.w % ' DXDXDXDXDXDXDXDXDXDX",
"DXDXDXDXDXDXDXDXDX`.3.1.U F z N p.V l g C '.|.G.J.A.P.I.T.I.U.J.F.m.{.a.v k n p.r.b F I E >.L L 1.9.4.w O ' DXDXDXDXDXDXDXDXDXDX",
"DXDXDXDXDXDXDXDXDXDXX.E 5 p D b n v : : Z k.|.|.m.F.U.I.T.P.J.m.{.|.{.a.j ; k n M D u 5 P P i L 1.5.3.w * ' DXDXDXDXDXDXDXDXDXDX",
"DXDXDXDXDXDXDXDXDXDXX.u 5 ;.8.( z h ; * B !.}.}.{.G.A.A.A.D.F.m.{.}.].Z : $ : z ( / ;.U u p 5 i 1.5.3.w * ' DXDXDXDXDXDXDXDXDXDX",
"DXDXDXDXDXDXDXDXDXDX} - U 4X2X:XF q % : B ^.}.}.{.m.m.G.G.G.|.{.}.}.}.C j % > D / 2X2X8.q - p L >.5.4.w * ' DXDXDXDXDXDXDXDXDXDX",
"DXDXDXDXDXDXDXDXDXDX' , ( wX8X>XU p - : B M.{.{.{.{.{.{.{.{.{.{.|.{.].C j % 9 J q.wXwX:X> + e P 1.9.4.w * | DXDXDXDXDXDXDXDXDXDX",
"DXDXDXDXDXDXDXDXDXDXDX| n.:X<Xq.>.J - : l a.k.~.{.}.{.].{.{.{.{.].k.f.n f = e >.8.<X<X:XI K P >.6.7.3.w * ' DXDXDXDXDXDXDXDXDXDX",
"DXDXDXDXDXDXDXDXDXDXDXDX/.[ D E 6.U q ; s V p.k.].{.{.{.{.{.{.{.~.s.m l ; > K 6.U F H I ^ 6.5.5.9.9.3.w * ' DXDXDXDXDXDXDXDXDXDX",
"DXDXDXDXDXDXDXDXDXDXDXDXDX_ < R 4.R q & : a m f.{.}.{.{.{.}.{.{.~.C v s X > D 4.T > = D 1.w.6.5.e.7.3.D * ' DXDXDXDXDXDXDXDXDXDX",
"DXDXDXDXDXDXDXDXDXDXDXDXDXDX/.} D q - X X : A !.{.}.{.{.{.{.{.{.^.n f ; $ % > w w e e e D K U >.6.7.3.w * | DXDXDXDXDXDXDXDXDXDX",
"DXDXDXDXDXDXDXDXDXDXDXDXDXDXzX' < O & & X & h a.].{.{.{.{.{.{.{.f.A ; $ % * = * > D u q = - e L 4.5.3.w * ' DXDXDXDXDXDXDXDXDXDX",
"DXDXDXDXDXDXDXDXDXDXDXDXDXDXlX!.: X # ; &   : Z f.m.{.{.{.{.].d.i.x O $ ; j x } H F D > & - p J >.5.3.w * ' DXDXDXDXDXDXDXDXDXDX",
"DXDXDXDXDXDXDXDXDXDXDXDXDXDXlX Xv a d k : O : v m f.].{.{.].k.p.n f $ X s A /.$XoXQ l f & - p L 1.5.3.w * | DXDXDXDXDXDXDXDXDXDX",
"DXDXDXDXDXDXDXDXDXDXDXDXDXzX*X Xa.m M v k f f k v u.d.].].k.p.n l g : g v i.@XmXzX).V l : o e 2.6.7.3.w * ' DXDXDXDXDXDXDXDXDXDX",
"DXDXDXDXDXDXDXDXDXDXDXDXDX@X X.X+X(.i.M n B B g : v i.s.s.p.A k f l B n M i.#XmXbX$X).] l z I 1.5.9.4.w O ` DXDXDXDXDXDXDXDXDXDX",
"DXDXDXDXDXDXDXDXDXDXDXDX@Xa.C #XbX%Xa.M i.~.a.h & g v M M M l & : Z k.s.M i.#XnXMXMXzX).n W ^ e.9.9.>.e $ ' DXDXDXDXDXDXDXDXDXDX",
"DXDXDXDXDXDXDXDXDXDXDX@X X^._.zXMX$X!.M p.m.!.B x g k k k k g j B _.m.s.t.i.+XnXBXBXnX+Xu.W / :X5.>.R [ } DXDXDXDXDXDXDXDXDXDXDX",
"DXDXDXDXDXDXDXDXDXDX@Xu.!.#X$XnXBX$X!.M s.].~.x.C A f X $ ; l Z ^.'.].f.m i.+XnXBXBXnX+Xu.b / e.E r G /.DXDXDXDXDXDXDXDXDXDXDXDX",
"DXDXDXDXDXDXDXDXDX$X(.Z .XbXMXMXbX#Xc.n a.~.~.|.].Z j % $ , B ^.}.}.{.f.m Z +XaXnXnX$X+XZ W ^ 6.Y > ) DXDXDXDXDXDXDXDXDXDXDXDXDX",
"DXDXDXDXDXDXDXDX#XXXtXiXxXNXNXbX#X_.W H c.}.|.|.].!.Z B A B a.{.~.|.~.c.W H _.).+X+X.X/.n.~ I Y [ | DXDXDXDXDXDXDXDXDXDXDXDXDXDX",
"DXDXDXDXDXDXDXDX^ 3.yXAXCXZXAXiXi.z D J Q M.}.}.{.{.].'.!.M.m.{.|.|.{.c.I u W N i.V Q c.7.3.e - | DXDXDXDXDXDXDXDXDXDXDXDXDXDXDX",
"DXDXDXDXDXDXDXDXP <.vXZXSXZXAXiXM S W ! Q x.x._.x.x.x.x.x._.c.x._.^.c.c.! ! W M S S v F E E [ _ DXDXDXDXDXDXDXDXDXDXDXDXDXDXDXDX",
"DXDXDXDXDXDXDXDXK <.sXSXSXSXVXiXN M N.Z.b.I I I ~ F ~ ~ ~ ~ ! I ! I I / M.N.N.S d s : o q H | DXDXDXDXDXDXDXDXDXDXDXDXDXDXDXDXDX",
"DXDXDXDXDXDXDXDXR 3.yXCXZXZXAXOXN r.B.P.n.I i J J J J J J J J J L 5 J b.C.I.h.M d ; &   & } DXDXDXDXDXDXDXDXDXDXDXDXDXDXDXDXDXDX",
"DXDXDXDXDXDXDXDXDXeXuXyXvXvXe. .M y.;XR.Z.b.v.v.v.v.v.v.v.v.v.v.v.v.v.M.I.Y.z.t.d ; * x | DXDXDXDXDXDXDXDXDXDXDXDXDXDXDXDXDXDXDX",
"DXDXDXDXDXDXDXDXDXDX`.1.i <.E  .N r.B.R.T.S.C.C.C.C.C.C.C.C.C.C.C.C.C.U.R.Y.h.M g & , ' DXDXDXDXDXDXDXDXDXDXDXDXDXDXDXDXDXDXDXDX",
"DXDXDXDXDXDXDXDXDXDXDX{ J 0 w h S t.h.B.S.Y.Y.E.R.I.I.R.I.R.R.T.R.T.Y.A.B.z.r.v s X < /.DXDXDXDXDXDXDXDXDXDXDXDXDXDXDXDXDXDXDXDX",
"DXDXDXDXDXDXDXDXDXDXDXDX .D - o : h l N N.H.K.E.R.R.R.R.R.R.R.R.R.U.F.M.t.z k f # $ , DXDXDXDXDXDXDXDXDXDXDXDXDXDXDXDXDXDXDXDXDX",
"DXDXDXDXDXDXDXDXDXDXDXDXDX) +   % % + : B M.m.F.P.Y.S.I.P.S.I.P.A.G.m.Z j + % % O $ : DXDXDXDXDXDXDXDXDXDXDXDXDXDXDXDXDXDXDXDXDX",
"DXDXDXDXDXDXDXDXDXDXDXDXDXx   . 0 7 7 9 x B i.g.y.y.y.N.y.N.y.h.y.i.Z x q 7 7 7 2   = DXDXDXDXDXDXDXDXDXDXDXDXDXDXDXDXDXDXDXDXDX",
"DXDXDXDXDXDXDXDXDXDXDXDXDX< . 3 y $.@.t e , s s h h h h h h h h g s j q t y $.y 8 . * DXDXDXDXDXDXDXDXDXDXDXDXDXDXDXDXDXDXDXDXDX",
"DXDXDXDXDXDXDXDXDXDXDXDXDX` r e y o.%.%.t 9 9 . 9 +   $ $ $ - . - 6 - t y %.%.$.t r ) DXDXDXDXDXDXDXDXDXDXDXDXDXDXDXDXDXDXDXDXDX",
"DXDXDXDXDXDXDXDXDXDXDXDXDXDXDX[ 0 8 @.%.+.+.+.#.+.8 @ 1 1 @ 7 %.#.+.+.+.+.%.4 7 G  .DXDXDXDXDXDXDXDXDXDXDXDXDXDXDXDXDXDXDXDXDXDX",
"DXDXDXDXDXDXDXDXDXDXDXDXDXDXDXDX, 6 y %.*.=.-.-.=.$.- # X < t *.-.-.=.=.#.y 7 % ` DXDXDXDXDXDXDXDXDXDXDXDXDXDXDXDXDXDXDXDXDXDXDX",
"DXDXDXDXDXDXDXDXDXDXDXDXDXDXDXDXDXG r 4 o.#.O.O.#.T [ ' _ } { #.O.O.#.+.4 t G } DXDXDXDXDXDXDXDXDXDXDXDXDXDXDXDXDXDXDXDXDXDXDXDX",
"DXDXDXDXDXDXDXDXDXDXDXDXDXDXDXDXDXDXG 6 2 7 7 3 7  .DXDXDXDX .r 3 6 7 3 . q  .DXDXDXDXDXDXDXDXDXDXDXDXDXDXDXDXDXDXDXDXDXDXDXDXDX",
"DXDXDXDXDXDXDXDXDXDXDXDXDXDXDXDXDXDXDX, , j , , ) DXDXDXDXDXDX) , , j , , ) DXDXDXDXDXDXDXDXDXDXDXDXDXDXDXDXDXDXDXDXDXDXDXDXDXDX",
"DXDXDXDXDXDXDXDXDXDXDXDXDXDXDXDXDXDXDXDXDXDXDXDXDXDXDXDXDXDXDXDXDXDXDXDXDXDXDXDXDXDXDXDXDXDXDXDXDXDXDXDXDXDXDXDXDXDXDXDXDXDXDXDX",
"DXDXDXDXDXDXDXDXDXDXDXDXDXDXDXDXDXDXDXDXDXDXDXDXDXDXDXDXDXDXDXDXDXDXDXDXDXDXDXDXDXDXDXDXDXDXDXDXDXDXDXDXDXDXDXDXDXDXDXDXDXDXDXDX",
"DXDXDXDXDXDXDXDXDXDXDXDXDXDXDXDXDXDXDXDXDXDXDXDXDXDXDXDXDXDXDXDXDXDXDXDXDXDXDXDXDXDXDXDXDXDXDXDXDXDXDXDXDXDXDXDXDXDXDXDXDXDXDXDX"
};
