/* XPM */
static char *result[] = {
/* columns rows colors chars-per-pixel */
"64 64 247 2 ",
"   c #170C1D",
".  c #26171C",
"X  c #2E111C",
"o  c #1E301E",
"O  c #1C1B23",
"+  c #231B23",
"@  c #2A1B23",
"#  c #271B27",
"$  c #351923",
"%  c #1A2424",
"&  c #1E3721",
"*  c #0D3921",
"=  c #242224",
"-  c #2A2323",
";  c #252A24",
":  c #232D2A",
">  c #2A282A",
",  c #362324",
"<  c #213D22",
"1  c #253422",
"2  c #353825",
"3  c #2A2E33",
"4  c #343632",
"5  c #25201E",
"6  c #50191D",
"7  c #65181F",
"8  c #44321A",
"9  c #6E351D",
"0  c #4E3429",
"q  c #483829",
"w  c #593625",
"e  c #542C26",
"r  c #672322",
"t  c #693A24",
"y  c #733326",
"u  c #671922",
"i  c #1C451D",
"p  c #19571D",
"a  c #2F5B1F",
"s  c #29501B",
"d  c #1C701C",
"f  c #316D1D",
"g  c #1D4721",
"h  c #1A5A21",
"j  c #244D24",
"k  c #254423",
"l  c #354825",
"z  c #255826",
"x  c #395524",
"c  c #2D5637",
"v  c #314838",
"b  c #1C6924",
"n  c #1C7523",
"m  c #226522",
"M  c #236B23",
"N  c #2B6725",
"B  c #366722",
"V  c #237524",
"C  c #2A742A",
"Z  c #2B7C2A",
"A  c #247926",
"S  c #346633",
"D  c #2A7D32",
"F  c #357636",
"G  c #2C6A33",
"H  c #584729",
"J  c #50522F",
"K  c #6A4329",
"L  c #694929",
"P  c #784627",
"I  c #6C5534",
"U  c #765733",
"Y  c #6A4F2D",
"T  c #577631",
"R  c #4E6C2C",
"E  c #686322",
"W  c #666922",
"Q  c #667A28",
"!  c #6A663B",
"~  c #76682E",
"^  c #615619",
"/  c #355B49",
"(  c #325342",
")  c #3C674C",
"_  c #376857",
"`  c #3C794B",
"'  c #445A48",
"]  c #5C5C44",
"[  c #6D5B44",
"{  c #40674D",
"}  c #567C42",
"|  c #477756",
" . c #527A56",
".. c #4C694B",
"X. c #6B7755",
"o. c #71754B",
"O. c #95141D",
"+. c #952624",
"@. c #892C23",
"#. c #A62426",
"$. c #E8292B",
"%. c #8A5219",
"&. c #884A28",
"*. c #84582D",
"=. c #904A34",
"-. c #865933",
";. c #92533B",
":. c #896637",
">. c #956A36",
",. c #936D38",
"<. c #9A6D39",
"1. c #996A35",
"2. c #9D733B",
"3. c #95793B",
"4. c #8D722A",
"5. c #A67437",
"6. c #A6652B",
"7. c #875D41",
"8. c #8A6B4B",
"9. c #AD7A4E",
"0. c #AD5E53",
"q. c #D77457",
"w. c #2E941E",
"e. c #37B11D",
"r. c #2C832C",
"t. c #29862B",
"y. c #358A35",
"u. c #349335",
"i. c #39973A",
"p. c #308B2F",
"a. c #39A728",
"s. c #38B622",
"d. c #3EA639",
"f. c #558539",
"g. c #5A8339",
"h. c #448031",
"j. c #609825",
"k. c #41AB3F",
"l. c #45BB39",
"z. c #5BB728",
"x. c #39D523",
"c. c #46CD23",
"v. c #44C528",
"b. c #56C222",
"n. c #53CF23",
"m. c #4DDD2B",
"M. c #49D526",
"N. c #4ACB36",
"B. c #48C837",
"V. c #4BD232",
"C. c #56D333",
"Z. c #4EE624",
"A. c #4EE922",
"S. c #4CE729",
"D. c #53EA22",
"F. c #4EF423",
"G. c #4FF922",
"H. c #4DE333",
"J. c #64EA23",
"K. c #6FEB23",
"L. c #70E62C",
"P. c #63DE32",
"I. c #3B9046",
"U. c #3EA942",
"Y. c #459A53",
"T. c #4E904F",
"R. c #648746",
"E. c #6C8759",
"W. c #6F9356",
"Q. c #74965B",
"!. c #74875A",
"~. c #41A541",
"^. c #43AC43",
"/. c #46AA46",
"(. c #46B345",
"). c #46B943",
"_. c #46B848",
"`. c #49A356",
"'. c #58A55E",
"]. c #71B259",
"[. c #579767",
"{. c #588B66",
"}. c #779C62",
"|. c #749268",
" X c #5BA763",
".X c #54B76B",
"XX c #4FB366",
"oX c #67A465",
"OX c #67B26C",
"+X c #72AF70",
"@X c #48C144",
"#X c #65C779",
"$X c #62D27F",
"%X c #6CC65F",
"&X c #B3901D",
"*X c #AB9A1E",
"=X c #958F29",
"-X c #B89826",
";X c #AB8D25",
":X c #B5A924",
">X c #AAA325",
",X c #CFB71C",
"<X c #C6AD2D",
"1X c #BDEE22",
"2X c #8FEC22",
"3X c #D3CC23",
"4X c #E6D623",
"5X c #EFD834",
"6X c #C8F026",
"7X c #E9E923",
"8X c #F7EC24",
"9X c #FCF222",
"0X c #FCF823",
"qX c #F1E837",
"wX c #CCDA1E",
"eX c #B09257",
"rX c #998E79",
"tX c #B69574",
"yX c #AC8E76",
"uX c #85A968",
"iX c #B1AC73",
"pX c #86885D",
"aX c #C6956D",
"sX c #FF937A",
"dX c #D1B377",
"fX c #DAAC57",
"gX c #A8CB56",
"hX c #F1D94E",
"jX c #DCD45A",
"kX c #61BE82",
"lX c #68D088",
"zX c #6FE294",
"xX c #5ECE80",
"cX c #D6B28E",
"vX c #E3BC9A",
"bX c #8CD596",
"nX c #92DA9B",
"mX c #86CD8B",
"MX c #9BE3A4",
"NX c #B0E6AB",
"BX c #ABC992",
"VX c #DDCD9C",
"CX c #EAD9B0",
"ZX c #FCE2BC",
"AX c #FFF3CC",
"SX c #FFF0CA",
"DX c None",
/* pixels */
"DXDXDXDXDXDXDXDXDXDXDXDXDXDXDXDXDXDXDXDXDXDXDXDXDXDXDXDXDXDXDXDXDXDXDXDXDXDXDXDXDXDXDXDXDXDXDXDXDXDXDXDXDXDXDXDXDXDXDXDXDXDXDXDX",
"DXDXDXDXDXDXDXDXDXDXDXDXDXDXDXDXDXDXDXDXDXDXDXDXDXDXDXDXDXDXDXDXDXDXDXDXDXDXDXDXDXDXDXDXDXDXDXDXDXDXDXDXDXDXDXDXDXDXDXDXDXDXDXDX",
"DXDXDXDXDXDXDXDXDXDXDXDXDXDXDXDXDXDXDXDXDXDXDXDXDXDXDXDXDXDXDXDXDXDXDXDXDXDXDXDXDXDXDXDXDXDXDXDXDXDXDXDXDXDXDXDXDXDXDXDXDXDXDXDX",
"DXDXDXDXDXDXDXDXDXDXDXDXDXDXDXDXDXDXDXDXDXDXDXDXDXDXDXDXDXDXDXDXDXDXDXDXDXDXDXDXDXDXDXDXDXDXDXDXDXDXDXDXDXDXDXDXDXDXDXDXDXDXDXDX",
"DXDXDXDXDXDXDXDXDXDXDXDXDXDXDXDXDXDXDXDXDXDXDXDXDXDXDXDXDXDXDXDXDXDXDXDXDXDXDXDXDXDXDXDXDXDXDXDXDXDXDXDXDXDXDXDXDXDXDXDXDXDXDXDX",
"DXDXDXDXDXDXDXDXDXDXDXDXDXDXDXDXDXDXDXDXDXDXDXDXDXDXDXDXDXDXDXDXDXDXDXDXDXDXDXDXDXDXDXDXDXDXDXDXDXDXDXDXDXDXDXDXDXDXDXDXDXDXDXDX",
"DXDXDXDXDXDXDXDXDXDXDXDXDXDXDXDXDXDXDXDXDXDXDXDXDXDXDXDXDXDXDXDX}.X.E.E.E.!.X.E.DXDXDXDXDXDXDXDXDXDXDXDXDXDXDXDXDXDXDXDXDXDXDXDX",
"DXDXDXDXDXDXDXDXDXDXDXDXDXDXDXDXDXDXDXDXDXDXDXDXDXDXDXDXDXDXDXDXo.9 y P K y 9 P Q.DXDXDXDXDXDXDXDXDXDXDXDXDXDXDXDXDXDXDXDXDXDXDX",
"DXDXDXDXDXDXDXDXDXDXDXDXDXDXDXDXDXDXDXDXDXDXDXDXDXDXDXDXoXW.|.!.9.0.;X&X&X&X&X&X=X!.DXDXDXDXDXDXDXDXDXDXDXDXDXDXDXDXDXDXDXDXDXDX",
"DXDXDXDXDXDXDXDXDXDXDXDXDXDXDXDXDXDXDXDXDXDXDXDXDXDXDX+XU 9 t -.tXdX5X8X8X7X9X7X-XL !.DXDXDXDXDXDXDXDXDXDXDXDXDXDXDXDXDXDXDXDXDX",
"DXDXDXDXDXDXDXDXDXDXDXDXDXDXDXDXDXDXDXDXDXDXDXDXDXDX.X}.8.6.6.:XfXhXqX0X0X9X0X0X,X;X3.}.DXDXDXDXDXDXDXDXDXDXDXDXDXDXDXDXDXDXDXDX",
"DXDXDXDXDXDXDXDXDXDXDXDXDXDXDXDXDXDXDXDXDXDXDXDXDXXXF o.aXdX5X0X9XqX9X9X9X9X9X8X9X7X-XY X.DXDXDXDXDXDXDXDXDXDXDXDXDXDXDXDXDXDXDX",
"DXDXDXDXDXDXDXDXDXDXDXDXDXDXDXDXDXDXDXDXDXDXDXDX.XU.t.z.iXgX6X6X6X6X1X1X1X1X7X8X9X0X3X6.=X}.DXDXDXDXDXDXDXDXDXDXDXDXDXDXDXDXDXDX",
"DXDXDXDXDXDXDXDXDXDXDXDXDXDXDXDXDXDXDXDXDXDXDXXXy.a.c.C.P.J.J.J.J.J.J.J.D.K.1X9X9X9X8XqX:X*.X.DXDXDXDXDXDXDXDXDXDXDXDXDXDXDXDXDX",
"DXDXDXDXDXDXDXDXDXDXDXDXDXDXDXDXDXDXDXDXDXDX.X`.w.s.S.A.A.A.A.Z.A.A.A.x.F.A.2X6X7XqX9X0X,X%.I DXDXDXDXDXDXDXDXDXDXDXDXDXDXDXDXDX",
"DXDXDXDXDXDXDXDXDXDXDXDXDXDXDXDXDXDXDXDXDXXXy.a.c.m.A.A.A.A.A.A.A.A.S.A.A.A.D.K.gXdXhX0X,X&.[ DXDXDXDXDXDXDXDXDXDXDXDXDXDXDXDXDX",
"DXDXDXDXDXDXDXDXDXDXDXDXDXDXDXDXDXDXDXDXDXY.m e.A.A.A.A.A.A.D.D.A.A.A.A.A.A.Z.S.%XiXjXhX<X&.[ DXDXDXDXDXDXDXDXDXDXDXDXDXDXDXDXDX",
"DXDXDXDXDXDXDXDXDXDXDXDXDXDXDXDXDXDXDXDXDXY.d e.A.D.A.A.A.A.A.A.Z.A.A.A.A.Z.A.Z.C.].iXjXeX=.o.DXDXDXDXDXDXDXDXDXDXDXDXDXDXDXDXDX",
"DXDXDXDXDXDXDXDXDXDXDXDXDXDXDXDXDXDXlXDX#XY.C e.Z.D.A.A.A.A.A.Z.D.A.A.A.A.A.A.A.V.l.].iX9.=.[ OXDXDXDXDXDXDXDXDXDXDXDXDXDXDXDXDX",
"DXDXDXDXDXDXDXDXDXDXDXDXDXDXDXDXDX!.! T.I.I.k.v.Z.A.A.A.A.A.A.D.A.A.A.A.Z.A.A.A.N.(.T.R.! t t ' ) / | DXDXDXDXDXDXDXDXDXDXDXDXDX",
"DXDXDXDXDXDXDXDXDXDXDXDXDXDXDXDX+X8.P x n u.l.N.m.A.A.A.Z.A.A.D.D.Z.A.D.D.A.Z.Z.N.l.u.n B I t , O . 2 [.DXDXDXDXDXDXDXDXDXDXDXDX",
"DXDXDXDXDXDXDXDXDXDXDXDXDXDXDX}.pXtXyXT n u._.@XN.m.A.A.A.A.A.A.A.A.A.A.A.Z.V.B.@X(.u.n R.tXyXK e t I ..T.DXDXDXDXDXDXDXDXDXDXDX",
"DXDXDXDXDXDXDXDXDXDXDXDXDXDXDXU ;.vXCXW.n u.(.^.k.N.m.Z.Z.A.A.A.A.Z.A.A.A.Z.B.).(.U.u.n Q.CXvX7.P 1.,.0 : DXDXDXDXDXDXDXDXDXDXDX",
"DXDXDXDXDXDXDXDXDXDXDXDXDXDXDXY =.cXVXW.n u.(.d.u.k.N.m.A.A.A.D.A.A.A.D.A.Z.B.^.U.p.t.n Q.VXcX:.P 1.<.e % DXDXDXDXDXDXDXDXDXDXDX",
"DXDXDXDXDXDXDXDXDXDXDXDXDXDXDXI &.aXaXR.n u.).u.C y.k.B.m.Z.Z.Z.A.A.A.A.Z.Z.N.^.y.C M n R.dXaX;.P >.,.0 3 DXDXDXDXDXDXDXDXDXDXDX",
"DXDXDXDXDXDXDXDXDXDXDXDXDXDXDXI &.9.eXg.n t.u.t.V A u.d.B.V.N.m.Z.D.D.Z.m.N.@X^.y.j p n T eX9.&.P ,.,.0 : DXDXDXDXDXDXDXDXDXDXDX",
"DXDXDXDXDXDXDXDXDXDXDXDXDXDXDXI y <.3.T d V V n n n A p.^._.(.B.m.Z.A.Z.B.).).^.S ; i m T 8.2.&.P >.3.0 : DXDXDXDXDXDXDXDXDXDXDX",
"DXDXDXDXDXDXDXDXDXDXDXDXDXDXDXDXo.:.U E x M M a j a M y.~._./.).B.V.V.V.l./.k.i.N 5 1 x R *.:.*.-.<.,.0 : DXDXDXDXDXDXDXDXDXDXDX",
"DXDXDXDXDXDXDXDXDXDXDXDXDXDXDXDX+X3.y 9 K B M j o k m y.~.(.(.(.).).).).(.^.i.C i o , w t P U >.2.9.:.0 : DXDXDXDXDXDXDXDXDXDXDX",
"DXDXDXDXDXDXDXDXDXDXDXDXDXDXDXDXDX] e 4.4.W x s < g z C u.~.^.(.(./.(./.(./.u.M i O H 6.%.t t *.<.5.:.0 % [.DXDXDXDXDXDXDXDXDXDX",
"DXDXDXDXDXDXDXDXDXDXDXDXDXDXDXDXDXv 8 >X4X;X9 l h p 1 j C p.^.(.(.(.(.(.(.k.p.V * O ~ 3X:XJ , K *.<.>.0 : DXDXDXDXDXDXDXDXDXDXDX",
"DXDXDXDXDXDXDXDXDXDXDXDXDXDXDXDXDX_ J >X3X&X4.W R l + & m r.u.^.(.(.(.(.(.k.y.z a ^ =X3X*Xs . w P >.,.0 3 DXDXDXDXDXDXDXDXDXDXDX",
"DXDXDXDXDXDXDXDXDXDXDXDXDXDXDXDXDXDX X..^ >X5X<X3.J = & m V r.p.~./.(.(._.~.G 1 Q 3X:XE 2 % 5 w P 1.1.0 : DXDXDXDXDXDXDXDXDXDXDX",
"DXDXDXDXDXDXDXDXDXDXDXDXDXDXDXDXDXDXDX_ v =X3X:X,.Y q j z m M Z i./.^.(._./.c - 4.3X*X2 # 1 q K *.1.,.0 : DXDXDXDXDXDXDXDXDXDXDX",
"DXDXDXDXDXDXDXDXDXDXDXDXDXDXDXDXDXDXDXkX[.R.W H 0 Y *.Y l i b V Z p.k.(._.^.S + q E ~ U -.~ :.:.>.9.1.e % DXDXDXDXDXDXDXDXDXDXDX",
"DXDXDXDXDXDXDXDXDXDXDXDXDXDXDXDXDXDXDXDXzX| %   % J ,.U , & z m M Z u.^.(.d.S + O 3 J ,.2.<.<.9.2.2.U H v DXDXDXDXDXDXDXDXDXDXDX",
"DXDXDXDXDXDXDXDXDXDXDXDXDXDXDXDXDXDXDXDXzXI.g i j l H q @ O ; j m A r.p.p.r.j # ' {.R.T J J I 2.2.K H | DXDXDXDXDXDXDXDXDXDXDXDX",
"DXDXDXDXDXDXDXDXDXDXDXDXDXDXDXDXDXDXDXzXlX`.Z n M z : = : > ; 1 z M M m M m k 3 {.bX+Xy.p % q *.:.q v DXDXDXDXDXDXDXDXDXDXDXDXDX",
"DXDXDXDXDXDXDXDXDXDXDXDXDXDXDXDXDXDXDX.X`.'.'.T.C C G F F F F S j k < i < < i z [.nXmXOXT.z l H J  .DXDXDXDXDXDXDXDXDXDXDXDXDXDX",
"DXDXDXDXDXDXDXDXDXDXDXDXDXDXDXDXDXDX$XI.C OXmX'.C p.^.(./.(._.h.l + = = = ; s G '.bXnXnXOXy.p % ( DXDXDXDXDXDXDXDXDXDXDXDXDXDXDX",
"DXDXDXDXDXDXDXDXDXDXDXDXDXDXDXDXDX.X`.Y. XmXMX Xn p.k.)._._._.~.F S S S S S M D  XbXMXMX+Xr.n ` DXDXDXDXDXDXDXDXDXDXDXDXDXDXDXDX",
"DXDXDXDXDXDXDXDXDXDXDXDXDXDXDXDXxXi.F OXbXMXbX'.V p.^._.(.(.(.^./.U.^.^.^.^.r.A '.bXMXnXOXZ y.DXDXDXDXDXDXDXDXDXDXDXDXDXDXDXDXDX",
"DXDXDXDXDXDXDXDXDXDXDXDXDXDXDXDX}.Q.uXBXNXmXoXT J h.^._.(._.(._._._._._.@X_.h.x }  XOXOX'.`..XDXDXDXDXDXDXDXDXDXDXDXDXDXDXDXDXDX",
"DXDXDXDXDXDXDXDXDXDXDXDXDXDXDX! 7.cXCXZXCXuXC x t T ^.).(.^.^.(.(.(.(.(._.l.T t J F D r.Y.$XDXDXDXDXDXDXDXDXDXDXDXDXDXDXDXDXDXDX",
"DXDXDXDXDXDXDXDXDXDXDXDXDXDXDXK =.vXAXAXCXuXm f Q g.g.f.f.f.f.f.f.f.f.f.f.f.Q Q R d p s I.DXDXDXDXDXDXDXDXDXDXDXDXDXDXDXDXDXDXDX",
"DXDXDXDXDXDXDXDXDXDXDXDXDXDXDXY =.cXAXAXCXpXC w.n.j.^ y K t K K K K K K t L j.n.e.V g o { DXDXDXDXDXDXDXDXDXDXDXDXDXDXDXDXDXDXDX",
"DXDXDXDXDXDXDXDXDXDXDXDXDXDXDXE.8.tXvXvXcXE.V e.F.z.W E E E E E E W E E E W z.F.s.A i = ' DXDXDXDXDXDXDXDXDXDXDXDXDXDXDXDXDXDXDX",
"DXDXDXDXDXDXDXDXDXDXDXDXDXDXDXDXDX8.=.7.~ R t.e.A.Z.b.z.b.b.b.b.z.b.b.b.z.n.A.F.v.A i 5 ) DXDXDXDXDXDXDXDXDXDXDXDXDXDXDXDXDXDXDX",
"DXDXDXDXDXDXDXDXDXDXDXDXDXDXDXDXDXE.L t e l N a.M.S.A.G.F.F.F.F.F.F.F.F.S.D.m.v.w.m < + { DXDXDXDXDXDXDXDXDXDXDXDXDXDXDXDXDXDXDX",
"DXDXDXDXDXDXDXDXDXDXDXDXDXDXDXDXDXDXoXJ , 5 k y.B.H.F.G.G.G.G.G.F.F.G.F.H.l.p.c k i % + { DXDXDXDXDXDXDXDXDXDXDXDXDXDXDXDXDXDXDX",
"DXDXDXDXDXDXDXDXDXDXDXDXDXDXDXDXDXDXDX{ O X , S U.l.c.c.c.c.c.c.c.c.c.c.l.h.x $ $ $ @ + ) DXDXDXDXDXDXDXDXDXDXDXDXDXDXDXDXDXDXDX",
"DXDXDXDXDXDXDXDXDXDXDXDXDXDXDXDXDXDXDX) . 6 r q j m N N f B z x z B f B S c 0 r O.y 6 X / DXDXDXDXDXDXDXDXDXDXDXDXDXDXDXDXDXDXDX",
"DXDXDXDXDXDXDXDXDXDXDXDXDXDXDXDXDXDXDX) + 7 +.u - @ $ $ # # 3 3 3 > # # + @ 6 @.+.O.e > | DXDXDXDXDXDXDXDXDXDXDXDXDXDXDXDXDXDXDX",
"DXDXDXDXDXDXDXDXDXDXDXDXDXDXDXDXDXDXDX) @ 7 O.#.O.O.O.u # 4 | [.[.| 4     + 6 6 6 6 J DXDXDXDXDXDXDXDXDXDXDXDXDXDXDXDXDXDXDXDXDX",
"DXDXDXDXDXDXDXDXDXDXDXDXDXDXDXDXDXDXDX) @ r +.#.$.$.$.+.$ / xXDXDXDXDX- > > : 3 O > DXDXDXDXDXDXDXDXDXDXDXDXDXDXDXDXDXDXDXDXDXDX",
"DXDXDXDXDXDXDXDXDXDXDXDXDXDXDXDXDXDXDX/ . t ;.q.sXsXsX0.$ c DXDXDXDXDXDXDXDXDXDXDXDXDXDXDXDXDXDXDXDXDXDXDXDXDXDXDXDXDXDXDXDXDXDX",
"DXDXDXDXDXDXDXDXDXDXDXDXDXDXDXDXDXDXDX_ 5 L eXdXCXSXSXyX4 ( DXDXDXDXDXDXDXDXDXDXDXDXDXDXDXDXDXDXDXDXDXDXDXDXDXDXDXDXDXDXDXDXDXDX",
"DXDXDXDXDXDXDXDXDXDXDXDXDXDXDXDXDXDXDXDX .J I 8.rXrXrX|. .DXDXDXDXDXDXDXDXDXDXDXDXDXDXDXDXDXDXDXDXDXDXDXDXDXDXDXDXDXDXDXDXDXDXDX",
"DXDXDXDXDXDXDXDXDXDXDXDXDXDXDXDXDXDXDXDXDX| - . - @ - ..DXDXDXDXDXDXDXDXDXDXDXDXDXDXDXDXDXDXDXDXDXDXDXDXDXDXDXDXDXDXDXDXDXDXDXDX",
"DXDXDXDXDXDXDXDXDXDXDXDXDXDXDXDXDXDXDXDXDXDX_ / ) ( / DXDXDXDXDXDXDXDXDXDXDXDXDXDXDXDXDXDXDXDXDXDXDXDXDXDXDXDXDXDXDXDXDXDXDXDXDX",
"DXDXDXDXDXDXDXDXDXDXDXDXDXDXDXDXDXDXDXDXDXDXDXDXDXDXDXDXDXDXDXDXDXDXDXDXDXDXDXDXDXDXDXDXDXDXDXDXDXDXDXDXDXDXDXDXDXDXDXDXDXDXDXDX",
"DXDXDXDXDXDXDXDXDXDXDXDXDXDXDXDXDXDXDXDXDXDXDXDXDXDXDXDXDXDXDXDXDXDXDXDXDXDXDXDXDXDXDXDXDXDXDXDXDXDXDXDXDXDXDXDXDXDXDXDXDXDXDXDX",
"DXDXDXDXDXDXDXDXDXDXDXDXDXDXDXDXDXDXDXDXDXDXDXDXDXDXDXDXDXDXDXDXDXDXDXDXDXDXDXDXDXDXDXDXDXDXDXDXDXDXDXDXDXDXDXDXDXDXDXDXDXDXDXDX",
"DXDXDXDXDXDXDXDXDXDXDXDXDXDXDXDXDXDXDXDXDXDXDXDXDXDXDXDXDXDXDXDXDXDXDXDXDXDXDXDXDXDXDXDXDXDXDXDXDXDXDXDXDXDXDXDXDXDXDXDXDXDXDXDX"
};
