/* XPM */
static char *_6165fced63b4fe988b071cee524acbftiPHtGEWL7hsPzPr[] = {
/* columns rows colors chars-per-pixel */
"64 64 141 2 ",
"   c None",
".  c #BDA165",
"X  c #BDA26A",
"o  c #6E5FB7",
"O  c #6F5FB8",
"+  c #7A64AA",
"@  c #6D60B7",
"#  c #6E60B8",
"$  c #7162B4",
"%  c #070DFF",
"&  c #0410FF",
"*  c #0D18FF",
"=  c #1314FD",
"-  c #121CFF",
";  c #1C1FFF",
":  c #1323FF",
">  c #1E20FF",
",  c #1728FF",
"<  c #1B2AFF",
"1  c #2C27EF",
"2  c #2C28EF",
"3  c #352AE4",
"4  c #2C29F4",
"5  c #2A2AFA",
"6  c #2430FF",
"7  c #2D32FC",
"8  c #3335F2",
"9  c #3836F1",
"0  c #383AF7",
"q  c #3237F8",
"w  c #333EFF",
"e  c #4A3FCD",
"r  c #493DD1",
"t  c #2C41FF",
"y  c #3344FE",
"u  c #3841FF",
"i  c #344AFF",
"p  c #3D4BFC",
"a  c #3454FF",
"s  c #3D57FF",
"d  c #3F64FF",
"f  c #5042CD",
"g  c #5C55C7",
"h  c #4B42D3",
"j  c #4E49D4",
"k  c #4A41D9",
"l  c #544CD3",
"z  c #6351C7",
"x  c #404BFB",
"c  c #4253FF",
"v  c #4263FF",
"b  c #4C62FF",
"n  c #5C6EFF",
"m  c #5D7CFF",
"M  c #6675FF",
"N  c #627EFF",
"B  c #997D8A",
"V  c #8475A7",
"C  c #8374A9",
"Z  c #6483FF",
"A  c #638AFF",
"S  c #6B8CFF",
"D  c #6A92FF",
"F  c #6C9BFF",
"G  c #749CFF",
"H  c #7AAAFF",
"J  c #7FB4FF",
"K  c #95818F",
"L  c #938096",
"P  c #A08986",
"I  c #A18B88",
"U  c #95ACFC",
"Y  c #9DABFC",
"T  c #85B5FF",
"R  c #8FB3FD",
"E  c #87B9FF",
"W  c #88BBFF",
"Q  c #A2B0FC",
"!  c #ACB2FC",
"~  c #A1BDFE",
"^  c #8DC4FF",
"/  c #86CDFF",
"(  c #8DCAFF",
")  c #90C7FF",
"_  c #94CFFF",
"`  c #9BC9FE",
"'  c #8ED1FE",
"]  c #95D1FF",
"[  c #9BD4FE",
"{  c #97D9FF",
"}  c #9CDDFF",
"|  c #A6D6FD",
" . c #A8D7FD",
".. c #A4DCFD",
"X. c #AAD9FD",
"o. c #B6D5FC",
"O. c #B4DAFC",
"+. c #BADFFC",
"@. c #A2E2FE",
"#. c #B4E3FC",
"$. c #BFE0FC",
"%. c #B1EAFD",
"&. c #B8EBFC",
"*. c #C1D1FA",
"=. c #CED8FA",
"-. c #D7DBFA",
";. c #CCE6FB",
":. c #CAEFFB",
">. c #D1EBFB",
",. c #DBEBFA",
"<. c #D6F5FA",
"1. c #DDF4FA",
"2. c #E0E4F9",
"3. c #E2EEF9",
"4. c #ECEEF9",
"5. c #E6F0F9",
"6. c #ECF2F9",
"7. c #E2F8FA",
"8. c #E9FCF9",
"9. c #FFFDF7",
"0. c #FEFCF7",
"q. c #FFFFF7",
"w. c #FBF8F7",
"e. c #F1F0F9",
"r. c #F4F6F8",
"t. c #F6F7F8",
"y. c #F7F7F8",
"u. c #F6F6F8",
"i. c #FBF7F8",
"p. c #FFF6F8",
"a. c #FFF7F8",
"s. c #FCF5F8",
"d. c #F6F8F8",
"f. c #F7F8F8",
"g. c #F7F8F8",
"h. c #F8F8F8",
"j. c #F9FFF8",
"k. c #FCFDF9",
"l. c #FDFFF8",
"z. c #FFFFF8",
"x. c #F8F8F8",
/* pixels */
"                                                                                                                                ",
"                                                                                                                                ",
"                                                                                                                                ",
"                                                            P k k I                                                             ",
"                                                          X g - * g X                                                           ",
"                                                          4 w b b w 4                                                           ",
"                                                          = d H T b = .                                                         ",
"                                                        P 5 S %.@.Z 5 P                                                         ",
"                                                      @ 5 p ! 8.@.G p 7 @                                                       ",
"                                                      f : A =.z.X.E S : f                                                       ",
"                                                      f y _ 1.e.| ] _ i f                                                       ",
"                                                    l q M ,.q.6.| ] _ n 0 l                                                     ",
"                                                  K % a U w.q.5.[ _ ) G b % K                                                   ",
"                                                  B > D #.6.w.5. .( _ } D 5 B                                                   ",
"                                                L j u ~ 8.r.w.5. .( ] } H u l L                                                 ",
"                                                1 , Z -.q.w.w.5.| _ ] ] T m , 1                                                 ",
"                                                3 a ^ ,.l.g.w.5.| _ _ _ _ ) s 3                                                 ",
"                                              V 8 Z :.6.w.g.w.5.| _ _ _ ] } m 9 V                                               ",
"                                            $ = p Y z.w.t.w.w.5.| _ _ _ ] ] G c - $                                             ",
"                                            + * D O.a.w.t.g.w.5.| ) _ _ _ _ ( F - +                                             ",
"                                            z i ` <.y.y.h.h.w.5.| _ _ _ _ _ } ^ w z                                             ",
"                                          4 6 M 2.z.y.w.h.w.w.5.| _ _ _ _ ] ] W n 7 4                                           ",
"                                          = a R 6.q.w.h.h.h.w.5.| ( ] _ _ _ _ ( T v =                                           ",
"                                        P 5 A &.6.w.h.h.h.h.w.5.| _ _ _ _ _ _ ] @.Z 5 P                                         ",
"                                      # 5 p Q l.g.g.w.g.h.h.w.5. ._ _ _ _ ] _ _ { G p 7 o                                       ",
"                                      e : A o.9.w.t.g.g.h.h.w.5.| ( ] _ _ _ _ _ ] E S : e                                       ",
"                                      f y _ <.y.g.g.w.g.h.h.w.5. ._ _ _ _ _ _ ] _ { _ i f                                       ",
"                                    l q M ,.t.y.w.w.g.g.h.h.w.5.| _ _ _ _ _ _ _ _ [ _ n 0 l                                     ",
"                                    % a U w.q.t.t.t.g.w.t.g.w.5. ._ _ _ _ _ _ _ _ ] ) G b % L                                   ",
"                                  B ; D #.6.w.t.g.w.g.w.d.w.w.5.| _ _ _ ] _ ] _ _ _ _ } F > B                                   ",
"                                L j u ~ 8.r.w.w.g.g.g.g.d.h.w.5. .) ] ] _ ] _ _ _ _ _ } H u l B                                 ",
"                                4 , Z -.q.w.t.g.g.w.w.t.h.h.w.5.| _ ] ` _ _ _ _ _ _ ] _ E N < 2                                 ",
"                                3 a ^ ,.w.g.h.h.h.h.h.h.h.h.w.5.| _ _ _ _ _ _ _ _ _ ] _ ) ) s 3                                 ",
"                              V 9 Z :.6.w.w.h.h.h.h.h.h.h.h.w.5.| ( _ _ ] _ ] _ ] ] _ _ [ ..m 9 C                               ",
"                              * a Y q.w.w.g.h.h.h.h.h.h.h.h.w.5.| ( ] ] _ ] _ _ _ ` _ _ ] ] G c = $                             ",
"                            + - D o.i.w.g.g.h.h.h.h.h.h.h.h.w.5. ._ _ _ _ _ _ _ ] _ _ _ ] _ ( F - +                             ",
"                            z y ` <.d.w.h.h.h.h.h.h.h.h.h.h.w.5. ._ ] _ _ _ _ _ ] _ _ ] _ _ } ^ y z                             ",
"                          4 7 M 2.z.d.w.h.h.h.h.h.h.h.h.h.h.w.5.| _ _ _ _ [ _ _ _ _ _ _ _ _ ] E n 7 4                           ",
"                          = a R 4.q.g.t.h.h.h.h.h.h.h.h.h.h.w.5. .) _ _ ] ] _ _ _ _ _ _ _ _ ] ` J v =                           ",
"                        K 5 A &.5.w.d.w.h.h.h.h.h.h.h.h.w.w.w.5.[ _ _ _ ] ` _ _ _ ] _ _ _ ] _ _ @.A 5 P                         ",
"                      O 5 p Q l.w.w.h.h.h.h.h.h.h.h.h.h.h.h.w.5.[ / _ _ _ _ ] _ _ _ _ _ _ _ _ ] { G x 5 O                       ",
"                      f : A *.q.w.y.h.d.h.h.h.h.h.h.h.h.h.h.w.6.;.X._ _ _ _ _ _ ] _ ] _ ] _ _ _ ] E S , e                       ",
"                      f t _ <.y.g.w.g.d.h.h.h.h.h.h.h.h.h.h.w.g.i.;.] _ ] _ _ _ _ [ _ _ _ _ _ _ _ { _ i f                       ",
"                    l q M 1.r.t.g.g.g.w.h.h.h.h.h.h.h.h.h.h.y.w.w.;.' ( _ _ _ _ _ _ _ _ _ _ ] ] _ [ ' n 0 l                     ",
"                    % a U i.q.y.y.h.h.h.h.h.h.h.h.h.h.h.h.d.g.g.w.,.O.] _ _ _ _ _ _ _ ] _ _ ` ] _ ] ) G b % B                   ",
"                  B > D #.6.y.h.h.h.h.h.h.h.h.h.h.h.h.h.h.y.w.w.w.g.e.O./ ] _ _ _ _ _ _ _ _ _ _ _ ] _ } F > B                   ",
"                B j u ~ 8.t.w.h.h.h.h.h.h.h.h.h.h.h.h.h.h.h.h.y.t.w.t.,.+.( ( _ _ ] _ _ _ _ _ ] _ _ _ ..H w l L                 ",
"                2 , Z -.q.y.y.h.h.h.h.h.h.h.h.h.h.h.h.h.h.h.h.h.w.t.g.w.5. .} | ` ] _ _ ] _ _ _ _ _ ] ] E N , 2                 ",
"                3 a ( ,.w.g.t.w.h.h.h.h.h.h.h.h.h.h.h.h.h.h.h.h.t.t.g.w.r.4.e.,.] / _ _ _ _ _ _ _ _ _ _ _ ( s 3                 ",
"              C 8 Z :.6.w.w.g.t.h.h.h.h.h.h.h.h.h.h.h.h.h.h.h.h.w.w.g.t.y.w.w.t.;.+.+.| ( _ _ _ _ ] _ _ ] } m 9 V               ",
"            $ = a Y z.w.w.h.w.d.h.h.h.h.h.h.h.h.h.h.h.h.h.h.h.h.g.g.g.g.w.g.w.t.t.i.s.O.' [ _ _ _ _ _ _ ] ] G c - $             ",
"            + - D o.a.w.y.d.h.h.h.h.h.h.h.h.h.h.h.h.h.h.h.h.h.h.y.w.g.w.t.w.t.g.w.w.y.3.,.3.O.( _ _ _ _ _ _ ( F - +             ",
"            z i ` <.t.w.d.h.h.h.y.d.h.h.h.h.h.h.h.h.g.w.d.d.y.d.d.h.h.h.w.t.g.g.w.y.g.w.w.w.>.X.O.| _ _ _ _ } ^ y z X           ",
"          4 6 M ,.q.t.w.h.h.h.h.w.g.h.h.h.h.h.h.h.h.t.w.h.h.w.g.h.h.h.h.g.g.w.g.w.d.g.w.g.y.r.r.u.;.' ( _ _ ] W n 7 4           ",
"          = a R 4.w.g.t.g.w.h.h.w.g.d.w.h.h.i.d.h.g.g.g.h.w.d.g.g.w.h.h.g.w.g.g.g.w.g.g.y.w.w.w.y.4.;.>.$.( ' ( T v =           ",
"        P 5 A &.e.w.t.w.g.g.t.w.g.t.w.g.g.w.w.w.w.g.w.g.w.t.w.g.g.g.g.w.t.w.g.w.g.g.t.w.t.w.w.w.y.y.w.w.1. .[  .@.Z 5 P         ",
"      # 5 p ! z.w.w.w.w.w.w.w.i.w.w.w.w.w.w.w.w.i.w.w.i.i.w.i.i.w.i.i.w.w.i.w.w.w.w.w.w.w.w.w.w.w.i.i.w.a.e.e.4...F p 5 $       ",
"      r , S o.7.>.>.>.>.>.>.>.>.>.>.>.>.>.>.>.>.>.>.>.>.>.>.>.>.>.>.>.>.>.>.>.>.>.>.>.>.>.>.>.>.>.>.>.>.>.,.5.<.@.^ F , r       ",
"      f i ) { ( ) ( ( ( ( ( ) ) ( ^ ( ( ) ) ( ( ) ( ( ( ) ( ( ( ) ( ( ( ( ( ) ) ( ^ ( ( ) ) ( ( ) ( ( ( ( ( ( ( _ { ) i f       ",
"      h & i t t t t t t t t t t t t t t t t t t t t t t t t t t t t t t t t t t t t t t t t t t t t t t t t t t t i y & h       ",
"      C k f f f f f f f f f f f f f f f f f f f f f f f f f f f f f f f f f f f f f f f f f f f f f f f f f f f f f f k C       ",
"                                                                                                                                ",
"                                                                                                                                ",
"                                                                                                                                "
};
