/* XPM */
static char *df83d2c621074c8299f90975983c624b61s876hfaxJFKjmn[] = {
/* columns rows colors chars-per-pixel */
"64 64 175 2 ",
"   c None",
".  c #1C1D06",
"X  c #060D1F",
"o  c #090C1F",
"O  c #302E0F",
"+  c #3D3705",
"@  c #2F2C1C",
"#  c #302D1B",
"$  c #312E10",
"%  c #0A132D",
"&  c #1C1E20",
"*  c #10152D",
"=  c #25233A",
"-  c #28243A",
";  c #4A3F12",
":  c #514708",
">  c #4C4312",
",  c #514415",
"<  c #564B14",
"1  c #595113",
"2  c #5C511B",
"3  c #5A5813",
"4  c #4B4128",
"5  c #554B2B",
"6  c #0A0E42",
"7  c #050B55",
"8  c #0C0D5D",
"9  c #030655",
"0  c #0E145D",
"q  c #171B5D",
"w  c #211C5F",
"e  c #25225F",
"r  c #030662",
"t  c #121E60",
"y  c #1E2464",
"u  c #1A2177",
"i  c #1F2279",
"p  c #202964",
"a  c #283761",
"s  c #2C2576",
"d  c #213377",
"f  c #473E5F",
"g  c #355163",
"h  c #5F5242",
"j  c #4A495F",
"k  c #5E5352",
"l  c #605342",
"z  c #A18B2D",
"x  c #070D84",
"c  c #040684",
"v  c #14189E",
"b  c #181C9E",
"n  c #211999",
"m  c #1D249E",
"M  c #1F309E",
"N  c #252199",
"B  c #100CA1",
"V  c #1E1DA9",
"C  c #1616A2",
"Z  c #333CBE",
"A  c #3C45B5",
"S  c #3746BE",
"D  c #3F4FB5",
"F  c #2F41B5",
"G  c #4050B5",
"H  c #1312CC",
"J  c #150EDD",
"K  c #1B17DD",
"L  c #1C1BDD",
"P  c #1B20CC",
"I  c #3C3FC0",
"U  c #1712EB",
"Y  c #1A1CEB",
"T  c #1913FF",
"R  c #1D1BFF",
"E  c #2016FF",
"W  c #241DFE",
"Q  c #262BE3",
"!  c #3836E2",
"~  c #2424FE",
"^  c #2629FF",
"/  c #2A2BFF",
"(  c #2923FF",
")  c #332EFF",
"_  c #2B31FF",
"`  c #2E39FF",
"'  c #3234FF",
"]  c #353DFE",
"[  c #3C49C0",
"{  c #3441E3",
"}  c #3A45E2",
"|  c #3B44FF",
" . c #3E4AFE",
".. c #3744FF",
"X. c #424FED",
"o. c #4856EB",
"O. c #444CFE",
"+. c #4454FF",
"@. c #4B56FF",
"#. c #4D5DFF",
"$. c #525CFF",
"%. c #5D7AED",
"&. c #5872EB",
"*. c #4F60FF",
"=. c #4967FF",
"-. c #5163FF",
";. c #536BFF",
":. c #5772FF",
">. c #5D76FF",
",. c #5E7AFF",
"<. c #6575FE",
"1. c #657FFF",
"2. c #6068FD",
"3. c #6483FF",
"4. c #6A8BFF",
"5. c #6688FF",
"6. c #7584FD",
"7. c #6E93FF",
"8. c #6F9EFF",
"9. c #7295FF",
"0. c #749FFF",
"q. c #7A91FF",
"w. c #75A0FF",
"e. c #7AA4FF",
"r. c #7DABFF",
"t. c #7EB3FC",
"y. c #899FFF",
"u. c #9BACFC",
"i. c #82B3FF",
"p. c #83B9FF",
"a. c #89BDFF",
"s. c #8EB4FE",
"d. c #93B4FD",
"f. c #A1ACFB",
"g. c #AEB2FB",
"h. c #C0BEFF",
"j. c #8DC3FF",
"k. c #8BCDFF",
"l. c #86CDFF",
"z. c #90C6FF",
"x. c #94CFFF",
"c. c #99CDF9",
"v. c #8ED0FE",
"b. c #95D2FF",
"n. c #9BD4FE",
"m. c #97D9FF",
"M. c #9ADBFF",
"N. c #A4D6FD",
"B. c #A0DFFF",
"V. c #A9D8FD",
"C. c #A8D7FD",
"Z. c #B5DEFC",
"A. c #BADDFC",
"S. c #B6C4FC",
"D. c #A0E2FF",
"F. c #ADE7FE",
"G. c #B9E4FC",
"H. c #CBDAFC",
"J. c #E0DEF9",
"K. c #C3E2FB",
"L. c #C9ECFB",
"P. c #D1E8FA",
"I. c #DBEBFA",
"U. c #D7E7FC",
"Y. c #DCF5FA",
"T. c #D6F7FB",
"R. c #CAF2FC",
"E. c #E4E4F9",
"W. c #E4ECFA",
"Q. c #EDF3F9",
"!. c #E9F6F9",
"~. c #FFFCF7",
"^. c #F4F1F9",
"/. c #FDFDF8",
"(. c #FAF5F8",
/* pixels */
"                                                                                                                                ",
"                                                                                                                                ",
"                                                                                                                                ",
"                                                              > , z                                                             ",
"                                                            k r r k                                                             ",
"                                                          @ C ~ ^ C #                                                           ",
"                                                          . m | | m .                                                           ",
"                                                        z = D ,.,.G -                                                           ",
"                                                        w K ,.b.k.,.K e                                                         ",
"                                                      : 7 ] 7.D.R.y./ 9 :                                                       ",
"                                                      2 p #.w.V./.g.=.y 2                                                       ",
"                                                    5 N Q $.w.V./.P.t.! n                                                       ",
"                                                    o P ..-.w.V.^.!.x.*.H X                                                     ",
"                                                    & [ #.$.0.V.^.U.k.3.[ &                                                     ",
"                                                  j V X.-.$.0.V.^.P.b.p.%.V f                                                   ",
"                                                O x ' +.-.$.w.V.^.P.v.M.r./ c O                                                 ",
"                                                + d @.*.*.-.0.V.^.P.v.b.i.@.u +                                                 ",
"                                                s Z ;.-.*.$.0.V.^.P.v.x.a.9.S s                                                 ",
"                                              6 Y ..*.-.*.$.w.V.^.P.b.x.x.n.:.U 6                                               ",
"                                              * } @.*.-.#.$.0.V.^.P.k.x.b.m.4.! %                                               ",
"                                            h i o.;.-.-.*.$.0.V.^.P.k.x.b.x.r.&.s h                                             ",
"                                          # C / @.-.-.-.*.$.0.V.^.P.v.k.x.x.n.i.` B                                             ",
"                                          . N  .#.-.-.-.*.$.0.V.^.P.v.x.x.x.M.z.@.v .                                           ",
"                                          - F :.-.*.-.-.*.$.0.V.^.P.v.x.x.x.b.a.4.A =                                           ",
"                                        e L  .-.-.-.-.-.*.$.w.V.^.P.v.x.x.x.x.x.x.,.K e                                         ",
"                                      : 7 ..+.-.-.-.-.-.*.$.0.V.^.P.v.x.b.x.x.b.B.9._ 7                                         ",
"                                      2 p -.-.-.-.-.-.-.$.$.0.V.^.P.k.k.x.x.x.x.b.e.-.p 2                                       ",
"                                    5 N Q *.-.-.-.-.-.-.-.$.0.V.^.P.v.x.x.x.x.x.x.j.i.{ n                                       ",
"                                    o P | $.-.-.-.-.-.-.#.$.0.V.^.P.k.x.x.x.x.x.x.M.b.-.H X                                     ",
"                                    & [ *.-.-.-.-.-.-.-.-.$.0.C.^.P.v.x.x.b.x.x.x.b.x.3.[ &                                     ",
"                                  j V X.-.-.-.-.-.-.-.-.#.$.0.C.^.P.k.x.x.x.x.x.x.x.x.p.%.V f                                   ",
"                                $ x ` +.-.-.-.-.-.-.-.-.-.$.0.C.^.P.x.x.n.x.b.x.x.x.x.D.r./ c                                   ",
"                                ; d @.-.-.-.-.-.-.-.-.-.*.$.0.V.^.P.v.x.x.b.x.x.x.x.x.n.i.@.u +                                 ",
"                                s Z =.-.-.$.-.-.-.-.-.-.*.$.0.V.^.P.v.k.x.x.x.x.x.x.n.x.a.9.S s                                 ",
"                              6 Y ..*.-.-.-.-.-.-.-.-.-.*.$.0.V.^.P.k.x.x.x.x.b.x.x.x.x.b.M.:.U 6                               ",
"                              * } @.*.-.-.-.-.-.-.-.-.-.*.$.0.V.^.P.v.x.x.x.x.x.x.x.n.x.b.n.5.! %                               ",
"                            h i o.;.-.*.-.-.-.-.-.-.-.-.*.$.0.V.^.P.k.x.b.x.x.x.b.x.x.x.x.x.r.&.s h                             ",
"                          # C / @.*.-.-.-.-.-.-.-.-.-.-.*.$.0.V.^.P.v.x.x.x.x.b.x.x.x.x.x.x.M.s.` B                             ",
"                          . M O.*.-.-.-.-.-.-.-.-.-.-.-.*.$.0.V.^.P.k.x.x.x.n.x.x.x.x.x.x.x.M.a.@.v .                           ",
"                          - A ;.-.*.-.-.-.-.-.-.-.-.-.-.*.$.0.V.^.P.x.x.x.x.x.x.x.b.x.x.x.x.x.a.5.A =                           ",
"                        e L  .-.-.*.-.-.-.-.-.-.-.-.-.-.$.@.0.V.^.P.l.b.x.x.x.x.x.x.x.x.x.x.x.x.x.,.K e                         ",
"                      : 7 ] +.-.-.-.-.-.-.-.-.-.-.-.-.#.;.4.i.V.^.W.G.b.x.x.x.x.x.b.x.x.x.x.x.n.M.9._ 9                         ",
"                      2 p -.-.-.-.-.-.-.-.-.-.-.-.-.-.$.4.x.b.n.!.~.(.A.k.x.x.x.x.x.b.x.x.n.x.x.b.e.-.p 2                       ",
"                    5 N Q -.-.-.*.-.-.-.-.-.-.-.-.-.$.9.a.x.b.V./.~.(.W.K.k.x.x.b.x.x.x.x.x.b.x.x.z.i.{ n                       ",
"                    o P ..*.-.-.-.-.-.-.-.-.-.-.*.;.4.p.m.b.a.s.S.E.~.~.Q.A.N.x.x.x.x.x.x.x.x.x.x.M.n.-.H X                     ",
"                    & [ -.$.-.-.-.-.-.-.-.-.*.-.@.7.x.x.b.n.9.#.#.f.~.~.(.(.G.v.x.x.x.x.x.x.x.x.x.b.k.5.I &                     ",
"                  j V X.-.-.-.-.-.-.-.-.-.#.@.-.7.p.m.B.k.9.#.) ^ 2.u.Z.T./.^.K.N.l.x.x.x.x.x.x.x.b.x.i.%.V f                   ",
"                O x _ @.-.-.-.-.-.-.-.-.-.<.;.1.x.n.a.j.0.#.) ~ W ^ +.7.c.E.^.!.Z.N.N.x.x.x.x.x.x.x.x.D.r._ c                   ",
"                + d @.*.*.-.-.-.-.-.$.O.<.a.z.x.B.i.>.O.' / / ~ ~ ~ _ _ O.<.d.G.!.~.^.V.l.v.z.b.x.x.x.M.r.@.u +                 ",
"                s Z ;.-.*.-.*.*.*.,.7.7.r.M.k.e.4.;.| W E ~ ~ ~ ~ ~ ~ E R ` =.7.g.H.Y.L.K.K.V.z.x.x.x.x.j.9.S s                 ",
"              6 Y | *.-.-.-.;.-.@.9.n.b.b.x.4.O.~ R ~ ~ ~ ~ ~ ~ ~ ~ ~ ~ ~ ~ R ~ O.5.c.I.~./.G.b.b.n.x.x.b.M.:.U 6               ",
"              * } #.*.*.@.@.4.p.i.b.B.e.,.#..._ ~ W ~ ~ ~ ~ ^ ~ ~ ~ ~ ~ ~ ~ ~ ~ _ ..@.1.d.G.T.!.Q.A.k.l.v.m.5.! %               ",
"            h i o.-.-.,.5.1.i.B.j.i.8.-.' T E ~ ~ ~ ~ ~ ~ ~ ~ ~ ~ ~ ~ ~ ~ ~ ~ ~ ~ T T _ =.7.S.J.Q.P.G.Z.V.x.e.&.s h             ",
"          @ C ~ @.$.*.r.n.x.M.z.1.| ^ ^ ^ ~ ~ ~ ~ ~ ~ ~ ~ ~ ^ ~ ~ ~ ~ ~ ~ ~ ~ ~ ~ ~ ~ ^ ( ~ ..3.z.L.~.~.I.b.x.t._ B #           ",
"          . b @.7.e.e.n.b.0.3.-.../ W W ~ ~ ~ ~ ~ ~ ~ ~ ~ ~ ~ ~ ~ ~ ^ ~ ~ ~ ~ ~ ~ ~ ~ ~ R ~ / ..=.6.u.G.T.I.!.H.@.v .           ",
"          = A 4.x.M.x.j.0.#./ T ~ ~ ~ ~ ~ ~ ~ ~ ~ ~ ~ ~ ~ ~ ~ ~ ~ ~ ~ ~ ~ ~ ~ ~ ~ ~ ~ ~ ~ ~ ~ ~ T ~ +.7.c.E.~.W.9.F -           ",
"        w J ,.b.B.t.>.O.' _ ^ ~ ~ ~ ~ ~ ~ ~ ~ ~ ~ ~ ~ ~ ~ ~ ~ ~ ~ ~ ~ ~ ~ ~ ~ ~ ~ ~ ~ ~ ~ ~ ~ ~ ~ ~ / _  .<.d.F.M.,.J q         ",
"      > q :.9.i.4.;.| W E W ~ ~ ~ ~ ~ ~ ~ ~ ~ ~ ~ ~ ~ ~ ~ ^ ~ ~ ^ ~ ~ ~ ~ ~ ~ ~ ~ ~ ~ ~ ~ ~ ~ ~ ~ ~ ~ E R ` ;.5.r.8.:.q ;       ",
"      , g c.0.O.~ W ~ ~ ~ ~ ~ ~ ~ ~ ~ ~ ~ ~ ~ ~ ~ ~ ~ ~ ~ ~ ~ ~ ~ ~ ~ ~ ~ ~ ~ ~ ~ ~ ~ ~ ~ ~ ~ ~ ~ ~ ~ ~ ~ ~ W ~ O.0.c.g ,       ",
"      4 % g a q 0 8 8 0 0 0 0 0 0 0 0 0 0 0 0 0 0 0 0 0 0 0 0 0 0 0 0 0 0 0 0 0 0 0 0 0 0 0 0 0 0 0 0 0 0 0 8 8 q a g % 4       ",
"        4 , , < 1 3 1 1 1 1 1 1 1 1 1 1 1 1 1 1 1 1 1 1 1 1 1 1 1 1 1 1 1 1 1 1 1 1 1 1 1 1 1 1 1 1 1 1 1 1 3 1 < , , 4         ",
"                                                                                                                                ",
"                                                                                                                                ",
"                                                                                                                                "
};
