/* XPM */
static char *b2bf838566374d80e0072aab0504a54b3luy4kcmRJkXfesT[] = {
/* columns rows colors chars-per-pixel */
"64 64 195 2 ",
"   c None",
".  c #191A0B",
"X  c #090E19",
"o  c #050B1F",
"O  c #181B15",
"+  c #13141B",
"@  c #212106",
"#  c #2E2A0A",
"$  c #393503",
"%  c #3F380C",
"&  c #363412",
"*  c #25221B",
"=  c #0A0E25",
"-  c #070D30",
";  c #050A3F",
":  c #090E30",
">  c #151B31",
",  c #1E1F31",
"<  c #0A1027",
"1  c #1E2031",
"2  c #1E2229",
"3  c #282421",
"4  c #37332C",
"5  c #4B3F1D",
"6  c #433E20",
"7  c #564B06",
"8  c #5F550D",
"9  c #494115",
"0  c #554913",
"q  c #5A5114",
"w  c #4E460D",
"e  c #60550C",
"r  c #786814",
"t  c #554830",
"y  c #454021",
"u  c #6A5C2E",
"i  c #171942",
"p  c #181A42",
"a  c #07095C",
"s  c #0B1351",
"d  c #0E145D",
"f  c #14175D",
"g  c #1B215B",
"h  c #1E295E",
"j  c #1A2C4B",
"k  c #322B4F",
"l  c #25235C",
"z  c #3C3457",
"x  c #253854",
"c  c #141664",
"v  c #141A76",
"b  c #000265",
"n  c #342E6A",
"m  c #222B77",
"M  c #2C237E",
"N  c #25367C",
"B  c #334866",
"V  c #52495D",
"C  c #615452",
"Z  c #847443",
"A  c #060783",
"S  c #091082",
"D  c #1E1F8F",
"F  c #0D119F",
"G  c #191594",
"H  c #150E93",
"J  c #1E219D",
"K  c #25218D",
"L  c #2C359F",
"P  c #1012AB",
"I  c #1A17B2",
"U  c #130AB1",
"Y  c #313CAD",
"T  c #2D34BE",
"R  c #2837AD",
"E  c #2D42AA",
"W  c #1C1AC3",
"Q  c #1E1ECE",
"!  c #0E0ED0",
"~  c #1510DE",
"^  c #2F3CC2",
"/  c #2A31C7",
"(  c #343DCF",
")  c #1D1AFE",
"_  c #1D1AF6",
"`  c #2115FF",
"'  c #211EFF",
"]  c #271FE0",
"[  c #1F21EE",
"{  c #272CE4",
"}  c #2424FE",
"|  c #272AFF",
" . c #2A2AFF",
".. c #2828F7",
"X. c #302DFD",
"o. c #2D30FE",
"O. c #2A32F3",
"+. c #3136FF",
"@. c #333BFF",
"#. c #3A3AFD",
"$. c #333CE4",
"%. c #3A45C1",
"&. c #3F4CC5",
"*. c #3F4CE1",
"=. c #3B44FE",
"-. c #3E49FF",
";. c #3646FE",
":. c #3A57FF",
">. c #4256CD",
",. c #556EDC",
"<. c #414EF6",
"1. c #404BFE",
"2. c #494EFF",
"3. c #4957F0",
"4. c #4554FF",
"5. c #4C53FF",
"6. c #4D5EFE",
"7. c #5166E7",
"8. c #4E62FE",
"9. c #5163FF",
"0. c #546CFF",
"q. c #5C6DFF",
"w. c #536FF0",
"e. c #5A73FD",
"r. c #5E7AFF",
"t. c #5677FA",
"y. c #627DFF",
"u. c #6F7EFD",
"i. c #626AFE",
"p. c #638AA2",
"a. c #79A8C4",
"s. c #5F82FF",
"d. c #6383FF",
"f. c #698BFF",
"g. c #678CFF",
"h. c #6E92FF",
"j. c #759EFF",
"k. c #7297FF",
"l. c #7687FF",
"z. c #73A1FE",
"x. c #79A3FF",
"c. c #7EABFF",
"v. c #76AAFF",
"b. c #7CB0FF",
"n. c #808FFF",
"m. c #8799FD",
"M. c #919DFC",
"N. c #80ACFF",
"B. c #82B4FF",
"V. c #85BAFF",
"C. c #89BDFF",
"Z. c #8DB3FD",
"A. c #98ABFE",
"S. c #A6BDFC",
"D. c #86C0FF",
"F. c #8DC3FF",
"G. c #8BCDFF",
"H. c #84CCFF",
"J. c #91C6FE",
"K. c #94CEFF",
"L. c #9AC7FE",
"P. c #8FD0FE",
"I. c #95D2FF",
"U. c #9BD4FE",
"Y. c #95D9FF",
"T. c #9BDBFF",
"R. c #A4D6FD",
"E. c #A8D7FD",
"W. c #A7DBFD",
"Q. c #B3DCFC",
"!. c #B4D2FE",
"~. c #B1C5FC",
"^. c #A1E2FF",
"/. c #ABE4FD",
"(. c #BFE3FC",
"). c #CCDCFB",
"_. c #D6D4FA",
"`. c #C6C5FA",
"'. c #C4E4FB",
"]. c #CCE6FB",
"[. c #C8EEFB",
"{. c #D3E9FA",
"}. c #DAEBFA",
"|. c #D5E7FA",
" X c #C9F3FC",
".X c #D9F3FB",
"XX c #EBECFA",
"oX c #E1F6FA",
"OX c #EDF6F9",
"+X c #FEFCF7",
"@X c #F2F1F9",
"#X c #FBF5F8",
"$X c #FCFDF8",
"%X c #F4F8F9",
"&X c #F1EFF9",
/* pixels */
"                                                                                                                                ",
"                                                                                                                                ",
"                                                                                                                                ",
"                                                                r 9 q                                                           ",
"                                                                l b c Z                                                         ",
"                                                              p { } ..c q                                                       ",
"                                                            r : $.1.=.s 7                                                       ",
"                                                            u l 7.y.e.m t                                                       ",
"                                                          y G O.x.I.C.-.I 4                                                     ",
"                                                          . F 4.!.[.P.0.Q X                                                     ",
"                                                          3 R l.XXoXJ.d.%.,                                                     ",
"                                                        z W w.L.#X.XJ.g.<.Q n                                                   ",
"                                                      w a ..g./.%X}.J.d.4.@.S #                                                 ",
"                                                      e g 6.z.E.@X}.J.d.6.8.N %                                                 ",
"                                                      M ^ j.C.W.@X}.J.d.9.9.( K                                                 ",
"                                                    = ! 8.I.I.E.&X}.J.d.8.9.=.[ ;                                               ",
"                                                    O T y.K.I.U.@X}.J.d.6.9.6.*.>                                               ",
"                                                  C D ,.c.J.K.E.@X}.J.d.6.9.9.3.J V                                             ",
"                                                & A  .x.T.K.G.E.@X}.J.d.6.9.9.6.+.P                                             ",
"                                                $ v 2.N.T.I.K.E.@X}.J.d.6.9.9.6.4.L @                                           ",
"                                                k Y f.C.I.K.K.E.@X}.J.d.6.9.9.9.0.%.l                                           ",
"                                              i ~ 0.I.I.K.K.K.E.&X}.J.d.6.9.9.9.9.-._ c                                         ",
"                                              - { d.T.I.K.K.G.E.@X}.J.d.8.9.9.9.9.5.;.s                                         ",
"                                            u g 7.j.K.K.K.K.K.E.@X}.J.d.8.8.9.9.8.0.8.m t                                       ",
"                                            G O.c.P.I.K.K.I.K.E.&X}.J.d.6.9.9.9.9.0.6.X.I                                       ",
"                                          O P 5.F.T.K.K.K.K.J.W.@X}.J.d.6.8.9.9.9.9.6.-./ X                                     ",
"                                          3 Y y.C.I.K.I.I.K.K.E.&X}.J.d.8.8.9.9.9.9.9.9.>.2                                     ",
"                                        z I w.F.J.I.K.K.K.I.J.E.@X}.J.d.6.9.9.9.9.9.9.9.<.Q n                                   ",
"                                        a } f.^.U.K.K.K.I.I.G.E.&X}.J.d.6.9.9.9.9.9.9.9.4.@.v                                   ",
"                                      8 g 6.x.Y.K.K.K.I.L.I.K.E.@X}.J.d.8.9.9.9.9.9.9.9.8.8.m 6                                 ",
"                                      M T z.C.K.K.I.K.K.K.K.K.E.&X}.J.d.6.9.9.9.9.9.9.9.8.8.( K                                 ",
"                                    = ! 8.Y.T.K.K.K.K.K.I.K.K.R.@X}.J.d.6.9.9.9.9.9.9.9.9.9.=.[ ;                               ",
"                                    O T y.K.I.K.K.K.K.L.K.K.K.E.@X}.J.d.6.9.9.9.9.9.9.9.9.9.8.3.>                               ",
"                                  C D ,.c.J.I.K.I.K.I.I.K.I.G.E.&X}.J.d.6.9.9.9.9.9.9.9.9.9.9.3.G V                             ",
"                                & A  .x.T.I.K.K.I.I.I.I.K.I.J.E.@X}.J.d.6.9.9.9.9.9.9.9.9.9.9.5.+.P                             ",
"                                $ v 2.c.T.K.K.K.I.J.J.I.I.I.K.E.@X}.J.d.6.9.9.9.9.9.9.9.9.9.9.9.4.L @                           ",
"                                k E f.C.I.L.K.K.I.L.K.K.I.K.K.E.@X}.J.d.8.9.9.9.9.9.9.9.9.9.9.9.0.%.l                           ",
"                              i ~ 0.K.K.I.I.K.I.I.I.I.K.K.K.K.R.&X}.J.d.6.9.9.9.9.9.9.9.9.9.9.9.9.-._ c                         ",
"                              : { d.T.I.K.K.K.I.K.K.I.I.K.K.K.W.@X}.J.d.6.8.9.9.9.9.9.9.9.9.9.9.9.6.=.s                         ",
"                            u g 7.x.J.I.K.I.K.K.K.K.I.L.K.K.G.R.@X}.J.d.6.9.9.9.9.9.9.9.9.9.9.9.8.9.8.m t                       ",
"                            G O.N.I.K.K.I.K.I.K.I.K.K.K.I.K.H.U.&X}.F.r.5.9.9.9.9.9.9.9.9.9.9.9.9.9.3.X.I                       ",
"                          . F 5.F.T.I.K.I.L.K.K.K.K.K.K.K.K.E.].#X{.J.x.y.9.6.9.9.9.9.9.9.9.9.9.9.9.9.1./ X                     ",
"                          3 Y y.C.I.K.K.I.K.K.K.K.K.K.K.K.I.{.+X#X].I.Y.B.q.9.9.9.9.9.9.9.9.9.9.9.9.9.9.>.,                     ",
"                        z W w.F.K.K.I.K.I.I.K.I.K.K.K.G.E.{.&X#X+X.XY.I.J.N.d.5.9.9.9.9.9.9.9.9.9.9.9.9.<.Q n                   ",
"                        a | f.^.I.K.K.K.L.K.K.K.K.K.K.E.].#X+X@X_.S.N.J.U.Y.c.y.9.9.9.9.9.9.9.9.9.9.9.9.4.@.S                   ",
"                      e f 6.x.U.K.K.K.K.K.I.K.K.K.K.I.{.#X#X+XXXl.4.q.B.Y.K.I.V.i.5.9.9.9.9.9.9.9.9.9.9.8.8.N 6                 ",
"                      M T z.C.I.I.I.K.K.K.K.K.K.G.E.{.+X+X X~.m.;.} #.y.c.T.^.Y.B.d.5.8.8.9.9.9.9.9.9.9.9.9.%.K                 ",
"                    = ! 8.Y.T.I.J.I.K.K.K.K.U.E.T.'.%X&X).V.t.;.} ' } =.e.B.D.C.T.N.0.i.e.9.8.9.9.9.9.9.9.8.=.[ ;               ",
"                    O T y.G.U.I.K.I.K.K.G.G.(.#X$X.XR.j.9.@.X. .} } }  .X.@.5.f.U.T.F.J.j.6.5.8.9.9.9.9.9.9.6.3.>               ",
"                  C D ,.c.J.K.K.K.J.K.Q.'.'..X}.`.A.d.4. .` } } } } } } ' `  .4.r.h.c.T.K.j.k.f.0.6.6.6.9.9.9.3.D V             ",
"                & A  .x.T.K.K.K.U.I.I.XX+X#X'.V.t.+.) ' } } } | } } } } } } } } ) o.0.N.U.K.Y.F.e.6.0.9.9.9.9.6.o.P             ",
"                $ v 5.c.T.K.H.I.|.OXOX XE.m.i.;.+. .} } } } } } } } } } } } } } } | +.1.0.d.D.^.D.V.c.y.2.6.9.6.4.L @           ",
"                k Y g.V.U.Q.Q.'.oXXX_.Z.d.;.) ) } } } } } } } } } } } } } } } } } } } ` ' -.r.c.V.I.T.j.y.d.e.9.9.E l           ",
"              p ~ 0.G.G.Q.%X+XOX/.x.9.+.}  .} } } } } } } } } } } } } } } } } } } } } ' } | } o.5.k.T.I.I.I.f.4.9.-._ c         ",
"              : { n.oXoX.X X~.M.y.:.@.} ' } } } } } } } } } } } } } } } } } } } } } } } } } ' } +.4.e.g.N.^.F.x.c.y.#.s 7       ",
"            u f 7.A.$X#X).V.t.;.) ) } } } } } } } } } } } } } }  .} } } } } } } } } } } } } } ' } ` ) #.e.Z.F.K.W.B.e.m t       ",
"          6 H O.B./.R.N.9.#.X. .} } } } } } } } } } } } } } } } } } } } } } } } ..} } } } } ..' } } } ..X.+.5.f.I.^.F.;.U       ",
"          + E d.c.z.d.4. .` ' } } } } } } } } } } } } } } } } } } } } } } } } } } } } } } } } } } } } } ' `  .4.r.z.c.g.>.=     ",
"          * p.J.e.#.) ' ..} ..' } } } } } } } } } } } ..} } } } } } } } ..} } } } } } } } } } } } } } } } } } } ) o.0.C.a.2     ",
"          + j B h f a d d d d d d d d d d d s d d d d d d d d d f d d d d d d d d d d d d d d d d d d d d d d d a d g B x o     ",
"            5 0 0 q q q q q q q q q q q q q q q q q q q q q q q q q q q q q q q q q q q q q q q q q q q q q q q q q 0 0 9       ",
"                                                                                                                                ",
"                                                                                                                                ",
"                                                                                                                                "
};
