/* XPM */
static char *_3a890c9497c4d7cb5027c1f9e3ba959rlao3sSQbNsZNWtU[] = {
/* columns rows colors chars-per-pixel */
"64 64 142 2 ",
"   c None",
".  c #BDA165",
"X  c #BDA26A",
"o  c #6F5FB7",
"O  c #6F5FB8",
"+  c #7A63A9",
"@  c #7A68A9",
"#  c #6F60B7",
"$  c #6E60B8",
"%  c #7162B4",
"&  c #070DFF",
"*  c #0410FF",
"=  c #0D18FF",
"-  c #1314FD",
";  c #121CFF",
":  c #1C1FFF",
">  c #1323FF",
",  c #1E20FF",
"<  c #1728FF",
"1  c #1B2AFF",
"2  c #2B27EF",
"3  c #2C29EF",
"4  c #342AE4",
"5  c #2D29F4",
"6  c #2A2AFA",
"7  c #2430FF",
"8  c #2C32FC",
"9  c #3335F2",
"0  c #3836F1",
"q  c #383AF7",
"w  c #3237F8",
"e  c #333EFF",
"r  c #4A3ECD",
"t  c #493DD1",
"y  c #2C41FF",
"u  c #3344FE",
"i  c #3841FF",
"p  c #344AFF",
"a  c #3D4BFC",
"s  c #3454FF",
"d  c #3D57FF",
"f  c #3F64FF",
"g  c #5042CD",
"h  c #5C55C7",
"j  c #4B42D3",
"k  c #4E49D4",
"l  c #4A41D9",
"z  c #544CD3",
"x  c #6351C7",
"c  c #404BFB",
"v  c #4253FF",
"b  c #4263FF",
"n  c #4C62FF",
"m  c #5C6EFF",
"M  c #5D7CFF",
"N  c #6675FF",
"B  c #627EFF",
"V  c #997C89",
"C  c #8575A7",
"Z  c #8374A9",
"A  c #6483FF",
"S  c #638AFF",
"D  c #6B8CFF",
"F  c #6A92FF",
"G  c #6C9BFF",
"H  c #749CFF",
"J  c #7AAAFF",
"K  c #7FB4FF",
"L  c #95808F",
"P  c #938093",
"I  c #A18986",
"U  c #95ACFC",
"Y  c #9DABFC",
"T  c #85B5FF",
"R  c #8FB3FD",
"E  c #87B9FF",
"W  c #88BBFF",
"Q  c #A2B0FC",
"!  c #ACB2FC",
"~  c #A1BDFE",
"^  c #8DC4FF",
"/  c #86CDFF",
"(  c #8DCAFF",
")  c #90C7FF",
"_  c #94CFFF",
"`  c #9BC9FE",
"'  c #8ED1FE",
"]  c #95D1FF",
"[  c #9BD4FE",
"{  c #97D9FF",
"}  c #9CDDFF",
"|  c #A6D6FD",
" . c #A8D7FD",
".. c #A4DCFD",
"X. c #AAD9FD",
"o. c #B6D5FC",
"O. c #B4DAFC",
"+. c #BADFFC",
"@. c #A2E2FE",
"#. c #B4E3FC",
"$. c #BFE0FC",
"%. c #B1EAFD",
"&. c #B8EBFC",
"*. c #C1D1FA",
"=. c #CED8FA",
"-. c #D7DBFA",
";. c #CCE6FB",
":. c #CAEFFB",
">. c #D1EBFB",
",. c #DBEBFA",
"<. c #D6F5FA",
"1. c #DDF4FA",
"2. c #E0E4F9",
"3. c #E2EEF9",
"4. c #ECEEF9",
"5. c #E6F0F9",
"6. c #ECF2F9",
"7. c #E2F8FA",
"8. c #E9FCF9",
"9. c #FEFAF7",
"0. c #FEFCF7",
"q. c #FFFDF7",
"w. c #FFFFF7",
"e. c #FBF8F7",
"r. c #F1F0F9",
"t. c #F4F6F8",
"y. c #F6F7F8",
"u. c #F7F7F8",
"i. c #F6F6F8",
"p. c #FBF7F8",
"a. c #FFF6F8",
"s. c #FFF7F8",
"d. c #FCF5F8",
"f. c #F6F8F8",
"g. c #F7F8F8",
"h. c #F7F8F8",
"j. c #F8F8F8",
"k. c #F9FFF8",
"l. c #FCFDF9",
"z. c #FDFFF8",
"x. c #FFFFF8",
"c. c #F8F8F8",
/* pixels */
"                                                                                                                                ",
"                                                                                                                                ",
"                                                                                                                                ",
"                                                            I l l I                                                             ",
"                                                          X h ; = h X                                                           ",
"                                                          5 i v n e 5                                                           ",
"                                                          - n T J b - .                                                         ",
"                                                        I 6 S @.%.F 6 I                                                         ",
"                                                      $ 8 a H @.8.! c 6 o                                                       ",
"                                                      g > D T | x.=.S > g                                                       ",
"                                                      g p _ ] | 6.1._ u g                                                       ",
"                                                    z q m _ ] | 6.x.,.N q z                                                     ",
"                                                  P & n H _ _ [ 4.x.9.U s & L                                                   ",
"                                                  V : G { _ _ | 4.9.6.#.F : L                                                   ",
"                                                V z i J } _ _ | 3.c.y.8.~ i k P                                                 ",
"                                                5 1 B T ] _ _ | 5.c.c.w.-.A > 2                                                 ",
"                                                4 d ) _ _ _ _ | 5.e.c.9.,.) s 4                                                 ",
"                                              C 0 M } ] _ _ ) | 5.e.c.c.6.:.A 9 C                                               ",
"                                            % - v H ] ] _ _ _ | 5.e.c.c.c.w.Y a - %                                             ",
"                                            + > G ( _ _ _ _ _ | 5.e.f.c.c.s.O.D ; @                                             ",
"                                            x u ^ } ] _ ] _ ( | 5.e.c.c.c.f.1.` u x                                             ",
"                                          5 8 m W ] _ _ _ _ _ | 5.e.c.c.c.f.w.,.N 7 5                                           ",
"                                          - b K ) _ _ _ _ _ _ | 5.e.c.c.d.f.9.6.R s -                                           ",
"                                        I 6 S @.] _ _ ] _ _ _ | 5.e.c.c.c.c.c.6.&.S 6 I                                         ",
"                                      $ 8 c H { ] _ _ _ _ _ _  .5.e.c.c.c.f.e.f.k.Q a 6 o                                       ",
"                                      r > D E ] _ _ _ _ _ _ ( | 5.e.f.d.c.c.f.e.w.*.S > r                                       ",
"                                      g p ] { _ _ _ _ _ _ _ _ | 5.w.c.c.f.f.f.e.c.<._ u g                                       ",
"                                    z q m ( [ _ _ _ _ ] _ _ _ | 5.e.c.c.c.e.h.h.c.f.,.N w z                                     ",
"                                  P & n H ) ] _ _ _ ] ] _ _ _ | 5.e.c.c.c.c.c.y.y.w.d.U s & P                                   ",
"                                  V : G } _ _ _ _ ] ] ` _ _ ) | 5.e.c.c.c.c.c.c.y.9.6.#.F : V                                   ",
"                                P z i J ..] _ _ _ _ ] _ ] _ _  .5.e.c.c.f.f.c.c.c.c.y.8.~ i k P                                 ",
"                                2 1 B T ] _ _ _ _ _ _ _ _ _ _  .5.e.c.c.c.d.c.c.c.y.y.w.-.A < 3                                 ",
"                                4 d ) _ _ _ _ _ _ _ _ [ _ ] _ | 5.e.c.c.c.c.c.c.c.y.e.e.,.^ s 4                                 ",
"                              C 0 M ..] _ _ _ _ _ _ _ _ _ _ ( | 5.e.c.c.c.c.c.c.c.c.h.e.6.:.A 9 C                               ",
"                            % - v H ] ] _ _ _ _ _ _ _ _ _ _ _ | 5.e.c.c.c.c.c.c.c.c.f.e.e.w.Y a - %                             ",
"                            + ; G ( _ ] _ _ [ _ _ _ _ _ ] _ ( | 5.e.c.c.c.c.c.c.c.c.f.f.e.e.O.F > @                             ",
"                            x u ^ } _ _ _ _ _ _ [ _ _ _ _ _ _ | 5.e.c.c.c.c.c.c.f.f.c.c.i.u.<.` u x                             ",
"                          5 8 m E ] _ _ _ _ _ _ _ _ _ _ _ ] _ | 5.e.c.c.c.c.c.c.d.c.c.c.i.i.w.,.N 7 5                           ",
"                          - b K ) ] _ ] [ _ _ _ _ _ _ _ _ _ _ | 5.e.c.c.c.c.c.c.f.c.h.h.i.e.w.4.R s -                           ",
"                        I 6 S @._ _ _ _ _ _ _ _ _ _ [ _ _ ] ( [ 6.e.f.c.c.c.c.c.c.f.e.e.e.e.e.6.&.S 6 L                         ",
"                      $ 8 a H { ] _ _ _ _ _ _ _ _ _ ] _ _ _ / [ 5.e.c.c.c.c.c.c.c.c.c.c.d.f.h.h.w.Q a 6 $                       ",
"                      g > D E _ _ _ _ ] _ ] _ _ _ _ _ _ _ [ O.;.6.e.c.c.c.c.c.c.f.c.c.c.c.c.h.e.w.o.S > r                       ",
"                      g p ] { ] _ _ _ _ _ _ [ _ _ _ _ _ ) ( ;.e.h.h.c.c.c.c.c.c.f.d.c.c.c.c.e.u.c.<._ u g                       ",
"                    z q m ( ] _ _ _ _ _ _ _ _ _ _ _ _ _ _ ' ;.0.e.d.c.c.c.c.c.f.f.c.c.c.c.f.f.e.y.y.,.N q z                     ",
"                  P & n H ) ] _ ] ` _ ] _ ] ] ] _ _ _ _ [ O.,.e.h.h.f.f.c.c.c.c.c.c.c.c.c.c.c.y.d.w.d.U s & P                   ",
"                  V , G .._ _ ] ] _ _ _ _ ` _ _ ] _ _ ' O.r.u.h.h.e.e.h.c.c.c.c.f.c.c.c.c.c.c.c.f.c.6.#.F , V                   ",
"                V k i J ..] _ _ ] _ _ _ _ _ _ _ ( ( ' $.,.t.e.u.h.h.h.h.c.c.c.f.c.c.c.c.f.c.c.c.f.e.y.8.~ i z P                 ",
"                2 1 B T ] ] _ _ _ _ _ _ _ _ _ ] | [ ..3.e.h.u.h.h.e.h.e.c.c.d.f.c.c.c.c.c.c.c.c.c.y.f.w.-.A < 3                 ",
"                4 d ) _ _ _ _ _ _ _ _ ] _ _ / [ ,.r.5.u.e.u.u.h.c.c.c.c.d.c.c.c.c.c.c.c.f.f.c.c.c.y.e.e.,.^ s 4                 ",
"              C 0 M } ] _ _ _ _ _ _ _ ( [ +.+.;.i.9.e.e.u.h.h.e.c.c.c.c.f.c.c.c.c.c.c.c.c.d.c.c.c.c.h.e.6.:.A 9 C               ",
"            $ - v H ] ] _ _ _ _ _ _ [ ] +.i.a.u.u.e.u.u.h.h.h.e.c.c.f.c.f.c.c.c.c.c.c.c.c.f.c.c.c.c.c.e.e.w.Y s - %             ",
"            + ; G ( _ _ _ _ _ _ / O.3.,.5.u.i.a.u.u.e.i.e.h.h.h.c.c.c.c.c.c.f.c.f.c.c.c.c.c.c.c.c.f.f.y.e.a.O.F > @             ",
"            x u ^ } _ _ _ ] | X.X.;.e.e.e.c.y.c.h.h.h.h.e.h.e.u.c.c.f.c.e.h.h.y.c.c.c.c.c.c.f.c.c.c.f.f.e.y.<.` i x X           ",
"          5 8 m W ] ] ] ( ' ;.s.t.t.i.e.e.c.c.c.h.e.h.h.e.h.h.h.c.c.c.c.h.h.h.e.c.c.c.c.c.c.c.c.c.c.e.h.e.y.w.2.N 7 5           ",
"          - b K ^ ( ( $.;.;.4.f.e.e.u.y.f.f.f.c.h.h.h.u.u.e.h.h.h.e.c.c.h.e.h.h.f.e.c.c.f.c.f.f.c.e.f.h.y.h.e.r.R s -           ",
"        I 6 S @.| } ..5.e.c.c.f.h.e.h.e.h.e.f.d.e.h.e.e.h.h.h.e.h.h.u.e.h.u.e.e.h.h.u.e.e.c.c.d.i.e.h.e.u.e.e.6.&.S 6 I         ",
"      $ 6 a H ..4.r.6.a.e.a.e.e.s.s.s.s.9.s.9.9.9.s.9.9.s.9.s.s.e.e.a.e.e.a.e.e.s.s.s.s.9.s.9.9.s.s.9.9.9.s.9.9.w.! a 6 %       ",
"      t 1 G ^ ..<.5.,.>.>.>.>.>.>.>.>.>.>.>.>.;.>.>.>.;.>.>.>.>.>.>.>.>.>.>.>.>.>.>.>.>.>.>.>.;.>.>.>.;.>.>.>.>.1.o.F < t       ",
"      g p _ { _ ( ( ( ( ^ ( ( ( ( ( ( ( ( ( ( ( ( ( ( ( ( ( ( ( ) ( ( ( ( ( ) ( ( ( ( ( ( ( ( ( ( ( ( ( ( ( ( ( ( ] ( u g       ",
"      j * u u y y y y y y y y y y y y y y y e y y e y y y e y y y y y y y y y y y y y y y y e y y y y y y e y y y p p * j       ",
"      C l g g g g g g g g g g g g g g g g g g g g g g g g g g g g g g g g g g g g g g g g g g g g g g g g g g g g g g l Z       ",
"                                                                                                                                ",
"                                                                                                                                ",
"                                                                                                                                "
};
