/* XPM */
static char *result[] = {
/* columns rows colors chars-per-pixel */
"64 64 230 2 ",
"   c #4AAD4A",
".  c #031921",
"X  c #071827",
"o  c #071A3E",
"O  c #0B282C",
"+  c #01253B",
"@  c #00283D",
"#  c #0C1D47",
"$  c #0A2446",
"%  c #012B41",
"&  c #052848",
"*  c #05314A",
"=  c #0D2B56",
"-  c #0C2F59",
";  c #003A55",
":  c #003958",
">  c #13395B",
",  c #0E316B",
"<  c #11356D",
"1  c #11396F",
"2  c #194C5F",
"3  c #004264",
"4  c #04436B",
"5  c #164E6E",
"6  c #004D73",
"7  c #04477D",
"8  c #0C3B82",
"9  c #0E3F8F",
"0  c #143586",
"q  c #0F3F90",
"w  c #143791",
"e  c #133B92",
"r  c #163D98",
"t  c #193E9C",
"y  c #094E8C",
"u  c #154487",
"i  c #025685",
"p  c #005985",
"a  c #005D8D",
"s  c #1A518A",
"d  c #0D4392",
"f  c #074E93",
"g  c #084E93",
"h  c #17479A",
"j  c #1A4B9C",
"k  c #055594",
"l  c #085295",
"z  c #035E97",
"x  c #0C579D",
"c  c #035E99",
"v  c #18539B",
"b  c #4AAD4A",
"n  c #4AAD4A",
"m  c #4AAD4A",
"M  c #256D91",
"N  c #1A43A3",
"B  c #194CA7",
"V  c #095BA0",
"C  c #1456A7",
"Z  c #1C55B2",
"A  c #1C5BB8",
"S  c #205CB4",
"D  c #0564A2",
"F  c #0964A6",
"G  c #046DA1",
"H  c #0C64AA",
"J  c #0C68AC",
"K  c #1963AF",
"L  c #0772A4",
"P  c #0872A4",
"I  c #0C7CAD",
"U  c #1075AE",
"Y  c #0D62B4",
"T  c #1265B2",
"R  c #1D62B3",
"E  c #1763BC",
"W  c #176CBA",
"Q  c #186ABC",
"!  c #1878B7",
"~  c #2665B4",
"^  c #2169B5",
"/  c #2770B1",
"(  c #1C64C2",
")  c #1B67C6",
"_  c #1D73CC",
"`  c #1E77D5",
"'  c #2069C7",
"]  c #206CCB",
"[  c #2073C5",
"{  c #217BC7",
"}  c #2173CC",
"|  c #367AC8",
" . c #3E7BCE",
".. c #2578D1",
"X. c #227CD5",
"o. c #1384B5",
"O. c #1389BB",
"+. c #188BBA",
"@. c #1990BF",
"#. c #308BB3",
"$. c #1D80CE",
"%. c #2B84CC",
"&. c #328DCD",
"*. c #2597C4",
"=. c #2896C6",
"-. c #229ECC",
";. c #389ACC",
":. c #2B8AD4",
">. c #2384DC",
",. c #2886D8",
"<. c #3588D6",
"1. c #3399DE",
"2. c #2AA3CF",
"3. c #3BA7D0",
"4. c #36B4DF",
"5. c #3BB1D9",
"6. c #288AE1",
"7. c #2691E3",
"8. c #2997E7",
"9. c #3598E5",
"0. c #2DA0EB",
"q. c #34A2E2",
"w. c #39A8E7",
"e. c #3AAFEA",
"r. c #3BB6E6",
"t. c #29A6F0",
"y. c #2CA6F0",
"u. c #32A7F0",
"i. c #3FA7F0",
"p. c #34ABF0",
"a. c #3AAAF0",
"s. c #2DB2F5",
"d. c #34B5F6",
"f. c #3AB6F4",
"g. c #36BEF6",
"h. c #3BBBF2",
"j. c #5599D1",
"k. c #6A9DDA",
"l. c #749DDA",
"z. c #43AFD8",
"x. c #43B3DA",
"c. c #45A6EB",
"v. c #5BAAE8",
"b. c #4BB3EC",
"n. c #43AAF0",
"m. c #4AB6F3",
"M. c #43BBF5",
"N. c #55B3F1",
"B. c #54BCF5",
"V. c #5BBFF5",
"C. c #60B8E0",
"Z. c #6CBDF1",
"A. c #3CC2F7",
"S. c #3EC9F7",
"D. c #3BC2F8",
"F. c #56C5E9",
"G. c #55C8EC",
"H. c #43C3F4",
"J. c #44CCF7",
"K. c #4BCEF7",
"L. c #43CEF8",
"P. c #55C7F5",
"I. c #58C4F6",
"U. c #49D0F7",
"Y. c #46D0F8",
"T. c #49D1F8",
"R. c #5CD3F7",
"E. c #53D3F8",
"W. c #58D4F8",
"Q. c #63C7E6",
"!. c #6CC4F5",
"~. c #64C9F7",
"^. c #75C4F6",
"/. c #74CFF7",
"(. c #63D3F7",
"). c #60D7F8",
"_. c #66D9F9",
"`. c #6CDAF8",
"'. c #7BD4F5",
"]. c #73DCF9",
"[. c #7AD9F8",
"{. c #82BDE3",
"}. c #9CC2E7",
"|. c #86D6EF",
" X c #85CBF4",
".X c #8BD5F6",
"XX c #83DBF5",
"oX c #88D8F5",
"OX c #83DEF8",
"+X c #9CD7F7",
"@X c #96DEF7",
"#X c #ACC4E7",
"$X c #B1C5E7",
"%X c #A2D4F5",
"&X c #A3DBF4",
"*X c #ABDAF7",
"=X c #B3DCF6",
"-X c #89E1F8",
";X c #8BE1F8",
":X c #9BE3F7",
">X c #97E5F9",
",X c #9BE5F9",
"<X c #A5E3F6",
"1X c #ADE4F7",
"2X c #A7E6F8",
"3X c #ACE8F8",
"4X c #ADEAF8",
"5X c #B6E8F7",
"6X c #BBECF8",
"7X c #BFF1FD",
"8X c #C5E4F5",
"9X c #C8E8F6",
"0X c #C3EEF8",
"qX c #D1ECF7",
"wX c #DBE9F5",
"eX c #C9F1F9",
"rX c #D4F1F8",
"tX c #DDF3F9",
"yX c #DBF4F9",
"uX c #E0E5F1",
"iX c #E2EDF7",
"pX c #E4F2F7",
"aX c #ECF3F7",
"sX c #E3F4F8",
"dX c #ECF5F8",
"fX c #F5F7F7",
"gX c #F9F8F7",
"hX c #F3F7F8",
"jX c #F3F9F9",
"kX c #FAFAF9",
/* pixels */
"n n n n n n n n n n n n n n n n n n n n n n n n n n n b b a b b b b b n n n n n n n n n n n n n n n n n n n n n n n n n n n n n ",
"n n n n n n n n n n n n m n n n n n n n n n n n b n n n n n n n n n n n n n n n n n n n n n n n n n n n n n n n n n n n n n n n ",
"n n n n n n n n n n n n n n n n n n n n n n n n n n n m m L L m m m n n n n n n n n n n n n n n n n n n n n n n n n n n n n n n ",
"n n n n n n n n n n n n n n n n n n n n n n b b b b m P o.o.o.o.P m n n b b n n n n n n n n n n n n n n n n n n n n n m n n n n ",
"n n n n n n n n n n n n n n n n n n n n m b b b b b m o.+.*.-.@.I m n b b b n n n n n n n n n n n n n n n n n n n n m n n n n n ",
"n n n n n n n n n n n n n n n n n n n b b m b b b b P +.2.4.5.2.+.P n b b n n n n n n n n n n n n n m n n n n n n n n n n n n n ",
"n n n n n n n n n n n n n n n n n n n n b n n m m P o.;.x.G.F.5.=.U m b n n b n n b n n n n n n n n n n n n n n n n n n n n n n ",
"n n n n n n n n n n n n n n n n n n b b b b m m I o.@.x.Q.[.'.C.;./ H m b b m b n b n n n n n n n n n n n n n n n n n n n n n n ",
"n n n n n n n n n n n n n n n n n b n b b b m o.O.2.5.Q.|.&X&X{.j./ W H D n b b n n n n n n n n n n n n n n n n n n n n n n n n ",
"n n n n n n n n n n n n n n n n n n n b b b L +.-.4.G.XX4XwX8X}.k.| Q Y D D m b n b n n n n n n n n n n n n n n n n n n n n n n ",
"n n n n n n n n n n n n n n n n b n b b m L o.#.5.G.].,XeXaXuX$Xl. .( Y J D D m n n n n b n n n n n n n n n n n n n n n n n n n ",
"n n n n n n n n n m n n n b n b b b m m o.o.@.z.F.[.,X7XsXdXuX$Xl. .) E Y J F D m m n n n n n n n n n n n n n n n n n n n n n n ",
"n n n n n n n n n n n n n n b b b n G o.O.-.5.Q.|.<X0XtXjXjXuX#Xl. .) ( E E J J F m n n b n n b n n n n n n n n n n n n n n n n ",
"n n n n n n n n n n n n n n n b a n P o.-.4.F.[.<X9XsXjXkXfXwX#Xk. .) ) E ) ( Y H n n n b n n n n n n n n n n m n n n n n m n n ",
"n n n n n n n n n n n b n n n m n P o.@.5.G.].,X0XsXfXkXfXpX8X#Xk. ._ ) ) ) ) A H x c z b b n n n n n n n n n n n n n n n n n n ",
"n n n n n n n n n n n n b n m L o.+.=.z.Q.[.,X6XyXjXjXdXrX8X&XZ.v.<.X._ ] ) ( A C x k z z n n n n n n n n n n n n n n n n n n n ",
"n n n n n n n n n n n b b n G o.+.2.5.Q.|.3XeXtXhXjXdXyX5X:X'.V.c.8.6.` ` ' ( Z B h d g k b n n n n n n n n n n n n n n n n n n ",
"n n n n n n n n n n b b b n L o.-.4.G.'.2XqXaXjXkXfXsX0X:X].W.M.a.0.7.6...] ( Z h h e d l b n n n n n n n n n n n n n n n n n n ",
"n n n n n n n n n n n b b n P O.-.r.G.'.&XqXwXaXaXwXeX2XOXR.J.A.d.y.y.7.X...' A N r w d l z n n n n n n n n n n n n n n n n n n ",
"n n n n n n n n n n n b b n P ! -.q.b.Z. X%X=X5X5X5X2X@X`.E.S.D.g.d.u.0.8.X.] A N t w 9 l z b n m n n n m n n n n n n n n n n n ",
"n n n n n n n n n n n b b n F U $.:.9.c.v.Z. X X.XXX[.`.).T.J.J.D.g.f.a.y.7.>.^ B t w w g z b n n n n n n n n n n n n n n n n n ",
"n n n n n m n n n n b n b n m H W } | 6.9.c.n.B.P.R.R.W.E.K.L.Y.L.L.H.g.p.0.,._ Z t w e g z b m n n n n n n n n n n n n n m n n ",
"n n n n n n n n n n n n n n D H K E ) X.6.8.y.d.A.J.K.T.T.Y.Y.T.T.Y.J.D.d.y.7.} Z t w e l z n n m n n n n n n n n n n n n n n n ",
"n n n n n n n n n n n b n n n V C C A ) ` 7.t.s.g.S.L.T.L.Y.Y.T.T.L.J.D.d.y.7.} Z t w d g b n n n n n n n n n n n n n n n n n n ",
"n n n n n n n n n n n n n n b x h B B ( ` 7.t.s.g.H.L.Y.Y.Y.Y.T.T.Y.H.D.d.y.8.} Z t w q g z n n n n m n n n n n n n m n n n n n ",
"n n n n n n n n n n n n n n b l d r N A ..7.t.s.g.J.Y.Y.T.T.Y.T.T.T.J.D.d.y.7.} Z t w q l z n n m n n n n n n n n n n n n n n n ",
"n n n n n n n n n n n n n b z g q w r Z } 7.y.d.g.J.Y.T.T.T.T.T.E.E.K.H.f.y.7.} Z t w 9 g z b n b m n n n n n n n n n n n n n n ",
"n n n n n n n n n n n n n b z g 9 w t Z } 7.y.d.H.J.L.T.T.T.T.W.R._.(.P.M.u.7._ Z t w 9 g z b n m b n n n n n n n n n n n n n n ",
"n n n n n n n n n n n m n n z g 9 w t Z } ,.y.d.D.J.Y.Y.Y.Y.E.R.].[.[.~.m.u.7.} Z t w 9 y b n n n n n n n n n n m n n n n n n n ",
"n n n n n n n n n n n n n n z g 9 w t Z } 7.y.d.g.J.Y.T.Y.K.E.`.OX;X.X/.B.a.7._ Z h w 9 l b n n n n n n n n n n n n n n n n n n ",
"n m n n n n n n n n n n n n b l 9 w t Z } 7.y.d.g.L.L.Y.L.T.E.`.-X>X@X'.V.a.7.` Z t w d y b n n n n n n n n n n n n n n n n n n ",
"n n n n n n n n n n n m m n z y 9 w t Z } 7.y.d.M.L.L.L.L.T.E.`.;X,X@X'.V.a.7._ Z t w e g z n n n n n n n n n n n n n n n n n n ",
"n n n n n n n n n n n m n b z g e w t Z ..7.y.d.A.S.Y.Y.S.Y.E.`.-X>X@X'.V.a.6._ Z t w q f c n n n n n n n n n n n n n n n n m n ",
"n n n n n n n n n n n n n b z g d w t Z _ 7.y.d.A.J.Y.Y.Y.T.E.].;X:X@X'.V.a.7._ Z t w q f c b n n n n n n n n n n n n n n n n n ",
"n n n n n n n n n n n n n n z l 9 w t Z } 7.y.f.H.K.E.E.E.E._.[.>X2X:X.XV.a.7._ Z h w 9 f z n n n n n n n n n n n n n n n n n n ",
"n n n n n n n n n n n n n n z g 9 w t Z } 7.y.M.P.(.`.`._.`.].;X2X5X1X.XZ.i.7._ Z r w q f z n n n n n n n n n n n n n n n n n n ",
"n n n m n n n n n n n n n n z g 9 w t Z } 7.u.m.~.[.XX-X-X[.;X2X0XeX8X+X!.i.8._ Z r w q l z n n n n n n n n n n n n n n n n n n ",
"n n n n m n n n n n n m n n z l 9 w t Z _ 7.a.B./.XX>X,X,X,X3X6XrXtXqX*X!.n.7._ Z t w q g b n n m n n n n n n n n n n n n n n n ",
"n n n n n n n n n n n n n b c g q w t Z _ 7.a.B.'.:X2X4X4X5X6XeXsXhXwX*X^.n.7._ Z r w 9 g z b n n n n n n n m n n n n n n n n n ",
"n n n n n n n n n n n n n n z g q e N Z _ 7.a.V.'.:X4X6X0X0XrXsXhXhXiX=X^.i.7._ Z t w 9 l z n n n n n n n n n n n n n n n n n n ",
"n n n n n n n n n n n n n n c f q r t Z _ 7.a.I.'.:X5XeXeXrXsXjXkXkXiX=X^.n.7._ Z r w q g z b n m n n n n m n n m n n n n n n n ",
"n n n n n n n n n n n n n n c y q w t Z _ 7.a.B./.@X4XeXrXpXdXkXkXkXwX*X^.n.7._ Z r w q g z n n n n n n n n n n n n n n n n n n ",
"n n n n n n n n n n n n m n b y 8 0 w B ( 6.u.N.!..X&X6XrXdXfXgXhXpX9X+X!.m.8._ Z t w d g z n n n n n n n n n n n n n n n n n n ",
"n n n n n n n n n n n n m n a 7 , - , 0 R X.8.i.B.!..X*XwXdXfXdXyX6X2XoX~.M.0.%.S t w 9 l z b n m n n n n n n n n n n n n n n n ",
"n n n n n n n n n n n m m b a 6 & o # < v [ ,.9.n.N.!.+X8XaXdXyX5X@X[.`.E.H.r.%.~ h w 9 f z n n b m b m n n n n n n n n n n n n ",
"n n n n m n n n n n n m m b p 3 +     = u A } 6.8.0.N. X=XiXpXeX,X].R.E.K.K.b.&.~ N e q f z n n m b m b n n n n n n n n n n n n ",
"n n n n n n n n n n n m m n 6 3 $     $ 1 v A _ >.7.c.Z.%XqXqX4XOX).K.L.L.H.e.&.~ h e d f z n n n m b m n n n n n n n n n n n n ",
"n n n n n n n n n n n m n n p 6 3 % @ $ - 1 u C ) X.9.N. X&X2X>X].E.L.D.f.e.1.%.~ v d g k b b n b b m b n n n n n n n n n m n n ",
"n n n n m b n n m b b m m b b 6 6 3 : ; $ $ - 1 C _ 6.c.Z.'.[.].R.E.J.h.w.9.<.! K v k a a b n n m b m b n m b b n m m b m b m b ",
"n n n n n n m b n n m b b n b m a p 6 : + . X = u R | 9.b.G.R.W.E.K.H.e.1.X.[ Q J b b b b b n n b m b m b m n m b b b m b m b m ",
"m n n n n n n n m m b m n n m m m b p 3 @ . . $ 1 v ^ :.5.M.K.U.Y.J.r.q.:.} E T H m n n b n n n n m m b n n b m m b m b m b m b ",
"n n n n n n n n b n n b n n n m G n z 6 ; % @ & = 1 s / 2.r.J.J.A.e.q.:.{ Q T H D m n n n n n n b b b m b m n n b m b m b m b m ",
"n n n n n n n n n n n b n n n m m m b i 6 3 ; * & $ > M #.r.J.A.e.1.:.{ ! T F D m n n n n n n n n n m b n m m b b m n b m b n m ",
"n n n n n n n n n n n n b n n n n m b b a i 6 ; +   O 5 #.x.M.M.9.%._ W T F m b b m n n n n n n b m n n n b n b n n n m b m n b ",
"n n n n n n n n n n n n n n n n m b b m m n p 3 @   O 2 #.3.b.q.:._ Q T H m n b n b n n n n n n n n n n m n m m n n n n n n n n ",
"n n n n n n n n n n n n n n n n b b m m G m b 6 ; @ % 2 5 #.=.%.[ Q T H D m b b n n n n n n n n n n n n b n b n b m n b m n b m ",
"n n n n n n m n n n n n n n n b n n n m m m b 6 6 3 4 5 s ~ ~ ^ K F H m m b n n n n n n n n n n n n n n n n m n n n b n n b n n ",
"n n n n n n n n n n n n n n n n b n n n n n b z a p k y h h j v C m m m c n b n n n n n n n n n n n n n n n n n m n m n n m m n ",
"n n n n n n n n n n n n n n n n n n n n n n n n b b c g y e q d k z b n n n n n n n n n n n n n n n n n n n n n b n m n n b b n ",
"n n n n n n n n n n n n n n n n n n n n b n n m m m n z l d d f k b b m n n n n n n n n n n n n n n n n n n n n n n b n n m n n ",
"n n n n n n n n n n n n n n n n n n n b n n n n n m m c l l l k z b n n n b m b n n n n n n n n n n n n n n n n n n n n n n n n ",
"n n n n n n n n n n n n n n n n n n n n n n n n n n n b b b b z b b n b n n m n n n n n m n n n n n n n n n n n n n n n m n n n ",
"n n n n n n n n n n n n n n n n n n n n n n n n n n n n n n n b n n b n n n b n n n n n n n n n n n n n n n n n n n n n n n n n ",
"n n n n n n n n n n n n n n n n n n n n n n b n n n n n m n n n n n m n b b m n n n n n n n n n n n n n n n n n n n n n n n n n "
};
