/* XPM */
static char *ec0b139a84b5448abd1695223e415deeiEh3hTG7LYM42wup[] = {
/* columns rows colors chars-per-pixel */
"16 16 91 1 ",
"  c #49AC49",
". c #47AF47",
"X c #3E983F",
"o c #367536",
"O c #2E5B33",
"+ c #3A693A",
"@ c #366337",
"# c #2F5933",
"$ c #33843A",
"% c #394533",
"& c #544035",
"* c #7A5D3F",
"= c #886543",
"- c #896745",
"; c #8D6A46",
": c #3B893C",
"> c #3C4834",
", c #8A6342",
"< c #8D6D43",
"1 c #846840",
"2 c #685237",
"3 c #6E573A",
"4 c #816040",
"5 c #387F39",
"6 c #4D4134",
"7 c #8F6E42",
"8 c #483A30",
"9 c #312929",
"0 c #352C29",
"q c #4C3B2B",
"w c #342B2A",
"e c #388839",
"r c #314031",
"t c #715138",
"y c #382E2B",
"u c #4A3B2C",
"i c #52402E",
"p c #6F5436",
"a c #3D933E",
"s c #4A3F34",
"d c #785C3A",
"f c #2E2B2A",
"g c #463A2F",
"h c #4E3F30",
"j c #4E3F31",
"k c #41A842",
"l c #365A34",
"z c #714F38",
"x c #33322A",
"c c #3A322B",
"v c #5C4231",
"b c #4F3F2F",
"n c #544332",
"m c #367C37",
"M c #4E5436",
"N c #6F4E36",
"B c #393028",
"V c #2D2B2A",
"C c #3C332B",
"Z c #3E342B",
"A c #3D342A",
"S c #377E38",
"D c #354332",
"F c #745138",
"G c #3C322A",
"H c #282828",
"J c #2C2A28",
"K c #3D943E",
"L c #7A5C3A",
"P c #2E2F29",
"I c #282829",
"U c #355A34",
"Y c #3B322A",
"T c #377D38",
"R c #504936",
"E c #6C4E36",
"W c #2F3028",
"Q c #272828",
"! c #2B2A28",
"~ c #377D39",
"^ c #513F35",
"/ c #8E7042",
"( c #494030",
") c #312A2A",
"_ c #3C3229",
"` c #46372A",
"' c #36332A",
"] c #3C4833",
"[ c #8D6E43",
"{ c #826040",
"} c white",
/* pixels */
" .XoO+@##@+OoX. ",
".$%&*=-;;-=*&%$.",
":>,<12344321<,>:",
"567890qwwq098765",
"ertyuipiipiuytre",
"asdfghjjjjhgfdsa",
"klzxcvbnnbvcxzlk",
"mMNBVCZAAZCVBNMm",
"SDFGHJJJJJJHGFDS",
"KsLPHIIIIIIHPLsK",
"kUzYHIIIIIIHYzUk",
"TREWQH!HH!HQWERT",
"~^/()_`''`_)(/^~",
":],[123{{321[,]:",
".$%&*=-;;-=*&%$.",
" .XoO+@##@+OoX. "
};
