/* XPM */
static char *result[] = {
/* columns rows colors chars-per-pixel */
"64 64 78 1 ",
"  c #2B1F29",
". c #1F362A",
"X c #272728",
"o c #272828",
"O c #2A2929",
"+ c #36272B",
"@ c #38262C",
"# c #312D29",
"$ c #3A2D2D",
"% c #21362B",
"& c #2A352C",
"* c #2B3D2C",
"= c #36322C",
"- c #3A322B",
"; c #363F2E",
": c #2F3F30",
"> c #483727",
", c #413428",
"< c #483728",
"1 c #46392C",
"2 c #4B3A2A",
"3 c #523E2C",
"4 c #402E30",
"5 c #423030",
"6 c #473B30",
"7 c #4D3E31",
"8 c #2C412D",
"9 c #2E4E2F",
"0 c #2E502F",
"q c #2F4030",
"w c #2F4A30",
"e c #3D4631",
"r c #305130",
"t c #345E32",
"y c #346333",
"u c #336D34",
"i c #357335",
"p c #377D37",
"a c #377538",
"s c #377F38",
"d c #387D38",
"f c #55422E",
"g c #58442F",
"h c #4E4332",
"j c #554332",
"k c #5A4633",
"l c #544837",
"z c #5C4935",
"x c #634C35",
"c c #6A4E36",
"v c #644F38",
"b c #655136",
"n c #655039",
"m c #6B5339",
"M c #62583C",
"N c #6D593E",
"B c #70573B",
"V c #745B3D",
"C c #735F41",
"Z c #7B6341",
"A c #7F6843",
"S c #816743",
"D c #856C46",
"F c #8A6E47",
"G c #886F48",
"H c #8D744A",
"J c #917647",
"K c #398439",
"L c #3C8C3C",
"P c #3D923D",
"I c #418D42",
"U c #409640",
"Y c #429C42",
"T c #46A546",
"R c #46AC46",
"E c #4AAD4A",
"W c #4BB14B",
"Q c #4BB94B",
/* pixels */
"EEEEEEEEEEETLKKKKKKPRQEWQTPKKKKKKKKKKPRQWWQTPKKKKKKLTEEEEEEEEEEE",
"EEEEEEEETTTYLKKpiuuaLIIIIIauuuiuuiuuiaKIIIILauuisKKLYTTTEEEEEEEE",
"EEEEEEETULPLKKLi0&*8::::qq&&:&:&&&&:&::qq:qq8*&9iLKKLLPUTEEEEETW",
"EEEETTTYLaiuiuut;@=$$44444-554$$--55$54$444$@=@etiuuuisLYTTTEEEE",
"EEETULLLKi9&***;hkkzNZCCZCCCCCCCCCCCCCCCZCCNvkkh;***&9iKLLLUTEEE",
"EEEYLKKKit;@-$+1nVVZGJHHHHHHHHHHHHHHHHHHJHHDZVCb1@=$@;tasKKLTEEE",
"EEETLKKir=hkkklvZDDGGHHHHHHHHHHHHHHHHHHHHHHHDDDVnkkkkj=riKKLTEET",
"EETYLsit;5vVVVBZGHHHHGAADDHHHHHHHHHHHHGDAADHHHHDZBBCVv5=tisLYTEW",
"ETULKaw=hvZDDDSFFJJHHAbzmZDHHHHHHHHHHDZmzbSHJJJHDDDDDZvh=0iLLPTE",
"TYLsit;,cCDHHHHSDDDDDVg2xBADSDDDDDDSDSBx1fVDDFADDDHHHDZv4;tidLYT",
"LLKir;jvZFHHHGZBBBVBVbf2xmBVVVBBBVCCBBmx3fmVBBBBBZDHHHDAvj;wiKLL",
"KKKu&@kVFHHHGZnxxxxxxg2fgxzxxxxxxxkxxxxz22zxxxxxxmZDHHHDCk@&uKKK",
"KKKu*$kVDHHDZng33333332233333333333333f2222f2f2f3gmZDHHDVk$*uKKK",
"LLKu*#kVDHDZmg2,,,,,,,,,>>>>,,,,,4->>>>>>,,,,,,,->gmZDHDVk-*uLLL",
"TYLu&+zVDDZmg>$#O###O##=,>>,=OO###O#>>>,####O##O#->gmZGGVk@&uLYT",
"TYLi9ehmSDBxf-#o#O#O##O=23f2###+#O#$>3f2-#O###O#XO,fvBDSnjqwiLYT",
"PLKKayqhZDVx3-#O,,>,,,,2kxxk2,,,,,-2kxvk2-,,,,,-O#,3xVDZh;tppKLL",
"KKKspy%-NAVxf,##>22>>>2gvmmvg32<>23gvmmcg322>232##,3xVSN-.ypKKKK",
"KKKa0&O-zBBx3-##fz3>>3zbcmmnxk3>>3kccmmnvg2<>3zf##-fbmVz-o&riKKp",
"LLKu& =6bBbg3,#-zbg33gcmBmmmmcg33gcmmmmmmcg33gvz-O,3gbBb6=X&iKLL",
"TYLu*+hbZZkf2,#-zmvvxvmmmnmmmncvxvmmnmmmmmcxvvmk-#,23gZZn7#&uLYT",
"WTLu*-kVDAx2>###hzkzkzkkkzzkkkkkkzkkzkkzkzzkzkkj#O->2xAFCk=*uLTW",
"ETLu&@kCFDBg-#X#$=--==-===-==-===--=--======--==#O#-gBAFVx@&uLTE",
"ETUdw;jnADVz-XXXoOOO##$=$O#O##====#OO#O#==#+#OXOXXO-zVFAn7;wdYTE",
"EETYKt;7ZGCk2-#Xo#=-,<jf1,,-,<jkkj<-,,,<jj1,--OOX#-2xVDZj;tsUTEW",
"EETYPu.$CZVv3,#Xo#>ffgvvg3333gvmmvg3333kxvgf32#XX#,3xVSN$%iPYTEE",
"ETULLu*$xVmxf-#oX=gcbbmmxvcxvvmmmmcvxvvvmmcxck=XX#,3xmVv@*uKLUTE",
"TYLsit;5zcck3-#oX=fzkkkkzkzzzzzkkzzzkzkkzzkzx2=XOO,3kvnz6;tasLYT",
"LLKir;jzvvg32,#oXO=-===---=-==-=====-======-=-OoO#,>3gxczjqwiKLP",
"KKKu&@cVCcf>>,+oOOoOO+######O##O###O###O###OOoooX#,><3nVCv@&uKKK",
"KKKuO$CJDCj>>,#oXOX#-,,,-,,,,,,,,,,,-,,,,,>-+ooXX#>><gVFJC$OuKKK",
"KKKiweMDFSx22,#XXoOO->,,,,,,>,,,,<,,><,,,>,-Ooooo#,22xSFDMewiKKK",
"KKKspyelAFBg2,#XOooOO#+&O#$O####+O$#&$##&@O$ooOOO$$7gBFAkeyssKKK",
"KKKKpt.=NSVx3,#XoOooOoooOOOooooOoOooXXooOoooooOOOO57vVSB#.tssKKK",
"KKKaw&o=xBBx3>#XOOOoOOOoOOooooOOoooooooooOoooOOoo#5fxmBz=o:wdKKK",
"LKKu&X$6vBmg2,#XooOOOOOOOOOOOOOOOOoOOOooOOOOOoOooO12kmBb6# &uKKL",
"TYLu*#7nZCx2>,#XOOOOOOOOOOOoOOoOOoOOOOOOo& O&oo o$>>2xZZn7#*uLYT",
"ETPu*$kVGAx2>-#XoOOoOOOOoOooOoOOOOOOOoOoOOooo &oo#-1>xADCk$&uLTW",
"ETLu&@zVDDmj-#OXoOOOOoOOOOoOOOOOOoOOOOOO o & oOoooO-gNDGVx@&uPTE",
"ETYdw;hmSGVk-#OOoOOoOOoOoOoOOoOoOOOOOOOo&ooo &OooOO,kVDSnh:wdUTE",
"EETYdt;hCDCx1$OXoOOOo& oOOOOOOOOOOOoOoOoOoOOOOoOO#-2vVDZh;tsUTEE",
"EETTPu%$CSVx3,#XoOOoOOOooOoOOOOooOOOOOOOOOOOOOOoXO>3xBSN$%iPYEEE",
"ETULLu*+xBBx3,#XOOOOo OoOOOoOOOOOOOOOoOOOOOOOOOOO#,3xmBx@*uKLUTE",
"TYLait;6xcxk3,#X O& o&OOoOOOOOOOOOOOOOoOOOOOOOOOOO,3kvmz6;tasLYT",
"LLLi9;hzcvj375&OoOOOOo& oooOOOOOOOOOOOooOOOOOOOoO#,>2gvvzhqwiKLL",
"KKKu&@vVCc3<6$@OOoOoOOoooooOXOoOOOoooooOooOOOoOoX#>>2fmVVv@&uKKK",
"KKKu&6CFDC3<1,& oOOOOOOoOOOooOOOoOOooooOOOOoOoOoOO,>>gVGHB6&uKKK",
"LLKu*-NFHSx32,OoOoOooOoOO#$OooXOoOoOO$#OOoooooooo#,22zAHFC-*uKLL",
"TYLu*=vCFDmk3,+oXXXXOOX#-,,-OOXXOOO#-,,-OooooXXoo#-2gmDGZv-*uLYT",
"TYLu*=lVDGZmg<##O#######>>>>-O####O#>22,=##+###O#$2gmZDDVj$*uLTT",
"LLKu&=kVDFGZmg1,,,,-,,,>>>>>,,,,,,,,>>>>,,,,,,,,,>gmZFHDVk$*uKLL",
"KKKi:=kVDHHGZmgf333f3222333f3333333333f3223333333gmADHHDVk=*uKKK",
"KKKu&@zVDHHHDZmzxxxxvk2fgxxxxxxxxxxxxxxg32gxxxxxxbADHHHDVk@&uKKK",
"LLKiw;hnZDHHHGZVVVBVVbf2xmBBVBVBBBVBVBmx33mVCBBBBZDHHHDZbh;0iKLL",
"TULKit=5bZDHHHDDDSDDDVg1xBADDSDDDSDDDABx1gVDSGDDDHHHHDZv5-tiKLYT",
"ETULKp0=hxZDDDDDHHHHHSnvmZDHHHHHHHHHHDZmzbSJHHHHDDSDDZvh=riLKUTR",
"EETYLpit=,nBVBVZDHHHHFSZSDHHHHHHHHHGHGGASSHHHHHFCVVVVv5=yisLYTEE",
"EEETLKKir-hkzkknZDDGHHHHHHHHHHHHHHHHHHHHHHHHFSDZckkkkh;wiKKLTEEE",
"EEETLKKsit;@=#@6vCBZGFHHHHHHHHHHHHHHHHHHHHJGZCVv6@==@;taKKKLTEEE",
"EEETULLLLiw&***;hkkvCCCCCZCCCCCZVZCCZCCZCCCNzkkh;**&&wiLLLLPTEEE",
"EEETTTTYLsiuuaut;@$#$44$$$55-$5$44$--$$54444@-@qtuuuuadLYTYTEEEE",
"EEEEEEETULPLKKLaw&*q:qqqqq:&*&:&&:&8&*qq::::8*&raLKKLPLPTEEEEEEE",
"EEEEEEEETTTYKKKpauuaIIIIIKauiuuuuuuuuaIIIIILauuisKKPYTTTEEEEEEEE",
"EEEEEEEEEEETPKKKKKKPEQWWQRIKKKKKLKKKKPEWWEQRPKKKKKKLTEEEEEEEEEEE"
};
