/* XPM */
static char *result[] = {
/* columns rows colors chars-per-pixel */
"64 64 249 2 ",
"   c #151816",
".  c #0C0D13",
"X  c #2E1618",
"o  c #19341F",
"O  c #2C291B",
"+  c #2F1022",
"@  c #1E3829",
"#  c #21362C",
"$  c #263726",
"%  c #393427",
"&  c #233E31",
"*  c #253937",
"=  c #312D2B",
"-  c #44131D",
";  c #4B3619",
":  c #581B21",
">  c #771E22",
",  c #442A29",
"<  c #473636",
"1  c #4D342D",
"2  c #6E3829",
"3  c #3D421C",
"4  c #1C6D1A",
"5  c #27751C",
"6  c #226E1D",
"7  c #284A24",
"8  c #284537",
"9  c #3B4638",
"0  c #2E512B",
"q  c #1F6721",
"w  c #256825",
"e  c #2A7929",
"r  c #2D7E32",
"t  c #357832",
"y  c #1E4220",
"u  c #52481D",
"i  c #7A4C1A",
"p  c #4C413D",
"a  c #454838",
"s  c #49513E",
"d  c #5C5231",
"f  c #684729",
"g  c #79492A",
"h  c #674C3F",
"j  c #784836",
"k  c #6A5633",
"l  c #6D552E",
"z  c #6C6E2A",
"x  c #486F2D",
"c  c #182144",
"v  c #313746",
"b  c #4B3848",
"n  c #653E43",
"m  c #374741",
"M  c #36674A",
"N  c #3D7356",
"B  c #484549",
"V  c #514745",
"C  c #4C5447",
"Z  c #545653",
"A  c #53514C",
"S  c #6E534B",
"D  c #4D6B55",
"F  c #6E7648",
"G  c #71684B",
"H  c #6D5C6C",
"J  c #9A1819",
"K  c #8D0A0E",
"L  c #B60D12",
"P  c #8E1E21",
"I  c #9B3733",
"U  c #97352E",
"Y  c #B42A27",
"T  c #BA1F20",
"R  c #DF080E",
"E  c #E31A1C",
"W  c #DC1F20",
"Q  c #D13936",
"!  c #E73C3A",
"~  c #895B1B",
"^  c #974836",
"/  c #865635",
"(  c #93543B",
")  c #895926",
"_  c #A2443E",
"`  c #B84A3D",
"'  c #94632A",
"]  c #947134",
"[  c #A27738",
"{  c #E8473E",
"}  c #F24A3D",
"|  c #D64A3C",
" . c #8A5A46",
".. c #925E50",
"X. c #A24A45",
"o. c #A9554D",
"O. c #AA5A52",
"+. c #B05E52",
"@. c #8A6B48",
"#. c #9B7443",
"$. c #8D7A5B",
"%. c #936D51",
"&. c #A57C48",
"*. c #AA7D58",
"=. c #B76B57",
"-. c #A57B61",
";. c #9D7F6A",
":. c #E74B45",
">. c #C16E5D",
",. c #E66F5F",
"<. c #F47B68",
"1. c #2C8724",
"2. c #2B8635",
"3. c #36833E",
"4. c #378A39",
"5. c #38963B",
"6. c #339028",
"7. c #3DA13D",
"8. c #3EAA38",
"9. c #3AAA31",
"0. c #4B993C",
"q. c #57963C",
"w. c #4F9033",
"e. c #4CAF34",
"r. c #7D9C3A",
"t. c #3FCD30",
"y. c #39E922",
"u. c #42C525",
"i. c #46D524",
"p. c #4ECF31",
"a. c #68CF2E",
"s. c #49E826",
"d. c #52F224",
"f. c #76E923",
"g. c #6AF023",
"h. c #368940",
"j. c #469955",
"k. c #4D8843",
"l. c #709045",
"z. c #42A942",
"x. c #47B447",
"c. c #47BA46",
"v. c #4BA550",
"b. c #5A9768",
"n. c #53B567",
"m. c #59A972",
"M. c #5AA871",
"N. c #63AB68",
"B. c #72AB71",
"V. c #6E9D5A",
"C. c #45C149",
"Z. c #5EC47B",
"A. c #61C77B",
"S. c #9C9333",
"D. c #AD8D37",
"F. c #BDA130",
"G. c #CDB52E",
"H. c #CA9F33",
"J. c #B6C624",
"K. c #A4ED23",
"L. c #D8D21F",
"P. c #FAF917",
"I. c #D8C629",
"U. c #D0CE2D",
"Y. c #E7D924",
"T. c #E9D739",
"R. c #F2DC2E",
"E. c #D8EF23",
"W. c #D3F125",
"Q. c #EBE926",
"!. c #F6ED24",
"~. c #F5E928",
"^. c #FBF122",
"/. c #FCFA23",
"(. c #F3E637",
"). c #F7ED35",
"_. c #E0CD1F",
"`. c #B28959",
"'. c #B38E4F",
"]. c #9B8564",
"[. c #B88D6A",
"{. c #BC9368",
"}. c #BB9E74",
"|. c #AC9273",
" X c #B7AA7F",
".X c #C7975F",
"XX c #C39B68",
"oX c #C49B76",
"OX c #DA9577",
"+X c #DAB668",
"@X c #C9A27C",
"#X c #C8A67B",
"$X c #D2AB7D",
"%X c #CFAC69",
"&X c #E7AA77",
"*X c #C4A058",
"=X c #E6C866",
"-X c #E7C771",
";X c #F0DE49",
":X c #393BA8",
">X c #2D4BE9",
",X c #4E66D7",
"<X c #4D71FF",
"1X c #5D6CD3",
"2X c #65CB84",
"3X c #67D387",
"4X c #6ED68C",
"5X c #B2A098",
"6X c #D19C83",
"7X c #D6A586",
"8X c #DBB789",
"9X c #CFBA96",
"0X c #DAB996",
"qX c #CCAC89",
"wX c #E3BC89",
"eX c #E3B998",
"rX c #ECAD8F",
"tX c #C7B8AE",
"yX c #99D297",
"uX c #DBC79B",
"iX c #E8C69C",
"pX c #F4CB9C",
"aX c #F8D196",
"sX c #D4C5A5",
"dX c #DBC7A5",
"fX c #D7D3AF",
"gX c #EEC6A3",
"hX c #E9CBA5",
"jX c #F5CBA6",
"kX c #ECD5AB",
"lX c #F3DAAF",
"zX c #F4DAB2",
"xX c #F4DEBC",
"cX c #EFD0B2",
"vX c #FAE3BB",
"bX c #FCE6BA",
"nX c #AEB7DC",
"mX c #BDBDE5",
"MX c #D4DCDD",
"NX c #D4D5CF",
"BX c #EFDAD9",
"VX c #EADAC3",
"CX c #F9E8C6",
"ZX c #FCF4CA",
"AX c #F2EED1",
"SX c #DCDBEF",
"DX c #EDF2F9",
"FX c #E5DFE9",
"GX c None",
/* pixels */
"GXGXGXGXGXGXGXGXGXGXGXGXGXGXGXGXGXGXGXGXGXGXGXGXGXGXGXGXGXGXGXGXGXGXGXGXGXGXGXGXGXGXGXGXGXGXGXGXGXGXGXGXGXGXGXGXGXGXGXGXGXGXGXGX",
"GXGXGXGXGXGXGXGXGXGXGXGXGXGXGXGXGXGXGXGXGXGXGXGXGXGXGXGXGXGXGXGXGXGXGXGXGXA.A.GXGXGXGXGXGXGXGXGXGXGXGXGXGXGXGXGXGXGXGXGXGXGXGXGX",
"GXGXGXGXGXGXGXGXGXGXGXGXGXGXGXGXGXGXGXGXGXGXGXGXGXGXGXGXGXGXGXGXGXGXGXGXj.r r j.GXGXGXGXGXGXGXGXGXGXGXGXGXGXGXGXGXGXGXGXGXGXGXGX",
"GXGXGXGXGXGXGXGXGXGXGXGXGXGXGXGXGXGXGXGXGXGXGXGXGXGXGXGXGXGXGXGXGXGXGXn.4.6 6 4.n.GXGXGXGXGXGXGXGXGXGXGXGXGXGXGXGXGXGXGXGXGXGXGX",
"GXGXGXGXGXGXGXGXGXGXGXGXGXGXGXGXGXGXGXGXGXGXGXGXGXGXGXGXGXGXGXGXj.r 3.5.5.7.7.5.4.j.GXGXGXGXGXGXGXGXGXGXGXGXGXGXGXGXGXGXGXGXGXGX",
"GXGXGXGXGXGXGXGXGXGXGXGXGXGXGXGXGXGXGXGXGXGXGXGXGXGXGXGXGXGX3Xn.4.6 5 2.7.c.x.7.6 2.GXGXGXGXGXGXGXGXGXGXGXGXGXGXGXGXGXGXGXGXGXGX",
"GXGXGXGXGXGXGXGXGXGXGXGXGXGXGXGXGXGXGXGXGXGXGXGXGXGXGXGXGX2Xv.4.h.8.7.7.x.x.x.7.w 3.GXGXGXGXGXGXGXGXGXGXGXGXGXGXGXGXGXGXGXGXGXGX",
"GXGXGXGXGXGXGXGXGXGXGXGXGXGXGXGXGXGXGXGXGXGXGXGXGXGXGXGXGXn.r 6 5.z.0.z.z.x.c.5.e 3.GXGXGXGXGXGXGXGXGXGXGXGXGXGXGXGXGXGXGXGXGXGX",
"GXGXGXGXGXGXGXGXGXGXGXGXGXGXGXGXGXGXGXGXGXGXGXGXGXGXGXGXv.e w 4 e e e 2.z.c.x.7.1.M GXGXGXGXGXGXGXGXGXGXGXGXGXGXGXGXGXGXGXGXGXGX",
"GXGXGXGXGXGXGXGXGXGXGXGXGXGXGXGXGXGXGXGXGXGXGXGX3XA.3Xn.4.5 1.1.6.1.e 2.5.h.7.5.e h.GXGXGXGXGXGXGXGXGXGXGXGXGXGXGXGXGXGXGXGXGXGX",
"GXGXGXGXGXGXGXGXGXGXGXGXGXGXGXGXGXGXGXGXGXGXGX3Xj.r 3.3.h.8.e.i.u.t.9.5.r e 1.e e h.GXGXGXGXGXGXGXGXGXGXGXGXGXGXGXGXGXGXGXGXGXGX",
"GXGXGXGXGXGXGXGXGXGXGXGXGXGXGXGXGXGXGXGXGXGX3Xn.4.4 1.6.8.p.s.d.d.s.p.e.6.1.e e 6 h.GXGXGXGXGXGXGXGXGXGXGXGXGXGXGXGXGXGXGXGXGXGX",
"GXGXGXGXGXGXGXGXGXGXGXGXGXGXGXGXGXGXGXGXGXA.j.2.5.e.u.i.i.s.s.y.y.s.i.i.i.u.8.4.w h.GXGXGXGXGXGXGXGXGXGXGXGXGXGXGXGXGXGXGXGXGXGX",
"GXGXGXGXGXGXGXGXGXGXGXGXGXGXGXGXGXGXGXGXGXn.3.e 0.e.a.g.f.f.g.f.f.f.d.s.d.s.p.8.2.5.n.GXGXGXGXGXGXGXGXGXGXGXGXGXGXGXGXGXGXGXGXGX",
"GXGXGXGXGXGXGXGXGXGXGXGXGXGXGXGXGXGXGXGXj.5.7.z.l.S.@.S.U.E.E.E.E.K.g.y.s.s.s.p.e.5.4.j.GXGXGXGXGXGXGXGXGXGXGXGXGXGXGXGXGXGXGXGX",
"GXGXGXGXGXGXGXGXGXGXGXGXGXGXGXGXGXGXGXGXr 6 0.l.D.D.D.H.R.^.^./.^.Q.K.g.f.f.a.a.c.5.6 2.GXGXGXGXGXGXGXGXGXGXGXGXGXGXGXGXGXGXGXGX",
"GXGXGXGXGXGXGXGXGXGXGXGXGXGXGXGXGXGXGXGX2.w z '.I.Y.Y.Y.~.!.^.^.^.!.E.W.E.L.S.l.x.7.6 h.GXGXGXGXGXGXGXGXGXGXGXGXGXGXGXGXGXGXGXGX",
"GXGXGXGXGXGXGXGXGXGXGXGXGXGXGXGXGXGXGXN.t x S.G.T.).).^.^.!.!.!.!.^.^.^./.R.H.S.l.0.2.5.N.GXGXGXGXGXGXGXGXGXGXGXGXGXGXGXGXGXGXGX",
"GXGXGXGXGXGXGXGXGXGXGXGXGXGXGXGXGXGXF f u ' G.T.=X=X(.^.^.!.!.!.!.^.^.^.^.^.~.G.D.l.e.k.z G GXGXGXGXGXGXGXGXGXGXGXGXGXGXGXGXGXGX",
"GXGXGXGXGXGXGXGXGXGXGXGXGXGXGXGXGXB.%./ 2 ' U.(.=X=X(.^.^.^.^.^.^.!.).T.Y.Y.^.~.H.S.l.k.k @.B.GXGXGXGXGXGXGXGXGXGXGXGXGXGXGXGXGX",
"GXGXGXGXGXGXGXGXGXGXGXGXGXGXGXGXF @.qXqX .g *X=X;X(.Q.^.^.^./.P./.).-X+X'.F.Q./.~.G.z G qXqX%.F GXGXGXGXGXGXGXGXGXGXGXGXGXGXGXGX",
"GXGXGXGXGXGXGXGXGXGXGXGXGXGXGXGXf ( kXkX../ oX+X(.P.^.!.(.R.I.G.L.G.%X#X*.D.G.~./._.~ ..kXhX( f GXGXGXGXGXGXGXGXGXGXGXGXGXGXGXGX",
"GXGXGXGXGXGXGXGXGXGXGXGXGXGXGXGXk ( hXkX`.&.6X-XT.P./.).=X+X] ~ i ' [ `.XXXX'.H.!.Y.[ >.lXhX( k GXGXGXGXGXGXGXGXGXGXGXGXGXGXGXGX",
"GXGXGXGXGXGXGXGXGXGXGXGXGXGXGXGXk ( 0XiX`.#.{.%X;X(.Y.G.{.[. .j j  .#.{.8X$X&.D.T.T.F.'.hXeX( l GXGXGXGXGXGXGXGXGXGXGXGXGXGXGXGX",
"GXGXGXGXGXGXGXGXGXGXGXGXGXGXGXGXk ( $XqX/ g #.{.-X%X] i g  .`.{.{.#X0XhXlXuX'.[ +X+X`.`.8X$X/ k GXGXGXGXGXGXGXGXGXGXGXGXGXGXGXGX",
"GXGXGXGXGXGXGXGXGXGXGXGXGXGXGXGXk 2 `.'.' ~ ' #.[.`.@.j g ] oXwX8XiXzXCXCXhX.X`.[.{.'.D..X*.2 k GXGXGXGXGXGXGXGXGXGXGXGXGXGXGXGX",
"GXGXGXGXGXGXGXGXGXGXGXGXGXGXGXGX9 X 2 [ I.G.' 2 / %.[.oX{.oX$XwXkXlXvXvXZXzXuX.X@.' I.I.[ 2 X 9 GXGXGXGXGXGXGXGXGXGXGXGXGXGXGXGX",
"GXGXGXGXGXGXGXGXGXGXGXGXGXGXGXGXGX% , ) Y.!.[ 2 : g '.$X&X8X8XiXlXvXlXhXeX8X#X%.j ' Y.Y.~ , % GXGXGXGXGXGXGXGXGXGXGXGXGXGXGXGXGX",
"GXGXGXGXGXGXGXGXGXGXGXGXGXGXGXGXGXGX* u L.!.D.l O X 2 [ @XwXhXzXvXzXiX#X&.g 1 1 / D.!.I.f * GXGXGXGXGXGXGXGXGXGXGXGXGXGXGXGXGXGX",
"GXGXGXGXGXGXGXGXGXGXGXGXGXGXGXGXGXGX* u U.(.D.@.Z V b S -.$XjXvXvXhX#X-.S b B A @.D.R.U.u * GXGXGXGXGXGXGXGXGXGXGXGXGXGXGXGXGXGX",
"GXGXGXGXGXGXGXGXGXGXGXGXGXGXGXGXGXGX* , XX+X' ..sXnX,X:Xn #.eXCXvXiX] n :X1XnXtX..' +X%X% # GXGXGXGXGXGXGXGXGXGXGXGXGXGXGXGXGXGX",
"GXGXGXGXGXGXGXGXGXGXGXGXGXGXGXGXGXGXGXA ;.-.2  .CXDX<X>XH *.eXvXvXuX-.H >X<XSXCXS 2 *.;.C GXGXGXGXGXGXGXGXGXGXGXGXGXGXGXGXGXGXGX",
"GXGXGXGXGXGXGXGXGXGXGXGXGXGXGXGXGXGXGXm.Z = O S fXDX<X<XmXAXzXvXxXxXCXnX>X<XFXkXA X O A N.GXGXGXGXGXGXGXGXGXGXGXGXGXGXGXGXGXGXGX",
"GXGXGXGXGXGXGXGXGXGXGXGXGXGXGXGXGXZ.2XM.8 . . b }.5X:X,XnXBXxXvXbXCXDXSX1X1XsX$XB . = M GXGXGXGXGXGXGXGXGXGXGXGXGXGXGXGXGXGXGXGX",
"GXGXGXGXGXGXGXGXGXGXGXGXGXGXM # & & & $   . .   % v c c * H sXCXbXvXCXVXtX5XoX%.% = b.n.h.GXGXGXGXGXGXGXGXGXGXGXGXGXGXGXGXGXGXGX",
"GXGXGXGXGXGXGXGXGXGXGXGXGXGXs , < V B A Z Z Z Z A B d a % d 5XsXhXlXzXpX$XXX[ l a D yXyXV.k.GXGXGXGXGXGXGXGXGXGXGXGXGXGXGXGXGXGX",
"GXGXGXGXGXGXGXGXGXGXGXGXGXs $.oX9XsXNXMXMXMXMXMXMXNXfX9X}.$.S G @XaXiX8X.X#.1 a B.yXfXkXuX X@.F GXGXGXGXGXGXGXGXGXGXGXGXGXGXGXGX",
"GXGXGXGXGXGXGXGXGXGXGXGX# 1 #XpXpXcXBXFXBXBXBXBXFXBXgXpXaXoX% O @.{.[.*.] l O 8 M.yXkXCXZXiX( f GXGXGXGXGXGXGXGXGXGXGXGXGXGXGXGX",
"GXGXGXGXGXGXGXGXGXGXGXGX# < 9XgX>.I o.o.X.X.X.X.o.X.X.>.gX9XB   % < < < % % 0 w e b.fXZXZXhX^ f GXGXGXGXGXGXGXGXGXGXGXGXGXGXGXGX",
"GXGXGXGXGXGXGXGXGXGXGXGX& V dXgXX.K K J I I I U J K K _ gXsXA   $ # @ @ # 8 w 4 4 x  XgXiXqX@.F GXGXGXGXGXGXGXGXGXGXGXGXGXGXGXGX",
"GXGXGXGXGXGXGXGXGXGXGXGX& p sXgXX.K R Q OXdXdXOXQ R K X.gXsXp o t h.h.0.4.4.e w y , j ( ( %.GXGXGXGXGXGXGXGXGXGXGXGXGXGXGXGXGXGX",
"GXGXGXGXGXGXGXGXGXGXGXGX& p sXgXX.J Q <.gXZXZXjX<.Q J X.gXsXV o h.C.C.C.c.e.t 7 O = d l l F GXGXGXGXGXGXGXGXGXGXGXGXGXGXGXGXGXGX",
"GXGXGXGXGXGXGXGXGXGXGXGX& p sXgXX.I 7XcXbXZXZXCXzX6XI I gXsXV o h.x.c.c.p.v.d : + 9 M.4XGXGXGXGXGXGXGXGXGXGXGXGXGXGXGXGXGXGXGXGX",
"GXGXGXGXGXGXGXGXGXGXGXGX& p sXgX_ I 7XjXjXeXrXpXjXrXI X.gXsXb o q.a.q.0.w.w.z i % 8 m.4XGXGXGXGXGXGXGXGXGXGXGXGXGXGXGXGXGXGXGXGX",
"GXGXGXGXGXGXGXGXGXGXGXGX8 b sXgXX.J Q :.{ :.:.:.! Q J X.hXsXB 3 J.U.] u f z e.u.e 7 9 D GXGXGXGXGXGXGXGXGXGXGXGXGXGXGXGXGXGXGXGX",
"GXGXGXGXGXGXGXGXGXGXGXGX& B 0XgXX.J Q ! E R R E ! Q J X.hXsXB u Y.~.] f u z s.y.9.w   * m.GXGXGXGXGXGXGXGXGXGXGXGXGXGXGXGXGXGXGX",
"GXGXGXGXGXGXGXGXGXGXGXGX& p sXgXI U rXrX! R R ! rXrXU I gXtXm ; I.Q.r.z.e.i.d.s.p.2.O # m.GXGXGXGXGXGXGXGXGXGXGXGXGXGXGXGXGXGXGX",
"GXGXGXGXGXGXGXGXGXGXGXGX7 < 0XgX=.+.qXrX,.:.:.,.eXqX+.=.gX9XB % J.W.a.t.d.d.i.e.7.3.9 D 3XGXGXGXGXGXGXGXGXGXGXGXGXGXGXGXGXGXGXGX",
"GXGXGXGXGXGXGXGXGXGXGXGX& , oXaXhX6Xo.o.rXjXcXrXO.o.6XgXpX}.< 7 a.g.d.d.d.i.e $ @ M m.3XGXGXGXGXGXGXGXGXGXGXGXGXGXGXGXGXGXGXGXGX",
"GXGXGXGXGXGXGXGXGXGXGXGXGXs $.qXlXgX+.o.qXhXhX7Xo.+.iXzX@X$.< o 6.u.u.u.i.6.; + + a m.3XGXGXGXGXGXGXGXGXGXGXGXGXGXGXGXGXGXGXGXGX",
"GXGXGXGXGXGXGXGXGXGXGXGXGXGX9 h @XpXiX6X+.I I +.6XgXpX@XS O   X y 7 8 0 q 3 2 > > : < N GXGXGXGXGXGXGXGXGXGXGXGXGXGXGXGXGXGXGXGX",
"GXGXGXGXGXGXGXGXGXGXGXGXGXGXGX9 $.@XlXgX=.U U +.pXzX@X$.C & m m 9 %   + + : P J T P X 8 GXGXGXGXGXGXGXGXGXGXGXGXGXGXGXGXGXGXGXGX",
"GXGXGXGXGXGXGXGXGXGXGXGXGXGXGXGXa h @XpXiXeXeXeXpX@Xh 9 GXGXGXGXGXGX8 + : P T W W J - m GXGXGXGXGXGXGXGXGXGXGXGXGXGXGXGXGXGXGXGX",
"GXGXGXGXGXGXGXGXGXGXGXGXGXGXGXGXGX9 $.@XkXbXZXkX@X$.9 M GXGXGXGXGXGXm X U ` | { } Q + 8 GXGXGXGXGXGXGXGXGXGXGXGXGXGXGXGXGXGXGXGX",
"GXGXGXGXGXGXGXGXGXGXGXGXGXGXGXGXGXGX9 S @XaXaX@Xh 9 b.GXGXGXGXGXGXGX8 , `.&XOX&X&X`., & GXGXGXGXGXGXGXGXGXGXGXGXGXGXGXGXGXGXGXGX",
"GXGXGXGXGXGXGXGXGXGXGXGXGXGXGXGXGXGXM a $.[.[.$.9 M GXGXGXGXGXGXGXGXGXC ].oX}.}.oX].C M GXGXGXGXGXGXGXGXGXGXGXGXGXGXGXGXGXGXGXGX",
"GXGXGXGXGXGXGXGXGXGXGXGXGXGXGXGXGXGXGXb.s , , s b.GXGXGXGXGXGXGXGXGXGXGXC , < < , C GXGXGXGXGXGXGXGXGXGXGXGXGXGXGXGXGXGXGXGXGXGX",
"GXGXGXGXGXGXGXGXGXGXGXGXGXGXGXGXGXGXGXGXM # & M GXGXGXGXGXGXGXGXGXGXGXGXGX# & & # GXGXGXGXGXGXGXGXGXGXGXGXGXGXGXGXGXGXGXGXGXGXGX",
"GXGXGXGXGXGXGXGXGXGXGXGXGXGXGXGXGXGXGXGXGXGXGXGXGXGXGXGXGXGXGXGXGXGXGXGXGXGXGXGXGXGXGXGXGXGXGXGXGXGXGXGXGXGXGXGXGXGXGXGXGXGXGXGX",
"GXGXGXGXGXGXGXGXGXGXGXGXGXGXGXGXGXGXGXGXGXGXGXGXGXGXGXGXGXGXGXGXGXGXGXGXGXGXGXGXGXGXGXGXGXGXGXGXGXGXGXGXGXGXGXGXGXGXGXGXGXGXGXGX",
"GXGXGXGXGXGXGXGXGXGXGXGXGXGXGXGXGXGXGXGXGXGXGXGXGXGXGXGXGXGXGXGXGXGXGXGXGXGXGXGXGXGXGXGXGXGXGXGXGXGXGXGXGXGXGXGXGXGXGXGXGXGXGXGX",
"GXGXGXGXGXGXGXGXGXGXGXGXGXGXGXGXGXGXGXGXGXGXGXGXGXGXGXGXGXGXGXGXGXGXGXGXGXGXGXGXGXGXGXGXGXGXGXGXGXGXGXGXGXGXGXGXGXGXGXGXGXGXGXGX",
"GXGXGXGXGXGXGXGXGXGXGXGXGXGXGXGXGXGXGXGXGXGXGXGXGXGXGXGXGXGXGXGXGXGXGXGXGXGXGXGXGXGXGXGXGXGXGXGXGXGXGXGXGXGXGXGXGXGXGXGXGXGXGXGX",
"GXGXGXGXGXGXGXGXGXGXGXGXGXGXGXGXGXGXGXGXGXGXGXGXGXGXGXGXGXGXGXGXGXGXGXGXGXGXGXGXGXGXGXGXGXGXGXGXGXGXGXGXGXGXGXGXGXGXGXGXGXGXGXGX"
};
