/* XPM */
static char *result[] = {
/* columns rows colors chars-per-pixel */
"64 64 245 2 ",
"   c #191718",
".  c #0B0D13",
"X  c #251718",
"o  c #361719",
"O  c #172A1A",
"+  c #1B341C",
"@  c #2D2A1C",
"#  c #1B3527",
"$  c #3A2928",
"%  c #24372A",
"&  c #37342A",
"*  c #233E31",
"=  c #243938",
"-  c #312D2C",
";  c #221724",
":  c #591E13",
">  c #513318",
",  c #442B29",
"<  c #493837",
"1  c #4C352E",
"2  c #703A2A",
"3  c #623E1B",
"4  c #2D541E",
"5  c #1D6B1A",
"6  c #1F731E",
"7  c #236E1D",
"8  c #26741C",
"9  c #1C4C21",
"0  c #2B4535",
"q  c #394639",
"w  c #294C2B",
"e  c #1A6726",
"r  c #246824",
"t  c #2A792A",
"y  c #2C7C32",
"u  c #367B36",
"i  c #34712B",
"p  c #1E461F",
"a  c #55501E",
"s  c #744A1A",
"d  c #4C413D",
"f  c #484A3A",
"g  c #4E4E38",
"h  c #79492A",
"j  c #784737",
"k  c #6A5633",
"l  c #6A4F31",
"z  c #506D2E",
"x  c #6F682D",
"c  c #182144",
"v  c #313746",
"b  c #653E43",
"n  c #4E3549",
"m  c #354840",
"M  c #365842",
"N  c #37684B",
"B  c #337C41",
"V  c #4C4848",
"C  c #574C46",
"Z  c #565349",
"A  c #545653",
"S  c #4D504E",
"D  c #6C544A",
"F  c #496954",
"G  c #746D48",
"H  c #6D5C6C",
"J  c #9A1819",
"K  c #8F070B",
"L  c #BB060B",
"P  c #9C332D",
"I  c #9C3934",
"U  c #993230",
"Y  c #DF080E",
"T  c #E31A1C",
"R  c #D13936",
"E  c #E73C3A",
"W  c #895B1B",
"Q  c #865635",
"!  c #93533B",
"~  c #8F522A",
"^  c #A2443E",
"/  c #94632A",
"(  c #967036",
")  c #A27738",
"_  c #E8473F",
"`  c #8A5A46",
"'  c #955948",
"]  c #925E50",
"[  c #A24A45",
"{  c #A9554D",
"}  c #AA5A52",
"|  c #B05E52",
" . c #8A6A47",
".. c #9C7443",
"X. c #8C7658",
"o. c #936F50",
"O. c #A57C48",
"+. c #AA7C57",
"@. c #B66657",
"#. c #A57D61",
"$. c #9D7E69",
"%. c #E74B45",
"&. c #C16E5D",
"*. c #E66F5F",
"=. c #F47B68",
"-. c #2C8523",
";. c #2B8434",
":. c #36833E",
">. c #368837",
",. c #3A9B3D",
"<. c #37943B",
"1. c #339029",
"2. c #3DA13D",
"3. c #3EAB39",
"4. c #3CB130",
"5. c #4C973B",
"6. c #4E883C",
"7. c #48B132",
"8. c #7A8C3C",
"9. c #42C728",
"0. c #46D725",
"q. c #4DCD35",
"w. c #66D22B",
"e. c #48E726",
"r. c #50F022",
"t. c #76E923",
"y. c #68EA22",
"u. c #378740",
"i. c #469955",
"p. c #46994E",
"a. c #708F41",
"s. c #45AA41",
"d. c #47B447",
"f. c #4DBA41",
"g. c #4EA453",
"h. c #579867",
"j. c #4D9664",
"k. c #52B567",
"l. c #5AB274",
"z. c #6CB171",
"x. c #729F5C",
"c. c #6CC57D",
"v. c #4AC145",
"b. c #39E922",
"n. c #9C9333",
"m. c #AD8D37",
"M. c #BDA130",
"N. c #CA9F33",
"B. c #CDB52E",
"V. c #A4ED23",
"C. c #D8D21F",
"Z. c #FAF917",
"A. c #D8C629",
"S. c #D1CE2D",
"D. c #E8DA25",
"F. c #E9D739",
"G. c #F2DB31",
"H. c #D8EF23",
"J. c #DBF022",
"K. c #EBE825",
"L. c #F6ED24",
"P. c #F5E928",
"I. c #FBF122",
"U. c #FCFA23",
"Y. c #F3E637",
"T. c #F7ED35",
"R. c #868040",
"E. c #B28959",
"W. c #B38E4F",
"Q. c #A88766",
"!. c #B78D6A",
"~. c #BC9469",
"^. c #BB9E74",
"/. c #A8987E",
"(. c #88B078",
"). c #9E816B",
"_. c #C7975F",
"`. c #C39B68",
"'. c #C49B76",
"]. c #DA9577",
"[. c #DAB668",
"{. c #C9A37C",
"}. c #C8A77B",
"|. c #D2AB7D",
" X c #CEAD6C",
".X c #E2B978",
"XX c #C4A058",
"oX c #E6C866",
"OX c #E7C771",
"+X c #F0DE49",
"@X c #393BA8",
"#X c #2D4BE9",
"$X c #4E66D7",
"%X c #4D71FF",
"&X c #5D6CD3",
"*X c #65D084",
"=X c #70CB85",
"-X c #B2A098",
";X c #D19C83",
":X c #C8A985",
">X c #D6A586",
",X c #DBB789",
"<X c #CFBA96",
"1X c #DAB996",
"2X c #CDB08C",
"3X c #E2A98C",
"4X c #E3BC89",
"5X c #E3B998",
"6X c #F6B292",
"7X c #C7B8AE",
"8X c #8ACD8F",
"9X c #97E7A7",
"0X c #95E19E",
"qX c #E8C79C",
"wX c #F4CA9C",
"eX c #F8D196",
"rX c #D4C5A4",
"tX c #DAC7A5",
"yX c #D6CCB2",
"uX c #E6C6A2",
"iX c #EEC6A3",
"pX c #E9CCA5",
"aX c #F5CBA6",
"sX c #ECD3AA",
"dX c #F4DAAF",
"fX c #F4DAB2",
"gX c #F4DEBC",
"hX c #EFD0B2",
"jX c #FAE3BB",
"kX c #FCE6BA",
"lX c #DEC098",
"zX c #AEB7DC",
"xX c #BDBDE5",
"cX c #D4DCDD",
"vX c #D4D5CF",
"bX c #EFDAD9",
"nX c #EADAC3",
"mX c #F9E8C7",
"MX c #FBF5C9",
"NX c #FFFAD1",
"BX c #E5E2D2",
"VX c #DCDBEF",
"CX c #EDF2F9",
"ZX c #E5DFE9",
"AX c None",
/* pixels */
"AXAXAXAXAXAXAXAXAXAXAXAXAXAXAXAXAXAXAXAXAXAXAXAXAXAXAXAXAXAXAXAXAXAXAXAXAXAXAXAXAXAXAXAXAXAXAXAXAXAXAXAXAXAXAXAXAXAXAXAXAXAXAXAX",
"AXAXAXAXAXAXAXAXAXAXAXAXAXAXAXAXAXAXAXAXAXAXAXAXAXAXAXAXAXAXAXAXAXAXAXAXAXAXAXAXAXAXAXAXAXAXAXAXAXAXAXAXAXAXAXAXAXAXAXAXAXAXAXAX",
"AXAXAXAXAXAXAXAXAXAXAXAXAXAXAXAXAXAXAXAXAXAXAXAXAXAXAXAXAXAXAXAXAXAXAXAXAXAXAXAXAXAXAXAXAXAXAXAXAXAXAXAXAXAXAXAXAXAXAXAXAXAXAXAX",
"AXAXAXAXAXAXAXAXAXAXAXAXAXAXAXAXAXAXAXAXAXAXAXAXAXAXAXAXAXAXAXAXAXAXAXAXAXAXAXAXAXAXAXAXAXAXAXAXAXAXAXAXAXAXAXAXAXAXAXAXAXAXAXAX",
"AXAXAXAXAXAXAXAXAXAXAXAXAXAXAXAXAXAXAXAXAXAXAXAXAXAXi.y y i.AXAXAXAXAXAXAXAXAXAXAXAXAXAXAXAXAXAXAXAXAXAXAXAXAXAXAXAXAXAXAXAXAXAX",
"AXAXAXAXAXAXAXAXAXAXAXAXAXAXAXAXAXAXAXAXAXAXAXAXAXk.>.5 7 >.k.*Xc.AXAXAXAXAXAXAXAXAXAXAXAXAXAXAXAXAXAXAXAXAXAXAXAXAXAXAXAXAXAXAX",
"AXAXAXAXAXAXAXAXAXAXAXAXAXAXAXAXAXAXAXAXAXAXAXAXi.>.,.2.2.u.u.>.;.i.*XAXAXAXAXAXAXAXAXAXAXAXAXAXAXAXAXAXAXAXAXAXAXAXAXAXAXAXAXAX",
"AXAXAXAXAXAXAXAXAXAXAXAXAXAXAXAXAXAXAXAXAXAXAXAXu 7 2.d.d.s.<.8 6 >.k.AXAXAXAXAXAXAXAXAXAXAXAXAXAXAXAXAXAXAXAXAXAXAXAXAXAXAXAXAX",
"AXAXAXAXAXAXAXAXAXAXAXAXAXAXAXAXAXAXAXAXAXAXAXAX:.r 2.d.d.d.2.2.2.,.u.g.*XAXAXAXAXAXAXAXAXAXAXAXAXAXAXAXAXAXAXAXAXAXAXAXAXAXAXAX",
"AXAXAXAXAXAXAXAXAXAXAXAXAXAXAXAXAXAXAXAXAXAXAXAX:.t 2.d.d.d.2.2.3.<.7 y k.AXAXAXAXAXAXAXAXAXAXAXAXAXAXAXAXAXAXAXAXAXAXAXAXAXAXAX",
"AXAXAXAXAXAXAXAXAXAXAXAXAXAXAXAXAXAXAXAXAXAXAXAX:.-.,.d.d.2.1.t -.t e r i g.*XAXAXAXAXAXAXAXAXAXAXAXAXAXAXAXAXAXAXAXAXAXAXAXAXAX",
"AXAXAXAXAXAXAXAXAXAXAXAXAXAXAXAXAXAXAXAXAXAXAXAXu.t <.2.2.,.;.t -.-.1.-.8 u.k.*Xc.AXAXAXAXAXAXAXAXAXAXAXAXAXAXAXAXAXAXAXAXAXAXAX",
"AXAXAXAXAXAXAXAXAXAXAXAXAXAXAXAXAXAXAXAXAXAXAXAXu.r t -.t y <.3.9.0.0.9.3.<.>.u.y i.*XAXAXAXAXAXAXAXAXAXAXAXAXAXAXAXAXAXAXAXAXAX",
"AXAXAXAXAXAXAXAXAXAXAXAXAXAXAXAXAXAXAXAXAXAXAXAXu.r 6 -.t 1.3.q.e.e.r.e.q.7.1.8 6 u.k.AXAXAXAXAXAXAXAXAXAXAXAXAXAXAXAXAXAXAXAXAX",
"AXAXAXAXAXAXAXAXAXAXAXAXAXAXAXAXAXAXAXAXAXAXAX*Xu 8 <.3.9.0.0.e.e.e.b.e.e.0.9.7.3.<.;.i.AXAXAXAXAXAXAXAXAXAXAXAXAXAXAXAXAXAXAXAX",
"AXAXAXAXAXAXAXAXAXAXAXAXAXAXAXAXAXAXAXAXAXAXAXk.<.>.p.f.w.y.t.t.y.t.t.t.r.e.r.e.q.3.-.>.k.AXAXAXAXAXAXAXAXAXAXAXAXAXAXAXAXAXAXAX",
"AXAXAXAXAXAXAXAXAXAXAXAXAXAXAXAXAXAXAXAXAXAXp.<.u.s.a.R.n.n.S.J.H.H.H.H.y.b.b.e.e.q.7.,.>.i.AXAXAXAXAXAXAXAXAXAXAXAXAXAXAXAXAXAX",
"AXAXAXAXAXAXAXAXAXAXAXAXAXAXAXAXAXAXAXAXAXAXy 7 7.a.n.m.m.N.D.I.I.I.I.J.V.y.t.t.w.w.d.2.7 u AXAXAXAXAXAXAXAXAXAXAXAXAXAXAXAXAXAX",
"AXAXAXAXAXAXAXAXAXAXAXAXAXAXAXAXAXAXAXAXAXAXu.r x W.A.D.G.G.P.I.I.I.I.J.H.H.J.S.n.a.f.,.6 :.AXAXAXAXAXAXAXAXAXAXAXAXAXAXAXAXAXAX",
"AXAXAXAXAXAXAXAXAXAXAXAXAXAXAXAXAXAXAXAXAXk.y z n.N.F.T.P.I.I.L.L.I.L.L.I.I.Z.G.N.n.a.5.>.<.k.AXAXAXAXAXAXAXAXAXAXAXAXAXAXAXAXAX",
"AXAXAXAXAXAXAXAXAXAXAXAXAXAXAXAXAXAXAXAXG l 3 x A.G.oXoXP.I.L.I.L.L.L.I.I.I.I.L.P.B.m.a.5.,.z G AXAXAXAXAXAXAXAXAXAXAXAXAXAXAXAX",
"AXAXAXAXAXAXAXAXAXAXAXAXAXAXAXAXAXAXAXz.o.Q 2 W A.+XOXoXY.L.I.I.I.I.U.I.Y.F.D.D.U.P.N.n.a.6.Q o.z.AXAXAXAXAXAXAXAXAXAXAXAXAXAXAX",
"AXAXAXAXAXAXAXAXAXAXAXAXAXAXAXAXAXAXG  .2X:X! 2 XXoX+XY.K.I.I.I.I.U.U.T.oX[.m.N.K.U.G.B.x  .:X2Xo.G AXAXAXAXAXAXAXAXAXAXAXAXAXAX",
"AXAXAXAXAXAXAXAXAXAXAXAXAXAXAXAXAXAXl ! pXdX' Q ^..XY.Z.I.L.T.G.A.A.C.B. X'.E.W.B.K.U.C.W ] hXpX! s AXAXAXAXAXAXAXAXAXAXAXAXAXAX",
"AXAXAXAXAXAXAXAXAXAXAXAXAXAXAXAXAXAXl ! pXsXE...{.OXY.Z.U.T.oX X) s W Q ..W.`.`.W.B.P.D.) +.dXuX! l AXAXAXAXAXAXAXAXAXAXAXAXAXAX",
"AXAXAXAXAXAXAXAXAXAXAXAXAXAXAXAXAXAXk ! lXwXE...~.[.+XG.D.B. XQ.` j j Q O.~.,X|.o.m.F.F.m.W.pX1X! k AXAXAXAXAXAXAXAXAXAXAXAXAXAX",
"AXAXAXAXAXAXAXAXAXAXAXAXAXAXAXAXAXAXk ~ |.>X` h ) ~.[. X) s h ` E.~.~.'.,XpXfXlXE...[.[.W.+.,X|.~ k AXAXAXAXAXAXAXAXAXAXAXAXAXAX",
"AXAXAXAXAXAXAXAXAXAXAXAXAXAXAXAXAXAXl h E.E.( W / ..!.Q.` j h ' }.4X4XqXfXjXMXpXXXE.~.~.W.M._.+.2 k AXAXAXAXAXAXAXAXAXAXAXAXAXAX",
"AXAXAXAXAXAXAXAXAXAXAXAXAXAXAXAXAXAXq o 2 ) B.B./ h Q ' ~.}.~.`.|.,XaXdXjXjXMXjXlX_.` / A.A.) 2 o q AXAXAXAXAXAXAXAXAXAXAXAXAXAX",
"AXAXAXAXAXAXAXAXAXAXAXAXAXAXAXAXAXAXAX& , W D.K.( 3 > h W.|..X,X,XqXdXgXfXsXqX2X^.+.j / D.D.W , & AXAXAXAXAXAXAXAXAXAXAXAXAXAXAX",
"AXAXAXAXAXAXAXAXAXAXAXAXAXAXAXAXAXAXAXAX= a A.P.m.j @ o s ..].5XwXfXjXfXqX;XO.h 1 1 Q m.L.C.a = AXAXAXAXAXAXAXAXAXAXAXAXAXAXAXAX",
"AXAXAXAXAXAXAXAXAXAXAXAXAXAXAXAXAXAXAXAX= a S.F.m.( A S n D +.{.sXkXjXpX}.+.D < V Z  .m.F.S.& m AXAXAXAXAXAXAXAXAXAXAXAXAXAXAXAX",
"AXAXAXAXAXAXAXAXAXAXAXAXAXAXAXAXAXAXAXAX* , XX[./ ] 7XzX$X@Xb ( lXkXkXlX( b @X$XzX7X] ! [. X, * AXAXAXAXAXAXAXAXAXAXAXAXAXAXAXAX",
"AXAXAXAXAXAXAXAXAXAXAXAXAXAXAXAXAXAXAXAXAXS ).#.2 G BXCX%X#XH Q.uXjXjXlX+.H #X%XCXnX .3 +.$.S AXAXAXAXAXAXAXAXAXAXAXAXAXAXAXAXAX",
"AXAXAXAXAXAXAXAXAXAXAXAXAXAXAXAXAXAXAXAXAXl.A 1 X D dXZX%X%XxXmXgXjXgXgXnXzX#X%XVXpXZ X $ S AXAXAXAXAXAXAXAXAXAXAXAXAXAXAXAXAXAX",
"AXAXAXAXAXAXAXAXAXAXAXAXAXAXAXAXAXAXAXAXAXh.0 . . f -X-X@X$XzXmXjXjXjXmXCXCX&X&XyX}.f   # N AXAXAXAXAXAXAXAXAXAXAXAXAXAXAXAXAXAX",
"AXAXAXAXAXAXAXAXAXAXAXAXAXAXAXAXN % w 0 = %   . .   & & c c v H uXMXkXmXMXnX7X-X~...$ = j.AXAXAXAXAXAXAXAXAXAXAXAXAXAXAXAXAXAXAX",
"AXAXAXAXAXAXAXAXAXAXAXAXAXAXAXh.S , < V V V S A A S S S g 1 & g /.tXpXsXfXwX|._...k @ M AXAXAXAXAXAXAXAXAXAXAXAXAXAXAXAXAXAXAXAX",
"AXAXAXAXAXAXAXAXAXAXAXAXAXAXAXg X.'.2XyXvXcXcXcXcXcXcXcXyX<X}.X.Z D }.eXqX.X_.) 1 @ 9 u.AXAXAXAXAXAXAXAXAXAXAXAXAXAXAXAXAXAXAXAX",
"AXAXAXAXAXAXAXAXAXAXAXAXAXAX* , }.wXqXhXbXbXbXbXbXbXbXbXhXqXeX'.& @ o.~.!.Q. .j f 0 e ;.k.AXAXAXAXAXAXAXAXAXAXAXAXAXAXAXAXAXAXAX",
"AXAXAXAXAXAXAXAXAXAXAXAXAXAX* < <XwX@.[ { { [ [ [ [ { [ [ @.iX<XV   & < < < - V z.z.y 5 i AXAXAXAXAXAXAXAXAXAXAXAXAXAXAXAXAXAXAX",
"AXAXAXAXAXAXAXAXAXAXAXAXAXAX= f rXiX[ K K J U ^ ^ P J K K [ iXyXS   % % # # O q 8X8Xg.i 5 >.AXAXAXAXAXAXAXAXAXAXAXAXAXAXAXAXAXAX",
"AXAXAXAXAXAXAXAXAXAXAXAXAXAX* d rXiX[ K L R ].tXtX].R Y K [ aXrXV + u <.u.<.e B =X0X8Xh.i >.AXAXAXAXAXAXAXAXAXAXAXAXAXAXAXAXAXAX",
"AXAXAXAXAXAXAXAXAXAXAXAXAXAX0 < rXiX[ J R =.aXNXNXsX*.R J [ iXrXV p u.f.7.5.r 6.(.9X9X=Xu ;.AXAXAXAXAXAXAXAXAXAXAXAXAXAXAXAXAXAX",
"AXAXAXAXAXAXAXAXAXAXAXAXAXAX0 d tXiX^ I ;XfXmXmXMXmXfX;XI ^ iXrXV + 2.s.z s > k (.9X9X(.>.;.AXAXAXAXAXAXAXAXAXAXAXAXAXAXAXAXAXAX",
"AXAXAXAXAXAXAXAXAXAXAXAXAXAX* d rXiX^ I >XaXaX6X6XwXaX>XI ^ iXrXV O >.a.` ` ! o.(.8X0Xc.u ;.AXAXAXAXAXAXAXAXAXAXAXAXAXAXAXAXAXAX",
"AXAXAXAXAXAXAXAXAXAXAXAXAXAX0 < rXiX[ J R _ _ %.%.%._ R J [ iXrXV   a  .:XuXqX:X..G 8X=X>.;.AXAXAXAXAXAXAXAXAXAXAXAXAXAXAXAXAXAX",
"AXAXAXAXAXAXAXAXAXAXAXAXAXAX* d rXiX[ J R E T Y Y T E R J [ iXyXC X : ' uXNXNXuX! 2 (.z.i i AXAXAXAXAXAXAXAXAXAXAXAXAXAXAXAXAXAX",
"AXAXAXAXAXAXAXAXAXAXAXAXAXAX0 d tXiXI U 3X6XE Y Y E 6X3XU I iXtXV X : ' uXNXNXiX' a z u + 0 AXAXAXAXAXAXAXAXAXAXAXAXAXAXAXAXAXAX",
"AXAXAXAXAXAXAXAXAXAXAXAXAXAX* < <XiX@.| 1X3X*.%.%.*.5X>X| @.qX<XV O a / :XuXpX:XG a 4 9 0 F AXAXAXAXAXAXAXAXAXAXAXAXAXAXAXAXAXAX",
"AXAXAXAXAXAXAXAXAXAXAXAXAXAX% , '.eXpX;X{ { 3XaXaX3X{ { ;XiXwX:X< + 9.w. .] o.x a 4 O 0 j.AXAXAXAXAXAXAXAXAXAXAXAXAXAXAXAXAXAXAX",
"AXAXAXAXAXAXAXAXAXAXAXAXAXAXAXV X.{.dXiX| { >XpXhX;X{ | iXfX}.X., 9 4.9.a : : 1 w r q F AXAXAXAXAXAXAXAXAXAXAXAXAXAXAXAXAXAXAXAX",
"AXAXAXAXAXAXAXAXAXAXAXAXAXAXAXAXf C {.wXiX;X| I I | ;XqXwX}.G - ; ; w & o o ; o   0 h.AXAXAXAXAXAXAXAXAXAXAXAXAXAXAXAXAXAXAXAXAX",
"AXAXAXAXAXAXAXAXAXAXAXAXAXAXAXAXAXf X.{.dXqX@.U U @.iXdX}.X.-   0 m q q m M m m & F AXAXAXAXAXAXAXAXAXAXAXAXAXAXAXAXAXAXAXAXAXAX",
"AXAXAXAXAXAXAXAXAXAXAXAXAXAXAXAXAXAXq k {.wX5X5X1X5XwX}.D @   0 AXAXAXAXAXAXAXAXAXAXAXAXAXAXAXAXAXAXAXAXAXAXAXAXAXAXAXAXAXAXAXAX",
"AXAXAXAXAXAXAXAXAXAXAXAXAXAXAXAXAXAXAXq X.{.sXMXmXsX}.$.Z -   m AXAXAXAXAXAXAXAXAXAXAXAXAXAXAXAXAXAXAXAXAXAXAXAXAXAXAXAXAXAXAXAX",
"AXAXAXAXAXAXAXAXAXAXAXAXAXAXAXAXAXAXAXAXV l }.eXeX{.D C Q.)., * AXAXAXAXAXAXAXAXAXAXAXAXAXAXAXAXAXAXAXAXAXAXAXAXAXAXAXAXAXAXAXAX",
"AXAXAXAXAXAXAXAXAXAXAXAXAXAXAXAXAXAXAXAXN m X.~.~.o.- - Q.!.Z N AXAXAXAXAXAXAXAXAXAXAXAXAXAXAXAXAXAXAXAXAXAXAXAXAXAXAXAXAXAXAXAX",
"AXAXAXAXAXAXAXAXAXAXAXAXAXAXAXAXAXAXAXAXAXh.V , , -     $ Z h.AXAXAXAXAXAXAXAXAXAXAXAXAXAXAXAXAXAXAXAXAXAXAXAXAXAXAXAXAXAXAXAXAX",
"AXAXAXAXAXAXAXAXAXAXAXAXAXAXAXAXAXAXAXAXAXAXN % 0 0 m q * N AXAXAXAXAXAXAXAXAXAXAXAXAXAXAXAXAXAXAXAXAXAXAXAXAXAXAXAXAXAXAXAXAXAX",
"AXAXAXAXAXAXAXAXAXAXAXAXAXAXAXAXAXAXAXAXAXAXAXl.l.*Xl.c.l.AXAXAXAXAXAXAXAXAXAXAXAXAXAXAXAXAXAXAXAXAXAXAXAXAXAXAXAXAXAXAXAXAXAXAX",
"AXAXAXAXAXAXAXAXAXAXAXAXAXAXAXAXAXAXAXAXAXAXAXAXAXAXAXAXAXAXAXAXAXAXAXAXAXAXAXAXAXAXAXAXAXAXAXAXAXAXAXAXAXAXAXAXAXAXAXAXAXAXAXAX",
"AXAXAXAXAXAXAXAXAXAXAXAXAXAXAXAXAXAXAXAXAXAXAXAXAXAXAXAXAXAXAXAXAXAXAXAXAXAXAXAXAXAXAXAXAXAXAXAXAXAXAXAXAXAXAXAXAXAXAXAXAXAXAXAX",
"AXAXAXAXAXAXAXAXAXAXAXAXAXAXAXAXAXAXAXAXAXAXAXAXAXAXAXAXAXAXAXAXAXAXAXAXAXAXAXAXAXAXAXAXAXAXAXAXAXAXAXAXAXAXAXAXAXAXAXAXAXAXAXAX"
};
