/* XPM */
static char *result[] = {
/* columns rows colors chars-per-pixel */
"64 64 245 2 ",
"   c #121616",
".  c #0C1419",
"X  c #2F1915",
"o  c #292C1C",
"O  c #171A25",
"+  c #321220",
"@  c #1C3628",
"#  c #172D25",
"$  c #3A2A25",
"%  c #25382B",
"&  c #233E32",
"*  c #263938",
"=  c #35332C",
"-  c #17371F",
";  c #440813",
":  c #46111F",
">  c #493A1D",
",  c #442A29",
"<  c #473937",
"1  c #4F382F",
"2  c #723A29",
"3  c #531C1D",
"4  c #344217",
"5  c #1D641D",
"6  c #216918",
"7  c #22761A",
"8  c #294626",
"9  c #275823",
"0  c #264539",
"q  c #3F4738",
"w  c #374334",
"e  c #2B5738",
"r  c #1A6E25",
"t  c #236A23",
"y  c #297827",
"u  c #2C7D32",
"i  c #357B3A",
"p  c #356D2B",
"a  c #1E581A",
"s  c #52481D",
"d  c #4C413E",
"f  c #44493A",
"g  c #49513D",
"h  c #534D2A",
"j  c #684729",
"k  c #69542D",
"l  c #674C3F",
"z  c #6A5633",
"x  c #794C30",
"c  c #64652C",
"v  c #716F2D",
"b  c #4B7538",
"n  c #593744",
"m  c #36684B",
"M  c #397356",
"N  c #4A444A",
"B  c #514F4C",
"V  c #6D534C",
"C  c #6E7748",
"Z  c #746C46",
"A  c #666067",
"S  c #9A1819",
"D  c #8F070B",
"F  c #BB060B",
"G  c #881F22",
"H  c #B81E21",
"J  c #9C332D",
"K  c #9B3733",
"L  c #9D2A27",
"P  c #A62625",
"I  c #BB2323",
"U  c #DF080E",
"Y  c #E31A1C",
"T  c #C41F20",
"R  c #D13936",
"E  c #DF2222",
"W  c #E92F2E",
"Q  c #875925",
"!  c #994636",
"~  c #875935",
"^  c #93533B",
"/  c #894F2E",
"(  c #A2443E",
")  c #956629",
"_  c #906B34",
"`  c #A27A35",
"'  c #8F5F18",
"]  c #E8473F",
"[  c #885946",
"{  c #945D4D",
"}  c #A24A45",
"|  c #A9554D",
" . c #AA5A52",
".. c #B05E52",
"X. c #8A6B48",
"o. c #977546",
"O. c #8E7B5C",
"+. c #956E51",
"@. c #A67B47",
"#. c #AA7D57",
"$. c #B66658",
"%. c #9D7E69",
"&. c #A57C60",
"*. c #E74B45",
"=. c #C16E5D",
"-. c #E66F5F",
";. c #F47B68",
":. c #2C8722",
">. c #37883B",
",. c #3B953D",
"<. c #39983B",
"1. c #2F8D2B",
"2. c #3EA939",
"3. c #39AB22",
"4. c #349C1F",
"5. c #57963C",
"6. c #4E8D3C",
"7. c #799537",
"8. c #46A83B",
"9. c #4DB22F",
"0. c #7FAC38",
"q. c #3ECD2D",
"w. c #42C626",
"e. c #57C82B",
"r. c #47D425",
"t. c #58D828",
"y. c #4CCA38",
"u. c #47D633",
"i. c #6DCC2D",
"p. c #42E922",
"a. c #4CEA22",
"s. c #4BE428",
"d. c #53F324",
"f. c #49E431",
"g. c #74E923",
"h. c #71FF24",
"j. c #3A8A40",
"k. c #359342",
"l. c #469955",
"z. c #508D43",
"x. c #45B947",
"c. c #43A74C",
"v. c #5A9969",
"b. c #53B567",
"n. c #5BAD76",
"m. c #62A865",
"M. c #6FAC6C",
"N. c #60914F",
"B. c #45C249",
"V. c #6CC47C",
"C. c #5FC77A",
"Z. c #9D9335",
"A. c #A88435",
"S. c #B59537",
"D. c #A89134",
"F. c #BDA130",
"G. c #CCB22C",
"H. c #CB9B33",
"J. c #B6C624",
"K. c #D9D51F",
"L. c #FBFB1B",
"P. c #D3CA2E",
"I. c #E8DA25",
"U. c #EAD938",
"Y. c #EED731",
"T. c #D6EF23",
"R. c #D3F225",
"E. c #ECE527",
"W. c #F5EA27",
"Q. c #FBF122",
"!. c #FFFC23",
"~. c #F3E836",
"^. c #EEE136",
"/. c #E0CD1F",
"(. c #B38D45",
"). c #BA9644",
"_. c #AB845C",
"`. c #B38A5A",
"'. c #B58E58",
"]. c #AD8B69",
"[. c #B78E6A",
"{. c #BC976C",
"}. c #B7AC7F",
"|. c #C79659",
" X c #D0B056",
".X c #C39A6A",
"XX c #C49D76",
"oX c #DA9577",
"OX c #C9A765",
"+X c #DAB669",
"@X c #C9A27B",
"#X c #C5A57A",
"$X c #CEAD7E",
"%X c #E3B47E",
"&X c #E5C767",
"*X c #E5C675",
"=X c #EED84F",
"-X c #383AA7",
";X c #3F42AA",
":X c #2F4EEE",
">X c #6674D4",
",X c #4B70FF",
"<X c #6D7FEB",
"1X c #5468D8",
"2X c #65D184",
"3X c #6ECC85",
"4X c #B49E8A",
"5X c #D19C83",
"6X c #CCAD8A",
"7X c #D6A686",
"8X c #D6B386",
"9X c #CFB996",
"0X c #D8B997",
"qX c #E3BB95",
"wX c #E9B08B",
"eX c #C8B7AE",
"rX c #90CA8B",
"tX c #A8E7AD",
"yX c #E8C69A",
"uX c #F4CB9D",
"iX c #F3CE95",
"pX c #D4C5A5",
"aX c #DAC7A4",
"sX c #D6CFB0",
"dX c #EEC6A3",
"fX c #E8CBA6",
"gX c #F5CBA6",
"hX c #EBD5AB",
"jX c #F1D6AC",
"kX c #F3DBAF",
"lX c #F3D6B6",
"zX c #FAE3BB",
"xX c #FAE5BA",
"cX c #DCD1A5",
"vX c #B0B7DD",
"bX c #D4DADA",
"nX c #D4D4CF",
"mX c #EBDBC3",
"MX c #EFDAD9",
"NX c #FAE9C6",
"BX c #FCF5CB",
"VX c #FFF9D0",
"CX c #DCDBEF",
"ZX c #F1F4F6",
"AX c None",
/* pixels */
"AXAXAXAXAXAXAXAXAXAXAXAXAXAXAXAXAXAXAXAXAXAXAXAXAXAXAXAXAXAXAXAXAXAXAXAXAXAXAXAXAXAXAXAXAXAXAXAXAXAXAXAXAXAXAXAXAXAXAXAXAXAXAXAX",
"AXAXAXAXAXAXAXAXAXAXAXAXAXAXAXAXAXAXAXAXAXAXAXAXAXAXAXAXAXAXAXAXAXAX2XC.C.AXAXAXAXAXAXAXAXAXAXAXAXAXAXAXAXAXAXAXAXAXAXAXAXAXAXAX",
"AXAXAXAXAXAXAXAXAXAXAXAXAXAXAXAXAXAXAXAXAXAXAXAXAXAXAXAXAXAXAXAXAXAXl.u u l.AXAXAXAXAXAXAXAXAXAXAXAXAXAXAXAXAXAXAXAXAXAXAXAXAXAX",
"AXAXAXAXAXAXAXAXAXAXAXAXAXAXAXAXAXAXAXAXAXAXAXAXAXAXAXAXAXAXAXAX2Xb.>.7 7 >.b.AXAXAXAXAXAXAXAXAXAXAXAXAXAXAXAXAXAXAXAXAXAXAXAXAX",
"AXAXAXAXAXAXAXAXAXAXAXAXAXAXAXAXAXAXAXAXAXAXAXAXAXAXAXAXAXAXl.>.>.k.k.2.<.k.>.l.AXAXAXAXAXAXAXAXAXAXAXAXAXAXAXAXAXAXAXAXAXAXAXAX",
"AXAXAXAXAXAXAXAXAXAXAXAXAXAXAXAXAXAXAXAXAXAXAXAXAXAXAXAXAXb.>.a 5 y <.2.x.2.7 u AXAXAXAXAXAXAXAXAXAXAXAXAXAXAXAXAXAXAXAXAXAXAXAX",
"AXAXAXAXAXAXAXAXAXAXAXAXAXAXAXAXAXAXAXAXAXAXAXAXAXAXAXAXc.y t 6 t t y >.8.2.y j.AXAXAXAXAXAXAXAXAXAXAXAXAXAXAXAXAXAXAXAXAXAXAXAX",
"AXAXAXAXAXAXAXAXAXAXAXAXAXAXAXAXAXAXAXAXAXAXAXAXAXAX2Xb.j.y :.1.1.:.y 1.<.<.7 M AXAXAXAXAXAXAXAXAXAXAXAXAXAXAXAXAXAXAXAXAXAXAXAX",
"AXAXAXAXAXAXAXAXAXAXAXAXAXAXAXAXAXAXAXAXAXAXAXAXl.:.M >.<.8.3.r.r.q.2.<.1.t 5 j.2XAXAXAXAXAXAXAXAXAXAXAXAXAXAXAXAXAXAXAXAXAXAXAX",
"AXAXAXAXAXAXAXAXAXAXAXAXAXAXAXAXAXAXAXAXAXAXV.b.>.6 :.:.9.y.a.d.d.s.y.9.1.:.y ,.b.2XAXAXAXAXAXAXAXAXAXAXAXAXAXAXAXAXAXAXAXAXAXAX",
"AXAXAXAXAXAXAXAXAXAXAXAXAXAXAXAXAXAXAXAXAXAXl.>.<.2.q.r.u.s.a.a.a.a.r.r.r.9.2.2.>.l.2XAXAXAXAXAXAXAXAXAXAXAXAXAXAXAXAXAXAXAXAXAX",
"AXAXAXAXAXAXAXAXAXAXAXAXAXAXAXAXAXAXAXAXAXb.>.y 2.y.s.a.a.a.a.a.a.a.a.d.a.s.u.2.7 >.b.AXAXAXAXAXAXAXAXAXAXAXAXAXAXAXAXAXAXAXAXAX",
"AXAXAXAXAXAXAXAXAXAXAXAXAXAXAXAXAXAXAXAXl.>.<.2.r.d.p.p.p.p.p.p.p.p.p.p.p.a.a.u.8.<.>.l.AXAXAXAXAXAXAXAXAXAXAXAXAXAXAXAXAXAXAXAX",
"AXAXAXAXAXAXAXAXAXAXAXAXAXAXAXAXAXAXAXAXy 7 2.y.e.i.g.g.g.g.g.g.g.g.g.g.g.g.i.e.y.8.7 :.AXAXAXAXAXAXAXAXAXAXAXAXAXAXAXAXAXAXAXAX",
"AXAXAXAXAXAXAXAXAXAXAXAXAXAXAXAXAXAXAXAXm :.q.t.Z.Z.P.R.T.T.T.R.T.T.T.T.E.P.Z.0.t.w.7 M AXAXAXAXAXAXAXAXAXAXAXAXAXAXAXAXAXAXAXAX",
"AXAXAXAXAXAXAXAXAXAXAXAXAXAXAXAXAXAXAXb.>.4.e.i.Z.H.E.L.Q.Q.Q.Q.Q.Q.Q.Q.!.I.H.Z.i.e.4.k.m.AXAXAXAXAXAXAXAXAXAXAXAXAXAXAXAXAXAXAX",
"AXAXAXAXAXAXAXAXAXAXAXAXAXAXAXAXAXAXC z ,.5.7.Z.P.I.W.Q.Q.Q.Q.W.Q.Q.Q.Q.Q.W.I.P.D.7.8.6.k C AXAXAXAXAXAXAXAXAXAXAXAXAXAXAXAXAXAX",
"AXAXAXAXAXAXAXAXAXAXAXAXAXAXAXAXAXM.X.~ z.N.A.).^.!.~.^.W.Q.Q.Q.Q.~.~.^.I.I.!.Y.H.A.5.5.v +.M.AXAXAXAXAXAXAXAXAXAXAXAXAXAXAXAXAX",
"AXAXAXAXAXAXAXAXAXAXAXAXAXAXAXAXZ X.6X6Xv z ].+X^.~.&X+X~.Q.W.Q.Q.~.&X+X(.F.E.!.E.G.v V 6X6XX.C AXAXAXAXAXAXAXAXAXAXAXAXAXAXAXAX",
"AXAXAXAXAXAXAXAXAXAXAXAXAXAXAXAXk ^ jXhX{ ~ OX*XU.U.&X&X~.Q.Q.Q.Q.^.+X{.#.(.P.E.!./.' { lXgX^ j AXAXAXAXAXAXAXAXAXAXAXAXAXAXAXAX",
"AXAXAXAXAXAXAXAXAXAXAXAXAXAXAXAXk ^ fXjX`.A.U.^.S.S.U.^.W.Q.Q.Q.!.E.)._.OX.X(.H.W.I.A.#.jXfX^ k AXAXAXAXAXAXAXAXAXAXAXAXAXAXAXAX",
"AXAXAXAXAXAXAXAXAXAXAXAXAXAXAXAXz ^ 0XyX_.A./.P.(.S.Y.L.Q.W.~.U.K.G.S.].$X8X@.A.U.U.S.`.gXqX^ z AXAXAXAXAXAXAXAXAXAXAXAXAXAXAXAX",
"AXAXAXAXAXAXAXAXAXAXAXAXAXAXAXAXz ^ 7X8X~ x A.|.XX+X^.L.L.~.&X+X_ ) '.8XhX0X_.@.+X+X@.#.8X$X/ z AXAXAXAXAXAXAXAXAXAXAXAXAXAXAXAX",
"AXAXAXAXAXAXAXAXAXAXAXAXAXAXAXAXj x `.'._ Q ~ @.XX*X=X~.Y.P.OX&.[ { @XyXxXfX.X`.[.{.).)..X#.2 z AXAXAXAXAXAXAXAXAXAXAXAXAXAXAXAX",
"AXAXAXAXAXAXAXAXAXAXAXAXAXAXAXAXw X 2 ` G.G.' ~ @XiX*X X|.D.~ [ #.@XyXxXBXxXyX'.[ _ G.P.` 2 X q AXAXAXAXAXAXAXAXAXAXAXAXAXAXAXAX",
"AXAXAXAXAXAXAXAXAXAXAXAXAXAXAXAXAX= , Q I.E.) x &.[.#X{.` ^ x _ $XyXhXjXqX8XXX&.x ) W.I.Q , = AXAXAXAXAXAXAXAXAXAXAXAXAXAXAXAXAX",
"AXAXAXAXAXAXAXAXAXAXAXAXAXAXAXAXAXAX* j K.~.S.x 1 h _ @.Q ~ #.$XyXhXyX@X@.x > < ~ D.W.K.j * AXAXAXAXAXAXAXAXAXAXAXAXAXAXAXAXAXAX",
"AXAXAXAXAXAXAXAXAXAXAXAXAXAXAXAXAXAX& s P.U.S.~ B B A X.2 / XXuXxXhX$X#.V < N B X.S.^.G.> & AXAXAXAXAXAXAXAXAXAXAXAXAXAXAXAXAXAX",
"AXAXAXAXAXAXAXAXAXAXAXAXAXAXAXAXAXAX& , OX+X^ X.eXvX>X;X1 / 6XzXNX0X{ n -X1XvXeXX.) +XOX, & AXAXAXAXAXAXAXAXAXAXAXAXAXAXAXAXAXAX",
"AXAXAXAXAXAXAXAXAXAXAXAXAXAXAXAXAXAXAXB %.&.2 Z MXZX,X:XA &.dXzXzXdX#.A :X,XCXmX[ 2 &.%.B AXAXAXAXAXAXAXAXAXAXAXAXAXAXAXAXAXAXAX",
"AXAXAXAXAXAXAXAXAXAXAXAXAXAXAXAXAXAXAXAXB $ X V fXCX,X:XvXNXmXzXxXzXNXvX:X,XCXhXV   , B AXAXAXAXAXAXAXAXAXAXAXAXAXAXAXAXAXAXAXAX",
"AXAXAXAXAXAXAXAXAXAXAXAXAXAXAXAXAXAXAXAXAX@ . < #XpX>X<XCXZXNXzXkXNXZXCX<X>XpX$XN   @ m AXAXAXAXAXAXAXAXAXAXAXAXAXAXAXAXAXAXAXAX",
"AXAXAXAXAXAXAXAXAXAXAXAXAXAXAXAXAXAXAXAXAXAX% X +..X4XeXmXNXxXxXzXzXNXmXeX4X{.o.$ * AXAXAXAXAXAXAXAXAXAXAXAXAXAXAXAXAXAXAXAXAXAX",
"AXAXAXAXAXAXAXAXAXAXAXAXAXAXAXAXAXAXAXAXAXAXAXf k X.|.8XyXjXjXhXjXkXjXuX%X.Xo.k $ e AXAXAXAXAXAXAXAXAXAXAXAXAXAXAXAXAXAXAXAXAXAX",
"AXAXAXAXAXAXAXAXAXAXAXAXAXAXAXAXAXAXAXAXAXAXAXAXg h o.|.wXyXyXyXqXyXwX%X.X_ 1 $ 9 5 :.AXAXAXAXAXAXAXAXAXAXAXAXAXAXAXAXAXAXAXAXAX",
"AXAXAXAXAXAXAXAXAXAXAXAXAXAXAXAXAXAXAXAXAXAXAXAX* X k _ _.`.].].].].{._._ k = @ i >.>.z.AXAXAXAXAXAXAXAXAXAXAXAXAXAXAXAXAXAXAXAX",
"AXAXAXAXAXAXAXAXAXAXAXAXAXAXm & & % 8 & * & & =   . o $ = < < < < < < < , = 9 i m.3XV.M.>.k.AXAXAXAXAXAXAXAXAXAXAXAXAXAXAXAXAXAX",
"AXAXAXAXAXAXAXAXAXAXAXAXAXv.g , < N N N N N N B B B N f f = O O # @ @ % & 8 5 >.rXtXtXrXN.z.AXAXAXAXAXAXAXAXAXAXAXAXAXAXAXAXAXAX",
"AXAXAXAXAXAXAXAXAXAXAXAXAXg O.XX9XsXnXbXbXbXbXbXbXnXsX9X#X+., % i ,.,.>.,.>.r z.3XtXsXhXpX4XX.C AXAXAXAXAXAXAXAXAXAXAXAXAXAXAXAX",
"AXAXAXAXAXAXAXAXAXAXAXAX% , #XuXyXlXMXMXMXMXMXMXMXMXhXdXuX#X< @ <.B.B.x.B.8.p i b.rXxXxXVXyX^ j AXAXAXAXAXAXAXAXAXAXAXAXAXAXAXAX",
"AXAXAXAXAXAXAXAXAXAXAXAX* 1 9XgX=.} | | } } } } | } } -.uX9XN # >.x.x.x.9.8.h s p m.aXBXVXfX! j AXAXAXAXAXAXAXAXAXAXAXAXAXAXAXAX",
"AXAXAXAXAXAXAXAXAXAXAXAX0 d pXdXK D D S J K K K S D 3 K dXpXN @ 5.i.N.z.6.5.v s 6 6.4XdXdX#XX.C AXAXAXAXAXAXAXAXAXAXAXAXAXAXAXAX",
"AXAXAXAXAXAXAXAXAXAXAXAX8 d pXdX| D F R oXaXfXoXR U D } dXpXN 4 J.K._ j j v 9.9.:.p v { ^ X.AXAXAXAXAXAXAXAXAXAXAXAXAXAXAXAXAXAX",
"AXAXAXAXAXAXAXAXAXAXAXAX& d aXdX} S R ;.gXVXVXgX;.R S } gX0XN > K.W._ s s v a.p.:.9 , 2 j C AXAXAXAXAXAXAXAXAXAXAXAXAXAXAXAXAXAX",
"AXAXAXAXAXAXAXAXAXAXAXAX0 < pXdX} K 5XlXNXBXBXNXlX7XK ( yXpXN s /.E.0.2.9.t.d.r.4.a X < AXAXAXAXAXAXAXAXAXAXAXAXAXAXAXAXAXAXAXAX",
"AXAXAXAXAXAXAXAXAXAXAXAX& d pXdX( K 7XgXdXwXwXqXgX5XK } dXeXN 4 J.R.i.q.f.s.r.3.7 9 w M AXAXAXAXAXAXAXAXAXAXAXAXAXAXAXAXAXAXAXAX",
"AXAXAXAXAXAXAXAXAXAXAXAX& < aXdX} S R *.*.*.*.*.] R S } dXpXN 4 t.h.d.s.u.8.p % # e n.AXAXAXAXAXAXAXAXAXAXAXAXAXAXAXAXAXAXAXAXAX",
"AXAXAXAXAXAXAXAXAXAXAXAX& N 0XgX} S *.W Y U Y Y ] R S } dXpXN - 4.w.w.9.8.b $ + : d v.AXAXAXAXAXAXAXAXAXAXAXAXAXAXAXAXAXAXAXAXAX",
"AXAXAXAXAXAXAXAXAXAXAXAX& d aXdXK K wXwX] U U ] wXwXK K dXaXB   % 8 8 h j 2 2 G I P < M AXAXAXAXAXAXAXAXAXAXAXAXAXAXAXAXAXAXAXAX",
"AXAXAXAXAXAXAXAXAXAXAXAX& < 9XdX$...6XqX-.] *.-.wX7X .$.dX9XN   * * O + G H P I W T ; & AXAXAXAXAXAXAXAXAXAXAXAXAXAXAXAXAXAXAXAX",
"AXAXAXAXAXAXAXAXAXAXAXAX* , XXuXdX5X|  .wXgXlXwX| | 5XdXiXXX, @ AXAX* ; H Y E W Y T ; & AXAXAXAXAXAXAXAXAXAXAXAXAXAXAXAXAXAXAXAX",
"AXAXAXAXAXAXAXAXAXAXAXAXAXg O.@XkXyX..| 5XfXgX5X|  .dXmX@XO.B AXAXAXAX1 P T T T T P < AXAXAXAXAXAXAXAXAXAXAXAXAXAXAXAXAXAXAXAXAX",
"AXAXAXAXAXAXAXAXAXAXAXAXAXAXf l @XuXyX5X .K K  .5XdXuX@Xl f AXAXAXAXAXAX< ; : : ; 1 AXAXAXAXAXAXAXAXAXAXAXAXAXAXAXAXAXAXAXAXAXAX",
"AXAXAXAXAXAXAXAXAXAXAXAXAXAXAXq O.@XkXdX$.K J $.dXlXXXO.q AXAXAXAXAXAXAXAX0 0 0 0 AXAXAXAXAXAXAXAXAXAXAXAXAXAXAXAXAXAXAXAXAXAXAX",
"AXAXAXAXAXAXAXAXAXAXAXAXAXAXAXAXq l @XuX0X0XqXdXuXXXV f AXAXAXAXAXAXAXAXAXAXAXAXAXAXAXAXAXAXAXAXAXAXAXAXAXAXAXAXAXAXAXAXAXAXAXAX",
"AXAXAXAXAXAXAXAXAXAXAXAXAXAXAXAXAXq O.@XjXNXxXjXXXO.f AXAXAXAXAXAXAXAXAXAXAXAXAXAXAXAXAXAXAXAXAXAXAXAXAXAXAXAXAXAXAXAXAXAXAXAXAX",
"AXAXAXAXAXAXAXAXAXAXAXAXAXAXAXAXAXAXf V #XiXiXXXl f AXAXAXAXAXAXAXAXAXAXAXAXAXAXAXAXAXAXAXAXAXAXAXAXAXAXAXAXAXAXAXAXAXAXAXAXAXAX",
"AXAXAXAXAXAXAXAXAXAXAXAXAXAXAXAXAXAXm q O.[.{.O.f m AXAXAXAXAXAXAXAXAXAXAXAXAXAXAXAXAXAXAXAXAXAXAXAXAXAXAXAXAXAXAXAXAXAXAXAXAXAX",
"AXAXAXAXAXAXAXAXAXAXAXAXAXAXAXAXAXAXAXAXg , , g v.AXAXAXAXAXAXAXAXAXAXAXAXAXAXAXAXAXAXAXAXAXAXAXAXAXAXAXAXAXAXAXAXAXAXAXAXAXAXAX",
"AXAXAXAXAXAXAXAXAXAXAXAXAXAXAXAXAXAXAXAXm % % m AXAXAXAXAXAXAXAXAXAXAXAXAXAXAXAXAXAXAXAXAXAXAXAXAXAXAXAXAXAXAXAXAXAXAXAXAXAXAXAX",
"AXAXAXAXAXAXAXAXAXAXAXAXAXAXAXAXAXAXAXAXAXn.n.AXAXAXAXAXAXAXAXAXAXAXAXAXAXAXAXAXAXAXAXAXAXAXAXAXAXAXAXAXAXAXAXAXAXAXAXAXAXAXAXAX",
"AXAXAXAXAXAXAXAXAXAXAXAXAXAXAXAXAXAXAXAXAXAXAXAXAXAXAXAXAXAXAXAXAXAXAXAXAXAXAXAXAXAXAXAXAXAXAXAXAXAXAXAXAXAXAXAXAXAXAXAXAXAXAXAX",
"AXAXAXAXAXAXAXAXAXAXAXAXAXAXAXAXAXAXAXAXAXAXAXAXAXAXAXAXAXAXAXAXAXAXAXAXAXAXAXAXAXAXAXAXAXAXAXAXAXAXAXAXAXAXAXAXAXAXAXAXAXAXAXAX",
"AXAXAXAXAXAXAXAXAXAXAXAXAXAXAXAXAXAXAXAXAXAXAXAXAXAXAXAXAXAXAXAXAXAXAXAXAXAXAXAXAXAXAXAXAXAXAXAXAXAXAXAXAXAXAXAXAXAXAXAXAXAXAXAX"
};
