/* XPM */
static char *result[] = {
/* columns rows colors chars-per-pixel */
"64 64 236 2 ",
"   c #121616",
".  c #140D16",
"X  c #3A141B",
"o  c #2A1014",
"O  c #292C1C",
"+  c #171B24",
"@  c #2A1723",
"#  c #1C3529",
"$  c #1C2E29",
"%  c #3A2924",
"&  c #25382B",
"*  c #233E31",
"=  c #273938",
"-  c #34342E",
";  c #17371F",
":  c #4F3A19",
">  c #6F2B1D",
",  c #442A29",
"<  c #463937",
"1  c #4E372D",
"2  c #763A25",
"3  c #6C382A",
"4  c #681E20",
"5  c #344317",
"6  c #1E631B",
"7  c #22761A",
"8  c #206B1A",
"9  c #294826",
"0  c #3F4738",
"q  c #364435",
"w  c #294B31",
"e  c #1A6F25",
"r  c #236A24",
"t  c #2A7929",
"y  c #2B7D31",
"u  c #347B38",
"i  c #366A27",
"p  c #1E581A",
"a  c #51481B",
"s  c #4C413E",
"d  c #44493A",
"f  c #49513D",
"g  c #4B4827",
"h  c #69542B",
"j  c #674C3F",
"k  c #6A5633",
"l  c #744D31",
"z  c #507238",
"x  c #6C6331",
"c  c #61401A",
"v  c #593744",
"b  c #37694B",
"n  c #294A40",
"m  c #4A444A",
"M  c #514F4C",
"N  c #6D534C",
"B  c #757047",
"V  c #685F67",
"C  c #9A1819",
"Z  c #8F070B",
"A  c #BB060B",
"S  c #831F20",
"D  c #9C332D",
"F  c #9C3934",
"G  c #993230",
"H  c #972520",
"J  c #DF080E",
"K  c #E31A1C",
"L  c #D13936",
"P  c #E73C3A",
"I  c #8D5619",
"U  c #875925",
"Y  c #875935",
"T  c #93543B",
"R  c #974533",
"E  c #A2443E",
"W  c #956629",
"Q  c #906A35",
"!  c #A27A35",
"~  c #E8473F",
"^  c #885946",
"/  c #8F5649",
"(  c #A24A45",
")  c #A9554D",
"_  c #AA5A52",
"`  c #B05E52",
"'  c #8B6A47",
"]  c #977546",
"[  c #8E7B5C",
"{  c #987958",
"}  c #8F694A",
"|  c #A67B47",
" . c #AA7D57",
".. c #B66658",
"X. c #9D7E69",
"o. c #A57C60",
"O. c #E74B45",
"+. c #C16E5D",
"@. c #E66F5F",
"#. c #F47B68",
"$. c #2D8823",
"%. c #37873A",
"&. c #3B993D",
"*. c #39943B",
"=. c #308C2D",
"-. c #3EA939",
";. c #359C1F",
":. c #56903A",
">. c #799537",
",. c #48A83B",
"<. c #47B131",
"1. c #65B72C",
"2. c #3ECE27",
"3. c #42C626",
"4. c #57C82B",
"5. c #46D425",
"6. c #4CCA38",
"7. c #51D62F",
"8. c #6DCB2B",
"9. c #42E922",
"0. c #4CEA22",
"q. c #4DE429",
"w. c #50F222",
"e. c #74E923",
"r. c #6AF122",
"t. c #398A41",
"y. c #3A9447",
"u. c #469955",
"i. c #509245",
"p. c #45BA47",
"a. c #44A74E",
"s. c #589A6A",
"d. c #53B567",
"f. c #5DB878",
"g. c #7ABE7D",
"h. c #6CAE6E",
"j. c #6C9C72",
"k. c #68C67D",
"l. c #45C349",
"z. c #968E30",
"x. c #A88435",
"c. c #A29734",
"v. c #B59537",
"b. c #B08934",
"n. c #BDA130",
"m. c #CCB22C",
"M. c #CB9B33",
"N. c #B5C924",
"B. c #D9D51F",
"V. c #FBFB1B",
"C. c #D3CA2D",
"Z. c #E8DA25",
"A. c #EAD938",
"S. c #EED62F",
"D. c #D6EF23",
"F. c #D5EB22",
"G. c #EBE427",
"H. c #F5EA27",
"J. c #FBF122",
"K. c #FFFC23",
"L. c #F3E836",
"P. c #EEE136",
"I. c #B38D45",
"U. c #BA9644",
"Y. c #AB845C",
"T. c #B38A5A",
"R. c #B58E58",
"E. c #AD8B69",
"W. c #B78E6A",
"Q. c #BB9368",
"!. c #BF9E75",
"~. c #88B078",
"^. c #C7975F",
"/. c #C49545",
"(. c #D0B056",
"). c #C39A6A",
"_. c #C49D76",
"`. c #DA9577",
"'. c #C9A765",
"]. c #DAB669",
"[. c #C9A27B",
"{. c #C5A679",
"}. c #CEAD7E",
"|. c #E3B47E",
" X c #E5C767",
".X c #E5C675",
"XX c #EED84F",
"oX c #383AA7",
"OX c #3F42AA",
"+X c #2F4EEE",
"@X c #6674D4",
"#X c #4B70FF",
"$X c #6D7FEB",
"%X c #5468D8",
"&X c #65D184",
"*X c #71CB85",
"=X c #5FD283",
"-X c #B3998F",
";X c #D19C83",
":X c #C8A886",
">X c #D6A686",
",X c #D6B386",
"<X c #CFB996",
"1X c #D8B997",
"2X c #E3BB95",
"3X c #E9B08B",
"4X c #C8B7AE",
"5X c #8DCF91",
"6X c #97E7A6",
"7X c #E9C699",
"8X c #F4CB9D",
"9X c #F3CE95",
"0X c #D4C5A5",
"qX c #DAC6A5",
"wX c #D5CCB4",
"eX c #EEC6A3",
"rX c #E7C9A5",
"tX c #F5CBA6",
"yX c #ECD3AB",
"uX c #F1D6AC",
"iX c #F3DBAF",
"pX c #F3D6B6",
"aX c #FAE3BB",
"sX c #FAE5BA",
"dX c #DEC098",
"fX c #B0B7DD",
"gX c #D4DADA",
"hX c #D4D4CF",
"jX c #EBDBC3",
"kX c #EFDAD9",
"lX c #F9E9C6",
"zX c #FBF6CA",
"xX c #FFFAD1",
"cX c #DCDBEF",
"vX c #F1F4F6",
"bX c None",
/* pixels */
"bXbXbXbXbXbXbXbXbXbXbXbXbXbXbXbXbXbXbXbXbXbXbXbXbXbXbXbXbXbXbXbXbXbXbXbXbXbXbXbXbXbXbXbXbXbXbXbXbXbXbXbXbXbXbXbXbXbXbXbXbXbXbXbX",
"bXbXbXbXbXbXbXbXbXbXbXbXbXbXbXbXbXbXbXbXbXbXbXbXbXbXbXbXbXbXbXbXbXbXbXbXbXbXbXbXbXbXbXbXbXbXbXbXbXbXbXbXbXbXbXbXbXbXbXbXbXbXbXbX",
"bXbXbXbXbXbXbXbXbXbXbXbXbXbXbXbXbXbXbXbXbXbXbXbXbXbXbXbXbXbXbXbXbXbXbXbXbXbXbXbXbXbXbXbXbXbXbXbXbXbXbXbXbXbXbXbXbXbXbXbXbXbXbXbX",
"bXbXbXbXbXbXbXbXbXbXbXbXbXbXbXbXbXbXbXbXbXbXbXbXbXbXbXbXbXbXbXbXbXbXbXbXbXbXbXbXbXbXbXbXbXbXbXbXbXbXbXbXbXbXbXbXbXbXbXbXbXbXbXbX",
"bXbXbXbXbXbXbXbXbXbXbXbXbXbXbXbXbXbXbXbXbXbXbXbXbXbXbXbXu.%.y u.bXbXbXbXbXbXbXbXbXbXbXbXbXbXbXbXbXbXbXbXbXbXbXbXbXbXbXbXbXbXbXbX",
"bXbXbXbXbXbXbXbXbXbXbXbXbXbXbXbXbXbXbXbXbXbXbXbXbXbXbXd.%.8 8 t.d.=Xk.&XbXbXbXbXbXbXbXbXbXbXbXbXbXbXbXbXbXbXbXbXbXbXbXbXbXbXbXbX",
"bXbXbXbXbXbXbXbXbXbXbXbXbXbXbXbXbXbXbXbXbXbXbXbXbXbXu.%.&.&.-.-.*.t.=.u.&XbXbXbXbXbXbXbXbXbXbXbXbXbXbXbXbXbXbXbXbXbXbXbXbXbXbXbX",
"bXbXbXbXbXbXbXbXbXbXbXbXbXbXbXbXbXbXbXbXbXbXbXbXbXbXy r -.p.a.=.t 6 p %.d.&XbXbXbXbXbXbXbXbXbXbXbXbXbXbXbXbXbXbXbXbXbXbXbXbXbXbX",
"bXbXbXbXbXbXbXbXbXbXbXbXbXbXbXbXbXbXbXbXbXbXbXbXbXbX%.t -.a.=.r r e 6 r u a.&XbXbXbXbXbXbXbXbXbXbXbXbXbXbXbXbXbXbXbXbXbXbXbXbXbX",
"bXbXbXbXbXbXbXbXbXbXbXbXbXbXbXbXbXbXbXbXbXbXbXbXbXbX%.t *.&.=.$.$.$.=.$.7 %.d.&Xk.&XbXbXbXbXbXbXbXbXbXbXbXbXbXbXbXbXbXbXbXbXbXbX",
"bXbXbXbXbXbXbXbXbXbXbXbXbXbXbXbXbXbXbXbXbXbXbXbXbX&Xt.6 r =.&.-.3.5.5.3.-.*.%.y y u.&XbXbXbXbXbXbXbXbXbXbXbXbXbXbXbXbXbXbXbXbXbX",
"bXbXbXbXbXbXbXbXbXbXbXbXbXbXbXbXbXbXbXbXbXbXbXbX&Xd.%.t $.=.-.6.7.w.w.q.6.<.=.$.8 %.d.&XbXbXbXbXbXbXbXbXbXbXbXbXbXbXbXbXbXbXbXbX",
"bXbXbXbXbXbXbXbXbXbXbXbXbXbXbXbXbXbXbXbXbXbXbX&Xu.%.*.<.3.5.7.7.0.0.0.0.q.7.5.<.-.&.u u.&XbXbXbXbXbXbXbXbXbXbXbXbXbXbXbXbXbXbXbX",
"bXbXbXbXbXbXbXbXbXbXbXbXbXbXbXbXbXbXbXbXbXbXbXd.%.t -.6.q.0.0.0.0.0.0.9.0.0.w.5.6.-.$.%.d.bXbXbXbXbXbXbXbXbXbXbXbXbXbXbXbXbXbXbX",
"bXbXbXbXbXbXbXbXbXbXbXbXbXbXbXbXbXbXbXbXbXbXy.t.y.<.5.q.0.9.9.9.9.9.9.9.9.9.9.0.w.7.-.&.%.u.bXbXbXbXbXbXbXbXbXbXbXbXbXbXbXbXbXbX",
"bXbXbXbXbXbXbXbXbXbXbXbXbXbXbXbXbXbXbXbXbXbX=.7 -.6.7.8.e.e.e.e.e.e.e.e.e.e.e.e.8.7.6.-.7 y bXbXbXbXbXbXbXbXbXbXbXbXbXbXbXbXbXbX",
"bXbXbXbXbXbXbXbXbXbXbXbXbXbXbXbXbXbXbXbXbXk.%.7 2.7.z.c.C.D.D.D.D.D.D.D.D.D.D.B.c.>.7.2.7 %.bXbXbXbXbXbXbXbXbXbXbXbXbXbXbXbXbXbX",
"bXbXbXbXbXbXbXbXbXbXbXbXbXbXbXbXbXbXbXbX*Xh.*.=.4.8.c.n.Z.K.J.J.J.J.J.J.J.J.K.S.M.x.8.4.=.%.f.bXbXbXbXbXbXbXbXbXbXbXbXbXbXbXbXbX",
"bXbXbXbXbXbXbXbXbXbXbXbXbXbXbXbXbXbXbXbXB k *.,.>.c.C.Z.H.J.J.J.J.J.J.J.J.J.J.H.G.C.c.>.,.,.x B bXbXbXbXbXbXbXbXbXbXbXbXbXbXbXbX",
"bXbXbXbXbXbXbXbXbXbXbXbXbXbXbXbXbXbXbXh.} Y i.i.] /.A.K.L.L.H.J.J.J.J.H.P.P.Z.Z.J.S.M.! :.:.Y } h.bXbXbXbXbXbXbXbXbXbXbXbXbXbXbX",
"bXbXbXbXbXbXbXbXbXbXbXbXbXbXbXbXbXbXB } ,X:XB k W.].L.L. X XP.J.H.J.J.L. X].U.n.G.K.H.m.x Y :X:X} B bXbXbXbXbXbXbXbXbXbXbXbXbXbX",
"bXbXbXbXbXbXbXbXbXbXbXbXbXbXbXbXbXbXh T yXyX/ U '..XA.A. X XP.J.J.J.J.P.].Q. .I.C.G.K.B.W / iXyXT h bXbXbXbXbXbXbXbXbXbXbXbXbXbX",
"bXbXbXbXbXbXbXbXbXbXbXbXbXbXbXbXbXbXh T rXiXT.b.A.A.n.v.A.A.J.J.J.J.K.G./.Y.Q.'.U.M.H.Z.x. .uXrXT h bXbXbXbXbXbXbXbXbXbXbXbXbXbX",
"bXbXbXbXbXbXbXbXbXbXbXbXbXbXbXbXbXbXk T dX7XY.! C.C.I.I.Z.K.K.L.L.P.C.m.I.T.,X:X .! A.A.v.R.rX2XT k bXbXbXbXbXbXbXbXbXbXbXbXbXbX",
"bXbXbXbXbXbXbXbXbXbXbXbXbXbXbXbXbXbXk T }.,XT l x./.).].P.V.V.L. X].Q W R.,XyXdXY.x.].].| Y.,X,XT k bXbXbXbXbXbXbXbXbXbXbXbXbXbX",
"bXbXbXbXbXbXbXbXbXbXbXbXbXbXbXbXbXbXk 2 Y.T.Q U U | _..XXXH.Z.C.'.E.Y ^ [.8XaXyX).R.W.Q.U.U.^. .2 k bXbXbXbXbXbXbXbXbXbXbXbXbXbX",
"bXbXbXbXbXbXbXbXbXbXbXbXbXbXbXbXbXbXq X l ! m.m.U T [.7X,X]./.b.l / Y.[.7XsXlXsX2XR./ Q C.C.! 3 X q bXbXbXbXbXbXbXbXbXbXbXbXbXbX",
"bXbXbXbXbXbXbXbXbXbXbXbXbXbXbXbXbXbXbX& , I G.H.W l { Q._.!.x.Y l } [.9XyXyX7X,X_. .l W Z.Z.I , - bXbXbXbXbXbXbXbXbXbXbXbXbXbXbX",
"bXbXbXbXbXbXbXbXbXbXbXbXbXbXbXbXbXbXbXbX= c B.H.v.l d g ! | U Y Y.[.7XuX7X}.| l - 1 x v.H.C.a = bXbXbXbXbXbXbXbXbXbXbXbXbXbXbXbX",
"bXbXbXbXbXbXbXbXbXbXbXbXbXbXbXbXbXbXbXbXn a m.A.v.Q M M V ^ 2 R _.8XaXyX:X .N v m M ' b.P.C.: n bXbXbXbXbXbXbXbXbXbXbXbXbXbXbXbX",
"bXbXbXbXbXbXbXbXbXbXbXbXbXbXbXbXbXbXbXbX# % '.].Q } 4XfX$XOX, R ,XsXlX1X/ 3 oX%XfX4X} W ].'., # bXbXbXbXbXbXbXbXbXbXbXbXbXbXbXbX",
"bXbXbXbXbXbXbXbXbXbXbXbXbXbXbXbXbXbXbXbXbXM E.X.3 ^ kXcX#X+XV o.rXsXaXrX .V +X#XvXkX^ 3 o.X.M bXbXbXbXbXbXbXbXbXbXbXbXbXbXbXbXbX",
"bXbXbXbXbXbXbXbXbXbXbXbXbXbXbXbXbXbXbXbXbXbXM , o M yXkX#X+XfXlXaXaXaXpXjXfX#X#XcXyXj o % M bXbXbXbXbXbXbXbXbXbXbXbXbXbXbXbXbXbX",
"bXbXbXbXbXbXbXbXbXbXbXbXbXbXbXbXbXbXbXbXbXbXbX#   s :X4X@X$XcXvXlXiXaXlXvXcX$X%X4X}.s   * b bXbXbXbXbXbXbXbXbXbXbXbXbXbXbXbXbXbX",
"bXbXbXbXbXbXbXbXbXbXbXbXbXbXbXbXbXbXbXbXbXbXbXbX# % ] _.-X4XpXlXlXaXaXaXlXpX4X-X).] % = s.bXbXbXbXbXbXbXbXbXbXbXbXbXbXbXbXbXbXbX",
"bXbXbXbXbXbXbXbXbXbXbXbXbXbXbXbXbXbXbXbXbXbXbXbXb d x Q ^.,X8XiXuXuXuXuXpX7X|.^.] h - w d.bXbXbXbXbXbXbXbXbXbXbXbXbXbXbXbXbXbXbX",
"bXbXbXbXbXbXbXbXbXbXbXbXbXbXbXbXbXbXbXbXbXbXbXbXbXj.f 1 } ^.|.2X7XdX7X2X2X|.^.] c & 9 r %.a.bXbXbXbXbXbXbXbXbXbXbXbXbXbXbXbXbXbX",
"bXbXbXbXbXbXbXbXbXbXbXbXbXbXbXbXbXf.f.f.f.f.f.bX5Xj.w @ h Q Y.E.T.E.E.E.W.Y.' h & # u %.6 y bXbXbXbXbXbXbXbXbXbXbXbXbXbXbXbXbXbX",
"bXbXbXbXbXbXbXbXbXbXbXbXbXbXbXbXb & * w * & 9 & * &   . O O - - < d < < < < , % 9 u g.h.t t bXbXbXbXbXbXbXbXbXbXbXbXbXbXbXbXbXbX",
"bXbXbXbXbXbXbXbXbXbXbXbXbXbXbXs.M , < s m m m m m M M M M s < - +   # # # # & 9 6 u.*X5Xi.t.bXbXbXbXbXbXbXbXbXbXbXbXbXbXbXbXbXbX",
"bXbXbXbXbXbXbXbXbXbXbXbXbXbXbXf [ _.<XwXhXgXgXgXgXgXcXhXwX<X!.{ , & u &.*.*.,.=.e *.k.6X5Xh.t.bXbXbXbXbXbXbXbXbXbXbXbXbXbXbXbXbX",
"bXbXbXbXbXbXbXbXbXbXbXbXbXbX* , {.8XeXyXkXkXkXkXkXkXkXkXyX8X8X{.s # *.l.p.p.,.:.i b ~.6X6Xg.y t bXbXbXbXbXbXbXbXbXbXbXbXbXbXbXbX",
"bXbXbXbXbXbXbXbXbXbXbXbXbXbX* < <XeX+.E ) ) ( ( ( ( ( ) ( ..tX<XM # %.p.p.i.x : : k g.6X6Xg.y =.bXbXbXbXbXbXbXbXbXbXbXbXbXbXbXbX",
"bXbXbXbXbXbXbXbXbXbXbXbXbXbX* s 0X7XE Z Z C G F F D C Z Z F tXwXm & :.1.,.i.' / T } ~.5X5Xg.u y bXbXbXbXbXbXbXbXbXbXbXbXbXbXbXbX",
"bXbXbXbXbXbXbXbXbXbXbXbXbXbXw s 0XeX( A A L `.qXrX`.L A Z ( eX0Xm 5 N.B.x Y :X2X8X_.' B 5X5Xu t bXbXbXbXbXbXbXbXbXbXbXbXbXbXbXbX",
"bXbXbXbXbXbXbXbXbXbXbXbXbXbX* < 0XeX( C L #.tXzXxXtX#.L C ( tX0Xm a B.Z.I ^ rXxXxXeXT l h.h.i.bXbXbXbXbXbXbXbXbXbXbXbXbXbXbXbXbX",
"bXbXbXbXbXbXbXbXbXbXbXbXbXbX* m 0XeXE F >XpXlXlXzXlXpX>XF ( eX0Xm a B.Z.I ^ rXxXxXrX/ 3 z y.bXbXbXbXbXbXbXbXbXbXbXbXbXbXbXbXbXbX",
"bXbXbXbXbXbXbXbXbXbXbXbXbXbX= s 0XeXE D >XtXtX2X2X2XtX;XF ( eX0Xm O N.F.W x :XqXrX:Xl : r bXbXbXbXbXbXbXbXbXbXbXbXbXbXbXbXbXbXbX",
"bXbXbXbXbXbXbXbXbXbXbXbXbXbX* s 0XrX( C L ~ O.O.O.O.O.L C ( eX0Xs p 8.r.r.1.' ) } N , q bXbXbXbXbXbXbXbXbXbXbXbXbXbXbXbXbXbXbXbX",
"bXbXbXbXbXbXbXbXbXbXbXbXbXbX* s 0XtX( C L P K J J K P L C ( eXqXm ; ;.3.2.<.h > 2 4 o n bXbXbXbXbXbXbXbXbXbXbXbXbXbXbXbXbXbXbXbX",
"bXbXbXbXbXbXbXbXbXbXbXbXbXbX* s qXeXF G 3X3XP J J P 3X3XD F 7XwXM   & 5 p a 2 H H > o w bXbXbXbXbXbXbXbXbXbXbXbXbXbXbXbXbXbXbXbX",
"bXbXbXbXbXbXbXbXbXbXbXbXbXbXw < <XeX..` <X3X@.~ ~ @.2X>X` ..eX<Xm   = = @ o 4 S S > < bXbXbXbXbXbXbXbXbXbXbXbXbXbXbXbXbXbXbXbXbX",
"bXbXbXbXbXbXbXbXbXbXbXbXbXbX& , _.8XeX;X) _ 3XtXtX3X_ ) ;XeX8X_.1 $ bXbX- . X X X < bXbXbXbXbXbXbXbXbXbXbXbXbXbXbXbXbXbXbXbXbXbX",
"bXbXbXbXbXbXbXbXbXbXbXbXbXbXbXM [ [.iX7X` ) >XrXpX;X) ` eXiX[.[ f bXbXbXbXbXbXbXbXbXbXbXbXbXbXbXbXbXbXbXbXbXbXbXbXbXbXbXbXbXbXbX",
"bXbXbXbXbXbXbXbXbXbXbXbXbXbXbXbX0 j [.tXeX;X` F G _ ;XeX8X[.j 0 bXbXbXbXbXbXbXbXbXbXbXbXbXbXbXbXbXbXbXbXbXbXbXbXbXbXbXbXbXbXbXbX",
"bXbXbXbXbXbXbXbXbXbXbXbXbXbXbXbXbXd [ _.iXrX..G G ..rXpX[.[ 0 bXbXbXbXbXbXbXbXbXbXbXbXbXbXbXbXbXbXbXbXbXbXbXbXbXbXbXbXbXbXbXbXbX",
"bXbXbXbXbXbXbXbXbXbXbXbXbXbXbXbXbXbXd j [.8X7X1X1X2X8X[.j d bXbXbXbXbXbXbXbXbXbXbXbXbXbXbXbXbXbXbXbXbXbXbXbXbXbXbXbXbXbXbXbXbXbX",
"bXbXbXbXbXbXbXbXbXbXbXbXbXbXbXbXbXbXbX0 [ [.uXsXsXyX[.[ d bXbXbXbXbXbXbXbXbXbXbXbXbXbXbXbXbXbXbXbXbXbXbXbXbXbXbXbXbXbXbXbXbXbXbX",
"bXbXbXbXbXbXbXbXbXbXbXbXbXbXbXbXbXbXbXbX0 j [.9X9X:Xj 0 bXbXbXbXbXbXbXbXbXbXbXbXbXbXbXbXbXbXbXbXbXbXbXbXbXbXbXbXbXbXbXbXbXbXbXbX",
"bXbXbXbXbXbXbXbXbXbXbXbXbXbXbXbXbXbXbXbXb 0 [ W.Q.{ 0 b bXbXbXbXbXbXbXbXbXbXbXbXbXbXbXbXbXbXbXbXbXbXbXbXbXbXbXbXbXbXbXbXbXbXbXbX",
"bXbXbXbXbXbXbXbXbXbXbXbXbXbXbXbXbXbXbXbXbXs.f , , M s.bXbXbXbXbXbXbXbXbXbXbXbXbXbXbXbXbXbXbXbXbXbXbXbXbXbXbXbXbXbXbXbXbXbXbXbXbX",
"bXbXbXbXbXbXbXbXbXbXbXbXbXbXbXbXbXbXbXbXbXbXb & & b bXbXbXbXbXbXbXbXbXbXbXbXbXbXbXbXbXbXbXbXbXbXbXbXbXbXbXbXbXbXbXbXbXbXbXbXbXbX",
"bXbXbXbXbXbXbXbXbXbXbXbXbXbXbXbXbXbXbXbXbXbXbXbXbXbXbXbXbXbXbXbXbXbXbXbXbXbXbXbXbXbXbXbXbXbXbXbXbXbXbXbXbXbXbXbXbXbXbXbXbXbXbXbX",
"bXbXbXbXbXbXbXbXbXbXbXbXbXbXbXbXbXbXbXbXbXbXbXbXbXbXbXbXbXbXbXbXbXbXbXbXbXbXbXbXbXbXbXbXbXbXbXbXbXbXbXbXbXbXbXbXbXbXbXbXbXbXbXbX"
};
