/* XPM */
static char *result[] = {
/* columns rows colors chars-per-pixel */
"64 64 246 2 ",
"   c #181719",
".  c #140E19",
"X  c #2E1A15",
"o  c #18341F",
"O  c #2B2C1A",
"+  c #380C21",
"@  c #1C3927",
"#  c #1A302B",
"$  c #372A26",
"%  c #24372B",
"&  c #38352B",
"*  c #392937",
"=  c #233E32",
"-  c #283838",
";  c #2D302C",
":  c #131734",
">  c #440813",
",  c #46111F",
"<  c #4B361A",
"1  c #442929",
"2  c #493A37",
"3  c #50392E",
"4  c #723929",
"5  c #450D20",
"6  c #1C5112",
"7  c #1F6C1E",
"8  c #1F621F",
"9  c #1F731A",
"0  c #24731B",
"q  c #294522",
"w  c #234438",
"e  c #3A4638",
"r  c #33572F",
"t  c #1B6A23",
"y  c #297A27",
"u  c #2D7D31",
"i  c #357A3A",
"p  c #2F6C28",
"a  c #3C4118",
"s  c #544D1E",
"d  c #7A4C1A",
"f  c #4C413D",
"g  c #484A39",
"h  c #49513E",
"j  c #544E2F",
"k  c #684829",
"l  c #79492A",
"z  c #67522D",
"x  c #784737",
"c  c #695733",
"v  c #6F523A",
"b  c #4A7331",
"n  c #6E6E29",
"m  c #4A3749",
"M  c #653E42",
"N  c #334243",
"B  c #36684B",
"V  c #494747",
"C  c #514645",
"Z  c #555149",
"A  c #4F5251",
"S  c #6E504D",
"D  c #6F7748",
"F  c #726551",
"G  c #68506F",
"H  c #1B254D",
"J  c #9A1819",
"K  c #8F070B",
"L  c #BB060B",
"P  c #881F22",
"I  c #B81E21",
"U  c #9C332D",
"Y  c #9B3733",
"T  c #9D2A27",
"R  c #A62625",
"E  c #BB2323",
"W  c #DF080E",
"Q  c #E31A1C",
"!  c #C41F20",
"~  c #D13936",
"^  c #DF2222",
"/  c #E92F2E",
"(  c #895B1B",
")  c #974836",
"_  c #865434",
"`  c #93533B",
"'  c #895926",
"]  c #A2443E",
"[  c #936429",
"{  c #937033",
"}  c #A27738",
"|  c #E8473F",
" . c #8A5A46",
".. c #925E50",
"X. c #A24A45",
"o. c #A9554D",
"O. c #AA5A52",
"+. c #B05E52",
"@. c #896A47",
"#. c #9C7544",
"$. c #8D7A5A",
"%. c #957A5B",
"&. c #90694D",
"*. c #A57C49",
"=. c #A97C57",
"-. c #B66657",
";. c #9A7C66",
":. c #A57E61",
">. c #E74B45",
",. c #C16E5D",
"<. c #E66F5F",
"1. c #F47B68",
"2. c #2B8323",
"3. c #2D8836",
"4. c #36843E",
"5. c #368939",
"6. c #39993C",
"7. c #37943B",
"8. c #309326",
"9. c #3DA13D",
"0. c #3EAB38",
"q. c #3AAC28",
"w. c #1C891F",
"e. c #4A983B",
"r. c #57963C",
"t. c #4B843C",
"y. c #4DAF32",
"u. c #7D9C3A",
"i. c #3ECB31",
"p. c #39E922",
"a. c #41C225",
"s. c #45D424",
"d. c #4FD32F",
"f. c #68D031",
"g. c #47E626",
"h. c #50ED27",
"j. c #76E923",
"k. c #6BEE22",
"l. c #378840",
"z. c #359445",
"x. c #469955",
"c. c #4D8E48",
"v. c #758F41",
"b. c #47B747",
"n. c #4DA647",
"m. c #519965",
"M. c #53B668",
"N. c #5FA971",
"B. c #6CAD6C",
"V. c #74A142",
"C. c #45C249",
"Z. c #5FC77B",
"A. c #61C87C",
"S. c #9C9333",
"D. c #AD8D37",
"F. c #BDA130",
"G. c #CA9F33",
"H. c #CDB52E",
"J. c #B8C824",
"K. c #A4ED23",
"L. c #D8D21F",
"P. c #FAF917",
"I. c #DAC728",
"U. c #D0CE2D",
"Y. c #E7D924",
"T. c #E9D739",
"R. c #F2DB31",
"E. c #D8EF23",
"W. c #D3F025",
"Q. c #EBE926",
"!. c #F6ED24",
"~. c #F5E827",
"^. c #FBF122",
"/. c #FCFA23",
"(. c #F3E637",
"). c #F7ED35",
"_. c #B28959",
"`. c #B38E4F",
"'. c #B88D6A",
"]. c #BC9368",
"[. c #BE9E75",
"{. c #AB896F",
"}. c #BCA478",
"|. c #C7975F",
" X c #C39B68",
".X c #C49B76",
"XX c #DA9577",
"oX c #D9B668",
"OX c #C9A27C",
"+X c #C9A77B",
"@X c #D2AB7D",
"#X c #CEAE6C",
"$X c #E1B872",
"%X c #C4A058",
"&X c #E6C866",
"*X c #E7C771",
"=X c #F0DE49",
"-X c #2C39AC",
";X c #3E49B6",
":X c #2F4EEE",
">X c #516CF3",
",X c #6373DB",
"<X c #66D184",
"1X c #6BCD83",
"2X c #BBAC86",
"3X c #B3998F",
"4X c #D19C83",
"5X c #D6A586",
"6X c #DBB789",
"7X c #CEB996",
"8X c #D9BA97",
"9X c #CCAD8A",
"0X c #E3BC89",
"qX c #E3B998",
"wX c #ECAD8F",
"eX c #C8B9AF",
"rX c #8ACE8E",
"tX c #A1E2A5",
"yX c #E7C69C",
"uX c #F4CB9C",
"iX c #F8D196",
"pX c #D4C5A4",
"aX c #D9C7A5",
"sX c #D4CBAF",
"dX c #EEC6A3",
"fX c #E9CCA5",
"gX c #F5CBA6",
"hX c #EDD3AA",
"jX c #F4DAB2",
"kX c #F2DDBB",
"lX c #F0D6B2",
"zX c #FBE4BC",
"xX c #FCE6B9",
"cX c #CBCA98",
"vX c #ADB6DC",
"bX c #BCC5E8",
"nX c #D3DBDB",
"mX c #D3D6CE",
"MX c #EFD9D9",
"NX c #EADAC3",
"BX c #FCEBC6",
"VX c #FCF5CA",
"CX c #FFF7D0",
"ZX c #DCDBEF",
"AX c #F1F5F6",
"SX c None",
/* pixels */
"SXSXSXSXSXSXSXSXSXSXSXSXSXSXSXSXSXSXSXSXSXSXSXSXSXSXSXSXSXSXSXSXSXSXSXSXSXSXSXSXSXSXSXSXSXSXSXSXSXSXSXSXSXSXSXSXSXSXSXSXSXSXSXSX",
"SXSXSXSXSXSXSXSXSXSXSXSXSXSXSXSXSXSXSXSXSXSXSXSXSXSXSXSXSXSXSXSXSXSXSXSXSXSXSXSXSXSXSXSXSXSXSXSXSXSXSXSXSXSXSXSXSXSXSXSXSXSXSXSX",
"SXSXSXSXSXSXSXSXSXSXSXSXSXSXSXSXSXSXSXSXSXSXSXSXSXSXSXSXSXSXSXSXSXSXSXSXSXSXSXSXSXSXSXSXSXSXSXSXSXSXSXSXSXSXSXSXSXSXSXSXSXSXSXSX",
"SXSXSXSXSXSXSXSXSXSXSXSXSXSXSXSXSXSXSXSXSXSXSXSXSXSXSXSXSXSXSXSXSXSXSXSXSXSXSXSXSXSXSXSXSXSXSXSXSXSXSXSXSXSXSXSXSXSXSXSXSXSXSXSX",
"SXSXSXSXSXSXSXSXSXSXSXSXSXSXSXSXSXSXSXSXSXSXSXSXSXSXSXSXSXSXSXSXSXSXSXSXSXSXSXSXSXSXSXSXSXSXSXSXSXSXSXSXSXSXSXSXSXSXSXSXSXSXSXSX",
"SXSXSXSXSXSXSXSXSXSXSXSXSXSXSXSXSXSXSXSXSXSXSXSXSXSXSXSXSXSXSXSXSXSXSXSXSXSXSXSXSXSXSXSXSXSXSXSXSXSXSXSXSXSXSXSXSXSXSXSXSXSXSXSX",
"SXSXSXSXSXSXSXSXSXSXSXSXSXSXSXSXSXSXSXSXSXSXSXSXSXSXSXSXSXSXSXSXSXSXSXSXSXSXSXSXx.u u x.SXSXSXSXSXSXSXSXSXSXSXSXSXSXSXSXSXSXSXSX",
"SXSXSXSXSXSXSXSXSXSXSXSXSXSXSXSXSXSXSXSXSXSXSXSXSXSXSXSX<XA.Z.A.A.A.A.A.A.A.<XM.4.9 7 4.M.SXSXSXSXSXSXSXSXSXSXSXSXSXSXSXSXSXSXSX",
"SXSXSXSXSXSXSXSXSXSXSXSXSXSXSXSXSXSXSXSXSXSXSXSXSXSXSX<Xx.u i l.l.4.4.4.4.5.z.z.6.e.9.6.5.x.SXSXSXSXSXSXSXSXSXSXSXSXSXSXSXSXSXSX",
"SXSXSXSXSXSXSXSXSXSXSXSXSXSXSXSXSXSXSXSXSXSXSXSX<XZ.<XM.4.0 y 2.y y y p y t 8 y 9.b.b.9.7 u SXSXSXSXSXSXSXSXSXSXSXSXSXSXSXSXSXSX",
"SXSXSXSXSXSXSXSXSXSXSXSXSXSXSXSXSXSXSXSXSXSXSX<Xx.u l.l.6.0.a.s.i.i.0.8.y 8 7 y 9.b.b.9.p 4.SXSXSXSXSXSXSXSXSXSXSXSXSXSXSXSXSXSX",
"SXSXSXSXSXSXSXSXSXSXSXSXSXSXSXSXSXSXSXSXSXSX<XM.4.9 0 8.0.d.g.h.h.d.d.y.8.2.2.3.7.9.b.9.y l.SXSXSXSXSXSXSXSXSXSXSXSXSXSXSXSXSXSX",
"SXSXSXSXSXSXSXSXSXSXSXSXSXSXSXSXSXSXSXSXSXSXx.3.6.y.s.s.s.g.g.p.p.h.s.g.s.y.0.7.u 5.y.9.y l.SXSXSXSXSXSXSXSXSXSXSXSXSXSXSXSXSXSX",
"SXSXSXSXSXSXSXSXSXSXSXSXSXSXSXSXSXSXSXSXSXM.5.2.e.n.f.k.j.j.k.j.j.k.h.g.h.g.d.0.3.2.6.7.y l.SXSXSXSXSXSXSXSXSXSXSXSXSXSXSXSXSXSX",
"SXSXSXSXSXSXSXSXSXSXSXSXSXSXSXSXSXSXSXSXx.7.9.e.v.#.{ S.L.W.E.E.E.K.k.p.p.h.h.s.y.6.3.y t l.SXSXSXSXSXSXSXSXSXSXSXSXSXSXSXSXSXSX",
"SXSXSXSXSXSXSXSXSXSXSXSXSXSXSXSXSXSXSXSXu 7 c.V.S.D.D.F.R.^.^.^.P.Q.K.k.j.j.f.f.b.9.y 7 t l.SXSXSXSXSXSXSXSXSXSXSXSXSXSXSXSXSXSX",
"SXSXSXSXSXSXSXSXSXSXSXSXSXSXSXSXSXSXSXSX3.p n S.U.Y.T.Y.~.^.^.^.^.!.E.W.E.U.S.v.n.6.2.7 7 4.SXSXSXSXSXSXSXSXSXSXSXSXSXSXSXSXSXSX",
"SXSXSXSXSXSXSXSXSXSXSXSXSXSXSXSXSXSXSXM.i b S.G.T.).!.!.^.!.!.!.!.^.!././.R.G.S.V.n.3.y r c.SXSXSXSXSXSXSXSXSXSXSXSXSXSXSXSXSXSX",
"SXSXSXSXSXSXSXSXSXSXSXSXSXSXSXSXSXSXD k j ( H.(.&X&X(.^.^.^.!.^.!.^.^.^.^.^.~.H.D.v.e.e.s z SXSXSXSXSXSXSXSXSXSXSXSXSXSXSXSXSXSX",
"SXSXSXSXSXSXSXSXSXSXSXSXSXSXSXSXSXB.&.) 4 ' T.=X&X&X(.^.^.!.^.^.^.!.(.R.Y.Y.^.~.G.S.r.r.@.@.B.SXSXSXSXSXSXSXSXSXSXSXSXSXSXSXSXSX",
"SXSXSXSXSXSXSXSXSXSXSXSXSXSXSXSXD &.9X9X_ l %X&X=XR.!.!.!.!.^.^./.).*XoX`.G.Q./.~.H.n S 9X9X&.D SXSXSXSXSXSXSXSXSXSXSXSXSXSXSXSX",
"SXSXSXSXSXSXSXSXSXSXSXSXSXSXSXSXz ` fXhX.._ [.*X(.P.^.!.).R.I.I.L.H.#XOX=.D.I.Q./.Y.( ..hXhX` z SXSXSXSXSXSXSXSXSXSXSXSXSXSXSXSX",
"SXSXSXSXSXSXSXSXSXSXSXSXSXSXSXSXz ` fXlX_.*..X$XT.P./.).&XoX{ ( d [ } _. X X`.G.~.~.D.*.hXfX` z SXSXSXSXSXSXSXSXSXSXSXSXSXSXSXSX",
"SXSXSXSXSXSXSXSXSXSXSXSXSXSXSXSXc ` 8XyX=.*.].oX=X(.Y.H.%X{. .x x  .#.].6X@X*.} T.R.D._.yXyX` c SXSXSXSXSXSXSXSXSXSXSXSXSXSXSXSX",
"SXSXSXSXSXSXSXSXSXSXSXSXSXSXSXSXc _ @X6X .l } `.*X#X{ ( l @._.].].+X6XfXkX6X`.#.oXoX*.`.6X@X_ c SXSXSXSXSXSXSXSXSXSXSXSXSXSXSXSX",
"SXSXSXSXSXSXSXSXSXSXSXSXSXSXSXSXc 4 _._.[ ( [ #.'.{. .x l ` .X0X6XyXjXBXBXfX%X_.].].`.`.%X=.4 c SXSXSXSXSXSXSXSXSXSXSXSXSXSXSXSX",
"SXSXSXSXSXSXSXSXSXSXSXSXSXSXSXSXe + 4 } I.H.[ 4 _ &.'..X]..X@X6XhXjXxXzXBXzXyX]. .{ I.I.} 4 + e SXSXSXSXSXSXSXSXSXSXSXSXSXSXSXSX",
"SXSXSXSXSXSXSXSXSXSXSXSXSXSXSXSXSX; 1 ( Y.!.{ 4 < l `.@X$X0X6XyXjXxXhXfXyX6X}.#.x [ Y.Y.( 1 & SXSXSXSXSXSXSXSXSXSXSXSXSXSXSXSXSX",
"SXSXSXSXSXSXSXSXSXSXSXSXSXSXSXSXSXSX- s L.~.D.l X X 4 *. XqXgXjXxXjXyX@X*.l 1 3 _ D.!.I.s - SXSXSXSXSXSXSXSXSXSXSXSXSXSXSXSXSXSX",
"SXSXSXSXSXSXSXSXSXSXSXSXSXSXSXSXSXSXw < U.=XD.{ S Z m S :.@XhXzXzXfXOX=.S m V Z @.D.R.U.< - SXSXSXSXSXSXSXSXSXSXSXSXSXSXSXSXSXSX",
"SXSXSXSXSXSXSXSXSXSXSXSXSXSXSXSXSXSXw 2 #XoX` &.sXbX>X;XS *.qXzXzXqX{ M -X>XvXeX&.[ oX].1 = SXSXSXSXSXSXSXSXSXSXSXSXSXSXSXSXSXSX",
"SXSXSXSXSXSXSXSXSXSXSXSXSXSXSXSXSXm.= 2 %.:.4 F eXbX>X-X* ` 8XBXxXaX*.G :X>XAXNX .3 _.{.A SXSXSXSXSXSXSXSXSXSXSXSXSXSXSXSXSXSXSX",
"SXSXSXSXSXSXSXSXSXSXSXSXSXSXB @ = #     $ ; X   2 N H : . Z aXVXxXkXBXvX:X>XZXhXZ X $ Z SXSXSXSXSXSXSXSXSXSXSXSXSXSXSXSXSXSXSXSX",
"SXSXSXSXSXSXSXSXSXSXSXSXSXSXZ 1 2 C Z A V A A A V V g g 3 A {.fXlXBXAXZX,X,XsX+Xg . # SXSXSXSXSXSXSXSXSXSXSXSXSXSXSXSXSXSXSXSXSX",
"SXSXSXSXSXSXSXSXSXSXSXSXSXh %.[.7XsXmXnXnXnXnXnXnXnXsX7X[.{.Z F pXBXBXNXeX3X X#.$ - m.SXSXSXSXSXSXSXSXSXSXSXSXSXSXSXSXSXSXSXSXSX",
"SXSXSXSXSXSXSXSXSXSXSXSX= 1 OXiXgXhXMXZXMXMXMXMXMXMXhXyXuX].; & 2XxXjXuX$X X&.z X B SXSXSXSXSXSXSXSXSXSXSXSXSXSXSXSXSXSXSXSXSXSX",
"SXSXSXSXSXSXSXSXSXSXSXSX% 2 8XdX,.Y o.o.X.X.X.X.o.o.X.-.dX7X2 & [.iXyX5X X} 3 $ 6 i SXSXSXSXSXSXSXSXSXSXSXSXSXSXSXSXSXSXSXSXSXSX",
"SXSXSXSXSXSXSXSXSXSXSXSXw f aXdX] K K J U Y Y Y J K K X.gXpXV ; $.].]._.@.k ; @ i n.M.SXSXSXSXSXSXSXSXSXSXSXSXSXSXSXSXSXSXSXSXSX",
"SXSXSXSXSXSXSXSXSXSXSXSX= f pXdXo.K L ~ XXfXfXXX~ L K X.dXaXh   1 2 2 2 1 & 8 i B.A.l.z.SXSXSXSXSXSXSXSXSXSXSXSXSXSXSXSXSXSXSXSX",
"SXSXSXSXSXSXSXSXSXSXSXSX= 2 pXdXX.J ~ 1.hXVXVXgX1.~ J X.dXaXZ   @ @ @ % @ @ 8 c.rXrXc.l.M.SXSXSXSXSXSXSXSXSXSXSXSXSXSXSXSXSXSXSX",
"SXSXSXSXSXSXSXSXSXSXSXSXw f pXdX] Y 5XjXBXVXBXBXjX4XY ] gXaXC o u e.5.l.6.5.9 l.rXtX1XN.l.z.SXSXSXSXSXSXSXSXSXSXSXSXSXSXSXSXSXSX",
"SXSXSXSXSXSXSXSXSXSXSXSXw f aXdXX.Y 5XgXdXwXwXuXgX4XY X.qXaXf o 7.C.C.C.C.0.u b B.rXtXrXc.c.B.SXSXSXSXSXSXSXSXSXSXSXSXSXSXSXSXSX",
"SXSXSXSXSXSXSXSXSXSXSXSX% f cXdXX.J ~ >.>.>.>.>.| ~ J X.gXpXm o l.b.b.b.y.e.k < p m.cXjXaX}.@.D SXSXSXSXSXSXSXSXSXSXSXSXSXSXSXSX",
"SXSXSXSXSXSXSXSXSXSXSXSXw f pXdX] J ~ / ^ W W Q | ~ J X.gXpXC o r.f.r.r.r.r.n s 8 t.pXBXVXyX` k SXSXSXSXSXSXSXSXSXSXSXSXSXSXSXSX",
"SXSXSXSXSXSXSXSXSXSXSXSX= C pXdXY Y wXwX| W W / wXwXT Y dXsXV a J.U.{ s k c y.a.w.t.aXCXCXyX` k SXSXSXSXSXSXSXSXSXSXSXSXSXSXSXSX",
"SXSXSXSXSXSXSXSXSXSXSXSX= 2 7XdX-.+.9XwX<.>.>.<.wX7X+.-.dX7XN s I.~.{ k d t.k.p.8.b 2XdXyX+X&.D SXSXSXSXSXSXSXSXSXSXSXSXSXSXSXSX",
"SXSXSXSXSXSXSXSXSXSXSXSX% 1 [.uXdX4Xo.O.wXgXgXwXo.o.4XdXuX.X* < L.Q.u.z.a.d.h.g.8.p v ` ` @.SXSXSXSXSXSXSXSXSXSXSXSXSXSXSXSXSXSX",
"SXSXSXSXSXSXSXSXSXSXSXSXSXC $.4XlXdXO.o.9XhXfX5Xo.+.yXjXOX$.a b J.W.f.d.s.h.s.q.0 r c c k D SXSXSXSXSXSXSXSXSXSXSXSXSXSXSXSXSXSX",
"SXSXSXSXSXSXSXSXSXSXSXSXSXSXg v OXuXyX4X+.Y Y O.4XyXuX+XS r y.g.k.k.h.h.d.y.p o # r N.SXSXSXSXSXSXSXSXSXSXSXSXSXSXSXSXSXSXSXSXSX",
"SXSXSXSXSXSXSXSXSXSXSXSXSXSXSXe $.OXjXyX-.U U -.dXjX+X$.* # q.a.a.a.a.a.n.b 1 + 5 j N.SXSXSXSXSXSXSXSXSXSXSXSXSXSXSXSXSXSXSXSXSX",
"SXSXSXSXSXSXSXSXSXSXSXSXSXSXSXSXe S OXuXqXaXqXyXuX9XF ; ; O q q q q q s k 4 4 P I T 2 SXSXSXSXSXSXSXSXSXSXSXSXSXSXSXSXSXSXSXSXSX",
"SXSXSXSXSXSXSXSXSXSXSXSXSXSXSXSXSXe $..XhXxXxXlX.X$.; .   ; & N V - : 5 P R R E ^ ! > = SXSXSXSXSXSXSXSXSXSXSXSXSXSXSXSXSXSXSXSX",
"SXSXSXSXSXSXSXSXSXSXSXSXSXSXSXSXSXSXg v OXiXiX[.S O     . * m.SXSXSX= > I ^ ^ ^ / ! > - SXSXSXSXSXSXSXSXSXSXSXSXSXSXSXSXSXSXSXSX",
"SXSXSXSXSXSXSXSXSXSXSXSXSXSXSXSXSXSXB e $.].'.{.h w N e e SXSXSXSXSXSX2 T ! ! ! ! R 2 SXSXSXSXSXSXSXSXSXSXSXSXSXSXSXSXSXSXSXSXSX",
"SXSXSXSXSXSXSXSXSXSXSXSXSXSXSXSXSXSXSXSXh $ 1 V m.SXSXSXSXSXSXSXSXSXSXSX2 > , , > 3 SXSXSXSXSXSXSXSXSXSXSXSXSXSXSXSXSXSXSXSXSXSX",
"SXSXSXSXSXSXSXSXSXSXSXSXSXSXSXSXSXSXSXSXB % % B SXSXSXSXSXSXSXSXSXSXSXSXSXw N N w SXSXSXSXSXSXSXSXSXSXSXSXSXSXSXSXSXSXSXSXSXSXSX",
"SXSXSXSXSXSXSXSXSXSXSXSXSXSXSXSXSXSXSXSXSXSXSXSXSXSXSXSXSXSXSXSXSXSXSXSXSXSXSXSXSXSXSXSXSXSXSXSXSXSXSXSXSXSXSXSXSXSXSXSXSXSXSXSX",
"SXSXSXSXSXSXSXSXSXSXSXSXSXSXSXSXSXSXSXSXSXSXSXSXSXSXSXSXSXSXSXSXSXSXSXSXSXSXSXSXSXSXSXSXSXSXSXSXSXSXSXSXSXSXSXSXSXSXSXSXSXSXSXSX",
"SXSXSXSXSXSXSXSXSXSXSXSXSXSXSXSXSXSXSXSXSXSXSXSXSXSXSXSXSXSXSXSXSXSXSXSXSXSXSXSXSXSXSXSXSXSXSXSXSXSXSXSXSXSXSXSXSXSXSXSXSXSXSXSX",
"SXSXSXSXSXSXSXSXSXSXSXSXSXSXSXSXSXSXSXSXSXSXSXSXSXSXSXSXSXSXSXSXSXSXSXSXSXSXSXSXSXSXSXSXSXSXSXSXSXSXSXSXSXSXSXSXSXSXSXSXSXSXSXSX",
"SXSXSXSXSXSXSXSXSXSXSXSXSXSXSXSXSXSXSXSXSXSXSXSXSXSXSXSXSXSXSXSXSXSXSXSXSXSXSXSXSXSXSXSXSXSXSXSXSXSXSXSXSXSXSXSXSXSXSXSXSXSXSXSX",
"SXSXSXSXSXSXSXSXSXSXSXSXSXSXSXSXSXSXSXSXSXSXSXSXSXSXSXSXSXSXSXSXSXSXSXSXSXSXSXSXSXSXSXSXSXSXSXSXSXSXSXSXSXSXSXSXSXSXSXSXSXSXSXSX",
"SXSXSXSXSXSXSXSXSXSXSXSXSXSXSXSXSXSXSXSXSXSXSXSXSXSXSXSXSXSXSXSXSXSXSXSXSXSXSXSXSXSXSXSXSXSXSXSXSXSXSXSXSXSXSXSXSXSXSXSXSXSXSXSX",
"SXSXSXSXSXSXSXSXSXSXSXSXSXSXSXSXSXSXSXSXSXSXSXSXSXSXSXSXSXSXSXSXSXSXSXSXSXSXSXSXSXSXSXSXSXSXSXSXSXSXSXSXSXSXSXSXSXSXSXSXSXSXSXSX"
};
