/* XPM */
static char *result[] = {
/* columns rows colors chars-per-pixel */
"64 64 244 2 ",
"   c #171718",
".  c #160D18",
"X  c #380C19",
"o  c #371718",
"O  c #251819",
"+  c #18341F",
"@  c #2B2C1A",
"#  c #141734",
"$  c #2C1321",
"%  c #1C3728",
"&  c #1F2B27",
"*  c #382926",
"=  c #25362A",
"-  c #38342B",
";  c #3A2837",
":  c #233D32",
">  c #2A3636",
",  c #2B2F2A",
"<  c #4F3518",
"1  c #6A1720",
"2  c #442A29",
"3  c #483629",
"4  c #473937",
"5  c #5A3834",
"6  c #4E3329",
"7  c #703929",
"8  c #460C15",
"9  c #1B5013",
"0  c #37501B",
"q  c #1E6A1D",
"w  c #1C761D",
"e  c #25741B",
"r  c #206F1C",
"t  c #294723",
"y  c #284437",
"u  c #3B4638",
"i  c #395539",
"p  c #275021",
"a  c #1A6821",
"s  c #1C7529",
"d  c #2A7A27",
"f  c #2D7D32",
"g  c #35793A",
"h  c #2E6D28",
"j  c #55481F",
"k  c #7A4C1A",
"l  c #4C413D",
"z  c #484A39",
"x  c #514E32",
"c  c #684829",
"v  c #79492A",
"b  c #67522D",
"n  c #784736",
"m  c #695733",
"M  c #6C4E3C",
"N  c #4C7231",
"B  c #696A30",
"V  c #4A3749",
"C  c #653E42",
"Z  c #384343",
"A  c #214241",
"S  c #376B4F",
"D  c #494747",
"F  c #514645",
"G  c #555149",
"H  c #4F5251",
"J  c #6E504E",
"K  c #6E6E4C",
"L  c #68506F",
"P  c #1B254D",
"I  c #9A1819",
"U  c #8F070B",
"Y  c #B11115",
"T  c #861D20",
"R  c #9C332D",
"E  c #9B3733",
"W  c #8C3427",
"Q  c #B12926",
"!  c #DF080E",
"~  c #E31A1C",
"^  c #D13936",
"/  c #E73C3A",
"(  c #895B1B",
")  c #974836",
"_  c #865535",
"`  c #93543B",
"'  c #895A28",
"]  c #A2443E",
"[  c #936429",
"{  c #927031",
"}  c #A27738",
"|  c #E8473F",
" . c #8A5A46",
".. c #925E50",
"X. c #A24A45",
"o. c #A9554D",
"O. c #AA5A52",
"+. c #B05E52",
"@. c #8A6A48",
"#. c #9C7544",
"$. c #8C7959",
"%. c #977859",
"&. c #92674A",
"*. c #A57C49",
"=. c #A97C57",
"-. c #B66657",
";. c #9A7C66",
":. c #A57E61",
">. c #E74B45",
",. c #C16E5D",
"<. c #E66F5F",
"1. c #F47B68",
"2. c #2C8325",
"3. c #36843E",
"4. c #368839",
"5. c #3A9A3C",
"6. c #38953B",
"7. c #308D2D",
"8. c #3DA13C",
"9. c #3DAA39",
"0. c #3CAE30",
"q. c #4A993C",
"w. c #57963C",
"e. c #4F863C",
"r. c #47A93D",
"t. c #4BB133",
"y. c #7D9C3A",
"u. c #3BDA2E",
"i. c #42C524",
"p. c #45D524",
"a. c #4DD033",
"s. c #68D031",
"d. c #48E726",
"f. c #4FED28",
"g. c #76E923",
"h. c #6BEE22",
"j. c #378840",
"k. c #319544",
"l. c #469955",
"z. c #4C9049",
"x. c #758E41",
"c. c #47B747",
"v. c #4DA649",
"b. c #4D9864",
"n. c #54B668",
"m. c #5FAC65",
"M. c #6EAD6D",
"N. c #74A142",
"B. c #45C249",
"V. c #5FC77B",
"C. c #62C87C",
"Z. c #9C9433",
"A. c #AD8D37",
"S. c #BDA130",
"D. c #CA9F33",
"F. c #CDB52E",
"G. c #B8C824",
"H. c #A4ED23",
"J. c #D8D21F",
"K. c #FAF917",
"L. c #DAC728",
"P. c #D0CE2D",
"I. c #E7D924",
"U. c #E9D739",
"Y. c #F2DB31",
"T. c #D8EF23",
"R. c #D3F025",
"E. c #EBE926",
"W. c #F6ED24",
"Q. c #F5E827",
"!. c #FBF122",
"~. c #FCFA23",
"^. c #F3E637",
"/. c #F7ED35",
"(. c #B28959",
"). c #B38E4F",
"_. c #B78D6A",
"`. c #BC9469",
"'. c #BE9E75",
"]. c #AB896F",
"[. c #BCA478",
"{. c #C7975F",
"}. c #C39B68",
"|. c #C49B76",
" X c #DA9577",
".X c #D9B668",
"XX c #C9A27C",
"oX c #C6A77B",
"OX c #D2AB7D",
"+X c #CEAE6C",
"@X c #E1B872",
"#X c #C4A058",
"$X c #E6C866",
"%X c #E7C771",
"&X c #F0DE49",
"*X c #2C39AC",
"=X c #3E49B6",
"-X c #2F4EEE",
";X c #516CF3",
":X c #6373DB",
">X c #66D184",
",X c #6BCD83",
"<X c #BBAB86",
"1X c #B3998F",
"2X c #D19C83",
"3X c #D6A586",
"4X c #DBB789",
"5X c #CEB996",
"6X c #D9BA97",
"7X c #CCAE8A",
"8X c #E3BC89",
"9X c #E3B998",
"0X c #ECAD8F",
"qX c #C8B9AF",
"wX c #8ACE8E",
"eX c #A1E2A5",
"rX c #E7C69C",
"tX c #F4CB9C",
"yX c #F8D196",
"uX c #D4C5A4",
"iX c #D9C7A5",
"pX c #D4CCAF",
"aX c #EEC6A3",
"sX c #E9CCA5",
"dX c #F5CBA6",
"fX c #EDD3AA",
"gX c #F4DAB2",
"hX c #F2DDBB",
"jX c #F0D6B2",
"kX c #FBE4BC",
"lX c #FCE6B9",
"zX c #CBCA98",
"xX c #ADB6DC",
"cX c #BCC5E8",
"vX c #D3DBDB",
"bX c #D3D6CE",
"nX c #EFD9D9",
"mX c #EADAC3",
"MX c #FCEBC6",
"NX c #FCF5CA",
"BX c #FFF7D0",
"VX c #DCDBEF",
"CX c #F1F5F6",
"ZX c None",
/* pixels */
"ZXZXZXZXZXZXZXZXZXZXZXZXZXZXZXZXZXZXZXZXZXZXZXZXZXZXZXZXZXZXZXZXZXZXZXZXZXZXZXZXZXZXZXZXZXZXZXZXZXZXZXZXZXZXZXZXZXZXZXZXZXZXZXZX",
"ZXZXZXZXZXZXZXZXZXZXZXZXZXZXZXZXZXZXZXZXZXZXZXZXZXZXZXZXZXZXZXZXZXZXZXZXZXZXZXZXZXZXZXZXZXZXZXZXZXZXZXZXZXZXZXZXZXZXZXZXZXZXZXZX",
"ZXZXZXZXZXZXZXZXZXZXZXZXZXZXZXZXZXZXZXZXZXZXZXZXZXZXZXZXZXZXZXZXZXZXZXZXZXZXZXZXZXZXZXZXZXZXZXZXZXZXZXZXZXZXZXZXZXZXZXZXZXZXZXZX",
"ZXZXZXZXZXZXZXZXZXZXZXZXZXZXZXZXZXZXZXZXZXZXZXZXZXZXZXZXZXZXZXZXZXZXZXZXZXZXZXZXZXZXZXZXZXZXZXZXZXZXZXZXZXZXZXZXZXZXZXZXZXZXZXZX",
"ZXZXZXZXZXZXZXZXZXZXZXZXZXZXZXZXZXZXZXZXZXZXZXZXZXZXZXZXZXZXZXZXZXZXZXZXZXZXZXZXZXZXZXZXZXZXZXZXZXZXZXZXZXZXZXZXZXZXZXZXZXZXZXZX",
"ZXZXZXZXZXZXZXZXZXZXZXZXZXZXZXZXZXZXZXZXZXC.ZXZXZXZXZXZXZXZXZXZXZXZXZXZXZXZXZXZXZXZXZXZXZXZXZXZXZXZXZXZXZXZXZXZXZXZXZXZXZXZXZXZX",
"ZXZXZXZXZXZXZXZXZXZXZXZXZXZXZXZXZXZXZXZXl.f f l.>XZXZXZXZXZXZXZXZXZXZXZXZXZXZXZXZXZXZXZXZXZXZXZXZXZXZXZXZXZXZXZXZXZXZXZXZXZXZXZX",
"ZXZXZXZXZXZXZXZXZXZXZXZXZXZXZXZXZXZXZXn.4.q r 3.n.>XC.C.C.C.C.C.C.V.V.>XZXZXZXZXZXZXZXZXZXZXZXZXZXZXZXZXZXZXZXZXZXZXZXZXZXZXZXZX",
"ZXZXZXZXZXZXZXZXZXZXZXZXZXZXZXZXZXZXl.4.5.8.8.5.6.j.k.j.3.3.g 3.j.3.4.l.,XZXZXZXZXZXZXZXZXZXZXZXZXZXZXZXZXZXZXZXZXZXZXZXZXZXZXZX",
"ZXZXZXZXZXZXZXZXZXZXZXZXZXZXZXZXZXZXf r 5.c.c.8.d q q r r d 2.2.d e r 3.n.,XC.>XZXZXZXZXZXZXZXZXZXZXZXZXZXZXZXZXZXZXZXZXZXZXZXZX",
"ZXZXZXZXZXZXZXZXZXZXZXZXZXZXZXZXZXZX3.h r.c.c.5.d a q d 4.0.i.p.p.i.0.6.4.3.f l.>XZXZXZXZXZXZXZXZXZXZXZXZXZXZXZXZXZXZXZXZXZXZXZX",
"ZXZXZXZXZXZXZXZXZXZXZXZXZXZXZXZXZXZX3.d 5.c.v.6.4.2.7.7.9.a.d.f.f.p.a.t.7.e r 3.n.>XZXZXZXZXZXZXZXZXZXZXZXZXZXZXZXZXZXZXZXZXZXZX",
"ZXZXZXZXZXZXZXZXZXZXZXZXZXZXZXZXZXZXj.d 9.v.4.7.6.t.p.p.p.d.d.d.d.d.d.d.p.t.0.4.4.l.,XZXZXZXZXZXZXZXZXZXZXZXZXZXZXZXZXZXZXZXZXZX",
"ZXZXZXZXZXZXZXZXZXZXZXZXZXZXZXZXZXZXj.d 7.6.7.7.z.t.s.s.g.g.h.g.g.h.f.d.d.d.a.r.2.g n.ZXZXZXZXZXZXZXZXZXZXZXZXZXZXZXZXZXZXZXZXZX",
"ZXZXZXZXZXZXZXZXZXZXZXZXZXZXZXZXZXZXj.r d 7.5.q.x.#.Z.Z.P.T.T.T.T.H.h.u.d.d.d.p.t.k.4.k.ZXZXZXZXZXZXZXZXZXZXZXZXZXZXZXZXZXZXZXZX",
"ZXZXZXZXZXZXZXZXZXZXZXZXZXZXZXZXZXZXj.q a f z.N.Z.A.A.S.Y.!.!.!.!.E.H.h.g.g.h.a.t.8.r 4.ZXZXZXZXZXZXZXZXZXZXZXZXZXZXZXZXZXZXZXZX",
"ZXZXZXZXZXZXZXZXZXZXZXZXZXZXZXZXZXZXk.q a h B A.P.I.U.I.Q.!.!.!.!.W.T.T.T.P.Z.x.v.5.d g ZXZXZXZXZXZXZXZXZXZXZXZXZXZXZXZXZXZXZXZX",
"ZXZXZXZXZXZXZXZXZXZXZXZXZXZXZXZXZXZXN 0 q N Z.F.U.^.W.!.W.W.W.W.W.W.!.~.~.Y.D.Z.N.q.7.6.m.ZXZXZXZXZXZXZXZXZXZXZXZXZXZXZXZXZXZXZX",
"ZXZXZXZXZXZXZXZXZXZXZXZXZXZXZXZXZXC.B < j ( F.^.$X$X^.!.!.W.!.!.W.!.!.!.~.W.Q.F.A.x.v.q.B K ZXZXZXZXZXZXZXZXZXZXZXZXZXZXZXZXZXZX",
"ZXZXZXZXZXZXZXZXZXZXZXZXZXZXZXZXZXM.%. .7 ' U.&X$X$X^.!.!.!.!.!.!.W.^.U.I.I.!.Q.D.Z.w.e._ &.M.ZXZXZXZXZXZXZXZXZXZXZXZXZXZXZXZXZX",
"ZXZXZXZXZXZXZXZXZXZXZXZXZXZXZXZXK @.7X7X .v #X$X&X^.E.!.!.!.!.!.~./.%X.XA.D.E.~.Y.F.B m 7X7X@.K ZXZXZXZXZXZXZXZXZXZXZXZXZXZXZXZX",
"ZXZXZXZXZXZXZXZXZXZXZXZXZXZXZXZXb ` fXfX ._ |.%X^.K.!.W.^.Y.L.L.J.F.+XXX=.).L.E.~.I.( ..fXsX` b ZXZXZXZXZXZXZXZXZXZXZXZXZXZXZXZX",
"ZXZXZXZXZXZXZXZXZXZXZXZXZXZXZXZXb ` sXjX(.*.|.@XU.K.~./.$X+X} k k [ } (.}.#X).D.Q.I.A.=.jXsX` b ZXZXZXZXZXZXZXZXZXZXZXZXZXZXZXZX",
"ZXZXZXZXZXZXZXZXZXZXZXZXZXZXZXZXm ` 6XrX=.*.`..X&X^.I.F.#X_. .n n  .#.`.4XOX*.} U.Y.A.{.sX9X` m ZXZXZXZXZXZXZXZXZXZXZXZXZXZXZXZX",
"ZXZXZXZXZXZXZXZXZXZXZXZXZXZXZXZXm ` OXOX_ v #.`.$X+X{ k v  .=.}.`.oX4XsXhX4X).*..X.X).(.4XOX_ m ZXZXZXZXZXZXZXZXZXZXZXZXZXZXZXZX",
"ZXZXZXZXZXZXZXZXZXZXZXZXZXZXZXZXm 7 (.(.[ ( [ #._._. .v v &.}.8X4XrXgXMXMXsX`.(._.`.).A.{.=.7 b ZXZXZXZXZXZXZXZXZXZXZXZXZXZXZXZX",
"ZXZXZXZXZXZXZXZXZXZXZXZXZXZXZXZXu o n } L.F.' v _ &.`.|.`.|.OX8XsXgXlXlXMXkX%X`. .{ L.L.} 7 o u ZXZXZXZXZXZXZXZXZXZXZXZXZXZXZXZX",
"ZXZXZXZXZXZXZXZXZXZXZXZXZXZXZXZXZX, 2 ( I.E.} 7 < v ).OX@X8X4XrXgXlXjXsX6X4XoX%.n [ I.I.( 2 - ZXZXZXZXZXZXZXZXZXZXZXZXZXZXZXZXZX",
"ZXZXZXZXZXZXZXZXZXZXZXZXZXZXZXZXZXZX> j J.Q.A.n o o 7 *. XrXaXgXhXgXrXOX*._ 6 3 n S.Q.L.c > ZXZXZXZXZXZXZXZXZXZXZXZXZXZXZXZXZXZX",
"ZXZXZXZXZXZXZXZXZXZXZXZXZXZXZXZXZXZXA j P.&XA.{ G H V J :.+XfXkXkXsXOX=.J V V G @.A.U.P.3 A ZXZXZXZXZXZXZXZXZXZXZXZXZXZXZXZXZXZX",
"ZXZXZXZXZXZXZXZXZXZXZXZXZXZXZXZXZXZXy 4 +X.X` #.pXcX;X=XJ *.9XkXkX6X{ C *X;XxXqX&.[ @X#X- = ZXZXZXZXZXZXZXZXZXZXZXZXZXZXZXZXZXZX",
"ZXZXZXZXZXZXZXZXZXZXZXZXZXZXZXZXZXb.: 2 %.;.7 J qXcX;X*X; _ 6XMXkXrX*.L -X;XCXmX .5 (.;.H ZXZXZXZXZXZXZXZXZXZXZXZXZXZXZXZXZXZXZX",
"ZXZXZXZXZXZXZXZXZXZXZXZXZXZXS % : =     * , O O 4 Z P # . x uXMXkXkXmXxX-X;XVXfXG O * G ZXZXZXZXZXZXZXZXZXZXZXZXZXZXZXZXZXZXZXZX",
"ZXZXZXZXZXZXZXZXZXZXZXZXZXZXz 2 4 D H H D D H H D D l z 4 G 1XsXjXMXCXVX:X:XpXOXD   & S ZXZXZXZXZXZXZXZXZXZXZXZXZXZXZXZXZXZXZXZX",
"ZXZXZXZXZXZXZXZXZXZXZXZXZXz %.'.5XpXvXvXvXvXvXvXvXbXpX5X'.%.G K uXMXMXmXqX1X}.%.2 > b.ZXZXZXZXZXZXZXZXZXZXZXZXZXZXZXZXZXZXZXZXZX",
"ZXZXZXZXZXZXZXZXZXZXZXZX: 3 XXyXaXdXnXnXnXnXnXnXnXnXjXtXtX'., - <XlXgXtXOX}.} b @ i ZXZXZXZXZXZXZXZXZXZXZXZXZXZXZXZXZXZXZXZXZXZX",
"ZXZXZXZXZXZXZXZXZXZXZXZX: 4 5XaX,.) o.o.X.X.X.o.o.o.X.-.dX5Xz - '.yXrX3X{.#.5 @ + 4.ZXZXZXZXZXZXZXZXZXZXZXZXZXZXZXZXZXZXZXZXZXZX",
"ZXZXZXZXZXZXZXZXZXZXZXZXy l iXaXX.U U I E E E E I U U X.sXuXD * $.`.`.(.{ m , % g v.n.ZXZXZXZXZXZXZXZXZXZXZXZXZXZXZXZXZXZXZXZXZX",
"ZXZXZXZXZXZXZXZXZXZXZXZX: 4 uXaXX.U Y ^  XiXrX X^ Y U X.aXuXF   2 5 4 4 2 , p g M.C.j.ZXZXZXZXZXZXZXZXZXZXZXZXZXZXZXZXZXZXZXZXZX",
"ZXZXZXZXZXZXZXZXZXZXZXZXy l uXaXX.I ^ 1.dXNXBXdX1.^ I X.aXuXG   % % % % = t a z.wXwXz.j.ZXZXZXZXZXZXZXZXZXZXZXZXZXZXZXZXZXZXZXZX",
"ZXZXZXZXZXZXZXZXZXZXZXZXy l uXaX] E 3XgXMXBXNXMXgX3XE ] dXiXF + f 5.6.4.5.4.s z.,XeX,XM.6.k.ZXZXZXZXZXZXZXZXZXZXZXZXZXZXZXZXZXZX",
"ZXZXZXZXZXZXZXZXZXZXZXZXy l uXaX] E 3XdX0X0X0XtXdX2XE ] dX6Xl + 6.B.B.c.B.r.h N M.wXeXwXz.z.M.ZXZXZXZXZXZXZXZXZXZXZXZXZXZXZXZXZX",
"ZXZXZXZXZXZXZXZXZXZXZXZX% 4 uXaXX.I ^ | >.>.>.>.| ^ I X.aXuXF + j.c.c.c.c.q.x j h m.zXgXiX[.@.K ZXZXZXZXZXZXZXZXZXZXZXZXZXZXZXZX",
"ZXZXZXZXZXZXZXZXZXZXZXZXy l uXaXX.I ^ / ~ ! ! ~ / ^ I X.aXuXV = w.s.w.z.w.e.B j 9 e.uXMXNXrX` c ZXZXZXZXZXZXZXZXZXZXZXZXZXZXZXZX",
"ZXZXZXZXZXZXZXZXZXZXZXZXy l pXaXE R 0X0X>.! ! / 0X0XR E aXuXV 0 G.P.B c c m w.q.w z.zXBXBXsX` c ZXZXZXZXZXZXZXZXZXZXZXZXZXZXZXZX",
"ZXZXZXZXZXZXZXZXZXZXZXZX: 4 5XaX-.O.7X9X<.>./ <.9X7XO.-.aX5XZ j I.Q.{ c b B r.9.s N <XsXsXXX@.K ZXZXZXZXZXZXZXZXZXZXZXZXZXZXZXZX",
"ZXZXZXZXZXZXZXZXZXZXZXZX= 2 |.tXaX2XO.O.0XdXdX0Xo.o.2XrXtX'.- < L.E.y.q.i.a.a.5.p * n X.) @.ZXZXZXZXZXZXZXZXZXZXZXZXZXZXZXZXZXZX",
"ZXZXZXZXZXZXZXZXZXZXZXZXZXz %.|.gXaXO.o.2XsXjX3Xo.+.rXlX2X$.0 N G.R.s.u.d.a.r.g > * x m c ZXZXZXZXZXZXZXZXZXZXZXZXZXZXZXZXZXZXZX",
"ZXZXZXZXZXZXZXZXZXZXZXZXZXZXz J XXtXrX2X+.E E +.2XrXtXoXJ x 0.p.h.h.f.d.a.v.h , O u ZXZXZXZXZXZXZXZXZXZXZXZXZXZXZXZXZXZXZXZXZXZX",
"ZXZXZXZXZXZXZXZXZXZXZXZXZXZXZXu $.XXgXrX-.R E -.aXgXoX$.; + 0.p.i.i.p.t.r.N 2 $ $ i ZXZXZXZXZXZXZXZXZXZXZXZXZXZXZXZXZXZXZXZXZXZX",
"ZXZXZXZXZXZXZXZXZXZXZXZXZXZXZXZXu J XXtXrX6X6X9XrX7XK > & & = t t t t j v ) T 1 X : ZXZXZXZXZXZXZXZXZXZXZXZXZXZXZXZXZXZXZXZXZXZX",
"ZXZXZXZXZXZXZXZXZXZXZXZXZXZXZXZXZXu $.|.fXlXMXfXoX%.5 X O , > Z u , # X 1 T T 7 4 ZXZXZXZXZXZXZXZXZXZXZXZXZXZXZXZXZXZXZXZXZXZXZX",
"ZXZXZXZXZXZXZXZXZXZXZXZXZXZXZXZXZXZXu M XXyXyXXXK 6 Q I 8 > b.ZXZXZX> . o X X 4 ZXZXZXZXZXZXZXZXZXZXZXZXZXZXZXZXZXZXZXZXZXZXZXZX",
"ZXZXZXZXZXZXZXZXZXZXZXZXZXZXZXZXZXZXS z $._.`.$., X Q Q C S ZXZXZXZXZX> Z A y ZXZXZXZXZXZXZXZXZXZXZXZXZXZXZXZXZXZXZXZXZXZXZXZXZX",
"ZXZXZXZXZXZXZXZXZXZXZXZXZXZXZXZXZXZXZXZXz 3 6 ; O . X 5 ZXZXZXZXZXZXZXZXZXZXZXZXZXZXZXZXZXZXZXZXZXZXZXZXZXZXZXZXZXZXZXZXZXZXZXZX",
"ZXZXZXZXZXZXZXZXZXZXZXZXZXZXZXZXZXZXZXZXS = y y Z Z y S ZXZXZXZXZXZXZXZXZXZXZXZXZXZXZXZXZXZXZXZXZXZXZXZXZXZXZXZXZXZXZXZXZXZXZXZX",
"ZXZXZXZXZXZXZXZXZXZXZXZXZXZXZXZXZXZXZXZXZXZXZXZXZXZXZXZXZXZXZXZXZXZXZXZXZXZXZXZXZXZXZXZXZXZXZXZXZXZXZXZXZXZXZXZXZXZXZXZXZXZXZXZX",
"ZXZXZXZXZXZXZXZXZXZXZXZXZXZXZXZXZXZXZXZXZXZXZXZXZXZXZXZXZXZXZXZXZXZXZXZXZXZXZXZXZXZXZXZXZXZXZXZXZXZXZXZXZXZXZXZXZXZXZXZXZXZXZXZX",
"ZXZXZXZXZXZXZXZXZXZXZXZXZXZXZXZXZXZXZXZXZXZXZXZXZXZXZXZXZXZXZXZXZXZXZXZXZXZXZXZXZXZXZXZXZXZXZXZXZXZXZXZXZXZXZXZXZXZXZXZXZXZXZXZX",
"ZXZXZXZXZXZXZXZXZXZXZXZXZXZXZXZXZXZXZXZXZXZXZXZXZXZXZXZXZXZXZXZXZXZXZXZXZXZXZXZXZXZXZXZXZXZXZXZXZXZXZXZXZXZXZXZXZXZXZXZXZXZXZXZX",
"ZXZXZXZXZXZXZXZXZXZXZXZXZXZXZXZXZXZXZXZXZXZXZXZXZXZXZXZXZXZXZXZXZXZXZXZXZXZXZXZXZXZXZXZXZXZXZXZXZXZXZXZXZXZXZXZXZXZXZXZXZXZXZXZX",
"ZXZXZXZXZXZXZXZXZXZXZXZXZXZXZXZXZXZXZXZXZXZXZXZXZXZXZXZXZXZXZXZXZXZXZXZXZXZXZXZXZXZXZXZXZXZXZXZXZXZXZXZXZXZXZXZXZXZXZXZXZXZXZXZX",
"ZXZXZXZXZXZXZXZXZXZXZXZXZXZXZXZXZXZXZXZXZXZXZXZXZXZXZXZXZXZXZXZXZXZXZXZXZXZXZXZXZXZXZXZXZXZXZXZXZXZXZXZXZXZXZXZXZXZXZXZXZXZXZXZX",
"ZXZXZXZXZXZXZXZXZXZXZXZXZXZXZXZXZXZXZXZXZXZXZXZXZXZXZXZXZXZXZXZXZXZXZXZXZXZXZXZXZXZXZXZXZXZXZXZXZXZXZXZXZXZXZXZXZXZXZXZXZXZXZXZX"
};
