/* XPM */
static char *result[] = {
/* columns rows colors chars-per-pixel */
"64 64 240 2 ",
"   c #191817",
".  c #0E0A0F",
"X  c #241819",
"o  c #371419",
"O  c #18251F",
"+  c #272A1D",
"@  c #151723",
"#  c #261822",
"$  c #391C20",
"%  c #1B2921",
"&  c #173124",
"*  c #272826",
"=  c #3A2425",
"-  c #273A28",
";  c #353529",
":  c #253C33",
">  c #383A36",
",  c #302935",
"<  c #450915",
"1  c #45111E",
"2  c #49111F",
"3  c #66141A",
"4  c #582716",
"5  c #4C351E",
"6  c #491C21",
"7  c #483A36",
"8  c #533936",
"9  c #503029",
"0  c #642725",
"q  c #742C29",
"w  c #6B1F21",
"e  c #1B5A1E",
"r  c #18711A",
"t  c #1E681F",
"y  c #26731A",
"u  c #267119",
"i  c #1E4923",
"p  c #1F5D21",
"a  c #294423",
"s  c #255727",
"d  c #254538",
"f  c #36483B",
"g  c #325439",
"h  c #1C6722",
"j  c #276A26",
"k  c #277826",
"l  c #2D7D32",
"z  c #387C3B",
"x  c #3C6C31",
"c  c #22541F",
"v  c #574A27",
"b  c #46463A",
"n  c #4E502E",
"m  c #664627",
"M  c #6B4B39",
"N  c #765131",
"B  c #4B7339",
"V  c #716D35",
"C  c #63591B",
"Z  c #373D40",
"A  c #513949",
"S  c #274D40",
"D  c #294A41",
"F  c #354A40",
"G  c #2C5541",
"H  c #39724C",
"J  c #494944",
"K  c #545048",
"L  c #735448",
"P  c #466B56",
"I  c #536E4C",
"U  c #6D7756",
"Y  c #676C43",
"T  c #747366",
"R  c #91151B",
"E  c #B21015",
"W  c #B8161E",
"Q  c #B51116",
"!  c #971E20",
"~  c #A11F20",
"^  c #BB1E20",
"/  c #942424",
"(  c #913E39",
")  c #AA2926",
"_  c #CA1F20",
"`  c #C72122",
"'  c #D42223",
"]  c #EE2223",
"[  c #865B1B",
"{  c #935015",
"}  c #8C4E19",
"|  c #A97B1B",
" . c #855338",
".. c #8B5134",
"X. c #876A37",
"o. c #8D6B29",
"O. c #B8493C",
"+. c #EC4A3D",
"@. c #875845",
"#. c #965E4A",
"$. c #976A48",
"%. c #937852",
"&. c #A27952",
"*. c #F4554A",
"=. c #F85350",
"-. c #C94B4D",
";. c #328D1A",
":. c #2B8126",
">. c #36833D",
",. c #378737",
"<. c #3C9C3D",
"1. c #379437",
"2. c #2E912B",
"3. c #3DA33D",
"4. c #3EAB3A",
"5. c #3DB735",
"6. c #478739",
"7. c #4C8D38",
"8. c #45B73B",
"9. c #48AF32",
"0. c #7BB53D",
"q. c #39E427",
"w. c #3EDB2B",
"e. c #43C724",
"r. c #48D825",
"t. c #4AD634",
"y. c #4DCA32",
"u. c #65D130",
"i. c #4EE922",
"p. c #4CE527",
"a. c #53EB22",
"s. c #50F423",
"d. c #4EF226",
"f. c #69EB22",
"g. c #78E625",
"h. c #378540",
"j. c #3EA640",
"k. c #469856",
"l. c #50934A",
"z. c #6C9246",
"x. c #44AA43",
"c. c #46B246",
"v. c #47BB42",
"b. c #53AA44",
"n. c #599B65",
"m. c #4F9065",
"M. c #53B667",
"N. c #58A973",
"B. c #5DB779",
"V. c #53A26D",
"C. c #63B26A",
"Z. c #63B97B",
"A. c #72AC6C",
"S. c #609C64",
"D. c #5FC77B",
"F. c #61C57C",
"G. c #61C87C",
"H. c #AF8A33",
"J. c #B9A72D",
"K. c #CFBA28",
"L. c #B8EE22",
"P. c #A2E025",
"I. c #E7D81F",
"U. c #E9CE1F",
"Y. c #F9F81F",
"T. c #D6D623",
"R. c #DAC835",
"E. c #E7D926",
"W. c #E1CD36",
"Q. c #E8D62A",
"!. c #D6EC25",
"~. c #DEE836",
"^. c #FCF321",
"/. c #FFFE25",
"(. c #FCF535",
"). c #F1E92D",
"_. c #D9CB1F",
"`. c #978A59",
"'. c #B38A5B",
"]. c #B08D4D",
"[. c #9D8166",
"{. c #B3936D",
"}. c #B8A779",
"|. c #BFB47F",
" X c #CEAE54",
".X c #C89C74",
"XX c #CB9D6D",
"oX c #E79C71",
"OX c #CCA668",
"+X c #C9A977",
"@X c #D5B170",
"#X c #EEA87F",
"$X c #E7D149",
"%X c #DFC368",
"&X c #EBCD6E",
"*X c #4C58BA",
"=X c #3F57EB",
"-X c #5766CD",
";X c #456BFF",
":X c #425CEF",
">X c #7FBC88",
",X c #64CA84",
"<X c #77C885",
"1X c #66D084",
"2X c #64D388",
"3X c #6ADC92",
"4X c #75D288",
"5X c #74F19C",
"6X c #68E195",
"7X c #7180EB",
"8X c #A58B85",
"9X c #AEA988",
"0X c #ABB4B7",
"qX c #D7B995",
"wX c #CCB08A",
"eX c #CDB2AB",
"rX c #FDBE9B",
"tX c #82C588",
"yX c #92D797",
"uX c #9EE8A8",
"iX c #A1E1A3",
"pX c #D2C597",
"aX c #F5CC9A",
"sX c #E9C593",
"dX c #CEC5A3",
"fX c #D6CDA8",
"gX c #E8C9A4",
"hX c #FEC8A5",
"jX c #F6D8AD",
"kX c #F7DDB4",
"lX c #F1D7B3",
"zX c #FCE4B8",
"xX c #FEECC8",
"cX c #FFF5CC",
"vX c #FFE3DB",
"bX c #CDD5F5",
"nX c #FFFEED",
"mX c #DFDED8",
"MX c #A7AECE",
"NX c None",
/* pixels */
"NXNXNXNXNXNXNXNXNXNXNXNXNXNXNXNXNXNXNXNXNXNXNXNXNXNXNXNXNXNXNXNXNXNXNXNXNXNXNXNXNXNXNXNXNXNXNXNXNXNXNXNXNXNXNXNXNXNXNXNXNXNXNXNX",
"NXNXNXNXNXNXNXNXNXNXNXNXNXNXNXNXNXNXNXNXNXNXNXNXNXNXNXNXNXNXNXNXNXNXNXNXNXNXNXNXNXNXNXNXNXNXNXNXNXNXNXNXNXNXNXNXNXNXNXNXNXNXNXNX",
"NXNXNXNXNXNXNXNXNXNXNXNXNXNXNXNXNXNXNXNXNXNXNXNXNXNXNXNXNXNXNXNXNXNXNXNXNXNXNXNXNXNXNXNXNXNXNXNXNXNXNXNXNXNXNXNXNXNXNXNXNXNXNXNX",
"NXNXNXNXNXNXNXNXNXNXNXNXNXNXNXNXNXNXNXNXNXNXNXNXNXNXNXNXNXNXNXNXNXNXNXNXNXNXNXNXNXNXNXNXNXNXNXNXNXNXNXNXNXNXNXNXNXNXNXNXNXNXNXNX",
"NXNXNXNXNXNXNXNXNXNXNXNXNXNXNXNXNXNXNXNXNXNXNXNXNXNXNXNXNXNXNXNXNXNXNXNXNXNXNXNXNXNXNXNXNXNXNXNXNXNXNXNXNXNXNXNXNXNXNXNXNXNXNXNX",
"NXNXNXNXNXNXNXNXNXNXNXNXNXNXNXNXNXNXNXNXNXNXNXNXNXNXNXNXNXNXNXNXNXNXNXNXNXNXNXNXNXNXNXNXNXNXNXNXNXNXNXNXNXNXNXNXNXNXNXNXNXNXNXNX",
"NXNXNXNXNXNXNXNXNXNXNXNXNXNXNXNXNXNXNXNXNXNXNXNXNXNXNXNXNXNXNXNXNXNXNXNXNXNXNXNXNXNXNXNXNXNXNXNXNXNXNXNXNXNXNXNXNXNXNXNXNXNXNXNX",
"NXNXNXNXNXNXNXNXNXNXNXNXNXNXNXNXNXNXNXNXNXNXNXNXNXNXNXNXNXNX2XG.D.G.G.G.G.G.G.1XNXNXNXNXNXNXNXNXNXNXNXNXNXNXNXNXNXNXNXNXNXNXNXNX",
"NXNXNXNXNXNXNXNXNXNXNXNXNXNXNXNXNXNXNXNXNXNXNXNXNXNXNXNXNX2Xk.l >.>.>.>.>.z l k.1XNXNXNXNXNXNXNXNXNXNXNXNXNXNXNXNXNXNXNXNXNXNXNX",
"NXNXNXNXNXNXNXNXNXNXNXNXNXNXNXNXNXNXNXNXNXNXNXNXNXNX<XA.<XC.>.t k :.;.k ;.y r h.M.1XNXNXNXNXNXNXNXNXNXNXNXNXNXNXNXNXNXNXNXNXNXNX",
"NXNXNXNXNXNXNXNXNXNXNXNXNXNXNXNXNXNXNXNXNXNXNXNXNX4XU N M Y l.9.5.r.e.e.r.5.4.<.z k.1XNXNXNXNXNXNXNXNXNXNXNXNXNXNXNXNXNXNXNXNXNX",
"NXNXNXNXNXNXNXNXNXNXNXNXNXNXNXNXNXNXNXNXNXNXNX}.<XA.X.{ { V 9.y.i.s.a.i.a.p.y.9.;.1.M.1XNXNXNXNXNXNXNXNXNXNXNXNXNXNXNXNXNXNXNXNX",
"NXNXNXNXNXNXNXNXNXNXNXNXNXNXNXNXNXNXNXNXNXF.U M M Y K._.U._.y.q.i.i.i.i.i.i.r.r.e.5.,.l.G.NXNXNXNXNXNXNXNXNXNXNXNXNXNXNXNXNXNXNX",
"NXNXNXNXNXNXNXNXNXNXNXNXNXNXNXNXNXNXNXNXNXA.X.{ } | E./.(.).P.a.a.i.i.i.i.i.i.i.s.r.;.2.M.1XNXNXNXNXNXNXNXNXNXNXNXNXNXNXNXNXNXNX",
"NXNXNXNXNXNXNXNXNXNXNXNXNXNXNXNXNXNXNXF.U X.J.U._.Q.^.(.&X%X~.L.f.a.i.i.i.i.i.i.i.i.r.5.2.k.1XNXNXNXNXNXNXNXNXNXNXNXNXNXNXNXNXNX",
"NXNXNXNXNXNXNXNXNXNXNXNXNXNXNXNXNXNXNXA. .| E./.(.).Q.W.%X%X).!.g.q.i.i.i.a.i.i.i.i.i.e.;.>.M.1XNXNXNXNXNXNXNXNXNXNXNXNXNXNXNXNX",
"NXNXNXNXNXNXNXNXNXNXNXNXNXNXNXNXNXNXU X.K.I.^.).&X@XH.K.W.).^.!.f.q.p.d.i.i.p.i.p.p.y.8.3.<.,.k.NXNXNXNXNXNXNXNXNXNXNXNXNXNXNXNX",
"NXNXNXNXNXNXNXNXNXNXNXNXNXNXNXNXNXNXN { _./.(.$XOX{.&.].W.^.^.!.P.f.a.i.i.i.i.p.r.y.v.c.c.3.r l G.NXNXNXNXNXNXNXNXNXNXNXNXNXNXNX",
"NXNXNXNXNXNXNXNXNXNXNXNXNXNXNXNXNXNXM { I.(.&XOX#. .XX@X)./.^.^.!.L.f.i.i.a.p.p.y.v.c.c.c.<.j >.1XNXNXNXNXNXNXNXNXNXNXNXNXNXNXNX",
"NXNXNXNXNXNXNXNXNXNXNXNXNXNXNXNXNXNXU X.K.R.OX'. ....X%X$XE.).^./.!.g.t.r.r.p.t.v.c.c.c.c.x.2.h.M.1XNXNXNXNXNXNXNXNXNXNXNXNXNXNX",
"NXNXNXNXNXNXNXNXNXNXNXNXNXNXNXNXNXNXNXA.o.} ..$.'..X+XOX].J.E.(.^.!.u.j.v.v.y.j.c.c.x.c.c.c.j.<.,.k.NXNXNXNXNXNXNXNXNXNXNXNXNXNX",
"NXNXNXNXNXNXNXNXNXNXNXNXNXNXNXNXNXNXNXNXU m 4 N XXsXsXwX&.].Q.^.Y.!.0.x.c.j.j.j.j.j.x.c.c.c.c.<.u l NXNXNXNXNXNXNXNXNXNXNXNXNXNX",
"NXNXNXNXNXNXNXNXNXNXNXNXNXNXNXNXNXNXNXNX4Xn.> 8 {.aXkXjXwX X)././.E.].z.b.j.2.r r k j.c.c.c.c.3.k >.NXNXNXNXNXNXNXNXNXNXNXNXNXNX",
"NXNXNXNXNXNXNXNXNXNXNXNXNXNX,XB.B.Z.,X,X5X,XD ; &.OXqXeXsX&X$X).E._.H.X.7.<.l.B I l.x.j.x.c.c.3.k z NXNXNXNXNXNXNXNXNXNXNXNXNXNX",
"NXNXNXNXNXNXNXNXNXNXNXNXNX,XH : a d : P 3X2XD X N } 8 Y wXzX&X X XH.} m j >.`.}.pX9Xb.:.j.j.c.<.k h.NXNXNXNXNXNXNXNXNXNXNXNXNXNX",
"NXNXNXNXNXNXNXNXNXNXNXNXNXn.9 6 A Z X > V.N.K 8 A A Z T pXzXqX{.'.X.N q B z.+XaXzXfXl.r <.j.x.<.k h.NXNXNXNXNXNXNXNXNXNXNXNXNXNX",
"NXNXNXNXNXNXNXNXNXNXNXNXH 8 ~ -.eXMXJ   d I [.%.*X-XMXmXzXgXOX]..X'. .N `.|.gXzXcXfX7.r :.2.j.j.j h.NXNXNXNXNXNXNXNXNXNXNXNXNXNX",
"NXNXNXNXNXNXNXNXNXNXNXNX: < Q =.vXmXI . . 8 +XeX=X;XbXnXxXsX&.$.@XOX .N .XsXzXzXjX|.I e h :.j.j.k h.NXNXNXNXNXNXNXNXNXNXNXNXNXNX",
"NXNXNXNXNXNXNXNXNXNXNXNXd 1 E *.kXfXK . . 7 XXeX=X;XbXnXxXqX#.[ W.W.} @.qXxXxXjX@X%.7 - h :.4.4.l >.NXNXNXNXNXNXNXNXNXNXNXNXNXNX",
"NXNXNXNXNXNXNXNXNXNXNXNXS 1 E =.hXeXJ   : I &.8X-X-XbXnXxXqXL } I.I.C L qXzXlX+X`.m $ + a j <.1.k h.NXNXNXNXNXNXNXNXNXNXNXNXNXNX",
"NXNXNXNXNXNXNXNXNXNXNXNXS 1 E *.hXdXJ - V.N.b K 8XeXxXxXxXqX@.[ I._.5 b wXsXOX&.9 X # # @ a j :.k 1.NXNXNXNXNXNXNXNXNXNXNXNXNXNX",
"NXNXNXNXNXNXNXNXNXNXNXNXS 1 E *.hXdXA d 2X3XH b &.wXhXlXzXqXL [ I.T.v , %.'.X.V f D f F F g s e c H NXNXNXNXNXNXNXNXNXNXNXNXNXNX",
"NXNXNXNXNXNXNXNXNXNXNXNXS 1 E *.hXdXb d ,X5X3XV.b L .XaXhX+X@.[ I.I.v @ > v = b N.2XF.Z.,XV.f   . g NXNXNXNXNXNXNXNXNXNXNXNXNXNX",
"NXNXNXNXNXNXNXNXNXNXNXNXS 1 E *.hXdXb - n.4X4XC.G F %.'.{.%.q ..W.R.n @ % % % g V.3X5X5XNX,XP > > P NXNXNXNXNXNXNXNXNXNXNXNXNXNX",
"NXNXNXNXNXNXNXNXNXNXNXNXS 1 E *.hXdXJ X v L N Y Z.B.I 7 b f # n @X+Xb   i p p s f P ,XNXNXNXNXNXNXNXNXNXNXNXNXNXNXNXNXNXNXNXNXNX",
"NXNXNXNXNXNXNXNXNXNXNXNXS 1 E *.hXdXJ o L ....%.Z.N.f X X + O n `.&.b - h k :.j   > Z.NXNXNXNXNXNXNXNXNXNXNXNXNXNXNXNXNXNXNXNXNX",
"NXNXNXNXNXNXNXNXNXNXNXNXD 1 E *.hXdXF > }.gXhX9XI f 5 4 4 v s s b 7 c j h :.3.,.* f Z.NXNXNXNXNXNXNXNXNXNXNXNXNXNXNXNXNXNXNXNXNX",
"NXNXNXNXNXNXNXNXNXNXNXNXS 2 W *.rXqX> A fXvXlX9Xb $ N $.$.Y B e d g H ,.k :.j.j.* F ,XNXNXNXNXNXNXNXNXNXNXNXNXNXNXNXNXNXNXNXNXNX",
"NXNXNXNXNXNXNXNXNXNXNXNXD 2 W +.qX}.> b fXlX%.7 4 L wXgXgX}.z k S.>XtXC.>.:.j.3.* f ,XNXNXNXNXNXNXNXNXNXNXNXNXNXNXNXNXNXNXNXNXNX",
"NXNXNXNXNXNXNXNXNXNXNXNXd 2 W +.oX{.; 7 9X9X>   4 $.gXxXcXfXz.l.G.uXuXtXh.k 1.6.f F V.NXNXNXNXNXNXNXNXNXNXNXNXNXNXNXNXNXNXNXNXNX",
"NXNXNXNXNXNXNXNXNXNXNXNXD 2 W +.oX{.7 % J F * $ 4 $.gXxXxXlXyXA.yXyXuXtX1.t v C l.>.g P NXNXNXNXNXNXNXNXNXNXNXNXNXNXNXNXNXNXNXNX",
"NXNXNXNXNXNXNXNXNXNXNXNXd 1 ~ +.oX{.b @ $ $ * * n V wXsXpXdXiXyXiXyXtXC.,.n v V x.<.+ , m.NXNXNXNXNXNXNXNXNXNXNXNXNXNXNXNXNXNXNX",
"NXNXNXNXNXNXNXNXNXNXNXNXd o R O.oX}.b $ ~ ~ $ i 6.z.L @.B n.tXuXuXtXk.x v v 7.l.v.l.a # : H NXNXNXNXNXNXNXNXNXNXNXNXNXNXNXNXNXNX",
"NXNXNXNXNXNXNXNXNXNXNXNXNX> 3 ( OX}.f 6 _ ' 0 - ,.1.V C u 2.C.tXtXC.1.u C V 7.v.j.>.a # < 8 n.NXNXNXNXNXNXNXNXNXNXNXNXNXNXNXNXNX",
"NXNXNXNXNXNXNXNXNXNXNXNXNXNX; 8 +X+Xb 6 _ ' / 0 - g 6.9.e.e.1.B B 1.e.e.e.u.8.j.1.j - 6 ~ ) 8 H NXNXNXNXNXNXNXNXNXNXNXNXNXNXNXNX",
"NXNXNXNXNXNXNXNXNXNXNXNXNXNXNXJ [.%.> $ ~ _ ^ ! 2 > z 5.p.p.2.r :.;.r.i.i.r.8.1.j e & 6 ' ` < d NXNXNXNXNXNXNXNXNXNXNXNXNXNXNXNX",
"NXNXNXNXNXNXNXNXNXNXNXNXNXNXNXNXK = X @ o q ` ' ~ 0 ; s 3.t.p.q.q.i.s.i.t.8.2.k a % O 6 ` ` 1 S NXNXNXNXNXNXNXNXNXNXNXNXNXNXNXNX",
"NXNXNXNXNXNXNXNXNXNXNXNXNXNXNXNXNX: F G S b / ^ ! 0 7 F z <.9.e.e.e.e.e.1.z j a & * = 0 ' ` 1 d NXNXNXNXNXNXNXNXNXNXNXNXNXNXNXNX",
"NXNXNXNXNXNXNXNXNXNXNXNXNXNXNXNXNXNXNXNXNXNX8 < o > V.N.g + - a a - a - ; - - - % $ / ' ] ` < d NXNXNXNXNXNXNXNXNXNXNXNXNXNXNXNX",
"NXNXNXNXNXNXNXNXNXNXNXNXNXNXNXNXNXNXNXNXNXNXNXd : NXNXNXP > > Z > F > Z F : # # $ q ` ] ' / 7 NXNXNXNXNXNXNXNXNXNXNXNXNXNXNXNXNX",
"NXNXNXNXNXNXNXNXNXNXNXNXNXNXNXNXNXNXNXNXNXNXNXNXNXNXNXNXNXNXNXNXNXNXNXNXNXNX: < ~ ' ] _ 3 7 NXNXNXNXNXNXNXNXNXNXNXNXNXNXNXNXNXNX",
"NXNXNXNXNXNXNXNXNXNXNXNXNXNXNXNXNXNXNXNXNXNXNXNXNXNXNXNXNXNXNXNXNXNXNXNXNXNXNX8 ) _ _ / 7 NXNXNXNXNXNXNXNXNXNXNXNXNXNXNXNXNXNXNX",
"NXNXNXNXNXNXNXNXNXNXNXNXNXNXNXNXNXNXNXNXNXNXNXNXNXNXNXNXNXNXNXNXNXNXNXNXNXNXNXNX8 < < 7 NXNXNXNXNXNXNXNXNXNXNXNXNXNXNXNXNXNXNXNX",
"NXNXNXNXNXNXNXNXNXNXNXNXNXNXNXNXNXNXNXNXNXNXNXNXNXNXNXNXNXNXNXNXNXNXNXNXNXNXNXNXNX: : NXNXNXNXNXNXNXNXNXNXNXNXNXNXNXNXNXNXNXNXNX",
"NXNXNXNXNXNXNXNXNXNXNXNXNXNXNXNXNXNXNXNXNXNXNXNXNXNXNXNXNXNXNXNXNXNXNXNXNXNXNXNXNXNXNXNXNXNXNXNXNXNXNXNXNXNXNXNXNXNXNXNXNXNXNXNX",
"NXNXNXNXNXNXNXNXNXNXNXNXNXNXNXNXNXNXNXNXNXNXNXNXNXNXNXNXNXNXNXNXNXNXNXNXNXNXNXNXNXNXNXNXNXNXNXNXNXNXNXNXNXNXNXNXNXNXNXNXNXNXNXNX",
"NXNXNXNXNXNXNXNXNXNXNXNXNXNXNXNXNXNXNXNXNXNXNXNXNXNXNXNXNXNXNXNXNXNXNXNXNXNXNXNXNXNXNXNXNXNXNXNXNXNXNXNXNXNXNXNXNXNXNXNXNXNXNXNX",
"NXNXNXNXNXNXNXNXNXNXNXNXNXNXNXNXNXNXNXNXNXNXNXNXNXNXNXNXNXNXNXNXNXNXNXNXNXNXNXNXNXNXNXNXNXNXNXNXNXNXNXNXNXNXNXNXNXNXNXNXNXNXNXNX",
"NXNXNXNXNXNXNXNXNXNXNXNXNXNXNXNXNXNXNXNXNXNXNXNXNXNXNXNXNXNXNXNXNXNXNXNXNXNXNXNXNXNXNXNXNXNXNXNXNXNXNXNXNXNXNXNXNXNXNXNXNXNXNXNX",
"NXNXNXNXNXNXNXNXNXNXNXNXNXNXNXNXNXNXNXNXNXNXNXNXNXNXNXNXNXNXNXNXNXNXNXNXNXNXNXNXNXNXNXNXNXNXNXNXNXNXNXNXNXNXNXNXNXNXNXNXNXNXNXNX",
"NXNXNXNXNXNXNXNXNXNXNXNXNXNXNXNXNXNXNXNXNXNXNXNXNXNXNXNXNXNXNXNXNXNXNXNXNXNXNXNXNXNXNXNXNXNXNXNXNXNXNXNXNXNXNXNXNXNXNXNXNXNXNXNX",
"NXNXNXNXNXNXNXNXNXNXNXNXNXNXNXNXNXNXNXNXNXNXNXNXNXNXNXNXNXNXNXNXNXNXNXNXNXNXNXNXNXNXNXNXNXNXNXNXNXNXNXNXNXNXNXNXNXNXNXNXNXNXNXNX",
"NXNXNXNXNXNXNXNXNXNXNXNXNXNXNXNXNXNXNXNXNXNXNXNXNXNXNXNXNXNXNXNXNXNXNXNXNXNXNXNXNXNXNXNXNXNXNXNXNXNXNXNXNXNXNXNXNXNXNXNXNXNXNXNX",
"NXNXNXNXNXNXNXNXNXNXNXNXNXNXNXNXNXNXNXNXNXNXNXNXNXNXNXNXNXNXNXNXNXNXNXNXNXNXNXNXNXNXNXNXNXNXNXNXNXNXNXNXNXNXNXNXNXNXNXNXNXNXNXNX"
};
