/* XPM */
static char *result[] = {
/* columns rows colors chars-per-pixel */
"64 64 250 2 ",
"   c #19131A",
".  c #0E0917",
"X  c #28191C",
"o  c #300D1B",
"O  c #1C301D",
"+  c #27251C",
"@  c #251B23",
"#  c #321F25",
"$  c #1B2A23",
"%  c #1E3836",
"&  c #252C2C",
"*  c #272726",
"=  c #352827",
"-  c #283529",
";  c #37342B",
":  c #283532",
">  c #383A36",
",  c #2B2C31",
"<  c #191923",
"1  c #4C171C",
"2  c #65151A",
"3  c #641A1E",
"4  c #640B19",
"5  c #6D301E",
"6  c #701921",
"7  c #593527",
"8  c #443B38",
"9  c #4C332E",
"0  c #6D3727",
"q  c #4E1520",
"w  c #256D1D",
"e  c #1D4A20",
"r  c #264924",
"t  c #285828",
"y  c #2A4537",
"u  c #364638",
"i  c #355A35",
"p  c #2C5832",
"a  c #1E7223",
"s  c #266A25",
"d  c #297C29",
"f  c #277725",
"g  c #35643A",
"h  c #377938",
"j  c #30722F",
"k  c #22591C",
"l  c #4B4436",
"z  c #544D2F",
"x  c #694A26",
"c  c #774529",
"v  c #664938",
"b  c #784634",
"n  c #6F5A38",
"m  c #735732",
"M  c #4E7131",
"N  c #716731",
"B  c #715A1F",
"V  c #4C3847",
"C  c #394C41",
"Z  c #3C5C4B",
"A  c #3C704B",
"S  c #4C4F49",
"D  c #675646",
"F  c #745646",
"G  c #427B55",
"H  c #417D58",
"J  c #4C7B5A",
"K  c #4A7050",
"L  c #706E4F",
"P  c #75736A",
"I  c #911B1E",
"U  c #B51B1E",
"Y  c #BC191B",
"T  c #A52B1C",
"R  c #901F21",
"E  c #BC1F21",
"W  c #8D2B29",
"Q  c #AD2D2D",
"!  c #99291F",
"~  c #C21E21",
"^  c #D72322",
"/  c #CB3E34",
"(  c #E63933",
")  c #C0111B",
"_  c #8B4F1D",
"`  c #966C1D",
"'  c #86522E",
"]  c #8F692D",
"[  c #A57523",
"{  c #E7453E",
"}  c #866749",
"|  c #96674A",
" . c #957447",
".. c #957B5C",
"X. c #8F6E52",
"o. c #A67857",
"O. c #AB7A4E",
"+. c #917A72",
"@. c #8D684D",
"#. c #EE4746",
"$. c #E77D5E",
"%. c #D47D5E",
"&. c #E83F41",
"*. c #38B11F",
"=. c #37AD1F",
"-. c #2C862B",
";. c #358A3D",
":. c #368638",
">. c #359335",
",. c #3A9C3B",
"<. c #3A973A",
"1. c #32942E",
"2. c #3DA43C",
"3. c #3AAC2B",
"4. c #508733",
"5. c #749231",
"6. c #47B83B",
"7. c #4CAE30",
"8. c #609E22",
"9. c #4BD928",
"0. c #4BC738",
"q. c #4AD332",
"w. c #52D92A",
"e. c #4CE524",
"r. c #4FE922",
"t. c #49E526",
"y. c #51EC22",
"u. c #5BE922",
"i. c #4BEA33",
"p. c #74EB22",
"a. c #60C827",
"s. c #378741",
"d. c #3D9645",
"f. c #3FA241",
"g. c #44964B",
"h. c #4B875E",
"j. c #479C52",
"k. c #549959",
"l. c #528E48",
"z. c #7A995B",
"x. c #6D8A4F",
"c. c #43AD43",
"v. c #42A643",
"b. c #46B245",
"n. c #46B745",
"m. c #52AE4C",
"M. c #62B641",
"N. c #4D8C62",
"B. c #4E9667",
"V. c #539768",
"C. c #5B8B62",
"Z. c #729564",
"A. c #4EAD62",
"S. c #56A76B",
"D. c #56B86C",
"F. c #59A873",
"G. c #59BD73",
"H. c #5DB57A",
"J. c #75B878",
"K. c #6DAC6F",
"L. c #5CC174",
"P. c #6EC47E",
"I. c #47C342",
"U. c #3EE129",
"Y. c #918C32",
"T. c #AE8F2F",
"R. c #B5AC27",
"E. c #99901E",
"W. c #C5A91C",
"Q. c #CCB11A",
"!. c #C9B42A",
"~. c #C09B36",
"^. c #90D133",
"/. c #B1D232",
"(. c #91EC22",
"). c #AFE829",
"_. c #DDCB1D",
"`. c #F8F01E",
"'. c #D8C825",
"]. c #DAC731",
"[. c #E6D530",
"{. c #CFED23",
"}. c #EBE725",
"|. c #F4EE24",
" X c #F8EA2A",
".X c #FDF322",
"XX c #FAF826",
"oX c #F6ED36",
"OX c #E5CE1F",
"+X c #8C8752",
"@X c #B38B50",
"#X c #958B6C",
"$X c #A68563",
"%X c #BA9669",
"&X c #B5906F",
"*X c #B2A26E",
"=X c #81A166",
"-X c #CFB156",
";X c #C59A72",
":X c #CAA677",
">X c #D4AC7D",
",X c #D3AC75",
"<X c #DBB778",
"1X c #D1AD68",
"2X c #EB9B72",
"3X c #D8CB48",
"4X c #EBD54E",
"5X c #E8CC6C",
"6X c #F1E046",
"7X c #6365AF",
"8X c #2F54FC",
"9X c #6470D6",
"0X c #5F6FD0",
"qX c #BD7B84",
"wX c #69D78A",
"eX c #6EC983",
"rX c #6EE496",
"tX c #74E798",
"yX c #7E90C4",
"uX c #A89D84",
"iX c #B4AA8E",
"pX c #ADB1B2",
"aX c #AA8F93",
"sX c #FB9B82",
"dX c #D9B588",
"fX c #DCBB92",
"gX c #CCB28E",
"hX c #E4BC8B",
"jX c #EDAFA7",
"kX c #94DA9B",
"lX c #88D090",
"zX c #99E4A3",
"xX c #A9C992",
"cX c #D4C79D",
"vX c #E6C597",
"bX c #EECA93",
"nX c #CFC9B3",
"mX c #EAD3AB",
"MX c #F4D4A8",
"NX c #F4DAB3",
"BX c #F8DDB8",
"VX c #EAD0AA",
"CX c #F9E3BA",
"ZX c #8E9FF6",
"AX c #FEE9C5",
"SX c #FFF2D3",
"DX c #FDFAEE",
"FX c #E7EBFE",
"GX c #E4DFE2",
"HX c None",
/* pixels */
"HXHXHXHXHXHXHXHXHXHXHXHXHXHXHXHXHXHXHXHXHXHXHXHXHXHXHXHXHXHXHXHXHXHXHXHXHXHXHXHXHXHXHXHXHXHXHXHXHXHXHXHXHXHXHXHXHXHXHXHXHXHXHXHX",
"HXHXHXHXHXHXHXHXHXHXHXHXHXHXHXHXHXHXHXHXHXHXHXHXHXHXHXHXHXHXHXHXHXHXHXHXHXHXHXHXHXHXHXHXHXHXHXHXHXHXHXHXHXHXHXHXHXHXHXHXHXHXHXHX",
"HXHXHXHXHXHXHXHXHXHXHXHXHXHXHXHXHXHXHXHXHXHXHXHXHXHXHXHXHXHXHXHXHXHXHXHXHXHXHXHXHXHXHXHXHXHXHXHXHXHXHXHXHXHXHXHXHXHXHXHXHXHXHXHX",
"HXHXHXHXHXHXHXHXHXHXHXHXHXHXHXHXHXHXHXHXHXHXHXHXHXHXHXHXHXHXHXHXHXHXHXHXHXHXHXHXHXHXHXHXHXHXHXHXHXHXHXHXHXHXHXHXHXHXHXHXHXHXHXHX",
"HXHXHXHXHXHXHXHXHXHXHXHXHXHXHXHXHXHXHXHXHXHXHXHXHXHXHXHXHXHXL.G.G.G.L.L.G.G.G.G.G.eXHXHXHXHXHXHXHXHXHXHXHXHXHXHXHXHXHXHXHXHXHXHX",
"HXHXHXHXHXHXHXHXHXHXHXHXHXHXHXHXHXHXHXHXHXHXHXHXHXHXHXHXHXG.g.:.;.s.;.:.s.s.s.s.;.A.wXHXHXHXHXHXHXHXHXHXHXHXHXHXHXHXHXHXHXHXHXHX",
"HXHXHXHXHXHXHXHXHXHXHXHXHXHXHXHXHXHXHXHXHXHXHXHXHXHXHXHXeXA.j w f f f f f f f f f d.G.HXHXHXHXHXHXHXHXHXHXHXHXHXHXHXHXHXHXHXHXHX",
"HXHXHXHXHXHXHXHXHXHXHXHXHXHXHXHXHXHXHXHXHXHXHXHXHXZ.L x.x.l.:.1.=.*.*.*.*.*.=.1.>.d.d.A.eXHXHXHXHXHXHXHXHXHXHXHXHXHXHXHXHXHXHXHX",
"HXHXHXHXHXHXHXHXHXHXHXHXHXHXHXHXHXHXHXHXHXHXHXHXK.n W 0 c 4.v.n.q.e.9.e.e.e.9.0.2.,.d s.D.HXHXHXHXHXHXHXHXHXHXHXHXHXHXHXHXHXHXHX",
"HXHXHXHXHXHXHXHXHXHXHXHXHXHXHXHXHXHXHXHXK.K.K.K.+X[ [ [ [ 5.6.q.t.y.y.y.y.y.r.9.q.3.=.1.c.D.HXHXHXHXHXHXHXHXHXHXHXHXHXHXHXHXHXHX",
"HXHXHXHXHXHXHXHXHXHXHXHXHXHXHXHXHXHXHXK.L v D n Y.Q.OXOX_.^.e.t.e.r.y.r.r.r.r.e.t.9.9.7.1.:.A.wXHXHXHXHXHXHXHXHXHXHXHXHXHXHXHXHX",
"HXHXHXHXHXHXHXHXHXHXHXHXHXHXHXHXHXHXeXz.] ' 5 _ R.|.XXXXXX).p.u.y.r.r.r.r.r.r.r.r.y.r.9.=.-.d.L.HXHXHXHXHXHXHXHXHXHXHXHXHXHXHXHX",
"HXHXHXHXHXHXHXHXHXHXHXHXHXHXHXHXHXK.P Y.T.W.W.W._.`.oX6X4X3X).(.p.r.t.r.r.r.r.r.r.r.y.e.9.*.7.d.A.P.HXHXHXHXHXHXHXHXHXHXHXHXHXHX",
"HXHXHXHXHXHXHXHXHXHXHXHXHXHXHXHXeXL c T.OX.X X}.`.|.[.5X<X4XoX{.p.r.t.r.r.r.r.r.r.r.r.r.e.e.*.-.s.D.HXHXHXHXHXHXHXHXHXHXHXHXHXHX",
"HXHXHXHXHXHXHXHXHXHXHXHXHXHXHXHXz.Y.[ Q.|.XXoX6X[.].].3X5X[..X{.(.t.t.r.r.r.r.r.r.r.r.r.e.9.3.1.;.j.D.HXHXHXHXHXHXHXHXHXHXHXHXHX",
"HXHXHXHXHXHXHXHXHXHXHXHXHXHXHXL ] R._.}.`.oX4X<X1X@X~.3XoXoX|.{.p.U.t.r.r.r.r.r.r.r.r.e.q.6.6.v.,.>.s.A.HXHXHXHXHXHXHXHXHXHXHXHX",
"HXHXHXHXHXHXHXHXHXHXHXHXHXHXHXv _ Q.XXXXoX6X1X:Xo.O.~.[. X.X.X{.(.u.u.r.r.r.y.r.y.e.e.q.I.b.b.b.2.-.s j.HXHXHXHXHXHXHXHXHXHXHXHX",
"HXHXHXHXHXHXHXHXHXHXHXHXHXHXHXb _ Q.XXoX5X-X@X| o.;X1X[..X.X.X}.{.).(.u.r.r.r.r.r.w.q.0.b.b.b.b.2.-.w j.HXHXHXHXHXHXHXHXHXHXHXHX",
"HXHXHXHXHXHXHXHXHXHXHXHXHXHXHXF ' W. X6X,X;X} c o.:X5X[.|.|.|.|.`.}.).u.t.t.y.r.e.q.n.n.b.b.b.b.f.-.d j.wXHXHXHXHXHXHXHXHXHXHXHX",
"HXHXHXHXHXHXHXHXHXHXHXHXHXHXHXZ.+XE.R.T.@Xo.O.| o.,X1X-X'.OX|..X.X|.(.q.q.q.q.q.q.0.b.b.b.b.b.b.f.<.>.d.A.L.HXHXHXHXHXHXHXHXHXHX",
"HXHXHXHXHXHXHXHXHXHXHXHXHXHXHXHXHXx._ _ ' | o.;X>X>X:X@XT.!.}..X.X}.^.0.6.b.6.n.n.b.b.b.n.n.b.b.b.c.v.>.h g.HXHXHXHXHXHXHXHXHXHX",
"HXHXHXHXHXHXHXHXHXHXHXHXHXHXHXHXHXZ.D 0 7 b @XhXbXhX>X;X@X!.}..X.X}./.M.m.c.c.f.7.d.,.2.b.f.b.b.b.b.c.>.w h HXHXHXHXHXHXHXHXHXHX",
"HXHXHXHXHXHXHXHXHXHXHXHXHXHXHXHXHXHXK.K > 7 o.hXMXMXvXdX1X-X}.`.XX}.R.+Xx.m.f.d.-.-.-.-.2.n.b.b.b.n.b.>.f ;.HXHXHXHXHXHXHXHXHXHX",
"HXHXHXHXHXHXHXHXHXHXHXHXHXHXHXHXHXHXrXB.: 8 X.dXvXVXVXfX<X4XoX|.|.}.!.T.5.m.f.s.d s j -.d.b.f.n.b.n.c.>.d ;.HXHXHXHXHXHXHXHXHXHX",
"HXHXHXHXHXHXHXHXHXHXF.B.h.h.h.N.F.wXtXS.% * b O.$X#X&XgXbX5X5X4X].!.[ ] N 4.>.l.x.+X=Xz.v.<.2.f.b.n.c.>.-.s.D.HXHXHXHXHXHXHXHXHX",
"HXHXHXHXHXHXHXHXHXH.Z % & : - - S H.rXV.: X x c 7 ; D iXBXbX5X1X@X@X] ' x s -.z.%XhXmXcXz.d -.2.b.n.c.>.d s.HXHXHXHXHXHXHXHXHXHX",
"HXHXHXHXHXHXHXHXHXJ 9 q V S V @ - h.H.C.S S D V V C P nXCXvX:X;X@XO.' c z M l.*XhXMXAXmX=Xf d >.v.c.b.>.f ;.D.HXHXHXHXHXHXHXHXHX",
"HXHXHXHXHXHXHXHXA v W Q aXpX+.V @ y A L X.qX7X7X0XpXnXmXMXdX%X@X;X%X| 0 B  .*XgXVXCXAXmX=Xd a -.>.f.f.>.d ;.D.HXHXHXHXHXHXHXHXHX",
"HXHXHXHXHXHXHXHX, 4 Y #.jXDXpXS     * F :XgX9X8XZXFXDXSXmX:XO.@X;X,XO.c ] &XhXvXNXCXBXcXz.a k a d ,.c.>.d ;.HXHXHXHXHXHXHXHXHXHX",
"HXHXHXHXHXHXHXA @ 4 ) #.jXDXpXS . . @ n 2XpX9X8XZXFXDXSXmX;X]  .-X3XT.c | gXMXBXCXMXfX*XL t e w d ,.c.<.d :.HXHXHXHXHXHXHXHXHXHX",
"HXHXHXHXHXHXHXA : 2 U &.sXBXaXV   . & L ;XiX9X8XZXFXGXSXmX&Xb ` '.}.T.c | dXBXAXCXcX;X .z - O s -.,.b.>.d ;.HXHXHXHXHXHXHXHXHXHX",
"HXHXHXHXHXHXHXH & 2 U &.sXMXuXS $ : Z L $X+.7X9XZXGXDXAXmX&Xb ] _.|.T.7 @.gXBXVXvX:X] x ; * O e s :.,.-.d ;.HXHXHXHXHXHXHXHXHXHX",
"HXHXHXHXHXHXHXN.& 2 U { sXNXuX8 % A F.C.l D qXiXnXCXAXAXVXaX0 ` _.}.E.; D *XbXdX%X .z = X X   * - s -.-.f ;.HXHXHXHXHXHXHXHXHXHX",
"HXHXHXHXHXHXHXA & 2 U { sXNXuX8 y S.rXF.y > P ,XvXmXCXCXVX%.F ` _.}.E.* 8 $X;X@X .n u : , : > , - t w k s :.HXHXHXHXHXHXHXHXHXHX",
"HXHXHXHXHXHXHXH & 2 U { sXNXuX8 : S.tXrXS.J L L &XfXbXMXvX$Xb [ _.}.E.* , D F n z n J N.N.N.h.N.G p e O O g HXHXHXHXHXHXHXHXHXHX",
"HXHXHXHXHXHXHXN.& 2 U { sXNXuX8 y B.tXtXrXH.Z ; F gXhXbX>X .0 ` _.}.E.+ < = ; # = Z H.rXrXwXwXrXG.K +   X C HXHXHXHXHXHXHXHXHXHX",
"HXHXHXHXHXHXHXA & 2 U #.sXNXuXV - K K.P.P.K.G Z L ..o.$X..} 7 ] 3X[.Y.- < $ O O $ Z A.eXrXHXHXHXHXV.S C Z H HXHXHXHXHXHXHXHXHXHX",
"HXHXHXHXHXHXHXH & 2 U { sXNXuXC + l N B n L K.H.J S 9 V 8 = # n 1X1X ., $ e k s k t y K F.HXHXHXHXHXHXHXHXHXHXHXHXHXHXHXHXHXHXHX",
"HXHXHXHXHXHXHXh.& 2 U { sXBXuXC # 9 b ' ' F K.eXN.y * & & $ $ z ..&XL > O k f f d t + ; V.HXHXHXHXHXHXHXHXHXHXHXHXHXHXHXHXHXHXHX",
"HXHXHXHXHXHXHXA & 2 U { sXBXuXV = @.&X;X;X&XZ.h.A h g j j p r i D D l e k a d -.>.s * : C.HXHXHXHXHXHXHXHXHXHXHXHXHXHXHXHXHXHXHX",
"HXHXHXHXHXHXHXH & 2 U { 2XBXuX8 > #XNXAXCXgXP $ p d.n.b.f.>.s t - - r s f s f >.2.h - > N.HXHXHXHXHXHXHXHXHXHXHXHXHXHXHXHXHXHXHX",
"HXHXHXHXHXHXHXH & 3 U { 2XMX#X8 V uXAXBXgX#XK y h v.n.n.b.>.d j A S G g.;.d f ,.n.:.- : V.HXHXHXHXHXHXHXHXHXHXHXHXHXHXHXHXHXHXHX",
"HXHXHXHXHXHXHXH & 3 U ( $.hX..; l iXAXgXL S A <.j.b.b.b.f.>.d :.Z.J.eXJ.k.4.w 1.b.h - > B.HXHXHXHXHXHXHXHXHXHXHXHXHXHXHXHXHXHXHX",
"HXHXHXHXHXHXHXH & 3 U { $.>X..; > #XVX+.= O 4.6.I.m.b.b.b.1.d s.J.zXzXkXP.k.:.<.f.:.r u N.eXHXHXHXHXHXHXHXHXHXHXHXHXHXHXHXHXHXHX",
"HXHXHXHXHXHXHXH & 2 ~ ( $.:X..> = F o.F , ; 5.).^.I.n.b.f.1.a g.eXzXzXkXlXJ.K.g.;.-.h h A h.V.HXHXHXHXHXHXHXHXHXHXHXHXHXHXHXHXHX",
"HXHXHXHXHXHXHXH & 2 E ( $.dX+X> * 7 x 9 @ z R.|./.n.b.b.f.1.f :.J.kXkXkXkXlXeXj.j -.2.d.p * K HXHXHXHXHXHXHXHXHXHXHXHXHXHXHXHXHX",
"HXHXHXHXHXHXHXH * q ! / $.dX..8 * z L l $ z Q.`.'.5.M 4.4.M M M k.K.P.lXkXzXlXk.j -.b.f.t X S HXHXHXHXHXHXHXHXHXHXHXHXHXHXHXHXHX",
"HXHXHXHXHXHXHXG < q I Q %.:X#X> : B.P.h.$ z Q.|.!.B v v x x x z j :.D.lXzXkXlXk.f -.2.6.t + K HXHXHXHXHXHXHXHXHXHXHXHXHXHXHXHXHX",
"HXHXHXHXHXHXHXHXC 9 3 W $XdX..9 y S.rXF.% 9 E.{.R.` x x B x x x M g.=XkXxXlXJ.j.:.-.>.:.g C J HXHXHXHXHXHXHXHXHXHXHXHXHXHXHXHXHX",
"HXHXHXHXHXHXHXHXHXK 9 7 o.hXo.; y F.HXHX- - 5.^.M.a.8.8.8.B x m +XxXcXcXxXK.g.3.<.:.p i G V.HXHXHXHXHXHXHXHXHXHXHXHXHXHXHXHXHXHX",
"HXHXHXHXHXHXHXHXHXHXy 9 X.gX..8 y V.HXHXu - h 6.q.t.y.y.w.8.c | dXCXAXNXxX4.w 1.7.h - u V.HXHXHXHXHXHXHXHXHXHXHXHXHXHXHXHXHXHXHX",
"HXHXHXHXHXHXHXHXHXHXHXJ L X.D # > V.HXHXHXA A j 2.U.i.i.w.4.c | fXSXSXAXdXx.z w h A K h.HXHXHXHXHXHXHXHXHXHXHXHXHXHXHXHXHXHXHXHX",
"HXHXHXHXHXHXHXHXHXHXHXHXK 9 @   : HXHXHXHXF.Z - j 7.I.I.6.M x | fXAXSXAXgXX.7 ; - A S.HXHXHXHXHXHXHXHXHXHXHXHXHXHXHXHXHXHXHXHXHX",
"HXHXHXHXHXHXHXHXHXHXHXHXHXu : > K HXHXHXHXHXJ C g A ;.<.4.M 7 } &XcXVXvX&X} 7 o @ K HXHXHXHXHXHXHXHXHXHXHXHXHXHXHXHXHXHXHXHXHXHX",
"HXHXHXHXHXHXHXHXHXHXHXHXHXHXHXHXHXHXHXHXHXHXHXV.G g t p p - - z } o.....} 7 = o X Z HXHXHXHXHXHXHXHXHXHXHXHXHXHXHXHXHXHXHXHXHXHX",
"HXHXHXHXHXHXHXHXHXHXHXHXHXHXHXHXHXHXHXHXHXHXHXHXh.> @ * * @ + = 0 0 c c 7 = * @ * K HXHXHXHXHXHXHXHXHXHXHXHXHXHXHXHXHXHXHXHXHXHX",
"HXHXHXHXHXHXHXHXHXHXHXHXHXHXHXHXHXHXHXHXHXHXHXHXV.: o 3 6 R 6 W ! T Q T 5 1 $ y HXHXHXHXHXHXHXHXHXHXHXHXHXHXHXHXHXHXHXHXHXHXHXHX",
"HXHXHXHXHXHXHXHXHXHXHXHXHXHXHXHXHXHXHXHXHXHXHXHXN.y q ! ^ ^ ^ ^ ^ ^ ^ ^ U q : HXHXHXHXHXHXHXHXHXHXHXHXHXHXHXHXHXHXHXHXHXHXHXHXHX",
"HXHXHXHXHXHXHXHXHXHXHXHXHXHXHXHXHXHXHXHXHXHXHXHXN.: 1 R ~ ~ E E E E E U W z A HXHXHXHXHXHXHXHXHXHXHXHXHXHXHXHXHXHXHXHXHXHXHXHXHX",
"HXHXHXHXHXHXHXHXHXHXHXHXHXHXHXHXHXHXHXHXHXHXHXHXN.: o 1 3 3 3 3 3 3 4 3 D HXHXHXHXHXHXHXHXHXHXHXHXHXHXHXHXHXHXHXHXHXHXHXHXHXHXHX",
"HXHXHXHXHXHXHXHXHXHXHXHXHXHXHXHXHXHXHXHXHXHXHXHXHXu * & : & : & : & * & HXHXHXHXHXHXHXHXHXHXHXHXHXHXHXHXHXHXHXHXHXHXHXHXHXHXHXHX",
"HXHXHXHXHXHXHXHXHXHXHXHXHXHXHXHXHXHXHXHXHXHXHXHXHXHXHXHXHXHXHXHXHXHXHXHXHXHXHXHXHXHXHXHXHXHXHXHXHXHXHXHXHXHXHXHXHXHXHXHXHXHXHXHX",
"HXHXHXHXHXHXHXHXHXHXHXHXHXHXHXHXHXHXHXHXHXHXHXHXHXHXHXHXHXHXHXHXHXHXHXHXHXHXHXHXHXHXHXHXHXHXHXHXHXHXHXHXHXHXHXHXHXHXHXHXHXHXHXHX",
"HXHXHXHXHXHXHXHXHXHXHXHXHXHXHXHXHXHXHXHXHXHXHXHXHXHXHXHXHXHXHXHXHXHXHXHXHXHXHXHXHXHXHXHXHXHXHXHXHXHXHXHXHXHXHXHXHXHXHXHXHXHXHXHX"
};
