/* XPM */
static char *result[] = {
/* columns rows colors chars-per-pixel */
"64 64 251 2 ",
"   c #1B1B17",
".  c #110C13",
"X  c #360813",
"o  c #251A1B",
"O  c #36121E",
"+  c #240B1F",
"@  c #1B271C",
"#  c #17311E",
"$  c #21231F",
"%  c #2F2D1F",
"&  c #171421",
"*  c #351821",
"=  c #251A27",
"-  c #152824",
";  c #193427",
":  c #083C25",
">  c #263A28",
",  c #393228",
"<  c #283B33",
"1  c #383B36",
"2  c #2F2826",
"3  c #440A16",
"4  c #45111E",
"5  c #46181F",
"6  c #5B1E14",
"7  c #562A19",
"8  c #481620",
"9  c #531321",
"0  c #4A2223",
"q  c #48352C",
"w  c #463935",
"e  c #563230",
"r  c #772323",
"t  c #683125",
"y  c #702518",
"u  c #1B5A1D",
"i  c #28581E",
"p  c #3F4011",
"a  c #166E1A",
"s  c #25741C",
"d  c #216B19",
"f  c #1B4F26",
"g  c #284623",
"h  c #215B20",
"j  c #285827",
"k  c #244235",
"l  c #2B4A3D",
"z  c #27463A",
"x  c #33483B",
"c  c #2E5539",
"v  c #1D7422",
"b  c #246924",
"n  c #227322",
"m  c #297B26",
"M  c #2D7D32",
"N  c #36793A",
"B  c #2D6B2F",
"V  c #4D4C1C",
"C  c #47483B",
"Z  c #544F31",
"A  c #674B2A",
"S  c #6B5524",
"D  c #6C5838",
"F  c #745538",
"G  c #784E30",
"H  c #4F7033",
"J  c #617826",
"K  c #67441F",
"L  c #383C40",
"P  c #513949",
"I  c #264D40",
"U  c #294B40",
"Y  c #374640",
"T  c #36714E",
"R  c #584A45",
"E  c #50524A",
"W  c #6B5340",
"Q  c #655F52",
"!  c #476B55",
"~  c #536D4A",
"^  c #716F49",
"/  c #706A66",
"(  c #91151B",
")  c #B41219",
"_  c #B11418",
"`  c #861F20",
"'  c #AE1F20",
"]  c #8D2826",
"[  c #A82624",
"{  c #B72223",
"}  c #CB1F20",
"|  c #C82122",
" . c #D32223",
".. c #EC2323",
"X. c #855618",
"o. c #92561C",
"O. c #8A4F1D",
"+. c #894933",
"@. c #8E582E",
"#. c #8C6E30",
"$. c #B26028",
"%. c #EC4A3D",
"&. c #8C5648",
"*. c #92724C",
"=. c #A57B57",
"-. c #A17B4B",
";. c #A27F6B",
":. c #9A7964",
">. c #F4554A",
",. c #F85350",
"<. c #C94B4D",
"1. c #2C8227",
"2. c #2A8A31",
"3. c #358637",
"4. c #3B9B3C",
"5. c #38943A",
"6. c #308F2F",
"7. c #3EA33E",
"8. c #3EAB38",
"9. c #3ABD3E",
"0. c #2B801F",
"q. c #51973E",
"w. c #4B8C3A",
"e. c #43A93C",
"r. c #45BA3C",
"t. c #51A92C",
"y. c #69AF36",
"u. c #39E427",
"i. c #3FDA2B",
"p. c #42C723",
"a. c #4AD928",
"s. c #4ACA37",
"d. c #4BD533",
"f. c #55CE24",
"g. c #6BC53D",
"h. c #63D629",
"j. c #4EE922",
"k. c #4CE427",
"l. c #53E922",
"z. c #50F222",
"x. c #4DF628",
"c. c #69EB22",
"v. c #79E625",
"b. c #398440",
"n. c #3E9240",
"m. c #3EA541",
"M. c #38B248",
"N. c #449942",
"B. c #469955",
"V. c #56924C",
"C. c #40A640",
"Z. c #43AE44",
"A. c #46B246",
"S. c #46BC44",
"D. c #47B944",
"F. c #4EA258",
"G. c #569A65",
"H. c #53A26C",
"J. c #53B568",
"K. c #58AB74",
"L. c #5CB779",
"P. c #67B778",
"I. c #72BA7B",
"U. c #68AA6B",
"Y. c #6B9663",
"T. c #60C67B",
"R. c #61C87C",
"E. c #72C17B",
"W. c #53C462",
"Q. c #AE8C30",
"!. c #BBA82B",
"~. c #80AF36",
"^. c #C9B629",
"/. c #C7AE1E",
"(. c #B9C827",
"). c #B8EE22",
"_. c #95EB26",
"`. c #E5D51E",
"'. c #FBFA1F",
"]. c #D9C934",
"[. c #C9CA2C",
"{. c #E6D826",
"}. c #E1CD37",
"|. c #EDD932",
" X c #D7EA27",
".X c #DEE836",
"XX c #F5EA24",
"oX c #FDF222",
"OX c #FAFA24",
"+X c #F6E737",
"@X c #FDF635",
"#X c #EAE72C",
"$X c #DFD41F",
"%X c #988A59",
"&X c #A8855C",
"*X c #B38D4B",
"=X c #B99877",
"-X c #B3926A",
";X c #B9A97C",
":X c #9E8261",
">X c #CFAE54",
",X c #C59967",
"<X c #C99D74",
"1X c #D79E75",
"2X c #E79D71",
"3X c #CAA565",
"4X c #D5B467",
"5X c #C8A977",
"6X c #D3B17A",
"7X c #EEA87F",
"8X c #E8D349",
"9X c #DFC368",
"0X c #E9CB6E",
"qX c #4C58BA",
"wX c #3F57EB",
"eX c #5766CD",
"rX c #456BFF",
"tX c #425CEF",
"yX c #64CB85",
"uX c #65D084",
"iX c #67D487",
"pX c #71D089",
"aX c #71F8A3",
"sX c #7180EB",
"dX c #A28584",
"fX c #B4A886",
"gX c #ABB4B7",
"hX c #CFB38E",
"jX c #CDB2AB",
"kX c #FDBE9B",
"lX c #83C98A",
"zX c #8DD494",
"xX c #9EE6A9",
"cX c #A0D79B",
"vX c #D2C597",
"bX c #F4CB97",
"nX c #E8C596",
"mX c #CEC5A3",
"MX c #D7CCA8",
"NX c #E8C8A3",
"BX c #FEC8A5",
"VX c #F7DCB4",
"CX c #F3D7B1",
"ZX c #FCE3B9",
"AX c #FEEDC9",
"SX c #FFF5CC",
"DX c #FFE3DB",
"FX c #FFFEED",
"GX c #D9DBE1",
"HX c #A7AECE",
"JX c None",
/* pixels */
"JXJXJXJXJXJXJXJXJXJXJXJXJXJXJXJXJXJXJXJXJXJXJXJXJXJXJXJXJXJXJXJXJXJXJXJXJXJXJXJXJXJXJXJXJXJXJXJXJXJXJXJXJXJXJXJXJXJXJXJXJXJXJXJX",
"JXJXJXJXJXJXJXJXJXJXJXJXJXJXJXJXJXJXJXJXJXJXJXJXJXJXJXJXJXJXJXJXJXJXJXJXJXJXJXJXJXJXJXJXJXJXJXJXJXJXJXJXJXJXJXJXJXJXJXJXJXJXJXJX",
"JXJXJXJXJXJXJXJXJXJXJXJXJXJXJXJXJXJXJXJXJXJXJXJXJXJXJXJXJXJXJXJXJXJXJXJXJXJXJXJXJXJXJXJXJXJXJXJXJXJXJXJXJXJXJXJXJXJXJXJXJXJXJXJX",
"JXJXJXJXJXJXJXJXJXJXJXJXJXJXJXJXJXJXJXJXJXJXJXJXJXJXJXJXJXJXJXJXJXJXJXJXJXJXJXJXJXJXJXJXJXJXJXJXJXJXJXJXJXJXJXJXJXJXJXJXJXJXJXJX",
"JXJXJXJXJXJXJXJXJXJXJXJXJXJXJXJXJXJXJXJXJXJXJXJXJXJXJXJXJXJXJXJXJXJXJXJXJXJXJXJXJXJXJXJXJXJXJXJXJXJXJXJXJXJXJXJXJXJXJXJXJXJXJXJX",
"JXJXJXJXJXJXJXJXJXJXJXJXJXJXJXJXJXJXJXJXJXJXJXJXJXJXJXJXJXJXJXJXJXJXJXJXJXJXJXJXJXJXJXJXJXJXJXJXJXJXJXJXJXJXJXJXJXJXJXJXJXJXJXJX",
"JXJXJXJXJXJXJXJXJXJXJXJXJXJXJXJXJXJXJXJXJXJXJXJXJXJXJXJXJXJXJXJXJXJXJXJXJXJXJXJXJXJXJXJXJXJXJXJXJXJXJXJXJXJXJXJXJXJXJXJXJXJXJXJX",
"JXJXJXJXJXJXJXJXJXJXJXJXJXJXJXJXJXJXJXJXJXJXJXJXJXJXJXJXJXJXJXJXJXJXJXJXJXJXJXJXJXJXJXJXJXJXJXJXJXJXJXJXJXJXJXJXJXJXJXJXJXJXJXJX",
"JXJXJXJXJXJXJXJXJXJXJXJXJXJXJXJXJXJXJXJXJXJXJXJXJXJXJXJXJXJXJXJXJXJXJXJXJXJXJXJXJXJXJXJXJXJXJXJXJXJXJXJXJXJXJXJXJXJXJXJXJXJXJXJX",
"JXJXJXJXJXJXJXJXJXJXJXJXJXJXJXJXJXJXJXJXJXJXJXJXJXJXJXJXuXT.T.T.yXT.T.T.R.yXJXJXJXJXJXJXJXJXJXJXJXJXJXJXJXJXJXJXJXJXJXJXJXJXJXJX",
"JXJXJXJXJXJXJXJXJXJXJXJXJXJXJXJXJXJXJXJXJXJXJXJXJXJXJXuXB.M 3.N T 3.b.N M B.pXJXJXJXJXJXJXJXJXJXJXJXJXJXJXJXJXJXJXJXJXJXJXJXJXJX",
"JXJXJXJXJXJXJXJXJXJXJXJXJXJXJXJXJXI.I.E.E.I.I.I.E.I.pXK.3.s 0.0.0.1.0.m s 3.J.uXR.T.T.uXJXJXJXJXJXJXJXJXJXJXJXJXJXJXJXJXJXJXJXJX",
"JXJXJXJXJXJXJXJXJXJXJXJXJXJXJXJX^ F D W D D D F W W W Q w.8.r.p.p.p.p.p.8.5.3.3.T 3.M B.uXJXJXJXJXJXJXJXJXJXJXJXJXJXJXJXJXJXJXJX",
"JXJXJXJXJXJXJXJXJXJXJXJXJXJXJXJXF y o.o.@.] +.+.o.o.o.#.t.s.j.z.z.z.z.k.s.r.6.s 0.0.s 3.J.uXJXJXJXJXJXJXJXJXJXJXJXJXJXJXJXJXJXJX",
"JXJXJXJXJXJXJXJXJXJXJXJXJXJXJXJXW o./.].3X=X=X,X^.`.`.(.h.u.j.z.z.j.j.j.a.a.p.p.a.p.8.5.3.B.R.JXJXJXJXJXJXJXJXJXJXJXJXJXJXJXJXJX",
"JXJXJXJXJXJXJXJXJXJXJXJXJXJXJXJXW o.`.@X0X0X0X0X@XOX@X X_.c.l.z.j.j.j.j.l.j.z.z.z.a.s.e.1.3.J.uXJXJXJXJXJXJXJXJXJXJXJXJXJXJXJXJX",
"JXJXJXJXJXJXJXJXJXJXJXJXJXJXJXJXD o.$X'.#X+X.X+XoX+X0X9X.X).c.z.j.k.j.j.j.l.j.j.l.l.a.f.e.5.3.B.pXJXJXJXJXJXJXJXJXJXJXJXJXJXJXJX",
"JXJXJXJXJXJXJXJXJXJXJXJXJXJXJXJX^ #./.XXOXoX+X|.|.}.9X9X+X Xv.u.k.j.j.j.j.j.j.l.j.k.k.d.S.e.m 3.J.uXR.JXJXJXJXJXJXJXJXJXJXJXJXJX",
"JXJXJXJXJXJXJXJXJXJXJXJXJXJXJXJXJXU.#.$.`.@X0X4X*X/.}.+XoX Xc.u.j.j.j.j.j.j.l.l.j.k.s.D.D.Z.C.4.5.T M B.uXJXJXJXJXJXJXJXJXJXJXJX",
"JXJXJXJXJXJXJXJXJXJXJXJXJXJXJXJXJXJX/ F ^.}.3X=X=.*X{.OXoX X_.c.l.j.j.j.j.j.k.a.d.d.r.A.A.A.A.C.1.s s 3.J.uXR.JXJXJXJXJXJXJXJXJX",
"JXJXJXJXJXJXJXJXJXJXJXJXJXJXJXJXJXJXJXY.Q.@.O.&.-X4X+X'.oXXX#X).c.k.j.j.l.k.s.D.s.D.A.A.A.Z.A.Z.e.7.7.4.n.N M B.JXJXJXJXJXJXJXJX",
"JXJXJXJXJXJXJXJXJXJXJXJXJXJXJXJXJXJXJXyXC 7 t *.<X6X}.{.XXoXoX Xv.a.a.a.a.d.D.A.Z.A.A.Z.m.m.Z.A.A.A.A.C.6.n s 3.J.JXJXJXJXJXJXJX",
"JXJXJXJXJXJXJXJXJXJXJXJXJXJXJXJXJXJXJXT.x q =.<X1X4X*X!.`.oXoX Xg.M.S.s.r.S.A.A.A.A.A.C.3.6.C.A.A.A.A.Z.C.4.m.4.5.B.JXJXJXJXJXJX",
"JXJXJXJXJXJXJXJXJXJXJXJXJXJXJXJXJXJXJXP.< q -XnXnXhX;.Q.{.'.oX.Xg.M.A.Z.m.4.4.e.Z.Z.C.5.m m 5.m.m.7.C.7.7.e.m.5.h B JXJXJXJXJXJX",
"JXJXJXJXJXJXJXJXJXJXJXJXJXJXJXJXJXJXJXP.k q -XbXZXCX5X>X|.oXOX Xg.M.A.7.2.v a 2.C.C.6.m n n m 1.1.M 1.1.1.2.1.b # x JXJXJXJXJXJX",
"JXJXJXJXJXJXJXJXJXJXJXJXJXL.L.P.JXJXJXyXk , =.1XhXvXhXnX8X+X|.[.y.q.7.w.w.H V.N.N.6.M n n n n b h h h h h h i j g ! JXJXJXJXJXJX",
"JXJXJXJXJXJXJXJXJXJXJXJXT k > < < ! JXyX< O G O.q Q hXVX0X4X!.-.F Z s w.%X;XhXfXV.a v b n n n h >   $ $ $ $ o k G.JXJXJXJXJXJXJX",
"JXJXJXJXJXJXJXJXJXJXJXG.q 5 P E o < H.P.~ e P R w / vXZXhX,X*X*.t K H V.;XbXSXMXV.a v b h h h j x Y Y Y Y x 1 ! JXJXJXJXJXJXJXJX",
"JXJXJXJXJXJXJXJXJXJXT w ( <.jXgXE   < ~ :XdXqXeXHXGXZXNX-X*X5X-X+.G %X;XMXZXAXMXN.a v b ; o   x H.JXJXJXJXJXJXJXJXJXJXJXJXJXJXJX",
"JXJXJXJXJXJXJXJXJXJX< 3 ) ,.DXGXE . . q ,XjXrXrXGXFXSXvX=.Q.4X>X+.+.,XbXZXZXVX;X~ u h j x x 1 ! JXJXJXJXJXJXJXJXJXJXJXJXJXJXJXJX",
"JXJXJXJXJXJXJXJXJXJXl 4 ) >.BXMXE . . w ,XjXwXrXGXFXDXhX&.o.}.}.G G ,XbXZXCX4X%XZ #   x H.JXJXJXJXJXJXJXJXJXJXJXJXJXJXJXJXJXJXJX",
"JXJXJXJXJXJXJXJXJXJXI 4 ) ,.BXjXR & k ~ :XdXeXeXGXFXSXjXW X.`.#X#.&.&X;XnX6X%XK * = < ! JXJXJXJXJXJXJXJXJXJXJXJXJXJXJXJXJXJXJXJX",
"JXJXJXJXJXJXJXJXJXJXI 4 _ >.BXmXw < H.P.C Z dXjXVXAXAXhX&.X.$X@X4X&XR Z &X&XZ o . 1 G.JXJXJXJXJXJXJXJXJXJXJXJXJXJXJXJXJXJXJXJXJX",
"JXJXJXJXJXJXJXJXJXJXI 4 ) >.BXmXR z iXiXT C :.5XnXVXZXhX&.X.!.|.0X-X1   A F C k x ! JXJXJXJXJXJXJXJXJXJXJXJXJXJXJXJXJXJXJXJXJXJX",
"JXJXJXJXJXJXJXJXJXJXI 4 _ >.BXmXw k yXaXiXK.C W <XbXbX6X*X#.o.Q.+X].V & 2 C K.uXJXJXJXJXJXJXJXJXJXJXJXJXJXJXJXJXJXJXJXJXJXJXJXJX",
"JXJXJXJXJXJXJXJXJXJXl 3 _ >.BXjXR ; G.pXpXU.T Y :.-X-X&X*.F 7 G |.].Z & $ c K.JXJXJXJXJXJXJXJXJXJXJXJXJXJXJXJXJXJXJXJXJXJXJXJXJX",
"JXJXJXJXJXJXJXJXJXJXI 4 ) >.kXmXE   Z G A ^ P.K.E q w w q q = Z 4X3Xw   f j x ! JXJXJXJXJXJXJXJXJXJXJXJXJXJXJXJXJXJXJXJXJXJXJXJX",
"JXJXJXJXJXJXJXJXJXJXI 4 ) ,.BXmXE   F +.&.*.P.K.I ; ; ; @ - - C :.;.Q x b i   x L.JXJXJXJXJXJXJXJXJXJXJXJXJXJXJXJXJXJXJXJXJXJXJX",
"JXJXJXJXJXJXJXJXJXJXI 4 ) >.CXMXC w fXNXNXhX! I b.n.e.N B h j j , E Y.P.3.u   x yXJXJXJXJXJXJXJXJXJXJXJXJXJXJXJXJXJXJXJXJXJXJXJX",
"JXJXJXJXJXJXJXJXJXJXl 4 ) >.bXfXw C jXAXCXfXD V C.S.S.8.6.m n b k ~ lXzXF.B > x H.yXJXJXJXJXJXJXJXJXJXJXJXJXJXJXJXJXJXJXJXJXJXJX",
"JXJXJXJXJXJXJXJXJXJXI 4 ) >.7X;X1 C NXCX/ D !.(.y.M.S.A.7.5.m N U.lXzXzXpXU.N j c Y k T JXJXJXJXJXJXJXJXJXJXJXJXJXJXJXJXJXJXJXJX",
"JXJXJXJXJXJXJXJXJXJXI 8 ) %.1X-X, w fXhXL % $XOX~.e.A.A.S.7.6.5.P.lXzXcXxXlXw.u @ + O e G.JXJXJXJXJXJXJXJXJXJXJXJXJXJXJXJXJXJXJX",
"JXJXJXJXJXJXJXJXJXJXI 4 | %.2X=XC = F W = V $X#X#.Z q.S.S.A.A.4.M N.pXcXxXlXN.h # 8 ' [ e T JXJXJXJXJXJXJXJXJXJXJXJXJXJXJXJXJXJX",
"JXJXJXJXJXJXJXJXJXJXz 4 _ %.1X=Xw $ D Z = V (.[.#.A w.V.N.q.q.q.H V.zXcXlXU.b.b ; 0  .| 3 k JXJXJXJXJXJXJXJXJXJXJXJXJXJXJXJXJXJX",
"JXJXJXJXJXJXJXJXJXJXk X ` <.1X=X1 k P.P.x < y.y.V.w.S A A A K *.;XMXCXmXF.2.e.6.f 0 | } 4 l JXJXJXJXJXJXJXJXJXJXJXJXJXJXJXJXJXJX",
"JXJXJXJXJXJXJXJXJXJXJX1 6 ] 1X=Xq k K.L.l ; N m.A.e.J S S S y &.NXSXSXhXH d 4.5.f 8 | | 8 I JXJXJXJXJXJXJXJXJXJXJXJXJXJXJXJXJXJX",
"JXJXJXJXJXJXJXJXJXJXJXJX, e 5X5XC - z z ; - ; c 7.s.f.f.f.t.K &.NXSXSXnX*.V B n : 8 | | 8 I JXJXJXJXJXJXJXJXJXJXJXJXJXJXJXJXJXJX",
"JXJXJXJXJXJXJXJXJXJXJXJXJXE &X:Xw & 0 8 0 0 8 , N 8.a.z.z.a.J #.hXNXMXhXF V i j , r | { 4 I JXJXJXJXJXJXJXJXJXJXJXJXJXJXJXJXJXJX",
"JXJXJXJXJXJXJXJXJXJXJXJXJXJX~ w - 2 (  .| { ` t , b m.d.x.z.l.f.*.&.*.#.H j ; 8 [ } { ` X z JXJXJXJXJXJXJXJXJXJXJXJXJXJXJXJXJXJX",
"JXJXJXJXJXJXJXJXJXJXJXJXJXJXU . O r  ..... .[ ` 9 , N 4.t.p.p.t.V 6 6 q i f c Z [ { ` t 1 JXJXJXJXJXJXJXJXJXJXJXJXJXJXJXJXJXJXJX",
"JXJXJXJXJXJXJXJXJXJXJXJXJXJXl 4 [  ... .{ [ ] ( ` r , ; > g g > % O O o   x K.K.e 3 X 1 JXJXJXJXJXJXJXJXJXJXJXJXJXJXJXJXJXJXJXJX",
"JXJXJXJXJXJXJXJXJXJXJXJXJXJXU 4 ' } } ' r r r r ` t w L L Y 1 L x x l x 1 ! JXJXT < < JXJXJXJXJXJXJXJXJXJXJXJXJXJXJXJXJXJXJXJXJX",
"JXJXJXJXJXJXJXJXJXJXJXJXJXJXz + O 9 8 8 * O * * X w G.JXJXJXJXJXJXJXJXJXJXJXJXJXJXJXJXJXJXJXJXJXJXJXJXJXJXJXJXJXJXJXJXJXJXJXJXJX",
"JXJXJXJXJXJXJXJXJXJXJXJXJXJXJX> U I I U U U l U z JXJXJXJXJXJXJXJXJXJXJXJXJXJXJXJXJXJXJXJXJXJXJXJXJXJXJXJXJXJXJXJXJXJXJXJXJXJXJX",
"JXJXJXJXJXJXJXJXJXJXJXJXJXJXJXJXJXJXJXJXJXJXJXJXJXJXJXJXJXJXJXJXJXJXJXJXJXJXJXJXJXJXJXJXJXJXJXJXJXJXJXJXJXJXJXJXJXJXJXJXJXJXJXJX",
"JXJXJXJXJXJXJXJXJXJXJXJXJXJXJXJXJXJXJXJXJXJXJXJXJXJXJXJXJXJXJXJXJXJXJXJXJXJXJXJXJXJXJXJXJXJXJXJXJXJXJXJXJXJXJXJXJXJXJXJXJXJXJXJX",
"JXJXJXJXJXJXJXJXJXJXJXJXJXJXJXJXJXJXJXJXJXJXJXJXJXJXJXJXJXJXJXJXJXJXJXJXJXJXJXJXJXJXJXJXJXJXJXJXJXJXJXJXJXJXJXJXJXJXJXJXJXJXJXJX",
"JXJXJXJXJXJXJXJXJXJXJXJXJXJXJXJXJXJXJXJXJXJXJXJXJXJXJXJXJXJXJXJXJXJXJXJXJXJXJXJXJXJXJXJXJXJXJXJXJXJXJXJXJXJXJXJXJXJXJXJXJXJXJXJX",
"JXJXJXJXJXJXJXJXJXJXJXJXJXJXJXJXJXJXJXJXJXJXJXJXJXJXJXJXJXJXJXJXJXJXJXJXJXJXJXJXJXJXJXJXJXJXJXJXJXJXJXJXJXJXJXJXJXJXJXJXJXJXJXJX",
"JXJXJXJXJXJXJXJXJXJXJXJXJXJXJXJXJXJXJXJXJXJXJXJXJXJXJXJXJXJXJXJXJXJXJXJXJXJXJXJXJXJXJXJXJXJXJXJXJXJXJXJXJXJXJXJXJXJXJXJXJXJXJXJX",
"JXJXJXJXJXJXJXJXJXJXJXJXJXJXJXJXJXJXJXJXJXJXJXJXJXJXJXJXJXJXJXJXJXJXJXJXJXJXJXJXJXJXJXJXJXJXJXJXJXJXJXJXJXJXJXJXJXJXJXJXJXJXJXJX",
"JXJXJXJXJXJXJXJXJXJXJXJXJXJXJXJXJXJXJXJXJXJXJXJXJXJXJXJXJXJXJXJXJXJXJXJXJXJXJXJXJXJXJXJXJXJXJXJXJXJXJXJXJXJXJXJXJXJXJXJXJXJXJXJX",
"JXJXJXJXJXJXJXJXJXJXJXJXJXJXJXJXJXJXJXJXJXJXJXJXJXJXJXJXJXJXJXJXJXJXJXJXJXJXJXJXJXJXJXJXJXJXJXJXJXJXJXJXJXJXJXJXJXJXJXJXJXJXJXJX",
"JXJXJXJXJXJXJXJXJXJXJXJXJXJXJXJXJXJXJXJXJXJXJXJXJXJXJXJXJXJXJXJXJXJXJXJXJXJXJXJXJXJXJXJXJXJXJXJXJXJXJXJXJXJXJXJXJXJXJXJXJXJXJXJX"
};
