/* XPM */
static char *result[] = {
/* columns rows colors chars-per-pixel */
"64 64 242 2 ",
"   c #1B1B16",
".  c #120911",
"X  c #360813",
"o  c #231A1A",
"O  c #32101F",
"+  c #19271B",
"@  c #21231F",
"#  c #181820",
"$  c #0E1220",
"%  c #351821",
"&  c #261D29",
"*  c #162A26",
"=  c #183527",
"-  c #083A24",
";  c #252924",
":  c #392724",
">  c #273A28",
",  c #393229",
"<  c #283B34",
"1  c #393A35",
"2  c #440A16",
"3  c #45111E",
"4  c #46181F",
"5  c #58231A",
"6  c #481720",
"7  c #531321",
"8  c #4C2022",
"9  c #453A35",
"0  c #51332E",
"q  c #772323",
"w  c #673225",
"e  c #71221A",
"r  c #195B1F",
"t  c #245719",
"y  c #166E1A",
"u  c #25741C",
"i  c #286D1B",
"p  c #1B4625",
"a  c #2A4423",
"s  c #215B20",
"d  c #265728",
"f  c #254235",
"g  c #28473B",
"h  c #33463A",
"j  c #305635",
"k  c #1D7422",
"l  c #246A25",
"z  c #267724",
"x  c #2D7D32",
"c  c #367A3A",
"v  c #34702C",
"b  c #47431E",
"n  c #564729",
"m  c #47463B",
"M  c #574638",
"N  c #525430",
"B  c #775729",
"V  c #6C5837",
"C  c #745538",
"Z  c #724B2E",
"A  c #4F6F31",
"S  c #656C2D",
"D  c #754D14",
"F  c #373D40",
"G  c #513949",
"H  c #264D40",
"J  c #2A4A40",
"K  c #374540",
"L  c #367050",
"P  c #574A45",
"I  c #4C5047",
"U  c #6B5340",
"Y  c #705D4D",
"T  c #57644B",
"R  c #466B55",
"E  c #4F734D",
"W  c #69724E",
"Q  c #736F66",
"!  c #91151B",
"~  c #B41219",
"^  c #B11418",
"/  c #861F20",
"(  c #AE1F20",
")  c #8D2826",
"_  c #A82524",
"`  c #B72223",
"'  c #CB1F20",
"]  c #C82122",
"[  c #D32223",
"{  c #EC2323",
"}  c #855618",
"|  c #92561C",
" . c #8A4F1D",
".. c #894933",
"X. c #8B542F",
"o. c #8C6E31",
"O. c #AF662F",
"+. c #EC4A3D",
"@. c #875646",
"#. c #93744F",
"$. c #A57B57",
"%. c #A17B4B",
"&. c #9E7C67",
"*. c #F4554A",
"=. c #F85350",
"-. c #C94B4D",
";. c #1D8420",
":. c #2B822B",
">. c #2C8121",
",. c #358738",
"<. c #3B9B3D",
"1. c #379438",
"2. c #2D8A2E",
"3. c #3EA33E",
"4. c #3EAB38",
"5. c #3CB63E",
"6. c #2B801F",
"7. c #48973A",
"8. c #4E893A",
"9. c #42BA25",
"0. c #44A93C",
"q. c #45B83C",
"w. c #56AC35",
"e. c #6CA737",
"r. c #39E427",
"t. c #3FDA2B",
"y. c #43C623",
"u. c #54C625",
"i. c #4AD928",
"p. c #4ACA37",
"a. c #4AD634",
"s. c #6CC63D",
"d. c #63D629",
"f. c #4EE922",
"g. c #4DE528",
"h. c #52EC22",
"j. c #4EF425",
"k. c #50F422",
"l. c #69EB22",
"z. c #79E625",
"x. c #368341",
"c. c #389240",
"v. c #3DA341",
"b. c #38B149",
"n. c #469955",
"m. c #4E9448",
"M. c #40A640",
"N. c #43AD44",
"B. c #46B246",
"V. c #46BA43",
"C. c #4EA159",
"Z. c #559A65",
"A. c #53B567",
"S. c #58AA74",
"D. c #5CB779",
"F. c #53A26C",
"G. c #68B878",
"H. c #74BA7B",
"J. c #68A76A",
"K. c #68995E",
"L. c #5FC47B",
"P. c #60C77B",
"I. c #60C87C",
"U. c #72C17C",
"Y. c #AC8934",
"T. c #BDA62C",
"R. c #C7B527",
"E. c #C7AE1E",
"W. c #BECD26",
"Q. c #B8EE22",
"!. c #95EB26",
"~. c #E5D51E",
"^. c #FBFA1F",
"/. c #D9C934",
"(. c #CBCF2C",
"). c #E7D826",
"_. c #E1CD37",
"`. c #EBD431",
"'. c #D7EA27",
"]. c #DEE836",
"[. c #FDF222",
"{. c #FCFA23",
"}. c #F6E737",
"|. c #FDF635",
" X c #EEE92A",
".X c #988A59",
"XX c #A8855C",
"oX c #B38D4B",
"OX c #B99877",
"+X c #B1906A",
"@X c #B5A77B",
"#X c #9E8261",
"$X c #CFAE54",
"%X c #C59967",
"&X c #C99D74",
"*X c #D79E75",
"=X c #E79D71",
"-X c #C9A365",
";X c #D5B467",
":X c #C9A977",
">X c #D2B177",
",X c #EEA87F",
"<X c #E8D349",
"1X c #DFC368",
"2X c #E9CB6E",
"3X c #4C58BA",
"4X c #3F57EB",
"5X c #456BFF",
"6X c #5062D8",
"7X c #63CB85",
"8X c #7CC786",
"9X c #66D184",
"0X c #6ED78D",
"qX c #71F8A3",
"wX c #7180EB",
"eX c #A28584",
"rX c #B7A684",
"tX c #ABB4B7",
"yX c #D5B489",
"uX c #CFB491",
"iX c #D0B6A8",
"pX c #FDBE9B",
"aX c #8CD292",
"sX c #9EE7A9",
"dX c #A0D79B",
"fX c #D2C697",
"gX c #F4CB97",
"hX c #E8C596",
"jX c #CEC5A3",
"kX c #D8CCA7",
"lX c #E9CAA3",
"zX c #FFC7A5",
"xX c #F7DCB4",
"cX c #F3D8B1",
"vX c #FCE3B9",
"bX c #FEECC9",
"nX c #FFF4CC",
"mX c #FFEFD6",
"MX c #FFFEED",
"NX c #D9DBE1",
"BX c #A7AECE",
"VX c None",
/* pixels */
"VXVXVXVXVXVXVXVXVXVXVXVXVXVXVXVXVXVXVXVXVXVXVXVXVXVXVXVXVXVXVXVXVXVXVXVXVXVXVXVXVXVXVXVXVXVXVXVXVXVXVXVXVXVXVXVXVXVXVXVXVXVXVXVX",
"VXVXVXVXVXVXVXVXVXVXVXVXVXVXVXVXVXVXVXVXVXVXVXVXVXVXVXVXVXVXVXVXVXVXVXVXVXVXVXVXVXVXVXVXVXVXVXVXVXVXVXVXVXVXVXVXVXVXVXVXVXVXVXVX",
"VXVXVXVXVXVXVXVXVXVXVXVXVXVXVXVXVXVXVXVXVXVXVXVXVXVXVXVXVXVXVXVXVXVXVXVXVXVXVXVXVXVXVXVXVXVXVXVXVXVXVXVXVXVXVXVXVXVXVXVXVXVXVXVX",
"VXVXVXVXVXVXVXVXVXVXVXVXVXVXVXVXVXVXVXVXVXVXVXVXVXVXVXVXVXVXVXVXVXVXVXVXVXVXVXVXVXVXVXVXVXVXVXVXVXVXVXVXVXVXVXVXVXVXVXVXVXVXVXVX",
"VXVXVXVXVXVXVXVXVXVXVXVXVXVXVXVXVXVXVXVXVXVXVXVXVXVXVXVXVXVXVXVXVXVXVXVXVXVXVXVXVXVXVXVXVXVXVXVXVXVXVXVXVXVXVXVXVXVXVXVXVXVXVXVX",
"VXVXVXVXVXVXVXVXVXVXVXVXVXVXVXVXVXVXVXVXVXVXVXVXVXVXVXVXVXVXVXVXVXVXVXVXVXVXVXVXVXVXVXVXVXVXVXVXVXVXVXVXVXVXVXVXVXVXVXVXVXVXVXVX",
"VXVXVXVXVXVXVXVXVXVXVXVXVXVXVXVXVXVXVXVXVXVXVXVXVXVXVXVXVXVXVXVXVXVXVXVXVXVXVXVXVXVXVXVXVXVXVXVXVXVXVXVXVXVXVXVXVXVXVXVXVXVXVXVX",
"VXVXVXVXVXVXVXVXVXVXVXVXVXVXVXVXVXVXVXVXVXVXVXVXVXVXVXVXVXVX9XP.P.P.P.P.P.P.P.9XVXVXVXVXVXVXVXVXVXVXVXVXVXVXVXVXVXVXVXVXVXVXVXVX",
"VXVXVXVXVXVXVXVXVXVXVXVXVXVXVXVXVXVXVXVXVXVXVXVXVXVXVXVXVX9Xn.x L ,.,.x.x.,.x n.9XVXVXVXVXVXVXVXVXVXVXVXVXVXVXVXVXVXVXVXVXVXVXVX",
"VXVXVXVXVXVXVXVXVXVXVXVXVXVXVXVXVXVXVXH.H.H.U.H.H.H.U.H.8XJ.,.y 6.6.>.z >.u u x.A.7XI.I.P.9XVXVXVXVXVXVXVXVXVXVXVXVXVXVXVXVXVXVX",
"VXVXVXVXVXVXVXVXVXVXVXVXVXVXVXVXVXVXK.C C U C V V V V U V T 8.4.4.i.y.y.y.y.4.<.,.,.x.L x n.9XVXVXVXVXVXVXVXVXVXVXVXVXVXVXVXVXVX",
"VXVXVXVXVXVXVXVXVXVXVXVXVXVXVXVXVXVXZ e  .| ........| |  .o.w.p.f.k.h.k.k.g.p.4.2.6.6.6.i ,.A.9XVXVXVXVXVXVXVXVXVXVXVXVXVXVXVXVX",
"VXVXVXVXVXVXVXVXVXVXVXVXVXVXVXVXVXVXU  .E./.%XrX&X-X/.~.~.W.d.t.f.h.f.f.f.f.i.i.y.y.y.y.4.<.,.n.9XVXVXVXVXVXVXVXVXVXVXVXVXVXVXVX",
"VXVXVXVXVXVXVXVXVXVXVXVXVXVXVXVXVXVXU | ~.|.2X1X>X2X|.[.|. X!.l.h.f.f.f.f.f.f.f.h.k.k.i.p.0.z ,.A.9XVXVXVXVXVXVXVXVXVXVXVXVXVXVX",
"VXVXVXVXVXVXVXVXVXVXVXVXVXVXVXVXVXVXZ | ~.{.}.}.}. X^.}.2X1X].Q.l.f.f.f.f.f.f.f.h.h.f.f.g.p.0.1.,.n.9XVXVXVXVXVXVXVXVXVXVXVXVXVX",
"VXVXVXVXVXVXVXVXVXVXVXVXVXVXVXVXVXVXW o.R.).[. X}.}.)./.1X1X}.'.z.f.f.f.f.f.f.f.h.f.f.f.g.a.p.3.z ,.A.7XI.VXVXVXVXVXVXVXVXVXVXVX",
"VXVXVXVXVXVXVXVXVXVXVXVXVXVXVXVXVXVXVXJ.o.O.~.{.2X;XT.T.<X}.[.'.l.r.g.f.f.f.f.f.h.h.h.g.p.V.B.N.0.<.,.x.x n.7XVXVXVXVXVXVXVXVXVX",
"VXVXVXVXVXVXVXVXVXVXVXVXVXVXVXVXVXVXVXVXW C R._.-X+X$.oX`.[.^.'.!.l.h.f.f.h.f.g.i.i.i.a.q.B.B.B.B.0.,.z u ,.A.9XI.VXVXVXVXVXVXVX",
"VXVXVXVXVXVXVXVXVXVXVXVXVXVXVXVXVXVXVXVXVXJ.Y.} ..@.%X;X}.{.[.[.'.Q.l.f.f.f.f.g.p.V.V.q.B.B.B.B.B.N.7.3.M.<.c.c x n.VXVXVXVXVXVX",
"VXVXVXVXVXVXVXVXVXVXVXVXVXVXVXVXVXVXVXVXVX7XP 5 w #.&X>X/.). X[.[.'.z.a.i.i.i.a.V.B.B.B.B.M.M.M.N.B.B.B.B.M.2.u u ,.A.VXVXVXVXVX",
"VXVXVXVXVXVXVXVXVXVXVXVXVXVXVXVXVXVXVXVXVXU.h 0 %.*X>X*XoXT.).[.[.'.s.5.V.V.p.V.B.B.B.B.B.M.1.1.3.B.B.B.B.B.v.3.v.c.c.v.VXVXVXVX",
"VXVXVXVXVXVXVXVXVXVXVXVXVXVXVXVXVXVXVXVXVXG.f , +XhXhX>XXXoX).[.^.'.s.b.B.N.v.<.0.7.N.B.M.1.z z 1.3.3.3.3.3.3.3.b.1.s v VXVXVXVX",
"VXVXVXVXVXVXVXVXVXVXVXVXVXVXVXVXVXVXVXVXVXD.f 9 +XgXxXcXyX$X}.[.{.'.s.b.N.v.2.k y 2.v.M.2.z z k z :.:.:.:.:.:.:.:.l + j VXVXVXVX",
"VXVXVXVXVXVXVXVXVXVXVXVXVXVXVXD.D.G.VXVXVXP.f : $.>XuXiXuX2X<X X`.R.e.7.v.<.7.A E m.M.1.z k l l z l s s s s s s s d 1 R VXVXVXVX",
"VXVXVXVXVXVXVXVXVXVXVXVXVXVXL < f < < R 0X7Xg o Z X.0 Y uXxX2X;X$XY.o.N z x .X@XfXrXN.z z l z z l l ; ; * ;   ; o h Z.VXVXVXVXVX",
"VXVXVXVXVXVXVXVXVXVXVXVXVXZ.0 6 G K o 1 F.S.T 9 0 G F Q fXvXyX&XoXo.w w A K.:XgXvXkXm.y k l s s s d j K h K K h 1 R VXVXVXVXVXVX",
"VXVXVXVXVXVXVXVXVXVXVXVXR 0 ! -.iXtXI   < T #X&.3X6XBXNXvXlX-XoX&X+X.....X@XlXxXbXkXm.y k s > o   h Z.VXVXVXVXVXVXVXVXVXVXVXVXVX",
"VXVXVXVXVXVXVXVXVXVXVXVX> 2 ~ =.mXNXT . . 9 :XiX5X5XNXMXbXfXXXO.;X-X..C %XgXcXvXxX@XE r r d j h 1 R VXVXVXVXVXVXVXVXVXVXVXVXVXVX",
"VXVXVXVXVXVXVXVXVXVXVXVXg 3 ~ *.xXiXI . . 9 &XiX4X5XNXMXmXiX@.o._./.} Z %XgXvXxX>X#.N *   h Z.VXVXVXVXVXVXVXVXVXVXVXVXVXVXVXVXVX",
"VXVXVXVXVXVXVXVXVXVXVXVXH 3 ~ *.zXkXI # f T XXeX6X6XNXMXbXuXU } ~. XO.@.XX&XlXyX#.D : # < R VXVXVXVXVXVXVXVXVXVXVXVXVXVXVXVXVXVX",
"VXVXVXVXVXVXVXVXVXVXVXVXH 3 ^ *.zXjXI = F.S.I M OXiXvXbXbXuX@.} ~.|.1XXXP M XXXX0 o . < Z.VXVXVXVXVXVXVXVXVXVXVXVXVXVXVXVXVXVXVX",
"VXVXVXVXVXVXVXVXVXVXVXVXH 3 ^ *.zXiXG f 9X0XL h $.>XlXcXxXuX@.X.T.`.2X+X1   B V I g h R VXVXVXVXVXVXVXVXVXVXVXVXVXVXVXVXVXVXVXVX",
"VXVXVXVXVXVXVXVXVXVXVXVXH 3 ~ *.zXjX9 f 9XqX0XF.m U &XgXgX>X$.o.o.Y.`.(.N   % I S.9XVXVXVXVXVXVXVXVXVXVXVXVXVXVXVXVXVXVXVXVXVXVX",
"VXVXVXVXVXVXVXVXVXVXVXVXH 2 ^ *.zXjXP > Z.8X0XJ.L K #.+X+XXX#.C 5 D _./.N $ + j S.VXVXVXVXVXVXVXVXVXVXVXVXVXVXVXVXVXVXVXVXVXVXVX",
"VXVXVXVXVXVXVXVXVXVXVXVXH 3 ~ *.zXjXI   n V Z W D.S.I , 8 , 1 8 o 0 ;X>XM # p d h R VXVXVXVXVXVXVXVXVXVXVXVXVXVXVXVXVXVXVXVXVXVX",
"VXVXVXVXVXVXVXVXVXVXVXVXH 3 ^ *.zXjXI % C X...#.aXG.T 9 m h ; * f T #X&.m p z l   1 VXVXVXVXVXVXVXVXVXVXVXVXVXVXVXVXVXVXVXVXVXVX",
"VXVXVXVXVXVXVXVXVXVXVXVXH 3 ~ *.zXjXK 1 OXlXcXuX#.#.rXiXfX@Xv l J.J.I , d v 3.2.; K 7XVXVXVXVXVXVXVXVXVXVXVXVXVXVXVXVXVXVXVXVXVX",
"VXVXVXVXVXVXVXVXVXVXVXVXJ 3 ~ *.pXuX1 I jXnXcXrXw X.lXnXnXkXC.M.aXaXR > l z b.<.> 1 Z.7XVXVXVXVXVXVXVXVXVXVXVXVXVXVXVXVXVXVXVXVX",
"VXVXVXVXVXVXVXVXVXVXVXVXH 4 ~ +.yXrX, I kXcXQ 0 5 @.kXnXnXcXaXU.aXaXaXJ.c :.q.<.> & h J f L VXVXVXVXVXVXVXVXVXVXVXVXVXVXVXVXVXVX",
"VXVXVXVXVXVXVXVXVXVXVXVXJ 6 ~ +.=X+X, 9 @XuX1 o D %.:XkXfXfXdXsXdXaXaXG.1.:.7.8.j ; # O 3 0 Z.VXVXVXVXVXVXVXVXVXVXVXVXVXVXVXVXVX",
"VXVXVXVXVXVXVXVXVXVXVXVXH 3 ` +.=X+Xh @ ..U ; b R./.%.C A J.8XsXsX8Xn.c.4.7.S n v p + 8 ( _ 9 L VXVXVXVXVXVXVXVXVXVXVXVXVXVXVXVX",
"VXVXVXVXVXVXVXVXVXVXVXVXg 3 _ +.=XOX9 @ N U ; n W.(.o.b t x K.aX8XS.v i 7.8.N n A u - 5 [ ' 2 < VXVXVXVXVXVXVXVXVXVXVXVXVXVXVXVX",
"VXVXVXVXVXVXVXVXVXVXVXVXf X ! -.*XOXm f G.G.F > e.s.w.8.n w v 1.,.A M w Z S 8.7.B.1.p 8 ] ' 3 H VXVXVXVXVXVXVXVXVXVXVXVXVXVXVXVX",
"VXVXVXVXVXVXVXVXVXVXVXVXVX1 7 ) *XOX0 f S.D.h ; v v.B.m.S S u 6.;.i S B B S m.V.b.,.p 8 ] ] 3 H VXVXVXVXVXVXVXVXVXVXVXVXVXVXVXVX",
"VXVXVXVXVXVXVXVXVXVXVXVXVXVX, 0 &X:XM * g g = * * j v.p.u.u.y.y.y.y.u.9.u.u.B.M.1.l - 8 ] ] 6 H VXVXVXVXVXVXVXVXVXVXVXVXVXVXVXVX",
"VXVXVXVXVXVXVXVXVXVXVXVXVXVXL I #X#X9 # % 8 8 8 3 , L q.a.j.k.h.k.k.k.j.k.a.q.1.l p , q ] ^ 6 H VXVXVXVXVXVXVXVXVXVXVXVXVXVXVXVX",
"VXVXVXVXVXVXVXVXVXVXVXVXVXVXVXVXT 1 * % ) ] ] ` / w , l 4.a.j.k.k.k.k.h.a.q.2.l = 8 _ [ ` / X f VXVXVXVXVXVXVXVXVXVXVXVXVXVXVXVX",
"VXVXVXVXVXVXVXVXVXVXVXVXVXVXVXVXg # : / [ { { ] ( q 7 , c 3.9.9.9.y.y.9.7.,.l d d M _ ` / w 1 VXVXVXVXVXVXVXVXVXVXVXVXVXVXVXVXVX",
"VXVXVXVXVXVXVXVXVXVXVXVXVXVXVXVXJ 6 _ [ { { ` _ ) ! / q , ; > a > a a > > ; @ h S.S.0 X X 1 VXVXVXVXVXVXVXVXVXVXVXVXVXVXVXVXVXVX",
"VXVXVXVXVXVXVXVXVXVXVXVXVXVXVXVXg O ( ' ` ( / q q e / q 9 J K F 1 F 1 K h h 1 R VXVXR < f VXVXVXVXVXVXVXVXVXVXVXVXVXVXVXVXVXVXVX",
"VXVXVXVXVXVXVXVXVXVXVXVXVXVXVXVXf X 6 6 3 3 O % % O O 9 Z.7XVXVXVXVXVXVXVXVXVXVXVXVXVXVXVXVXVXVXVXVXVXVXVXVXVXVXVXVXVXVXVXVXVXVX",
"VXVXVXVXVXVXVXVXVXVXVXVXVXVXVXVXVXf J H H H J J J J g L VXVXVXVXVXVXVXVXVXVXVXVXVXVXVXVXVXVXVXVXVXVXVXVXVXVXVXVXVXVXVXVXVXVXVXVX",
"VXVXVXVXVXVXVXVXVXVXVXVXVXVXVXVXVXVXVXVXVXVXVXVXVXVXVXVXVXVXVXVXVXVXVXVXVXVXVXVXVXVXVXVXVXVXVXVXVXVXVXVXVXVXVXVXVXVXVXVXVXVXVXVX",
"VXVXVXVXVXVXVXVXVXVXVXVXVXVXVXVXVXVXVXVXVXVXVXVXVXVXVXVXVXVXVXVXVXVXVXVXVXVXVXVXVXVXVXVXVXVXVXVXVXVXVXVXVXVXVXVXVXVXVXVXVXVXVXVX",
"VXVXVXVXVXVXVXVXVXVXVXVXVXVXVXVXVXVXVXVXVXVXVXVXVXVXVXVXVXVXVXVXVXVXVXVXVXVXVXVXVXVXVXVXVXVXVXVXVXVXVXVXVXVXVXVXVXVXVXVXVXVXVXVX",
"VXVXVXVXVXVXVXVXVXVXVXVXVXVXVXVXVXVXVXVXVXVXVXVXVXVXVXVXVXVXVXVXVXVXVXVXVXVXVXVXVXVXVXVXVXVXVXVXVXVXVXVXVXVXVXVXVXVXVXVXVXVXVXVX",
"VXVXVXVXVXVXVXVXVXVXVXVXVXVXVXVXVXVXVXVXVXVXVXVXVXVXVXVXVXVXVXVXVXVXVXVXVXVXVXVXVXVXVXVXVXVXVXVXVXVXVXVXVXVXVXVXVXVXVXVXVXVXVXVX",
"VXVXVXVXVXVXVXVXVXVXVXVXVXVXVXVXVXVXVXVXVXVXVXVXVXVXVXVXVXVXVXVXVXVXVXVXVXVXVXVXVXVXVXVXVXVXVXVXVXVXVXVXVXVXVXVXVXVXVXVXVXVXVXVX",
"VXVXVXVXVXVXVXVXVXVXVXVXVXVXVXVXVXVXVXVXVXVXVXVXVXVXVXVXVXVXVXVXVXVXVXVXVXVXVXVXVXVXVXVXVXVXVXVXVXVXVXVXVXVXVXVXVXVXVXVXVXVXVXVX",
"VXVXVXVXVXVXVXVXVXVXVXVXVXVXVXVXVXVXVXVXVXVXVXVXVXVXVXVXVXVXVXVXVXVXVXVXVXVXVXVXVXVXVXVXVXVXVXVXVXVXVXVXVXVXVXVXVXVXVXVXVXVXVXVX",
"VXVXVXVXVXVXVXVXVXVXVXVXVXVXVXVXVXVXVXVXVXVXVXVXVXVXVXVXVXVXVXVXVXVXVXVXVXVXVXVXVXVXVXVXVXVXVXVXVXVXVXVXVXVXVXVXVXVXVXVXVXVXVXVX",
"VXVXVXVXVXVXVXVXVXVXVXVXVXVXVXVXVXVXVXVXVXVXVXVXVXVXVXVXVXVXVXVXVXVXVXVXVXVXVXVXVXVXVXVXVXVXVXVXVXVXVXVXVXVXVXVXVXVXVXVXVXVXVXVX",
"VXVXVXVXVXVXVXVXVXVXVXVXVXVXVXVXVXVXVXVXVXVXVXVXVXVXVXVXVXVXVXVXVXVXVXVXVXVXVXVXVXVXVXVXVXVXVXVXVXVXVXVXVXVXVXVXVXVXVXVXVXVXVXVX",
"VXVXVXVXVXVXVXVXVXVXVXVXVXVXVXVXVXVXVXVXVXVXVXVXVXVXVXVXVXVXVXVXVXVXVXVXVXVXVXVXVXVXVXVXVXVXVXVXVXVXVXVXVXVXVXVXVXVXVXVXVXVXVXVX"
};
