/* XPM */
static char *result[] = {
/* columns rows colors chars-per-pixel */
"64 64 246 2 ",
"   c #1A0916",
".  c #1A171C",
"X  c #0C0B11",
"o  c #251B1A",
"O  c #38131F",
"+  c #300915",
"@  c #15281D",
"#  c #252A1D",
"$  c #2C2F19",
"%  c #141723",
"&  c #261B22",
"*  c #3A1F20",
"=  c #162625",
"-  c #1C3726",
";  c #232521",
":  c #273926",
">  c #373729",
",  c #293B33",
"<  c #373A38",
"1  c #382425",
"2  c #450A15",
"3  c #45111E",
"4  c #590F19",
"5  c #54291A",
"6  c #6B3318",
"7  c #4F1A22",
"8  c #731F20",
"9  c #48342B",
"0  c #433C35",
"q  c #493735",
"w  c #4E302D",
"e  c #683229",
"r  c #6C141A",
"t  c #135519",
"y  c #20501E",
"u  c #166E1A",
"i  c #25751C",
"p  c #23681A",
"a  c #1E5825",
"s  c #2A4122",
"d  c #235A23",
"f  c #284538",
"g  c #364639",
"h  c #345439",
"j  c #1D7422",
"k  c #246A24",
"l  c #237323",
"z  c #297B29",
"x  c #2D7E22",
"c  c #2D7A33",
"v  c #367B3A",
"b  c #48473B",
"n  c #58493A",
"m  c #52562F",
"M  c #67492A",
"N  c #685824",
"B  c #7A572A",
"V  c #7A4735",
"C  c #6D583A",
"Z  c #765639",
"A  c #6E4830",
"S  c #4E7332",
"D  c #637025",
"F  c #53511B",
"G  c #3D3741",
"H  c #4D3947",
"J  c #264D40",
"K  c #294C40",
"L  c #374840",
"P  c #375340",
"I  c #36754E",
"U  c #554B48",
"Y  c #4B5248",
"T  c #6B5543",
"R  c #6B574E",
"E  c #466B55",
"W  c #526F4A",
"Q  c #6D6F4E",
"!  c #6A6861",
"~  c #911B1C",
"^  c #B41219",
"/  c #B51116",
"(  c #8A1F21",
")  c #981F21",
"_  c #B21E20",
"`  c #952D26",
"'  c #B12927",
"]  c #CB1E20",
"[  c #C92523",
"{  c #DF3E35",
"}  c #EB2C29",
"|  c #E51920",
" . c #855618",
".. c #92561C",
"X. c #8A4F1D",
"o. c #894933",
"O. c #8B562C",
"+. c #8A6F33",
"@. c #B26028",
"#. c #ED483B",
"$. c #C34D33",
"%. c #8D5646",
"&. c #976A48",
"*. c #947250",
"=. c #A37A55",
"-. c #A07F68",
";. c #F4554A",
":. c #F2564F",
">. c #C94B4D",
",. c #2B8225",
"<. c #358334",
"1. c #368938",
"2. c #3B9A3C",
"3. c #399539",
"4. c #2A8A2E",
"5. c #3EA33D",
"6. c #3EAC3A",
"7. c #3BB73F",
"8. c #2B801F",
"9. c #51953E",
"0. c #4A8F3A",
"q. c #42B925",
"w. c #57BE22",
"e. c #44AB3B",
"r. c #46BA3D",
"t. c #51A831",
"y. c #6CAF36",
"u. c #39E427",
"i. c #3FDA2B",
"p. c #43C523",
"a. c #4AD928",
"s. c #49CC36",
"d. c #4BD435",
"f. c #55CD27",
"g. c #68CC35",
"h. c #4EE922",
"j. c #4CE628",
"k. c #53EB22",
"l. c #4EF623",
"z. c #4EF726",
"x. c #50F122",
"c. c #6AEB23",
"v. c #76E724",
"b. c #388641",
"n. c #3B9544",
"m. c #3CAC44",
"M. c #469B46",
"N. c #469955",
"B. c #528D49",
"V. c #40A640",
"C. c #43AD43",
"Z. c #46B246",
"A. c #46BB43",
"S. c #4CA259",
"D. c #569A66",
"F. c #53B568",
"G. c #5EBA7A",
"H. c #54AA72",
"J. c #72BA7B",
"K. c #68B06E",
"L. c #678F4F",
"P. c #5DC677",
"I. c #61C77C",
"U. c #72C17C",
"Y. c #46C249",
"T. c #AE8C30",
"R. c #BCA82B",
"E. c #80AE37",
"W. c #C9B629",
"Q. c #C7AE1E",
"!. c #BBCA27",
"~. c #B8EE22",
"^. c #95EB26",
"/. c #E5D51E",
"(. c #FBFA1F",
"). c #D9C934",
"_. c #C8C927",
"`. c #E7D826",
"'. c #E1CD37",
"]. c #EED92F",
"[. c #D7EA27",
"{. c #D4EB33",
"}. c #E6EB25",
"|. c #FDF222",
" X c #FCFA23",
".X c #F6E737",
"XX c #FDF635",
"oX c #F2E92C",
"OX c #988B5A",
"+X c #A8845A",
"@X c #B38D4B",
"#X c #9D8966",
"$X c #B99977",
"%X c #B39169",
"&X c #B9A97C",
"*X c #CFAE54",
"=X c #CD8B67",
"-X c #C59967",
";X c #CE9D74",
":X c #EA986F",
">X c #CAA565",
",X c #D5B467",
"<X c #C9A877",
"1X c #D3B27B",
"2X c #EEA87F",
"3X c #E8D349",
"4X c #DFC368",
"5X c #E9CB6E",
"6X c #4C58BA",
"7X c #3F57EB",
"8X c #456BFF",
"9X c #5062D9",
"0X c #64CA84",
"qX c #7CC685",
"wX c #66D183",
"eX c #67D389",
"rX c #7180EB",
"tX c #A88F84",
"yX c #AFB295",
"uX c #D1B48E",
"iX c #CDB1AB",
"pX c #FDBE9B",
"aX c #8BD091",
"sX c #B0D29A",
"dX c #9FE7A8",
"fX c #A1EFAB",
"gX c #D7C497",
"hX c #F4CB97",
"jX c #E8C696",
"kX c #CEC6A4",
"lX c #D6C4A4",
"zX c #D6D0A9",
"xX c #E8C8A3",
"cX c #FFC7A4",
"vX c #F7DCB4",
"bX c #F6D7B0",
"nX c #FAE3B9",
"mX c #DBDCCF",
"MX c #FEEDC9",
"NX c #FFF5CD",
"BX c #FFFBD1",
"VX c #FFE3DB",
"CX c #FFFEED",
"ZX c #D8DAEA",
"AX c #A7AECE",
"SX c None",
/* pixels */
"SXSXSXSXSXSXSXSXSXSXSXSXSXSXSXSXSXSXSXSXSXSXSXSXSXSXSXSXSXSXSXSXSXSXSXSXSXSXSXSXSXSXSXSXSXSXSXSXSXSXSXSXSXSXSXSXSXSXSXSXSXSXSXSX",
"SXSXSXSXSXSXSXSXSXSXSXSXSXSXSXSXSXSXSXSXSXSXSXSXSXSXSXSXSXSXSXSXSXSXSXSXSXSXSXSXSXSXSXSXSXSXSXSXSXSXSXSXSXSXSXSXSXSXSXSXSXSXSXSX",
"SXSXSXSXSXSXSXSXSXSXSXSXSXSXSXSXSXSXSXSXSXSXSXSXSXSXSXSXSXSXSXSXSXSXSXSXSXSXSXSXSXSXSXSXSXSXSXSXSXSXSXSXSXSXSXSXSXSXSXSXSXSXSXSX",
"SXSXSXSXSXSXSXSXSXSXSXSXSXSXSXSXSXSXSXSXSXSXSXSXSXSXSXSXSXSXSXSXSXSXSXSXSXSXSXSXSXSXSXSXSXSXSXSXSXSXSXSXSXSXSXSXSXSXSXSXSXSXSXSX",
"SXSXSXSXSXSXSXSXSXSXSXSXSXSXSXSXSXSXSXSXSXSXSXSXSXSXSXSXSXSXSXSXSXSXSXSXSXSXSXSXSXSXSXSXSXSXSXSXSXSXSXSXSXSXSXSXSXSXSXSXSXSXSXSX",
"SXSXSXSXSXSXSXSXSXSXSXSXSXSXSXSXSXSXSXSXSXSXSXSXSXSXSXSXSXSXSXSXSXSXSXSXSXSXSXSXSXSXSXSXSXSXSXSXSXSXSXSXSXSXSXSXSXSXSXSXSXSXSXSX",
"SXSXSXSXSXSXSXSXSXSXSXSXSXSXSXSXSXSXSXSXSXSXSXSXSXSXSXSXSXSXSXSXSXSXSXSXSXSXSXSXSXSXSXSXSXSXSXSXSXSXSXSXSXSXSXSXSXSXSXSXSXSXSXSX",
"SXSXSXSXSXSXSXSXSXSXSXSXSXSXSXSXSXSXSXSXSXSXSXSXSXSXSXSXSXSXSXSXSXSXSXSXSXSXSXSXSXSXSXSXSXSXSXSXSXSXSXSXSXSXSXSXSXSXSXSXSXSXSXSX",
"SXSXSXSXSXSXSXSXSXSXSXSXSXSXSXSXSXSXSXSXSXSXSXSXSXSXSXSXSXSXSXSXSXSXSXSXSXSXSXSXSXSXSXSXSXSXSXSXSXSXSXSXSXSXSXSXSXSXSXSXSXSXSXSX",
"SXSXSXSXSXSXSXSXSXSXSXSXSXSXSXSXSXSXSXSXSXSXSXSXSXSXSXSXSXSXSXSXSXSXSXSXSXSXSXSXSXSXSXSXSXSXSXSXSXSXSXSXSXSXSXSXSXSXSXSXSXSXSXSX",
"SXSXSXSXSXSXSXSXSXSXSXSXSXSXSXSXSXSXSXSXSXSXSXSXSXSXSXSXSXSXSXSXSXSXSXSXSXSXSXSXSXSXSXSXSXSXSXSXSXSXSXSXSXSXSXSXSXSXSXSXSXSXSXSX",
"SXSXSXSXSXSXSXSXSXSXSXSXSXSXSXSXSXSXSXSXSXSXSXSXSXSXSXSXwXI.I.I.I.I.I.I.I.eXSXSXSXSXSXSXSXSXSXSXSXSXSXSXSXSXSXSXSXSXSXSXSXSXSXSX",
"SXSXSXSXSXSXSXSXSXSXSXSXSXSXSXSXSXSXSXSXSXSXSXSXSXSXSXeXN.c <.I b.b.1.b.c N.eXSXSXSXSXSXSXSXSXSXSXSXSXSXSXSXSXSXSXSXSXSXSXSXSXSX",
"SXSXSXSXSXSXSXSXSXSXSXSXSXSXSXSXSXU.J.J.U.J.J.J.U.J.qXF.<.u x ,.,.i 8.i l 1.F.I.I.I.I.0XSXSXSXSXSXSXSXSXSXSXSXSXSXSXSXSXSXSXSXSX",
"SXSXSXSXSXSXSXSXSXSXSXSXSXSXSXSXQ Z T C Z C Z Z T T C T M.6.p.p.p.p.a.q.6.3.1.I b.<.c N.eXSXSXSXSXSXSXSXSXSXSXSXSXSXSXSXSXSXSXSX",
"SXSXSXSXSXSXSXSXSXSXSXSXSXSXSXSXB 8 X...O.o.o.o.......D t.s.j.x.x.x.x.j.s.e.4.8.8.,.i 1.F.wXSXSXSXSXSXSXSXSXSXSXSXSXSXSXSXSXSXSX",
"SXSXSXSXSXSXSXSXSXSXSXSXSXSXSXSXT X.Q.).>X$X=X$XW././._.g.u.h.h.h.h.h.j.j.a.p.p.a.q.6.2.<.N.wXSXSXSXSXSXSXSXSXSXSXSXSXSXSXSXSXSX",
"SXSXSXSXSXSXSXSXSXSXSXSXSXSXSXSXT ..`.XX5X5X5X5XXX X.X{.^.c.k.h.h.h.k.h.k.h.x.k.x.j.s.e.x <.F.eXSXSXSXSXSXSXSXSXSXSXSXSXSXSXSXSX",
"SXSXSXSXSXSXSXSXSXSXSXSXSXSXSXSXA ..`. X.X.X.XoX(..X5X4X{.~.v.h.h.h.j.k.h.h.h.h.h.h.j.s.e.2.<.N.wXSXSXSXSXSXSXSXSXSXSXSXSXSXSXSX",
"SXSXSXSXSXSXSXSXSXSXSXSXSXSXSXSXQ +.Q.`.}.|..X].`.'.4X5X.X}.v.h.h.h.h.h.h.h.k.k.h.h.a.d.A.e.x <.F.wXSXSXSXSXSXSXSXSXSXSXSXSXSXSX",
"SXSXSXSXSXSXSXSXSXSXSXSXSXSXSXSXSXK.+.T.`.XX5X4XT.R.3X.X|.[.c.u.h.h.h.h.h.h.k.k.h.a.s.r.Z.C.e.3.<.N.wXSXSXSXSXSXSXSXSXSXSXSXSXSX",
"SXSXSXSXSXSXSXSXSXSXSXSXSXSXSXSXSXSXW C W.).>X%X=.@X].|.(.[.^.c.h.h.h.h.h.k.a.d.a.d.r.Z.C.Z.Z.V.x <.F.wXSXSXSXSXSXSXSXSXSXSXSXSX",
"SXSXSXSXSXSXSXSXSXSXSXSXSXSXSXSXSXSXSXOX+...B %.%X,XoX(.|.}.}.~.c.j.h.h.k.j.s.A.r.r.Z.Z.Z.Z.Z.Z.e.3.<.N.eXSXSXSXSXSXSXSXSXSXSXSX",
"SXSXSXSXSXSXSXSXSXSXSXSXSXSXSXSXSXSXSXeXR 5 e &.<X1X)./.|.|.|.[.v.a.a.a.a.d.A.Z.Z.Z.Z.C.5.m.C.Z.Z.V.x <.F.wXSXSXSXSXSXSXSXSXSXSX",
"SXSXSXSXSXSXSXSXSXSXSXSXSXSXSXSXSXSXSXJ.g 9 *.;X1X;X@XR.`.|.|.{.g.7.A.r.s.Y.A.Z.Z.Z.Z.5.4.1.5.Z.Z.Z.5.2.1.N.SXSXSXSXSXSXSXSXSXSX",
"SXSXSXSXSXSXSXSXSXSXSXSXSXG.G.G.SXSXSXG., < %XhXjX1X-.T.`.(.|.[.g.m.C.C.n.n.2.e.Z.Z.e.3.z z 3.5.Z.Z.Z.2.i c SXSXSXSXSXSXSXSXSXSX",
"SXSXSXSXSXSXSXSXSXSXSXSXI , s : , E eX0Xf 9 %XhXnXcXuX*X.X X X{.y.m.Z.m.4.u u 4.n.V.1.z l l z 1.m.Z.Z.5.i v wXSXSXSXSXSXSXSXSXSX",
"SXSXSXSXSXSXSXSXSXSXSXD.q O H U o f 0X0X, 9 =.<XuXiXjX5X3X].]._.y.B.m.n.0.S B.B.e.3.z p l l p z 3.V.C.5.<.n.F.SXSXSXSXSXSXSXSXSX",
"SXSXSXSXSXSXSXSXSXSXI q ~ >.iXAXH f eXeXK + X.O.9 R uXbX5X,X*X@.B m i 1.OX&XkXyXM.j l l j i l l z 1.e.Z.V.2.3.N.SXSXSXSXSXSXSXSX",
"SXSXSXSXSXSXSXSXSXSX, 2 / :.VXZXU - D.H.W q H H G ! kXnXuX-X@X&.V 6 S L.&XhXnXzXB.u j k d a d d d k 3.5.6.3.p v SXSXSXSXSXSXSXSX",
"SXSXSXSXSXSXSXSXSXSXf 3 / ;.cXzXY % f W +X#X6X9XAXmXMXxX-X@X<X%Xo.B OX&XgXnXNXzXB.u l k : ; ; ; . : k 4.4.k : P SXSXSXSXSXSXSXSX",
"SXSXSXSXSXSXSXSXSXSXJ 3 / ;.cXiXU X X 9 ;XiX7X8XZXCXNXgX=.+.,X,Xo.V -XhXvXnXbX1XW t d d f g L g L g d d a s . g SXSXSXSXSXSXSXSX",
"SXSXSXSXSXSXSXSXSXSXJ 3 ^ ;.cXkXY X X q -XiX7X8XZXCXNXuX&...'.).B A -XhXMXbX<X*.b @ . g D.SXSXSXSXD.g . = o   < SXSXSXSXSXSXSXSX",
"SXSXSXSXSXSXSXSXSXSXJ 3 / ;.cXkXU . f W =.$X9XrXZXCXNXuXZ  ./.}.&.O.+X&XjXuX=.N 1 & , E SXSXSXSXSXSXE g L g < E SXSXSXSXSXSXSXSX",
"SXSXSXSXSXSXSXSXSXSXh O / :.cXkXb , H.G.P R tXiXmXMXMXuXT  ./.XX,X+XU M +X+Xn o   < D.SXSXSXSXSXSXSXSXSXSXSXSXSXSXSXSXSXSXSXSXSX",
"SXSXSXSXSXSXSXSXSXSXf O / :.cXiXb , K.K.f 1 *.1XxXbXnXuX&.O.R.}.5X>X< o M B > = f E SXSXSXSXSXSXSXSXSXSXSXSXSXSXSXSXSXSXSXSXSXSX",
"SXSXSXSXSXSXSXSXSXSXJ 3 ^ :.pXkXY o n N 6 5 > R ;XhXhX1X=.+...@.].).m % * > t c F.SXSXSXSXSXSXSXSXSXSXSXSXSXSXSXSXSXSXSXSXSXSXSX",
"SXSXSXSXSXSXSXSXSXSXJ 3 / ;.cXkXb o V &.&.Z # > *.$X%X+X&.B e B '.W.m % , h v B.P.SXSXSXSXSXSXSXSXSXSXSXSXSXSXSXSXSXSXSXSXSXSXSX",
"SXSXSXSXSXSXSXSXSXSXJ 3 / ;.cXkXY > $XxXhXyXI t 9 H q q 9 > & n ,X>Xw , D.aXqXK.b.n.wXSXSXSXSXSXSXSXSXSXSXSXSXSXSXSXSXSXSXSXSXSX",
"SXSXSXSXSXSXSXSXSXSXJ 3 / ;.pXsX< H kXBXBXzXW t - : - - : @ = b #X#X> f aXfXdXqXB.1.F.0XG.0XSXSXSXSXSXSXSXSXSXSXSXSXSXSXSXSXSXSX",
"SXSXSXSXSXSXSXSXSXSXJ 3 ^ ;.jX$X> 0 uXBXBXzXY @ v 2.2.<.k a d d 0 q y v qXdXaXaXqXK.N.v h E SXSXSXSXSXSXSXSXSXSXSXSXSXSXSXSXSXSX",
"SXSXSXSXSXSXSXSXSXSXJ 3 _ #.:X#X< 0 yXxXlXtXC m M.Y.A.C.1.z l a : - k M.K.qXaXdXdXqX1.t X , SXSXSXSXSXSXSXSXSXSXSXSXSXSXSXSXSXSX",
"SXSXSXSXSXSXSXSXSXSXJ 3 ] #.:X%X0 ; T %.U C R.!.y.A.Z.C.6.3.z p d k 3.5.4.n.qXaXdXqX1.t @ f SXSXSXSXSXSXSXSXSXSXSXSXSXSXSXSXSXSX",
"SXSXSXSXSXSXSXSXSXSXJ 3 _ { 2X$Xb & 5 5 @ S [.}.y.9.C.C.Z.m.3.,.4.4.0.9.0.L.aXsXqXK.S F 7 n SXSXSXSXSXSXSXSXSXSXSXSXSXSXSXSXSXSX",
"SXSXSXSXSXSXSXSXSXSXJ O ( >.;X$Xb % # s c y.oX]...D e.A.A.Z.e.7.7.0.m *.&XzXvXsXD.S ' [ [ ` 9 I SXSXSXSXSXSXSXSXSXSXSXSXSXSXSXSX",
"SXSXSXSXSXSXSXSXSXSXP O 4 o.;X$Xn % . f n.g.[._.+.N 0.9.9.9.9.9.t.S M %.jXNXMXlX0.F $.} } [ r 0 SXSXSXSXSXSXSXSXSXSXSXSXSXSXSXSX",
"SXSXSXSXSXSXSXSXSXSXL % % n <X<Xn %   : n.s.c.c.f.t.N M M M M M A M 6 %.xXBXNXuXZ B =X:X#.} | ` 0 I SXSXSXSXSXSXSXSXSXSXSXSXSXSX",
"SXSXSXSXSXSXSXSXSXSXg & 1 e +X#Xb % g Y S 6.s.j.l.h.D M N N N N N N N +.uXuXxXuXZ A #X%X' [ | _ 4 < SXSXSXSXSXSXSXSXSXSXSXSXSXSX",
"SXSXSXSXSXSXSXSXSXSXf 2 _ ' e f % g #X#Xg a 0.d.z.l.f.w.w.w.w.w.w.w.f.y.&.%.&.T 7 o < q 1 4 ) _ ( e 0 I SXSXSXSXSXSXSXSXSXSXSXSX",
"SXSXSXSXSXSXSXSXSXSXSXq ' _ 7 ; 1 V =X=XT Y v e.6.p.j.l.l.l.l.l.l.z.z.f.D 6 5 5 h K , f J g e 8 ( 8 + , SXSXSXSXSXSXSXSXSXSXSXSX",
"SXSXSXSXSXSXSXSXSXSXSXSXq 4 8 ( _ [ { :.=X+XU @ $ h e.d.h.l.l.l.l.z.d.r.Z.0.$ > D.0XG.SXSXD.0 + O O   , SXSXSXSXSXSXSXSXSXSXSXSX",
"SXSXSXSXSXSXSXSXSXSXSXSXSX< e ) [ ] | { -.%XU , g h v 3.q.p.p.q.p.6.0.1.2.v h E SXSXSXSXSXSXSXf K g f SXSXSXSXSXSXSXSXSXSXSXSXSX",
"SXSXSXSXSXSXSXSXSXSXSXSXSXSX< 4 ~ _ | [ e Y D.0X0XD.g # : s : s s : $ : # h D.SXSXSXSXSXSXSXSXSXSXSXSXSXSXSXSXSXSXSXSXSXSXSXSXSX",
"SXSXSXSXSXSXSXSXSXSXSXSXSXSXSX< e ( _ ' 9 I SXSXSXI.E , < g L G , g L < , E SXSXSXSXSXSXSXSXSXSXSXSXSXSXSXSXSXSXSXSXSXSXSXSXSXSX",
"SXSXSXSXSXSXSXSXSXSXSXSXSXSXSXSX< + 2 q SXSXSXSXSXSXSXSXSXSXSXSXSXSXSXSXSXSXSXSXSXSXSXSXSXSXSXSXSXSXSXSXSXSXSXSXSXSXSXSXSXSXSXSX",
"SXSXSXSXSXSXSXSXSXSXSXSXSXSXSXSXSXf , SXSXSXSXSXSXSXSXSXSXSXSXSXSXSXSXSXSXSXSXSXSXSXSXSXSXSXSXSXSXSXSXSXSXSXSXSXSXSXSXSXSXSXSXSX",
"SXSXSXSXSXSXSXSXSXSXSXSXSXSXSXSXSXSXSXSXSXSXSXSXSXSXSXSXSXSXSXSXSXSXSXSXSXSXSXSXSXSXSXSXSXSXSXSXSXSXSXSXSXSXSXSXSXSXSXSXSXSXSXSX",
"SXSXSXSXSXSXSXSXSXSXSXSXSXSXSXSXSXSXSXSXSXSXSXSXSXSXSXSXSXSXSXSXSXSXSXSXSXSXSXSXSXSXSXSXSXSXSXSXSXSXSXSXSXSXSXSXSXSXSXSXSXSXSXSX",
"SXSXSXSXSXSXSXSXSXSXSXSXSXSXSXSXSXSXSXSXSXSXSXSXSXSXSXSXSXSXSXSXSXSXSXSXSXSXSXSXSXSXSXSXSXSXSXSXSXSXSXSXSXSXSXSXSXSXSXSXSXSXSXSX",
"SXSXSXSXSXSXSXSXSXSXSXSXSXSXSXSXSXSXSXSXSXSXSXSXSXSXSXSXSXSXSXSXSXSXSXSXSXSXSXSXSXSXSXSXSXSXSXSXSXSXSXSXSXSXSXSXSXSXSXSXSXSXSXSX",
"SXSXSXSXSXSXSXSXSXSXSXSXSXSXSXSXSXSXSXSXSXSXSXSXSXSXSXSXSXSXSXSXSXSXSXSXSXSXSXSXSXSXSXSXSXSXSXSXSXSXSXSXSXSXSXSXSXSXSXSXSXSXSXSX",
"SXSXSXSXSXSXSXSXSXSXSXSXSXSXSXSXSXSXSXSXSXSXSXSXSXSXSXSXSXSXSXSXSXSXSXSXSXSXSXSXSXSXSXSXSXSXSXSXSXSXSXSXSXSXSXSXSXSXSXSXSXSXSXSX",
"SXSXSXSXSXSXSXSXSXSXSXSXSXSXSXSXSXSXSXSXSXSXSXSXSXSXSXSXSXSXSXSXSXSXSXSXSXSXSXSXSXSXSXSXSXSXSXSXSXSXSXSXSXSXSXSXSXSXSXSXSXSXSXSX",
"SXSXSXSXSXSXSXSXSXSXSXSXSXSXSXSXSXSXSXSXSXSXSXSXSXSXSXSXSXSXSXSXSXSXSXSXSXSXSXSXSXSXSXSXSXSXSXSXSXSXSXSXSXSXSXSXSXSXSXSXSXSXSXSX"
};
