/* XPM */
static char *result[] = {
/* columns rows colors chars-per-pixel */
"64 64 244 2 ",
"   c #191916",
".  c #0C0910",
"X  c #241A1A",
"o  c #381018",
"O  c #1B2D1D",
"+  c #26351F",
"@  c #171723",
"#  c #261923",
"$  c #381920",
"%  c #1A2821",
"&  c #1A3524",
"*  c #15322B",
"=  c #282424",
"-  c #392525",
";  c #273827",
":  c #263B33",
">  c #393935",
",  c #33302F",
"<  c #450915",
"1  c #45111E",
"2  c #49111F",
"3  c #66141A",
"4  c #50321C",
"5  c #491C21",
"6  c #472824",
"7  c #483A37",
"8  c #533936",
"9  c #533229",
"0  c #6C2B26",
"q  c #6B1F21",
"w  c #1C5B1C",
"e  c #1C651E",
"r  c #18711A",
"t  c #24711C",
"y  c #1F5121",
"u  c #245926",
"i  c #254639",
"p  c #364A3A",
"a  c #2D5338",
"s  c #1D6720",
"d  c #286B28",
"f  c #287827",
"g  c #2D7C33",
"h  c #377A3B",
"j  c #2F6A2B",
"k  c #474A19",
"l  c #6C5A1C",
"z  c #554C27",
"x  c #46473B",
"c  c #524F2E",
"v  c #664628",
"b  c #6B5625",
"n  c #6B4B39",
"m  c #7B4A38",
"M  c #665934",
"N  c #78512F",
"B  c #4C7437",
"V  c #707332",
"C  c #3D3741",
"Z  c #513949",
"A  c #274D40",
"S  c #2A4841",
"D  c #374740",
"F  c #2C5641",
"G  c #366E52",
"H  c #515048",
"J  c #735448",
"K  c #466C56",
"L  c #526F4A",
"P  c #6D7756",
"I  c #676C43",
"U  c #716A66",
"Y  c #91151B",
"T  c #B41219",
"R  c #B51116",
"E  c #971E20",
"W  c #A11E21",
"Q  c #BB1E20",
"!  c #942424",
"~  c #913E39",
"^  c #AA2926",
"/  c #CA1F20",
"(  c #C72122",
")  c #D42223",
"_  c #EE2223",
"`  c #865B1B",
"'  c #935015",
"]  c #8C4E19",
"[  c #A97B1B",
"{  c #855239",
"}  c #8D5337",
"|  c #876824",
" . c #876A37",
".. c #937230",
"X. c #B8493C",
"o. c #EC4A3D",
"O. c #875745",
"+. c #95584B",
"@. c #987C5A",
"#. c #94734A",
"$. c #A27952",
"%. c #F4554A",
"&. c #F85350",
"*. c #C94B4D",
"=. c #328D1A",
"-. c #2A8226",
";. c #36833E",
":. c #358936",
">. c #3B9D3C",
",. c #39953A",
"<. c #2C8A2F",
"1. c #3EA33D",
"2. c #3CAA3A",
"3. c #3CBB2F",
"4. c #1C8029",
"5. c #4E8F3B",
"6. c #45BB3C",
"7. c #50AA35",
"8. c #71B73E",
"9. c #47A31F",
"0. c #39E427",
"q. c #3EDB2B",
"w. c #43C725",
"e. c #55CB23",
"r. c #49D826",
"t. c #4AC939",
"y. c #4AD634",
"u. c #55D220",
"i. c #67CE35",
"p. c #4EE922",
"a. c #4CE527",
"s. c #53EB22",
"d. c #4FF625",
"f. c #69EB22",
"g. c #78E625",
"h. c #3A8740",
"j. c #3E9345",
"k. c #3DA341",
"l. c #3AB547",
"z. c #459855",
"x. c #4C9447",
"c. c #44AA43",
"v. c #46B246",
"b. c #46BC44",
"n. c #59A352",
"m. c #589B65",
"M. c #4F9065",
"N. c #53B667",
"B. c #58AA74",
"V. c #58AD73",
"C. c #62AB67",
"Z. c #65B57A",
"A. c #72AD6C",
"S. c #6B9352",
"D. c #61C67C",
"F. c #61C87B",
"G. c #53C462",
"H. c #AF8A33",
"J. c #BDAC28",
"K. c #B2A035",
"L. c #80AF36",
"P. c #CFBA28",
"I. c #B9C927",
"U. c #B8EE22",
"Y. c #95EB26",
"T. c #DCD01F",
"R. c #E7D81F",
"E. c #E9CE1F",
"W. c #F9F81F",
"Q. c #D6D623",
"!. c #D4CB32",
"~. c #E7D926",
"^. c #E1CD36",
"/. c #E8D62A",
"(. c #D6EC25",
"). c #DEE836",
"_. c #F5EA24",
"`. c #FCF321",
"'. c #FCFD26",
"]. c #FCF535",
"[. c #EFE830",
"{. c #978A59",
"}. c #B38A5B",
"|. c #B08D4D",
" X c #9E8167",
".X c #B68A69",
"XX c #B1986F",
"oX c #B9A779",
"OX c #BFB47F",
"+X c #CEAE54",
"@X c #C89C74",
"#X c #CB9D6D",
"$X c #E79C71",
"%X c #CCA668",
"&X c #C9A977",
"*X c #D5B170",
"=X c #EEA87F",
"-X c #E7D149",
";X c #DFC368",
":X c #EBCD6E",
">X c #4C58BA",
",X c #3F57EB",
"<X c #5766CD",
"1X c #456BFF",
"2X c #425CEF",
"3X c #65CE84",
"4X c #64C685",
"5X c #76C784",
"6X c #65D186",
"7X c #6ADC92",
"8X c #74D288",
"9X c #72F6A2",
"0X c #69DB91",
"qX c #7180EB",
"wX c #A28584",
"eX c #B0A787",
"rX c #ABB4B7",
"tX c #D7B995",
"yX c #CCB18B",
"uX c #CDB2AB",
"iX c #E1AF8E",
"pX c #82CA88",
"aX c #91D797",
"sX c #9EE6A8",
"dX c #A1E0A3",
"fX c #D3C697",
"gX c #F5CC9A",
"hX c #E9C593",
"jX c #CEC5A3",
"kX c #D6CDA8",
"lX c #E7C9A4",
"zX c #FEC8A5",
"xX c #F6D8AD",
"cX c #F8DDB4",
"vX c #F0D6B3",
"bX c #FCE4B8",
"nX c #FEECC8",
"mX c #FFF4CC",
"MX c #FFEFD6",
"NX c #CDD5F5",
"BX c #FFFEED",
"VX c #DFDED8",
"CX c #A7AECE",
"ZX c None",
/* pixels */
"ZXZXZXZXZXZXZXZXZXZXZXZXZXZXZXZXZXZXZXZXZXZXZXZXZXZXZXZXZXZXZXZXZXZXZXZXZXZXZXZXZXZXZXZXZXZXZXZXZXZXZXZXZXZXZXZXZXZXZXZXZXZXZXZX",
"ZXZXZXZXZXZXZXZXZXZXZXZXZXZXZXZXZXZXZXZXZXZXZXZXZXZXZXZXZXZXZXZXZXZXZXZXZXZXZXZXZXZXZXZXZXZXZXZXZXZXZXZXZXZXZXZXZXZXZXZXZXZXZXZX",
"ZXZXZXZXZXZXZXZXZXZXZXZXZXZXZXZXZXZXZXZXZXZXZXZXZXZXZXZXZXZXZXZXZXZXZXZXZXZXZXZXZXZXZXZXZXZXZXZXZXZXZXZXZXZXZXZXZXZXZXZXZXZXZXZX",
"ZXZXZXZXZXZXZXZXZXZXZXZXZXZXZXZXZXZXZXZXZXZXZXZXZXZXZXZXZXZXZXZXZXZXZXZXZXZXZXZXZXZXZXZXZXZXZXZXZXZXZXZXZXZXZXZXZXZXZXZXZXZXZXZX",
"ZXZXZXZXZXZXZXZXZXZXZXZXZXZXZXZXZXZXZXZXZXZXZXZXZXZXZXZXZXZXZXZXZXZXZXZXZXZXZXZXZXZXZXZXZXZXZXZXZXZXZXZXZXZXZXZXZXZXZXZXZXZXZXZX",
"ZXZXZXZXZXZXZXZXZXZXZXZXZXZXZXZXZXZXZXZXZXZXZXZXZXZXZXZXZXZXZXZXZXZXZXZXZXZXZXZXZXZXZXZXZXZXZXZXZXZXZXZXZXZXZXZXZXZXZXZXZXZXZXZX",
"ZXZXZXZXZXZXZXZXZXZXZXZXZXZXZXZXZXZXZXZXZXZXZXZXZXZXZXZXZXZXZXZXZXZXZXZXZXZXZXZXZXZXZXZXZXZXZXZXZXZXZXZXZXZXZXZXZXZXZXZXZXZXZXZX",
"ZXZXZXZXZXZXZXZXZXZXZXZXZXZXZXZXZXZXZXZXZXZXZXZXZXZXZXZXZXZX6XF.F.F.F.F.F.F.F.6XZXZXZXZXZXZXZXZXZXZXZXZXZXZXZXZXZXZXZXZXZXZXZXZX",
"ZXZXZXZXZXZXZXZXZXZXZXZXZXZXZXZXZXZXZXZXZXZXZXZXZXZXZXZXZX6Xz.g h.;.h ;.;.h g z.6XZXZXZXZXZXZXZXZXZXZXZXZXZXZXZXZXZXZXZXZXZXZXZX",
"ZXZXZXZXZXZXZXZXZXZXZXZXZXZXZXZXZXZXZXZXZXZXZXZXZXZX5XZ.5XC.;.r f -.-.-.=.t t ;.N.6XZXZXZXZXZXZXZXZXZXZXZXZXZXZXZXZXZXZXZXZXZXZX",
"ZXZXZXZXZXZXZXZXZXZXZXZXZXZXZXZXZXZXZXZXZXZXZXZXZX8XP n n I 5.2.w.w.w.w.w.w.2.,.;.z.6XZXZXZXZXZXZXZXZXZXZXZXZXZXZXZXZXZXZXZXZXZX",
"ZXZXZXZXZXZXZXZXZXZXZXZXZXZXZXZXZXZXZXZXZXZXZXoX5XA...' ' V 7.t.p.d.s.s.s.p.t.6.=.:.N.6XZXZXZXZXZXZXZXZXZXZXZXZXZXZXZXZXZXZXZXZX",
"ZXZXZXZXZXZXZXZXZXZXZXZXZXZXZXZXZXZXZXZXZXD.P n n V P.E.E.Q.e.q.p.p.p.p.p.p.r.r.w.9.<.z.6XZXZXZXZXZXZXZXZXZXZXZXZXZXZXZXZXZXZXZX",
"ZXZXZXZXZXZXZXZXZXZXZXZXZXZXZXZXZXZXZXZXZXA. .' ] [ ~.].].[.Y.f.p.p.p.p.p.p.p.s.d.a.=.:.N.6XZXZXZXZXZXZXZXZXZXZXZXZXZXZXZXZXZXZX",
"ZXZXZXZXZXZXZXZXZXZXZXZXZXZXZXZXZXZXZXD.P  .J.E.T.~._.[.:X;X).U.f.s.p.p.p.p.p.p.p.p.r.3.=.z.3XZXZXZXZXZXZXZXZXZXZXZXZXZXZXZXZXZX",
"ZXZXZXZXZXZXZXZXZXZXZXZXZXZXZXZXZXZXZXA.{ [ R.'.].]./.^.;X:X[.(.g.0.p.p.p.p.p.p.p.p.p.w.=.h.V.6XZXZXZXZXZXZXZXZXZXZXZXZXZXZXZXZX",
"ZXZXZXZXZXZXZXZXZXZXZXZXZXZXZXZXZXZXP  .P.R.W.[.:X*X|.K.^.[.`.(.f.0.p.p.p.p.a.s.s.r.t.6.2.,.:.z.ZXZXZXZXZXZXZXZXZXZXZXZXZXZXZXZX",
"ZXZXZXZXZXZXZXZXZXZXZXZXZXZXZXZXZXZXn ' T.'.].-X%X.X|.|./.W.`.(.Y.s.s.p.p.p.s.a.r.y.v.v.v.1.r g F.ZXZXZXZXZXZXZXZXZXZXZXZXZXZXZX",
"ZXZXZXZXZXZXZXZXZXZXZXZXZXZXZXZXZXZXn ' E.'.:X%X .} .X*X[.W.`._._.U.f.p.p.p.s.a.t.6.v.v.v.k.d h 3XZXZXZXZXZXZXZXZXZXZXZXZXZXZXZX",
"ZXZXZXZXZXZXZXZXZXZXZXZXZXZXZXZXZXZXP ..P.!.%X.X} +.@X;X-X~._.`.'.(.g.y.r.r.r.y.b.v.c.v.v.c.<.,.N.6XZXZXZXZXZXZXZXZXZXZXZXZXZXZX",
"ZXZXZXZXZXZXZXZXZXZXZXZXZXZXZXZXZXZXZXA.| ] } #.}.#X&X%X|.K./.`.`.(.i.l.6.b.t.b.v.l.v.v.v.c.7.j.:.z.ZXZXZXZXZXZXZXZXZXZXZXZXZXZX",
"ZXZXZXZXZXZXZXZXZXZXZXZXZXZXZXZXZXZXZXZXP v 4 m #XhXhXyX}.|./.`.`.(.8.c.v.c.k.,.1.7.c.v.v.v.v.k.t g ZXZXZXZXZXZXZXZXZXZXZXZXZXZX",
"ZXZXZXZXZXZXZXZXZXZXZXZXZXZXZXZXZXZXZXZX8Xm.> 8 XXgXbXvX&X*X[.'.'.[.K.S.n.2.<.r r -.k.v.v.v.v.1.t ;.ZXZXZXZXZXZXZXZXZXZXZXZXZXZX",
"ZXZXZXZXZXZXZXZXZXZXZXZXZXZX4XV.Z.Z.Z.4X9X4Xi - $.&XyXtXiX:X-X[./.P.[  .5.k.,.B L x.x.c.v.v.v.>.f h.ZXZXZXZXZXZXZXZXZXZXZXZXZXZX",
"ZXZXZXZXZXZXZXZXZXZXZXZXZX3XG i i i ; K 7X6XS X 0 ` 8 J yXcX:X+X+X[ ] v f h {.oXfXeXx.<.1.v.v.>.f ;.ZXZXZXZXZXZXZXZXZXZXZXZXZXZX",
"ZXZXZXZXZXZXZXZXZXZXZXZXZXm.9 2 Z C X p m.B.L 8 Z Z C U jXbXtX#X}.#.v 0 B S.&XgXnXkXx.r ,.c.v.1.f h.ZXZXZXZXZXZXZXZXZXZXZXZXZXZX",
"ZXZXZXZXZXZXZXZXZXZXZXZXG 8 E *.uXrXH   i L  XwX>X<XCXVXbXlX#X}.@X.X{ N {.OXlXbXnXkXx.r f <.c.>.j h.ZXZXZXZXZXZXZXZXZXZXZXZXZXZX",
"ZXZXZXZXZXZXZXZXZXZXZXZX: < R &.MXVXH . . 8 %XeX2X1XNXBXmXhX$...*X%X{ { #XgXxXbXxXOXB e e -.1.1.f h.ZXZXZXZXZXZXZXZXZXZXZXZXZXZX",
"ZXZXZXZXZXZXZXZXZXZXZXZXi 1 R %.cXkXH . . 7 %XuX2X1XNXBXnXtXO.` ^./.` O.tXbXmXvX&X#.x + s -.c.2.f h.ZXZXZXZXZXZXZXZXZXZXZXZXZXZX",
"ZXZXZXZXZXZXZXZXZXZXZXZXA 1 R %.zXuXH   p H  XwX<XqXNXBXnXtXO.` R.E.l J tXbXxXyX$.b - O y d >.,.f h.ZXZXZXZXZXZXZXZXZXZXZXZXZXZX",
"ZXZXZXZXZXZXZXZXZXZXZXZXA 1 R %.zXjXH & B.B.x n wXuXbXnXnXtXO.` R.T.k 8 &XhX%X$.9 X # # @ ; d -.t ,.ZXZXZXZXZXZXZXZXZXZXZXZXZXZX",
"ZXZXZXZXZXZXZXZXZXZXZXZXA 1 R %.zXjXZ i 3X7XG p {.&XlXxXbXtXJ ` R.T.p , @.}.#.b D S p p p p u w w G ZXZXZXZXZXZXZXZXZXZXZXZXZXZX",
"ZXZXZXZXZXZXZXZXZXZXZXZXS 1 T %.zXfXx : 4X9X7Xm.p n &XgXgX@XO.| R.Q.k @ > x 6 H B.3XD.Z.4Xm.p   . p ZXZXZXZXZXZXZXZXZXZXZXZXZXZX",
"ZXZXZXZXZXZXZXZXZXZXZXZXA o T %.zXuXx ; m.8X8XV.F H @..X@X$.8 ` ^.!.c @ % = % a B.7X9XZXZX3XK > p K ZXZXZXZXZXZXZXZXZXZXZXZXZXZX",
"ZXZXZXZXZXZXZXZXZXZXZXZXA 1 T %.zXjXH X c N n I Z.Z.H 7 7 , # n *X%Xc   y w w u p K 4XZXZXZXZXZXZXZXZXZXZXZXZXZXZXZXZXZXZXZXZXZX",
"ZXZXZXZXZXZXZXZXZXZXZXZXA 1 R %.zXjXH X J } } #.Z.V.a O * ; % x  X Xx + w f -.d   > Z.ZXZXZXZXZXZXZXZXZXZXZXZXZXZXZXZXZXZXZXZXZX",
"ZXZXZXZXZXZXZXZXZXZXZXZXA 1 R %.zXjXH , eXlXzXyXK A h.k.>.h d u x x y e s f 2.<.= p ZXZXZXZXZXZXZXZXZXZXZXZXZXZXZXZXZXZXZXZXZXZX",
"ZXZXZXZXZXZXZXZXZXZXZXZXA 2 T %.gXtX> 7 jXmXvXeXn k c.b.b.l.<.d O & G x.j.j.1.:.; D ZXZXZXZXZXZXZXZXZXZXZXZXZXZXZXZXZXZXZXZXZXZX",
"ZXZXZXZXZXZXZXZXZXZXZXZXA 2 R %.iXXX> H kXvXU M J.I.8.l.v.v.2.:.e g C.pXpXC.,.e   D 4XZXZXZXZXZXZXZXZXZXZXZXZXZXZXZXZXZXZXZXZXZX",
"ZXZXZXZXZXZXZXZXZXZXZXZXS 2 T o.$XXX> > eXeX, k T._.8.j.c.v.b.1.-.h.pXsXsX5Xn.j ; p B.ZXZXZXZXZXZXZXZXZXZXZXZXZXZXZXZXZXZXZXZXZX",
"ZXZXZXZXZXZXZXZXZXZXZXZXA 1 T o.$XXX> % p H @ k Q._.| c c.b.b.2.4.x.5XsXaXaX8XC.h u : K ZXZXZXZXZXZXZXZXZXZXZXZXZXZXZXZXZXZXZXZX",
"ZXZXZXZXZXZXZXZXZXZXZXZXi 1 E o.$XXXH   $ $ @ c I.!.| M 5.x.5.5.j B C.5XaXaXsX8Xx.w X , M.ZXZXZXZXZXZXZXZXZXZXZXZXZXZXZXZXZXZXZX",
"ZXZXZXZXZXZXZXZXZXZXZXZXi o Y X.$XXXx $ W W o i 8.8.n.5.M z v v v z j x.oX7XsXpXx.w + = : G ZXZXZXZXZXZXZXZXZXZXZXZXZXZXZXZXZXZX",
"ZXZXZXZXZXZXZXZXZXZXZXZXZX> 3 ~ &XoXx 6 / / q ; j >.6.c.V l b b 0 v B n.aXdXpXV.:.u & # < 8 m.ZXZXZXZXZXZXZXZXZXZXZXZXZXZXZXZXZX",
"ZXZXZXZXZXZXZXZXZXZXZXZXZXZX, 9 @X&XD 5 ( _ ! 9 , d k.b.e.u.u.9.l { oXkXvXjXC.-.f w & 2 W ^ 7 G ZXZXZXZXZXZXZXZXZXZXZXZXZXZXZXZX",
"ZXZXZXZXZXZXZXZXZXZXZXZXZXZXZXH  X{.> $ E ( Q E 2 ; j 7.y.d.d.u.l +.lXmXmXfXB e u y & 5 ) ) < i ZXZXZXZXZXZXZXZXZXZXZXZXZXZXZXZX",
"ZXZXZXZXZXZXZXZXZXZXZXZXZXZXZXZXH 6   # $ q Q ) E 0 6 a 7.y.d.u.l +.lXMXmXlX#.4 + ; % 6 ( ( 2 a ZXZXZXZXZXZXZXZXZXZXZXZXZXZXZXZX",
"ZXZXZXZXZXZXZXZXZXZXZXZXZXZXZXZXZX: p A a x ^ Q ! 0 7 F h ,.6.9.k J @XlXlX&Xn 4 = = = q ) Q 1 i ZXZXZXZXZXZXZXZXZXZXZXZXZXZXZXZX",
"ZXZXZXZXZXZXZXZXZXZXZXZXZXZXZXZXZXZXZXZXZXZX7 < o > B.B.p + ; ; X 6 N +.} J 9 = % - ! ) _ ( < i ZXZXZXZXZXZXZXZXZXZXZXZXZXZXZXZX",
"ZXZXZXZXZXZXZXZXZXZXZXZXZXZXZXZXZXZXZXZXZXZXZXi : ZXZXZXK : > D S p M N N c = # $ q ) _ ) ! 7 ZXZXZXZXZXZXZXZXZXZXZXZXZXZXZXZXZX",
"ZXZXZXZXZXZXZXZXZXZXZXZXZXZXZXZXZXZXZXZXZXZXZXZXZXZXZXZXZXZXZXZXZXZXZXZXZXZX: o W ) _ / 3 7 ZXZXZXZXZXZXZXZXZXZXZXZXZXZXZXZXZXZX",
"ZXZXZXZXZXZXZXZXZXZXZXZXZXZXZXZXZXZXZXZXZXZXZXZXZXZXZXZXZXZXZXZXZXZXZXZXZXZXZX8 ^ / ( ! 7 ZXZXZXZXZXZXZXZXZXZXZXZXZXZXZXZXZXZXZX",
"ZXZXZXZXZXZXZXZXZXZXZXZXZXZXZXZXZXZXZXZXZXZXZXZXZXZXZXZXZXZXZXZXZXZXZXZXZXZXZXZX8 < < 7 ZXZXZXZXZXZXZXZXZXZXZXZXZXZXZXZXZXZXZXZX",
"ZXZXZXZXZXZXZXZXZXZXZXZXZXZXZXZXZXZXZXZXZXZXZXZXZXZXZXZXZXZXZXZXZXZXZXZXZXZXZXZXZX: : ZXZXZXZXZXZXZXZXZXZXZXZXZXZXZXZXZXZXZXZXZX",
"ZXZXZXZXZXZXZXZXZXZXZXZXZXZXZXZXZXZXZXZXZXZXZXZXZXZXZXZXZXZXZXZXZXZXZXZXZXZXZXZXZXZXZXZXZXZXZXZXZXZXZXZXZXZXZXZXZXZXZXZXZXZXZXZX",
"ZXZXZXZXZXZXZXZXZXZXZXZXZXZXZXZXZXZXZXZXZXZXZXZXZXZXZXZXZXZXZXZXZXZXZXZXZXZXZXZXZXZXZXZXZXZXZXZXZXZXZXZXZXZXZXZXZXZXZXZXZXZXZXZX",
"ZXZXZXZXZXZXZXZXZXZXZXZXZXZXZXZXZXZXZXZXZXZXZXZXZXZXZXZXZXZXZXZXZXZXZXZXZXZXZXZXZXZXZXZXZXZXZXZXZXZXZXZXZXZXZXZXZXZXZXZXZXZXZXZX",
"ZXZXZXZXZXZXZXZXZXZXZXZXZXZXZXZXZXZXZXZXZXZXZXZXZXZXZXZXZXZXZXZXZXZXZXZXZXZXZXZXZXZXZXZXZXZXZXZXZXZXZXZXZXZXZXZXZXZXZXZXZXZXZXZX",
"ZXZXZXZXZXZXZXZXZXZXZXZXZXZXZXZXZXZXZXZXZXZXZXZXZXZXZXZXZXZXZXZXZXZXZXZXZXZXZXZXZXZXZXZXZXZXZXZXZXZXZXZXZXZXZXZXZXZXZXZXZXZXZXZX",
"ZXZXZXZXZXZXZXZXZXZXZXZXZXZXZXZXZXZXZXZXZXZXZXZXZXZXZXZXZXZXZXZXZXZXZXZXZXZXZXZXZXZXZXZXZXZXZXZXZXZXZXZXZXZXZXZXZXZXZXZXZXZXZXZX",
"ZXZXZXZXZXZXZXZXZXZXZXZXZXZXZXZXZXZXZXZXZXZXZXZXZXZXZXZXZXZXZXZXZXZXZXZXZXZXZXZXZXZXZXZXZXZXZXZXZXZXZXZXZXZXZXZXZXZXZXZXZXZXZXZX",
"ZXZXZXZXZXZXZXZXZXZXZXZXZXZXZXZXZXZXZXZXZXZXZXZXZXZXZXZXZXZXZXZXZXZXZXZXZXZXZXZXZXZXZXZXZXZXZXZXZXZXZXZXZXZXZXZXZXZXZXZXZXZXZXZX",
"ZXZXZXZXZXZXZXZXZXZXZXZXZXZXZXZXZXZXZXZXZXZXZXZXZXZXZXZXZXZXZXZXZXZXZXZXZXZXZXZXZXZXZXZXZXZXZXZXZXZXZXZXZXZXZXZXZXZXZXZXZXZXZXZX",
"ZXZXZXZXZXZXZXZXZXZXZXZXZXZXZXZXZXZXZXZXZXZXZXZXZXZXZXZXZXZXZXZXZXZXZXZXZXZXZXZXZXZXZXZXZXZXZXZXZXZXZXZXZXZXZXZXZXZXZXZXZXZXZXZX"
};
