/* XPM */
static char *_0bf807bacf54a88addff5f024178e78QEfcDHjEky0LromH[] = {
/* columns rows colors chars-per-pixel */
"64 64 248 2 ",
"   c None",
".  c #1B0915",
"X  c #1A181B",
"o  c #0C0912",
"O  c #370915",
"+  c #24191A",
"@  c #38131F",
"#  c #260A18",
"$  c #17291C",
"%  c #28291C",
"&  c #131921",
"*  c #0E1220",
"=  c #301C24",
"-  c #1A3227",
";  c #262622",
":  c #273927",
">  c #3D3328",
",  c #293C33",
"<  c #353C3E",
"1  c #393A34",
"2  c #3B2A2A",
"3  c #45111E",
"4  c #4E0C17",
"5  c #512818",
"6  c #501922",
"7  c #721F20",
"8  c #49352C",
"9  c #433B36",
"0  c #473735",
"q  c #553C36",
"w  c #503022",
"e  c #673228",
"r  c #6F2118",
"t  c #195B1F",
"y  c #20521F",
"u  c #176B1B",
"i  c #24761D",
"p  c #276B18",
"a  c #1C4C28",
"s  c #2B4323",
"d  c #245924",
"f  c #284537",
"g  c #35473A",
"h  c #36533B",
"j  c #2F5232",
"k  c #1D7422",
"l  c #246A24",
"z  c #277825",
"x  c #2D7D32",
"c  c #387B3D",
"v  c #396E2F",
"b  c #48473A",
"n  c #58493B",
"m  c #525231",
"M  c #664929",
"N  c #685826",
"B  c #794734",
"V  c #6C5738",
"C  c #745636",
"Z  c #754F2B",
"A  c #4F7033",
"S  c #60672F",
"D  c #565813",
"F  c #3D3741",
"G  c #443C46",
"H  c #5A3647",
"J  c #274D40",
"K  c #294940",
"L  c #364840",
"P  c #375040",
"I  c #36754F",
"U  c #554D48",
"Y  c #4D5248",
"T  c #6B5543",
"R  c #715749",
"E  c #466C55",
"W  c #446555",
"Q  c #546E47",
"!  c #697150",
"~  c #6A6861",
"^  c #961B1D",
"/  c #B41219",
"(  c #B51116",
")  c #8A1F21",
"_  c #981F21",
"`  c #B21E20",
"'  c #932A26",
"]  c #B22D29",
"[  c #C71E20",
"{  c #D41F20",
"}  c #E91F21",
"|  c #D02A27",
" . c #E72826",
".. c #E2131F",
"X. c #92561C",
"o. c #86541A",
"O. c #894933",
"+. c #845439",
"@. c #8E582A",
"#. c #8D6E32",
"$. c #B26028",
"%. c #EE473B",
"&. c #895745",
"*. c #986B49",
"=. c #91714E",
"-. c #A57C59",
";. c #A17B4B",
":. c #A07C68",
">. c #F4554A",
",. c #F2564F",
"<. c #C94B4D",
"1. c #2C8224",
"2. c #358334",
"3. c #368A39",
"4. c #3B9B3D",
"5. c #399439",
"6. c #2D912C",
"7. c #3EA33D",
"8. c #3EAC38",
"9. c #3ABD3E",
"0. c #258220",
"q. c #498839",
"w. c #51923C",
"e. c #42B925",
"r. c #46A93C",
"t. c #46BA3C",
"y. c #52B729",
"u. c #75A438",
"i. c #39E427",
"p. c #3FDA2B",
"a. c #4BCE1F",
"s. c #43C623",
"d. c #4AD927",
"f. c #4ACB37",
"g. c #4BD734",
"h. c #55C524",
"j. c #69C938",
"k. c #4EE922",
"l. c #4DE628",
"z. c #53EB22",
"x. c #4EF524",
"c. c #50F323",
"v. c #69EB22",
"b. c #79E625",
"n. c #368140",
"m. c #3CAC43",
"M. c #4A9E42",
"N. c #469A55",
"B. c #54904D",
"V. c #64934C",
"C. c #40A640",
"Z. c #43AD43",
"A. c #46B246",
"S. c #46BC43",
"D. c #48B844",
"F. c #4BA74B",
"G. c #559B67",
"H. c #53B567",
"J. c #56AA74",
"K. c #5EB97A",
"L. c #4EA26C",
"P. c #63B779",
"I. c #72BA7B",
"U. c #69AA68",
"Y. c #6D9B6E",
"T. c #47C145",
"R. c #5FC77A",
"E. c #60C77B",
"W. c #61C87D",
"Q. c #72C17B",
"!. c #AE8C30",
"~. c #BDA62C",
"^. c #C9B629",
"/. c #C7AE1E",
"(. c #ABE623",
"). c #E5D51E",
"_. c #FBFA1F",
"`. c #D9C934",
"'. c #C7C32D",
"]. c #E7D826",
"[. c #E1CD37",
"{. c #EDD932",
"}. c #D7EA27",
"|. c #DEE836",
" X c #FDF222",
".X c #FCFA23",
"XX c #F6E737",
"oX c #FDF635",
"OX c #EEE92A",
"+X c #988B5A",
"@X c #AF8A51",
"#X c #9B8A66",
"$X c #B89669",
"%X c #B99977",
"&X c #B18C6A",
"*X c #B5A77D",
"=X c #CFAE54",
"-X c #CE8A68",
";X c #C59967",
":X c #CE9D74",
">X c #EB996F",
",X c #C9A365",
"<X c #D5B467",
"1X c #C9A877",
"2X c #D2B277",
"3X c #EEA87F",
"4X c #DFC368",
"5X c #E9CB6E",
"6X c #E8D349",
"7X c #3F57EB",
"8X c #456BFF",
"9X c #5062D9",
"0X c #4C58BA",
"qX c #7BBC87",
"wX c #65C985",
"eX c #7BC685",
"rX c #66D184",
"tX c #67D389",
"yX c #71D78D",
"uX c #68DA91",
"iX c #7180EB",
"pX c #A28685",
"aX c #B1B098",
"sX c #D6B48A",
"dX c #CFB28F",
"fX c #CDB1AB",
"gX c #FDBE9B",
"hX c #8ED393",
"jX c #9EE8A8",
"kX c #A1E4A3",
"lX c #D2C597",
"zX c #E5C69A",
"xX c #F4CB97",
"cX c #EDC38A",
"vX c #CEC6A4",
"bX c #D8CBA7",
"nX c #E6C8A2",
"mX c #FFC7A4",
"MX c #F7DCB4",
"NX c #F5D6AF",
"BX c #FCE3B9",
"VX c #DBDCCF",
"CX c #FEEDC9",
"ZX c #FFF4CC",
"AX c #FFEED6",
"SX c #FFFEED",
"DX c #D8DAEA",
"FX c #A7AECE",
/* pixels */
"                                                                                                                                ",
"                                                                                                                                ",
"                                                                                                                                ",
"                                                                                                                                ",
"                                                                                                                                ",
"                                                                                                                                ",
"                                                                                                                                ",
"                                                                                                                                ",
"                                                                                                                                ",
"                                                        rXR.R.R.E.E.E.E.E.rX                                                    ",
"                                                      tXN.x 2.c 2.2.n.I x N.rX                                                  ",
"                                eXI.I.I.Q.I.I.I.Q.I.wXU.2.i 0.0.1.0.1.0.i 3.H.W.W.E.E.rX                                        ",
"                                ! C C V C V V C T T T T B.8.8.a.s.s.s.s.8.m.3.I I 2.x N.W.                                      ",
"                                C r X.@.O.O.O.O.X.X.X.S y.f.k.c.z.z.c.l.f.r.6.1.0.1.k 3.H.rX                                    ",
"                                T X./.`.,X$X%X;X^.).).'.a.i.k.c.z.z.k.k.d.d.s.s.a.e.8.4.2.N.rX                                  ",
"                                V X.).oX5X5X5X5XoX.XoXOX(.v.z.z.k.k.k.k.k.k.z.k.c.l.f.r.1.2.H.rX                                ",
"                                V X.)._.oX{.XXXX XXX5X4XOX(.v.c.k.k.k.k.k.k.k.z.z.z.l.f.r.4.2.N.rX                              ",
"                                ! #./.OXOX_.XX|.].[.4X5XXX}.b.i.d.k.k.k.k.k.k.l.k.z.d.g.S.C.z 2.H.rX                            ",
"                                  Y.#.$.).oX5X<X@X~.[.XX X}.v.i.k.z.k.k.k.k.z.z.k.d.f.t.D.Z.C.5.2.N.rX                          ",
"                                    ! C ^.[.,X$X@X@X]..X X}.(.c.z.k.k.k.z.l.l.d.d.g.S.Z.A.A.A.C.z 2.H.rX                        ",
"                                    eXU.!.X.B &.&X<XXX.X X XOX(.v.l.k.k.z.d.f.t.t.D.D.A.A.A.A.A.r.4.2.N.rX                      ",
"                                      wXU 5 e *.:X2X[.].OX X X}.b.d.d.d.d.g.S.A.A.A.A.Z.C.C.Z.A.A.r.1.2.H.rX                    ",
"                                      P.g 8 -.1XsX,X@X~.)._. X}.j.m.S.T.t.S.A.A.A.A.A.C.3.6.C.A.A.Z.r.5.3.N.                    ",
"                          K.K.K.P.    K., 8 $XcXcX2X@X@X]. X X}.j.m.A.Z.m.4.7.7.Z.Z.r.5.z z 5.C.Z.A.A.7.l x                     ",
"                        I , , f , E tXwXf 8 $XxXBXNXsX=XXX.X_.}.j.m.A.8.6.k u 6.m.m.2.z z k z 6.C.A.A.4.i n.rX                  ",
"                      G.8 3 G G # f wXwXf 2 -.1XdXdXdX5X6XXX{.'.u.M.7.5.q.A E B.M.6.z l k l l z 4.C.A.r.6.n.H.                  ",
"                    I 0 / <.fXFXG f tXtXf # Z @.9 R fXBX5X<X@X!.C m i 3.+X2XlXaXB.k k l z k k z z 6.C.A.Z.4.5.N.                ",
"                    , 4 ( ,.AXDXU : L.J.Q q H H < ~ lXBXsX,X@X*.B e A V.*XxXBXbXB.u k l d d d t d l 3.m.8.5.d v                 ",
"                    f 3 ( >.NXbXU * f Q #XpX0X9XFXVXCXzX;X@X,X&XO.B +X1XbXMXBXbXB.u k l : & ; ; ; : l 6.6.l : h                 ",
"                    J 3 ( >.mXvXY o o q ;XfX9X8XDXSXZXbX@X#.<X,XB O.;XxXBXBXBX2XA t t d g L g g L g d y t s + L                 ",
"                    J 3 ( >.gXvXY o o 8 ;XfX7X8XDXSXAXdX&.X.].`.Z Z ;XxXBXMX*X+Xm $ X g L.        G.g X + & . 1                 ",
"                    J 3 ( >.mXvXU X f Q @XpX9X9XDXSXCXdX&.Z ).OX#.&.#X1XzX2X+XD = = , E             E 1 g g g E                 ",
"                    J 3 ( >.mXvXb - J.K.Y U pXfXMXCXAXdXR o.).oX<X&XU V @X@Xq + . 1 G.                                          ",
"                    J 3 ( ,.mXvXU f U.P.f 8 =.2XnXNXBXsX&.o./.{.5X;X1 X M V b f f E                                             ",
"                    K 3 / ,.mXvXY X n C e 5 > R 1XxXxX2X@X#.@.!.{.`.D * = Y J.tX                                                ",
"                    f 3 ( ,.NXvXb + B #.*.C % > =.$X$X@X*.B w Z [.`.m * X j J.uX                                                ",
"                    J 3 ( >.mXvXb 1 pXNXNXdXB 3 2 8 9 0 2 ; # n <X,Xq $ y d g E wX                                              ",
"                    J 3 / >.xXdX9 b lXZXMXsX-.+.U < $ $ f g f Y #X:.b - z l X g wXuXwXwXK.                                      ",
"                    J 3 / %.3X*X1 0 bXMX-.*.dXnXfX*Xv l U.I.I.Y.U 9 j z 7.3.: g wXuXI , , E                                     ",
"                    J 3 ` %.>X&X8 0 aXsXZ B lXZXZXnXG.m.hXjXjXQ.j $ l 6.9.q.: < J.Y.q O . f                                     ",
"                    J 3 ` >.>X*X9 ; C &.r +.nXZXCXNXhXQ.hXkXjXhXc u 3.r.T.m.: = K n ] _ @ J                                     ",
"                    J 3 ` %.:X%XY + 5 M M =.dXnXlXlXhXkXhXhXeXP.n.3.7.D.C.A j ; * 3 [ { 7 b                                     ",
"                    K @ ) <.:X%Xb & ; s q.V.R +.A G.hXjXjXeXN.n.7.t.S.F.V S q.2.- 6 [  .{ ' G I                                 ",
"                    L @ 4 O.:X:Xb & . f r.t.S D p 6.U.eXeXU.v p q.w.w.q.N S A.m.a 8 ] %.} [ r 0                                 ",
"                    P & + n 1X1XU * * s 5.f.h.s.a.s.3.2.2.A D e M M M N w.w.A.n.- q -X>X .} { ' 9 I                             ",
"                    g # @ q :.#X9 ; 9 Y A 7.g.x.x.a.6.0.1.z N N N N N S r.S.S.5.- 0 #X&X] [ ..` 4 1                             ",
"                    f O ` ] B , & g #X#Xg a 7.g.c.c.d.s.s.s.h.h.h.h.h.h.D.D.T.q., + 2 0 8 6 _ ` ) e 0 E                         ",
"                      q ] ` 6 = 2 e -X-XR P A 4.8.s.l.l.x.x.c.c.c.c.z.g.t.F.m.c P P f f J L e 7 ) 7 # f                         ",
"                        0 4 7 _ ` | %.,.:X#XY $ % d r.g.z.c.c.c.c.l.f.S.T.w.s g G.wXE.K.wXG.9 O @ @ . ,                         ",
"                          1 e _ { } ..| -X#XY < < h c r.e.s.s.e.s.e.5.M.4.c j W wX            f K g f                           ",
"                            1 4 ^ ` } | e P G.wXwXG.g % : : : s : : : ; $ h G.                                                  ",
"                              < e ) ` ' > I       wXW , < g < < 1 g < < , E                                                     ",
"                                1 O 4 0                                                                                         ",
"                                  f -                                                                                           ",
"                                                                                                                                ",
"                                                                                                                                ",
"                                                                                                                                ",
"                                                                                                                                ",
"                                                                                                                                ",
"                                                                                                                                ",
"                                                                                                                                ",
"                                                                                                                                ",
"                                                                                                                                ",
"                                                                                                                                "
};
