/* XPM */
static char *d3c3b917e3f047c0ac1a9d519c3b7159r0iZtol4UpP5MVrl[] = {
/* columns rows colors chars-per-pixel */
"64 64 148 2 ",
"   c #201F25",
".  c #202225",
"X  c #2B2427",
"o  c #2A2628",
"O  c #272B29",
"+  c #2B2A29",
"@  c #322E2A",
"#  c #3B2F29",
"$  c #2B352B",
"%  c #2D3A2D",
"&  c #35322B",
"*  c #3C332A",
"=  c #333B2C",
"-  c #3E3A2D",
";  c #3D3A31",
":  c #41352B",
">  c #443B2D",
",  c #4C3D2C",
"<  c #513E2C",
"1  c #2C452E",
"2  c #2C492E",
"3  c #3A432F",
"4  c #33492E",
"5  c #2F512F",
"6  c #394330",
"7  c #324A31",
"8  c #3C4A30",
"9  c #2E5230",
"0  c #2F5931",
"q  c #325432",
"w  c #385634",
"e  c #335B34",
"r  c #3B5A35",
"t  c #326333",
"y  c #3C6337",
"u  c #356D35",
"i  c #366538",
"p  c #386738",
"a  c #386F3A",
"s  c #367636",
"d  c #377A37",
"f  c #3C723B",
"g  c #377F38",
"h  c #3C7C3D",
"j  c #44432E",
"k  c #4D402E",
"l  c #53422E",
"z  c #59472E",
"x  c #5B482F",
"c  c #4D4431",
"v  c #4B4A32",
"b  c #554933",
"n  c #5B4B32",
"m  c #584D38",
"M  c #445434",
"N  c #535535",
"B  c #5E563E",
"V  c #614C2F",
"C  c #634D30",
"Z  c #645233",
"A  c #6C5432",
"S  c #655837",
"D  c #6D5935",
"F  c #6D5C39",
"G  c #705733",
"H  c #745B35",
"J  c #785F36",
"K  c #765D38",
"L  c #416538",
"P  c #7B6137",
"I  c #75613B",
"U  c #7C6439",
"Y  c #79683C",
"T  c #7B6B44",
"R  c #80673B",
"E  c #846B3B",
"W  c #886E3C",
"Q  c #87713F",
"!  c #8C733F",
"~  c #91773F",
"^  c #866D41",
"/  c #886F42",
"(  c #8C7343",
")  c #84744C",
"_  c #87784E",
"`  c #907743",
"'  c #947B43",
"]  c #997F43",
"[  c #907748",
"{  c #967D49",
"}  c #378038",
"|  c #398339",
" . c #3B8A3B",
".. c #3E923E",
"X. c #408540",
"o. c #428C41",
"O. c #419441",
"+. c #449C44",
"@. c #46A446",
"#. c #47A847",
"$. c #47A548",
"%. c #48A648",
"&. c #4AAD4A",
"*. c #4BB24B",
"=. c #998046",
"-. c #9C834C",
";. c #9E8550",
":. c #9D8851",
">. c #A48C4E",
",. c #A08751",
"<. c #A48C52",
"1. c #A88F51",
"2. c #AA9154",
"3. c #A8935A",
"4. c #A9945B",
"5. c #AC9458",
"6. c #AC9459",
"7. c #AF975A",
"8. c #B09758",
"9. c #B0975A",
"0. c #B09858",
"q. c #B39A59",
"w. c #B59B59",
"e. c #B1995C",
"r. c #B2995C",
"t. c #B29A5C",
"y. c #B39B5C",
"u. c #B39B5D",
"i. c #B49C5E",
"p. c #B69E5F",
"a. c #B89F5F",
"s. c #B8A05F",
"d. c #BAA15E",
"f. c #BBA25F",
"g. c #BDA35F",
"h. c #B9A161",
"j. c #BAA261",
"k. c #BBA362",
"l. c #BCA361",
"z. c #BDA561",
"x. c #BCA462",
"c. c #BDA562",
"v. c #BEA663",
"b. c #BEA664",
"n. c #C0A763",
"m. c #C0A764",
"M. c #C1AA66",
"N. c #C2AA66",
/* pixels */
"&.&.&.&.*.&.&.&.&.&.*.*.*.*.+.X.e $ .     . . . . . . . . . .   . . . . . . . .   .       . % e h +.*.*.*.&.&.&.&.&.&.&.&.&.&.&.",
"&.&.&.&.&.&.&.&.&.&.&.*.&.&.+.h e % + o o O O o o O O o + + + O O + + + o O o + X O O o O + % e h +.*.*.*.&.&.&.&.&.&.&.&.&.&.&.",
"&.&.&.&.&.&.&.&.*.&.&.&.%.+.o.f r 3 = & ; ; ; ; ; ; ; ; ; ; ; ; ; ; ; ; ; ; ; ; ; ; ; = * & 3 r f o.+.$.&.&.&.&.&.&.&.&.&.&.&.&.",
"&.&.&.&.&.&.&.*.&.&.%.+.o.X.f L M v c c m m B B B B B B B B B B B B B B B B B B B B B m b c v M L f X.o.+.$.&.*.*.&.&.&.&.&.&.&.",
"&.&.&.&.&.&.&.*.*.&.$.o.h i r M N S F T T T ) ) _ _ _ _ _ _ ) _ _ ) _ _ _ _ _ _ _ ) T T I F B N M r i h o.$.*.*.*.&.&.&.&.&.&.&.",
"&.&.&.&.&.&.&.&.*.&.+.X.y 7 6 v S Y ( ] :.3.6.3.4.6.4.4.3.4.3.3.4.4.4.4.4.4.4.4.3.3.3.:.=.( Y S v 6 7 i h +.&.*.*.&.&.*.&.&.&.&.",
"&.&.*.&.&.&.&.%.$.+.o.f r ; > m K ( ,.<.u.h.k.k.i.e.6.u.6.u.u.u.r.u.7.7.7.u.u.i.d.v.d.0.3.-.( I m , 6 w f o.+.$.$.&.&.&.&.&.&.&.",
"&.&.&.&.*.*.&.+.o.X.f y M v m F ( =.2.q.k.b.l.k.u.3.,.,.,.,.,.,.,.;.<.,.,.;.3.q.d.v.v.g.0.2.-.^ F m c M y f X.O.$.%.*.&.*.&.&.&.",
"&.&.&.*.*.*.%.o.h i w M N B K ^ { 1.8.k.n.m.k.8.-.{ ^ ( / / / ^ / ( / / / ( [ <.6.l.m.m.g.q.1.{ ^ K S N M r i h o.$.&.*.*.&.&.&.",
"&.&.&.*.&.&.+.| e 7 6 c S Y ( -.1.u.k.l.n.k.u.<.[ E K K K K K K K K K K K K E ( <.u.l.b.l.p.q.1.-.( Y S v = 7 i X.+.&.&.&.&.&.&.",
"&.&.&.%.%.+.o.f q = > m F ( -.1.q.p.k.k.k.u.<.{ ( K H A K K K K K K K G G G J ( { 3.u.k.k.k.k.q.1.-.) K b ; = w a o.+.$.&.%.&.&.",
"*.&.%.+.O.X.f r 8 ; c Z ^ =.1.q.h.h.k.u.6.<.-.[ E U K P U E ^ ^ ^ ^ ^ R P J P R ( -.<.6.u.k.d.a.q.<.{ ^ Z , > 8 r f h +.$.%.&.*.",
"*.&.+.O.h i w 8 > c n K [ <.q.p.v.v.p.3.:.[ / E U E E ( [ -.-.:.;.;.-.[ ( E E R ^ / [ ;.6.p.k.k.k.0.<.( K n < > 8 q i h o.$.%.*.",
"*.%.+.X.p 7 = - , n D E -.3.s.v.n.k.q.<.[ R P P E W ' -.<.6.u.u.r.u.2.<.-.' ! R U K R ( <.u.b.m.v.a.6.-.^ D n , ; ; 7 i h $.%.*.",
"*.&.+.h e % @ # , C K ( :.q.v.v.n.b.6.;.^ K G J E ' -.1.w.s.j.v.b.b.p.8.1.-.' E J H K / ;.6.k.M.M.k.q.:./ K C , ; + % e h +.&.*.",
"*.&.+.h q $ @ # < C J ( <.u.v.M.M.b.u.;.^ H G P ( -.1.8.j.j.v.M.b.m.k.a.8.2.-.! K G H ^ ;.u.b.M.M.v.u.<.( K C < # @ & w h +.*.*.",
"*.*.+.h w % @ # < V H ` ,.u.l.M.M.m.r.;.^ G H U [ 2.q.a.d.v.M.M.b.v.j.d.d.q.2.[ R A H ^ ;.u.v.M.M.v.i.<.` K C < # X $ e h +.$.*.",
"*.&.+.h w % @ # < V H / ,.u.m.M.M.l.r.;.^ K K ^ { 6.p.v.v.g.v.j.v.v.v.v.v.a.5.{ ^ K K ^ ;.i.j.M.M.j.u.;./ K C < : @ % e h +.&.*.",
"*.&.+.h e % @ # < V K / ,.u.m.M.M.l.u.,.^ K H ^ -.6.p.g.g.j.v.v.v.j.d.v.d.p.5.-.R K K ^ ;.u.j.M.m.b.u.,./ K V < : @ = e h +.&.*.",
"*.&.+.h w % & # , C K ( ,.u.l.M.m.m.r.{ ^ H H U ' <.q.d.j.j.b.M.M.M.v.k.d.q.1.' R G H ^ ;.6.b.M.M.b.u.,./ H V , # X % e h +.&.*.",
"*.&.+.h e % @ ; < V H ( :.q.v.M.m.b.i.{ ^ H G K ! -.1.8.i.b.l.b.M.j.b.s.0.1.,.! K G H ^ ;.6.j.M.M.m.w.<.( H V < & @ % w h +.&.*.",
"*.&.+.h e % @ # < V H ( >.q.v.v.N.b.u.;.^ H H K E ' -.1.8.h.b.b.v.b.k.6.1.-.~ E K H K / -.u.x.M.m.b.8.,./ K V < # & % e h +.*.*.",
"*.&.+.h e % @ # , V K ( -.6.d.g.m.b.u.<.[ R J J E ( ' -.<.2.u.q.q.u.2.<.-.` ( E U K R [ <.q.j.v.v.a.6.,./ H C , : @ % e h +.&.*.",
"*.&.+.h e % & # , C H W { <.0.d.k.h.u.6.;.[ / ^ R R E ( [ -.;.,.;.:.{ { ( Q U U W ^ [ -.5.p.v.k.p.8.<.{ W K C < # @ % r h +.&.*.",
"*.&.+.h e % & # < C F R ~ -.2.0.u.k.h.u.3.<.-.( E U K U R ^ ^ ^ / ^ E Y J K J E ( -.:.3.p.k.d.p.8.>.-.` ^ H C < : @ % e h +.&.*.",
"*.&.+.h e % @ ; < C A R Q ~ -.1.r.h.k.k.k.u.3.{ / K G G G K K K K K H H G H J / =.3.i.k.h.k.s.0.1.,.' W J A V < * @ % e h +.&.*.",
"*.&.+.h w % @ # < , Z K E ~ =.>.2.w.h.k.l.k.u.<.[ U K H K H K K K K K K K K ^ [ <.i.j.v.j.s.q.7.>.] ` R H A z , # @ $ e h +.&.*.",
"*.&.+.h w % o @ : , C A U ! ` >.1.1.8.h.v.k.k.2.:.[ / / ^ ^ ^ ^ ^ ^ ^ ^ ^ ^ [ ;.6.d.v.g.k.0.2.<.,.' / U A z , : @ @ $ w h +.&.*.",
"*.&.+.h w & + o @ : , m U ( ' =.,.>.1.8.w.l.k.p.5.<.;.:.-.;.;.;.;.;.,.-.;.;.<.6.s.s.v.s.8.1.>.-.] =.! U m , ; @ o o % w h +.&.*.",
"*.&.$.h e % + o o @ ; m F W ' =.] ] ,.>.8.g.v.d.p.p.u.8.u.u.q.q.u.8.u.8.8.u.i.u.s.g.s.0.1.-.] ] ~ ~ Q I m ; @ X o + % e h +.&.*.",
"*.&.$.h i 7 % O o + ; c S E ( ! ` ~ ' -.2.q.p.d.d.a.p.p.u.a.a.d.i.h.i.h.h.i.k.k.d.d.q.2.-.] ~ ~ ~ ~ Y D c & O O + % 7 p X.+.&.*.",
"*.&.$.o.h i q % + O & > Z U E E E E ! ' -.2.8.8.u.6.w.q.u.6.8.q.q.8.w.8.8.r.8.8.6.q.2.:.~ W E E W E U Z c @ + % % q y h o.$.&.*.",
"&.&.%.+.O.X.f q 1 $ @ > V G P P P P R ! ' -.>.>.>.>.>.>.>.1.1.>.<.<.>.1.>.>.1.<.1.>.-.=.Q U P P P P H x > & $ 1 e a X.O.+.%.&.&.",
"&.&.&.&.@.+.o.a 5 % @ : z V H A G G H Y ! ` =.=.=.=.] ] ] ] ] ] =.] =.] =.=.=.=.=.] ~ ! U J G G G G C z : @ $ 9 a o.+.%.&.&.&.&.",
"&.&.&.*.&.&.+.h w % @ # k z V V V V Z G Y Q ~ ~ ~ ~ ! ~ ~ ~ ! ! ` ~ ! ~ ! ~ ~ ' ~ ~ W Y G A V V V V x , # @ % w h +.&.*.*.&.&.&.",
"&.&.&.*.*.*.@.h e % @ @ : > k , l l x Z P U E W W W W E E W E W E E E E E E E E W W R G Z x k k k k , : @ @ % e h +.*.*.&.&.*.&.",
"*.&.&.*.*.*.@.h e % + + # # * * * * j x C J P P P P P P P P P P P P P P P P P P P P H C z j : * * * * @ + + % e | +.*.*.*.*.&.*.",
"&.&.&.*.*.&.+.h e % + X + @ @ @ @ @ # , x C G G G G G G A A G G G G G G G G G G G G A z > * @ + @ @ @ + X + % e h +.&.*.*.&.&.%.",
"@.%.%.&.&.@.O.h q = + X + @ @ + + + @ * k z V V C V V V V V V V x V V V V V V V V V z k * @ + + @ @ @ + + + = w L @.@.&.%.%.%.%.",
"+.+.+.@.@.+.o.f q $ + @ @ * * @ + O + @ * k k k l k k k k k k k k k k < k k l l k k , * @ + + @ @ * * @ @ + $ 5 f O.+.@.@.+.+.+.",
"....O...+... .p 5 % + # : k , > @ + O + @ # * * : : * * * * * * * * * * - * * - * * * @ + + + @ > , , : & @ % 2 u | ............",
" . . . . . .d t 2 $ @ * k z z < : @ + + + @ @ @ @ @ @ @ @ @ @ @ @ @ @ @ @ @ @ @ @ @ @ + + + @ * , z x < * @ $ 2 t h  . . . . . .",
" . . . . .} d t 2 $ & : l V V z k * @ @ @ = = @ @ @ @ @ = = # * * = * & @ @ @ @ & & & @ @ @ & , z V V l * @ $ 2 t d |  . . . . .",
".... . . . .d 0 1 $ & : l V A V l > > > j k k k > > > > j k k v k k k j > > - j j v k k > > > l V Z V z : @ $ 2 e d |  ... .....",
"+.+.+... . .s e 1 $ & : x V G V x x z x Z S S Z N z l N N S D D F F D n n z z x n F S Z n z z V V A V x > @ $ 1 t s  .....+.+.+.",
"#.#.@..... .s t 1 $ @ * < V V A V V Z D U Y E U G S C G P Y Q Q Q Q Y I D Z Z D U Y E U D Z V C A V V < * @ $ 2 0 s  ...+.@.#.@.",
"*.&.#.@... .s t 1 $ @ : < x V V Z G G P Q ~ Q E P G G J W ~ ~ ] =.~ ~ E P G G P Q ! ! E U G A V V V z , * @ $ 2 t s  ...@.#.&.&.",
"*.&.&.@... .s t 1 @ X @ : < l z V A K P ! ~ ~ Q P G G P W ~ ] ] =.~ ~ Q P G G U ! ! ~ ! U H A V V l < : @ X $ 1 t s  ...@.#.&.*.",
"*.&.&.@.....s t 1 $ + X # * > l z V G E W ~ ~ W P G G P W ~ ] ] ] ] ~ W P G G P W ~ ~ W E G V z < > * # + + $ 1 t s  .+.@.#.*.*.",
"&.&.@.@... .s t 2 $ + + + @ # > z V G E W ~ ~ E P G G P Y ~ ] ] ] ~ ! E P G G P E ~ ~ W R G V z > * @ + X + $ 1 t s  ...@.@.#.*.",
"#.#.@.....| g t 5 % $ O O + @ * < V G J E W W E J G G P W ~ ~ ] ] ~ ~ E P G G J E W W E J G V l * @ X + O $ % 5 t d  ...+.#.#.#.",
"@.+.+.....| s u t 5 1 $ O O @ : < V G J P E E P G G G P Y ~ ] ] ] ] ~ W P G G G P E E R J G V < * @ O O % 1 5 t u d |  .....+.+.",
"...... . .} g s u u 0 2 $ O + : < V G J J P J J G G G P W ~ ] ] ] ] ~ W P G G G G J J J G G V l : @ O $ 2 0 t s d d |  . . .....",
" . . .}  .} } g } s u 0 2 $ @ : < V A A G G A A A A G J E ~ ~ ] ] ~ ~ E P G A A G G G G A A V l * @ $ 1 5 s s } } | | |  . . . .",
" . . . . . . . . .} s t 4 1 = - l z V V V V V V V V V G J Y W Q Q Q P P G V V V V V V V V V x , - = 1 4 t s }  . . . . . . . . .",
"................ . .} u t 5 4 4 j < < l < < < , < < z V V A D J F D A Z V z < < < < < < < l k , 3 4 5 t s g  . . ...............",
"+.+.+.+.+.+.+... . .} d s u 0 8 4 : # # : : # : : : : , , j l j v v k , > : : : # # : # : : : 4 8 0 u u d }  .....+.+.@.+.+.+.+.",
"#.#.#.#.#.#.+.+... .} | d s u t 2 $ # @ @ @ @ @ @ @ @ @ = # = $ # = = & @ @ @ @ @ @ @ @ @ @ = 4 t u s d } }  ...+.@.#.#.#.@.@.@.",
"#.#.#.*.*.#.#.@..... . .| } s u 0 1 $ $ $ $ $ $ $ $ $ $ $ $ $ $ $ $ $ $ $ $ $ $ $ $ $ $ $ $ 1 5 u s |  . . .....@.#.#.#.*.#.&.&.",
"*.*.&.&.*.*.#.@.+..... . . .} u 0 5 2 2 2 2 2 2 2 2 2 2 2 2 2 2 2 2 2 2 2 2 2 2 2 2 2 2 2 2 5 t u g  . . .....+.@.#.*.*.*.*.&.*.",
"&.*.&.&.&.&.&.#.#.@.@.....| } d u t t t t t t t t t t t t 0 t 0 t t t t t t t t t t t t t t t u s }  .....+.+.#.#.&.&.&.#.*.&.&.",
"&.&.&.&.&.&.&.&.#.#.@..... .} } } } s s s s s } d s s s s } } s s s s } d s s s s d s s d d d d } |  ...+.@.#.#.&.&.&.&.#.*.&.&.",
"&.&.&.&.*.&.*.*.#.#.#.+... .| } } } } } } } } } } } } } } } } } } } } } } } } | } } } } } } | | } |  ...+.#.&.&.&.&.&.&.&.&.&.&.",
"*.&.&.&.#.*.#.#.*.*.#.@... .| |  . . . . . . . . . . . . . . . . . . . . . . . . . . . . . .|  .| }  ...@.#.&.*.&.&.&.&.&.&.*.&."
};
