/* XPM */
static char *result[] = {
/* columns rows colors chars-per-pixel */
"64 64 217 2 ",
"   c #1B1D1C",
".  c #2A1E1D",
"X  c #292929",
"o  c #362525",
"O  c #362929",
"+  c #3B2A29",
"@  c #353D3E",
"#  c #4B1E1D",
"$  c #541F1E",
"%  c #681D1D",
"&  c #52241E",
"*  c #702B1E",
"=  c #4C2322",
"-  c #442B29",
";  c #4C2929",
":  c #572727",
">  c #5C2222",
",  c #4C3029",
"<  c #48383A",
"1  c #57393B",
"2  c #6A2322",
"3  c #692726",
"4  c #632C2C",
"5  c #782423",
"6  c #742B29",
"7  c #7A2B2A",
"8  c #663725",
"9  c #663233",
"0  c #78563B",
"q  c #383F42",
"w  c #433E40",
"e  c #5E3E40",
"r  c #703F43",
"t  c #354143",
"y  c #394143",
"u  c #4E4043",
"i  c #554D52",
"p  c #45555A",
"a  c #565053",
"s  c #68494D",
"d  c #795643",
"f  c #7D685A",
"g  c #525F65",
"h  c #4C666D",
"j  c #4C696F",
"k  c #536066",
"l  c #56676D",
"z  c #4D6B72",
"x  c #506C72",
"c  c #5E6D74",
"v  c #5B787F",
"b  c #7C756B",
"n  c #636C74",
"m  c #756970",
"M  c #A31F1E",
"N  c #B41F20",
"B  c #852424",
"V  c #8A2424",
"C  c #832629",
"Z  c #842929",
"A  c #892828",
"S  c #8C2A29",
"D  c #9B2424",
"F  c #942927",
"G  c #9D2728",
"H  c #9B2929",
"J  c #8A3827",
"K  c #993629",
"L  c #863131",
"P  c #9B3C3B",
"I  c #A32224",
"U  c #AC2423",
"Y  c #AB2729",
"T  c #A12A29",
"R  c #A62828",
"E  c #AC2929",
"W  c #B22425",
"Q  c #B92724",
"!  c #B42629",
"~  c #BC2729",
"^  c #B32929",
"/  c #BC2929",
"(  c #A83928",
")  c #B3352B",
"_  c #A43233",
"`  c #A6373A",
"'  c #C22926",
"]  c #C32729",
"[  c #C32A29",
"{  c #CA2D29",
"}  c #D02F29",
"|  c #C53626",
" . c #CD3A26",
".. c #CA3129",
"X. c #D33829",
"o. c #D43E29",
"O. c #994626",
"+. c #834B39",
"@. c #9B4737",
"#. c #835637",
"$. c #945336",
"%. c #B64628",
"&. c #A74439",
"*. c #B04931",
"=. c #C94927",
"-. c #D64827",
";. c #D54329",
":. c #DC4C29",
">. c #C85328",
",. c #D35529",
"<. c #DD5229",
"1. c #C45232",
"2. c #E04F29",
"3. c #E05729",
"4. c #E35C29",
"5. c #E66125",
"6. c #E86427",
"7. c #E76329",
"8. c #E86529",
"9. c #E76935",
"0. c #E86B39",
"q. c #903F44",
"w. c #9A3E40",
"e. c #A93E41",
"r. c #984546",
"t. c #8E5047",
"y. c #975458",
"u. c #A14646",
"i. c #A9534C",
"p. c #A95953",
"a. c #8F674C",
"s. c #9C7253",
"d. c #B36658",
"f. c #B17151",
"g. c #985F65",
"h. c #896C6D",
"j. c #996166",
"k. c #97666B",
"l. c #85796D",
"z. c #96786A",
"x. c #996B72",
"c. c #A7726B",
"v. c #BA7979",
"b. c #E87245",
"n. c #E97750",
"m. c #E97B56",
"M. c #EA7C59",
"N. c #AD825B",
"B. c #88877E",
"V. c #A38166",
"C. c #AD896E",
"Z. c #C49572",
"A. c #EB876D",
"S. c #EC8E7A",
"D. c #577981",
"F. c #5A7A82",
"G. c #947781",
"H. c #947981",
"J. c #678891",
"K. c #6A8993",
"L. c #6A949E",
"P. c #6C97A2",
"I. c #6D99A4",
"U. c #759AA5",
"Y. c #74A1AD",
"T. c #7EACB9",
"R. c #7EB1BF",
"E. c #7FB3C0",
"W. c #838680",
"Q. c #978A94",
"!. c #998A92",
"~. c #899C9C",
"^. c #869BA7",
"/. c #899DA1",
"(. c #9399A3",
"). c #9798A3",
"_. c #8BA7AA",
"`. c #96A1AD",
"'. c #98ABB8",
"]. c #8FB6BE",
"[. c #95B4BD",
"{. c #CE9984",
"}. c #EC9485",
"|. c #ED9C94",
" X c #EE9F9A",
".X c #CFA88C",
"XX c #DCBB9D",
"oX c #CFB4AF",
"OX c #EEA4A4",
"+X c #EFA9AC",
"@X c #F0ADB4",
"#X c #DFCAB6",
"$X c #86B6C2",
"%X c #96B6C3",
"&X c None",
"*X c None",
"=X c None",
"-X c None",
";X c None",
":X c None",
">X c None",
",X c None",
"<X c #97C8D7",
"1X c #94CDDC",
"2X c #98CEDE",
"3X c #96D0DF",
"4X c #95CFE0",
"5X c #96D3E4",
"6X c #98D5E6",
"7X c None",
"8X c None",
"9X c None",
"0X c None",
"qX c None",
"wX c None",
"eX c None",
"rX c #E8E4E5",
/* pixels */
"9X9X9X9X8X9X9X9X9X9X9X9X8X9X9X9X9X9X9X7X7X9X9X9X0X0XqXqXqXqXqXqXqXqX0XqXqXqXqX0X9X9X9X9X9X7X9X9X9X9X8X9X9X9X9X9X8X9X9X9X9X9X8X9X",
"9X9X9X9X9X9X9X9X9X8X9X9X9X9X9X9X9X9X9X9X9X9X9X9X9X9X7X7X7X7X7X7X7X7X7X9X7X7X7X7X7X9X9X9X9X9X9X9X9X9X9X9X9X9X9X9X9X9X8X9X9X9X9X9X",
"9X9X9X8X9X9X9X9X9X9X9X9X9X9X9X8X9X9X9X9X9X9X9X3X:X>X;X=X=X=X*X=X*X=X=X=X=X=X:X:X3X9X9X9X9X9X9X7X8X9X9X9X9X9X9X9X9X8X9X9X9X9X9X9X",
"9X9X9X9X9X9X8X9X9X9X8X9X9X9X8X8X9X9X9X9X9X9X5X>X]._._.~.~.~._./././././.~._._.].>X6X9X0X9X9X9X9X9X8X8X9X9X9X6X9X9X9X9X9X9X9X9X8X",
"8X9X8X9X9X9X9X9X9X9X9X9X9X9X8X8X7X9X9X0X0X9X1X].~.B.b b b b b b b b b b b b W.~.[.3X0X0X0X9X9X7X6X9X8X9X9X9X9X9X9X8X9X9X9X9X9X9X",
"9X9X9X9X9X9X9X8X9X9X9X9X9X9X9X9X9X9X9X9X0X7X>X_.W.f 0 0 0 0 d d 0 d d 0 0 0 f B._.=X9X0X9X9X9X9X9X9X9X9X9X9X9X8X9X9X9X9X8X9X8X9X",
"9X8X9X9X9X9X9X9X9X6X9X9X9X9X9X9X9X9X7X7X1X>X].~.B.f 0 O.0 a.0 d #.a.t.#.#.0 f l.~.[.>X3X5X6X9X9X9X9X9X9X9X9X9X9X9X9X9X9X8X9X9X9X",
"9X9X9X9X8X9X9X9X9X9X9X9X9X9X9X9X9X9X3X>X]._.~.B.s.s.a.s.s.C.C.C.C.V.V.s.s.s.s.s.B.~._.].;X5X9X9X9X9X9X9X8X9X9X9X9X9X9X9X9X9X9X9X",
"9X9X9X9X9X9X9X8X9X9X9X9X9X9X9X9X0X9X1X].~.W.l.V.N.C.C.Z..XoXoXoXoXoXoX.XZ.Z.C.N.V.b W.U.].1X6X9X9X9X9X7X9X7X9X9X8X9X9X9X9X9X6X9X",
"9X9X9X9X9X9X9X9X9X9X9X9X9X9X9X9X9X7X>X_.W.f a.a.N.Z..XXX#XeXrXrXrXrXeX#XXXS.Z.N.V.0 f B._.>X9X0X0X9X9X9X9X9X9X9X9X9X9X9X9X9X9X9X",
"9X9X9X9X8X9X9X9X9X9X6X6X9X9X9X0X0X9X=X_.b d +.$.N.Z..XXX#XeXrXrXrXeXeX#XXX.XZ.f.$.0 0 b /.,X9X0X0X7X9X9X9X9X7X7X9X9X9X6X9X6X9X9X",
"9X9X9X9X9X9X9X9X9X9X9X9X8X8X8X0XqX9X>X^.h.0 J @.f.f.C.{..XoX@XoXoXoXoXoXZ.Z.N.i.O.O.0 b /.:X9XqX0X9X9X9X9X0X0X0X0X9X0X0X0X0X0X0X",
"9X9X9X9X9X9X9X9X9X9X9X9X8X9X9X0XqX0X<X(.h.t.J J *.i.d.d.c.v.v.v.H.v.v.c.d.d.i.&.J J +.h.(.,X9XqX0X9X9X9X9X0XqX0X0X0XqX9X0X0X0X0X",
"9X9X9X9X9X9X9X8X9X9X9X9X9X9X9X9X0X9X&X(.h.r.F F K K P &.e.r.u.u.i.u.u.w.` ` P K F K r.k.(.&X8X0X0X7X7X7X9X9X7X7X7X7X9X6X6X6X8X9X",
"9X9X9X9X9X8X8X9X9X9X9X9X9X9X9X8X2X,X'.!.g.P H D D H D D H H H H T G H G H H H D D H w.g.Q.'.,X5X6X6X9X5X<X,X,X&X=X-X=X=X=X*X=X*X",
"9X9X6X9X9X9X9X8X9X9X9X9X9X9X8X,X&X).!.x.y._ R I I I I I I I I M I M I I I I I I I R ` y.x.Q.`.&X<X5X5X<X%X`.).).).).(.~.U.U.U.P.",
"9X9X9X9X9X9X6X9X7X9X9X0X0X9X4X%X).G.g.r.e._ ! W W W U W U N U W N U U U U W W W ! ^ ) ` y.j.H.).&X2X2X%X).H.x.k.k.h.h.m m c z z ",
"9X9X9X9X9X9X9X9X9X9X9X0X0X7X<X(.G.y.r._ ) / ] ] ] ~ ] ~ ~ ~ ~ / / ~ ] / ] ~ ' / ~ / / E _ w.y.H.'.,X<X`.H.y.r.P w.q.q.r e q q q ",
"9X9X6X9X9X9X9X9X9X9X7X6X4X<X'.Q.j.w.T U ^ [ { ....| ....{ ......{ ....{ { ......{ ..| Q U T P k.Q.%X%XQ.k.w.H D D F C 3 ; O X X ",
"9X9X9X6X6X9X9X9X0X9X6X<X&X(.Q.x.r._ Y Q |  .o.o.o.o.o.o.o.o.o.o.o.o.o.o.o.o.o.o.o.o. .' Q U _ y.x.Q.Q.x.i._ I M M D B % # .     ",
"9X9X9X9X9X9X9X9X0X0X4X&X(.H.k.r.` E Q '  .-.:.<.<.:.:.:.:.:.<.<.:.:.:.:.:.:.:.:.:.:.-. .| W E e.p.k.g.y.e.) W U I D B 2 # . .   ",
"9X9X9X9X9X9X9X0X0X7X,X(.G.y.@._ E / |  .-.<.4.4.4.4.<.7.4.4.4.<.4.4.<.4.4.4.4.4.4.4.<.-. .[ / ` ` w.w.` _ ~ Q ! U H C 3 ; + X X ",
"8X9X9X9X9X8X6X6X4X,X'.Q.j.w.T U ^ {  .;.<.4.5.6.7.8.5.5.5.7.8.5.5.8.7.7.7.7.7.7.7.7.4.<.;. ...^ R T G R ! / ! E G S 7 9 1 w q t ",
"8X9X9X9X9X0X6X,X&X`.Q.x.u._ U W |  .;.:.3.4.8.8.7.7.7.8.8.5.5.5.8.5.8.8.6.6.8.8.8.8.4.4.:.;. .| ! U U U ! ~ E D B 5 4 e i k x z ",
"9X9X9X9X0X0X4X&X(.G.k.u.e.^ ^ [  .-.<.<.<.8.8.8.8.8.7.7.5.5.5.5.5.5.5.8.5.8.8.8.7.7.7.4.3.:.-. .| Q W W ! Y D B 2 > , a n J.P.U.",
"9X8X9X9X0X0X&X`.G.y.q._ E ^ .. .;.<.4.7.7.7.7.8.7.7.7.8.7.5.8.8.5.8.5.8.8.5.7.5.7.6.7.7.4.4.<.-. .[ / ! Y G A 6 > - w l K.E.;X:X",
"9X9X9X8X2X&X%XQ.g.w.T U N ] ..o.:.4.7.7.7.7.7.5.7.7.7.8.0.0.0.0.0.0.0.9.9.8.7.7.7.7.7.8.8.7.4.:.o.../ ! G A 7 4 < < p D.Y.;X7X0X",
"qX9X8X<X%X`.!.x.u._ U N Q ' ..o.<.4.7.8.7.7.7.7.5.7.9.0.b.n.m.m.m.m.n.b.0.8.7.5.5.7.7.8.8.8.4.2.o.../ I V 7 9 e i g D.I.E.4X0XwX",
"qXqX4X&X).G.g.u.e.^ W ] ] ] ..o.:.4.7.8.8.7.5.5.5.7.9.b.m.A.S.S.S.S.A.M.b.9.5.4.4.6.6.8.8.7.4.2.o...^ D 5 : 1 a c J.Y.E.:X5X0XqX",
"qX8X<X`.H.y.w._ _ / ] ~ ] ] ..o.:.4.7.8.8.7.7.5.5.7.0.n.A.}.|. X X|.}.A.n.0.7.5.6.7.7.7.8.7.3.:.o...! V 2 ; w g J.T.;X4X7X7X9X9X",
"<X,X'.Q.k.w.T I Y Y ! ~ N ] { o.:.7.7.8.7.7.7.5.5.7.0.m.S.|.OX+X+XOX|.S.m.0.7.5.4.6.7.8.8.7.4.2.o...! V > + t z P.*X7X0X0X9X7X9X",
").).!.c.p._ I M G F F T W ] ..o.:.<.7.7.8.7.7.5.5.5.0.m.S. X+X@X@X+X XS.M.0.5.5.6.7.7.7.7.7.4.2.o...U B > + t z I.;X0XqX0X9X9X7X",
"x.k.g.p.u.^ U D C 6 6 C G / ..o.:.4.7.8.7.7.7.5.5.7.0.m.S. X+X@X@X+X XS.M.0.7.5.4.6.6.7.8.7.4.2.X...^ V > + q z I.;X0X0X0X9X9X7X",
"r.w.w.` ) ^ U F 2 ; ; 6 S ^ ..o.:.4.7.8.7.7.7.5.4.7.0.m.S.|.OX+X+XOX|.S.m.0.5.5.6.6.7.8.8.7.4.2.o.{ U V > - q z Y.$X9X0X0X7X9X9X",
"7 C A H Y E G 7 : + + : A ! ..o.2.4.7.8.7.8.7.5.5.6.0.n.A.}.|. X X|.}.A.n.0.7.5.4.6.7.7.8.7.4.:.o...^ B > + q j I.:X9X0X0X9X9X9X",
"2 2 2 5 C C 7 : - X + : C E ..o.2.4.7.8.8.7.5.4.5.6.9.b.M.A.S.S.S.S.A.M.b.9.7.5.6.7.7.8.8.7.4.2.o...U V > + q j I.$X9X0X0X9X9X9X",
"= = ; : : : : - O X O > C ^ { o.2.4.7.8.7.7.7.5.5.7.9.9.b.n.n.M.M.m.n.b.0.9.7.5.7.7.7.7.8.4.4.2.o...W V > + q j I.;X8X0X9X9X9X9X",
"o + o O + + + O X X + 4 A ^ { ;.:.4.7.7.7.7.7.7.5.7.8.8.9.0.0.0.0.9.0.9.8.7.7.7.7.7.7.7.8.9.3.:.o...Y V > + q j I.$X8X0X0X9X7X9X",
"O + + + + - - + O + ; 3 S ^ { o.:.3.4.4.7.7.7.7.7.7.7.7.7.7.7.7.7.7.8.7.7.7.7.5.7.7.7.4.4.4.3.:.X.{ ^ B > + q j I.;X7X0X9X9X9X9X",
"; : , : : 8 0 9 : ; 4 5 H / { } X.-.<.3.4.7.8.8.7.7.7.7.5.5.5.5.5.5.4.5.5.7.7.7.8.7.7.4.3.3.;.o.X.} ^ V > - q j I.$X7X0X0X9X9X9X",
"3 6 6 J O.O.O.O.J 8 7 A T ~ { { X.X.;.:.3.7.7.8.8.7.7.7.4.5.5.5.5.5.5.5.7.7.7.7.8.7.4.4.:.;. .X.} { ! V > + q j I.;X7X0X0X9X9X9X",
"7 Z S O.*.>.>.*.K S F H Y ~ [ { { {  .;.:.4.7.8.7.7.7.5.7.5.5.7.5.5.7.7.7.7.7.7.7.7.4.:.;.X...{ { ] Y V > + q z I.;X7X0X0X8X8X9X",
"C C S ( %.>.>.%.) ( T R Y / ] ] ] [ { o.-.<.3.7.7.7.7.7.7.7.7.7.7.7.7.7.7.7.7.7.7.4.<.-.X...{ ] ] ] Y V 2 ; w x P.$X0X0X0X9X9X8X",
"2 2 6 Z J O.%.O.( E E E ^ ! ^ ~ ~ ] { ..;.-.<.<.4.7.7.8.8.7.8.7.7.7.7.8.8.7.7.4.3.:.-.;...{ ] ~ ~ ! I V 2 : e n U.:X0XqX0X9X9X9X",
"= = & : 8 8 * O.T ^ / / ! Y Y ! ~ ] { {  .X.;.:.3.4.9.8.8.7.8.8.8.8.7.7.8.8.4.3.:.;.o. .{ ] ] ~ ! E H V 5 5 r m ^.:X0XqX0X9X9X9X",
"+ O O O O - , * F E ^ ^ E G T Y ! ~ ] { { { X.;.<.4.7.7.8.7.7.7.7.7.7.7.7.7.4.<.;. .{ { { ] ~ ! E G H F V S q.h.(.&X7X0X9X9X7X9X",
"y t y t t y u 9 L T Y R H C S H E ! ~ ] ] { {  .-.<.7.<.<.7.<.7.4.4.4.4.4.4.<.-.X.{ ] ] ] ~ / ^ R T H D I K r.x.Q.'.<X4X6X7X9X9X",
"x j j z z j l s r Z B 5 5 2 2 C H E ~ ~ ~ ] { X.;.-.:.:.<.<.:.:.:.:.:.:.<.:.-.;.X.{ ] ] ~ ~ ^ ^ E R E E ) %.*.p.c.Q.(.%X>X6X0XqX",
"I.I.P.I.I.I.J.n s 1 > $ # = > 2 A G Y ~ ] ] { } } X.o.;.o.o.o.;.o.o.o.o.;.o.o.} } { ] ~ ! Y Y E ^ ^ / |  .=.>.*.p.k.z.(.&X4X0XqX",
"*X*X*X:X*X*XT.K.k w - o o + - : 6 S T Y Q ~ [ { { ..{ ......{ { ............{ { { [ ] ^ Y T T R U / [ =.-.,.,.>.*.u.y.H.`.<X9X0X",
"8X8X7X9X0X7X*XY.v p y @ @ q < 1 9 7 C H T U ! ^ / / / ] / ] / / / / / ] / / ] Q ~ W Y H F A S S D E ^ | =.,.-.=.%.( &.k.Q.'.&X4X",
"0X0X0XwXqXqX1X].P.v j j j h h a e 4 2 5 5 V V D R ! ! ^ ~ ! ! ! ! ! ! ! ~ ! Y R D V B 5 5 2 2 5 5 B F ( %.=.=.=.| %.*.p.c.!.).`.",
"0X0X0X0X0X0X5X;XE.Y.I.I.I.I.J.c i , = # $ > 2 5 V I Y Y Y R Y Y Y Y R Y Y Y G V 5 2 > = & = = = : > 2 Z K %.%.=.=.,.1.*.d.j.x.x.",
"9X8X9X9X9X9X8X3X:X;X*X;X;X*XT.J.h < + o o + ; : 7 S H H H H F H H H H H H H S 7 4 ; + + O O + O O + ; : 6 S ( %.>.,.,.1.u.u.r.w.",
"9X8X9X9X9X9X8X9X9X7X9X9X0X6X;XY.v p y @ q q w 1 9 7 Z C B C Z Z Z C C C A B 7 9 1 w q y t y y t y y < 1 4 7 J ( %.>.,.%.( S B C ",
"9X9X8X9X6X9X9X9X9X0X0XqXqX0X1X$XL.D.z h j h k a e 4 2 2 2 2 2 2 2 2 2 2 2 2 9 1 i g j z z j z z j j h i 1 4 6 Z J O.O.J * * % % ",
"9X9X9X8X8X9X9X9X9X0X9XqXqX9X6X;XR.Y.I.I.I.P.J.c i , = # # = = = = = = # # = < i c J.I.I.I.I.P.I.I.L.J.c a , & & 8 * 8 8 & & # # ",
"9X9X8X8X9X9X9X8X9X9X9X9X9X9X6X5X:X>X*X;X;X*XT.K.h u O o o O O + O O + o o O < g K.T.*X:X;X*X*X:X:X*XR.J.l w + o o + + - - + O o ",
"9X9X9X9X9X9X9X9X9X9X9X9X9X7X7X9X9X8X9X9X9X9X;XY.v p y @ @ y y y t y y @ @ y p D.Y.;X9X0X0X9X9X9X9X7X;XY.v p y @ @ y y y y y t y ",
"8X9X9X9X8X9X9X9X9X9X7X9X9X9X9X9X9X0XqXqXqXqX1XE.P.D.z j j z x x z x z z j x D.P.E.3X9XqXqX0X0X0XqX0X1X].P.F.x j j j j x x x x x ",
"9X9X9X9X9X9X9X9X9X9X9X8X7X9X9X9X9X9X0XqXqX9X5X:XE.Y.I.I.I.I.I.U.I.U.I.I.I.U.Y.E.:X5X9X0X0X0X9X0XqX0X5X:XR.Y.I.I.I.I.I.I.I.I.I.I.",
"9X9X9X8X9X9X8X9X9X9X7X8X9X9X9X9X9X9X9X9X9X9X6X5X:X;X*X;X*X*X*X*X*X*X*X*X*X*X;X:X3X5X9X9X9X9X9X9X9X9X7X1X1X;X*X*X*X*X*X=X*X*X*X*X",
"9X8X9X9X8X9X9X9X9X9X9X9X9X9X8X9X9X9X9X9X9X9X9X9X9X8X6X9X6X8X8X8X8X8X8X8X8X6X9X9X9X9X7X9X9X9X9X9X9X9X7X9X8X8X8X8X3X9X6X8X8X6X9X8X",
"9X9X9X9X9X9X9X9X8X9X9X9X8X9X9X9X9X9X6X9X8X9X9X9X9XqXqXqXwXqXqXqXwXqXqXqXwXqXqX0X9X9X9X7X9X9X9X7X9X9X9X9X0XqXqXwXqXqXqXqXwXqXqXwX"
};
