/* XPM */
static char *d116cb20b076471dded9c2564a731a49Yj8FQeh8qZTQtqXE[] = {
/* columns rows colors chars-per-pixel */
"16 16 11 1 ",
"  c gray16",
". c #734229",
"X c #942929",
"o c #C62929",
"O c #E76329",
"+ c #A57B42",
"@ c #DEB584",
"# c #EFA5A5",
"$ c #FFE7BD",
"% c #4AAD4A",
"& c #F8F8F8",
/* pixels */
"%%%%%XXXXXX%%%%%",
"%%%%XoOOOOoX%%%%",
"%%%XOOO##OOOXXXX",
"%%XoOOO##OOOoXo ",
"%XoOO&&OO&&OOX %",
"Xo O& &&&& &O %%",
"   O&  &&  &O %%",
"XO O&&&&&&&&O %%",
" XOoO&&OO&&Oo %%",
"% XoooOOOOooXX%%",
"%%   XXooXX oOX%",
"%%%%  @&&@  XoOX",
"%%%%% $..$ %    ",
"%%%%% +@@+ %%%%%",
"%%%%%%    %%%%%%",
"%%%%%%%%%%%%%%%%"
};
