/* XPM */
static char *result[] = {
/* columns rows colors chars-per-pixel */
"64 64 230 2 ",
"   c #252121",
".  c #282727",
"X  c #392A27",
"o  c #3A322B",
"O  c #373A3B",
"+  c #4C1F1E",
"@  c #54271C",
"#  c #60311E",
"$  c #6C1F20",
"%  c #4B2725",
"&  c #442A29",
"*  c #5A2626",
"=  c #463228",
"-  c #533222",
";  c #4F3133",
":  c #443B38",
">  c #573839",
",  c #692525",
"<  c #642C2D",
"1  c #6C2929",
"2  c #782725",
"3  c #7A2A2A",
"4  c #643626",
"5  c #6C372A",
"6  c #544530",
"7  c #714F36",
"8  c #343D41",
"9  c #433E40",
"0  c #394143",
"q  c #3F4C51",
"w  c #474746",
"e  c #5A4143",
"r  c #534B4F",
"t  c #504D50",
"y  c #455559",
"u  c #575556",
"i  c #6D5443",
"p  c #73644F",
"a  c #4F5B62",
"s  c #4B666D",
"d  c #526066",
"f  c #576B6E",
"g  c #4E6A72",
"h  c #586B72",
"j  c #57757D",
"k  c #686868",
"l  c #72706C",
"z  c #76797A",
"x  c #AA1E1F",
"c  c #AB291E",
"v  c #B4371E",
"b  c #892626",
"n  c #8C2A29",
"m  c #9B2525",
"M  c #9B2927",
"N  c #922C29",
"B  c #9C2B29",
"V  c #8C3424",
"C  c #9C332B",
"Z  c #843832",
"A  c #973C3C",
"S  c #A52323",
"D  c #A82827",
"F  c #AC292A",
"G  c #B42424",
"H  c #BB2825",
"J  c #B42A29",
"K  c #BB2929",
"L  c #A93628",
"P  c #B63625",
"I  c #A53437",
"U  c #B23534",
"Y  c #C62425",
"T  c #C32729",
"R  c #C42A29",
"E  c #CA2C29",
"W  c #C73827",
"Q  c #CB3229",
"!  c #D43A25",
"~  c #D33D29",
"^  c #C93C3A",
"/  c #90482C",
"(  c #BD4527",
")  c #AD4837",
"_  c #916C3A",
"`  c #DD461F",
"'  c #E4581D",
"]  c #C84725",
"[  c #D74927",
"{  c #D44329",
"}  c #DC4C29",
"|  c #D15429",
" . c #DB5228",
".. c #DD5B28",
"X. c #D15231",
"o. c #E25626",
"O. c #E65D23",
"+. c #E35C29",
"@. c #E66126",
"#. c #E96325",
"$. c #E76329",
"%. c #E86529",
"&. c #E9682F",
"*. c #E76934",
"=. c #E76A35",
"-. c #E86C39",
";. c #E8713C",
":. c #9A3E40",
">. c #B73D45",
",. c #954143",
"<. c #9D474B",
"1. c #9D4D52",
"2. c #96565A",
"3. c #A85048",
"4. c #8C6C4F",
"5. c #977A5A",
"6. c #B16D59",
"7. c #985E65",
"8. c #97646A",
"9. c #92666E",
"0. c #946B72",
"q. c #9A6B73",
"w. c #907773",
"e. c #B26E69",
"r. c #CC4444",
"t. c #CD524A",
"y. c #D76C4C",
"u. c #E56D47",
"i. c #E97443",
"p. c #E97848",
"a. c #E97A53",
"s. c #EA7D59",
"d. c #D37270",
"f. c #E37B6A",
"g. c #9B805F",
"h. c #AF8955",
"j. c #90847A",
"k. c #B2906F",
"l. c #EA844B",
"z. c #EB8659",
"x. c #CE8D72",
"c. c #E9886C",
"v. c #ED936A",
"b. c #EB8D79",
"n. c #EB9A78",
"m. c #F19E79",
"M. c #C8A779",
"N. c #D4A87A",
"B. c #DBB57D",
"V. c #F1A37D",
"C. c #597981",
"Z. c #957981",
"A. c #698992",
"S. c #638D98",
"D. c #728B92",
"F. c #6B96A1",
"G. c #6D99A5",
"H. c #729BA7",
"J. c #74A1AD",
"K. c #7DADBA",
"L. c #7EB1BF",
"P. c #7FB5C2",
"I. c #868788",
"U. c #9B8D89",
"Y. c #998992",
"T. c #879C9D",
"R. c #949599",
"E. c #B09D90",
"W. c #879AA5",
"Q. c #9597A2",
"!. c #9599A5",
"~. c #96A1AD",
"^. c #91ADB7",
"/. c #A5A7A8",
"(. c #B3ACA9",
"). c #B5B8B9",
"_. c #CE9B92",
"`. c #EC9485",
"'. c #EC9E97",
"]. c #CEAB93",
"[. c #F2A988",
"{. c #ECB393",
"}. c #D2B1A7",
"|. c #EBA9AA",
" X c #ECB3AE",
".X c #E9C795",
"XX c #F0CE9D",
"oX c #DFD0B3",
"OX c #F5C3AB",
"+X c #EED1AF",
"@X c #F6CAB6",
"#X c #83B6C3",
"$X c #97B4C1",
"%X c #89C0CF",
"&X c #96C1CF",
"*X c #8BC4D3",
"=X c #8ECAD9",
"-X c #96C5D3",
";X c #98C3D2",
":X c None",
">X c None",
",X c None",
"<X c None",
"1X c None",
"2X c None",
"3X c None",
"4X c None",
"5X c None",
"6X c None",
"7X c #9CE4F8",
"8X c #A1E6F8",
"9X c #C8CBCC",
"0X c #D1D0CF",
"qX c #DDDDDD",
"wX c #E9D3C8",
"eX c #F7D9CB",
"rX c #F2DBD8",
"tX c #F2E7D2",
"yX c #F5E5DD",
"uX c #F9EDD8",
"iX c #DDDEE3",
"pX c #ECDDE2",
"aX c #DDE3E5",
"sX c #E8E9E9",
"dX c #F6E9E5",
"fX c #F9F1EC",
"gX c #EEF1F2",
"hX c #F5F5F4",
"jX c #F8F6F6",
"kX c #FDFEFD",
/* pixels */
"4X4X4X4X4X3X4X4X4X4X4X3X4X4X4X4X4X4X4X4X3X4X4X2X3X4X4X4X5X7X7X6X7X5X7X5X6X6X6X7X5X5X5X5X4X5X2X2X2X3X4X4X3X5X3X4X4X4X4X4X3X4X4X4X",
"4X4X4X4X4X4X4X4X4X3X4X4X4X4X4X3X4X4X4X4X4X4X4X2X4X4X2X4X4X5X2X2X2X2X3X3X2X2X2X2X4X5X5X2X2X2X2X2X5X4X4X4X3X3X3X4X4X4X4X4X4X4X3X4X",
"4X4X4X4X4X4X4X4X4X4X3X4X4X4X3X4X4X4X4X4X4X3X4X4X4X4X3X1X:X$X$X;X#X;X;X;X$X;X#X;X$X-X$X:X1X2X5X5X3X2X4X4X3X5X3X3X4X3X4X4X4X3X4X4X",
"4X4X4X3X3X4X4X4X4X4X4X4X4X4X4X3X2X4X4X4X4X5X5X5X5X4X1X-X$X^.~.Q.!.!.!.!.~.!.!.!.Q.~.^.$X$X5X5X4X5X5X5X3X3X3X5X2X3X4X4X4X4X4X4X4X",
"4X4X4X4X4X3X3X4X4X4X4X4X4X4X3X3X3X4X4X4X5X5X5X6X7X5X,X$XQ.Z.0.9.9.0.0.0.q.0.0.0.9.0.Z.W.$X4X5X5X5X5X4X5X5X2X5X2X3X4X4X4X4X4X3X4X",
"4X3X4X4X4X4X4X4X4X4X3X4X4X4X4X4X4X3X3X4X2X2X2X4X5X2X-X~.Z.2.:.A A :.,.,.,.,.:.:.:.:.2.Z.~.$X4X5X5X2X2X5X2X2X3X3X4X4X4X4X4X4X4X4X",
"4X4X4X4X4X4X3X4X4X4X4X4X4X4X4X4X2X4X2X,X:X-X;X;X-X$X$XY.8.A M m N B C C C C C M m B :.7.Y.$X$X>X-X$X:X,X1X2X2X2X4X4X4X3X4X4X4X4X",
"4X4X4X3X4X4X4X4X3X4X4X3X3X4X4X4X5X5X1X-X$X~.Q.W.!.Q.Y.q.1.I S c c P v P v P P D x S I 1.q.Y.!.!.!.!.~.$X$X5X5X5X4X4X4X3X3X3X4X3X",
"4X4X2X4X4X2X4X4X4X4X4X4X3X4X4X5X5X5X,X$XQ.Z.0.9.9.9.7.1.I F H H v ] ] ] ] ] ] v H G F I 1.7.8.9.9.0.Z.Q.$X2X5X5X5X4X4X4X3X3X4X4X",
"4X4X4X4X4X4X4X4X4X4X4X4X4X3X4X4X5X4X;X~.Z.2.:.A A ,.A I U J W Q [  ......... .[ ! W J U :./ :.:.:.:.1.Z.~.$X2X5X5X4X4X4X4X4X4X4X",
"4X4X4X4X4X4X4X2X3X4X4X4X4X4X4X1X1X;X^.Y.7.A m m B C L U K W Q [  .+.@.%.%.#.+. .{ W Q J P D C D n M :.7.Y.$X-X1X1X4X4X4X4X4X4X4X",
"4X4X4X2X4X4X2X4X3X4X4X4X5X5X1X;X$X!.Z.8.<.I S G c v P P W W { } +.%.#.#.%.#.O.o.[ { { W P P v c c S I <.q.Y.!.$X$X3X4X4X4X3X4X4X",
"4X4X4X4X5X2X2X2X4X4X4X5X6X5X,X^.Q.q.7.<.I F H H P ] ] [ [ }  .+.+.$.$.$.#.#.O.o.o.` } [ ] ] ] v H G F I <.7.Z.R.$X,X2X4X4X4X4X4X",
"4X4X4X4X2X4X4X4X4X2X2X5X4X4X;X/.w.2.A I F J W W [  .......+.+.+.+.$.$.$.$.$.$.$.+.O.+.+...+. .{ W R K U I :.2.Z.!.;X3X5X5X4X3X4X",
"2X4X4X4X2X4X2X4X4X4X4X<X<X#X$XR.q.2.3.I P Q Q { } +.@.@.$.@.$.$.@.$.%.&.&.=.-.-.-.-.=.&.&.#.+. .[ Q R J S M :.0.!.;X3X5X5X4X4X3X",
"4X4X4X4X4X5X5X5X5X5X4X#XP.H.D.I.Z.e.e.t.r.{ ! ` ' O.@.#.#.%.$.@.#.$.&.-.u.a.a.s.s.s.a.i.;.&.#.o.} { Q v c N :.9.!.-X5X5X5X4X4X4X",
"<X4X4X5X4X5X5X5X8X5X>XL.S.j h C.E._._.b.y. .} ` ' ' O.#.#.#.$.#.#.#.&.i.s.f.b.`.b.b.c.s.i.&.$.o.o.o.{ W c N A 9.!.-X4X7X6X2X4X2X",
"4X4X4X4X4X4X4X4X4X3X*XG.j q w z /.0XwX|.c.u.+.O.#.%.%.%.$.$.$.#.#.#.-.a.b.`.'.'.'.'.`.c.a.=.%.@.O.o.| ] P B ,.9.Q.&X4X5X5X2X4X4X",
"4X4X2X4X,X:X$X,X-X*X^.D.h y t I.).iXdX@X[.z.p.i.i.i.i.;.&.&.@.O.o.#.-.a.b.'.|.|.|.|.'.b.s.-.%.@.@.@...] P L :.7.Y.^.;X1X3X2X2X4X",
"5X5X<X#X^.W.W.W.T.T.T.D.z z I./.9XsXfXrXOX[.m.m.m.m.v.z.i.&.O.O.O.#.-.s.b.'.|.|. X|.'.b.s.-.@.@.#.#...[ W L I 1.q.Y.!.$X;X1X4X4X",
"6X5X3X^.T.j.l l 4.z w.I.U./.).0XaXgXfXdXeX@XOX@X@XOX{.V.z.-.#.' ' #.u.a.b.'.|. X X|.'.`.s.-.%.@.#.#.+.| W P U I 1.8.Z.!.^.,X4X5X",
"6X3X:X^.I.p 7 7 7 i 4.j.(.9XqXgXhXjXjXhXdXdXyXyXdXdXeX|.v.;.#.O.O.#.-.a.b.'.|.|.|.|.'.b.a.-.%.@.#.@...} ~ E J F I :.2.Z.~.-X4X6X",
":X&X^.T.I.4._ / / 7 4.k.}.oXdXfXfXjXjXkXjXjXhXgXsXsX0X Xn.z.;.&.%.%.-.a.c.`.'.'.'.'.`.f.a.*.%.@.#.$...} ~ E H G x M ,.0.!.&X2X6X",
"~.T.R.R.U.k.w.5.5.6.k.x.].OX@XeXdXfXjXkXkXkXhXaX0X).(.E.].n.v.z.i.&.&.u.s.f.b.b.b.b.c.s.u.*.$.@.#.@.+.} ~ Q T G x m A 9.!.&X2X6X",
"l j.j.j.E.].}.].].M.B.M.n.V.[. XeXdXjXkXkXkXsX9X~.I.I.U.].}.{.m.s.-.&.&.u.a.s.s.s.s.a.u.-.%.%.@.%.$.+.} ~ E T G x m :.0.W.$X4X7X",
"7 p p k.(.0XaXtXwXoX.XB.v.l.z.[.@XyXjXkXkXhXaX).j.u u z /.qXeX Xv.i.%.#.&.&.-.-.-.-.*.&.&.%.$.$.$.%.+.} ~ T K G x N :.0.!.;X2X7X",
"4 5 i g.(.qXuXsXuXtX+X[.z.-.i.b. XyXhXhXgXaX9XR.k O 9 l /.aXdX@Xm.i.%.O.#.+.#.+.$.$.$.$.$.$.$.$.%.$.+.} ~ E T G S m :.0.Q.-X2X6X",
"@ - i 4.k.).oXtXuXuXeX{.s.*.&.f. XyXgXaX9X(.Y.k 6 . O h /.aXdX@X[.i.%.O.O.O.O.#.@.O.@.@.$.$.$.%.%.$.+.} ~ Q K G S N :.0.!.-X2X6X",
"X = 6 i 5.k.].oXtXuXeX{.f.X.t.f. XeXsX9X/.D.d w . . : l /.iXdX@XV.i.#.O.O.O.#.O.@.@.@.O.$.@.%.%.%.%.+.} ~ Q T G S B :.0.!.&X2X6X",
". . o 6 4.g.M.].oXtXeX|.f.r.r.d. XrXaX).I.r O . . . r C./.qXrX@Xm.i.$.O.O.#.%.%.$.$.@.$.$.$.$.%.%.$.+.} ~ E K G S n :.0.!.;X2X6X",
". . o 6 7 _ h.].oXtXtX}.d.^ ^ d.|.rXsX).U.u 0 o 8 w u I.).iXdX@Xm.p.$.O.O.%.%.+.@.$.$.$.$.$.$.+.+.+. .} ~ E T x m n :.9.!.&X2X6X",
"  . o 6 7 _ h.M.oXtXrX|.d.>.>.d.}.pXsX9X~.j.l k k z I./.0XgXdXOXm.p.%.O.O.%.+.%.$.$.$.%.$.$.$.+.+.} } ~ Q T K S b 3 i l W.%X2X6X",
"  . o 6 7 _ h.M.XXtX@X].d.>.>.d.}.pXgXaX9X)././././.).9XaXgXdX@Xm.p.$.O.O.@.$.$.$.$.$.$.$.$.$.o.} { ~ Q E E K m 2 , 9 l W.=X4X7X",
".   o 6 7 _ h.M..X+X+X`.6.3.:.e.}.pXhXhXsXqXqXqXqXiXiXsXhXfXyXOXm.i.#.O.O.$.$.$.$.$.$.&.%.$.+.} { Q Q E E T J b $ % 9 h H.#X1X7X",
"  . o 6 7 h.h.B..X+XXX_.6.I <.e._.wXuXfXfXhXjXjXjXjXhXfXfXdXeX{.v.;.%.O.O.@.$.$.$.$.$.$.+.+.o.[ ~ E E T T K S b * & 8 g J.#X1X8X",
"  . 6 6 7 h.M.B..XXX{.x.6.I ) 3.d.'.@XeXdXjXkXkXkXkXjXdXeX@X{.m.z.-.%.#.@.%.%.%.$.$.$.+.+.} [ ~ Q E T T T J S 2 + X 8 s J.#X1X8X",
"    . w 4.k.N.B..X.X{.x.6.I L ) y.c.{.OXeXfXkXkXkXkXfXeX X[.v.z.i.&.%.#.%.%.%.%.&.$.+.o.} { ~ Q E E T K K F m 2 + X 8 g G.#X5X8X",
"  . O p g.k.B.B..XB.N.h.3.A C ) ) u.z.[.@XrXjXkXkXjXdX@X[.z.;.=.&.%.$.%.$.@.$.%.$.$.+. .{ Q E E E R T J F m n 1 + X 8 g H.#X5X8X",
"8 0 w p g.k.M.M.M.M.k.6.3.A C L ( | u.c.'.wXrXsXsXpXwX'.f.u.+.o.+.+.+.o.+.+.+.+.+.+. .[ ~ E T T T T J F m n 3 3 ; 9 y C.K.#X2X5X",
"g f f f l 5.5.g.g.5.5.3./ C M D v ( X.y._.'.|. X X|.'.b.f.+.` ` ` } } } } } } } } } } { Q E T K K J F m b 3 < 9 r d C.F.#X=X4X5X",
"J.G.D.D.p p p 6 i e 7 7 N C B S L L U ) y.d.d.d.d.d.d.y.r.~ ~ ! ! ! { ~ ^ ~ ~ ~ ~ ~ ~ Q E E T K G F m b 1 * > r h D.J.#X=X>X4X5X",
"=X%XP.D.j w 6 O : : : > 1 n M B M M L U >.r.r.r.r.r.r.^ ^ Q E T Q E E Q E T E Q ! E Q E E E T J F B b , * & 9 d A.#X#X,X2X3X3X4X",
"5X<X*XJ.C.y 8 8 8 8 9 9 < Z b b V N m D J T E E Y T T K T F J J H H H K J J J K K T E E E T K J F B b $ + X 8 g F.*X5X5X5X4X4X4X",
"8X5X>XP.F.g s s d h u r e < , 2 b b m D G Y Y Y Y Y T x S M n m D F F D m n b m F T T T T T T K F B b * + X 8 s G.#X5X8X5X4X4X3X",
"6X5X<X*XP.J.F.F.G.F.C.h r ; @ $ 2 b m D G Y Y Y Y Y G m 3 , , 3 b B m b 3 < 1 3 m K T E E T K H F m b * + . 8 s G.=X4X8X5X4X4X4X",
"4X4X2X>X=X*X%X%X=X#X#XA.d 9 & * , b m D J K Y Y E T G N 1 & & * 3 n b 3 * & % 1 m F T E E T T J D M b , + X 8 g G.$X4X5X4X4X4X4X",
"4X2X2X2X2X2X2X5X5X3X#XH.C.y 9 > < 3 b m D K T E Q Q J N 1 % & * , 3 3 , * & & 1 N J E Q E T K F S n 3 < ; 9 y C.J.*X4X5X4X4X4X4X",
"2X4X4X4X5X5X5X6X8X5X2X#XF.C.d r 9 < 2 b m D K Q Q ~ W U n 1 * < < , , < * < 1 n I Q ~ Q E K F m b 2 1 9 r d C.F.P.=X1X5X4X4X4X4X",
"4X4X4X4X4X5X5X5X6X5X1X:XP.J.A.f r ; * $ b m L W { [ { ( L N b 1 < * * * 1 3 N L ( X.[ ] W L m b $ * ; r h A.J.#X*X>X3X5X4X4X4X4X",
"2X4X4X4X4X3X3X4X4X1X3X1X>X%XK.A.d 9 & * $ b D ( ] |  .[ ] K B 3 * & & < 3 D K W {  . .| P D b 2 * & 9 a A.K.*X,X2X2X3X3X3X4X4X4X",
"4X4X4X4X4X4X4X4X4X4X4X4X5X2X*XJ.j y 9 ; < 3 N L ( |  . .~ Q v V * & X * n J ! ! }  .| ( L V 3 < ; 9 y C.H.*X3X5X5X3X3X3X4X4X3X4X",
"4X4X4X4X4X4X4X3X4X4X4X5X6X5X>XP.F.C.d r > < 2 V ) ( X.} ` [ W C < X o 4 C W [ [ } | ( L V 3 < > r a C.F.#X,X5X6X4X3X5X3X3X3X4X4X",
"4X4X4X4X4X4X4X3X4X4X4X4X5X4X1X:X#XJ.A.h r ; @ 2 V L ( ] } } ] / 5 = o 5 / ] '  .{ ( L V 2 * ; t h A.K.P.*X2X5X5X5X4X4X4X4X3X4X4X",
"4X4X3X4X4X4X3X3X4X4X4X4X4X4X<X<X>X*XK.A.d 9 & * 2 V L ( [  .../ 5 o & 4 / | ' ] ( L n 2 * & : d A.K.#X1X2X2X3X3X3X4X4X3X3X4X4X4X",
"4X4X4X4X4X4X4X4X4X4X4X4X4X3X2X5X4X4X*XJ.C.y 9 ; * 3 N L ( | ( / 4 o o 4 / | | ( L n 3 < ; 8 y C.H.#X5X5X5X3X2X3X4X4X3X4X4X4X4X4X",
"4X3X4X4X3X4X4X4X3X4X3X2X4X4X4X5X6X4X>XP.F.C.d r > < , V V / / 4 - X X - 5 V / / 3 1 < > t d C.F.#X>X5X5X5X4X4X3X3X3X4X4X4X4X4X3X",
"4X4X4X4X4X4X4X3X4X4X4X3X4X4X4X4X5X4X3X*X#XJ.A.h r ; % @ # 4 # - X   . X - # 4 # * % ; r h A.J.P.=X1X4X6X4X4X4X3X3X3X4X4X4X4X4X4X",
"4X4X4X3X4X4X4X4X4X4X3X3X3X4X4X4X4X4X3X2X>X*XK.A.d 9 X X X = o o X X . o o = = X X X : d A.^.*X>X1X3X4X4X4X4X4X3X3X4X4X3X4X4X4X4X",
"1X4X4X4X3X4X4X4X4X3X4X4X4X4X4X4X4X4X4X4X4X2X*XH.C.y 0 O O 0 0 0 0 0 0 0 0 0 0 O O 0 y C.H.*X2X4X4X4X3X4X4X4X4X4X4X4X4X4X4X4X4X4X",
"4X4X4X4X4X4X4X4X4X4X4X4X4X4X3X4X4X4X4X5X6X5X>X#XF.C.f g s g g g g g g g g g g s g g C.F.P.>X4X7X5X4X4X3X4X4X4X4X4X4X4X4X4X3X4X4X",
"4X4X4X4X4X4X4X4X4X4X3X4X4X4X3X3X3X4X4X4X5X4X2X*X#XJ.H.F.G.G.G.G.H.G.G.H.G.G.G.G.G.H.J.P.*X3X4X6X4X4X4X4X4X3X4X4X4X4X3X4X4X3X4X4X",
"4X4X4X4X4X4X3X4X4X4X4X4X4X4X3X4X3X4X4X4X4X4X2X,X=X*X*X#X%X&X%X%X%X%X%X%X%X%X%X%X*X#X*X:X,X1X4X4X4X4X4X3X3X3X4X4X4X4X4X4X4X4X4X4X",
"4X4X4X4X4X4X4X4X4X3X4X4X3X4X4X4X4X4X4X4X4X4X4X4X3X3X4X3X1X1X4X1X3X3X3X3X3X3X2X2X3X3X4X3X4X2X4X4X4X4X4X4X4X4X4X4X4X3X4X4X4X4X4X3X",
"4X3X4X4X3X4X4X4X4X4X4X4X4X4X4X4X4X4X3X4X3X4X4X4X5X5X8X8X6X6X8X6X6X6X6X6X8X6X8X6X8X6X6X5X5X4X4X3X3X3X4X4X4X4X3X4X4X4X4X3X4X4X4X4X"
};
