/* XPM */
static char *result[] = {
/* columns rows colors chars-per-pixel */
"64 64 243 2 ",
"   c #26201E",
".  c #1C2324",
"X  c #242526",
"o  c #2A2A2A",
"O  c #3A2624",
"+  c #36292A",
"@  c #3B2A2A",
"#  c #39332B",
"$  c #383A3A",
"%  c #5A1D1D",
"&  c #55261B",
"*  c #6D2B1D",
"=  c #4B2222",
"-  c #472927",
";  c #582625",
":  c #48332A",
">  c #433B39",
",  c #573736",
"<  c #672726",
"1  c #6A2423",
"2  c #772726",
"3  c #6C352B",
"4  c #663437",
"5  c #554430",
"6  c #6B4C35",
"7  c #755638",
"8  c #303B40",
"9  c #483E41",
"0  c #354143",
"q  c #394043",
"w  c #3F4C51",
"e  c #474646",
"r  c #504E52",
"t  c #575656",
"y  c #6B5148",
"u  c #73644F",
"i  c #555F65",
"p  c #4B656C",
"a  c #4D696F",
"s  c #566369",
"d  c #4D6B72",
"f  c #556C72",
"g  c #56747C",
"h  c #676767",
"j  c #656C72",
"k  c #767370",
"l  c #8C371C",
"z  c #AB291E",
"x  c #852625",
"c  c #83292A",
"v  c #8C2929",
"b  c #982725",
"n  c #932A29",
"m  c #9B2A29",
"M  c #8A332E",
"N  c #9D3527",
"B  c #953C3E",
"V  c #A62423",
"C  c #A82826",
"Z  c #A92729",
"A  c #A12A2A",
"S  c #AC2A2A",
"D  c #B42625",
"F  c #BB2925",
"G  c #B42629",
"H  c #B52C28",
"J  c #BD2A29",
"K  c #AA3327",
"L  c #B63624",
"P  c #A53537",
"I  c #B03534",
"U  c #CC341F",
"Y  c #D1361D",
"T  c #C52826",
"R  c #C42B29",
"E  c #C92D29",
"W  c #C83527",
"Q  c #C33B24",
"!  c #CB3329",
"~  c #CD3B29",
"^  c #D33925",
"/  c #D33D29",
"(  c #CC3A36",
")  c #934C34",
"_  c #B34834",
"`  c #916C3A",
"'  c #DA451C",
"]  c #E14E1A",
"[  c #E5591E",
"{  c #C84726",
"}  c #D74726",
"|  c #D44A26",
" . c #D54229",
".. c #DB4C29",
"X. c #D45429",
"o. c #DC5328",
"O. c #DD5B28",
"+. c #CA4E32",
"@. c #DC5734",
"#. c #E04B29",
"$. c #E25627",
"%. c #E65D23",
"&. c #E35C29",
"*. c #E66126",
"=. c #E96325",
"-. c #E76329",
";. c #E86529",
":. c #E9682F",
">. c #E76935",
",. c #E76A35",
"<. c #E86C39",
"1. c #E9713C",
"2. c #983E41",
"3. c #A63F44",
"4. c #894E47",
"5. c #944143",
"6. c #9E4749",
"7. c #9C4C52",
"8. c #985559",
"9. c #B2584B",
"0. c #907353",
"q. c #AA6C56",
"w. c #985E65",
"e. c #95656B",
"r. c #936B72",
"t. c #9A6C74",
"y. c #907371",
"u. c #A8706C",
"i. c #CD4543",
"p. c #D2574A",
"a. c #D56A53",
"s. c #E46C42",
"d. c #E97543",
"f. c #EA7848",
"g. c #E36A53",
"h. c #E97954",
"j. c #EA7D59",
"k. c #D7706C",
"l. c #D97576",
"z. c #9D805F",
"x. c #AF8955",
"c. c #8D837A",
"v. c #B39270",
"b. c #D1815A",
"n. c #EB8658",
"m. c #CE906F",
"M. c #EB8A6B",
"N. c #EE936C",
"B. c #EA8C79",
"V. c #EB9978",
"C. c #F19E78",
"Z. c #C8A779",
"A. c #D5AD7A",
"S. c #E8A376",
"D. c #F2A17B",
"F. c #597981",
"G. c #817A80",
"H. c #957981",
"J. c #B07E84",
"K. c #6B8993",
"L. c #618D98",
"P. c #728D95",
"I. c #6797A1",
"U. c #6C96A2",
"Y. c #6D99A4",
"T. c #739CA8",
"R. c #74A1AD",
"E. c #7CADBA",
"W. c #7EB1BE",
"Q. c #7DB5C2",
"!. c #858788",
"~. c #978B8B",
"^. c #978892",
"/. c #9A8A92",
"(. c #879B9D",
"). c #94959A",
"_. c #A99592",
"`. c #AE9F9E",
"'. c #8C9BA4",
"]. c #9599A5",
"[. c #9699A5",
"{. c #96A1AD",
"}. c #9AA0AC",
"|. c #8EADB6",
" X c #98ADB9",
".X c #A5A7A8",
"XX c #B3ADAA",
"oX c #B5B7B9",
"OX c #CA9C99",
"+X c #EB9685",
"@X c #EC9E97",
"#X c #CAAD93",
"$X c #EDB08F",
"%X c #EFB59A",
"&X c #D0B2A4",
"*X c #EDA8AA",
"=X c #ECB1AE",
"-X c #E8C695",
";X c #F0CE9D",
":X c #DFD0B3",
">X c #F4C4AC",
",X c #F7CAB5",
"<X c #EDD3B0",
"1X c #86B9C7",
"2X c #97B5C2",
"3X c #89C0CF",
"4X c #96C1CF",
"5X c #98C0CE",
"6X c #8AC4D3",
"7X c #8DCAD9",
"8X c #96C4D3",
"9X c #98C4D2",
"0X c #93CEDD",
"qX c None",
"wX c None",
"eX c None",
"rX c None",
"tX c None",
"yX c None",
"uX c None",
"iX c None",
"pX c None",
"aX c None",
"sX c None",
"dX c #C7CBCC",
"fX c #D2CECE",
"gX c #DDDDDD",
"hX c #E9D4C8",
"jX c #F5D9CA",
"kX c #F4DCD6",
"lX c #F1E8D4",
"zX c #F5E4DC",
"xX c #F9EDD8",
"cX c #DDDDE3",
"vX c #DDE3E5",
"bX c #E8E9E9",
"nX c #F6E9E4",
"mX c #F9F1ED",
"MX c #ECEFF1",
"NX c #EEF1F2",
"BX c #F6F5F4",
"VX c #F8F7F7",
"CX c #FDFEFD",
/* pixels */
"yXyXyXyXyXyXyXyXyXyXyXrXyXyXyXyXyXrXyXyXyXyXyXyXyXyXeXyXrXrXiXiXiXuXpXpXpXpXpXpXpXpXpXpXpXpXpXuXyXyXyXrXrXyXyXyXyXyXyXyXyXyXyXyX",
"yXyXyXyXyXyXrXyXrXyXyXyXyXyXyXyXyXyXyXyXyXrXyXyXyXyXyXyXrXrXrXrXrXrXtXiXtXtXtXtXyXeXtXtXtXtXyXrXrXrXyXyXyXyXyXyXyXyXyXyXyXyXyXyX",
"yXyXyXrXyXrXyXrXyXyXyXyXyXyXyXyXyXyXyXyXeXyXyXyXyXyXyXyXiXrXeXeXqX9X9X2X8X2X1X9X5X4X9X1X1X9X9XqXqXeXyXyXrXyXyXrXyXyXyXeXeXyXyXrX",
"yXyXyXyXyXyXyXyXyXyXrXyXyXyXyXrXyXyXrXrXyXyXyXyXyXyXiXiXuXuXeX9X2X{.[.].[.[.[.[.[.[.[.].[.[.{.2X8XwXuXpXiXuXiXyXyXyXyXtXyXrXyXyX",
"rXyXyXyXyXyXyXyXyXyXyXyXyXyXyXyXyXyXrXrXrXrXrXiXiXiXuXuXpXuXqX2X].H.r.e.r.r.r.r.r.r.r.r.r.t.H.).2XeXuXpXpXuXpXuXyXyXyXyXyXrXyXyX",
"yXyXrXyXyXyXyXyXyXyXrXyXrXyXyXyXyXyXyXyXiXrXrXrXrXrXrXiXiXrX9X{.y.8.5.B 2.2.5.5.5.5.B B B 5.8.H.{.9XtXpXuXrXrXrXrXrXyXyXyXyXyXyX",
"yXyXyXyXrXyXyXrXyXyXyXyXyXyXrXrXyXyXyXrXrXrXyXeXqX9X9X8X8X2X2X^.e.5.m m m N m N N N A m b m 2.w./. X2X8X8X4X9XqXwXeXyXyXyXyXyXeX",
"yXrXyXyXyXyXyXyXyXrXyXrXyXyXyXrXrXyXyXiXuXuXrX2X2X[.[.[.].].^.t.7.P V z z L K L L L L z z V P 7.t.^.[.].].].{. X9XeXyXiXyXyXyXyX",
"yXyXrXyXyXyXyXyXyXyXyXyXyXyXyXrXrXyXyXiXiXiXeX2X].H.e.e.e.e.w.7.P S J F Q { { { { { { L L D S P 7.w.e.e.e.r.H.[.2XqXiXiXuXyXyXrX",
"yXyXyXyXyXrXyXyXyXyXyXyXyXyXyXyXyXrXyXiXiXeX9X}.y.8.5.B B 5.B P I J R ~  .o.O.O.O.O.X.' ~ R F I P B 5.B B 5.8.t.{.9XyXyXyXyXyXyX",
"rXyXyXyXyXyXyXyXyXyXrXrXyXyXyXyXyXyXrXrXqX2X2X^.e.2.n b m N K K L R ~  ...&.;.;.;.*.*.o. .^ W J K K N b m m 2.e./. X9XeXeXrXrXyX",
"yXyXyXyXrXyXyXyXyXyXrXrXrXyXyXyXiXiXeX9X2X].^.e.6.P V z z L L L ~ /  ...&.%.=.=.=.=.%.O.} } ^ Q L L K z z V P 7.t./.[.2X8XwXyXyX",
"yXrXyXyXyXyXyXyXyXyXrXrXrXyXyXiXiXiXqX2X].t.8.6.P S G F Q { { | | ..o.$.&.;.;.;.;.=.%.%.#.o.} | | { { Q F z H P 7.e.y.].2XqXrXiX",
"yXyXyXyXyXyXyXyXyXyXyXyXyXrXyXyXuXuX9X{.H.7.B P S J R ~ | X.O.O.O.O.&.&.;.&.-.&.*.=.;.&.&.&.&.&.&.O.X.| ~ R H S P 5.8.H.{.9XtXpX",
"rXrXyXyXrXyXyXyXyXyXrXyXyXyXrXeX7X1X1X).r.8.3.I I W ~  .#.%.%.=.;.*.-.-.-.-.-.:.>.>.,.<.<.<.,.>.>.-.$.o. .^ T D V m 5.r.[.4XtXpX",
"yXyXyXyXiXyXiXyXiXyXuXpXpXyXwX3XE.T.P.^.H.u.u.p.+. .^ ' #.%.=.=.;.=.;.*.=.-.:.<.d.h.h.j.j.j.f.f.<.:.%.$... .^ F z b B r.].8XuXaX",
"rXyXyXyXyXiXiXiXiXiXiXpXpXuX0XQ.L.g f F._.OXOXl.g.@.} ] [ [ %.=.-.;.;.;.=.-.:.s.j.j.B.+XB.B.B.j.d.>.=.%.O...| Q z b 2.r.].qXiXaX",
"yXyXeXyXyXyXrXrXtXtXtXyXyXtX6XT.g w r k .XfXjX%XM.<.&.%.%.-.;.;.-.=.=.%.%.-.<.h.l.+X@X@X@X@X+Xj.h.>.;.%.*.%.X.{ L A 2.t.].1XrXpX",
"yXyXrXwXqX7X8X3X8X4X8X9XqX9X XP.f r t !.oXcXnXjX$Xn.f.1.d.d.d.1.>.;.=.%.%.-.<.h.+X@X*X*X*X*X@XB.j.<.;.=.=.=.O.{ L A ) w.^. X2XeX",
"iXyXeX8X|.'.(.(.(.(.(.].`.)._.^.F.y.!..XfXbXmXjX>X$XV.V.C.C.N.n.d.>.%.%.%.-.<.j.B.@X*X=X=X*X@XB.j.<.;.%.=.;.O.| L L P 8.t./.[.[.",
"sXiXqX1X(.c.k k y.k 0.r.t.u.u.J._.`.oXfXcXNXVXnXjX,X,X>X,X,X%XD.j.:.=.[ [ =.<.j.+X@X*X*X=X*X@X+Xj.<.;.%.=.;.&.| ~ J I 3.8.w.t.t.",
"iXyX8X|.!.u 7 7 7 y y ) I 9.9.l.OXfXvXbXNXBXVXmXnXnXzXnXnXnXjX%XN.d.=.[ %.=.<.j.B.@X*X*X*X*X@XB.j.<.;.=.=.;.$...~ E G S P 2.5.5.",
"8X8X X'.y.0.) ` ` 4.) _ I E i.k.@XjXnXmXVXVXVXVXVXVXBXNXbXcXfX&XV.n.d.:.;.:.<.h.j.+X@X@X@X@X+XM.f.>.&.%.=.;.&... .W J G Z b n v ",
"|.(.(.).~.c.v.0.z.0.q.9._  .@.g.B.*X,XkXnXmXVXCXCXCXBXbXfXoXXX#XOXV.N.n.d.:.:.h.j.M.B.B.B.B.M.j.d.>.-.;.=.&.&.../ E J D V b b v ",
"0.k c.c.`.XX&X#X#XZ.Z.b.p.X.O.<.j.N.$X=XjXmXVXCXCXCXMXdX}.!.!.~.#X&X%X+Xn.1.:.:.s.h.h.j.j.h.h.s.<.:.;.*.;.-.&.o./ ! J G V b b b ",
"7 u u v.#XfXlXlXlX:X-XS.n.,.-.O.:.d.n.$X,XnXVXCXCXVXbXXXc.t t c.XXhXjX%XN.d.:.=.;.>.<.<.<.<.<.:.:.-.-.-.;.-.&.../ E J G A b b v ",
"& 6 u u.XXgXlXNXxXjX<X$XM.1.&.[ [ =.d.C.=XxXBXVXMXbXoX).s $ q k .XvXnX,XC.d.=.%.*.*.-.*.-.-.-.-.-.-.;.;.;.&.&.../ ! J G V m n n ",
"& : 6 0.v.oX:XlXxXxXjX%XM.<.#.] ] [ 1.C.>XzXbXcXdXXX).h e o # j .XvXMX,XD.f.;.%.%.%.*.*.*.*.*.*.*.&.;.;.;.;.&.#./ ! J G Z m b n ",
"O : 5 7 z.v.#X:XlXxXlX%XM.p. .Y ] %.1.C.>XzXbXdX.XG.h q #   $ j .XcXnX,XD.f.=.%.%.*.*.*.*.*.*.*.-.-.-.-.-.-.&...( E J G Z A n n ",
"X O : 5 u z.v.-X:XxXhX=Xl.i.^ Y ' $.d.C.,XzXbXoX!.t $ X o o e k oXgXkX,XC.f.=.%.%.*.*.-.*.-.-.-.-.*.=.-.-.:.&.../ E J G A n n v ",
"X o # 5 7 ` x.Z.:XlXlX=Xl.i.! Y ' $.f.C.,XzXgXoX!.t q # $ e i !.oXcXzX,XC.f.;.%.%.*.-.-.-.-.-.-.-.-.-.-.&.&.#.#./ E J Z A v v c ",
". o # 5 6 ` x.Z.:XlXjX*Xl.i.! Y ' &.f.D.,XxXbXdX}.!.k h h k !..XfXbXnX,XC.f.=.%.&.*.-.-.-.-.-.-.-.-.-.&.$.#... .! E G Z v 2 < < ",
". X # 5 7 ` x.Z.-XjXjX@Xk.i.! U ' &.f.D.,XnXNXvXdXXX.X.X.X.XoXfXvXNXzX,XC.d.;.%.=.*.*.-.-.-.-.;.;.-.&.&.#. ./ ! ! E G m 2 < , - ",
"X X # 5 7 ` x.Z.-X<X<X$Xk.+.E U ' O.d.V.=XnXBXNXbXgXgXgXgXcXcXbXNXBXzX>XV.d.;.[ &.*.-.-.-.-.-.;.-.-.&.../ ^ E E E E G v < - + o ",
"X o # 5 7 ` x.A.-X<X>X+Xg.i.R U ' o.s.N.%XjXxXBXBXBXVXVXVXVXVXmXNXzXjX%XN.1.;.%.%.;.-.-.-.;.-.;.&.&.O.} ( E T T T T Z v ; + o X ",
". X # 5 ` x.Z.A.-X;X-X+Xa.I H U Q  .@.h.V.$X,XjXnXVXCXCXCXCXVXnXkX,X%XV.n.1.;.*.*.;.-.;.;.-.&.&.&...} / E E T J T G Z 2 ; O X . ",
".   # 7 0.v.A.-X-X-X-Xm.a._ A D R ~ ..s.h.M.$X>XjXmXCXCXCXCXmXjX>X$XN.n.1.,.;.=.;.;.;.;.;.:.&.$... .( ! E E T J J Z m 2 ; +   . ",
".   $ y z.v.A.A.-XA.A.b.9.I m V D R !  .@.1.n.+X,XnXVXCXVXNXnX,X+Xn.1.>.:.-.-.-.-.;.-.-.-.-.&... .~ E R E T T G Z A v 4 = + o X ",
"0 0 e u z.v.Z.Z.Z.Z.v.q.7.B v b V G J ~ } o.s.M.*XhXkXnXbXkXhX*XM.1.&.[ %.$.&.O.&.&.&.&.&.&.o.../ E T T T T G Z V v 2 4 9 9 8 0 ",
"a a f j k 0.z.z.z.z.0.4.4 1 2 2 b Z L R U ^ @.g.B.OX=X=X*X*X@XB.g.@...' } ..................../ ! E T J J G Z m 2 2 4 4 r i f d ",
"Y.Y.P.K.u u 7 6 y 6 y 5 , - ; 1 x b Z F W W  .p.p.l.l.l.l.l.k.p.p. ./ ^ ^ ^ / / / / / / / / / ! E R J J G Z b x 1 ; , r F.F.T.R.",
"7X3XW.P.g t $ $ > > # # # + - < 2 v m G F R ! ! ( +.i.i.i.i.i.( ! ! E E E E E E ! E ! ! ! ! E E E R R H Z V v 1 ; - 9 s K.|.1X7X",
"iXrX3XR.F.w 0 $ 8 q 0 0 0 q 9 , 4 v m Z G T R E E E ! ! E T T T T J J J J T J J J R R R T J J E E E J J G m v 2 ; - 9 j R.1XuXpX",
"sXiX0XQ.I.g p p p p p d d a i t 4 B b Z D J T E U ! ^ U E T T T F F G G G G G G G G G G G H H R ! ( ~ W J S b 2 1 ; 9 F.{.1XiXsX",
"pXiXeX6XQ.R.I.I.Y.U.U.Y.T.R.F.F.u M b V D D T E / }  .^ ^ T T T G Z Z Z Z Z Z Z Z Z Z Z Z Z I L { | .. .R H Z b x < y k '.qXiXaX",
"yXyXrX0X7X6X3X3X1X1X1X7X7X2X2X^.w.2.b V D J E ^ ..o.#...^ T D G V A m b m n m m m m m m n b A L { o.@.| / E H V b c 2.r.{.1XyXiX",
"yXrXrXrXrXrXeXrXyXrXyXuXuXtX2X].r.2.m z D R ~ / ..$.o.| ! F Z m b x x c c c x 2 c c x 2 x c n I { X.o.../ ~ T D V m 2.r.[.qXyXiX",
"rXyXyXyXiXiXiXiXiXiXiXaXiXiXqX].H.2.m K J / / #.#...| Q K b x 2 2 1 1 < 1 1 1 1 1 1 1 < % 1 2 n _ | ..#.#. .! J Z m 2.t.}.1XuXaX",
"rXyXyXyXyXiXiXpXyXiXpXpXsXpXqX.Xr.2.m K L | ..#.#./ ^ K c 1 ; ; = = = = = = = = = = = = = = ; 2 A Q  .#.#...| Q z N 2.r.[.qXuXaX",
"yXyXyXyXyXyXrXyXyXrXrXpXiXrX4X).t.) m L { o.$... .~ L n 2 ; - + + @ + + + + + + + + + + + @ - 2 n L ^ / #.o.X.{ L A 2.t.[.2XyXpX",
"yXyXyXyXyXrXyXyXyXyXrXrXeX9X|.~.e.) K L { X.o...~ H A M 4 9 q 0 q q q q q q q q 0 q q 0 0 q 9 4 M m H ~ | o.o.| _ K ) e./. X8X8X",
"yXyXyXrXyXyXyXyXyXrXqX9X X}./.u.9._ _ { | ..| Q K n c 4 r i d d d a a a a a d d d p d d d d h t 4 c b K Q | ..} { Q _ q.u./.[.[.",
"yXrXrXyXyXyXyXyXuXrXqX2X).t.u.9._ X.X.X.}  .~ S v 1 , r h K.R.R.Y.T.Y.Y.Y.Y.Y.Y.U.R.Y.Y.R.U.K.j t 4 2 x C W  .} { X.X.9.q.u.e.r.",
"yXyXyXyXyXyXyXiXuXiX2X{.~.8.5._ _ X.O.X. .~ H m 2 - 9 p K.|.1X1X6X1X6X1X8X1X1X6X1X1X1X7X7X1XQ.F.i 9 - 1 b L ~ } ] O.X._ 9.2.2.2.",
"yXrXyXyXyXyXyXyXuXrX8X'.r.5.M N { X.{ { L H A c , 9 r F.R.1XuXuXiXyXyXyXrXrXeXyXrXyXuXuXiXyX1XT.F.r 9 4 c m H L { X.X._ K v c 2 ",
"yXyXyXyXrXyXyXiXiXrX2X).h 3 * * l l ) N N v v 4 y i F.I.Q.7XuXsXpXiXiXiXiXiXpXiXiXiXiXpXiXuXwX1XU.F.i r 4 M v n l ) N l 2 1 1 1 ",
"yXyXyXrXyXrXrXiXiXyX8XT.h , % & & 3 * * * & , r j K.T.1X8XeXiXiXiXiXiXiXiXiXiXiXiXiXiXiXiXiXeX7X1XR.K.j y , & * * * * * & & = = ",
"rXyXyXyXyXyXyXiXiXrX1XT.s 9 + O @ - : @ - # 5 s K.E.6X0XeXeXyXyXyXyXrXyXrXrXyXrXyXyXrXyXyXrXrXeX0X1XQ.K.i e : O : # # : # # o O ",
"yXyXyXyXyXyXrXiXiXrX8XT.F.r q $ 8 q q 8 $ 0 r g T.1XeXiXiXrXrXyXyXyXyXyXyXrXyXyXyXrXyXyXyXrXyXyXuXtX1XR.F.r q $ $ 0 0 0 q q $ q ",
"yXyXyXyXrXyXrXiXiXrX7XQ.I.F.d a d d d d p d L.L.1XwXiXpXiXyXyXyXrXrXyXyXyXyXyXyXyXyXrXyXrXyXyXiXiXuX0XQ.I.F.d a a a a d d d f d ",
"yXyXyXyXyXrXyXyXyXrXwX6XQ.R.Y.Y.Y.Y.Y.Y.U.Y.T.1X6XwXiXiXyXyXyXrXrXrXyXyXyXrXyXyXyXyXrXrXrXyXrXuXiXiXeX1XW.R.Y.U.Y.Y.Y.Y.Y.Y.Y.Y.",
"rXyXrXyXyXyXyXyXyXrXwX0X7X6X6X1X6X1X1X6X1X6X6X7X0XtXtXtXyXrXyXyXyXrXyXyXyXyXyXyXyXrXrXyXrXyXyXyXyXyXyXrX7X8X6X3X3X3X3X4X6X6X3X6X",
"yXyXyXyXyXyXyXyXyXrXrXrXyXrXrXrXeXeXrXrXyXtXrXrXrXrXtXrXyXyXyXrXyXyXyXyXyXyXyXyXyXyXrXyXyXyXyXyXyXyXyXyXyXeXyXyXeXrXeXyXyXyXeXrX",
"yXyXyXyXyXyXrXrXyXyXyXiXiXiXsXpXsXiXsXsXpXpXiXiXiXiXrXrXyXrXyXyXyXyXrXyXyXyXyXrXyXyXyXyXyXyXrXrXyXyXyXyXiXpXpXpXpXpXpXpXpXpXpXpX"
};
