/* XPM */
static char *_5e50b96e0f44105f75a11f404e3eb59L8z8MFlTPnHatqay[] = {
/* columns rows colors chars-per-pixel */
"16 16 11 1 ",
"  c gray16",
". c #734229",
"X c #942929",
"o c #C62929",
"O c #E76329",
"+ c #A57B42",
"@ c #DEB584",
"# c #EFA5A5",
"$ c #FFE7BD",
"% c #4AAD4A",
"& c #F8F8F8",
/* pixels */
"%%%%%%%%%%%%%%%%",
"%%%%%%%%XXXX%%%%",
"%%%%%%XXoOOoXX%%",
"%%%%%XoOOOOOOoX%",
"%%%% &OOOO##OOX%",
"%..o&&&&OO##OOoX",
".&$OO&& &OOOOOoX",
" +&oO&  &OOOOOoX",
" +$oO&&&&OOOOoo ",
" @@XoO&&OOOOooX ",
"%   XooooooooX %",
"%%%%XoOoXXXXOoX%",
"%%%%XOo     oOX%",
"%%%XOo %%%%% oOX",
"%%%   %%%%%%%   ",
"%%%%%%%%%%%%%%%%"
};
