/* XPM */
static char *_4bd99a5a62e433fb2543226d627ba4359CtQ3dxG1sJoAXp[] = {
/* columns rows colors chars-per-pixel */
"64 64 232 2 ",
"   c #23211F",
".  c #282728",
"X  c #372925",
"o  c #3B2B29",
"O  c #3A322B",
"+  c #363939",
"@  c #4C1F1E",
"#  c #54271C",
"$  c #60311E",
"%  c #6C1F20",
"&  c #4B2623",
"*  c #432A29",
"=  c #5A2626",
"-  c #463228",
";  c #4F3128",
":  c #4B3535",
">  c #573839",
",  c #692525",
"<  c #642C2D",
"1  c #6C2929",
"2  c #782725",
"3  c #7A2A2A",
"4  c #643626",
"5  c #6E392A",
"6  c #544530",
"7  c #704E34",
"8  c #343E42",
"9  c #453446",
"0  c #433E40",
"q  c #394143",
"w  c #494847",
"e  c #5A4143",
"r  c #534B4F",
"t  c #455559",
"y  c #575054",
"u  c #6D5443",
"i  c #73644C",
"p  c #4F5B62",
"a  c #4B666D",
"s  c #526066",
"d  c #576B6E",
"f  c #4E6A72",
"g  c #586B72",
"h  c #57757D",
"j  c #686868",
"k  c #72706C",
"l  c #76797A",
"z  c #AA1E1F",
"x  c #AB291E",
"c  c #B4371E",
"v  c #892626",
"b  c #8C2A29",
"n  c #9B2525",
"m  c #9B2927",
"M  c #922C29",
"N  c #9C2B29",
"B  c #8C3424",
"V  c #9C332B",
"C  c #8F3332",
"Z  c #973C3C",
"A  c #A52323",
"S  c #A82827",
"D  c #AC292A",
"F  c #B42424",
"G  c #BB2825",
"H  c #B42A29",
"J  c #BB2929",
"K  c #A93628",
"L  c #B63625",
"P  c #A53437",
"I  c #B23534",
"U  c #C62425",
"Y  c #C32729",
"T  c #C42A29",
"R  c #CA2C29",
"E  c #C73827",
"W  c #CB3229",
"Q  c #D43A25",
"!  c #D33D29",
"~  c #C93835",
"^  c #894627",
"/  c #97482B",
"(  c #BD4527",
")  c #A7443B",
"_  c #916C3A",
"`  c #DD461F",
"'  c #E4581D",
"]  c #C84725",
"[  c #D74927",
"{  c #D44329",
"}  c #DC4C29",
"|  c #DA5329",
" . c #D95928",
".. c #CF5031",
"X. c #E25626",
"o. c #E65D23",
"O. c #E35C29",
"+. c #E66126",
"@. c #E96325",
"#. c #E76329",
"$. c #E86529",
"%. c #E86C2F",
"&. c #E76935",
"*. c #E86A34",
"=. c #E86C39",
"-. c #E8713A",
";. c #9A3E40",
":. c #B73545",
">. c #D13C45",
",. c #8F4F46",
"<. c #954143",
"1. c #9C464B",
"2. c #9E4C52",
"3. c #96565A",
"4. c #A85048",
"5. c #8C6C4D",
"6. c #977A5A",
"7. c #B16D59",
"8. c #985E65",
"9. c #95656C",
"0. c #946B72",
"q. c #9A6B73",
"w. c #907773",
"e. c #B26E69",
"r. c #CC4444",
"t. c #CC584D",
"y. c #D76C4C",
"u. c #E56D47",
"i. c #E97443",
"p. c #E97848",
"a. c #EA7B56",
"s. c #D37270",
"d. c #E37B6A",
"f. c #9B805F",
"g. c #AF8955",
"h. c #90847A",
"j. c #B2906F",
"k. c #EB8747",
"l. c #EB8659",
"z. c #CE8D72",
"x. c #E9886C",
"c. c #ED936A",
"v. c #EB8D79",
"b. c #EB9A78",
"n. c #F19E79",
"m. c #C8A779",
"M. c #D4A87A",
"N. c #DBB57D",
"B. c #F1A37D",
"V. c #597981",
"C. c #957981",
"Z. c #698992",
"A. c #638D98",
"S. c #728B92",
"D. c #6B96A1",
"F. c #6D99A5",
"G. c #729BA7",
"H. c #74A1AD",
"J. c #7DADBA",
"K. c #7EB1BF",
"L. c #7FB5C2",
"P. c #868788",
"I. c #9B8D89",
"U. c #998992",
"Y. c #879C9D",
"T. c #949599",
"R. c #B09D90",
"E. c #879AA5",
"W. c #9597A2",
"Q. c #9599A5",
"!. c #96A1AD",
"~. c #91ADB7",
"^. c #A5A7A8",
"/. c #B3ACA9",
"(. c #B5B8B9",
"). c #CE9B92",
"_. c #EC9485",
"`. c #EC9E97",
"'. c #CEAB93",
"]. c #EDB191",
"[. c #D2B1A7",
"{. c #EBA9AA",
"}. c #ECB3AE",
"|. c #EAC896",
" X c #DFD0B3",
".X c #F5C3AB",
"XX c #EED1AF",
"oX c #F6CAB6",
"OX c #83B6C3",
"+X c #97B4C1",
"@X c #89C0CF",
"#X c #96C1CF",
"$X c #8BC4D3",
"%X c #8ECAD9",
"&X c #96C5D3",
"*X c #98C3D2",
"=X c #95CAD7",
"-X c #92CFDF",
";X c #98CDDC",
":X c #95D4E5",
">X c None",
",X c None",
"<X c None",
"1X c None",
"2X c None",
"3X c None",
"4X c None",
"5X c None",
"6X c None",
"7X c None",
"8X c #9CE4F8",
"9X c #A1E6F8",
"0X c #C7CBCC",
"qX c #CDCED2",
"wX c #D8DAD6",
"eX c #DDDDDD",
"rX c #E9D3C7",
"tX c #F8DBCB",
"yX c #F2D9D7",
"uX c #F2E7D3",
"iX c #F5E5DD",
"pX c #F9EDD8",
"aX c #DEDDEC",
"sX c #ECDBE6",
"dX c #DDE5E7",
"fX c #E8E9EA",
"gX c #F7E9E7",
"hX c #F8F2ED",
"jX c #EEF1F2",
"kX c #F5F5F4",
"lX c #F8F6F6",
"zX c #FDFEFD",
/* pixels */
"2X2X2X2X2X2X2X2X2X2X2X2X2X2X2X<X<X2X5X5X6X6X7X7X7X7X8X8X6X6X8X8X6X8X6X6X6X3X3X,X,X3X3X,X3X3X2X2X2X2X2X2X2X2X2X2X2X2X2X2X2X2X2X2X",
"2X2X2X2X2X2X2X2X2X2X2X2X2X2X2X2X2X2X<X2X,X,X5X6X>X3X:X:X3X3X3X,X,X:X,X3X,X,X2X3X3X3X3X3X3X,X2X2X2X2X2X2X2X2X2X2X2X2X2X2X2X2X2X2X",
"2X2X2X2X2X2X,X2X<X2X2X2X2X2X2X2X2X<X<X>X=X*X*X+X+X&X&X+X+X;X%X+X+X&X%X=X;X>X,X5X3X3X3X3X3X5X3X2X,X3X2X2X2X2X2X2X2X2X2X2X2X2X2X2X",
"2X2X2X2X2X2X2X<X2X2X2X2X5X5X6X6X6X6X>X&X+X!.Q.W.!.Q.Q.!.Q.Q.Q.Q.!.Q.!.+X&X>X5X6X6X5X5X3X3X3X3X:X<X3X2X2X2X2X2X2X2X2X2X2X2X2X2X2X",
"2X2X2X2X2X2X<X2X<X2X2X5X5X5X6X7X8X6X;X+XW.C.0.9.0.0.0.0.0.0.0.0.9.0.C.W.+X;X6X8X8X6X3X6X3X3X3X,X2X,X2X2X2X3X2X2X2X2X2X2X2X2X2X2X",
"2X2X2X2X2X2X2X2X2X<X2X2X,X2X,X2X7X7X&X!.C.3.<.Z ;.;.<.<.<.;.<./ ;.;.3.C.!.*X,X5X6X6X3X3X3X3X3X3X2X2X2X2X3X3X2X2X2X2X2X2X2X2X2X2X",
"2X2X2X2X<X2X2X2X3X3X,X;X;X=X*X&X&X~.~.U.9.Z N n M N V V V V S N n M ;.8.U.~.*X&X&X+X&X>X;X,X3X3X5X<X2X2X3X2X2X2X2X2X2X2X2X2X2X2X",
"2X2X2X<X2X2X2X5X6X3X2X*X~.Q.Q.Q.Q.W.U.q.1.P z x x K L c L K c x x A P 2.q.U.Q.Q.Q.Q.!.+X+X>X6X6X5X2X<X<X3X:X2X2X2X2X2X2X2X2X2X2X",
"2X2X<X2X<X2X,X6X7X6X>X+XW.C.0.0.0.9.8.2.P D G c c ] ] ] ] ] { R G G D P 2.8.9.0.9.0.C.T.+X,X6X6X5X2X4X<X,X,X3X3X2X2X2X2X2X2X2X2X",
"2X2X2X2X2X2X<X6X5X2X*X!.q.3.<.Z Z <.Z Z I J T E [ |  .+. . .| } E T H I P Z <.Z Z <.3.C.!.+X2X6X5X4X<X,X4X3X,X5X2X2X2X2X2X2X2X2X",
"2X2X2X2X2X<X2X>X;X&X~.U.9.Z N n n N K L J T E { | O.$.$.$.@.X.} { E W H D K K n n N ;.8.U.~.+X;X>X2X2X5X5X<X3X,X2X2X2X2X2X2X2X2X",
"2X2X<X2X5X2X:X&X+XQ.U.q.1.P A A x L L c E ! [ } X.o.@.@.@.$.#.X.} { { E L L c x x n P 1.0.U.!.+X*X>X2X7X5X<X,X3X,X<X2X2X2X2X2X2X",
"2X2X2X5X5X,X-X+XW.C.8.2.I I F G L ] ] [ [ } } X.o.o.@.@.$.@.$.X.X.| } [ ] ] ] c G F D ;.;.8.C.T.~.;X7X9X5X3X3X3X2X2X2X2X2X2X2X2X",
"2X2X2X5X5X,X&XQ.C.3.;.V D J T E { | O. .O.O.O.O.O.$.$.$.#.#.#.#.O.O.O.O.+. .| { E T J D P P 1.C.!.=X2X<X3X2X3X3X2X2X2X2X2X2X2X2X",
"2X,X<X6X5X,X&XQ.9.<.N x F W E [ X.O.$.*.*.&.=.=.&.&.&.&.$.#.#.#.$.#.O.$.@.+.O.} [ E W I I P 2.w.T.+X$X;X:X:X2X3X2X2X2X2X2X2X2X<X",
"<X2X5X6X7X3X&XQ.9.Z n x G W [ } X.O.$.=.p.p.a.a.a.a.a.i.u.#.#.@.$.$.$.@.@.@.o.X.` Q { ..t.e.e.C.S.S.G.J.$X>X5X6X6X5X5X2X2X2X2X2X",
"2X<X2X6X7X6X&XQ.9.Z N x L [ | X.o.O.&.i.a.x.v.v._.d.v.a.p.*.$.@.O.$.$.@.@.o.o.' ` } } u.z.).).U.l g h A.K.%X7X7X7X5X5X5X3X3X3X3X",
",X2X2X5X6X,X+XW.9.<.V c ] | O.+.o.$.&.a.x._.`.`.`.`._.d.p.=.@.o.@.@.$.$.@.@.O.o.o.O.u.c.{.yXqX^.l 9 8 h H.$X,X5X5X,X2X5X3X3X,X3X",
"5X<X>X>X;X&X+XU.9.Z K L ]  .@.@.@.$.&.a.v.`.{.{.{.{.`.v.a.=.@.@.o.@.$.*.-.i.i.i.i.p.l.].oXlXaX(.P.w q g S.~.@X=X&X&X&X-X-X3X3X4X",
"5X2X;X=X+X!.U.q.2.P I L ] O.@.@.@.$.=.a._.`.{.}.{.{.`.v.a.i.@.' o.o.*.i.l.c.n.n.n.n.]..XtXhXfX0X^.P.l l S.Y.Y.Y.Y.Y.E.~.=X:X5X5X",
"6X3X;X+XW.C.8.2.;.H J E }  .#.@.@.@.=.a.v.`.{.{.}.{.`._.a.=.@.o.o.o.*.l.n.}..XoX.X.XoXtXgXlXhXdXqX(.^.I.h.w.w.i 5.k h.H.~.=X5X8X",
"6X3X&X!.C.3.;.P D J W ! } O.+.@.o.@.=.a.v.`.{.{.{.`.`._.a.=.@.o.o.@.-.c.].yXhXgXiXiXgXgXhXlXkXkXfXaXqX/.h.i 7 7 7 7 i h.~.=X,X7X",
"8X,X&XQ.0.;.N A F G W ! } O.$.@.@.@.=.a.x._.`.`.`.`._.x.a.&.$.$.*.i.l.b.[.wXaXfXjXkXlXlXlXlXlXhXhXhXrX[.j.5.^ ^ ^ _ 5.h.Y.~.=X=X",
"7X,X+XE.0.Z n z F G W ! } O.O.@.@.@.*.i.a.v.d._.v.v.x.a.u.*.&.i.l.c.b.).[./.(.0XdXkXzXzXzXzXhXiXtXoX}.'.z.j.e.6.6.6.h.I.R.Y.Y.Y.",
"7X:X&XQ.9.;.v z z Y Y ! } O.$.@.@.#.&.=.u.p.a.a.a.a.p.u.&.$.-.l.B.].[.'.I.P.P.^.0XjXzXzXzXkXgXtX|.].B.B.M.m.m.'.[.[./.R.I.h.l k ",
"8X>X*XQ.C.;.n A F Y R ! } O.$.$.$.#.#.#.&.=.=.=.u.=.=.$.O.@.i.c.].yXeX/.l r w S./.wXkXzXzXlXpXXX_.k.k.c.N.|.XXrXsXdXwX/.j.5.i 7 ",
"7X,X+XQ.0.;.n A F Y R ! } O.O.$.#.#.#.#.#.#.#.#.#.#.@.o.@.@.p.n.oXhXfX/.g + O j T.0XeXjXlXkXiX}.c.-.%.l.].XXuXpXhXfXwXR.w.7 7 $ ",
"7X,X*X!.0.;.N A F J W ! } O.$.$.#.@.#.#.@.O.@.o.o.@.o.o.@.@.p.n.oXlXdX~.k .   6 j T./.0XdXjXyX}.x.%.@.l.].oXpXpXuX X[.R.5.7 $ # ",
"7X,X*XQ.0.<.n A F J R { } O.#.&.$.#.#.#.O.@.o.@.@.o.@.o.o.@.p.n.oXgXaX^.g ; X . w p w.^.0XfXyX}.d.{ ..d.].tXpXuX X'.m.f.u 6 - X ",
"7X,X&XQ.0.<.n z F J R ! } O.#.#.#.@.@.#.#.#.#.#.$.O.O.o.o.O.p.n.oXfXeX/.V.9 X .   + w Y.(.fXyX{.d.>.>.d.{.sXiXrX|.j.f.i 6 : X . ",
"8X,X*XQ.w.;.v n z J R ! } } O.#.#.#.#.#.#.@.#.#.$.$.O.@.o.$.i.n.oXiXfX(.P.p w + . + w P.(.dXsX{.s.~ ~ s.{.sXdX Xm.g._ 7 6 + . . ",
"8X:XOXE.k u 3 v A J R W ! } } O.O.#.#.#.#.#.#.#.O.$.$.o.o.$.p.n..XgXfXqX^.P.l j j j P.^.0XfXaX{.s.:.:.s.'.uXuX Xm.g._ 7 - O .   ",
"9X2X&XG.g e , 2 n J R R W ! { } O.O.#.$.$.#.#.#.+.#.@.o.o.#.i.n.oXgXjXdXqX(.^.^.^.^./.0XdXjXsX[.s.:.:.s.`.XXtX Xm.g._ 7 6 O . . ",
"7X2XOXF.g 9 & % v H R R R W W { } O.#.#.$.#.#.#.#.#.#.o.o.#.i.b..XyXkXjXfXdXeXwXwXeXeXfXkXlXaX[.e.;.P e.).oXXX|.m.g._ 7 6 O .   ",
"7X3X@XF.g q * = v A J Y R Y R ! } | O.#.#.#.#.#.#.#.#.+.o.@.i.c.].oXgXhXlXlXlXlXlXlXlXlXhXgXrX).e.1.;.7.M.|.|.|.N.g.g.7 6 O . . ",
"7X3X@XF.a 8 X @ 2 A J Y Y Y R W ! } } O.O.O.$.$.#.#.@.+.@.#.-.l.n.}.XXtXgXlXzXzXzXzXlXgXtXoX`.z.4.P I 7.m.|.|.|.N.g.g.i 6 O     ",
"9X<XOXG.f 8 X @ % n D J Y Y Y R W ! { } O.O.$.$.%.#.#.@.@.$.*.i.l.c.].}.tXhXzXzXzXzXhXtX.X].z.t.) I ) 7.z.'.|.|.N.N.g.5.u O     ",
"6X<X$XG.f q X & 2 v n D H Y T R R R W { } O.#.#.@.#.#.#.+.$.#.$.%.-.l.].oXiXlXzXzXkXgXoX].l.-...) K / 4.z.M.].N.N.m.m.f.i + .   ",
"7X2X$XH.V.t 6 > < 3 v S D F J Y T T W ! [ | X.O.O.O.O.O.X.O.O.X.o.o.u.v.{.rXyXgXfXyXrX{.x.&. .( c V V 4.7.z.m.m.m.m.j.f.i w 8 8 ",
"5X<X%XOXF.V.s y 9 < 1 v n D H J Y Y T W ! } } X.} } } } } } } [ ` ` } y.z.`.{.}.}.{.`.z.y...( c x N C ) ,.6.6.f.f.f.f.k h d f a ",
"5X2X-X$XOXG.Z.g y > = , v n S D J J Y R W ! ! ! ! ! ! ! ! ! ! Q Q Q } >.t.s.s.v.s.s.s.t.( ) L S N N C C 7 7 7 u u i i j Z.S.F.F.",
"2X3X<X<X-X$X~.S.s 8 * = 2 v S S H Y Y R R W R W ~ Y R R R R R R R R W ! ~ r.r.r.>.r.r.:.I P K N N b b 5 > 6 q O + O t d S.J.@X%X",
"2X2X2X5X6X,XOXF.a q . & , v n D H J Y R Y Y T Y H D D D Y Y J J H H J J J Y Y U Y Y T H S m m v v v b < : w + + 8 O q V.H.$X2X7X",
"<X2X2X6X8X5X%XF.a + X @ , 2 m D J Y Y R R Y J D N n v n D D D D n b b m z U U U U U Y H S n v v 2 1 1 9 r p a a a a Z.A.K.-X5X9X",
"2X3X3X6X8X5X$XF.f + X @ , v n S H Y R R U Y J n v < , 3 b n m v 3 , , 3 n F U U U U G F D n v 2 , = ; r d Z.D.D.D.D.H.K.$X:X2X7X",
"2X3X3X6X6X<X$XF.f q X & , v N S H Y Y R R Y D m 1 o o = 3 b b 3 = X * 1 n F R R R U Y F S m v 1 & * : s A.K.@X@X@X@X$X=X:X3X2X2X",
"2X2X3X3X6X,X$XG.h t w < < 1 v n D J Y T W T J N 1 * o = 1 3 3 , = o * 1 M H T R R T G S n v 3 < : : t V.H.$X2X4X2X2X,X<X,X,X3X2X",
"2X2X3X6X3X,X=XL.D.h p y 9 < 2 v n S J W E ! E P b 1 = = < , , < = = < C P W ! E R J D n v 2 < > r a V.F.~.-X7X9X7X5X7X5X4X3X3X3X",
"2X2X2X2X3X2X:X$XK.H.A.d r : = % v n D L { | ] ] K M 3 1 < = = = 1 3 M K ( [ } ] L D m v % = : r g Z.G.L.$X>X5X7X7X5X5X2X2X2X2X2X",
"2X2X2X2X2X2X<X>X-X$X~.Z.s 0 & = 2 M S L ] |  .[ E H N v = * * = 3 S H ! [  .| ] ( S v 2 = * 8 s A.~.$X-X>X<X2X2X2X2X2X2X2X2X2X2X",
"2X2X2X2X2X2X2X2X5X<X$XG.h t : : < 3 B K ( ]  .} { W H b , o * = b H W { }  . .( K M 3 < ; 9 q A.G.$X3X6X7X,X2X2X2X2X2X2X2X2X2X2X",
"2X2X:X2X2X2X2X5X7X5X-XOXD.V.a r > 4 2 B ) ]  .} } { ] C 4 o o 4 V E Q } } ..( K B 3 < > r s V.D.L.%X6X6X2X5X2X<X2X2X2X2X2X2X2X2X",
"2X2X2X3X:X2X5X2X6X3X<X$XL.G.A.g r : = % B K ( { } } ] / 4 * - 4 / ] } } { ( K B , # : r g Z.G.L.%X:X7X5X5X3X2X,X3X2X2X2X2X2X2X2X",
"2X2X2X2X2X2X2X2X3X<X2X<X-X$XJ.Z.s 0 * = 2 b K ( { X.' / 4 * ; 6 /  . .} ] K b 1 = - : s Z.~.$X-X:X3X,X3X3X,X3X2X:X2X2X2X2X2X2X2X",
"2X2X2X2X2X2X2X2X2X2X2X3X6X2XOXH.V.t 0 : < 3 B K (  .] ^ 4 O - $ ^ ] ..( K B 3 < : q t V.G.$X2X5X5X3X3X3X,X5X<X2X2X2X2X2X2X2X2X2X",
"2X2X2X2X2X2X2X2X2X2X2X6X6X6X>XOXD.V.s r > < , v B / ^ 7 ; X X ; 5 ^ / B 3 2 < > r s V.F.OX-X6X7X7X3X3X,X3X,X2X<X2X2X2X2X2X2X2X2X",
"2X2X2X2X2X2X2X<X<X2X2X3X6X5X>X$XL.G.Z.g r ; & # $ $ 4 ; o . . X $ $ $ $ # # ; r g Z.G.OX%X:X5X2X2X2X2X2X>X2X2X2X2X2X2X2X2X2X2X2X",
"2X2X2X2X2X2X,X2X2X2X<X5X3X2X,X<X-X&XJ.Z.s 0 o X - O - O X X . O O O - O X O 6 s A.~.$X-X:X:X2X5X2X2X2X3X2X2X2X2X2X2X2X2X2X2X2X2X",
"2X2X2X2X2X2X2X2X2X2X2X2X2X2X2X3X6X<X$XH.V.t q 8 + q q q q q q q q q q + 8 q t V.G.$X2X5X5X2X2X2X2X2X2X2X2X2X2X2X2X2X2X2X2X2X2X2X",
"2X2X2X2X2X2X2X2X2X2X<X2X2X2X2X6X6X5X-XOXF.V.g f a f f f f f g f f f f f f f V.D.OX-X5X7X5X2X2X2X2X2X2X2X2X2X2X2X2X2X2X2X2X2X2X2X",
"2X2X2X2X2X2X2X2X2X2X2X<X2X2X2X3X5X6X>X$XOXH.G.G.D.D.F.F.G.G.F.G.G.G.F.G.F.F.H.L.$X>X5X5X2X2X2X,X2X,X2X2X2X2X2X2X2X2X2X2X2X2X2X2X",
"2X2X2X2X2X2X2X2X2X2X<X2X2X2X2X2X2X2X<X-X%X$X$XOX@X@X@X@X&XOXOX$X$XOX$XOXOX$X$X-X-X:X2X2X2X2X2X3X3X3X2X2X2X2X2X2X2X2X2X2X2X2X2X2X",
"2X2X2X2X2X2X2X2X2X2X2X2X2X2X2X2X2X2X<X2X<X<X<X<X,X2X2X,X2X2X2X2X2X,X,X<X,X,X:X3X,X2X2X2X2X2X2X2X2X2X2X2X2X2X2X2X2X2X2X2X2X2X2X2X",
"2X2X2X2X2X2X2X2X2X2X2X2X2X2X2X2X2X2X2X5X5X7X7X9X7X7X7X7X7X7X7X6X8X7X7X8X8X7X8X7X5X2X2X2X2X2X2X2X2X2X2X2X2X2X2X2X2X2X2X2X2X2X2X2X"
};
