/* XPM */
static char *_990f33a5ea147a2ae2395b6456f5da2cBtPJKylajsoPy0c[] = {
/* columns rows colors chars-per-pixel */
"64 64 239 2 ",
"   c #14181A",
".  c #1C1C1D",
"X  c #3E1C0F",
"o  c #291D1C",
"O  c #3A1919",
"+  c #32241E",
"@  c #271F20",
"#  c #2C1F20",
"$  c #361E20",
"%  c #1C2020",
"&  c #2A2624",
"*  c #352924",
"=  c #37312A",
"-  c #2B3537",
";  c #2D3739",
":  c #3A3536",
">  c #4F1210",
",  c #46191A",
"<  c #551719",
"1  c #591919",
"2  c #6F190E",
"3  c #66181B",
"4  c #75181C",
"5  c #7C191E",
"6  c #4F2919",
"7  c #6C2419",
"8  c #471E20",
"9  c #661D21",
"0  c #751C22",
"q  c #562529",
"w  c #4C342B",
"e  c #6F2B2F",
"r  c #7C323A",
"t  c #5E421F",
"y  c #594733",
"u  c #6E4A32",
"i  c #533E46",
"p  c #3A4A4E",
"a  c #3F5D65",
"s  c #3F6269",
"d  c #4A4B4C",
"f  c #574D4F",
"g  c #49565D",
"h  c #705753",
"j  c #66655C",
"k  c #445E66",
"l  c #575F69",
"z  c #7E5C66",
"x  c #436067",
"c  c #42626A",
"v  c #4F6B73",
"b  c #676767",
"n  c #6E6E6F",
"m  c #777777",
"M  c #85151B",
"N  c #85191F",
"B  c #89181B",
"V  c #8B191D",
"C  c #95151C",
"Z  c #9B191A",
"A  c #B50E19",
"S  c #A3141D",
"D  c #AD141E",
"F  c #A91B1A",
"G  c #AA1C1E",
"H  c #B3151F",
"J  c #BA171D",
"K  c #B41C1E",
"L  c #BB1B1F",
"P  c #89241C",
"I  c #97251B",
"U  c #923319",
"Y  c #A52619",
"T  c #B6271B",
"R  c #BC251D",
"E  c #A6341C",
"W  c #BC341B",
"Q  c #B9391D",
"!  c #871B20",
"~  c #991B24",
"^  c #A91921",
"/  c #B91C21",
"(  c #8C2222",
")  c #942328",
"_  c #842E35",
"`  c #952F32",
"'  c #8A3636",
"]  c #81333A",
"[  c #B0302A",
"{  c #BE3338",
"}  c #C11D19",
"|  c #D4350F",
" . c #CB2A13",
".. c #C2241E",
"X. c #C6291F",
"o. c #CA2D1E",
"O. c #C5341D",
"+. c #CC341E",
"@. c #CD3C1E",
"#. c #D53815",
"$. c #D3351E",
"%. c #D23B1F",
"&. c #C73324",
"*. c #C33638",
"=. c #875A34",
"-. c #AE4733",
";. c #CD401F",
":. c #DB4517",
">. c #D4441F",
",. c #DA451D",
"<. c #DD4B1E",
"1. c #E14D1D",
"2. c #E2501E",
"3. c #D64423",
"4. c #DE4D20",
"5. c #DE5025",
"6. c #DF552C",
"7. c #CD4930",
"8. c #DD5734",
"9. c #E04F20",
"0. c #E15427",
"q. c #E15D37",
"w. c #E1633B",
"e. c #8C3B47",
"r. c #924A4D",
"t. c #824851",
"y. c #88545D",
"u. c #B0504B",
"i. c #8F6B4E",
"p. c #967349",
"a. c #A97B4D",
"s. c #835C68",
"d. c #9C5A67",
"f. c #82626A",
"g. c #846B76",
"h. c #8B7375",
"j. c #A36973",
"k. c #CF584D",
"l. c #D86C50",
"z. c #E2664A",
"x. c #E5724E",
"c. c #E4755A",
"v. c #CC5D62",
"b. c #D16C6D",
"n. c #E27D63",
"m. c #E57A6B",
"M. c #B0875A",
"N. c #B7966A",
"B. c #A2907C",
"V. c #CC956C",
"C. c #E78769",
"Z. c #E2976A",
"A. c #E78873",
"S. c #EB9275",
"D. c #D8AB74",
"F. c #E9B17F",
"G. c #5D7F8B",
"H. c #787D88",
"J. c #867C8A",
"K. c #5C818C",
"L. c #598895",
"P. c #5E8E9B",
"I. c #5E919E",
"U. c #6D8892",
"Y. c #61929E",
"T. c #799399",
"R. c #5F93A0",
"E. c #6597A5",
"W. c #7897A2",
"Q. c #7CA0A8",
"!. c #6EA9B9",
"~. c #75A8B7",
"^. c #79B8C9",
"/. c #7ABACB",
"(. c #7BBED0",
"). c #7EC2D5",
"_. c #878588",
"`. c #868A98",
"'. c #838D9C",
"]. c #968C93",
"[. c #84909E",
"{. c #AE9895",
"}. c #ABA19F",
"|. c #8595A4",
" X c #8698A8",
".X c #9DA2A3",
"XX c #86A7B8",
"oX c #A6A9A9",
"OX c #B1A9A6",
"+X c #B3B7B8",
"@X c #D49592",
"#X c #E88A87",
"$X c #EA9B82",
"%X c #E89598",
"&X c #CEAF93",
"*X c #EAB78D",
"=X c #EAA897",
"-X c #EA9AA2",
";X c #D5A9A8",
":X c #ECB5A9",
">X c #F2BCAA",
",X c #E7CA9B",
"<X c #D9CBB1",
"1X c #F0CAAE",
"2X c #F3C4B4",
"3X c None",
"4X c None",
"5X c None",
"6X c None",
"7X c None",
"8X c None",
"9X c None",
"0X c None",
"qX c None",
"wX c None",
"eX c None",
"rX c None",
"tX c None",
"yX c #8BD5EA",
"uX c #8BD9EE",
"iX c #8CDBF0",
"pX c #91DEF3",
"aX c #8CE1F6",
"sX c #C6CACB",
"dX c #D6CBC9",
"fX c #DADADA",
"gX c #EBD2CB",
"hX c #F5D6CB",
"jX c #F2DED9",
"kX c #F0E6D0",
"lX c #F3E4DC",
"zX c #DADAE2",
"xX c #DAE1E2",
"cX c #E7E8E9",
"vX c #F5E9E6",
"bX c #F1F0EF",
"nX c #F5F4F4",
"mX c #FAFAF9",
"MX c #FDFEFE",
/* pixels */
"wXwXwXwXwXwXwXwXwXwXwXwXwXwXwXtXtXuXiXuXiXuXiXiXiXiXiXiXuXuXuXrXrXwXwXwXwXwXqXwXqXeXwXwXwXwXwXwXwXwXwXwXwXwXwXwXwXwXwXwXwXwXwXwX",
"wXwXwXwXwXwXwXwXwXwXwXeX0XwXqXwXwXwX0XwX9X9X0X0X9X0XrX).0X0XwX0X0XwX0XwX0XwXwXwXeXqXwXwXwXwXwXwXwXwXwXwXwXwXwXwXwXwXwXwXwXwXwXwX",
"wXwXwX0XwXwXwXwXwXwXwXeXwXwX0X8X7X5X3X3X4X3X3X3X3X3X6X3X4X4X4X7X8XwXwXwXeXwXwXwXeXeXqXqXwXwXwXwXwXwXwXwXwXwXwXwXwXwXwXwXwXwXwXwX",
"wXwXwXwXwXwXwXwXwXtXyXyXtXtX9X4XXX X[.'.T.'.[.[.'.'.[.'.`.|. XXX4X8XtXtXiXrXyXeXeXqXeXqXqXwXwXwXwXwXwXwXwXwXwXwXwXwXwXwXwXwXwXwX",
"wXwXwXwXwXwXwXwXtXrXrXiXiXtX8XXX`.g.f.s.s.z f.z z z s.s.z s.g.`.XX7XrXiXuXuXrXrXeXqXqXqX0XwXwXwXwXwXwXwXwXwXwXwXwXwXwXwXwXwXwXwX",
"wXwXwXwXwXwX0XwXwXwXwXwXrX9X4X Xg.t.] ] ] ] ] ] r e.] _ _ ] t.g. X4XqXtXwXqXqXqXqXqXqXeXwXwXeXwXwXwXwXwXwXwXwXwXwXwXwXwXwXwXwXwX",
"0XwXwXwXwXwX9X7X7X4X3X5X5X3XXXJ.y._ B B B P P I ! ( ( B B B _ y._.XX3X4X4X4X4X7X7X9XqXyXqXeXwX0XwXwXwXwXwXwXwXwXwXwXwXwXwXwXwXwX",
"wXwXwXwXtXtX9X4XXX|.'.'.|.'.J.s.e.! C C Z Y I Y Y Y I Z C C ( e.s.J.'.[.'.'.|.XX5X9XyXyXyXqXwXwX0XwXwXwXwXwXwXwXwXwXwXwXwXwXwXwX",
"wXwXwXtXuXtX8XXX`.g.s.z z y.t.t.` ~ S F T W Q W W W W T F S ~ ` e.y.s.z z s.g.`.XX4XtXiXyXwX0X0X0XwXeXeXwXwXqXeXwXwXwXwXwXwXwXwX",
"wXwXwXtXtX9X5X|.g.t._ r r _ _ ) ~ G / R O.@.>.3.>.;.@.+.../ D ) ) _ _ r _ r h g.|.5XwXtXtX0XwXwXwXwXwXqXwXwXeXqXwXwXwXwXwXwXwXwX",
"wXwXwX8X7X5XXXJ.s._ ! B B V ~ I F K ..o.$.<.<.1.2.1.3.%.o.R K G I C ! ! M B _ y.J. X5X7X9X9XwX0XwXwXeXqXqXqXeXeXwXwXwXwXwXwXwXwX",
"tXwX8X5XXX|.J.f.e.~ C C Z I Y T T ..o.$.%.:.1.1.2.2.,.3.%.o.X.T T Y Y Z C C ~ e.s.J.|.XX5X0XtXuXyXwXqXqXqXqXqXeXwXwXwXwXwXwXwXwX",
"tXwX7XXX`.g.y.e.` ~ S F T W W O.+.+.%.%.:.<.<.9.2.<.<.3.3.%.@.+.O.W Q T F S ~ ` e.t.g.`.XX6XyXuXyXqXqXqXqXqXeXqXwXwXeXqXwXwXwXwX",
"uXwX4X|.g.t._ ) S ^ K R O.@.;.:.3.3.,.<.<.<.<.<.<.<.9.<.<.>.>.>.3.3.@.O.R K ^ ~ ~ _ t.g. X5XwXuXyXqXqXeXqXqXqXeXwXwXwXeXwXwXwXwX",
"uXwX4X|.s.r M C S K ..o.%.<.<.5.0.0.6.q.6.6.6.6.5.5.<.<.<.<.<.<.<.<.,.%. .R L Y ) ` t.f.T.XX/.(.9X9XeXeXyXqXqXqXwXwXwXwXwXwXwX0X",
"aXtX3X'.s.r B Z F R o.$.>.4.0.0.w.z.z.z.z.z.z.8.6.5.5.<.<.9.9.2.2.<.:.#. .o.X.{ u.v.j.h.H.G.Y.!.^.9XyXyXyXyXyXyXyXyXyXeXwXwXwX0X",
"aXrX6X|.s.r B Z T O.+.,.,.<.0.q.z.n.m.m.m.m.c.z.q.4.4.9.<.<.<.<.<.1.1.#.#.+.3.k.b.@X{.].n k v G.!.).rXiXiXyXyXyXyXyXyXyXqXqXwXqX",
"uX9X3X'.z ] V Y Q @.:.:.,.4.6.z.m.m.#X#X#X#Xm.c.z.6.4.<.<.9.9.9.<.<.<.:.:.0.8.C.=XdXdX.Xn p p v R.^.qXrXyX0X0XwXqXqXqX0XqXqXqXwX",
"7X3XXXJ.s._ I Y Q >.<.1.1.1.6.z.m.#X%X%X%X%X#Xm.z.8.0.:.:.<.4.6.q.w.w.q.q.w.c.$X>XvXxX+XH.d i c G.XX5X5X5X4X3X3X4X/.7X7X8XqXwXyX",
"|.`.J.f.e.) I T O.>.0.1.1.<.q.z.m.#X%X-X-X%X%Xm.z.6.<.:.:.<.5.w.x.C.S.S.C.S.S.:XhXvXcXsX.XH.n m J.].].'.'.T.U.T.U.T.T.~.4X8XeXuX",
"s.s.s.e.` ~ / R +.>.<.1.<.4.6.z.m.#X%X-X-X%X#Xm.x.6.<.:.:.,.0.x.S.=X>X2X>X>X>XgXvXnXbXfXsX+X}.].J.v.d.s.z b b j j j n T.~.7XwXuX",
"r r _ ) ) ^ ^ &.@.>.<.2.<.4.6.z.m.#X%X-X%X%X#Xm.z.6.<.:.:.4.q.C.=XhXlXlXlXjXvXvXbXnXnXbXcXxXdX@Xb.u.{ ' r r u i t y h n Q.7X0XuX",
"0 ! ! C S D / X.%.,.<.1.<.<.6.z.c.m.#X#X#X#Xm.m.z.6.<.1.6.w.x.A.;XdXzXcXcXnXnXmXmXnXnXbXvXvXgX@Xv.*./ G U u u u u u h n T.XX4X7X",
"4 M M C S / / o.%.3.<.<.<.<.6.w.z.m.m.m.m.m.c.z.8.6.6.q.x.C.Z.@X&XOX+XsXxXnXMXMXmXmXbXlXhX2X=XA.k.*...[ -.p.p.a.a.h.B.B._.T.T.T.",
"5 M M C S D / X.$.,.4.1.5.2.5.6.8.z.z.z.z.z.z.q.6.4.q.x.S.=X;X{._.h._.oXsXcXMXMXMXnXvXgX:X$XC.z.8.;.7.8.l.N.D.&X&XOXOX{.B.m j j ",
"5 M M C S D / ..$.3.1.4.4.4.<.5.3.8.8.8.q.0.0.4.3.0.w.m.=XgXgXoXm d d m oXfXnXMXMXnXlX2X$Xx.w.<.3.>.6.x.Z.*X,X1XkXfX<XOXm h u u ",
"0 5 M C S D L X.%.3.4.4.4.4.4.4.1.1.1.4.,.4.<.,.1.9.w.S.>XvXzX.Xb - = l ].+XfXbXnXbXjX:XS.w.<.:.:.>.8.c.*X,XkXkXlXlXdX{.z u w 6 ",
"M ! ! C S / L X.%.,.<.5.4.<.4.<.1.,.,.,.:.1.1.:.:.2.w.S.2XcXxXoXb - . : b ].oXsXxXvXjX:XC.w.:.| | @.8.C.*X1XkXkXkX<XOXB.h w 6 X ",
"0 M C C S D L X.%.,.5.<.2.1.<.<.4.1.1.1.1.,.1.:.:.<.w.S.>XvXzX.Xb -   & : j m .XsXcXjX>XS.w.#.|  .O.7.m.:XhXkXkX,X{.N.M.u w + X ",
"0 ! ! C S D / X.%.,.<.<.4.4.4.<.3.1.,.4.,.1.1.:.1.4.w.S.>XjXfX+Xn : & % % - d U.+XfXjX>XS.w.3.|  .L *.b.;XgXkX<X&XM.p.u y * @   ",
"4 4 0 ! C D / ..+.%.3.<.4.<.4.4.9.4.4.4.4.4.4.1.:.<.w.S.>XjXzX+XU.f : & & ; f B.+XfXlX>XS.w.>. .L / { b.:XkXfX<XN.M.=.t w + % . ",
"< 9 3 0 ~ D / L X.$.%.3.,.4.4.4.4.4.4.4.4.4.4.,.:.<.w.S.>XvXvXsX XB.b b j b m '.sXvXlX2XS.w.#. .} L { b.&X<XkX<XN.p.u t * & %   ",
"$ 8 8 0 ! D J L ..X.o.%.%.<.5.4.4.4.4.4.<.<.<.:.:.2.w.A.>XlXbXxXsX+X{..X.X.XoXsXxXcXcX2XS.w.,. .} L *.v.%X1X1X,XN.p.=.t t & % % ",
"@ @ 8 < N D J J / / ..X.%.3.4.4.4.<.4.4.<.<.<.<.:.0.w.C.:XcXbXnXcXfXfXfXdXfXfXcXbXbXlX:XA.w.3. .} L *.l.$X,X1X,XN.p.=.t = & %   ",
"  . $ < 0 C ^ H A H / } +.%.4.4.<.4.4.4.4.<.<.<.:.2.w.C.=XgXlXvXnXnXnXnXmXnXnXnXvXlXgX=XC.8.%. .K / [ k.D.,X,X,XD.a.=.u t + % . ",
"    o , 0 C S H H H / ..X.%.%.%.3.<.4.1.<.0.0.<.<.<.8.x.C.=X2XhXlXmXMXMXMXMXmXvXhX>X=XA.z.7.+.R F ^ [ k.V.F.F.F.D.a.p.u t + .   ",
"    o , 9 M ~ S H H H L } ..X.+.,.<.4.4.1.4.4.<.1.4.0.w.x.C.S.>XhXvXMXMXMXMXvXhX>XS.C.z.7.&.L H F Z ` u.V.D.*XF.D.D.M.u y &     ",
"% % # , 9 0 M S D D H J / / ..X.%.<.4.4.4.<.<.4.<.<.5.5.0.w.c.$X>XjXnXMXmXnXlX2X$Xc.8.7.&...K S C V ( u.a.Z.D.D.D.N.N.p.y & %   ",
"; - : 8 q 9 0 C C S H H / H / ..+.%.>.<.,.3.>.3.,.,.<.>.%.3.8.m.-XgXjXcXjXjXgX%Xn.8.%. .X./ D C M 4 0 =.a.M.V.N.N.M.M.j d y - - ",
"c a g g w q 3 0 M ~ S H A H J / X.+.+.%.%.%.$.%.%.+.+.#.$.$.%.k.m.@X-X;X;X;X@Xm.k.3.O...K ^ C M 4 3 9 e u r.i.p.p.p.M.j j x s s ",
"E.P.G.l d w 8 < 4 N C S D D H J ..X.X.X.X.X.X.X.X.X.X.} ....&.*.k.v.v.b.b.b.v.k.*.../ / G Z ! 4 1 , 6 = t y y t t y y j G.K.P.Y.",
"(.^.~.G.k : $ , 3 5 B ~ S A / / / / L / L / L L / / / } } } / / { { { { { *.{ { / / / ^ Z V 0 3 , & o & & = = = = = p v U.!./.(.",
"iX0X^.Y.k : $ < 1 5 C ~ ^ / / / / ^ H H D H / H H H ^ D ^ H H H H J D / / } / / / H ^ S ~ M 0 q w : - - ; ; = - ; = p v E./.9XuX",
"pXuX6XE.l i , < 4 N C ^ R R R R / S S S S S S S S S S S D S S D A A A J } } } } L / A S C N 0 e f g s s s s a a s s v P.~.7XtXpX",
"pXwX5XW.b i 3 4 M C S T &.+.&.R ^ ~ C C C C C C ~ C C C ~ C C S A A } } } o.+. .} H D S C M 0 h b G.Y.Y.Y.P.L.L.L.P.Y.~.(.9XtXuX",
"iXwX3XW.z r 5 M Z S / X.+.;.;.Q Y ~ ! 5 N ! ! ! M M ! ! M M ~ C S D / ..$.%.%.+.../ H S C M r z H.Q././././././././.(.).8X9XwXrX",
"iXwX3X'.z r M C S K ..o.%.%.@.Q ) P 3 4 4 0 4 4 0 0 9 4 4 4 4 M C C D R +.%.3.$.o.../ S C M ] s.'.5XwXuXtXwX0XwX0X0XwXwXwX9XwXwX",
"iXtX6X'.z e.C C G ..X.$.$.%.O.E P 3 < < < < < < < < < < < < < 3 3 4 N ~ T +.%.$.$.X.R F C M r s.|.6XiXpXpXuXyXuXyXtXtXtXwXwXwXwX",
"iXrX6XW.f.e.! Z T O.%.$.$.o.R I 4 , O O O O O O O , O O O O , , , < 3 N I R o.$.#.+.O.T I V r z |.6XiXpXuXyXyXyXyXyXtXtXwX0XwXwX",
"iXwX3X'.f.' ! Y W ;.%.$.o...^ ! 9 O & @ @ o # # # # # o o & o o o # 8 3 V ^ X.o.$.>.;.W Y P ] z '.3XwXiXtX0XwXwXwXwXwXwXwXwXqXwX",
"6X5XXXJ.f.' I Y W @.%.@.R G ~ 0 q w ; - - ; ; ; ; ; - ; ; - ; ; - - : q 0 ~ F T +.%.%.W Y I ' y.J.XX5X7X9X9XwXtXwXwXwXwXwXqXwXqX",
"|.'.J.j.r.E [ W O.@.+.T I ! 9 e d g c s k k a c k k k k c k s k s a k d e 0 V F T O.+.O.W [ -.r.d.J.'.3X3X0XqXwXwXwXwXwXwXeXqXwX",
"s.s.y.u.-.-.O.@.$.X.R Z M < q d l K.E.E.Y.Y.Y.E.P.P.I.E.Y.P.E.P.R.P.G.l i q 3 0 Y T o.+.O.O.-.-.r.d.g.`.XX5XwXyXyXwXwXwXwXwXwXwX",
"r e.' ` -.;.;.+.X.R ^ ! 3 , w g K.~.^./.^.^.^./././.^.^.^.^.^.4X(./.!.G.k ; , 1 M G ..o.#.>.@.Q ` ' t.m  X5XwXyXyXwXwXwXwXwXwXwX",
"4 0 0 I E Q ;.W T ^ ~ 0 q - p v E./.0XyXeX0XwX0X0X0X0X0X9XwX0XyXrX9X/.E.v p : q 0 V ^ T Q Q Q E I 0 r z T.5X0XtXyXwXwXwXwXwXwXwX",
"> > 3 4 7 U U U V 5 0 q i p K.I.!.7XyXiXiXtXyXyXyXiXeXiXeXtXyXiXiXwX).^.P.v g i e 0 5 B U U U P 2 2 q j U.3X0XtXyXqXwXwXwXwXwXwX",
"O X > 6 6 7 7 1 1 < q i l G.E.!.(.9XwXiXuXtXyXyXyXyXyXyXyXyXyXyXuXtX9X(.!.E.G.l i q > < 1 7 7 > > , w f U./.qXyXyXqXwXwXwXwXwXwX",
"o o o + + * + O O + : k K.~./.7X9X0XwXwXwX0XeXeX0XwXwXwXwXeXeXwXwX0X9X9X7X/.~.G.k : $ O + & + o o @ : k E.3XqXyXyXeXwXeXwXwXwXwX",
"- ; ; ; - - - - - ; p v E./.wXtXtX0X0XeXeXeXeX0XeXeXwXwXwXwXwXwX0X0XeXyXyX0X/.E.v p ; - - - ; - - - p G.E./.qXyXyXqXqXeXwXwXwXwX",
"k k c c c k s s a x v I.!.7XtXuXiXeXeXwX0X0XeXeXwXwXwXwXwXwXwX0X0XwXeXiXuXyX8X!.L.G.k a k k c k a c v P.!.6X0XyXyXqXqXqXwXwXwXwX",
"E.I.I.I.I.I.I.I.P.I.E.!.).8XwXtXeXeXeX0XwX0XwXwXwXwXwXwXwXwXwXwX0XwXeXtXuXyX9X/.^.R.I.I.P.P.I.P.P.I.E.^./.7XqXyXeXwXwXwXwXwXwXwX",
"/.^.^.^.^./.^.^.^.^.).7X8X9XwXwXeXwXeX0X0X0XwXwXwXwXwXwXwXwX0XwX0XwXwXeX0X0X9X8X(.4X^.^./.^././.^.^.^./.7X0XqXqXwXwXwXwXwXwXwXwX",
"0X0X9X0X9X0XqX0XwX9XwX0XwXwXwXwXwXwXwXwXeXeXwXwXwXwXwXwXwXwXwXwXeXwXwX0XeX0X0X0X0X0X0X0X0X0X0X0X0XwX0XwX0XqXqXwXwXwXwXwXwXwXwXwX",
"uXuXuXpXpXuXuXpXuXuXuXtXtXwXwXwXwX0XwXwXwXwXwXwXwXwXwXwXwXwXwXwXwXwXwXwX0XwXwXyXyXpXyXpXiXiXiXiXiXiXtXuXyXyXqXqXqXqXwXwXwXwXwXwX"
};
