/* XPM */
static char *ba0e954989814452f99e07e7f5ce3bf6eLFMLB84irWzaOKf[] = {
/* columns rows colors chars-per-pixel */
"64 64 235 2 ",
"   c #2C1E1E",
".  c #282625",
"X  c #2B2B2A",
"o  c #362425",
"O  c #352929",
"+  c #3C2A29",
"@  c #3C332B",
"#  c #2A2E31",
"$  c #2C3536",
"%  c #353C3E",
"&  c #393838",
"*  c #501D1D",
"=  c #6A1D1D",
"-  c #54251E",
";  c #722B1E",
":  c #69331C",
">  c #741F21",
",  c #492727",
"<  c #5A2626",
"1  c #453129",
"2  c #543529",
"3  c #453B37",
"4  c #563637",
"5  c #672727",
"6  c #782827",
"7  c #673825",
"8  c #6D342E",
"9  c #4B4236",
"0  c #594A37",
"q  c #774C33",
"w  c #7B603D",
"e  c #2D3C40",
"r  c #373E40",
"t  c #443E42",
"y  c #593B40",
"u  c #6C3F41",
"i  c #364346",
"p  c #394143",
"a  c #3A4F53",
"s  c #454544",
"d  c #544B4F",
"f  c #455559",
"g  c #575755",
"h  c #685945",
"j  c #6A514B",
"k  c #726755",
"l  c #4C5E64",
"z  c #496066",
"x  c #4C666E",
"c  c #4C686F",
"v  c #556468",
"b  c #4D6A72",
"n  c #5A7179",
"m  c #686867",
"M  c #6E7274",
"N  c #952A1F",
"B  c #872626",
"V  c #8F2529",
"C  c #8B2929",
"Z  c #942323",
"A  c #992626",
"S  c #932A29",
"D  c #9C2B29",
"F  c #87362A",
"G  c #953626",
"H  c #9F3028",
"J  c #993937",
"K  c #A92624",
"L  c #A32A29",
"P  c #AC292A",
"I  c #B92A26",
"U  c #B32B29",
"Y  c #AA3627",
"T  c #B73925",
"R  c #A43536",
"E  c #AF3032",
"W  c #CA371F",
"Q  c #C72D27",
"!  c #C93A26",
"~  c #C33129",
"^  c #CC3429",
"/  c #D23724",
"(  c #CC3732",
")  c #9D441C",
"_  c #A4451E",
"`  c #9A4623",
"'  c #904B39",
"]  c #A94A26",
"[  c #B84727",
"{  c #B34938",
"}  c #85663F",
"|  c #C6431F",
" . c #E3551F",
".. c #E65C1D",
"X. c #C74A27",
"o. c #D54525",
"O. c #D64727",
"+. c #DB4C26",
"@. c #C95428",
"#. c #CD5B29",
"$. c #D55629",
"%. c #DC5329",
"&. c #DC5B29",
"*. c #D45334",
"=. c #E15425",
"-. c #E45D24",
";. c #E25B28",
":. c #E15834",
">. c #E66124",
",. c #E7632A",
"<. c #E96529",
"1. c #E96C34",
"2. c #E86B38",
"3. c #E9723B",
"4. c #983E41",
"5. c #A83C40",
"6. c #944043",
"7. c #9E4644",
"8. c #965451",
"9. c #A8544C",
"0. c #A85B53",
"q. c #96704C",
"w. c #B16F57",
"e. c #985F65",
"r. c #98666B",
"t. c #976B73",
"y. c #997071",
"u. c #A17071",
"i. c #D24D46",
"p. c #E06344",
"a. c #E56E46",
"s. c #E97643",
"d. c #E97748",
"f. c #EA7A54",
"g. c #EA7B57",
"h. c #D26D69",
"j. c #DA7778",
"k. c #B18858",
"l. c #9D8464",
"z. c #9B8073",
"x. c #B88C63",
"c. c #B99468",
"v. c #AB8C75",
"b. c #AA957A",
"n. c #EB8659",
"m. c #F28958",
"M. c #C49468",
"N. c #EB8A6A",
"B. c #EC926A",
"V. c #EC8C75",
"C. c #E88978",
"Z. c #EC9776",
"A. c #F39A73",
"S. c #C9A26E",
"D. c #CAA478",
"F. c #F8A17B",
"G. c #5A7981",
"H. c #947981",
"J. c #688A93",
"K. c #6C96A2",
"L. c #6C99A4",
"P. c #6E9FAA",
"I. c #769AA5",
"U. c #74A1AD",
"Y. c #7DACB9",
"T. c #7DB1BE",
"R. c #7FB4C2",
"E. c #868787",
"W. c #978994",
"Q. c #998A92",
"!. c #979290",
"~. c #AF9D81",
"^. c #869BA7",
"/. c #9699A4",
"(. c #96A1AD",
"). c #98ADB9",
"_. c #A5A7A8",
"`. c #AEADAD",
"'. c #B5B6B7",
"]. c #D29480",
"[. c #ED9587",
"{. c #ED9D97",
"}. c #CFAC8E",
"|. c #EFA687",
" X c #EEAB91",
".X c #E8B99A",
"XX c #F3B69C",
"oX c #CDB9AD",
"OX c #EDA9AA",
"+X c #F2BDA6",
"@X c #EBB3B2",
"#X c #DAC39B",
"$X c #E8CDA6",
"%X c #F4C2AC",
"&X c #EDC5B6",
"*X c #F4C9B6",
"=X c #FCCAB5",
"-X c #4AAD4A",
";X c #96B6C4",
":X c #89C1CF",
">X c #96C0CF",
",X c #98C1CF",
"<X c #4AAD4A",
"1X c #4AAD4A",
"2X c #4AAD4A",
"3X c #4AAD4A",
"4X c #4AAD4A",
"5X c #4AAD4A",
"6X c #4AAD4A",
"7X c #4AAD4A",
"8X c #4AAD4A",
"9X c #4AAD4A",
"0X c #4AAD4A",
"qX c #4AAD4A",
"wX c #4AAD4A",
"eX c #4AAD4A",
"rX c #4AAD4A",
"tX c #4AAD4A",
"yX c #C5C7C7",
"uX c #CFD0D0",
"iX c #DCDCDC",
"pX c #ECD5CF",
"aX c #F6D7CA",
"sX c #F5E4DC",
"dX c #DBDEE2",
"fX c #E3DEE3",
"gX c #DDE3E5",
"hX c #E6E7E8",
"jX c #F6E8E5",
"kX c #F9F1EC",
"lX c #E6ECF5",
"zX c #EEF2F5",
"xX c #F5F5F4",
"cX c #F9F7F6",
"vX c #FCFEFE",
/* pixels */
"qXqXqXqXqXqXqXqXqXqXqX0X0XqXqXrXrXeX5X(.t.4.S Z Z V V V V V V V V V S V V V V Z Z V 4.t.(.1XeXrXrXqXqXqX9XqXqXqXqXqXqXqXqX7XqXqX",
"qXqXqXqXqXqX0XqXqXqXqXqXqXqXqXwXeXeX;X(.t.4.V Z Z V V S S S S S S Z S S S S S Z Z S 4.t./.;X0XeXwXqX0XqXqXqXqXqXqXqXqXqXqXqXqXqX",
"qXqXqXqXqXqX0XqXqXqXqXqXwX0X8X8X5X;X).Q.e.4.A A D D L L H H H H L H H H H L H A A D 4.r.W.).2X8X7X0XqXqXwXqXqXwXqXqXqXqXqXqXqXqX",
"qXqX0XqXqXqXqX0X8XqXqXqXwXwX8X2X;X(.W.t.8.5.L P Y T Y [ [ Y T T Y T [ Y [ Y T Y P P R 8.t.W.(.;X2X0XwXeXwXwXwXwXwXwXwXwXwXwXwXeX",
"qXqXqXqXqXqX0XqX0XqXqXwXeXwX5X;X/.H.r.8.R E U I T X.X.X.X.X.X.X.| X.X.X.X.X.X.T T U E R 8.r.H./.;X6XwXrXrXrXwXwXeXeXwXeXwXeXqXeX",
"0XqXqXqXqXqX0XqXqXqXqXwXeX9X3X(.H.8.4.R E I ~ ^ O.%.&.&.&.&.&.&.&.&.&.&.&.&.$.O.! ~ I P E 4.8.y.(.3XqXwXwX0X9X9X0X0X0X8X7X0XqXqX",
"qXqX0X0X0XqXqXqXqXqX8X8X7X3X).Q.r.7.Y U I ~ ^ O.%.;.<.<.1.1.2.2.1.2.2.1.1.,.-.%.O.^ ~ I P L ' r.W.).3X2X2X;X2X3X,X,X,X,X,X,X3X>X",
"qXqX0XqX0XqXqXwXwXwX8X3X;X(.Q.u.9.] T T ! ! O.+.=.-.1.3.d.f.g.n.n.g.f.s.2.1.-.=.+.O./ ! ~ T { 0.u.Q././././././././././././././.",
"0X0X0X0X0X0X0XwXrXwX7X;X/.H.r.0.{ @.X.O.O.$.%.=.=.<.<.s.g.g.V.[.V.V.V.n.s.1.<.-.=.=.+.O.o.X.X.9.0.e.t.t.t.t.t.t.y.r.t.r.t.t.t.r.",
"wXwX0XwXeX0X0XeXwX9X3X/.t.8.' { [ $.&.;.&.-.-.-.<.<.2.f.V.[.{.{.{.{.[.N.f.2.-.-.-.;.;.;.=.&.#.@.{ 4.4.4.4.4.4.4.4.' 4.4.4.4.6.4.",
"0X0X0X0X0X0X0X8X5X3X).W.e.' L T X.&.<.<.<.<.>.<.-.<.2.f.V.{.OXOXOXOX{.V.g.1.-.-.-.<.;.<.<.<.&.@.Y E A Z B V A A S V A V C B 6 6 ",
"0XqX9XeXeXeX8X5X;X(.W.t.7.R K ~ o.=.<.<.>.>..... .-.2.g.[.{.OX@X@XOX{.C.g.2.-.....-.<.<.<.<.&.O.T K K Z Z V Z Z K K K Z 6 > = = ",
"0XqXqXeXeXeX5X;X/.H.r.7.5.E I Q O.;.<.<.<...-.-...-.1.f.C.{.OX@X@XOX{.V.g.1.-.-.....>.>.<.<.;.O.! I K K A Z A K K K K V > - * * ",
"qXqX0XeXeXqX3X/.H.8.4.E U I ~ / +.;.>.,.<.<.<.>.>.<.2.g.V.{.OXOXOXOX{.V.g.2.<.-.<.<.,.,.<.<.;.+.O.~ I K D A A P I U K V 5 , o O ",
"wX0X0X8X5X3X).W.e.4.L K I ~ ^ O.+.-.>.1.3.3.d.s.d.d.f.g.V.[.{.{.{.{.[.V.g.g.d.d.s.d.s.2.1.1.-.+.O.^ Q U P D A A P P R F 4 3 r i ",
"eXeX8X2X;X(.W.t.7.R K I ~ / / +.=.-.1.s.m.A.Z.F.F.A.A.V.B.C.C.N.j.V.V.V.A.A.A.A.F.A.A.m.3.<.-.=.+.O.! I P D Z Z Z V C u j v c b ",
"rXeX5X;X/.H.e.7.5.U I ^ / O.%. . .-.2.n.F.XX*X=X*X%X.X|.V.n.d.d.a.d.n.V.|..X%X*X*X%XXX[.n.1.-...=.+.O.! Y R S B = 5 8 d M G.I.U.",
"eX9X2X(.H.e.4.R P I Q ^ O.%.-.-.-.,.a.B..XpXjXjXkXsXaX+XZ.g.1.,.,.1.f.A.+XaXsXxXkXjXaX XB.s.>.-.-.;.$.X.T H B 5 < , t v J.-X-X1X",
"5X>X).Q.e.4.L A K P I X.O.&.,.1.1.3.n.Z.@XuXdXlXzXxXsX=X|.n.3.1.1.3.m.|.&XsXcXzXlXhXpX.XZ.n.3.1.1.,.&.X.[ S 6 4 2 t f G.U.1XwXeX",
"/./.W.u.9.L K K Z S D Y @.&.1.s.m.B.Z.}.}.`.'.uXhXcXkXaX+XF.Z.B.B.A.|.+XaXkXxXgXuX'.`.`.}.Z.N.m.s.2.&.[ G 6 8 y d l G.K.-X6XeXtX",
"t.t.e.9.5.E U A B ; 6 ` [ &.3.m.|. XoX}.!.E.E.`.uXlXcXjXaX*X+X+X+X+X*XaXkXkXzXuX).E.E.!.}.oXXXF.m.3.$.] F : 4 d n J.P.-X1X7XeXeX",
"4.4.4.5.E U P V 5 1 1 : ] #.3.A.XXpXpX`.M g g E.`.iXxXcXkXsXsXsXsXsXsXkXcXxXiX`.H.f f t.`.uXaXXXA.s.#._ : 2 3 z G.-X-X6X7X7X9XwX",
"6 C C V A P A 6 - + @ 7 ` #.d.F.=XjXdX_.M % & m !.yXfXhXxXxXcXcXxXxXxXkXhXdXyX!.m & p M `.gXjX=XF.s.#._ : 1 % c I.-X0XeXeX0X0XwX",
"5 5 > > B V 6 5 1 O @ 7 ` #.d.F.=XjXgX_.M $ . t m !.'.yXdXzXvXvXvXvXzXgXuX`.!.m 9 . $ M _.gXkX=XF.s.#._ : 1 p c P.1XwXtXeXwX0X0X",
", , < , < < < + o X 1 7 ) #.d.F.=XjXdX`.M & . X s m M _.yXhXvXvXvXvXhXyX_.M m s X . @ M `.dXjX=XF.s.#.) : @ i c L.1XwXtXeXqXqXqX",
"o o o + + o + O . X 1 7 ] #.s.F.=XsXdX`.M t X . X & g E.'.gXcXvXvXxXhX'.E.g & X X X s M `.dXsX=XF.d.#.) : 1 p x L.-X0XeXwXqXqXqX",
"+ o + , @ @ @ O X X 1 : ` #.s.F.=XsXgX'.E.m s & & % g E.'.gXcXvXvXcXgX'.E.g % & 3 s v E.'.gXsX=XF.s.#.) : 1 p x L.1XwXeXwXqXqXqX",
", , 4 < 7 7 7 1 O O @ 7 ` #.s.F.=XjXhXuX_.E.M m m n z._.yXhXvXvXvXvXhXyX/.E.m m m M E._.uXlXsX*XF.d.#.) : 1 i x L.-X0XeXqXqXqXqX",
"5 6 8 F ' ` ' q 1 O + : ) #.d.F.*XjXzXgXuX'.`._._._.`.yXiXzXvXvXvXvXzXiXyX`.`._._._.'.uXgXzXjX=XF.s.#.) : 1 i x L.<X8XeXqXqXqXqX",
"6 B C ] [ X.[ ' 7 @ @ 7 ` #.s.F.%XsXxXzXhXgXiXiXuXiXfXhXhXxXxXcXcXxXxXzXhXiXiXiXiXiXfXhXzXkXsX%XA.s.#.) : 1 r b K.;XqXeXeXqXqXqX",
"B B V Y [ $.X.] q - 2 : ] #.2.N.XXaXsXkXxXxXcXcXcXcXxXkXkXsXsXsXsXsXsXjXkXxXkXxXcXcXxXxXkXsXaX XB.a.@.) : + e b K.-XqXeXqXqXqXqX",
"5 5 6 S [ X.X.] ` q q ) ] X.:.g.Z.XX%XaXjXcXvXvXvXvXcXsXaX*X%X+X+X%X=XaXsXcXvXvXvXvXcXkXaX*X.XZ.f.:.X.G 5 @ r b K.1X8XtXqXqXqXqX",
"* , < 6 G Y T ] { ] ] [ ! ( :.%.f.B. X+XaXkXvXvXvXvXkXaX%X|.Z.B.B.Z.|.%XaXkXvXvXvXvXkXaX%X|.N.f.p.O.Q G 5 + i x K.<XqXwXwXqXqXqX",
"O O 1 < 6 G Y [ [ @.@.X.^ ^ ( o.*.a.n.|.*XjXxXvXvXcXjX%X|.n.s.3.3.s.n.|.*XsXcXvXvXxXjX*X|.n.a.:.O.^ U B < + r x L.-X8XrXwXqXqXqX",
"e i s 4 4 6 F Y [ $.$.O./ ^ Q / / ;.a.N.XXpXsXjXjXsXaXXXB.s.,.....,.s.B..XaXsXjXjXsXaX XB.a.=.o./ I P B 5 , t b L.1X7XwXeXqXqXqX",
"b b v d 4 8 6 A ] X.O.O.^ Q Q Q / o.:.a.j.{.@X@X@X%XXXA.n.1..... ...1.n.A.XX+X&X@XOX{.j.f.*.O./ ~ U K Z 6 < 4 m I.1XwXrXwXqXqX0X",
"U.L.J.n d 4 < 5 S Y T ! Q Q Q Q / / o.i.h.h.j.C.Z.Z.B.n.3.1.>.....>.1.3.n.B.Z.V.C.j.h.h.i.O./ Q I K A B > 6 j m ^.1XwXrXrXqXqX0X",
"1X-X).J.x s , < 6 G L P U Q Q Q Q Q ^ ( ( ( *.i.p.d.3.3.1.,.<.>.>.>.,.1.1.d.a.p.i.i.i.( ( Q Q U P L A Z Z C 6.r./.;X9XeXwXqX0XqX",
"rX9X<XP.G.f p 4 8 6 C S K K K U U P Q I I Q ~ ! O.%.&.&.;.=.;.;.;.&.&.-.-.&.$.O.Q Q I I I U E P L A D A A D 7.r.Q.).3X5X8XqXqXqX",
"rXeX7XR.L.n v d 4 5 5 > 6 B V B V V Z Z K K I I T | | X.o.+.o.o.+.+.o.o.o.| | T Q I K K A V C S D L K Y T T { 0.u.W.(.;X3X8XwXrX",
"rXeX7X1XR.U.J.n d 1 , * * = 5 < < 5 5 6 V A K K P Y T W W W ^ / / W W W T T T K K K L N 6 5 5 6 S P I ! X.X.@.9.0.t.y./.;X7XeXrX",
"qX9X9X7X6X<XY.J.v s + o o + + + + o , 5 6 V D K L D L Y T I ~ Q ^ ^ ~ I E L N L L N B 6 < , < 5 C P ~ ! O.%.$.X.{ ' e.y./.2X9XrX",
"qX9XqXeXwX9XR.U.n f p % r r r $ # X O , 5 6 V C D J R E E i.i.i.i.i.i.E E { J S S C 6 < , O + < B P Q ( +.=.%.X.T Y 7.r.Q.).3X2X",
"qXqXqXeXeXeX6X-XK.G.c c b x z a % # . o , 5 8 F ' 9.9.h.h.j.j.j.j.j.j.h.w.0.9.' F 8 5 , o   o < 6 L Q / ( +.+.o.X.W { 0.y.Q./.(.",
"0XqXwXqXeXqX9X<XR.U.K.L.L.L.J.b a $ .   o , 4 8 q.w.M.D.}.OX@X@X@X@XOX{.D.x.w.q.q 4 , o . . o , 6 D P ~ ^ / O.O.o.o.#.9.w.r.r.t.",
"0XqX0XqX9XqX8X7X2X<X:X<X1X-XY.J.z % . . . O 4 j q.M.}..X&XpXsXjXjXfXpX&XXX}.c.q.h 3 O . . . O < 5 Z L P I Q ^ O.$.%.$.@.{ 7.4.4.",
"qXqXqXqXwX0X0X0XqXqX7XwXwX9X1XU.n f % # . X 3 k l.D.#X%XpXiXhXhXhXfXfXaX$X.X}.y.h 3 O # $ % t 4 8 6 C S K K T T X.@.[ ] G S B 6 ",
"qXqX0X0X0XqX0XwXwXwXrXtXrXeX1X-XK.G.z a $ # 3 k b.}.$X$XoXoXoX'.oX'.oXoX$X$X}.v.k 3 $ % a z l g 4 5 5 6 > B V G G ) _ G F 5 = = ",
"qXqX0X0X0XqXqXqXqXqXeXeXrXqX8X1X).P.J.c i % s k b.#X$X#X}.~.y.z.z.u.b.}.#X$X$Xb.k p $ a b J.J.n g 4 * * * < 5 < : 7 7 < < - * * ",
"qXqX0XqX8XqXqXqXqXqXqXqXqXqX8X8X4X<XT.J.f e 9 k ~.$X$X#Xk.q.8.q w w q.c.#X$X$Xb.k 9 p z J.T.T.K.n t o o o , + , 1 1 1 1 + + O O ",
"qXqXwX0XqXqXqXqXqXqXqXqXqXqXqXqXeX8X:XJ.b i 9 k b.#X#XD.k.q.w ' 8 ' } k.D.#X#Xb.k 9 i c K.1X1XU.G.f r r r r p p r i r r p p p % ",
"qXqXqXqXqXqXqXqXqXqXqXqXqXqXqXrXtXeX<XL.z $ % h l.D.#XD.k.w.w q.} q.k.c.S.#XD.l.h & % c L.1X4X-XL.G.b x x x b x x x b x c c c c ",
"qXqXqXqXqXqXqXqXqXqXqX8XqXqXqXrXtXqX<XL.c p & 0 l.k.S.S.S.c.c.k.x.x.x.M.S.S.c.q.0 @ p c L.<X7X1X-XU.L.L.L.L.L.L.K.K.K.K.K.L.L.L.",
"0XqXqXqXqXqXqXqXqXqXqXqX8XqXqXqXeXqX<XL.c i @ 0 w l.k.k.S.S.D.S.D.Z.S.S.M.k.q.w 0 @ i c K.<X7XqX6X<X<X-X<X-X<X-X:X:X:X:X:X:X:X:X",
"qXqXqXqXqXqXqXqXqX8XqXqXqXqXqXqXwXqX<XU.G.f 9 0 q w q.k.k.c.S.S.D.c.S.k.k.} } h 0 s f n P.<X8XeXeX9X9X0X0X8XqX8XqXqX7XqXqXqXqXqX",
"qXqXqXqXqXqXqX8XqXqXqXqXqXqXqXeXwXqX1XT.J.G.v g 0 w w w q.l.l.l.l.l.l.q.w w w h g v n K.).1XqXeXeXeXeXrXrXrXeXeXrXwXeXeXeXeXeXqX",
"qXqXqXqXqXqXqXqXqXqXqXqXqXqXqXqXqXqX6X<XT.U.J.n g 0 2 0 0 h h h h h 0 0 0 0 0 g n J.U.T.<X4XqXwXqXeXeXqXeXeXeXeXwXeXeXqXeXeXeXqX",
"8XqXqXqXqXqXqXqXqXqXqXqXqXqXqXqXqXqX8X7X4X<XT.J.v s @ @ 1 & 9 3 3 3 3 @ 1 @ 9 v J.).:X4X7XqX0XqXqXqXqXqXqXqX0XqXqXqXqXqXqX0XqXqX",
"qXqXqXqXqX8XqXqXqXqXqX8XqXqXqXqXqX0XqXqXeX8X<XP.n f p % p p i p i i i % % i f G.U.:X8XeXwXqXqXqXqXqXqXqXqXqXqXqXqXqXqXqX0XqXqXqX",
"qXqXqXqXqXqXqXqXqXqXqXqXqXqXqX8XqXqXqXeXrXeX4X).L.G.c x c c v c c c c c c b G.L.-X5XwXrXwXqXqXqXqXqXqXqXqXqXqX0X8XqXqXqXqXqXqXqX",
"qXqXqXqXqXqXqX8XqXqXqXqXqXqX8XqX0XqXqXwXeXwX8X<XR.U.P.L.K.K.K.K.K.K.K.K.K.L.U.T.<X8XwXeXeXqXqX0X8X8XqXqXqXqXqXqXqXqXqXqXqXqXqXqX",
"qXqXqXqXqXqXqXqXqXqXqXqXqXqXqX8X0XqXqXqXqXqX8X6X1X<X:X:X:X:X:X:X:X:X:X:X:X:X<X1X6X8XqXqXqXqXqX0XqXqXqXqXqXqXqXqXqXqX0XqXqXqXqX0X",
"qXqXqX8XqXqXqXqXqXqX8XqXqXqXqXqXqXqXqXqXqX0XqX0XqX7X7XqX8X0X0X8X0X0X8X8XqX8XqXqX8X0XqXqXqXqX8XqXqXqXqXqXqX0XqXqXqXqXqXqXqXqXqXqX",
"qXqXqXqXqXqXqX8XqXqXqXqXqXqXqXqXqXqX0XqX0XqXqXqXeXrXrXtXtXeXtXtXeXtXrXtXrXrXrXrXeXqXqX0X0X8XqXqXqXqXqXqXqXqXqXqX0XqXqXqX0XqXqXqX"
};
