/* XPM */
static char *result[] = {
/* columns rows colors chars-per-pixel */
"64 64 218 2 ",
"   c #1B1D1C",
".  c #2A1E1D",
"X  c #292929",
"o  c #362525",
"O  c #362929",
"+  c #3B2A29",
"@  c #353D3E",
"#  c #4B1E1D",
"$  c #541F1E",
"%  c #681D1D",
"&  c #52241E",
"*  c #702B1E",
"=  c #4C2322",
"-  c #442B29",
";  c #4C2929",
":  c #572727",
">  c #5C2222",
",  c #4C3029",
"<  c #48383A",
"1  c #57393B",
"2  c #6A2322",
"3  c #692726",
"4  c #632C2C",
"5  c #782423",
"6  c #742B29",
"7  c #7A2B2A",
"8  c #663725",
"9  c #75372F",
"0  c #663233",
"q  c #78563B",
"w  c #383F42",
"e  c #433E40",
"r  c #5E3E40",
"t  c #703F43",
"y  c #354143",
"u  c #394143",
"i  c #4E4043",
"p  c #554D52",
"a  c #45555A",
"s  c #565053",
"d  c #68494D",
"f  c #795643",
"g  c #7D685A",
"h  c #525F65",
"j  c #4C666D",
"k  c #4C696F",
"l  c #536066",
"z  c #56676D",
"x  c #4D6B72",
"c  c #506C72",
"v  c #5E6D74",
"b  c #5B787F",
"n  c #7C756B",
"m  c #636C74",
"M  c #756970",
"N  c #A31F1E",
"B  c #B41F20",
"V  c #852424",
"C  c #8A2424",
"Z  c #832629",
"A  c #842929",
"S  c #892828",
"D  c #8C2A29",
"F  c #9B2424",
"G  c #942927",
"H  c #9D2728",
"J  c #9B2929",
"K  c #8A3827",
"L  c #993629",
"P  c #863131",
"I  c #9B3C3B",
"U  c #A32224",
"Y  c #AC2423",
"T  c #AB2729",
"R  c #A12A29",
"E  c #A62828",
"W  c #AC2929",
"Q  c #B22425",
"!  c #B92724",
"~  c #B42629",
"^  c #BC2729",
"/  c #B32929",
"(  c #BC2929",
")  c #A83928",
"_  c #B3352B",
"`  c #A43233",
"'  c #A6373A",
"]  c #C22926",
"[  c #C32729",
"{  c #C32A29",
"}  c #CA2D29",
"|  c #D02F29",
" . c #C53626",
".. c #CD3A26",
"X. c #CA3129",
"o. c #D33829",
"O. c #D43E29",
"+. c #994626",
"@. c #834B39",
"#. c #9B4737",
"$. c #835637",
"%. c #945336",
"&. c #B64628",
"*. c #A74439",
"=. c #B04931",
"-. c #C94927",
";. c #D64827",
":. c #D54329",
">. c #DC4C29",
",. c #C85328",
"<. c #D35529",
"1. c #DD5229",
"2. c #C45232",
"3. c #E04F29",
"4. c #E05729",
"5. c #E35C29",
"6. c #E66125",
"7. c #E86427",
"8. c #E76329",
"9. c #E86529",
"0. c #E76935",
"q. c #E86B39",
"w. c #903F44",
"e. c #9A3E40",
"r. c #A93E41",
"t. c #984546",
"y. c #8E5047",
"u. c #975458",
"i. c #A14646",
"p. c #A9534C",
"a. c #A95953",
"s. c #8F674C",
"d. c #9C7253",
"f. c #B36658",
"g. c #B17151",
"h. c #985F65",
"j. c #896C6D",
"k. c #996166",
"l. c #97666B",
"z. c #85796D",
"x. c #96786A",
"c. c #996B72",
"v. c #A7726B",
"b. c #BA7979",
"n. c #E87245",
"m. c #E97750",
"M. c #E97B56",
"N. c #EA7C59",
"B. c #AD825B",
"V. c #88877E",
"C. c #A38166",
"Z. c #AD896E",
"A. c #C49572",
"S. c #EB876D",
"D. c #EC8E7A",
"F. c #577981",
"G. c #5A7A82",
"H. c #947781",
"J. c #947981",
"K. c #678891",
"L. c #6A8993",
"P. c #6A949E",
"I. c #6C97A2",
"U. c #6D99A4",
"Y. c #759AA5",
"T. c #74A1AD",
"R. c #7EACB9",
"E. c #7EB1BF",
"W. c #7FB3C0",
"Q. c #838680",
"!. c #978A94",
"~. c #998A92",
"^. c #899C9C",
"/. c #869BA7",
"(. c #899DA1",
"). c #9399A3",
"_. c #9798A3",
"`. c #8BA7AA",
"'. c #96A1AD",
"]. c #98ABB8",
"[. c #8FB6BE",
"{. c #95B4BD",
"}. c #CE9984",
"|. c #EC9485",
" X c #ED9C94",
".X c #EE9F9A",
"XX c #CFA88C",
"oX c #DCBB9D",
"OX c #CFB4AF",
"+X c #EEA4A4",
"@X c #EFA9AC",
"#X c #F0ADB4",
"$X c #DFCAB6",
"%X c #86B6C2",
"&X c #96B6C3",
"*X c #97B9C7",
"=X c #89C1CF",
"-X c #94C2CE",
";X c #98C0CF",
":X c #8BC4D3",
">X c #8ECAD9",
",X c #94C6D3",
"<X c None",
"1X c #97C8D7",
"2X c #94CDDC",
"3X c #98CEDE",
"4X c #96D0DF",
"5X c #95CFE0",
"6X c #96D3E4",
"7X c None",
"8X c None",
"9X c None",
"0X c None",
"qX c #9BDFF0",
"wX c None",
"eX c #A1E5F7",
"rX c #E4D8D4",
"tX c #E8E4E5",
/* pixels */
"0X0X0X0X9X0X0X0X0X0X0X0X9X0X0X0X0X0X8X8X0X0X0XqXqXqXwXwXwXwXwXwXwXwXwXwXwXwXwXqXqX0X0X8X0X8X0X0X0X9X0X0X0X0X0X0X0X0X0X0X0X0X0X0X",
"0X0X0X0X0X0X0X0X0X9X0X0X0X0X0X0X0X0X0X0X0X8X0X0X8X0X8X8X8X8X8X8X8X8X0X9X8X8X8X8X8X0X9X0X0X0X0X0X0X0X0X0X0X0X9X0X0X0X0X0X9X0X9X0X",
"0X0X0X9X0X0X0X0X0X0X0X0X0X0X0X9X0X0X0X0X0X0X8X4X2X:X-X-X-X-X-X=X=X-X-X:X-X=X,X2X4X8X0X0X0X9X0X9X9X0X0X0X0X9X0X0X9X0X0X0X9X0X0X0X",
"0X0X0X0X0X0X9X0X0X0X9X0X0X0X9X9X0X0X0X0XqX0X4X,X[.`.`.^.^.^.^.`.`.^.^.^.^.`.`.[.,X4XqXqXqX0X0X8X0X9X0X9X0X0X0X9X0X0X0X9X0X0X0X0X",
"9X0X9X0X0X0X0X0X0X0X0X0X0X0X9X9X0X0X0XqXwXqX4X[.^.Q.n n n n n n n n n n n n V.^.{.4XqXqX0X0X0X0X9X9X0X0X0X0X0X0X0X0X0X0X0X0X0X0X",
"0X0X0X0X0X0X0X9X0X0X0X0X0X0X0X0X0X0X0X0XqX4X,X`.V.g q q q q f f q f f f q q g Q.`.-X0XqX0X0X0X0X0X0X0X9X9X0X0X0X0X0X0X0X0X0X0X0X",
"0X9X0X0X0X0X0X0X0X7X0X0X0X0X0X0X0X0X0X4X4X,X{.^.V.g q +.q s.q f $.s.$.$.$.q s.n ^.{.,X4X8X9X8X0X0X0X0X0X0X0X0X0X7X0X0X0X0X0X0X0X",
"0X0X0X0X9X0X0X0X0X0X0X0X0X0X0X0X0X0X4X,X[.`.^.V.d.d.s.d.d.Z.Z.Z.Z.Z.v.d.d.d.d.x.V.^.`.[.,X6X0X0X0X0X0X0X0X0X0X9X0X0X0X0X7X0X0X0X",
"0X0X0X8X0X8X0X0X0X0X0X0X0X0X0X0X0X0X2X[.^.L.z.x.B.Z.Z.A.XXOXOXOXOXOXOX_.A.A.Z.B.C.n Q.Y.[.>X9XqX0X0X0X0X0X0X0X0X0X0X0X0X0X0X0X0X",
"0X0X0X8X0X0X0X8X0X0X0X9X0X0X9XqXqX8X,X`.Q.s.s.s.B.A.XXoX$XtXtXtXtXtXrX$X$XA.A.B.B.q g V.`.,X9X0XqX0X0X0X0X0X7X0X0X0X0X0X0X0X7X0X",
"0X0X8X8X0X0X8X8X0X9X0X9X0X0X0X0XqX8X<X`.n f @.%.B.A.}.oX$XrXtXtXtXtXrX$XoX|.A.B.%.q q z.`.;X8XqXqX7X0X0X0X7X0X0X0X0X0X0X0X0X0X0X",
"wX0XqXqXqXqXqXqX0XqX0XqX0X0X0XqXwX0X,X/.j.q K #.2.B.Z.}.XXOX#XOXOXOXoXXXA.A.g.p.+.+.q n /.,X0XwXqX0X0X7X0X0X0X0X0X0X7X0X0X0X0X0X",
"qXqXqXqXqXqXqXqXqXqX0XqX0X0X0XqXqXqX1X).j.y.K K %.p.g.f.v.b.b.b.b.b.b.b.f.a.p.#.K K @.j./.<XqXwXqX0X0X9X7X0X0X0X0X0X0X0X0X0X7X0X",
"9X9X9X9X8X8X8X8X8X0X0X0X0X0X0X0XqXqX*X).j.t.G G L ` I *.r.t.i.i.i.p.i.e.*.' I J G L t.l._.*X9XqXqX0X0X0X0X0X0X0X0X0X0X0X0X0X0X0X",
"=X=X=X-X*X,X<X*X<X;X<X1X3X9X0X9X7X*X].~.h.I H F F J J J J J J J R H J H H H H G F H e.h.!.].1X3X4X9X0X0X0X0X0X0X7X0X0X0X0X0X0X0X",
"I.Y.Y.Y./.)._._._._.'.&X<X7X9X1X*X_.~.c.u.` E U U U U U U N U N U U U U F U U U U E ` u.c.~.'.&X1X9X0XqX0X0X0X0X7X0X7X0X0X0X0X0X",
"k z v m M j.c.l.l.c.H.).*X5X7X*X_.H.h.i.r.' ~ Q Q Q T Q Y B Q Y B Y Y Y Y Q Q Q ~ / W ' u.l.c.).{.3XqXqX0X0X0X8X0X8X0X0X0X0X9X0X",
"y u i i 9 t.w.w.I t.u.J.].*X*X].J.u.e.` W ( ^ [ [ ^ [ ^ ^ ^ ^ ( ^ ^ [ ( [ ^ [ ( ( ( ( _ ` t.u.J.'.1X0XqXqX0X0X0X0X0X0X0X0X0X0X0X",
"X X O ; 3 V G F F J e.l._.&X&X_.c.e.E Y ( { } X.X.X.X.} } X.X.X.} X.X.X.} X.} X.X.X.] ! Y R I k.~.].;X3X6X8X8X0X0X8X0X9X9X0X0X0X",
"    . & 2 V F N N Y ` p.c.!.J.c.u.` T ! { ..O.O.O.:...:.O.O.O.O.O.O.O.O.O.O.O.O.O.O... .B Y ` u.c.~.'.&X1X8X0XqXqX0X0X8X0X9X9X0X",
"  . . = 2 V F N Y Q / i.u.k.k.u.r.W ! ] -.;.>.>.>.>.>.>.>.>.>.>.>.1.1.>.>.>.>.>.1.>.;...] ! / ' t.k.H.).&X3XqXwXqX0X0X0X9X9X0X0X",
"X X + ; 3 Z H T / ! ( ` ' I I ' ` (  ...;.3.5.5.6.1.5.5.5.5.5.5.5.1.5.5.5.5.5.5.5.5.1.;...{ ( W ` t.u.H.).<X9XqXqX0X9X0X0X0X0X0X",
"y y < < 0 7 S H W ! ! / W R R E / X...:.1.5.7.7.9.8.6.8.8.6.7.6.8.8.6.6.8.8.8.9.7.7.5.1.:...{ / Y R #.l.!.].<X3X6X9X9X0X0X0X0X9X",
"x k l s r 4 5 C F W / Q Y Y Y /  ...:.>.4.5.9.9.9.9.9.9.7.6.6.6.6.6.8.8.9.7.9.9.9.9.5.4.>.:.-.{ ! Y ` i.c.!.'.&X<X7X0XqXqX0X0X9X",
"T.I.L.m p , : 2 C H T T Q Q !  ...;.1.1.5.8.8.7.9.8.8.7.8.6.7.6.6.6.6.6.7.9.6.9.9.8.6.1.5.1.;... ./ / ' i.h.H._.&X3XqXqXqXqX8X8X",
">X=XR.L.j i - > 5 S H T ~ ^ { ..;.1.5.8.8.8.8.8.7.8.8.8.7.9.8.8.9.7.8.9.9.8.8.9.9.8.8.8.6.5.1.;...{ ( W ' e.u.H.'.<X9XqX0X8X0X8X",
"wX8X:XT.F.a < < 4 7 D R T ( X.O.>.5.8.8.8.8.8.8.8.8.8.0.0.0.q.q.q.q.0.0.8.8.8.6.8.8.8.8.8.8.5.>.O.X.[ ^ U J e.k.!.].<X3X6X8X0X0X",
"wXqX6XW.I.b j s 1 0 7 C T ( X.O.1.5.8.9.8.8.8.6.8.8.9.q.n.m.M.N.N.M.m.n.q.0.8.6.8.8.8.9.8.8.5.1.:.X.[ B B T ' i.c.~.'.&X1X6XqXwX",
"wX0X6X>X%XT.K.v s 1 : 5 F ^ X.O.>.5.8.9.9.8.8.6.5.9.0.n.N.S.D.D.D.D.S.N.n.0.8.6.6.8.8.8.9.9.5.>.O.X.[ ^ B ^ / r.p.l.J._.*X6X0XwX",
"0X0X9X9X5X=XR.K.h e ; 2 C ~ X.O.>.5.8.9.9.8.8.6.6.7.0.m.S.|. X.X.X X|.S.m.q.8.6.6.6.8.8.9.6.5.>.O.} ] ] [ [ ( W ` e.u.J.'.<X8XwX",
"0X0X0X0XqX8X:XU.k y + > C ~ } O.3.5.8.9.8.8.8.7.5.7.0.M.D. X+X@X@X+X XD.M.q.8.5.6.6.8.8.9.6.5.>.O.X.[ ^ ~ ~ T U U H e.k.~.].;X1X",
"0X0X0XwXwX0X:XU.x y + > V Q X.O.3.5.8.8.9.8.8.5.6.9.q.N.D..X@X#X#X@X.XD.N.q.7.6.9.8.8.8.8.8.5.>.O.} ( ~ R G G F U U ` a.c.~._.'.",
"0X0X0XqXwXqX>XU.k w + > C / | O.>.5.8.9.9.8.6.6.5.8.q.N.D..X@X#X#X@X.XD.N.q.9.6.7.8.7.8.9.8.5.>.O.X.( H Z 6 6 Z F Y / r.a.k.c.c.",
"0X0X0X0XqX8X:XU.k w + > V / X.O.>.5.8.9.8.8.8.6.6.8.q.M.D. X+X@X@X+X XD.M.q.7.5.5.7.7.8.9.8.4.>.O.} ~ D 3 ; ; 3 C T ~ W r.e.e.w.",
"0X0X0XqXqX8X%XU.k w - > C Q } O.3.4.8.9.9.8.8.6.6.7.0.m.S.|. X.X.X X|.S.m.0.7.6.5.7.8.9.9.8.4.3.:.{ / S 4 O O : 7 H T T H D Z Z ",
"0X0X0XqXqX8X:XU.k w + > C W X.O.3.5.9.9.9.8.6.5.6.7.0.n.N.S.D.D.D.D.S.N.n.0.8.6.7.8.8.9.9.8.5.4.O.X./ Z : O O - 4 5 Z 7 5 2 2 3 ",
"8X0X0XqXqX8X%XU.x w + > C T X.:.3.5.7.9.8.8.8.8.6.8.0.0.n.m.M.N.N.M.m.n.q.0.8.6.7.8.8.8.9.9.5.3.O.X.~ Z : O X O - : : : : = = = ",
"0X0X0X0XqX0X:XU.k w + > C T } O.3.4.8.8.8.8.8.8.6.8.8.9.0.q.q.q.q.q.0.0.8.8.8.8.8.8.8.8.9.5.4.>.O.X.W S 4 - X X X + - + O O O O ",
"0X0X0XqXqX0X%XU.k w - > V ~ X.o.:.4.5.5.8.8.7.8.8.8.9.8.6.7.6.9.8.8.7.9.8.8.9.8.8.8.8.8.5.5.4.>.O.} ^ D 3 ; O O + - - - + O O O ",
"0X0X0X0XqX0X:XU.k w + > C / } | O.>.1.4.5.8.8.9.8.8.8.8.6.6.6.5.5.6.5.6.6.8.8.9.8.9.5.5.4.4.>.:.o.} ( J 7 : : : 8 8 8 8 1 : ; : ",
"0X0X0XqXqX0X=XI.x w O > C ~ } | o.o.:.>.4.8.8.8.9.8.8.8.5.6.6.6.6.6.6.6.8.8.8.9.9.9.5.1.1.:.O.X.X.} ^ E D 6 6 K +.%.+.+.K 6 6 3 ",
"0X0X0X0XqX9X:XI.x w + > V ~ } [ } X...:.>.5.8.8.8.8.8.8.8.8.8.8.6.7.8.6.8.8.8.8.8.8.5.1.:.X.{ } } [ ^ T J D D +.&.,.,.&.L K Z 7 ",
"9X0X0XqXwX0X=XI.z e ; 2 C T ^ [ [ } } o.;.1.5.8.8.8.8.8.8.8.8.8.8.8.8.8.8.8.8.8.8.5.1.>.O.X.[ [ [ [ ( T E R R ) &.,.,.&.) D Z Z ",
"9X0X0XqXwX0X,XY.m r : 2 C T ~ ^ [ [ } X.O.>.1.1.5.8.8.9.9.8.9.8.8.9.9.9.8.8.8.5.1.1.;.O.X.} [ ^ ^ ~ ~ / ~ T _ ) &.+.+.K 7 5 2 3 ",
"8X0X0XqXwXqX:X/.M t 5 5 S H E ~ ^ [ } X.X.o.:.>.1.8.9.9.9.8.9.8.9.9.9.9.9.9.5.4.>.:.o.X.X.} [ ^ ~ T W ~ / ( / R K 9 8 8 : & , & ",
"0X8X0XqXqX8X*X(.j.y.Z C C H J W / [ [ [ } X...:.1.4.8.8.8.8.8.8.8.8.8.9.9.8.5.1.:...X.} } [ ^ ~ E R H W ~ ^ W G * , - + + + O O ",
"0X0X9X7X3X<X].~.k.#.) F H H R E / ^ [ [ [ } X.o.>.1.5.4.8.4.4.5.5.1.5.5.5.1.1.;...} [ [ [ ^ ( T H S S G U T H P 9 e u y y u u u ",
"qXqX6X1X*X].!.v.f.=._ _ W W W W W / / ^ [ [ } X.:.;.>.1.1.>.>.1.>.>.1.>.>.>.>.;.o.} [ [ ^ ( W G Z 5 2 5 5 Z Z q d l k x k k k k ",
"wXqX5X&X_.c.v.a.=.2.-.-. .( / / T T ~ ~ ^ [ } | ..o.O.O.:.O.O...O.O.O.O.:.O.o.o.| } [ [ ^ T J Z 3 > = # $ > 0 d m L.U.U.U.U.U.U.",
"qX8X,X'.Q.u.t.=.2.4.<.;...( ( W E H J T / [ [ } } } X.X.X.X.} X.X.X.X.X.X.X.} } [ ] ] ~ W R D 6 : - O o o + < z L.R.%X>X>X:X:X%X",
"3X1X].!.k.#.Y &.-.<.<.;. .! T J G S S G J T ~ ~ ( ( ] [ [ [ ( [ ( ( ( [ ( ( ( ( ^ Q T R F S 7 0 1 < w w @ y a F.T.:X8X0XqX0X0X0X",
"_._.~.c.p.&.&.-.-.-.-.&.) G Z 5 5 2 2 5 5 S C H T Y ~ ~ / ~ ~ / ~ ~ ^ ~ ~ ~ Y T H C C 5 5 3 4 1 p j j j j x F.P.%X2XqXwXwXqXqXqX",
"c.c.k.f.p.<.-.-.-.&.) L 7 2 > = = = = = = > 2 7 S R T T T T T E T T T T T W H C 5 2 > $ # = 1 p v K.I.U.U.U.T.W.:X6XqXqXqXqXqXqX",
"w.t.#.=.2.<.<.-._ ) G 7 8 ; - + O O + O O + ; : 7 D G H H H J G H G J H H J S 7 3 ; O o o O < l L.R.=X>X:X=X:X>X5X9X9X0X0X0X0X9X",
"Z S G L &.,.,.&.) K 7 0 < < w y y u u u u u < 1 4 7 S C Z Z Z Z Z Z Z A S Z 7 0 1 < w @ @ y a F.T.:X8X0XqX8X8X0X0X8X9X0X0X0X9X0X",
"% % 2 K K +.+.K K 2 4 r s h k x x k k x x k l s r 4 3 2 2 3 2 2 2 2 2 2 2 3 4 1 p j k k j x F.I.W.2XqXwXwXqXqX0X0X0X0X0X9X9X0X0X",
"# & & & 8 8 8 > & & , s m L.I.U.Y.I.I.U.U.U.K.v s , = # # = = = = = = # # = , s v K.U.U.U.U.Y.W.:X7XqXqXqXqXqX0X0X0X0X9X9X9X0X0X",
"o + + + + + , + o O e l L.E.=X:X:X=X:X:X:X:XR.L.l e O o o O O O O O O o o O i l L.E.%X>X:X:X:X>X5X9X0X0X0X0X0X0X0X0X0X9X0X9X0X0X",
"u u u u u u w w @ u a b Y.:X8XqX0X0X0X0XqX9X:XT.G.a u @ y y u u y u y @ y y u K.Y.:X9XqXqX8X8X8X9X9X0X0X0X9X9X0X0X0X0X0X0X0X0X0X",
"c c k c c k x x j c G.I.W.5XqXwXeXqXwXwXwXqX4XW.I.G.c k k x c c x c x c x x F.U.%X3XqXwXwXqXqXqX0X0X0X9X9X0X0X0X0X0X0X0X0X9X0X0X",
"U.U.U.U.Y.U.U.U.I.U.T.E.:X8X0XwX0XwX0XwXwX0X6X:X%XT.U.U.U.U.U.U.U.Y.I.I.I.U.T.W.:X7X0XwXqXqXqX0X0X0X0X9X0X9X0X0X0X0X9X0X0X0X0X0X",
"=X=X=X=X=X=X%X:X=X:X:X>X6X8X0X0X0X0X0X0X0X0X9X5X>X:X=X:X*X=X=X=X:X=X=X=X=X=X:X>X3X9X0X0XqX0X9X0X0X0X0X0X9X9X0X0X0X0X0X0X0X9X0X0X",
"9X9X9X9X9X9X9X9X9X9X0X0X8X0X8X0X0X0X0X0X0X0X0X0X0X9X8X8X9X9X0X0X9X9X0X9X9X9X0X0X9X9X9XqX9X9X0X0X0X0X0X0X0X0X0X0X9X0X0X0X0X0X0X9X",
"eXqXeXeXwXwXwXeXwXwXwXwX0X0X0X8X9X0X9X9X0X0X0X0XqXwXwXwXwXeXwXwXwXwXwXwXwXwXwXwXqX0X9X9X9X9X9X0X0X0X0X9X0X0X9X0X0X0X0X0X9X0X0X0X"
};
