/* XPM */
static char *result[] = {
/* columns rows colors chars-per-pixel */
"64 64 233 2 ",
"   c #1C1D1F",
".  c #2C1E1E",
"X  c #1E2123",
"o  c #272525",
"O  c #2B2A2A",
"+  c #362425",
"@  c #352929",
"#  c #3C2A29",
"$  c #3C322B",
"%  c #2A2E31",
"&  c #2C3536",
"*  c #37393A",
"=  c #501D1D",
"-  c #6A1D1D",
";  c #722B1E",
":  c #69331C",
">  c #741F21",
",  c #492727",
"<  c #5A2626",
"1  c #453129",
"2  c #543529",
"3  c #443A37",
"4  c #563637",
"5  c #672727",
"6  c #782827",
"7  c #673825",
"8  c #6D342E",
"9  c #44423C",
"0  c #584A37",
"q  c #744D36",
"w  c #7B603D",
"e  c #2D3C40",
"r  c #363E41",
"t  c #443E42",
"y  c #593B40",
"u  c #6C3F41",
"i  c #364346",
"p  c #394043",
"a  c #3A4F53",
"s  c #454543",
"d  c #4D5054",
"f  c #575756",
"g  c #6A514B",
"h  c #695C49",
"j  c #5B6057",
"k  c #726755",
"l  c #4C5E64",
"z  c #496066",
"x  c #4B666E",
"c  c #4C686F",
"v  c #556569",
"b  c #4C6B72",
"n  c #576D75",
"m  c #686867",
"M  c #6E7275",
"N  c #952A1F",
"B  c #AF311E",
"V  c #872626",
"C  c #8B2929",
"Z  c #942324",
"A  c #972827",
"S  c #9C2B29",
"D  c #87362A",
"F  c #953626",
"G  c #9F3129",
"H  c #973A39",
"J  c #A42323",
"K  c #A92825",
"L  c #AC292A",
"P  c #B92A26",
"I  c #B32B29",
"U  c #A93628",
"Y  c #B73724",
"T  c #A53536",
"R  c #B23132",
"E  c #CA371F",
"W  c #C62D27",
"Q  c #C93926",
"!  c #C43129",
"~  c #CC3429",
"^  c #D23724",
"/  c #CC3732",
"(  c #9D441C",
")  c #9A4623",
"_  c #904B39",
"`  c #915D34",
"'  c #A94A26",
"]  c #B84727",
"[  c #B34938",
"{  c #C7441F",
"}  c #E3551F",
"|  c #E65C1D",
" . c #C74926",
".. c #D54525",
"X. c #D64727",
"o. c #DB4C26",
"O. c #C95428",
"+. c #CD5B29",
"@. c #D4572A",
"#. c #DB5329",
"$. c #DC5B28",
"%. c #D45334",
"&. c #E15425",
"*. c #E45D24",
"=. c #E25B28",
"-. c #E15834",
";. c #E66124",
":. c #E7632A",
">. c #E96529",
",. c #E96C34",
"<. c #E86B38",
"1. c #E9723B",
"2. c #993E41",
"3. c #AF3E40",
"4. c #944143",
"5. c #9E4748",
"6. c #945652",
"7. c #A8544C",
"8. c #A85B53",
"9. c #94704C",
"0. c #B16F57",
"q. c #975E66",
"w. c #98666B",
"e. c #936A72",
"r. c #9A6971",
"t. c #997071",
"y. c #A17071",
"u. c #D24D46",
"i. c #E06344",
"p. c #E56E46",
"a. c #E97643",
"s. c #E97748",
"d. c #EA7A54",
"f. c #EA7B57",
"g. c #D26D69",
"h. c #DA7778",
"j. c #B18858",
"k. c #9D8566",
"l. c #9B8073",
"z. c #B88C63",
"x. c #B99469",
"c. c #AB8C75",
"v. c #AA957A",
"b. c #EB8659",
"n. c #F28958",
"m. c #C49468",
"M. c #EB8A6A",
"N. c #EC926A",
"B. c #EC8C75",
"V. c #E88978",
"C. c #EC9776",
"Z. c #F39A73",
"A. c #C9A26E",
"S. c #CAA478",
"D. c #F8A17B",
"F. c #5A7981",
"G. c #947981",
"H. c #75868B",
"J. c #688A93",
"K. c #6B96A2",
"L. c #6C99A4",
"P. c #6E9FAA",
"I. c #749BA7",
"U. c #74A1AD",
"Y. c #7DACB8",
"T. c #7DB2BF",
"R. c #7FB5C3",
"E. c #868787",
"W. c #978792",
"Q. c #998A92",
"!. c #979290",
"~. c #869BA7",
"^. c #9599A4",
"/. c #9699A4",
"(. c #96A1AD",
"). c #98ADB9",
"_. c #A5A7A8",
"`. c #AEADAD",
"'. c #B5B6B7",
"]. c #D29480",
"[. c #ED9587",
"{. c #ED9D97",
"}. c #CFAC8E",
"|. c #EFA687",
" X c #E8B99A",
".X c #F3B69C",
"XX c #CDB9AD",
"oX c #EDA9AA",
"OX c #F2BDA6",
"+X c #EBB3B2",
"@X c #DAC39B",
"#X c #DFC5A4",
"$X c #E8CDA6",
"%X c #F4C2AC",
"&X c #EDC5B6",
"*X c #F4C9B6",
"=X c #FCCAB5",
"-X c #82B7C5",
";X c #96B5C3",
":X c #89C1CF",
">X c #97C0CF",
",X c #98C1CF",
"<X c #8BC3D2",
"1X c #8DC8D9",
"2X c #98C3D2",
"3X c None",
"4X c #98CEDE",
"5X c None",
"6X c #96D5E5",
"7X c None",
"8X c None",
"9X c None",
"0X c None",
"qX c None",
"wX c None",
"eX c None",
"rX c None",
"tX c None",
"yX c #DCDCDC",
"uX c #ECD5CF",
"iX c #F6D7CA",
"pX c #F5E4DC",
"aX c #DBDEE2",
"sX c #E3DEE3",
"dX c #DDE3E5",
"fX c #E6E7E8",
"gX c #F6E8E5",
"hX c #F9F1EC",
"jX c #E6ECF5",
"kX c #EEF2F5",
"lX c #F5F5F4",
"zX c #F9F7F6",
"xX c #FCFEFE",
/* pixels */
"0X0X0X0X9X0X0X0X9X0X0X0X0X9X9X0X9X0X0X0XqXqXwXwXwXqXwXwXwXwXwXwXwXwXwXwXwXwXwXwXwXwXwXqX0X0X0X8X0X9X0X0X0X0X0X0X0X0X0X9X0X0X0X0X",
"0X0X9X0X0X0X0X0X0X0X0X0X0X0X0X0X9X0X0X0X0X0X0XqX0X0X8X0X9X0X8X8X8X0X6X0X8X8X8X8X9X9X0X8X0X0X8X0X0X0X0X0X0X0X0X9X0X0X0X0X0X0X0X0X",
"0X9X0X0X0X0X0X0X0X0X9X9X9X0X0X0X0X0X7X6X3X;X3X;X3X;X;X1X>X>X>X>X>X>X>X>X>X>X>X>X2X2X2X3X6X8X8X0X0X0X9X9X9X9X0X9X9X0X0X0X0X0X0X0X",
"0X0X0X0X8X0X0X0X9X0X0X9X0X0X0X0XqX0X7X2X;X(././.^.^.(.^.^.^.^./.^.^.^.^.^.^.^.^./././.;X2X6X0XqX0X0X0X0X0X9X0X0X0X0X9X0X0X0X0X0X",
"0X0X0X0X0X0X0X8X0X0X8X8X9X0X0XqXqXqX6X;X^.G.e.w.e.e.e.e.e.e.e.e.e.e.e.e.e.e.e.e.e.e.G.^.;X5XqXqXqX0X0X8X9X0X0X0X0X0X0X0X0X0X0X0X",
"0X9X0X0X0X0X0X0X0X0X0X0X0X9X0X0XqXqX;X).G.6.4.H 2.2.4.4.4.4.4.4.4.4.4.4.4.4.4.2.2.4.6.G.(.2X0XqXqX0X9X0X0X0X0X0X0X0X7X0X0X7X0X0X",
"0X0X0X0X9X8X0X0X0X0X0X0X0X9X9X9X4X;X).Q.w.H S S A S S G G F U F G G F U G G F A J S 2.q.W.).;X7X6X8X0X8X0X0X0X9X0X7X0X0X0X0X0X0X",
"0XqX0XqXqXqXqX0XqXqXqXqXqXqX9X2X;X(.W.r.5.T J K K Y Y B Y B B Y B Y B B Y B Y K J J T 5.r.W.^.;X2X6XqXqX0X0X0X0X0X0X0X0X0X7X0X0X",
"qXqXwX0XqXqXqXqXqXqXqXwXwXqX6X;X/.G.q.5.3.L P P Q {  . .{ { ..^ { { {  . . .Q E Y I L T 5.q.G.^.;X6XqXqXqX0X0X8X7X0X0X0X0X0X0X0X",
"8X8X0X0X8X8X0X0X6X6X0XqXqX6X2X^.G.6.2.L R I W ~  .o.$.$.=.$.$.=.$.$.$.$.=.-.#...Q W I L L _ q.G.(.;X0XqX0X0X0X0X0X0X0X0X0X0X7X0X",
">X>X,X,X>X>X;X2X>X>X>X2X2X2X).!.w._ U I I W ~ X.o.=.>.,.,.,.p.<.<.,.,.,.>.>.-.&.X.~ ! P K K [ w.Q.;X2X5X6X6X8X0X0X0X0X7X0X7X0X0X",
"/././.^.^.^.^.~.^.^.^.^.^.^.Q.t.8.' Y Y W ~ X.o.&.>.>.1.a.d.f.f.f.b.d.a.<.>.>.&.o.X.^ Q Y U [ 7.y.W.(.;X2X6XqXqX0X0X0X0X0X0X0X0X",
"r.r.r.w.e.e.e.e.e.e.e.e.e.e.w.8.7. . ...o.o.&.&.*.:.,.a.f.B.[.B.C.B.f.f.d.<.>.&.&.#.o.o... .O.7.8.q.G./.;X7XqXqXqX0X0X0X7X0X0X0X",
"_ 2.4.2.2.2.2.2.2.2.2.2.4.4._ [ O.@.$.$.=.=.=.*.=.:.<.s.f.[.{.{.{.{.[.B.d.<.>.*.=.=.*.*.*.$.@.] [ _ 6.G.(.;X0XqXqX0X9X0X0X0X0X0X",
"V C C C Z A A A C A A A A A L ] O.$.>.>.:.:.;.;.*.*.<.f.B.{.oXoXoXoX{.B.f.<.>.;.:.;.;.>.:.;.$. .Y L 2.q.W.;X2X5X7X7X0X0X0X0X0X7X",
"- - > > Z J J J J Z Z Z Z J I Y X.*.;.>.>.*.;.*.| *.<.f.[.{.oXoX+XoX{.B.d.<.*.| *.*.;.>.>.>.*...Y I T 5.r.Q./.;X2X7X0XqX0X0X0X0X",
"= = < > Z J P J J Z Z Z J I P Q X.=.>.>.;.| *.| | ;.,.d.V.{.oX+X+XoX{.B.d.<.*.| | ;.;.;.>.;.$.X.Q P L T 5.q.G.^.;X4XqXqXqX0X0X0X",
"O O , 5 V L P P L A S J J P ! ^ X.=.;.>.>.>.;.>.;.:.<.f.B.{.oXoXoXoX{.B.f.<.;.;.;.;.>.>.>.:.=.o.Q W I R T 2.6.G.).;X0XqX0X0X0X0X",
"i p 3 8 C S J L S A S K P ! ~ X.#.=.>.,.1.a.a.a.a.s.s.M.B.[.{.{.{.{.[.B.M.s.s.a.a.a.a.1.,.>.*.o...~ ! P J J 2.q.W.;X;X4X6X0X0X0X",
"b c v f u V V Z A C S R ! ~ X.X.&.*.,.a.b.N.D.D.Z.C.C.B.B.B.B.M.B.B.B.B.N.C.C.D.D.D.N.n.a.,.*.} o...Q W P P T 7.r.W.).;X2X6XqXqX",
"P.K.J.M f 4 5 > 6 Z S Y Q X.&.} } *.<.b.D..X=X=X*X%XOX|.N.b.d.s.p.d.f.B.[..X%X*X*X%XOXD.b.<.;.} &.o.X.^ ! P I T 5.q.G./.;X5XqXwX",
"1X-XR.J.v y , < 6 C S R  .#.=.*.*.:.a.N. XuXgXgXgXgXiX XC.d.,.>.*.<.d.Z.OXiXpXgXgXgXuX XN.p.:.$.*.=.$.X.^ ! R L R 2.q.G.(.2X0XqX",
"qX9X-XY.F.d t 4 < 6 F U  .$.>.,.,.a.b.C.oXtXaXjXkXlXpX*X|.b.1.,.,.1.n.|.iXpXkXkXjXaXuX XC.b.1.,.>.>.=.X.Q I I J J S 2.q.W.;X;X5X",
"eXqX5XR.K.F.l d y 8 D ) ] +.,.a.n.N.].}.}.'.'.tXfXlXhXiXOX|.N.N.N.C.D.%XiXhXkXdXtXXX`._.}.C.N.b.a.,.=. .' S A Z J J T 7.y.Q./.(.",
"qXqX7X1X-XU.J.n f y 5 D ] +.1.n.D..X X`.!.E.E._.tXfXzXhXiX*X%X X X%X*XiXhXzXhXtX).E.E.!.}. X.XD.n.1.$.' F 6 5 6 Z J R 3.5.q.r.r.",
"qX9X7X6X6X-XR.F.l t 2 ; ( +.1.Z..XiXuX`.e.d f H.`.dXzXhXhXpXpXpXpXpXpXgXhXzXdX`.e.f f M _.yXiXOXZ.1.+.' 7 2 , 5 Z L I R 3.2.2.2.",
"qX9X9XqXqX0X-XK.x p 1 : ( +.a.D.=XgXyX_.M 3 * m !.rXyXhXkXlXzXzXzXlXlXkXfXdXrX!.m * * M `.dXgX=XD.b.+.) 7 1 # < 6 J L L A C C 6 ",
"9X9X9XqXeXqX1XP.b r $ : ( +.a.D.=XgXaX_.M & o s m !.'.rXdXkXxXxXxXxXkXdXrX`.!.m s O & M _.dXgX=XD.1.+.( 7 1 @ , < 6 V 6 6 > 5 5 ",
"9X9X0XqXeX0X3XP.b r 1 : ( +.a.D.=XgXaX).M $ o O p m E._.rXfXxXxXxXxXfXrX_.E.j s % o $ M `.yXpX=XD.n.+.( 7 1 O + , < < < , = , = ",
"9X0X9XqXqX0X-XK.x i 1 : ( +.a.D.=XpXyX'.M t % O o * f E.'.yXzXxXxXzXdX'.E.f * O O @ s M `.yXpX=XD.1.+.( : 1 O O O # # # # # @ @ ",
"0X9X0XqXqX9X-XK.x i 1 : ( +.a.D.=XpXyX'.E.v s 3 & 9 f H.'.sXzXxXxXzXyX'.E.l * & * s j E.'.dXpX=XD.1.+.( 7 1 O O @ # # $ # + @ # ",
"0X0X0XqXqX9X1XL.x i 1 : ( +.s.D.=XgXfXtX`.E.M m m m l.(.rXfXxXxXxXxXfXrX_.e.M m M M E.).tXfXpX=XD.b.+.) 7 $ O # 3 7 8 5 4 4 < , ",
"0X0X0XqXqX0X-XL.b p 1 : ( +.s.D.=XpXkXdXtX'.`._._._.`.rXyXkXxXxXxXxXkXyXrX`._._._._.'.tXdXkXpX=XD.a.+.( 7 $ @ 2 q ) ) _ D 6 8 5 ",
"0X0X0X0XqX0X<XL.x p # : ( +.a.Z.%XpXlXkXfXyXyXyXyXyXyXfXfXlXzXlXzXzXlXkXdXyXyXyXyXyXsXfXkXlXpX%XZ.a.+.) 7 $ $ 2 ) ' O.] G C V V ",
"0X0X0XqXqX0X1XL.x i 1 : ( O.p.M..XiXgXhXlXlXzXzXlXlXzXhXgXgXpXpXpXpXpXgXhXhXlXzXzXzXzXzXhXpXiX.XN.p.+.' 7 2 2 q ) O.@.] U A V 6 ",
"0X0X0X0XqX9X-XL.c r # : F  .-.f.C..X*XiXgXzXxXxXxXxXzXgXiX*X%XOXOX%X&XiXgXzXxXxXxXxXzXhXiX*X XC.d.-...' ) ) ; _ ' O. .' F 6 5 5 ",
"0X0X0X0XqX9X-XL.c e # 5 N Y %.i.s.M.|.%XiXhXxXxXxXxXhXiX%X|.C.N.N.C.|.%XiXhXxXxXxXxXhXiXOX|.M.d.i. ...Y ] ' ' ' ] ] U F ; < < = ",
"0X9X0XqXqX0X1XL.c p 1 < V P ~ o.-.p.b.|.&XpXlXxXxXzXpX*X|.b.a.1.1.a.b.|.*XpXzXxXxXlXpX*X|.n.p.-.X.~ / ^  .+.+.] Y U H 6 2 , @ O ",
"0X0X0X0XqX0X-XK.v s , 5 V K ! Q ..&.p.M. XuXpXgXgXpXiX.XN.1.;.| *.>.1.N..XiXpXgXfXpXiXoXB.p.&.^ ~ W ~ ^ X.%.O. .U D 6 4 4 3 r p ",
"0X0X0XwXqXqX3XI.M y < - V J P ! ^ ..%.d.V.{.oX+X&X%X.XZ.b.,.;.| | *.,.b.C..XOX&X+XoX{.V.p.-...^ ~ W W ~ X.X. .U C 6 5 y d v b b ",
"0X0X0XqXwXqX1X~.M u 6 > Z Z L I W ^ ^ u.i.g.h.h.C.C.N.b.a.,.;.| | | >.a.n.N.C.B.V.h.g.i.u./ ^ ^ W W W ! ! Y U C ; < 4 d n J.K.P.",
"0X7X0XqXqX8X;X^.e.4.C V Z A K L P W ! / u.u.u.i.i.p.1.<.,.:.;.;.;.>.>.,.1.a.p.i.u.u./ u./ W ^ ~ W W W P I T F 6 < 1 t v J.Y.-X1X",
"0X0X0X7X6X2X).!.w._ G A Z S S J K L I I P W W ~ o.@.$.=.$.*.=.*.=.*.=.$.=.$.#. .! W R I I I I I P P K K A C 6 8 2 t d F.U.<X0XwX",
"wX0X7X2X;X(.Q.y.8.[ Y Y I L J S A C Z A J J P P Y E { { ....o...o...o...{ { { E P P I J Z Z V V V V V > > 5 5 4 d l F.L.-X5XqXeX",
"wXqX7X;X^.G.w.8.7.+.X.Q P R L C 6 6 5 6 Z J J L B B B Y Q ~ ~ ~ E E ^ ! Y Y B K K K S Z 6 5 5 < - < < = = , 2 d n J.U.-X1X6X0XwX",
"qX9X2X(.G.6.4.[ ] %.@.o./ W L C 5 , , < > C S S G K U U P W W W ~ ~ W R U K G J J S C 6 5 , # # + # , + + @ t v J.Y.<X5X6X9X0X0X",
"3X;X).!.w.[ U Y ..#.-.o.^ ! L V < , @ , 5 6 V C G H T T 7./ u.u.u.u./ 3.R R _ T C C 6 5 , + O % & r r r * i l n I.>X9XqX0X0X0X0X",
"(./.Q.t.8.[ Y ....o.o.X.~ ! J V , @ o @ , 5 8 D _ 7.8.g.g.h.h.h.h.h.h.g.0.8.7._ D 8 5 , + o % e a l x x b b n K.R.5X0XeXqX0X0X9X",
"r.e.w.8.7.@.X.......^ / ! L A 6 , + . o + , 2 q 6.0.m.].}.oX+X+X+X+XoX}.V.m.0.9.q 7 , + . o & a b J.K.K.I.L.U.-X-X9X0XqXqX0X0X9X",
"4.4.5.[ ] O.$.X...^ ! P I G C 5 2 @ o o o @ 2 g 9.m.}.+X&XuXpXgXgXfXuX&X X}.x.9.g 3 + o . O r x J.Y.-X<X3X-X1X1X5X9X0X0X9X0X0X0X",
"6 C F U ] O.O. .Y I L J Z V 6 8 4 9 e e O O 3 h k.S. X$XuXyXsXfXfXsXyX*X#X XA.k.h 3 O O % e l n U.1XqXqX0X9X9X7X0X0X9X0X0X0X0X0X",
"- - ; ; D ) ) ) F Z V > > 5 5 g f z z a e & 9 k v.}.$X$X#XXXXX'.XXXXrX#X$X#X@Xv.k 3 % & a z n K.-X5XqXqXeXqXqXqXqX9X0X9X9X9X0X9X",
"= = = < : 7 7 5 5 < - = = = 4 d M J.J.b a * 9 k v.@X$X@X}.v.l.l.t.l.v.}.@X$X@Xv.k 9 * a x J.U.-X1X5XqXqXqXqXqX0X0X0X0X0X0X9X0X0X",
"@ + # 1 # # 1 1 # 1 # + + # t v J.R.T.J.z i 9 k v.$X$X@Xx.9._ q g 6.9.c.@X$X$Xx.k 9 * l J.T.:X3X6X7X0X0X0X7X0X9X0X0X0X9X9X0X0X0X",
"r r i r p p p p r r r r r r d F.U.1X<XL.c i 9 k v.@X@XS.z.9._ _ 7 ` 6.j.}.$X@Xv.k 9 e z K.-X8XwXqX0X0X0X0X0X0X0X9X0X0X9X0X9X9X0X",
"b b c c c x x c c c c x x b F.P.:X1X1XL.c r 9 h k.}.@XA.z.9.9.` ` 9.0.z.S.}.S.k.h * r x K.1X0XwXqX0X0X0X0X9X0X0X0X0X0X0X0X0X0X0X",
"L.L.L.L.L.K.L.L.L.L.L.L.K.L.U.R.3X6X:XL.c * $ 0 9.j.A.A.A.x.z.z.z.z.z.m.A.A.x.9.0 1 r z L.:X0XwXqX0X0X0X7X0X0X0X0X9X0X0X0X0X0X0X",
":X:X:X:X:X:X:X>X1X-X2X-X:X:X<X5X9X6X:XL.c p $ 0 w j.j.j.A.A.A.S.S.S.A.A.x.j.k.w 0 * p c L.:X8XwXqX0X0X0X0X0X7X0X0X0X0X0X0X0X0X7X",
"7X9X9X9X8X8X7X9X0X0X7X0X0X7X0X0XqX9X<XU.F.d 9 0 w w 9.j.j.x.A.A.S.S.m.z.j.9.` 0 0 s l n U.1X8XqXqX7X0X7X0X0X0X0X0X0X0X7X0X0X0X0X",
"qXqXqXqXqXqXqXqXqXqXqXqX0XwXqXwXwX0X1XT.K.F.v j h w w k 9.k.k.k.k.k.k.9.w w w h f v F.K.).1X8XqXqX0X0X0X0X0X0X0X0X0X0X0X0X0X0X0X",
"qX0XqXqXqXqXqXqXqXqXqX0XwX0X0XqXqX9X4X<X-XU.J.M j 0 0 0 0 h h h w h h 0 0 0 0 j M J.U.-X-X7X0X0X9X0X0X0X0X0X7X0X0X0X0X0X0X0X0X0X",
"0X0X0X9X9X0X7X0X9X0X0X9X0X0X0X0X0X9X6X6X4X<XT.J.z 9 $ $ $ 9 9 9 9 9 9 $ $ $ 9 z J.-X1X5X0X7X9X0X9X0X0X0X0X0X0X0X0X0X7X0X7X0X0X0X",
"0X0X0X0X0X0X0X0X0X0X0X0X0X0X0X0X0X0X0XqXqX6X:XL.b i O X o o o O o o o o o O i c K.-X7XqXqXqX9X0X0X0X0X0X0X0X0X7X0X0X0X0X0X0X0X0X",
"0X9X0X0X0X9X0X0X0X9X0X0X0X0X0X0X0X0X0XwXeXqX3XP.b e X X X X X X X X X     o i b I.3XqXeXeX0X0X9X9X9X9X0X0X0X0X0X0X0X0X0X0X7X0X0X"
};
