/* XPM */
static char *result[] = {
/* columns rows colors chars-per-pixel */
"64 64 236 2 ",
"   c #2C1E1E",
".  c #282625",
"X  c #2B2B2A",
"o  c #362425",
"O  c #352929",
"+  c #3C2A29",
"@  c #3C332B",
"#  c #2A2E31",
"$  c #2C3536",
"%  c #353C3E",
"&  c #393838",
"*  c #501D1D",
"=  c #6A1D1D",
"-  c #54251E",
";  c #722B1E",
":  c #69331C",
">  c #741F21",
",  c #492727",
"<  c #5A2626",
"1  c #453129",
"2  c #543529",
"3  c #453B37",
"4  c #563637",
"5  c #672727",
"6  c #782827",
"7  c #673825",
"8  c #6D342E",
"9  c #4B4236",
"0  c #594A37",
"q  c #774C33",
"w  c #7B603D",
"e  c #2D3C40",
"r  c #373E40",
"t  c #443E42",
"y  c #593B40",
"u  c #6C3F41",
"i  c #364346",
"p  c #394143",
"a  c #3A4F53",
"s  c #454544",
"d  c #544B4F",
"f  c #455559",
"g  c #575755",
"h  c #685945",
"j  c #6A514B",
"k  c #726755",
"l  c #4C5E64",
"z  c #496066",
"x  c #4C666E",
"c  c #4C686F",
"v  c #556468",
"b  c #4D6A72",
"n  c #5A7179",
"m  c #686867",
"M  c #6E7274",
"N  c #952A1F",
"B  c #872626",
"V  c #8F2529",
"C  c #8B2929",
"Z  c #942323",
"A  c #992626",
"S  c #932A29",
"D  c #9C2B29",
"F  c #87362A",
"G  c #953626",
"H  c #9F3028",
"J  c #993937",
"K  c #A92624",
"L  c #A32A29",
"P  c #AC292A",
"I  c #B92A26",
"U  c #B32B29",
"Y  c #AA3627",
"T  c #B73925",
"R  c #A43536",
"E  c #AF3032",
"W  c #CA371F",
"Q  c #C72D27",
"!  c #C93A26",
"~  c #C33129",
"^  c #CC3429",
"/  c #D23724",
"(  c #CC3732",
")  c #9D441C",
"_  c #A4451E",
"`  c #9A4623",
"'  c #904B39",
"]  c #A94A26",
"[  c #B84727",
"{  c #B34938",
"}  c #85663F",
"|  c #C6431F",
" . c #E3551F",
".. c #E65C1D",
"X. c #C74A27",
"o. c #D54525",
"O. c #D64727",
"+. c #DB4C26",
"@. c #C95428",
"#. c #CD5B29",
"$. c #D55629",
"%. c #DC5329",
"&. c #DC5B29",
"*. c #D45334",
"=. c #E15425",
"-. c #E45D24",
";. c #E25B28",
":. c #E15834",
">. c #E66124",
",. c #E7632A",
"<. c #E96529",
"1. c #E96C34",
"2. c #E86B38",
"3. c #E9723B",
"4. c #983E41",
"5. c #A83C40",
"6. c #944043",
"7. c #9E4644",
"8. c #965451",
"9. c #A8544C",
"0. c #A85B53",
"q. c #96704C",
"w. c #B16F57",
"e. c #985F65",
"r. c #98666B",
"t. c #976B73",
"y. c #997071",
"u. c #A17071",
"i. c #D24D46",
"p. c #E06344",
"a. c #E56E46",
"s. c #E97643",
"d. c #E97748",
"f. c #EA7A54",
"g. c #EA7B57",
"h. c #D26D69",
"j. c #DA7778",
"k. c #B18858",
"l. c #9D8464",
"z. c #9B8073",
"x. c #B88C63",
"c. c #B99468",
"v. c #AA957A",
"b. c #EB8659",
"n. c #F28958",
"m. c #C49468",
"M. c #EB8A6A",
"N. c #EC926A",
"B. c #EC8C75",
"V. c #E88978",
"C. c #EC9776",
"Z. c #F39A73",
"A. c #C9A26E",
"S. c #CAA478",
"D. c #F8A17B",
"F. c #5A7981",
"G. c #947981",
"H. c #72898F",
"J. c #688A93",
"K. c #6C96A2",
"L. c #6C99A4",
"P. c #6E9FAA",
"I. c #769AA5",
"U. c #74A1AD",
"Y. c #7DACB9",
"T. c #7DB1BE",
"R. c #7FB4C2",
"E. c #868787",
"W. c #978994",
"Q. c #998A92",
"!. c #979290",
"~. c #AF9D81",
"^. c #869BA7",
"/. c #9699A4",
"(. c #96A1AD",
"). c #98ADB9",
"_. c #A5A7A8",
"`. c #AEADAD",
"'. c #B5B6B7",
"]. c #D29480",
"[. c #ED9587",
"{. c #ED9D97",
"}. c #CFAC8E",
"|. c #EFA687",
" X c #EEAB91",
".X c #E8B99A",
"XX c #F3B69C",
"oX c #CDB9AD",
"OX c #EDA9AA",
"+X c #F2BDA6",
"@X c #EBB3B2",
"#X c #DAC39B",
"$X c #DFC5A4",
"%X c #E8CDA6",
"&X c #F4C2AC",
"*X c #EDC5B6",
"=X c #F4C9B6",
"-X c #FCCAB5",
";X c #83B8C7",
":X c #96B6C4",
">X c #89C1CF",
",X c #96C0CF",
"<X c #98C1CF",
"1X c #8BC3D3",
"2X c #8DC8D8",
"3X c #96C7D6",
"4X c None",
"5X c #92CFDF",
"6X c None",
"7X c #96CFE0",
"8X c #96D4E5",
"9X c None",
"0X c None",
"qX c None",
"wX c None",
"eX c None",
"rX c None",
"tX c None",
"yX c #C5C7C7",
"uX c #C9CED1",
"iX c #D6D1D0",
"pX c #DCDCDC",
"aX c #ECD5CF",
"sX c #F6D7CA",
"dX c #F5E4DC",
"fX c #DBDEE2",
"gX c #E3DEE3",
"hX c #DDE3E5",
"jX c #E6E7E8",
"kX c #F6E8E5",
"lX c #F9F1EC",
"zX c #E6ECF5",
"xX c #EEF2F5",
"cX c #F5F5F4",
"vX c #F9F7F6",
"bX c #FCFEFE",
/* pixels */
"wXwXwXwXwXwXwXwXwXwXwXqXqXwXwXeXeXeX6X(.t.4.S Z Z V V V V V V Z V V V V V V V Z Z Z 6.t./.6XeXrXrXwXwXwX0XwXwXwXwXwXwXwXwXwXwXwX",
"wXwXqXwXqXwXwXqXwXwXwXwXwXwXwXwXeXwX:X(.t.4.V Z Z V A V S S S S S S S S S S Z Z Z S 6.t./.,X0XeXeXwX0XwXwXwXwX0XwXwXwX0XwX0X0XwX",
"wXqXwXwXwXwXwXwXqXwXwXwXwXwXqXqX6X4X).G.e.4.A A D H L H H H H H D H H H H H D D A D 4.e.W.).4X8X8X0XwXwXwXwXwX0X0XwXwX0X0XwXwXwX",
"wXwXwXwXwXwXwXqXqXwXwXwXeXwX9X3X:X).W.t.8.5.P K Y E ] T T ] T T T T Y [ [ T Y Y L L R 0.t.Q./.:X3X8XeXeXeXwXeXeXeXwXeXeXeXwXeXeX",
"wXwXwXwXqXwXwXqXwXwXwXwXeXeX6X:X/.G.e.8.7.E U I ! X.X.X.X.X.X.X.X.X.X.X.X.X.X.T U U E 5.9.r.G./.:X7XeXrXrXrXeXeXeXeXeXeXeXeXeXeX",
"qXwXwXwXwXwXwXwXwXwXwXwXeX0X4X(.G.8.4.R U I ~ ^ o.$.&.&.&.&.&.&.&.&.&.;.&.&.$.O.! ~ I E R 4.8.G.(.4XqXeXwX0X0X0X0XqXqX9X0X0X0X0X",
"wXwXqXqXqXwXwXwXwXwX0X9X7X4X).Q.r.' Y U I ~ ( o.+.;.<.1.1.1.2.2.1.1.2.1.1.,.;.%.o.^ ~ I P L ' e.W.).4X3X3X,X,X,X<X<X<X<X<X<X1X<X",
"wXwXqXwXqXwXwXwXrXwX9X3X:X(.Q.u.9.{ T T ! / O.+.&.-.1.2.s.f.g.g.g.g.f.s.2.1.-.=.+.+./ ! I T { 0.y.Q././././././././././././././.",
"wXqXqXqXqXqXqXeXrXwX8X:X/.G.r.0.{ @.X.O.O.$.=.=.=.<.1.a.g.M.B.[.B.B.B.b.s.1.-.;.=.=.+.+.o.X.[ 9.0.r.t.t.t.t.t.t.y.r.r.t.r.t.t.r.",
"qXqXeXwXeXqXqXeXrX0X3X/.t.8.' { [ $.&.;.&.-.;.-.-.<.2.f.M.[.{.{.{.{.[.M.f.2.-.-.;.;.;.;.-.&.$.@.{ 4.4.4.4.4.4.4.4.' 4.4.4.4.4.6.",
"qXeXqXqXqXqX9X9X5X4X).W.e.' L T X.&.>.<.>.,.>.>...<.2.g.B.{.OXOXOXOX{.B.f.2.<.-.<.-.-.<.<.<.&.X.Y Y A Z V V A A S S S Z C B 6 B ",
"qXqX0XeXeXeX9X3X:X(.W.r.7.R K ~ o.-.<.<.>.>.>.....-.2.g.B.{.OX@X@XOX{.V.f.1.-...-.<.-.<.<.<.&.O.T K K Z Z V Z A K K A Z B = = 5 ",
"qXwXeXeXeXeX6X:X/.G.e.9.5.U I ~ O.-.<.<.<.-.-.-.....2.g.B.{.OX@X@XOX{.B.g.1.-.-.....>.>.<.<.;.+.! I K K A Z A A K I K V = < * * ",
"wXqXqXwXeXwX:X).G.8.4.L U U ~ / +.;.,.<.<.>.<.,.<.<.2.g.B.{.OXOXOXOX{.B.g.2.<.-.<.<.<.<.<.>.;.+.o.Q I K L A A P U U P C 5 , o . ",
"eXqX0X9X6X4X).W.e.4.L K I Q ( o.+.;.<.1.3.3.d.d.d.d.f.g.B.[.{.{.{.{.[.B.g.g.d.d.s.s.s.2.1.<.-.+.o.! Q U P A A A K K R C 4 3 p i ",
"eXeX9X3X:X(.W.t.7.R K I Q ^ o.+.=.-.<.s.n.Z.Z.Z.D.Z.Z.B.B.V.M.V.j.B.B.B.Z.Z.Z.Z.D.Z.Z.b.s.1.-.=.+.O.( I P D Z Z Z V C u j v c b ",
"rXeX6X:X/.G.e.7.R E Q ~ / O.+.=. .-.2.b.C.+X-X-X=X&X.X|.B.b.d.d.d.d.g.N.|.XX&X=X=X&XXX[.n.2.-. .=.+.O.! E L C B > 5 4 j M J.K.P.",
"eX0X3X(.G.e.4.R P I Q ^ O.%.-.-.-.>.d.N..XaXkXkXlXkXsXXXC.f.1.,.,.1.f.Z.+XsXdXcXkXkXsX XN.3.<.-.-.;.$.X.T D C 5 < , t v J.).R.2X",
"2X4X).Q.e.4.L K K P T ! +.&.,.1.1.3.b.C..XiXfXzXxXvXdX-X|.b.3.1.2.3.n.|.*XkXcXxXzXgXaX.XC.b.3.2.1.,.&.X.Y G 6 4 2 t f F.U.1XwXeX",
"/./.W.u.9.E K Z Z S S [ @.&.1.s.n.N.C.}.}.'.'.uXhXvXlXsX&X|.N.N.N.C.|.+XsXlXcXhXuX'.`.`.}.C.N.n.s.1.&.[ G F 8 y d z F.K.R.8XrXrX",
"t.t.e.9.5.E U Z 6 6 ; G [ &.3.n.D.XXoX}.W.E.W._.uXxXlXkXsX=X+X+X+X&X&XsXkXvXlXuX).E.E.Q.}.oX XD.n.3.$.] F : 4 d n J.U.R.2X8XeXeX",
"4.4.4.5.E U P V 5 , 2 7 ] #.3.Z.+XsXiX`.F.j d H.`.pXvXvXlXdXdXdXdXdXdXlXvXvXpX`.E.g f y.`.iXsX+XZ.s.#._ : 2 3 z J.Y.1X5X8X0X0XeX",
"C C V V L P A B - + @ 7 ` #.s.D.-XdXhX_.M & & m !.yXgXjXcXcXvXvXvXvXcXxXjXfXyX!.m & p M `.hXkX-XD.s.#._ : 1 r c K.;X0XeXeX0X0XeX",
"5 5 > > 6 V 6 < 1 O @ 7 ` #.s.D.-XkXhX_.M $ X 9 m !.'.yXfXxXbXbXbXvXxXhXuX`.!.m 9 . $ M _.hXlX-XD.s.#._ : 1 r c P.1XeXrXeXwX0X0X",
", , * < < < < , o X + 7 ) #.b.D.-XkXfX`.M & . X s m M _.yXjXbXbXbXbXjXyX_.M m s O . @ M `.hXdX-XD.s.#.) : @ i c L.1XeXeXeXwXwXqX",
"o o O O + o + X . X 1 7 ] #.3.D.-XdXfX`.M t X . X & g E.'.hXvXbXbXcXjX'.E.g & X X # s M `.pXdX-XD.s.#.) : 1 i x P.;XwXeXeXwXwXwX",
"o + + + 1 1 @ O X X 1 7 ) #.s.D.-XdXfX'.E.m s & & % g E.'.hXvXbXbXvXhX'.E.f t $ 3 s v E.'.hXdX-XD.s.#.) : 1 p x L.1XwXeXeXwXwXwX",
", , 4 < 7 : 0 2 + X 1 7 ` #.s.D.-XkXzXuX_.E.M m m n z._.yXjXbXbXbXbXjXyX(.y.M m m M E._.uXzXkX=XD.s.#.) : 1 i c L.;XwXeXeXwXwXqX",
"5 6 6 F ' ` ` 0 1 O @ 7 ) #.d.D.-XdXxXhXuX'.`._._._.`.yXpXcXbXbXbXbXxXfXyX`.`._._._.'.uXhXxXkX-XD.s.#.) : 1 p x L.1XqXeXwXwXwXwX",
"6 C F Y [ @.[ ' 7 @ 1 : ` #.d.C.&XdXcXxXjXhXpXpXpXiXpXjXjXcXcXvXvXvXlXjXjXpXpXiXpXpXgXjXxXlXdX&XZ.s.#.) : 1 p c L.;XqXeXeXwXwXwX",
"6 B V R [ +.@.] q 2 2 : ] $.2.N.XXsXdXlXcXvXvXvXcXvXcXlXkXkXdXdXdXdXkXlXlXvXvXvXvXvXcXcXlXdXsX XN.a.@.) 7 + r x L.;XwXeXwXwXwXwX",
"5 > 6 G ] X.X.] ` 8 q ) ] X.:.g.C.XX&XsXkXvXbXbXbXbXvXkXsX=X&X+X+X&X=XsXdXlXbXbXbXbXvXlXsX=XXXC.f.:.[ G 5 1 r b L.1XwXeXwXwXwXwX",
"* , < 6 G Y [ [ { ] ] [ ! ^ :.:.f.N.|.&XdXlXbXbXbXbXlXsX+X|.Z.N.N.C.|.&XsXlXbXbXbXbXlXsX&X|.M.f.:.*.T S 5 + r x K.1XqXeXwXwXwXwX",
"O O , < 8 G H [ [ @.@.@.( ^ ( o.*.a.b.|.=XdXvXbXbXcXkX&X|.b.s.3.3.s.b.|.=XdXvXbXbXcXkX=X Xb.a.:.O.( I V < + r x L.;XwXeXwXwXwXwX",
"i r t 4 8 6 S Y X.#.$.O./ ~ Q / o.%.a.V. XsXdXkXkXdXsXXXN.d.<.....,.s.N..XsXdXkXkXdXsXOXN.a.%.o.W ~ P B 5 , t b I.1XqXrXwXwXwXwX",
"b b v f y 5 ; C Y X.O./ ^ ^ Q Q / +.:.p.V.{.OX@X@X&XXXZ.n.2.........1.b.C.XX+X*X@XOX{.j.a.:.O./ Q U K B 5 5 y m I.2XwXrXrXwXwXwX",
"P.K.J.n d 4 < 5 G Y T ! Q Q Q Q / / / i.h.h.j.V.C.C.N.b.s.1.-.....>.1.3.b.N.Z.V.V.j.h.p.i.O.^ Q I K A Z > 6 u M ^.2XeXrXrXwXwXwX",
"2X>XY.J.v t , < 6 F L T U Q Q Q Q Q ^ ( ( ( i.i.p.d.a.3.1.<.<.-.>.>.>.1.3.s.a.p.i.i.i.( ( ^ Q U K L A Z B B 4.t./.,X0XwXwXwXwXwX",
"eX9X1XU.F.f t 3 8 6 B S K K P U P U I I I Q Q | O.$.&.&.;.;.=.=.;.;.-.&.-.&.$.O.^ Q I I I U U P L D D A A H ' r.W.).3X8X9X0XwXwX",
"tXeX5X;XK.F.l d y 5 = 6 > B V B V V V A K K I I T | | o./ +.+.o.+.+.+.o.| | | T I I P K A V V S D L K Y T T { 0.u.W./.:X3X9XwXrX",
"rXwX8X2XR.U.J.n d 2 , * * < < < < < 5 6 Z K K K P Y T T W W / / / / W W T T K I K K K B 6 5 6 6 S P U ! X.X.*.9.0.r.y./.:X6XeXrX",
"wXwX0X9X5X1X^.J.v s o o o , , + o , , < 6 V A D D L K Y I ~ Q Q ^ Q ~ I Y Y H H N H V ; < , , 5 C P ~ / O.%.$.X.{ ' e.y.(.6X0XrX",
"wXwXwXwXeX0X2XU.n f p % r r r $ # X O , 5 6 C C R H E 5.X.9.i.i.i.i.i.E R R J S S B 6 < , o + < B P ~ ( +.%.%.X.T Y 7.r.Q.).1X6X",
"wXwXwXeXeXeX5XR.K.F.c x x x z a r # . o , 5 8 F ' 9.0.w.h.j.j.j.j.j.j.h.h.9.9.' F 8 5 , o . o < 6 L ~ / / +.+.o.| W { 0.u.Q././.",
"wXwXwXwXeXwX9X1X;XP.K.K.L.L.J.b a # .   o , 4 q q.w.m.].}.OX@X@X@X@XOX}.].h.w.q.q 4 , o . . o , 6 D P ~ ! / O.o.O.O.#.{ 0.u.r.y.",
"qXwXwXqXwXwX8X8X2X1X1X1X2X;XY.J.z r . . . o 4 j q.m.}..X*XaXkXkXkXgXaX=X.X}.c.q.h 4 O . . . O < 5 V L P I Q ^ o.+.$.#.#.{ 7.4.4.",
"wXwXwXwXwX0X0X0XwXwXwXwXwX0X1XU.F.f r # X X 3 h l.S.#X*XaXiXgXjXjXgXgXsX%X#X}.l.h 3 X # $ r r 4 8 6 C S L U U T X.@.[ ] G S B 6 ",
"wXwXwX0XwXwXwXwXwXeXrXrXrXrX5X;XL.n z a $ # 3 k v.}.%X%X$XoX'.oXoX'.oXoX%X%X}.v.k 3 $ e a z v d y 5 5 > > B C G G ` ) G F 5 = = ",
"wXwXqXwXqXwXwXwXwXeXwXtXeXwX9X1X;XU.J.x i $ p k v.#X%X$X}.v.z.z.y.z.v.}.%X%X#Xv.k t $ a b J.J.n g 4 , * * 5 < 5 : 7 7 < - - * * ",
"wXqXwXqXqXwXwXwXwXwXwXwXwXwXqXqX7X>XY.J.f i 9 k ~.%X%X}.c.0.8.q q w q.c.#X%X%Xv.k 9 i z J.T.T.K.v t + o o + , + + 1 1 + 1 + O X ",
"wXwXwXwXwXwXqXwXwXwXwXwXwXwXwXwXeX0X>XK.x i 9 k v.#X%XS.x.} } ' ' q } k.S.#X#Xv.k 9 i c L.1X2XU.F.f r r % p p r p p p p p p r p ",
"wXwXwXqXwXwXwXwXwXwXqXqXwXwXwXrXtXwX>XK.x % & h l.S.#XS.k.w.} } } q.k.c.A.#XS.l.h & % x P.2X5X;XI.F.x x x x b c x x x c c c c c ",
"qXwXwXwXwXqXwXwX9XwXwX9XwXwXwXeXeXwX1XK.z r 3 0 l.k.A.A.A.k.c.k.x.m.m.m.A.A.c.q.0 & % x L.1X8X2X;XU.L.K.K.K.I.L.L.L.K.K.K.L.L.K.",
"wXwXwXwXwXwXqXwXwXwXwXwXwXwXwXeXeX0X1XL.c i @ 0 w k.k.k.A.A.S.A.S.S.A.m.m.k.q.w 0 @ p c L.1X8X0X5X2X1X;X1X;X1X;X>X>X>X>X>X>X>X>X",
"wXwXwXqXwXqXwXwXwXwXwXwXwXwXwXwXeX0X>XP.n f 9 0 0 w q.k.k.c.A.A.S.S.m.x.k.} } h 0 s f n P.1XwXeXwXwX9XqXwXwXwXwX9X9X9XwXwXqXqXqX",
"wXqXwXwXwXwXwXwXwXwXwXwXwXwXwXwXeX0X2XY.K.J.v g h w w w q.l.l.l.l.l.q.q.w w w h g v n K.).2XwXeXeXeXeXrXtXeXwXeXeXrXeXeXeXeXeXeX",
"wXwX9XwXwXwXwXwXwXwXwXwXwXqXwXwXwXwX8X>X).P.J.n g 0 9 0 0 h h h h h 0 0 0 0 0 g n J.U.T.1X8XwXwXwXeXeXeXeXeXeXeXeXeXeXeXeXeXeXeX",
"wXwXwXwXwXwXwXwXwXwXwXwXwXwXwXwXwXqX0X8X5X1XT.J.v 9 1 @ 1 & 9 3 & 9 3 @ 1 @ 9 v J.).>X5X8X8X0XwXwXwX9XwXwX9XwXwXwX9XwX9X9XwXwX9X",
"wXwXwXwX9XwX9XwXqXwXwXwXwXwXwXwXwXqXwXeXrX8X1XP.n f p % r p p p i p p % e i f J.U.>XqXeXwXwXwXwXwXwXwXwXwXwXwXwXwXwXwXwXqXwXwXqX",
"9XwXwXwXwXwXwXwXwXwXwX9XwXwXwX9XqXwXwXeXrXeX5XR.K.J.c x c c x x c c c c x c n K.;X7XwXrXeXwXwXwX9XwXwXwX9XwX9XwXwXwXwXwXwXwXwXwX",
"wXwXwXwXwXwXwXwXwXwXwXwXqXwX9XwXwXwXwXwXeXwX8X1XY.P.P.K.I.L.L.K.K.K.L.L.K.K.U.T.1XqXwXeXeX9XwXwXwXwXwXwXwXwXwXwXwXwXqXwXwXwXqXwX",
"wXwXwXwX9XwXwXwXwXwXqXwXwXwXwXqXqXwXqXwXwXwX0X7X2X>X>X>X;X>X>X>X>X>X>X>X>X>X1X2X6XqXwXwXwXwXwX9XwX9XwXwXwXwXwXwXwXwXwXwXwXwXwXwX",
"wXwXwX9XwXwXwXwXwXqXqXwXwXwXwXwXwXqXwXwXwXwXwXwXqXqX0X0XqXqXqX9X9X9XqXqXqXqXwX0XwXqXwXwXwX9XwXwXwXwXwXwXwX9XwXwXwX9XwXwXwXwXwXwX",
"wXwXwXwXwXwXqXwXwXwXwXwXwXqXwXwXwXwX0XwXqXwXwXwXeXrXrXrXrXtXrXtXeXtXrXrXtXtXeXeXwXwXwX9XwXwXwXwXwXwX9XwXwXwXwXwXwXwXwXwXwXwXwXqX"
};
