/* XPM */
static char *ee8df9da478b4cb2edcddad10042ef2bck2lnCfl6AVaCkfq[] = {
/* columns rows colors chars-per-pixel */
"64 64 251 2 ",
"   c #1B1F1D",
".  c #261B1D",
"X  c #301625",
"o  c #1B2829",
"O  c #2A2526",
"+  c #2C2B2B",
"@  c #3A2725",
"#  c #332E2E",
"$  c #283829",
"%  c #39342D",
"&  c #2D3334",
"*  c #393737",
"=  c #451823",
"-  c #4D3229",
";  c #423C36",
":  c #772022",
">  c #70342B",
",  c #2D681E",
"<  c #2B482E",
"1  c #29572A",
"2  c #324D3B",
"3  c #2E5534",
"4  c #286C26",
"5  c #2D752B",
"6  c #31712B",
"7  c #34752C",
"8  c #367837",
"9  c #57482B",
"0  c #514B31",
"q  c #73492B",
"w  c #744E2F",
"e  c #6D4B38",
"r  c #675636",
"t  c #765A39",
"y  c #536C36",
"u  c #62722F",
"i  c #3B3640",
"p  c #2B4843",
"a  c #325647",
"s  c #365A49",
"d  c #3B664C",
"f  c #3C6C53",
"g  c #565047",
"h  c #685949",
"j  c #755B49",
"k  c #6C5D50",
"l  c #466A51",
"z  c #4B7958",
"x  c #547857",
"c  c #6E6E4D",
"v  c #7C6B57",
"b  c #6E5266",
"n  c #951316",
"m  c #A9171A",
"M  c #A21F21",
"N  c #8B2224",
"B  c #952B2A",
"V  c #95312E",
"C  c #993A36",
"Z  c #A92829",
"A  c #DE141A",
"S  c #DF1722",
"D  c #CE2A29",
"F  c #E62929",
"G  c #E43C39",
"H  c #914737",
"J  c #875939",
"K  c #A3453E",
"L  c #956739",
"P  c #977033",
"I  c #A37E3B",
"U  c #E4433C",
"Y  c #944E46",
"T  c #955C45",
"R  c #A74B47",
"E  c #AA544F",
"W  c #8B684A",
"Q  c #976949",
"!  c #9C7647",
"~  c #866B55",
"^  c #8B775A",
"/  c #947A5A",
"(  c #A57C49",
")  c #AC6B54",
"_  c #A57C56",
"`  c #8F7966",
"'  c #BD7667",
"]  c #E75249",
"[  c #D86457",
"{  c #CF7665",
"}  c #2E8E25",
"|  c #349828",
" . c #368737",
".. c #3B943C",
"X. c #39A425",
"o. c #4E8E3A",
"O. c #44A937",
"+. c #4ABB32",
"@. c #6BB433",
"#. c #4BD92A",
"$. c #52D02D",
"%. c #4AC73B",
"&. c #4BD934",
"*. c #69C12D",
"=. c #4CE927",
"-. c #4BE628",
";. c #4FEC2D",
":. c #55E828",
">. c #5AE828",
",. c #6EF82B",
"<. c #3E8941",
"1. c #3D9342",
"2. c #488E4B",
"3. c #54825C",
"4. c #459B53",
"5. c #6C9051",
"6. c #48AA42",
"7. c #47B849",
"8. c #4AA45A",
"9. c #56A953",
"0. c #509063",
"q. c #539869",
"w. c #649C65",
"e. c #6E9D65",
"r. c #7D9F6B",
"t. c #4FAA61",
"y. c #55A36B",
"u. c #56B76C",
"i. c #55A571",
"p. c #5AAB74",
"a. c #5CB579",
"s. c #6FA86C",
"d. c #6AB877",
"f. c #61BD7C",
"g. c #72B879",
"h. c #5DC275",
"j. c #62C67C",
"k. c #75C37F",
"l. c #8E8838",
"z. c #A9932A",
"x. c #AD893C",
"c. c #B8993A",
"v. c #86B331",
"b. c #B1A92C",
"n. c #CBB32E",
"m. c #C4A934",
"M. c #93D232",
"N. c #A4CD36",
"B. c #A9EC28",
"V. c #C4C327",
"C. c #D7C62B",
"Z. c #DBC634",
"A. c #E8D72C",
"S. c #E9D83A",
"D. c #C6F42B",
"F. c #EEE42A",
"G. c #F3EA29",
"H. c #F4ED2A",
"J. c #FAF126",
"K. c #F9F727",
"L. c #FBF128",
"P. c #F3E735",
"I. c #F2EA32",
"U. c #96884B",
"Y. c #B58D52",
"T. c #B58A5A",
"R. c #928370",
"E. c #988976",
"W. c #AB8C6F",
"Q. c #BC9466",
"!. c #BA9974",
"~. c #93AB75",
"^. c #C39A58",
"/. c #C9A644",
"(. c #D1B250",
"). c #CA8F6E",
"_. c #C98C76",
"`. c #C49D74",
"'. c #CA9779",
"]. c #D39A7E",
"[. c #EE967E",
"{. c #CAA578",
"}. c #D4AB7B",
"|. c #D5B072",
" X c #E2BD74",
".X c #DFC458",
"XX c #E1C94E",
"oX c #ECD849",
"OX c #EBD257",
"+X c #453884",
"@X c #5D5DA1",
"#X c #2E4DF3",
"$X c #6475E3",
"%X c #63BF80",
"&X c #5FC080",
"*X c #4AAD4A",
"=X c #75CB85",
"-X c #4AAD4A",
";X c #68D687",
":X c #6BD38B",
">X c #4AAD4A",
",X c #73D68C",
"<X c #4AAD4A",
"1X c #6EE393",
"2X c #4AAD4A",
"3X c #74EC96",
"4X c #4AAD4A",
"5X c #75E999",
"6X c #79EC9D",
"7X c #77F29A",
"8X c #79F89D",
"9X c #6C88FF",
"0X c #8B8A89",
"qX c #868996",
"wX c #A59883",
"eX c #B3978C",
"rX c #AFB098",
"tX c #C39F82",
"yX c #D49B82",
"uX c #F19C83",
"iX c #D7A787",
"pX c #D2B28A",
"aX c #DAB797",
"sX c #E8AC85",
"dX c #F4A689",
"fX c #E4BD97",
"gX c #D3BBA6",
"hX c #E2BAA1",
"jX c #E0BEBC",
"kX c #90D797",
"lX c #A1DDA1",
"zX c #DDC39B",
"xX c #E7C598",
"cX c #F2C896",
"vX c #FDD89F",
"bX c #D5D0AF",
"nX c #E8CCA3",
"mX c #EDD3A9",
"MX c #F3D6AB",
"NX c #E8D4B8",
"BX c #F4DCB4",
"VX c #F6DDB7",
"CX c #F8E2B8",
"ZX c #FAE3BB",
"AX c #939BE1",
"SX c #E3CEC8",
"DX c #FBE8C5",
"FX c #FCF4C9",
"GX c #F6EED0",
"HX c #DBD9E6",
"JX c #EDEFF1",
/* pixels */
"2X2X2X2X2X2X2X2X2X2X2X4X2X2X2X2X2X2X2X2X2X2X2X2X2X2X2X2X6X4X6X5X5X4X4X4X4X2X2X2X2X2X2X2X2X2X2X2X2X2X2X2X2X2X2X2X2X4X2X2X2X2X2X2X",
"2X2X2X2X2X2X2X2X2X2X2X2X2X2X2X2X2X2X2X2X2X2X2X2X2X2X2X>X-X-X*X-X*X-X-X-X>X2X2X2X2X2X2X2X2X2X2X2X2X2X2X4X2X2X2X2X2X2X2X2X2X2X2X2X",
"2X2X2X2X2X2X2X2X2X2X2X2X2X2X2X2X2X2X2X2X2X2X2X2X6X6X<Xh.8.1.4.4.4.4.4.8.a.1X6X4X4X2X2X2X2X2X2X2X2X2X2X2X2X2X2X2X2X2X2X2X2X2X2X2X",
"2X2X2X2X2X2X2X2X2X2X2X2X2X2X2X2X2X2X2X2X2X2X2X2X2X2X;X8.5 4 5 6 5 5 4 5 8.;X4X>X>X1X2X2X2X2X2X2X2X2X2X2X2X2X2X2X2X2X2X2X2X2X2X2X",
"2X2X2X2X2X2X2X2X2X2X2X2X2X2X2X2X2X2X2X2X4X4X;Xu.t.t.8.4. .| | X.X.| }  .1.t.t.t.u.:X4X4X2X2X2X2X2X2X2X2X2X2X2X2X2X2X2X2X2X2X2X2X",
"2X2X2X2X2X2X2X2X2X2X2X2X2X2X2X2X2X2X2X2X4X3Xa.<.4 6 8 ..6.+.#.=.-.&.+.6.1.8 5 4 <.h.5X4X2X2X2X2X2X2X2X2X2X2X2X4X2X2X2X2X2X2X2X2X",
"2X2X2X2X2X2X2X2X2X2X2X2X2X2X2X2X2X2X5X2X;Xa.8...5 } | X.%.&.;.:.:.;.&.%.X.| } 5  .8.h.:X2X2X2X2X2X2X2X2X2X2X2X2X2X2X2X2X2X2X2X2X",
"2X2X2X2X2X2X2X2X2X2X2X2X2X2X2X2X2X2X5X2Xu... .2...%.#.#.&.#.:.-.=.;.:.&.#.#.%...1. .<.u.2X2X2X1X2X2X2X2X2X2X2X2X2X2X2X2X2X2X2X2X",
"2X2X2X2X2X2X2X2X2X2X2X2X2X2X2X2X4X1X:X*X4.8  .6.%.&.=.=.=.=.=.=.=.=.=.-.=.=.#.%.O. .8 8.*X>X2X2X2X2X2X2X2X2X2X2X2X2X2X2X2X2X2X2X",
"2X2X2X2X2X2X2X2X2X2X2X2X2X2X2X4X4X:Xu.1.1...+.%.-.-.=.=.=.=.=.=.=.=.=.=.=.=.;.-.%.X...1.1.u.:X2X2X2X2X2X2X2X2X2X2X2X2X2X2X2X2X2X",
"2X2X2X2X2X2X2X2X2X2X2X2X2X2X2X4X5X-X4.4  .X.%.&.>.>.>.>.>.>.>.>.>.>.>.>.>.>.>.>.$.%.7. .5 4.-X2X2X4X2X2X2X2X2X2X2X2X2X2X2X2X2X2X",
"2X2X2X2X2X2X2X2X2X2X2X2X2X2X2X4X7X>X1., | &.%.@.v.N.B.B.B.B.B.B.B.B.B.B.B.B.N.v.@.%.#.| 4 1.;X2X2X2X2X2X2X2X2X2X2X2X2X2X2X2X2X2X",
"2X4X2X2X2X2X2X2X2X2X2X2X2X2X2X2X3X;X4.6 X.;.*.l.x.C.L.H.H.H.H.H.G.H.H.J.J.G.C.x.l.*.:.| 7 4.;X2X2X2X2X2X2X2X2X2X2X2X2X2X2X2X2X2X",
"2X2X2X2X2X2X2X2X2X2X2X2X2X4X4X,Xg.5.2...O.@.v.b.n.A.L.J.L.L.J.L.L.L.J.L.J.J.F.n.c.v.@.O...2.5.g.,X2X2X2X2X2X2X2X2X2X2X2X2X2X2X2X",
"2X2X2X2X2X2X2X2X2X2X2X2X2X4X6Xg.c w o.6.5.l.c.C.F.L.L.J.J.J.J.J.L.J.J.L.J.H.G.F.Z.c.l.O.O.o.w c =X2X2X2X2X2X2X2X2X2X2X2X2X2X2X2X",
"2X2X2X2X2X2X2X2X2X2X2X2X2X:Xd.~.^ L c o.5.( /.P.K.P.S.P.H.J.H.J.J.G.I.oXS.A.A.K.G.n.x.U.o.c L ^ r.g.,X2X2X2X2X2X2X2X2X2X2X2X2X2X",
"2X2X2X2X2X2X2X2X2X2X2X5X<Xg.c ^ '.pX/ r W !.(.P.P.OX XoXG.H.J.H.J.P.oX X(.x.n.G.K.F.n.z.r ^ pXtX^ c d.<X2X2X2X2X2X2X2X2X2X2X2X2X",
"2X2X2X2X2X2X2X2X2X2X2X5X<Xe.q T hXmXT.q ( |.OXS.S..X XoXH.H.J.J.J.P..X{.Q.T.c.Z.G.K.G.z.q W.mXzXT q e.<X2X2X2X2X2X2X2X2X2X2X2X2X",
"2X2X2X2X2X2X2X2X2X2X2X5X<Xe.q L zXBX!.J c.oXXXn.m.XXoXP.L.H.J.J.K.H.(.Y.T.Q.Y.m.n.G.H.m.L Q.CXxXL q e.<X2X2X2X2X2X2X2X2X2X2X2X2X",
"2X2X2X2X2X2X2X2X2X2X2X5X2Xe.q Q aXBX!.x.b.I.C.Y.x.C.H.J.H.L.H.H.J.F.c.( Q.{.`.( x.C.G.m.( !.MXaXT q e.2X2X2X2X2X2X2X2X2X2X2X2X2X",
"2X2X2X2X2X2X2X2X2X2X2X5X<Xe.e T iXxXT.H x.n.m.Y./.S.J.K.L.P.oXXXm.b.x.^.}.zX}._ x.(.oX/.( Q.xXiXT q e.2X2X2X2X2X2X2X2X2X2X2X2X2X",
"2X2X2X4X2X2X2X2X2X2X2X5X<Xe.r T `.}.! q J I Y.{.|.oXG.J.H.oX XQ.J w _ }.zXBXzXU.( ^.}.T.! T.pX`.J e e.2X2X2X2X2X2X2X2X2X2X2X2X2X",
"4X2X2X2X2X2X2X2X2X2X2X3X3Xw.9 > ! T.I P P J _ yX XoXoXS.Z./.T._ T Q '.xXBXCXxX`.T.T.Q.Y.c./.T.Q > 9 e.2X2X2X2X2X2X2X2X2X2X2X2X2X",
"2X4X2X2X2X2X2X2X2X2X2X3X<Xq.% @ > L n.C.z.w ! ).xX X|./.Y.I J T _ `.fXmXZXCXMXsX).Q J b.S.b.P > = < q.2X4X2X2X2X2X2X2X2X2X2X2X2X",
"2X2X2X4X2X2X2X2X2X4X<XkX<Xp.s * - q n.K.m.H J T.W.`.`.T.L J w Q `.xXmXMXnXzXpX{._ Y w b.L.n.q - * s p.2X2X2X2X2X2X2X2X2X2X2X2X2X",
"2X2X2X2X2X2X2X2X2X2X5X5X2X*Xa.z * 9 b.J.Z.P w 0 r / Y.L t L _ `.aXmXxXfX{.( T 0 0 J P C.J.b.9 * z p.2X2X2X2X2X2X2X2X2X2X2X2X2X2X",
"2X2X2X2X2X2X2X2X2X2X2X2X2X5X5Xa.2 % z.G.Z.I t * ; W Q w > L `.xXMXMXfX`.) e - & ; t I Z.G.z.% p %X2X2X2X2X2X2X2X2X2X2X2X2X2X2X2X",
"2X2X2X2X2X2X2X4X2X2X2X2X2X6X7Xa.2 @ U.OX/.L ~ 0XqX@X@Xg > ! aXMXZXmX`.Q b +X@XqX0X~ L /.OXx.+ 2 a.7X6X2X2X<X2X2X2X2X2X2X2X2X2X2X",
"2X2X<X4X4X<X<X4X2X2X2X2X2X5X2Xp.2 # / }._ q ` SXJX9X#X+X> ( nXVXZXnX_ q +X#X9XHXSX` q _ }.^ % p p.2X4X2X2X2X2X2X2X2X2X2X2X2X2X2X",
"2X2X4X4X4X4X4X4X2X2X2X2X2X4X2X*Xq.l v ~ e - ` GXJX9X#X@XE.pXMXZXZXmXiXE.@X#X9XJXGX` - e ~ v x 0.*X2X4X2X2X2X2X2X2X2X2X2X2X2X2X2X",
"2X2X2X<X4X4X<X<X2X2X2X2X2X2X2X<X>Xf.x % . O v nXHX$X#X9XHXGXDXZXCXBXFXJXAX#X$XHXnXv O . ; x f.:X<X2X2X2X2X2X2X2X2X2X2X2X2X2X2X2X",
"2X2X2X4X<X4X4X4X2X2X2X2X4X4X4X3X7X>X0.a & o h {.gX$X$XHXJXFXDXBXVXDXJXJXAX@X9XgXtXh O o 2 0.>X7X4X2X2X2X2X2X4X2X2X2X2X2X2X2X2X2X",
"2X2X2X2X2X2X2X2X2X2X2X2X4X4X5X6X7X3X>Xa.f & 9 _ `.eXrXSXFXGXZXCXZXZXDXDXbXrXeX_.U.- # f p.-X<X5X4X2X2X2X2X2X2X2X2X2X2X2X2X2X2X2X",
"2X2X2X2X2X2X2X2X2X2X2X:X*X*X-Xj.-X-X<X*X2.& - r Q T.{.pXxXnXMXBXBXMXMXmXxXiX).! r - * 0.2X7X2X2X2X2X2X2X2X2X2X2X2X2X2X2X2X2X2X2X",
"2X2X2X2X2X2X2X2X2X6X1Xp.f s f f d d f f 2   . - 9 r h h k E.pXcXxXxXxXxX}.^.! r 0 $ 1 t.5X7X2X2X2X2X2X2X2X2X2X2X2X2X2X2X2X2X2X2X",
"2X2X2X2X2X2X2X2X2X1X-X3.# O + $ + + + + + O + # + + + O + v !.pX}.}.iX}.Q.! t % o 1  .8.>X1X2X2X2X2X2X2X2X2X2X4X4X2X2X2X2X4X<X4X",
"2X2X2X2X2X2X2X2X:Xp.3.c j ~ ` R.0X0X0X0XqXqXqX0XqXR.v v j j ~ ~ ~ ~ ~ ~ j r 9 $ 3 2.9.9.t.h.1X3X2X2X2X4X2X2X2X2X2X2X4X2X2X4X<X4X",
"2X2X2X2X2X2X2X5Xj.d * v `.fXnXSXHXJXJXJXJXJXJXJXJXNXNXnX{./ 0 + & # # # @ # $ 1 8 g.kX0.5 4.-X7X2X2X<X4X2X2X2X2X2X2X2X2X2X2X2X2X",
"2X2X2X2X2X2X5X3Xa.2 O ^ xXcXiXaXjXjXSXjXjXjXjXjXjXaXaXcXxXE.# o $ < 1 < < 1 1 4 2.k.kXd.1.4.u.h.>X5X4X2X2X2X2X2X2X2X2X2X<X4X2X2X",
"2X2X2X2X2X2X5X3Xj.a # R.NXsXE H E R R K Y R Y R E K E yXMXE.* $ 8 1.....2... .5  .d.lXkXk.y. ...h.7X5X4X<X2X2X2X2X2X2X2X4X2X2X2X",
"2X2X2X2X2X2X4X6Xj.s # E.VXyXC n n M B C C C V M m n N _.BXwX; $ 1.7.7.7.7.7.o.7 y 9.=XkXlX~.2.2.s.=X,X2X2X2X4X2X2X2X2X2X2X2X2X4X",
"2X2X2X2X2X4X5X3Xa.s # E.BXiXC n m Z { yXiXiX{ D m n B _.BXwX; $  .7.7.7.7.7.2.r 0 y 2.kXbXbXpX~.U.c g.<X4X2X2X2X2X2X4X<X2X2X4X<X",
"2X2X2X2X2X2X5X3X&Xa # E.BXiXC m S ] uXBXFXZXsX] F m V '.CXwX; $ 2.7.6.6.O.O.o.q 9 , 7 ~.BXDXZXaXT e e.<X4X2X2X2X2X2X2X4X4X2X2X2X",
"2X2X2X2X2X2X5X3Xh.s # E.NXyXC C [ dXMXDXFXFXMXdX{ K V _.BXwX* < v.N.l.u u u u o.o.7 7 ~.ZXFXFXaXJ > e.2X6X2X2X2X2X2X2X2X2X2X2X2X",
"2X2X2X2X2X2X5X3Xa.s # E.MXyXC R pXCXZXBXZXCXCXCXfXE B _.CXwX$ 9 V.F.z.q > > u $.$.} 8 ~.BXDXZXaXT w w.1X4X2X2X2X2X2X2X4X2X2X2X2X",
"2X2X2X2X2X2X2X7Xj.a # E.BXyXC C { uXuXuX[.[.[.sX_.R B _.BXwX* 9 C.G.b.r y u @.=.=.X.6 5.!.'.`.W.R.5.g.1X4X2X2X2X2X2X2X<X2X2X2X2X",
"2X2X2X2X2X2X5X3Xa.a # E.BXyXC B D G G U U G G G D B B _.BXwX* 9 C.L.M.6.O.$.-.=.#.} , 0 w H H j s.,X<X2X2X2X2X2X2X4X2X4X2X2X2X2X",
"2X2X2X2X2X2X5X3X*Xa # E.VXyXC N U ] F A S A F ] U Z V _.BXwX& 9 b.D.*.&.&.-.#.$.X., , y c t r 5.k.7X4X2X2X2X2X2X4X<X2X2X2X2X2X2X",
"2X2X2X2X2X2X5X7Xf.a # E.VXyXB C yXdX] S A A ] dXdXR N _.CXwX* 1 @.,.,.#.&.%.O.6 < $ < x d.=Xd.=X,X3X2X2X2X2X2X2X2X2X2X2X2X2X2X2X",
"2X2X2X2X2X2X2X3Xj.a # R.mXiXE E pXnX{ ] F F [ fXgX' K ].BXW.i < X.#.#.#.%.1.y ; X X % x *X1X2X4X4X2X2X2X2X2X2X2X2X2X2X2X2X2X2X2X",
"2X2X2X2X2X2X5X6Xd.2 O ^ xXcXiX_.{ { _.uXdXdXuX' ' _.].fXxXE.# o , , 6 7 6 3 * - : N B h z i.:X5X2X2X2X2X2X2X2X2X2X2X2X2X2X2X2X2X",
"2X2X4X2X2X2X5X3X*Xa % v {.cXVXiXE C _.NXDXZX'.K R iXBXcX}.^ * O + + + O o & - N M D D : + f *X5X5X2X2X2X2X2X2X2X2X2X2X2X2X2X2X2X",
"2X2X2X2X4X2X2X2X*Xi.z c ~ !.nXxX'.' { !._._._.' ).fXmX!.~ c x z z l & O - : Z Z D F F n . s *X5X2X2X2X2X2X2X2X2X2X2X2X4X2X2X2X2X",
"2X2X2X2X2X2X2X2X1X>X*Xz # k `.cXMXxX' B N B ) aXmXcX{.~ % d %X2X1Xa.f O : D F D F F D : O f &X5X5X2X2X2X2X2X2X2X2X2X2X2X2X2X2X2X",
"2X2X2X2X2X2X2X2X2X7X1Xy.d h ^ !.nXMX'.E K R _.xXmX!./ h s q.>X8X8X>Xq.l > Z Z M M Z M > l q.:X4X2X2X2X2X2X2X2X2X4X2X2X2X2X4X2X2X",
"2X2X2X2X2X2X2X2X2X2X1X:Xa.3.* h !.xXxXhXgXfXxXcX{.j 2 x f.*X<X4X5X2X>Xa.x = = = = X - x f.:X<X4X2X2X2X2X2X2X2X2X2X2X2X2X2X2X2X2X",
"2X2X2X2X<X4X2X2X2X2X2X7X5Xi.a 0 ` `.zXZXZXCXnX'./ g 2 i.4X7X2X2X2X2X7X4Xi.a & p p < a i.1X6X2X1X<X2X2X2X2X2X2X2X2X2X2X2X2X2X2X2X",
"4X2X2X4X4X2X2X2X1X2X2X5X4X:Xp.0.0 h !.xXvXvX`.j g z i.*X2X4X2X2X2X2X2X1X*Xp.i.i.y.y.p.*X4X5X2X2X4X2X2X2X2X4X2X2X2X2X2X2X2X2X2X2X",
"2X2X4X<X2X2X2X2X2X2X2X2X2X4X5Xa.a & ^ {.|.|./ 2 2 p.3X4X2X2X2X2X2X2X2X2X1X1X3X3X4X3X2X2X1X4X2X2X2X2X2X2X2X2X2X2X2X2X2X2X2X2X2X2X",
"2X2X2X2X2X2X2X2X2X2X2X<X4X6X5X*Xi.3.c j j j c z q.-X5X4X2X2X2X2X2X2X2X2X2X5X3X3X5X3X4X5X4X<X2X2X2X2X2X2X2X2X2X2X2X2X2X2X2X2X2X2X",
"2X2X2X2X2X2X2X2X4X2X2X2X<X4X4X<X1X*Xl # . O l a.1X1X2X2X2X2X2X2X2X2X2X2X4X2X2X2X2X2X2X2X2X2X2X2XkX2X2X2X2X2X2X2X2X2X2X2X2X2X2X2X",
"2X2X2X2X2X2X2X2X<X2X2X2X4X<X4X4X7X<Xi.l s f q.:X8X5X2X2X2X2X2X2X2X2X2X2X4X2X2X2X2X2X2X2X2X2X2X2X4X2X2X2X2X2X2X2X2X2X2X2X2X2X2X2X",
"2X2X2X2X2X2X2X2X4X2X2X2X2X2X2X2X2X<X:X*X*X*X:X<X2X2X2X2X2X2X2X2X2X2X2X2X2X2X2X2X2X2X2X2X2X2X2X2X2X2X2X2X2X2X2X2X2X2X2X2X4X2X2X2X",
"2X2X2X2X2X4X2X2X2X2X2X2X2X2X4X<X2X2X4X4X6X4X4X2X2X2X2X2X2X2X2X2X2X2X2X2X2X2X2X2X2X4X2X2X2X2X2X2X2X2X2X2X2X2X4X2X2X2X2X2X2X2X2X2X"
};
