/* XPM */
static char *_f402daec57941e7e34a3ec948138c8at4cQ4H7qRhJrcHR2[] = {
/* columns rows colors chars-per-pixel */
"64 64 245 2 ",
"   c None",
".  c #101B1B",
"X  c #24181A",
"o  c #34141A",
"O  c #302C1E",
"+  c #281E20",
"@  c #280F21",
"#  c #1B2525",
"$  c #1C3C29",
"%  c #282728",
"&  c #322B2B",
"*  c #382B2B",
"=  c #253926",
"-  c #353329",
";  c #383536",
":  c #273A37",
">  c #162525",
",  c #43111E",
"<  c #751B21",
"1  c #4B2924",
"2  c #48392B",
"3  c #6F382A",
"4  c #642C1E",
"5  c #2A531A",
"6  c #276E1C",
"7  c #294928",
"8  c #275829",
"9  c #2A4D3B",
"0  c #354B30",
"q  c #266D24",
"w  c #2A7628",
"e  c #33762D",
"r  c #1D5721",
"t  c #4E4E1E",
"y  c #574528",
"u  c #564A3A",
"i  c #4F5032",
"p  c #754827",
"a  c #6A4A37",
"s  c #775936",
"d  c #6C522F",
"f  c #526C33",
"g  c #63712E",
"h  c #2E5545",
"j  c #2E5841",
"k  c #2D5044",
"l  c #3B674C",
"z  c #3D6A51",
"x  c #685A49",
"c  c #765B48",
"v  c #6A4F41",
"b  c #4B7153",
"n  c #7C6C56",
"m  c #6F6E4D",
"M  c #634F58",
"N  c #930F13",
"B  c #A5191B",
"V  c #B40D12",
"C  c #962A28",
"Z  c #9B3834",
"A  c #942C29",
"S  c #A92828",
"D  c #8A1A21",
"F  c #E01017",
"G  c #CA2524",
"H  c #D62524",
"J  c #E62525",
"K  c #E53936",
"L  c #F02323",
"P  c #DF0710",
"I  c #885838",
"U  c #8C4E32",
"Y  c #A5433C",
"T  c #966737",
"R  c #987130",
"E  c #A47F3B",
"W  c #D9453E",
"Q  c #9F4446",
"!  c #965D44",
"~  c #8C5B47",
"^  c #A74B46",
"/  c #AC564C",
"(  c #AB5053",
")  c #986949",
"_  c #9D7745",
"`  c #876B54",
"'  c #8C7759",
"]  c #957B5A",
"[  c #886846",
"{  c #A67C4A",
"}  c #A57C53",
"|  c #AD6B53",
" . c #907A66",
".. c #BD7667",
"X. c #E85147",
"o. c #CD7765",
"O. c #DB6A5B",
"+. c #36A51E",
"@. c #368739",
"#. c #3B953C",
"$. c #39953A",
"%. c #2F9027",
"&. c #37A625",
"*. c #3FAB36",
"=. c #22941E",
"-. c #4E8E37",
";. c #6E9736",
":. c #43B439",
">. c #48AD31",
",. c #6BB52F",
"<. c #49DA27",
"1. c #57DA28",
"2. c #48C737",
"3. c #48D534",
"4. c #4ECB29",
"5. c #69C229",
"6. c #4BE922",
"7. c #4BE427",
"8. c #5AE923",
"9. c #56E922",
"0. c #50F222",
"q. c #6EF827",
"w. c #3A9545",
"e. c #3C8C40",
"r. c #53835B",
"t. c #439C52",
"y. c #478E4C",
"u. c #6E8E54",
"i. c #4AAA41",
"p. c #45B947",
"a. c #48A559",
"s. c #55AA52",
"d. c #4EAB61",
"f. c #55B86B",
"g. c #56B167",
"h. c #70AE70",
"j. c #4F9665",
"k. c #5CC176",
"l. c #6CC47C",
"z. c #8F8934",
"x. c #B8983A",
"c. c #AD9030",
"v. c #87B42D",
"b. c #B0A731",
"n. c #B2A21D",
"m. c #C4AA29",
"M. c #CCB330",
"N. c #94D32F",
"B. c #AAED23",
"V. c #A8C729",
"C. c #FBF41E",
"Z. c #DAC72A",
"A. c #DBC632",
"S. c #C5C422",
"D. c #E9D828",
"F. c #E7D635",
"G. c #EEE526",
"H. c #F4EE23",
"J. c #F4EC2A",
"K. c #F4E826",
"L. c #FAF122",
"P. c #F9F723",
"I. c #F3E735",
"U. c #F3E937",
"Y. c #CED422",
"T. c #95874C",
"R. c #A98158",
"E. c #B58A59",
"W. c #BB9458",
"Q. c #B68E4B",
"!. c #998A77",
"~. c #938470",
"^. c #BC9566",
"/. c #BA9975",
"(. c #AC8D6F",
"). c #94AC76",
"_. c #BEA07B",
"`. c #CEAD49",
"'. c #C4996A",
"]. c #C98C77",
"[. c #C89877",
"{. c #D28C75",
"}. c #EE977F",
"|. c #C9A578",
" X c #D4AB7C",
".X c #D9B47A",
"XX c #CFAE6D",
"oX c #E2BD73",
"OX c #C49B57",
"+X c #DDC544",
"@X c #EDD947",
"#X c #ECD356",
"$X c #E2CA4D",
"%X c #E3C56A",
"&X c #453886",
"*X c #6063A6",
"=X c #294BF3",
"-X c #6476E4",
";X c #66D285",
":X c #7DC582",
">X c #6D89FF",
",X c #8A8A8B",
"<X c #8B8B8F",
"1X c #A69984",
"2X c #B4988D",
"3X c #B8ACA0",
"4X c #D49B82",
"5X c #CA9E80",
"6X c #F09C83",
"7X c #C8A886",
"8X c #D7A788",
"9X c #D7B68A",
"0X c #DAB897",
"qX c #CCB191",
"wX c #F4A68A",
"eX c #E3BD9A",
"rX c #E7AE88",
"tX c #E2BBB3",
"yX c #D4BCA8",
"uX c #91D193",
"iX c #9DDFA1",
"pX c #DEC49C",
"aX c #E4C295",
"sX c #EAC799",
"dX c #F2C997",
"fX c #D6D1B1",
"gX c #E6CAA2",
"hX c #EDD3A9",
"jX c #F3D7AC",
"kX c #F4DDB5",
"lX c #F1D7B4",
"zX c #E9D1B6",
"xX c #FAE4BC",
"cX c #F7E2B9",
"vX c #949CE2",
"bX c #E1BFC0",
"nX c #E3CAC6",
"mX c #FBE9C6",
"MX c #FCF4CA",
"NX c #F5ECCF",
"BX c #D6DEFD",
"VX c #E2DEE1",
"CX c #EDEDE9",
"ZX c #EEF0F4",
"AX c #DFD4D3",
/* pixels */
"                                                                                                                                ",
"                                                          ;X;X;X;X;X;X                                                          ",
"                                                        a.w.t.t.t.t.t.a.k.                                                      ",
"                                                      a.q q w q w w q q d.;X                                                    ",
"                                              f.d.d.a.t.%.%.+.+.+.+.%.@.w.d.d.d.f.                                              ",
"                                            k.@.q w e $.:.:.<.7.<.<.:.:.w.e q q @.k.                                            ",
"                                          k.a.$.w =.%.&.2.3.8.0.0.6.3.2.&.+.%.w $.a.k.                                          ",
"                                        f.e.@.w.*.2.4.<.<.7.7.9.9.6.7.7.<.<.*.*.w.@.@.k.                                        ",
"                                      k.a.w e *.2.7.6.6.6.6.6.6.6.6.6.6.6.6.7.2.:.@.w a.k.                                      ",
"                                      t.#.$.:.2.7.7.6.6.6.6.6.6.6.6.6.6.6.0.7.7.2.*.$.$.w.f.                                    ",
"                                    t.6 %.p.2.1.1.8.8.8.9.8.8.8.8.9.9.9.8.8.8.8.1.2.*.%.q t.                                    ",
"                                    t.6 %.3.4.,.v.N.B.B.B.B.B.B.B.B.B.B.B.B.V.v.,.2.3.%.6 a.                                    ",
"                                    t.w &.9.5.z.x.Z.L.L.K.H.H.H.K.H.H.H.L.H.Z.c.z.5.6.+.q t.                                    ",
"                                h.s.y.$.>.,.v.b.M.D.L.L.L.L.L.L.L.L.L.L.L.L.D.M.b.v.,.-.%.y.u.h.                                ",
"                                m d -.i.;.R b.Z.G.K.L.L.L.L.L.L.L.L.L.K.L.L.K.H.F.x.z.s.:.-.d m                                 ",
"                              h.' I m -.u.R.`.G.L.I.I.I.H.L.H.L.L.K.I.I.F.D.D.P.I.M.c.z.-.m T ' ).                              ",
"                            m ] 7X7X] d _ /.$XI.P.#X%X@XJ.L.L.H.H.J.#X%X`.c.M.D.C.K.Z.z.d ' 7X5X` m                             ",
"                            p ! gXlX(.p _ XX%XF.F.%XoX#XJ.L.L.L.P.I.$X X^.R.x.Z.K.C.K.n.p (.lXgX! p                             ",
"                            p ! aXkX/.I x.@X$XM.M.`.@XI.H.L.L.P.P.J.`.E.E.^.OX`.M.H.H.n.T /.cXpX) p                             ",
"                            p ~ 0XlX/.c.m.I.A.c.c.A.H.L.L.H.J.H.L.G.m.{ ^. X'.T.c.Z.U.m.E '.jX0X! p                             ",
"                            p ! 8XaXE.U c.m.M.W.OXF.C.C.L.U.#X+Xb.n.c.^. XpX7X_ { `.#X`.E ^.sX8X! p                             ",
"                            p T '. X{ p U E Q.|.oX@XK.C.L.@XoX'.T U }  XaXlXaXQ.Q.OX.XQ.{ '.9X'.I d                             ",
"                            y a _ E.E R R T } |.%X#X@XF.A.`.W.} ~ ) [.aXjXmXsX'.E.E.E.Q.x.x.W.) 3 y                             ",
"                            - o 3 T m.Z.c.p ) [.eX%XXX`.x.E s ~ } |.0XlXcXmXcXrX'.) I b.D.m.T 3 o -                             ",
"                            l ; 1 p m.P.m.U I } /.|.[.R.T I p ) |.eXhXhXhXaX9X|.} ~ p m.C.m.p 1 ;                               ",
"                              b ; y n.C.M.E s y d _ Q.T I T } [.aXhXhXaX[.{ I u u s E M.C.n.2 :                                 ",
"                                9 - n.J.M.c.s ; i I ) s 3 T |.aXjXlXeX|.} 3 2 & 2 s E A.H.c.- k                                 ",
"                                9 O T.#X`.T ` !.<X*X*XM 4 { 9XlXcXhX[.T M &X*X<X,X) T `.#Xc.O 9                                 ",
"                                9 * ] .X} p  .AXBX>X=X&X3 R.sXxXxXgXR.3 &X=X-XBXAX .p { .X' * k                                 ",
"                                  b n ' a 1  .NXBX>X=X*X1XqXlXxXxXjX7X!.*X=X>XZXNX .1 a ` n b                                   ",
"                                    b * X + n gXAX-X=XvXVXNXmXcXxXcXMXCXvX=X-XAXgXn % X * b                                     ",
"                                      k # # x 7XyXvX-XvXZXMXmXkXkXmXMXZXvX-X>XyX|.x # # 9                                       ",
"                                        z % y T.'.2X3XnXMXNXmXxXcXxXmXNXfX3X2X].{ 2 % l                                         ",
"                                        y.= 1 s _ ^.|.9XgXgXjXkXkXkXlXjXeX8XOX_ s O ; j.                                        ",
"                        z l l l l b z l 9 . X - 2 d x x M (.9XdXdXsXsXsX.XOX_ a t = 8 d.                                        ",
"                      r.% % % % % % % % % % % % % % % # % m /.9X X X8XXX^._ s - > r @.d.                                        ",
"                    r.m c n ' ~.~.,X,X,X<X<X<X<X,X .n n c n ` ` ` ` ` n c a t = 8 y.d.s.a.                                      ",
"                    : n |.eXhXAXCXZXZXZXCXZXZXZXCXNXzXgX X' 2 # % & & & % * = 5 @.h.uXj.w a.                                    ",
"                  9 + ' aXdX8XeXbXnXbXbXbXbXbXnXbX0X0XdXsX .& . $ 7 8 7 8 7 8 6 e.:XiXh.y.a.f.                                  ",
"                  j & ~.lXrX/ Z ^ Q Q Q Q Q Q Q ( Y / 4XhX1X; = e w.w.e.e.$.@.w @.k.iXiXh.d.@.w.                                ",
"                  h & !.cX8XA N N B C Z Z Z A B V N D ].kX1X2 $ $.p.p.p.p.p.-.@.e g.uXuXiX).y.-.h.                              ",
"                  h & !.lX8XZ N V G O.8X8X Xo.G V N A ].kX1X- = @.p.p.p.p.p.-.i y f a.).fXfXqX).u.m                             ",
"                  h & !.lX7XZ B V X.6XcXMXxXrXX.H B A {.kX1X; = -.s.i.i.>.>.-.t t 5 e ).jXmXmX0X! p                             ",
"                  h & !.lX8XZ S O.wXjXmXMXMXkXwXO.^ A ].kX1X; 0 v.N.z.g g g g ;.;.6 w ).mXMXMX0XU 3                             ",
"                  h & !.kX4XZ ^ 8XcXcXcXcXcXcXcXeX/ C ].zX1X; t S.G.c.3 4 y g 4.<.=.e !.kXmXxX0X) a                             ",
"                  h & !.kX4XZ Z o.wX}.6X}.}.}.wX{.^ C {.lX1X; t Z.H.b.f g g ,.6.6.=.e u.[.|.[.^.T.u.                            ",
"                  h * !.kX4XZ N G K K K W K K K G S A ].kX1X; t S.P.N.*.>.4.9.0.6.=.6 i p U U m                                 ",
"                  h & !.kX4XZ C W X.J F F F J X.W B A 4XkX1X; t V.Y.N.2.4.7.<.4.+.6 q f m s d                                   ",
"                  h & !.cX4XA Z 4XwXX.F P P X.wXwX^ D {.cX1X; 7 5.q.q.<.3.2.>.e 7 # 7 r.                                        ",
"                  h & ~.hX8X^ ( qXgX}.K J K O.eX0X..Y [.kX(.; 7 +.<.<.<.2.t.e * o o * b                                         ",
"                  9 % ' sXdX8X]...o.{.wXwXwX{.o...].4XdXsX~.* . 5 6 6 e q 8 0 1 < D C a                                         ",
"                    * ` |.dXcX8X^ Z ].lXmXxX XY Y 4XkXhX.X' ; # % % % % % % 1 D S G H < %                                       ",
"                      m ` /.gXgX[.o...].].].(.o.].eXhX_.` m         : @ , < C B G L F < X                                       ",
"                        & c |.dXlXeX..A D S | 0XjXdX|.` - z           + < G L J J L F < +                                       ",
"                          x ' /.gXjX4X/ Y ^ ].hXhX_.] x j               3 S B S B B C 3 b                                       ",
"                            0 a /.dXaXeXyXeXsXsX|.c ;                     1 , , , , 1                                           ",
"                            h i ~.'.aXcXxXxXgX|.~.u 9                       : 9 k :                                             ",
"                                u v /.sXjXdX[.M i r.                                                                            ",
"                                h ; ' |..XXXT.i 9                                                                               ",
"                                  r.b c s n m b                                                                                 ",
"                                    b % X + z                                                                                   ",
"                                      b h b j.                                                                                  ",
"                                                                                                                                ",
"                                                                                                                                "
};
