/* XPM */
static char *result[] = {
/* columns rows colors chars-per-pixel */
"64 64 251 2 ",
"   c #070308",
".  c #180308",
"X  c #07061F",
"o  c #190A1D",
"O  c #111613",
"+  c #270006",
"@  c #360207",
"#  c #38061E",
"$  c #38081F",
"%  c #291219",
"&  c #172D1D",
"*  c #2B281C",
"=  c #040921",
"-  c #0B1824",
";  c #241924",
":  c #371624",
">  c #2C0922",
",  c #152C28",
"<  c #19342B",
"1  c #0F3729",
"2  c #282924",
"3  c #362428",
"4  c #24352B",
"5  c #2B2B35",
"6  c #382937",
"7  c #2A3836",
"8  c #363A39",
"9  c #34342B",
"0  c #520A10",
"q  c #711A0E",
"w  c #552615",
"e  c #6B341B",
"r  c #471321",
"t  c #6E1F20",
"y  c #463B36",
"u  c #4E2F2F",
"i  c #642A26",
"p  c #673928",
"a  c #6F3D34",
"s  c #125914",
"d  c #20521F",
"f  c #146309",
"g  c #0B6C18",
"h  c #266B18",
"j  c #297219",
"k  c #336B1E",
"l  c #174637",
"z  c #15512E",
"x  c #245924",
"c  c #294536",
"v  c #36443E",
"b  c #384839",
"n  c #324F30",
"m  c #197522",
"M  c #226E23",
"N  c #276825",
"B  c #277624",
"V  c #367729",
"C  c #37793C",
"Z  c #3A653F",
"A  c #734A11",
"S  c #454838",
"D  c #524F31",
"F  c #6B4827",
"G  c #764A29",
"H  c #784936",
"J  c #655339",
"K  c #765737",
"L  c #6F4E2F",
"P  c #42703B",
"I  c #5C5219",
"U  c #1C3940",
"Y  c #333542",
"T  c #463947",
"R  c #6C3D46",
"E  c #364543",
"W  c #275741",
"Q  c #295642",
"!  c #365544",
"~  c #367540",
"^  c #306F4C",
"/  c #266B4F",
"(  c #4E504C",
")  c #6A4440",
"_  c #745042",
"`  c #466A57",
"'  c #4E6E50",
"]  c #647A5C",
"[  c #B7050B",
"{  c #B3101A",
"}  c #901F21",
"|  c #8D3029",
" . c #BB2424",
".. c #AD302B",
"X. c #942C18",
"o. c #C81018",
"O. c #C91E20",
"+. c #D71E20",
"@. c #EC1F20",
"#. c #D22D29",
"$. c #F92323",
"%. c #E63D34",
"&. c #E20318",
"*. c #8F461A",
"=. c #8C4F31",
"-. c #916C35",
";. c #B06023",
":. c #FA473B",
">. c #EB493C",
",. c #865648",
"<. c #854147",
"1. c #98734E",
"2. c #A47D59",
"3. c #AD7E4C",
"4. c #A27F75",
"5. c #FC4A4B",
"6. c #F9584C",
"7. c #D94B4D",
"8. c #1B8F2C",
"9. c #368B36",
"0. c #3B9B3C",
"q. c #399539",
"w. c #2D8A30",
"e. c #3EA43D",
"r. c #3CAB38",
"t. c #38B93F",
"y. c #4C8C39",
"u. c #44A73B",
"i. c #47BA3D",
"p. c #4DB42F",
"a. c #75A438",
"s. c #2CE525",
"d. c #34DA2B",
"f. c #4BD91F",
"g. c #43CA21",
"h. c #42C227",
"j. c #49DA26",
"k. c #4ACC36",
"l. c #4CD336",
"z. c #55CD24",
"x. c #61C43C",
"c. c #4EE922",
"v. c #4DE428",
"b. c #55EB22",
"n. c #4EFE22",
"m. c #4EFA2A",
"M. c #50FB23",
"N. c #4AE635",
"B. c #73E823",
"V. c #38AD43",
"C. c #338962",
"Z. c #1D8862",
"A. c #4C9E40",
"S. c #459855",
"D. c #50914C",
"F. c #40A640",
"G. c #43AD43",
"H. c #46B246",
"J. c #47BB42",
"K. c #4BB14B",
"L. c #57BA73",
"P. c #54B06F",
"I. c #69B06D",
"U. c #628B41",
"Y. c #45C745",
"T. c #5AC67E",
"R. c #AB8D33",
"E. c #BEB227",
"W. c #C9BE24",
"Q. c #8FEB26",
"!. c #F0DA1F",
"~. c #F3EA1E",
"^. c #FBFF18",
"/. c #CEC92C",
"(. c #E7D829",
"). c #EADB34",
"_. c #EAD134",
"`. c #DAE926",
"'. c #C3EE22",
"]. c #F4EB23",
"[. c #FCF222",
"{. c #FCFD23",
"}. c #EDE235",
"|. c #F6E635",
" X c #FDFE35",
".X c #E8F532",
"XX c #D1C01E",
"oX c #AB8447",
"OX c #B38A5B",
"+X c #B09171",
"@X c #B5A576",
"#X c #948F57",
"$X c #CFAE54",
"%X c #D09A6F",
"&X c #C6A16C",
"*X c #C9A877",
"=X c #D4A878",
"-X c #D9B675",
";X c #CBB779",
":X c #EAAF76",
">X c #C19C58",
",X c #E8D349",
"<X c #E7C677",
"1X c #EBD26F",
"2X c #EFD175",
"3X c #274CFC",
"4X c #3A5EE4",
"5X c #506CED",
"6X c #4D5BD4",
"7X c #5BC785",
"8X c #69CB88",
"9X c #76CA88",
"0X c #69D386",
"qX c #69D689",
"wX c #6CDD93",
"eX c #75D88A",
"rX c #6DE294",
"tX c #72E695",
"yX c #6FEC95",
"uX c #7CFEA5",
"iX c #B68F85",
"pX c #B7B18B",
"aX c #D9B586",
"sX c #D9BD97",
"dX c #CBAA8A",
"fX c #E8B88C",
"gX c #D1AD92",
"hX c #8DD194",
"jX c #A9F6B4",
"kX c #A0D79B",
"lX c #D5C499",
"zX c #E3C597",
"xX c #FDD594",
"cX c #F0C690",
"vX c #DBD9B3",
"bX c #D4CCA7",
"nX c #E6C9A6",
"mX c #F8D4AA",
"MX c #FCDAB3",
"NX c #EBD7B2",
"BX c #FBE6BB",
"VX c #B4BCDC",
"CX c #BCCFD1",
"ZX c #F7DAC6",
"AX c #FDEBC5",
"SX c #FFF5C9",
"DX c #FFFBD9",
"FX c #ECE6C9",
"GX c #F9FDF5",
"HX c #D5DCE3",
"JX c None",
/* pixels */
"JXJXJXJXJXJXJXJXJXJXJXJXJXJXJXJXJXJXJXJXJXJXJXJXJXJXJXJXJXJXJXJXJXJXJXJXJXJXJXJXJXJXJXJXJXJXJXJXJXJXJXJXJXJXJXJXJXJXJXJXJXJXJXJX",
"JXJXJXJXJXJXJXJXJXJXJXJXJXJXJXJXJXJXJXJXJXJXJXJXJXJXJXJXJXJXJXJXJXJXJXJXJXJXJXJXJXJXJXJXJXJXJXJXJXJXJXJXJXJXJXJXJXJXJXJXJXJXJXJX",
"JXJXJXJXJXJXJXJXJXJXJXJXJXJXJXJXJXJXJXJXJXJXJXJXJXJXJXJXJXJXJXJXJXJXJXJXJXJXJXJXJXJXJXJXJXJXJXJXJXJXJXJXJXJXJXJXJXJXJXJXJXJXJXJX",
"JXJXJXJXJXJXJXJXJXJXJXJXJXJXJXJXJXJXJXJXJXJXJXJXJXJXJXJXJXJXJXJXJXJXJXJXJXJXJXJXJXJXJXJXJXJXJXJXJXJXJXJXJXJXJXJXJXJXJXJXJXJXJXJX",
"JXJXJXJXJXJXJXJXJXJXJXJXJXJXJXJXJXJXJXJXJXJXJXJXJXJXJXJXJXJXJXJXJXJXJXJXJXJXJXJXJXJXJXJXJXJXJXJXJXJXJXJXJXJXJXJXJXJXJXJXJXJXJXJX",
"JXJXJXJXJXJXJXJXJXJXJXJXJXJXJXJXJXJXJXJXJXJXJXJXJXJXJXJXJXJXJXJXJXJXJXJXJXJXJXJXJXJXJXJXJXJXJXJXJXJXJXJXJXJXJXJXJXJXJXJXJXJXJXJX",
"JXJXJXJXJXJXJXJXJXJXJXJXJXJXJXJXJXJXJXJXJXJXJXJXJXJXJXJXJXJXJXJXJXJXJXJXJXJXJXJXJXJXJXJXJXJXJXJXJXJXJXJXJXJXJXJXJXJXJXJXJXJXJXJX",
"JXJXJXJXJXJXJXJXJXJXJXJXJXJXJXJXJXJXJXJXJXJXJXJXJXJXJXJXJXJXJXJXJXJXJXJXJXJXJXJXJXJXJXJXJXJXJXJXJXJXJXJXJXJXJXJXJXJXJXJXJXJXJXJX",
"JXJXJXJXJXJXJXJXJXJXJXJXJXJXJXJXJXJXJXJXJXJXJXJXJXJXJXJXJXJXJXJXJXJXJXJXJXJXJXJXJXJXJXJXJXJXJXJXJXJXJXJXJXJXJXJXJXJXJXJXJXJXJXJX",
"JXJXJXJXJXJXJXJXJXJXJXJXJXJXJXJXJXJXJXJXJXJXJXJXJXJXwX0XqXqXqXqXqX0X0XqXJXJXJXJXJXJXJXJXJXJXJXJXJXJXJXJXJXJXJXJXJXJXJXJXJXJXJXJX",
"JXJXJXJXJXJXJXJXJXJXJXJXJXJXJXJXJXJXJXJXJXJXJXJXJXwXS.M C ~ ~ ~ ~ C M S.yXJXJXJXJXJXJXJXJXJXJXJXJXJXJXJXJXJXJXJXJXJXJXJXJXJXJXJX",
"JXJXJXJXJXJXJXJXJXJXJXJXJXJXJXJXJXJXJXJXwX0X0X0XwXL.~ f j B j j B B s 9.I.wX9XeX0X9X9XeX9X9XeXeXJXJXJXJXJXJXJXJXJXJXJXJXJXJXJXJX",
"JXJXJXJXJXJXJXJXJXJXJXJXJXJXJXJXJXJXJXwXS.M ~ ~ C C q.r.p.f.g.g.f.p.u.y._ ) ) ) G F L F J H G ] JXJXJXJXJXJXJXJXJXJXJXJXJXJXJXJX",
"JXJXJXJXJXJXJXJXJXJXJXJXJXJXJXJXJXJXrXL.C f B j h w.u.k.v.M.c.c.n.v.Y.p.G *.*.*.=.| | | *.*.q J JXJXJXJXJXJXJXJXJXJXJXJXJXJXJXJX",
"JXJXJXJXJXJXJXJXJXJXJXJXJXJXJXJXJXtXS.V 0.e.h.j.g.g.j.v.v.c.c.c.c.c.s.z./.!.!./.&XiXiX&X).XX*._ JXJXJXJXJXJXJXJXJXJXJXJXJXJXJXJX",
"JXJXJXJXJXJXJXJXJXJXJXJXJXJXJXJXrXL.V j u.k.v.M.b.c.c.c.c.c.c.c.c.b.c.Q..X X{. X1XaXcX1X X~.*.) JXJXJXJXJXJXJXJXJXJXJXJXJXJXJXJX",
"JXJXJXJXJXJXJXJXJXJXJXJXJXJXJXtXS.V 0.u.l.v.c.c.c.c.c.c.c.c.v.c.c.B.'.|.-X2X|.^.|.}.|.|.{.(.X.a JXJXJXJXJXJXJXJXJXJXJXJXJXJXJXJX",
"JXJXJXJXJXJXJXJXJXJXJXJXJXJXrXL.V j e.i.j.j.c.c.c.c.c.c.c.c.c.c.s.B.].|.:X-X_.).}.|.[.[.~.E.-.I.JXJXJXJXJXJXJXJXJXJXJXJXJXJXJXJX",
"JXJXJXJXJXJXJXJXJXJXJXJXJXrXS.V q.e.H.H.J.k.v.c.b.b.c.c.c.c.c.c.s.b.'.[.|._.R.oX-X1X X~.;.G #XJXJXJXJXJXJXJXJXJXJXJXJXJXJXJXJXJX",
"JXJXJXJXJXJXJXJXJXJXJXJXrXL.V j e.H.H.H.K.J.l.j.l.v.c.c.c.c.c.b.M.Q.`.[.{.(.oX1.+X&X_.W.H ' JXJXJXJXJXJXJXJXJXJXJXJXJXJXJXJXJXJX",
"JXJXJXJXJXJXJXJXJXJXJXrXS.V 0.e.G.G.H.H.G.H.J.i.J.k.j.c.c.c.c.B.'.].].[.^..X;XOX,.e =.-.I.tXJXJXJXJXJXJXJXJXJXJXJXJXJXJXJXJXJXJX",
"JXJXJXJXJXJXJXJXJXJXtXL.V j e.H.K.G.V.G.G.H.H.H.H.J.l.j.j.N.d.B.].[.[.].(._.aX%X,.p 0 ) wXJXJXJXJXJXJXJXJXJXJXJXJXJXJXJXJXJXJXJX",
"JXJXJXJXJXJXJXJXJXJXS.C 0.e.H.H.H.F.9.w.F.H.H.H.H.H.J.i.Y.i.t.x.`.[.[.(.R.3.*X=X=XoX3 c 0XJXJXJXJXJXJXJXJXJXJXJXJXJXJXJXJXJXJXJX",
"JXJXJXJXJXJXJXJXJXJXB f e.H.H.G.u.q.B B q.u.H.G.u.0.0.V.G.H.V.K.`.[.[.(.3.2.-XcXcX&X3 1 0XJXJX0XqXqX8XJXJXJXJXJXJXJXJXJXJXJXJXJX",
"JXJXJXJXJXJXJXJXJXyXC h 0.K.H.u.w.B B B B 9.G.V.8.f g 8.V.G.V.x..X{.^.).$X=XBXAXmX&X3 < wXtX` < & , 1 ^ JXJXJXJXJXJXJXJXJXJXJXJX",
"JXJXJXJXJXJXJXJXJXL.q.V F.G.G.q.B M M M M B q.u.D.' C P A.0.0.a./.!.|.,XcXsXbXlX:X3.: < rXwX2 . Y T @ 3 L.JXJXJXJXJXJXJXJXJXJXJX",
"JXJXJXJXJXJXJXJXS.q.0.V.J.V.w.w.M m M B M m m D.pXnX=X#Xw.g D G R.>X$X<XBXgX( % *.F . , yXyX< 6 CXZX7.[ y ` JXJXJXJXJXJXJXJXJXJX",
"JXJXJXJXJXJXJXJXV s 9.H.u.9.N d x d x M M g f D.NXDXcX;XU.k i a 1.OX>XfXSXlX( ; u u u ' 7XP.& T GXGX6.o.+ l JXJXJXJXJXJXJXJXJXJX",
"JXJXJXJXJXJXJXJX! 2 N w.B B 2 o ; ; ; & x j g S.NXDXMXzX@X#X| =.+X*XOXOXzXBXFXVX5X4X+XOX' c   8 FXZX5.[ # W JXJXJXJXJXJXJXJXJXJX",
"JXJXJXJXJXJXJXJXE o d x x x b E v v E b x x s P aXBXAXmXxX%Xa H -X<X-.1.zXDXGXGX5X3XsX:Xu     ( bXmX5.[ # Z JXJXJXJXJXJXJXJXJXJX",
"JXJXJXJXJXJXJXJX8 . o ; + v L.JXJXJXJXL.7 % - S #X*XBXSXxX%Xi e _.).A =.sXAXGXHX3X3XsX:X3     ( vXMX5.[ $ W JXJXJXJXJXJXJXJXJXJX",
"JXJXJXJXJXJXJXJXD.8 E E 8 ` JXJXJXJXJXJX` 5 ; : I 1.zXmX*X2._ -.[.~.A a sXDXGXHX5X6XiX2.' c   y vXMX5.[ $ W JXJXJXJXJXJXJXJXJXJX",
"JXJXJXJXJXJXJXJXJXJXJXJXJXJXJXJXJXJXJXJXJXL.6   . u oXOXy T +X-X X~.A a sXDXAXBXnXiXy ! 8X7X, u vXMX5.[ # Z JXJXJXJXJXJXJXJXJXJX",
"JXJXJXJXJXJXJXJXJXJXJXJXJXJXJXJXJXJXJXJXJXJX` 7 l E K L   5 %X2X}.W.G _ aXAXMXcX-X3.: < 0X0X, 9 vXMX5.[ # W JXJXJXJXJXJXJXJXJXJX",
"JXJXJXJXJXJXJXJXJXJXJXJXJXJXJXJXJXJXJXJXJXJXJXJXyX7XS : = D ).|.;.-.-.3.:XcXxXdX( 9 : q L J . b vXMX:.{ # W JXJXJXJXJXJXJXJXJXJX",
"JXJXJXJXJXJXJXJXJXJXJXJXJXJXJXJXJXJXJXJXJXJXJXJXuXL.n O X D |.|.F r G 3.OX&X&X1.* . K 1.=.a . b vXMX5.[ # W JXJXJXJXJXJXJXJXJXJX",
"JXJXJXJXJXJXJXJXJXJXJXJXJXJXJXJXJXJXJXJXJXJXJXqX` 8 x d = u <X<X6   ; : y 5 2 * @ G sXBXMXdX2 5 vXBX5.[ # W JXJXJXJXJXJXJXJXJXJX",
"JXJXJXJXJXJXJXJXJXJXJXJXJXJXJXJXJXJXJXqX8X8XuX7X3   N w., y +X4.( U 7 5 O - 5 y =.2.sXAXDXNX5 2 bXmX5.{ # W JXJXJXJXJXJXJXJXJXJX",
"JXJXJXJXJXJXJXJXJXJXJXJXJXJXJXJXJXJX` 4 , / yXrX8 2 q.r.B x u ( I.9XhXI.s B pXNXNX*X,.1.SXBX9 2 pX:X:.o.$ W JXJXJXJXJXJXJXJXJXJX",
"JXJXJXJXJXJXJXJXJXJXJXJXJXJXJXJXJXJXc   @ u 7X7X6 5 r.V.w.M   4 9XjXjXeX0.A.NXDXDXmXp w sXsXY 3 @X:X:.O.# W JXJXJXJXJXJXJXJXJXJX",
"JXJXJXJXJXJXJXJXJXJXJXJXJXJXJXJXJXJXW o { ..J l o 5 0.Y.G.w.s Z hXjXkXhX9XhXMXDXDXNX| t =.K O 8 @X:X:.O.$ W JXJXJXJXJXJXJXJXJXJX",
"JXJXJXJXJXJXJXJXJXJXJXJXJXJXJXJXJXJXb i @.@.r = 2 Z y.A.J.G.w.D.I.9XhXhXhXhXlXsXmXdX1.p p w - b pX:X>.{ $ W JXJXJXJXJXJXJXJXJXJX",
"JXJXJXJXJXJXJXJXJXJXJXJXJXJXJXJXZ.9 | +.@.O.# 1 9.y.D J A.Y.J.u.w.S.9XjXjXhXD.k <.=.y.y.n % = S *X:X7.} > c JXJXJXJXJXJXJXJXJXJX",
"JXJXJXJXJXJXJXJXJXJXJXJXJXJXJXJX8 0 +.$.5.#.: z r.i.J F y.u.A.y.M N I.hXhXI.8.f I J i.t.c o - S *XaX,.0 > ! JXJXJXJXJXJXJXJXJXJX",
"JXJXJXJXJXJXJXJXJXJXJXJXJXJXC.y ..@.$.:.:X*Xy , q.J.A.U.F p p p i u P C ~ 9.r.c.f.z.Y.r.4 = = ( aXaXS X o ! JXJXJXJXJXJXJXJXJXJX",
"JXJXJXJXJXJXJXJXJXJXJXJXJXJX4 0 O.$.O...%X+Xu , q.Y.Y.A.D p F A G I k m h w.f.n.m.v.u.C D y - y +X+XD : X ! JXJXJXJXJXJXJXJXJXJX",
"JXJXJXJXJXJXJXJXJXJXJXJXC.y i }  .} r > 6 6 X ; G.Y.H.J.z.z.z.z.z.z.g.g.g.j.n.n.N.e.1 4 @X@X7 - < a #.O.@ c JXJXJXJXJXJXJXJXJXJX",
"JXJXJXJXJXJXJXJXJXJXJXJX7 + t } t i c l < 4 E ! ~ q.G.k.N.m.n.n.n.n.M.b.c.v.g.r.0.C 7 R %X=Xa ; , 3 O.O.y JXJXJXJXJXJXJXJXJXJXJX",
"JXJXJXJXJXJXJXJXJXJXJXJXc . $ # + y L.JXeXqXtXP.9 * 0.Y.Y.k.m.n.M.M.M.m.l.u.n % O y +X=X6.%.#. .} t 0 9 JXJXJXJXJXJXJXJXJXJXJXJX",
"JXJXJXJXJXJXJXJXJXJXJXJXJXc Q W c JXJXJXJXJXJXyX` 3 9.e.q.y.t.g.g.g.g.h.0.C 8 6 2 ( @X%X%.&.@.+. .i 7 JXJXJXJXJXJXJXJXJXJXJXJXJX",
"JXJXJXJXJXJXJXJXJXJXJXJXJXJXJXJXJXJXJXJXJXJXJXJXJXP.E O ; 2 2 9 * 2 2 2 O b P.wXwXP.E 0 #.$. .} @ 7 JXJXJXJXJXJXJXJXJXJXJXJXJXJX",
"JXJXJXJXJXJXJXJXJXJXJXJXJXJXJXJXJXJXJXJXJXJXJXJXJXJX` 3 8 v v Y v v Y 8 3 ` yXJXJXJX/ 2 ..O.} i 7 JXJXJXJXJXJXJXJXJXJXJXJXJXJXJX",
"JXJXJXJXJXJXJXJXJXJXJXJXJXJXJXJXJXJXJXJXJXJXJXJXJXJXJXJXJXJXJXJXJXJXJXJXJXJXJXJXJXJXJXJXy @ + b JXJXJXJXJXJXJXJXJXJXJXJXJXJXJXJX",
"JXJXJXJXJXJXJXJXJXJXJXJXJXJXJXJXJXJXJXJXJXJXJXJXJXJXJXJXJXJXJXJXJXJXJXJXJXJXJXJXJXJXJXJXJXl c JXJXJXJXJXJXJXJXJXJXJXJXJXJXJXJXJX",
"JXJXJXJXJXJXJXJXJXJXJXJXJXJXJXJXJXJXJXJXJXJXJXJXJXJXJXJXJXJXJXJXJXJXJXJXJXJXJXJXJXJXJXJXJXJXJXJXJXJXJXJXJXJXJXJXJXJXJXJXJXJXJXJX",
"JXJXJXJXJXJXJXJXJXJXJXJXJXJXJXJXJXJXJXJXJXJXJXJXJXJXJXJXJXJXJXJXJXJXJXJXJXJXJXJXJXJXJXJXJXJXJXJXJXJXJXJXJXJXJXJXJXJXJXJXJXJXJXJX",
"JXJXJXJXJXJXJXJXJXJXJXJXJXJXJXJXJXJXJXJXJXJXJXJXJXJXJXJXJXJXJXJXJXJXJXJXJXJXJXJXJXJXJXJXJXJXJXJXJXJXJXJXJXJXJXJXJXJXJXJXJXJXJXJX",
"JXJXJXJXJXJXJXJXJXJXJXJXJXJXJXJXJXJXJXJXJXJXJXJXJXJXJXJXJXJXJXJXJXJXJXJXJXJXJXJXJXJXJXJXJXJXJXJXJXJXJXJXJXJXJXJXJXJXJXJXJXJXJXJX",
"JXJXJXJXJXJXJXJXJXJXJXJXJXJXJXJXJXJXJXJXJXJXJXJXJXJXJXJXJXJXJXJXJXJXJXJXJXJXJXJXJXJXJXJXJXJXJXJXJXJXJXJXJXJXJXJXJXJXJXJXJXJXJXJX",
"JXJXJXJXJXJXJXJXJXJXJXJXJXJXJXJXJXJXJXJXJXJXJXJXJXJXJXJXJXJXJXJXJXJXJXJXJXJXJXJXJXJXJXJXJXJXJXJXJXJXJXJXJXJXJXJXJXJXJXJXJXJXJXJX",
"JXJXJXJXJXJXJXJXJXJXJXJXJXJXJXJXJXJXJXJXJXJXJXJXJXJXJXJXJXJXJXJXJXJXJXJXJXJXJXJXJXJXJXJXJXJXJXJXJXJXJXJXJXJXJXJXJXJXJXJXJXJXJXJX",
"JXJXJXJXJXJXJXJXJXJXJXJXJXJXJXJXJXJXJXJXJXJXJXJXJXJXJXJXJXJXJXJXJXJXJXJXJXJXJXJXJXJXJXJXJXJXJXJXJXJXJXJXJXJXJXJXJXJXJXJXJXJXJXJX",
"JXJXJXJXJXJXJXJXJXJXJXJXJXJXJXJXJXJXJXJXJXJXJXJXJXJXJXJXJXJXJXJXJXJXJXJXJXJXJXJXJXJXJXJXJXJXJXJXJXJXJXJXJXJXJXJXJXJXJXJXJXJXJXJX",
"JXJXJXJXJXJXJXJXJXJXJXJXJXJXJXJXJXJXJXJXJXJXJXJXJXJXJXJXJXJXJXJXJXJXJXJXJXJXJXJXJXJXJXJXJXJXJXJXJXJXJXJXJXJXJXJXJXJXJXJXJXJXJXJX"
};
