/* XPM */
static char *result[] = {
/* columns rows colors chars-per-pixel */
"64 64 252 2 ",
"   c #050408",
".  c #180307",
"X  c #05071D",
"o  c #061918",
"O  c #191017",
"+  c #360008",
"@  c #38061E",
"#  c #38081F",
"$  c #291012",
"%  c #152D1D",
"&  c #30221F",
"*  c #041B24",
"=  c #0F0D23",
"-  c #241B23",
";  c #2D1322",
":  c #182825",
">  c #183529",
",  c #13302E",
"<  c #282923",
"1  c #372525",
"2  c #2C2B33",
"3  c #372936",
"4  c #2B3835",
"5  c #353A39",
"6  c #2F3628",
"7  c #521011",
"8  c #741610",
"9  c #562815",
"0  c #683117",
"q  c #491522",
"w  c #731F20",
"e  c #453A36",
"r  c #4D2C31",
"t  c #652C28",
"y  c #683929",
"u  c #6F3D35",
"i  c #0B5310",
"p  c #2C4C18",
"a  c #15630C",
"s  c #096C16",
"d  c #297219",
"f  c #2A6A1A",
"g  c #1C4E30",
"h  c #235A23",
"j  c #294638",
"k  c #35433D",
"l  c #3A453A",
"z  c #344D30",
"x  c #1B7426",
"c  c #226D23",
"v  c #266826",
"b  c #237223",
"n  c #297C29",
"m  c #2B7520",
"M  c #36772A",
"N  c #347928",
"B  c #37793B",
"V  c #2E7834",
"C  c #734C14",
"Z  c #454938",
"A  c #56463A",
"S  c #4F4F2F",
"D  c #6A4A26",
"F  c #6A463A",
"G  c #784836",
"H  c #775539",
"J  c #71532E",
"K  c #4F7137",
"L  c #636C21",
"P  c #37334A",
"I  c #453548",
"U  c #6C3D46",
"Y  c #175140",
"T  c #374642",
"R  c #265641",
"E  c #295542",
"W  c #315143",
"Q  c #377640",
"!  c #2D6F52",
"~  c #4D4E4A",
"^  c #6A4440",
"/  c #705247",
"(  c #456A57",
")  c #4F6F4F",
"_  c #637A5B",
"`  c #B7050B",
"'  c #B40D19",
"]  c #901F21",
"[  c #8E3029",
"{  c #B12A27",
"}  c #942C18",
"|  c #C81018",
" . c #C91E20",
".. c #D61920",
"X. c #EA1F20",
"o. c #D52B28",
"O. c #F92323",
"+. c #F33E35",
"@. c #E20318",
"#. c #8F461A",
"$. c #8C502E",
"%. c #8D6C35",
"&. c #B06023",
"*. c #FA473C",
"=. c #EB493C",
"-. c #D04D33",
";. c #8D4C4A",
":. c #98704E",
">. c #A77E53",
",. c #A27F75",
"<. c #FC4A4B",
"1. c #F9584C",
"2. c #D94B4D",
"3. c #348A35",
"4. c #3B9B3C",
"5. c #399439",
"6. c #2D832E",
"7. c #3EA33D",
"8. c #3CAA39",
"9. c #3ABB3F",
"0. c #1B8B31",
"q. c #51983E",
"w. c #4C8D39",
"e. c #43A739",
"r. c #46BA3D",
"t. c #51B32E",
"y. c #6CB136",
"u. c #2CE525",
"i. c #34DA2B",
"p. c #43CB21",
"a. c #41C028",
"s. c #57C922",
"d. c #49DB27",
"f. c #55D926",
"g. c #4ACA37",
"h. c #4ED436",
"j. c #63CD37",
"k. c #4EE922",
"l. c #4DE428",
"z. c #55EA22",
"x. c #4EFE23",
"c. c #4DFA2A",
"v. c #50FA22",
"b. c #4AE338",
"n. c #72EC24",
"m. c #339040",
"M. c #37AA48",
"N. c #2F8763",
"B. c #498848",
"V. c #479B48",
"C. c #469755",
"Z. c #559049",
"A. c #40A640",
"S. c #43AD43",
"D. c #46B246",
"F. c #47BA42",
"G. c #46A854",
"H. c #53BC6B",
"J. c #58B772",
"K. c #56AC70",
"L. c #64B36C",
"P. c #75AF6E",
"I. c #5F9F67",
"U. c #45CA48",
"Y. c #5BC977",
"T. c #AB8D33",
"R. c #9FB02F",
"E. c #CABB26",
"W. c #8FEB26",
"Q. c #F0DA1F",
"!. c #F3EA1E",
"~. c #FBFF18",
"^. c #D0CD29",
"/. c #E7D829",
"(. c #EADB34",
"). c #EFD430",
"_. c #DAE926",
"`. c #C8F225",
"'. c #F4EB23",
"]. c #FCF222",
"[. c #FDFD25",
"{. c #ECE235",
"}. c #F6E635",
"|. c #FDFE35",
" X c #E8F532",
".X c #D1C01E",
"XX c #948F57",
"oX c #AB8447",
"OX c #B48757",
"+X c #B18B5F",
"@X c #B38B77",
"#X c #B1976E",
"$X c #B4A476",
"%X c #CFAE54",
"&X c #CF9A6F",
"*X c #C8AA78",
"=X c #D5A777",
"-X c #D9B675",
";X c #C8AC72",
":X c #E8B076",
">X c #E09D68",
",X c #E8D349",
"<X c #E7C677",
"1X c #EBD26F",
"2X c #EFD175",
"3X c #274CFC",
"4X c #3A5EE4",
"5X c #506CED",
"6X c #4D5BD4",
"7X c #5BC886",
"8X c #76CA86",
"9X c #69D386",
"0X c #6AD789",
"qX c #6BDE92",
"wX c #73DC92",
"eX c #6DD088",
"rX c #6CE496",
"tX c #72E595",
"yX c #B89486",
"uX c #B08B87",
"iX c #BAB38C",
"pX c #C9AA8C",
"aX c #D9B586",
"sX c #D4B991",
"dX c #ECB687",
"fX c #D1AD92",
"gX c #8AD291",
"hX c #8FD394",
"jX c #A9F4B4",
"kX c #A0D79B",
"lX c #D5C599",
"zX c #E3C596",
"xX c #FDD594",
"cX c #F0C690",
"vX c #DBD9B3",
"bX c #D4CCA7",
"nX c #E4C8A6",
"mX c #F9D6AA",
"MX c #FED9B2",
"NX c #FAD8B3",
"BX c #EBD4B0",
"VX c #FCE7BC",
"CX c #B4BCDC",
"ZX c #BCCFD1",
"AX c #F6D9C7",
"SX c #FDEBC6",
"DX c #FFFFDD",
"FX c #FFF7D4",
"GX c #FAF2CA",
"HX c #F9FDF5",
"JX c #D5DCE3",
"KX c None",
/* pixels */
"KXKXKXKXKXKXKXKXKXKXKXKXKXKXKXKXKXKXKXKXKXKXKXKXKXKXKXKXKXKXKXKXKXKXKXKXKXKXKXKXKXKXKXKXKXKXKXKXKXKXKXKXKXKXKXKXKXKXKXKXKXKXKXKX",
"KXKXKXKXKXKXKXKXKXKXKXKXKXKXKXKXKXKXKXKXKXKXKXKXKXKXKXKXKXKXKXKXKXKXKXKXKXKXKXKXKXKXKXKXKXKXKXKXKXKXKXKXKXKXKXKXKXKXKXKXKXKXKXKX",
"KXKXKXKXKXKXKXKXKXKXKXKXKXKXKXKXKXKXKXKXKXKXKXKXKXKXKXKXKXKXKXKXKXKXKXKXKXKXKXKXKXKXKXKXKXKXKXKXKXKXKXKXKXKXKXKXKXKXKXKXKXKXKXKX",
"KXKXKXKXKXKXKXKXKXKXKXKXKXKXKXKXKXKXKXKXKXKXKXKXKXKXKXKXKXKXKXKXKXKXKXKXKXKXKXKXKXKXKXKXKXKXKXKXKXKXKXKXKXKXKXKXKXKXKXKXKXKXKXKX",
"KXKXKXKXKXKXKXKXKXKXKXKXKXKXKXKXKXKXKXKXKXKXKXKXKXKXKXKXKXKXKXKXKXKXKXKXKXKXKXKXKXKXKXKXKXKXKXKXKXKXKXKXKXKXKXKXKXKXKXKXKXKXKXKX",
"KXKXKXKXKXKXKXKXKXKXKXKXKXKXKXKXKXKXKXKXKXKXKXKXKXKXKXKXKXKXKXKXKXKXKXKXKXKXKXKXKXKXKXKXKXKXKXKXKXKXKXKXKXKXKXKXKXKXKXKXKXKXKXKX",
"KXKXKXKXKXKXKXKXKXKXKXKXKXKXKXKXKXKXKXKXKXKXKXKXKXKXKXKXKXKXKXKXKXKXKXKXKXKXKXKXKXKXKXKXKXKXKXKXKXKXKXKXKXKXKXKXKXKXKXKXKXKXKXKX",
"KXKXKXKXKXKXKXKXKXKXKXKXKXKXKXKXKXKXKXKXKXKXKXKXKXKXKXKXKXKXKXKXKXKXKXKXKXKXKXKXKXKXKXKXKXKXKXKXKXKXKXKXKXKXKXKXKXKXKXKXKXKXKXKX",
"KXKXKXKXKXKXKXKXKXKXKXKXKXKXKXKXKXKXKXKXKXKXKXKXKXKXKXKXKXKXKXKXKXKXKXKXKXKXKXKXKXKXKXKXKXKXKXKXKXKXKXKXKXKXKXKXKXKXKXKXKXKXKXKX",
"KXKXKXKXKXKXKXKXKXKXKXKXKXKXKXKXKXKXKXKXKXKXKXKXKXKXKXKXKXKXKXKXKXKXKXKXKXKXKXKXKXKXKXKXKXKXKXKXKXKXKXKXKXKXKXKXKXKXKXKXKXKXKXKX",
"KXKXKXKXKXKXKXKXKXKXKXKXKXKXKXKXKXKXKXKXKXKXKXKXKXKXKXKXKXKXKXKXKXKXKXKXKXKXKXKXKXKXKXKXKXKXKXKXKXKXKXKXKXKXKXKXKXKXKXKXKXKXKXKX",
"KXKXKXKXKXKXKXKXKXKXKXKXKXKXKXKXKXKXKXKXKXKXKXKXKXKX0X9X9X9X9X9X9X9X9X0XKXKXKXKXKXKXKXKXKXKXKXKXKXKXKXKXKXKXKXKXKXKXKXKXKXKXKXKX",
"KXKXKXKXKXKXKXKXKXKXKXKXKXKXKXKXKXKXKXKXKXKXKXKXKXqXC.c B Q Q Q Q B c C.rXKXKXKXKXKXKXKXKXKXKXKXKXKXKXKXKXKXKXKXKXKXKXKXKXKXKXKX",
"KXKXKXKXKXKXKXKXKXKXKXKXKXKXKXKXKXKXKXKXqX9X9X9XrXH.B a m m m m m m a B L.tX8X8XeX8X8XeXeX8X8XKXKXKXKXKXKXKXKXKXKXKXKXKXKXKXKXKX",
"KXKXKXKXKXKXKXKXKXKXKXKXKXKXKXKXKXKXKXrXC.v Q Q Q 3.5.e.a.d.p.p.d.9.8.Z./ F u F J J J D ^ F G _ KXKXKXKXKXKXKXKXKXKXKXKXKXKXKXKX",
"KXKXKXKXKXKXKXKXKXKXKXKXKXKXKXKXKXKXwXH.B a m d v 6.e.g.l.x.k.k.x.d.p.t.J #.#.#.[ [ [ $.#.#.8 J KXKXKXKXKXKXKXKXKXKXKXKXKXKXKXKX",
"KXKXKXKXKXKXKXKXKXKXKXKXKXKXKXKXKXwXC.M 4.8.a.d.p.p.d.l.l.k.k.k.z.z.u.f.^.Q./.^.&X@XyX;X(..X#./ KXKXKXKXKXKXKXKXKXKXKXKXKXKXKXKX",
"KXKXKXKXKXKXKXKXKXKXKXKXKXKXKXKXrXH.M d 8.h.l.v.z.k.k.k.k.k.l.k.l.z.z.W. X|.[.|.1XcXaX1X|.!.#.J KXKXKXKXKXKXKXKXKXKXKXKXKXKXKXKX",
"KXKXKXKXKXKXKXKXKXKXKXKXKXKXKXqXC.M 4.e.g.l.k.k.k.z.k.k.k.k.k.k.l.n.`.{.-X<X(.~.}.{.}.}.[.'.} u KXKXKXKXKXKXKXKXKXKXKXKXKXKXKXKX",
"KXKXKXKXKXKXKXKXKXKXKXKXKXKXtXH.M d 7.F.h.d.k.k.k.k.k.k.k.k.k.k.u.n.'.}.:X<X(.).{.}.!.]./.E.%._ KXKXKXKXKXKXKXKXKXKXKXKXKXKXKXKX",
"KXKXKXKXKXKXKXKXKXKXKXKXKXrXC.M 5.A.S.D.r.g.l.k.k.k.k.k.k.k.k.k.u.z.`.].}.(.T.oX-X1X|.!.&.J P.KXKXKXKXKXKXKXKXKXKXKXKXKXKXKXKXKX",
"KXKXKXKXKXKXKXKXKXKXKXKXtXJ.M d e.D.D.D.D.r.h.d.f.d.l.k.k.k.k.z.z.W._.].[./.oX:.@X;X).E.G ) KXKXKXKXKXKXKXKXKXKXKXKXKXKXKXKXKXKX",
"KXKXKXKXKXKXKXKXKXKXKXtXC.M 4.e.S.D.D.D.D.D.r.r.F.g.d.z.k.k.k.n.`.'.!.].~. X-X+X;.D $.%.P.KXKXKXKXKXKXKXKXKXKXKXKXKXKXKXKXKXKXKX",
"KXKXKXKXKXKXKXKXKXKXtXH.N d A.D.D.S.A.A.S.D.D.D.D.F.h.d.d.d.i.n.!.].].!./.,X-X;X;.0 7 F rXKXKXKXKXKXKXKXKXKXKXKXKXKXKXKXKXKXKXKX",
"KXKXKXKXKXKXKXKXKXKXC.3.4.7.S.D.D.A.3.3.M.D.D.D.D.D.F.g.F.r.9.j._.].]./.T.>.=XaX>XoX1 4 9XKXKXKXKXKXKXKXKXKXKXKXKXKXKXKXKXKXKXKX",
"KXKXKXKXKXKXKXKXKXKXn a 7.D.D.S.A.5.n n 5.8.S.S.e.4.4.V.S.D.M.U._.].]./.T.:.aXdXcX;X1 , 9XKXKXKX0X0X0XKXKXKXKXKXKXKXKXKXKXKXKXKX",
"KXKXKXKXKXKXKXKXKXtXQ f 7.D.D.A.3.n b b n 3.A.8.0.i s 0.7.D.M.y. X[.~.}.%XfXVXSXmX;X1 > qXrX( 6 > % , ! KXKXKXKXKXKXKXKXKXKXKXKX",
"KXKXKXKXKXKXKXKXKXJ.m.M 7.D.S.5.n c b c c n 5.4.Z.) B w.4.7.V.y.^.).).,X<XsXbXsX:X>.; > qXqX6   P I + r J.KXKXKXKXKXKXKXKXKXKXKX",
"KXKXKXKXKXKXKXKXG.m.4.A.D.A.3.n b d c d c x 0.w.iXnX*XXX3.s S H T.T.%XcXVXfX~ & #.C . > tXtX> 3 ZXAX2.' 5 ( KXKXKXKXKXKXKXKXKXKX",
"KXKXKXKXKXKXKXKXB a 3.9.7.5.v h h h h v c c i B.BXFXxX*XZ.m t w :.OX&XaXSXbX~ - r r r ) 7XJ.% I HXHX1.| + g KXKXKXKXKXKXKXKXKXKX",
"KXKXKXKXKXKXKXKXl : v 6.6.b < O O - O : h x s B.vXDXVXnXpXXX[ $.@X*XOX%XnXSXGXCX5X4X@X+X) k   e vXAX+.` @ E KXKXKXKXKXKXKXKXKXKX",
"KXKXKXKXKXKXKXKXT ; p h h h k T T T T k h h s ) -XVXNXBXxX&XF G -X:X%.%.lXGXHXHX4X3XbX:Xr     ~ vXmX<.` # E KXKXKXKXKXKXKXKXKXKX",
"KXKXKXKXKXKXKXKX5 . O - . 5 J.KXKXKXKXJ.5 . o Z XX*XVXSXxX&Xy 0 {.{.C $.sXGXHXJX3X3XnX:Xq     ~ vXmX1.` # R KXKXKXKXKXKXKXKXKXKX",
"KXKXKXKXKXKXKXKX) 5 T k l ( KXKXKXKXKXKX( 2 ; 1 C :.zXmX$X>.;.%.].!.C u sXFXHXJX5X6XuX+X) j   e vXVX<.` # R KXKXKXKXKXKXKXKXKXKX",
"KXKXKXKXKXKXKXKXKXKXKXKXKXKXKXKXKXKXKXKXKXJ.4 . O u >.OXS I @X;X|.!.C ^ sXFXSXSXnXuXA W 7X7X: r vXMX1.` # R KXKXKXKXKXKXKXKXKXKX",
"KXKXKXKXKXKXKXKXKXKXKXKXKXKXKXKXKXKXKXKXKXKX( 5 * : $.J   2 =X2X{.E.C ;.fXSXMXnX:X>.& % 9X8X> 6 vXMX<.` # R KXKXKXKXKXKXKXKXKXKX",
"KXKXKXKXKXKXKXKXKXKXKXKXKXKXKXKXKXKXKXKXKXKXKXY.V i & ; X z (.}.&.$.%.oX:XxXxX=X/ 1 7 9 L A O e vXMX<.' @ j KXKXKXKXKXKXKXKXKXKX",
"KXKXKXKXKXKXKXKXKXKXKXKXKXKXKXKXKXKXKXKXKXKXKXY.C.n Z 3 X e {.}.J q G :.+X&X;X:.% o H :.$.D . 5 vXMX<.| # E KXKXKXKXKXKXKXKXKXKX",
"KXKXKXKXKXKXKXKXKXKXKXKXKXKXKXKXKXKXKXKXKXqXm.V L.gXgXI., r <X<XA O 6 r 3 3 r r i Q pXNXMXpX< 2 vXMX1.` # R KXKXKXKXKXKXKXKXKXKX",
"KXKXKXKXKXKXKXKXKXKXKXKXKXKXKXKXKXKXwXeXqXH.n w.8XjXjXgXj 2 +X@XZ o - < * , : , i B.BXDXDXBX6 < bXmX1.' # j KXKXKXKXKXKXKXKXKXKX",
"KXKXKXKXKXKXKXKXKXKXKXKXKXKXKXKXKXKX( 6 N V.L.8XgXkXjXgXB.i r e h h h c 3.4.7.B o P BXDXDXvX2 < *XdX<.| # R KXKXKXKXKXKXKXKXKXKX",
"KXKXKXKXKXKXKXKXKXKXKXKXKXKXKXKXKXKX5   i 3.gXjXkXhXeXJ.5.v : : h m 6.3.9.U.U.e.z F yXBXNXpX2 & $X:X=. .# R KXKXKXKXKXKXKXKXKXKX",
"KXKXKXKXKXKXKXKXKXKXKXKXKXKXKXKXKXKXW o i m.8XjXkXP.6.x 7.7.v h c n 5.8.r.D.M.y.^.E.A P %.H O 5 $X:X*. .# Y KXKXKXKXKXKXKXKXKXKX",
"KXKXKXKXKXKXKXKXKXKXKXKXKXKXKXKXKXKXA # Z K I.gXkXhXB.M q.e.6.6.6.3.M.D.M.M.M.R.[.!.z X 9 r = l pX:X=.' # E KXKXKXKXKXKXKXKXKXKX",
"KXKXKXKXKXKXKXKXKXKXKXKXKXKXKXKXN.3 [ o...{ m C.lXVXnX$XH D e.M.9.7.D.U.U.q.S $.'.[.y.V j & = l *XaX{ ] # R KXKXKXKXKXKXKXKXKXKX",
"KXKXKXKXKXKXKXKXKXKXKXKXKXKXKXKX4 7 X.O.+.-.p 6.zXFXDXmX;.0 w.S.e.q.q.w.q.w.D #.^. Xj.8.j = * Z *X:X;.q ; l KXKXKXKXKXKXKXKXKXKX",
"KXKXKXKXKXKXKXKXKXKXKXKXKXKXN.4 { ..O.+.:X=X#.J BXDXDXBX;.8 0 D y y D y t D t.f.n.n.b.4.< X X A dXaXA = = W KXKXKXKXKXKXKXKXKXKX",
"KXKXKXKXKXKXKXKXKXKXKXKXKXKX4 7  .X.o.{ &X#XJ G fXBXmXpX:.C D D D D D D y L z.v.v.a.A.) S l = e #X#XA ; O W KXKXKXKXKXKXKXKXKXKX",
"KXKXKXKXKXKXKXKXKXKXKXKXN.e t ] { ] 7 ; 3 3 . ; $.:.;.%.y.k.s.s.s.s.s.s.s.k.x.x.b.e., 4 #X$X4 * > u  . .+ j KXKXKXKXKXKXKXKXKXKX",
"KXKXKXKXKXKXKXKXKXKXKXKXj + w ] w t 5 Y > , E j 9 7 0 S f.c.x.x.x.x.x.x.v.k.p.8.4.Q 4 U =X>XF & : 1  .o.e KXKXKXKXKXKXKXKXKXKXKX",
"KXKXKXKXKXKXKXKXKXKXKXKX6   # q + 5 J.KXKXwXrXJ.< $ w.r.F.g.c.v.v.x.x.v.b.e.z $ o e #X=X1.o.o.' ] w + 5 KXKXKXKXKXKXKXKXKXKXKXKX",
"KXKXKXKXKXKXKXKXKXKXKXKXKXj W E j KXKXKXKXKXKXKX( j 5.e.5.w.a.p.p.p.p.a.5.B T 3 < ~ #X>X2.@.O...{ t 4 KXKXKXKXKXKXKXKXKXKXKXKXKX",
"KXKXKXKXKXKXKXKXKXKXKXKXKXKXKXKXKXKXKXKXKXKXKXKXKXK.T O < - < < & < < < O k I.rXqXK.T q o.O.{ ] + 4 KXKXKXKXKXKXKXKXKXKXKXKXKXKX",
"KXKXKXKXKXKXKXKXKXKXKXKXKXKXKXKXKXKXKXKXKXKXKXKXKXKX( 2 5 k k T 5 k k 5 2 ( rXKXKXKX! 1 {  .] t 4 KXKXKXKXKXKXKXKXKXKXKXKXKXKXKX",
"KXKXKXKXKXKXKXKXKXKXKXKXKXKXKXKXKXKXKXKXKXKXKXKXKXKXKXKXKXKXKXKXKXKXKXKXKXKXKXKXKXKXKXKXe + . l KXKXKXKXKXKXKXKXKXKXKXKXKXKXKXKX",
"KXKXKXKXKXKXKXKXKXKXKXKXKXKXKXKXKXKXKXKXKXKXKXKXKXKXKXKXKXKXKXKXKXKXKXKXKXKXKXKXKXKXKXKXKXg j KXKXKXKXKXKXKXKXKXKXKXKXKXKXKXKXKX",
"KXKXKXKXKXKXKXKXKXKXKXKXKXKXKXKXKXKXKXKXKXKXKXKXKXKXKXKXKXKXKXKXKXKXKXKXKXKXKXKXKXKXKXKXKXKXKXKXKXKXKXKXKXKXKXKXKXKXKXKXKXKXKXKX",
"KXKXKXKXKXKXKXKXKXKXKXKXKXKXKXKXKXKXKXKXKXKXKXKXKXKXKXKXKXKXKXKXKXKXKXKXKXKXKXKXKXKXKXKXKXKXKXKXKXKXKXKXKXKXKXKXKXKXKXKXKXKXKXKX",
"KXKXKXKXKXKXKXKXKXKXKXKXKXKXKXKXKXKXKXKXKXKXKXKXKXKXKXKXKXKXKXKXKXKXKXKXKXKXKXKXKXKXKXKXKXKXKXKXKXKXKXKXKXKXKXKXKXKXKXKXKXKXKXKX",
"KXKXKXKXKXKXKXKXKXKXKXKXKXKXKXKXKXKXKXKXKXKXKXKXKXKXKXKXKXKXKXKXKXKXKXKXKXKXKXKXKXKXKXKXKXKXKXKXKXKXKXKXKXKXKXKXKXKXKXKXKXKXKXKX",
"KXKXKXKXKXKXKXKXKXKXKXKXKXKXKXKXKXKXKXKXKXKXKXKXKXKXKXKXKXKXKXKXKXKXKXKXKXKXKXKXKXKXKXKXKXKXKXKXKXKXKXKXKXKXKXKXKXKXKXKXKXKXKXKX",
"KXKXKXKXKXKXKXKXKXKXKXKXKXKXKXKXKXKXKXKXKXKXKXKXKXKXKXKXKXKXKXKXKXKXKXKXKXKXKXKXKXKXKXKXKXKXKXKXKXKXKXKXKXKXKXKXKXKXKXKXKXKXKXKX",
"KXKXKXKXKXKXKXKXKXKXKXKXKXKXKXKXKXKXKXKXKXKXKXKXKXKXKXKXKXKXKXKXKXKXKXKXKXKXKXKXKXKXKXKXKXKXKXKXKXKXKXKXKXKXKXKXKXKXKXKXKXKXKXKX",
"KXKXKXKXKXKXKXKXKXKXKXKXKXKXKXKXKXKXKXKXKXKXKXKXKXKXKXKXKXKXKXKXKXKXKXKXKXKXKXKXKXKXKXKXKXKXKXKXKXKXKXKXKXKXKXKXKXKXKXKXKXKXKXKX"
};
