/* XPM */
static char *result[] = {
/* columns rows colors chars-per-pixel */
"64 64 254 2 ",
"   c #1A0619",
".  c #161816",
"X  c #110611",
"o  c #261919",
"O  c #2A0816",
"+  c #182E1A",
"@  c #31241E",
"#  c #181728",
"$  c #0F1223",
"%  c #241926",
"&  c #321327",
"*  c #16242C",
"=  c #1A2826",
"-  c #1A3429",
";  c #172934",
":  c #1A3334",
">  c #0E2927",
",  c #292726",
"<  c #362929",
"1  c #283528",
"2  c #2C2833",
"3  c #342A37",
"4  c #353636",
"5  c #36322D",
"6  c #4C131B",
"7  c #65151A",
"8  c #641A1E",
"9  c #640119",
"0  c #582917",
"q  c #6F2D19",
"w  c #502F2C",
"e  c #6A3825",
"r  c #6A3735",
"t  c #712F29",
"y  c #650F21",
"u  c #186B16",
"i  c #276618",
"p  c #2B6D11",
"a  c #1D4824",
"s  c #285728",
"d  c #345A34",
"f  c #2C4932",
"g  c #1B6F28",
"h  c #276925",
"j  c #297C29",
"k  c #257726",
"l  c #2F6D32",
"z  c #37643B",
"x  c #367939",
"c  c #356F2A",
"v  c #235418",
"b  c #534D31",
"n  c #694826",
"m  c #654739",
"M  c #755331",
"N  c #4F7131",
"B  c #6D5E28",
"V  c #393942",
"C  c #473245",
"Z  c #3D5749",
"A  c #305047",
"S  c #3A7744",
"D  c #3D6E4E",
"F  c #50524B",
"G  c #6E5648",
"H  c #477B56",
"J  c #4B7250",
"K  c #6F6F4F",
"L  c #4C7F65",
"P  c #941B1E",
"I  c #B51B1E",
"U  c #8C341A",
"Y  c #A52B1C",
"T  c #8D3128",
"R  c #AC2E30",
"E  c #941C22",
"W  c #C61218",
"Q  c #C61E21",
"!  c #D31F21",
"~  c #E62322",
"^  c #ED3432",
"/  c #CA2F2B",
"(  c #8F561A",
")  c #865B39",
"_  c #844D29",
"`  c #916C2E",
"'  c #A8752D",
"]  c #9E661D",
"[  c #E7463E",
"{  c #F23741",
"}  c #87594A",
"|  c #977448",
" . c #957A5C",
".. c #906C4D",
"X. c #A57757",
"o. c #AF7953",
"O. c #947A72",
"+. c #AA7F60",
"@. c #E77D5E",
"#. c #E36352",
"$. c #38B11F",
"%. c #37AD1F",
"&. c #2C862C",
"*. c #358A3D",
"=. c #378837",
"-. c #359334",
";. c #3A9C3B",
":. c #399839",
">. c #2E9130",
",. c #3DA53C",
"<. c #3BB02D",
"1. c #518935",
"2. c #769231",
"3. c #45BA3B",
"4. c #4DAF2F",
"5. c #609E22",
"6. c #35E625",
"7. c #4AD828",
"8. c #48C539",
"9. c #4AD432",
"0. c #4DE524",
"q. c #4EE922",
"w. c #4CE428",
"e. c #51EC22",
"r. c #5CE922",
"t. c #4DF12B",
"y. c #73EB22",
"u. c #60C827",
"i. c #3D9645",
"p. c #378945",
"a. c #3FA241",
"s. c #45964C",
"d. c #458A5F",
"f. c #479C52",
"g. c #519350",
"h. c #7A985A",
"j. c #6D8A4F",
"k. c #43AD43",
"l. c #43A645",
"z. c #46B245",
"x. c #45BB42",
"c. c #46B548",
"v. c #51AE4B",
"b. c #418D60",
"n. c #4D8B62",
"m. c #4A9766",
"M. c #539C6A",
"N. c #5B8B62",
"B. c #4EAA64",
"V. c #55A56B",
"C. c #59AB74",
"Z. c #59BA77",
"A. c #51B36F",
"S. c #6DB779",
"D. c #75B97A",
"F. c #6FAC6C",
"G. c #729264",
"H. c #45C242",
"J. c #59C67B",
"K. c #59C679",
"L. c #61C97D",
"P. c #75C779",
"I. c #61CA40",
"U. c #918C32",
"Y. c #AE8F30",
"T. c #B9AD28",
"R. c #99901E",
"E. c #C6AA1C",
"W. c #CAB427",
"Q. c #C09136",
"!. c #90D533",
"~. c #8FEC22",
"^. c #B3E72C",
"/. c #B3C930",
"(. c #EAD61E",
"). c #F8F21E",
"_. c #DAC92F",
"`. c #E8D922",
"'. c #E8D637",
"]. c #D2EF22",
"[. c #EAE826",
"{. c #F6EE23",
"}. c #FBEB2A",
"|. c #FCF321",
" X c #FCFB25",
".X c #F5E838",
"XX c #F6F631",
"oX c #DECD1C",
"OX c #828B49",
"+X c #A98359",
"@X c #B58B4F",
"#X c #958B6C",
"$X c #A88662",
"%X c #BA9768",
"&X c #B48F6F",
"*X c #AFA16E",
"=X c #81A166",
"-X c #D1B455",
";X c #C59773",
":X c #D2A97B",
">X c #DBB779",
",X c #D0AC6C",
"<X c #E3BB79",
"1X c #F08A6E",
"2X c #D8CB48",
"3X c #EBD455",
"4X c #ECD549",
"5X c #EACB73",
"6X c #F6E548",
"7X c #6D6BAB",
"8X c #224AEB",
"9X c #5A6DD7",
"0X c #143EFF",
"qX c #C67B8B",
"wX c #5DC785",
"eX c #69DA8B",
"rX c #72D389",
"tX c #6EE793",
"yX c #76FAA5",
"uX c #7A95C8",
"iX c #A89D84",
"pX c #A48080",
"aX c #B2AE8B",
"sX c #A8B1B4",
"dX c #FB9B82",
"fX c #D9B788",
"gX c #DABA93",
"hX c #CFB08E",
"jX c #E5BC89",
"kX c #E0AFA3",
"lX c #95DA9B",
"zX c #89D090",
"xX c #8EF0A7",
"cX c #9FE0A3",
"vX c #E5C595",
"bX c #F3CC90",
"nX c #D7CBAC",
"mX c #ECD4AA",
"MX c #F4D3A7",
"NX c #F6DBB4",
"BX c #E8D0AB",
"VX c #FBE3BA",
"CX c #EDE1B6",
"ZX c #C2CF9C",
"AX c #8E9FF6",
"SX c #F6DCC4",
"DX c #FEECC3",
"FX c #FDE9CB",
"GX c #FFF5CA",
"HX c #FFF7D6",
"JX c #FDFDF6",
"KX c #D5D7E2",
"LX c #B9C7C5",
"PX c None",
/* pixels */
"PXPXPXPXPXPXPXPXPXPXPXPXPXPXPXPXPXPXPXPXPXPXPXPXPXPXPXPXPXPXPXPXPXPXPXPXPXPXPXPXPXPXPXPXPXPXPXPXPXPXPXPXPXPXPXPXPXPXPXPXPXPXPXPX",
"PXPXPXPXPXPXPXPXPXPXPXPXPXPXPXPXPXPXPXPXPXPXPXPXPXPXPXPXPXPXPXPXPXPXPXPXPXPXPXPXPXPXPXPXPXPXPXPXPXPXPXPXPXPXPXPXPXPXPXPXPXPXPXPX",
"PXPXPXPXPXPXPXPXPXPXPXPXPXPXPXPXPXPXPXPXPXPXPXPXPXPXPXPXPXPXPXPXPXPXPXPXPXPXPXPXPXPXPXPXPXPXPXPXPXPXPXPXPXPXPXPXPXPXPXPXPXPXPXPX",
"PXPXPXPXPXPXPXPXPXPXPXPXPXPXPXPXPXPXPXPXPXPXPXPXPXPXPXPXPXPXPXPXPXPXPXPXPXPXPXPXPXPXPXPXPXPXPXPXPXPXPXPXPXPXPXPXPXPXPXPXPXPXPXPX",
"PXPXPXPXPXPXPXPXPXPXPXPXPXPXPXPXPXPXPXPXPXPXeXK.J.J.J.J.J.J.J.J.J.wXPXPXPXPXPXPXPXPXPXPXPXPXPXPXPXPXPXPXPXPXPXPXPXPXPXPXPXPXPXPX",
"PXPXPXPXPXPXPXPXPXPXPXPXPXPXPXPXPXPXPXPXPXtXB.x x p.i.x S S i.*.x i.K.PXPXPXPXPXPXPXPXPXPXPXPXPXPXPXPXPXPXPXPXPXPXPXPXPXPXPXPXPX",
"PXPXPXPXPXPXPXPXPXPXPXPXPXPXPXPXPXPXPXPXPXK.s.i h i k h k h h h u c B.eXPXPXPXPXPXPXPXPXPXPXPXPXPXPXPXPXPXPXPXPXPXPXPXPXPXPXPXPX",
"PXPXPXPXPXPXPXPXPXPXPXPXPXPXPXPXPXPXPXeXB.f.*.>.-.$.$.$.$.$.$.%.>.=.g.j.j.K G.PXPXPXPXPXPXPXPXPXPXPXPXPXPXPXPXPXPXPXPXPXPXPXPXPX",
"PXPXPXPXPXPXPXPXPXPXPXPXPXPXPXPXPXPXPXA.S l -.3.8.7.q.0.0.0.q.7.3.4.G n E q G F.PXPXPXPXPXPXPXPXPXPXPXPXPXPXPXPXPXPXPXPXPXPXPXPX",
"PXPXPXPXPXPXPXPXPXPXPXPXPXPXPXPXPXPXZ.l.-.%.<.9.7.q.q.e.q.e.q.7.7.3.2.] ] ] ] OXD.D.S.D.PXPXPXPXPXPXPXPXPXPXPXPXPXPXPXPXPXPXPXPX",
"PXPXPXPXPXPXPXPXPXPXPXPXPXPXPXPXeXB.x >.4.7.7.7.q.q.q.q.q.q.q.q.6.9.~.oX(.(.W.U.F r r K D.PXPXPXPXPXPXPXPXPXPXPXPXPXPXPXPXPXPXPX",
"PXPXPXPXPXPXPXPXPXPXPXPXPXPXPXPXK.s.k %.0.q.q.q.q.q.q.q.q.q.q.q.0.y.^.XX X X).T.q t U ) h.tXPXPXPXPXPXPXPXPXPXPXPXPXPXPXPXPXPXPX",
"PXPXPXPXPXPXPXPXPXPXPXPXPXPXeXB.l.4.$.7.0.e.e.e.q.q.q.q.q.q.q.y.~.^.2X3X4X.X XoXW.E.E.Y.U.K D.PXPXPXPXPXPXPXPXPXPXPXPXPXPXPXPXPX",
"PXPXPXPXPXPXPXPXPXPXPXPXPXPXA.S p <.t.0.q.q.e.0.q.q.q.q.q.q.q.y.].}.4XfX5X'. X{.{.|. X[.' r K tXPXPXPXPXPXPXPXPXPXPXPXPXPXPXPXPX",
"PXPXPXPXPXPXPXPXPXPXPXPXPXZ.f.-.-.<.9.0.q.q.e.e.0.e.q.0.q.6.6.~.].}.6X5X2X-X_._.6X.X X{.E.' U.h.PXPXPXPXPXPXPXPXPXPXPXPXPXPXPXPX",
"PXPXPXPXPXPXPXPXPXPXPXPXB.p.*.;.4.3.3.9.7.q.e.0.e.0.e.0.q.0.6.r.].|.}..X_.Q.Y.,X>X3X.X|.).oXT.M K PXPXPXPXPXPXPXPXPXPXPXPXPXPXPX",
"PXPXPXPXPXPXPXPXPXPXPXPXf.i &.;.z.c.z.8.9.0.0.r.q.q.q.q.q.r.r.~.].).|.{.'.' o.$XhX-X4X.X X XE.( m PXPXPXPXPXPXPXPXPXPXPXPXPXPXPX",
"PXPXPXPXPXPXPXPXPXPXPXPXf.i &.a.z.c.z.c.3.9.7.q.q.q.q.q.r.y.^.].[.|.|.|.'.-X;XX.} +X-X3XXX|.E.U r PXPXPXPXPXPXPXPXPXPXPXPXPXPXPX",
"PXPXPXPXPXPXPXPXPXPXPXtXf.h &.,.z.z.z.c.v.8.9.0.0.0.0.w.r.~.{.|.).{.}.`.4X<X;XX.q } ;XfX6XXXT._ G PXPXPXPXPXPXPXPXPXPXPXPXPXPXPX",
"PXPXPXPXPXPXPXPXPXPXL.B.i.-.:.k.z.z.z.l.z.c.8.9.9.9.9.9.7.^.}.|.|.{.(._.2X-X:X&X| ..+.@XY.W.Y.OXG.PXPXPXPXPXPXPXPXPXPXPXPXPXPXPX",
"PXPXPXPXPXPXPXPXPXPXs.l *.3.l.k.c.c.c.c.z.z.x.x.z.3.z.3.H.!.[.|.|.[.W.Y.+X,XfX:X;Xo...T t ( ` PXPXPXPXPXPXPXPXPXPXPXPXPXPXPXPXPX",
"PXPXPXPXPXPXPXPXPXPXx p =.k.c.c.z.c.c.a.,.;.i.4.3.z.v.l.v./.[.|.|.[.W.X.o.hXjXjX<X+.M q t G F.PXPXPXPXPXPXPXPXPXPXPXPXPXPXPXPXPX",
"PXPXPXPXPXPXPXPXPXPX=.h -.k.c.z.z.c.a.a.&.j k &.:.l.v.j.U./.[.|.|.`.-X,XfXvXVXbXvX$Xw 3 J F.PXPXPXPXPXPXPXPXPXPXPXPXPXPXPXPXPXPX",
"PXPXPXPXPXPXPXPXPXPX*.j -.k.c.k.z.z.a.i.&.g g g :.l.1.2.+XW.XX X{..X4X>XgXNXVXMX<X .3 : M.PXPXPXPXPXPXPXPXPXPXPXPXPXPXPXPXPXPXPX",
"PXPXPXPXPXPXPXPXPXL.*.j -.k.c.c.a.,.:.g.h.=Xh.j.1.>.1.B ) Y.W._.4X3X5XbXhX*X#X$X@XM & ; B.yXPXC.M.m.M.n.m.Z.PXPXPXPXPXPXPXPXPXPX",
"PXPXPXPXPXPXPXPXPXPX*.j -.z.c.c.a.>.g h.nXNXjX;Xh.&.g b T ] ' @X,X<XMXVXaXF . 0 n q   = M.yXZ.F @ . # $ > A wXPXPXPXPXPXPXPXPXPX",
"PXPXPXPXPXPXPXPXPXL.*.j -.a.a.4.>.&.u =XVXGXMXjX*Xg.c n t ` X.@X;X:XvXVXnXG 4 V r m b F N.wXH , X C F C 6 w N.PXPXPXPXPXPXPXPXPX",
"PXPXPXPXPXPXPXPXPXJ.*.j :.l.a.>.&.g k =XNXFXNXBXhX*XOXM t ..&X%X@X%XfXNXnXLXsX7X8X7XO.+.K J f . w 7XLXqXR E m D PXPXPXPXPXPXPXPX",
"PXPXPXPXPXPXPXPXPXPX*.j -.l.:.&.g u k h.BXNXVXNXvXjX%X) t | fX,X@X' hXNXHXJXJXAX0X9XgX,XG $ X X F LXJXNX{ W 9 ; PXPXPXPXPXPXPXPX",
"PXPXPXPXPXPXPXPXPXPX*.j :.k.:.&.g a s K %XvXmXVXVXMXhX..t Y.4X2X' M &XBXHXJXJXAX0X9XnX<XG $ X $ F LXJXkX{ W 9 # m.PXPXPXPXPXPXPX",
"PXPXPXPXPXPXPXPXPXPX*.j -.x.;.j i - 1 b | %XvXFXFXDXhX..e Y.|._.) r &XBXFXJXKXAX0X9XhX>XK %   $ C iXDXdX{ I 7 : n.PXPXPXPXPXPXPX",
"PXPXPXPXPXPXPXPXPXPX*.j &.;.=.h a + @ < n | *XvXMXVXhX..w R. X(.( r &XBXFXHXKXAX9X7XpXX.K F f . V iXDXdX^ I 7 * b.PXPXPXPXPXPXPX",
"PXPXPXPXPXPXPXPXPXPX*.k k j h 1 . o , O # r | %X<XbX:XF , R.|.oX( r &XCXDXDXSXnXsXO.r w n.wXH = 5 iXDXdX[ I 8 * b.PXPXPXPXPXPXPX",
"PXPXPXPXPXPXPXPXPXPX=.h u h s 1 2 2 2 2 * 4 B ..@X,X$XV $ R.|.`.( r &XmXCXVXBXvX>X..< - V.yXB.- < iXDXdX[ I 7 * d.PXPXPXPXPXPXPX",
"PXPXPXPXPXPXPXPXPXPXd + + a d H n.n.d.n.n.H N m G } F 2 # R.|.`.] t &XbXMXbXgX&X..K H B.eXyXZ.- < iXDXdX[ I 7 * b.PXPXPXPXPXPXPX",
"PXPXPXPXPXPXPXPXPXPXf O O o J wXyXtXeXyXyXwXJ & & < , $ = R.|.`.` r X.<XbXbXhX} o A wXyXyXyXM.= 5 iXDXdX[ I 7 * b.PXPXPXPXPXPXPX",
"PXPXPXPXPXPXPXPXPXPXn.Z Z Z C.PXPXPXPXtXwXB.z = + + + . , U.6X_.` w G  .+.O. .K A d.V.P.P.S.J + 4 iXDXdX[ I 7 * b.PXPXPXPXPXPXPX",
"PXPXPXPXPXPXPXPXPXPXPXPXPXPXPXPXPXPXPXC.F f s s s s a - % ..5X,XM % & b w w C N.wXF.K n B M b . V iXDXdX[ I 7 * d.PXPXPXPXPXPXPX",
"PXPXPXPXPXPXPXPXPXPXPXPXPXPXPXPXPXPXPXM., O s k k h i a , K :X&XF $ $ , > X : m.tXS.M E U n r X V iXDXdX{ I 7 * b.PXPXPXPXPXPXPX",
"PXPXPXPXPXPXPXPXPXPXPXPXPXPXPXPXPXPXPXM.2 o k -.&.k g v s b G F f s s l l l x J L G.&X:X;X;XG , 4 iXGXdX[ I 7 * b.PXPXPXPXPXPXPX",
"PXPXPXPXPXPXPXPXPXPXPXPXPXPXPXPXPXPXPXM.3 1 x <.-.&.u h h a * = s h >.k.H.x.i.f . G nXHXGXDX#X< 1 iXGX1X[ I 7 * b.PXPXPXPXPXPXPX",
"PXPXPXPXPXPXPXPXPXPXPXPXPXPXPXPXPXPXPXM.3 2 p.H.-.k j p.s.J F F c j -.z.c.c.k.x a J #XkXFXHXiX4 , *XCX1X[ I 7 * b.PXPXPXPXPXPXPX",
"PXPXPXPXPXPXPXPXPXPXPXPXPXPXPXPXPXPXPXV.2 2 x H.-.p x B.P.zXD.M.S j -.k.c.z.z.i.p.l A F hXHXaX3 , #XgX1X[ I 7 * b.PXPXPXPXPXPXPX",
"PXPXPXPXPXPXPXPXPXPXPXPXPXPXPXPXPXPXeXN.4 1 =.a.:.x g.D.lXxXcXP.s.k &.3.c.z.c.I.9.1.. & #XNX*XV o  .,X1X^ I 7 * d.PXPXPXPXPXPXPX",
"PXPXPXPXPXPXPXPXPXPXPXPXPXPXPXPXPXC.d.N x =.&.=.v.V.D.zXlXxXcXP.s.g >.z.z.c.v.!.].2.1 . G o.G % 2  .hX@.[ ! 7 * d.PXPXPXPXPXPXPX",
"PXPXPXPXPXPXPXPXPXPXPXPXPXPXPXPXPXJ o d l.,.&.l g.P.lXlXlXlXcXS.*.g >.3.x.k.3.^.XXW.b . 8 n 0 # f #XfX@.^ Q 7 - b.PXPXPXPXPXPXPX",
"PXPXPXPXPXPXPXPXPXPXPXPXPXPXPXPXPXZ X s a.x.&.h V.lXcXlXzXrXF.g.N c N N 1.N 1._. XW.b # F K b , < #XfX1X[ P 8 # d.PXPXPXPXPXPXPX",
"PXPXPXPXPXPXPXPXPXPXPXPXPXPXPXPXPXF O l a.x.&.i g.zXlXlXzXA.j p b n n n r t M W. XW.5 + d.tXf.: 3  .<Xo.R 7 6 . m.PXPXPXPXPXPXPX",
"PXPXPXPXPXPXPXPXPXPXPXPXPXPXPXPXPXn.V z *.-.&.=.f.D.zXlXlXF.1.c B n n B n n M T.[.Y.w ; Z.yXZ.: @ X.jXo.T t 3 F PXPXPXPXPXPXPXPX",
"PXPXPXPXPXPXPXPXPXPXPXPXPXPXPXPXPXPXC.H f d =.;.i.s.F.aXBXZXaX=X) q N 5.5.5.5.!.!.5., , PXPXJ.: 3 +.bX+.6 < J PXPXPXPXPXPXPXPXPX",
"PXPXPXPXPXPXPXPXPXPXPXPXPXPXPXPXPXPXPXV.< @ x 3.>.u 1.ZXNXFXDXgX` e 5.q.e.e.w.9.H.=.; 4 PXPXC.: w X.jX .< f PXPXPXPXPXPXPXPXPXPX",
"PXPXPXPXPXPXPXPXPXPXPXPXPXPXPXPXPXPXPXPXL J x x p v j.aXFXHXHXhXX.t 1.t.t.t.9.;.l S D PXPXPXC.4 & G  .K H PXPXPXPXPXPXPXPXPXPXPX",
"PXPXPXPXPXPXPXPXPXPXPXPXPXPXPXPXPXPXPXPXPXZ.D , 0 b ..fXGXHXGXvX..t N 8.H.H.3.d o Z Z.PXPXPXPX4 X   w H PXPXPXPXPXPXPXPXPXPXPXPX",
"PXPXPXPXPXPXPXPXPXPXPXPXPXPXPXPXPXPXPXPXPXPXD & O 0 } ;XBXNXBX;X} 0 N 1.i.i.=.d V n.PXPXPXPXPXH 4 1 f PXPXPXPXPXPXPXPXPXPXPXPXPX",
"PXPXPXPXPXPXPXPXPXPXPXPXPXPXPXPXPXPXPXPXPXPXZ   O < e G  .X. ...w 1 - s f s z H C.PXPXPXPXPXPXPXPXPXPXPXPXPXPXPXPXPXPXPXPXPXPXPX",
"PXPXPXPXPXPXPXPXPXPXPXPXPXPXPXPXPXPXPXPXPXPXL 2 % , , e e n n w 1 * = = = O 2 M.PXPXPXPXPXPXPXPXPXPXPXPXPXPXPXPXPXPXPXPXPXPXPXPX",
"PXPXPXPXPXPXPXPXPXPXPXPXPXPXPXPXPXPXPXPXPXPXPXPXA * 6 q Y Y Y Y U 8 E t 7 & 2 M.PXPXPXPXPXPXPXPXPXPXPXPXPXPXPXPXPXPXPXPXPXPXPXPX",
"PXPXPXPXPXPXPXPXPXPXPXPXPXPXPXPXPXPXPXPXPXPXPXPXPX; 6 I ~ ~ ~ ~ ~ ~ ~ ~ I 6 f M.PXPXPXPXPXPXPXPXPXPXPXPXPXPXPXPXPXPXPXPXPXPXPXPX",
"PXPXPXPXPXPXPXPXPXPXPXPXPXPXPXPXPXPXPXPXPXPXPXPXPXp.b T ! Q I Q Q Q ! ! E 6 ; V.PXPXPXPXPXPXPXPXPXPXPXPXPXPXPXPXPXPXPXPXPXPXPXPX",
"PXPXPXPXPXPXPXPXPXPXPXPXPXPXPXPXPXPXPXPXPXPXPXPXPXPXPXm y y 8 8 8 8 8 8 6   2 V.PXPXPXPXPXPXPXPXPXPXPXPXPXPXPXPXPXPXPXPXPXPXPXPX",
"PXPXPXPXPXPXPXPXPXPXPXPXPXPXPXPXPXPXPXPXPXPXPXPXPXPXPXPX= * : : ; : : : ; , f PXPXPXPXPXPXPXPXPXPXPXPXPXPXPXPXPXPXPXPXPXPXPXPXPX",
"PXPXPXPXPXPXPXPXPXPXPXPXPXPXPXPXPXPXPXPXPXPXPXPXPXPXPXPXPXPXPXPXPXPXPXPXPXPXPXPXPXPXPXPXPXPXPXPXPXPXPXPXPXPXPXPXPXPXPXPXPXPXPXPX",
"PXPXPXPXPXPXPXPXPXPXPXPXPXPXPXPXPXPXPXPXPXPXPXPXPXPXPXPXPXPXPXPXPXPXPXPXPXPXPXPXPXPXPXPXPXPXPXPXPXPXPXPXPXPXPXPXPXPXPXPXPXPXPXPX",
"PXPXPXPXPXPXPXPXPXPXPXPXPXPXPXPXPXPXPXPXPXPXPXPXPXPXPXPXPXPXPXPXPXPXPXPXPXPXPXPXPXPXPXPXPXPXPXPXPXPXPXPXPXPXPXPXPXPXPXPXPXPXPXPX"
};
