/* XPM */
static char *result[] = {
/* columns rows colors chars-per-pixel */
"64 64 248 2 ",
"   c #060407",
".  c #180508",
"X  c #101118",
"o  c #360008",
"O  c #39061E",
"+  c #360A1A",
"@  c #2C1C1C",
"#  c #250309",
"$  c #192D1E",
"%  c #282F13",
"&  c #040424",
"*  c #111627",
"=  c #250720",
"-  c #281C23",
";  c #361824",
":  c #092624",
">  c #192922",
",  c #183426",
"<  c #123534",
"1  c #292624",
"2  c #362A2C",
"3  c #273623",
"4  c #363827",
"5  c #2B3935",
"6  c #373635",
"7  c #352838",
"8  c #4F0D0B",
"9  c #4D331E",
"0  c #74351D",
"q  c #4F1821",
"w  c #582726",
"e  c #422B37",
"r  c #463835",
"t  c #563338",
"y  c #512E2D",
"u  c #683729",
"i  c #6A3D38",
"p  c #72312C",
"a  c #620F12",
"s  c #1F591E",
"d  c #075F10",
"f  c #14620D",
"g  c #116715",
"h  c #2D7113",
"j  c #174534",
"k  c #1B4F28",
"l  c #245A24",
"z  c #274538",
"x  c #34433C",
"c  c #384C3B",
"v  c #37552F",
"b  c #196927",
"n  c #296D29",
"m  c #256B24",
"M  c #287824",
"N  c #36783A",
"B  c #33722C",
"V  c #724B15",
"C  c #484525",
"Z  c #46443B",
"A  c #584731",
"S  c #6A4623",
"D  c #7A4836",
"F  c #765A37",
"G  c #714C29",
"H  c #467237",
"J  c #6E6B35",
"K  c #373945",
"L  c #1C3D41",
"P  c #703E46",
"I  c #412F4B",
"U  c #1D5543",
"Y  c #354641",
"T  c #275641",
"R  c #315042",
"E  c #367540",
"W  c #33775B",
"Q  c #146248",
"!  c #4F504E",
"~  c #704845",
"^  c #4C6C50",
"/  c #6F7659",
"(  c #596766",
")  c #B7050B",
"_  c #B40D19",
"`  c #923A06",
"'  c #943A1C",
"]  c #B61E21",
"[  c #A61E20",
"{  c #942524",
"}  c #943630",
"|  c #B82926",
" . c #A82022",
".. c #85051E",
"X. c #C81018",
"o. c #D81F20",
"O. c #E71F20",
"+. c #DB2223",
"@. c #CE2021",
"#. c #EB2122",
"$. c #FE2223",
"%. c #8A4C2F",
"&. c #8A6136",
"*. c #916A32",
"=. c #AB5C22",
"-. c #FA493D",
";. c #EB493C",
":. c #95724E",
">. c #A97D52",
",. c #95484B",
"<. c #FC4A4B",
"1. c #FC5549",
"2. c #FF5D5A",
"3. c #D94B4D",
"4. c #15862B",
"5. c #2A852B",
"6. c #36833E",
"7. c #338A33",
"8. c #3B9D3C",
"9. c #389439",
"0. c #2E852E",
"q. c #3DA23D",
"w. c #3AA636",
"e. c #3CB33D",
"r. c #33BC33",
"t. c #2C8607",
"y. c #4D8C3A",
"u. c #55A63D",
"i. c #44BA3C",
"p. c #53AD34",
"a. c #6CB73E",
"s. c #47B51F",
"d. c #39CE29",
"f. c #2CE525",
"g. c #42C626",
"h. c #48DA26",
"j. c #55D824",
"k. c #4CCD37",
"l. c #4EE922",
"z. c #4DE427",
"x. c #55EA22",
"c. c #4EFD28",
"v. c #4DF329",
"b. c #73E923",
"n. c #6CD73F",
"m. c #3D8C41",
"M. c #39914A",
"N. c #3DA641",
"B. c #2FB547",
"V. c #388063",
"C. c #48934D",
"Z. c #43AA43",
"A. c #46B246",
"S. c #46BA40",
"D. c #53A352",
"F. c #53BA6B",
"G. c #59B779",
"H. c #58AC6E",
"J. c #62AC66",
"K. c #6FB46E",
"L. c #7A8F43",
"P. c #44C948",
"I. c #62C979",
"U. c #AC8933",
"Y. c #B9AD2C",
"T. c #80AF36",
"R. c #CBB729",
"E. c #8FEB26",
"W. c #F5E81F",
"Q. c #F9F81C",
"!. c #E2E01E",
"~. c #D3D228",
"^. c #E7D929",
"/. c #EAD732",
"(. c #CDED23",
"). c #E9E823",
"_. c #F6EB23",
"`. c #FDF222",
"'. c #FFFF25",
"]. c #EBE235",
"[. c #FBFA36",
"{. c #F3EA36",
"}. c #E9D71F",
"|. c #948E57",
" X c #B38B5B",
".X c #AB8751",
"XX c #B28975",
"oX c #B49066",
"OX c #B9AB77",
"+X c #C29A5B",
"@X c #CEAE54",
"#X c #CA9970",
"$X c #CAA976",
"%X c #DCB576",
"&X c #CDAA73",
"*X c #E8AE75",
"=X c #E7D149",
"-X c #E7C478",
";X c #ECD270",
":X c #EDD274",
">X c #274CFC",
",X c #3A5EE4",
"<X c #506CED",
"1X c #4D5BD2",
"2X c #5AC584",
"3X c #5FDD93",
"4X c #67CA86",
"5X c #79C986",
"6X c #69D487",
"7X c #6CDD92",
"8X c #71DC94",
"9X c #6CE796",
"0X c #73E696",
"qX c #76F39B",
"wX c #6FFAA9",
"eX c #B08B84",
"rX c #BBB08E",
"tX c #D9B585",
"yX c #D7BA98",
"uX c #CCB18E",
"iX c #ECB385",
"pX c #D1AD92",
"aX c #8BD492",
"sX c #92D595",
"dX c #A8F0B4",
"fX c #A0D79B",
"gX c #D8C698",
"hX c #E4C498",
"jX c #FBCE97",
"kX c #DAD9B3",
"lX c #D5CBA8",
"zX c #E3C6A5",
"xX c #FAD6AA",
"cX c #FEDBB4",
"vX c #F8D9B3",
"bX c #E8D9AF",
"nX c #FEE5BB",
"mX c #EDE0B7",
"MX c #B4BCDC",
"NX c #BCCED1",
"BX c #F7D8C6",
"VX c #FDEBC5",
"CX c #FFF6C9",
"ZX c #FFFAD7",
"AX c #ECE6C9",
"SX c #F9FDF5",
"DX c #D4DCE3",
"FX c None",
/* pixels */
"FXFXFXFXFXFXFXFXFXFXFXFXFXFXFXFXFXFXFXFXFXFXFXFXFXFXFXFXFXFXFXFXFXFXFXFXFXFXFXFXFXFXFXFXFXFXFXFXFXFXFXFXFXFXFXFXFXFXFXFXFXFXFXFX",
"FXFXFXFXFXFXFXFXFXFXFXFXFXFXFXFXFXFXFXFXFXFXFXFXFXFXFXFXFXFXFXFXFXFXFXFXFXFXFXFXFXFXFXFXFXFXFXFXFXFXFXFXFXFXFXFXFXFXFXFXFXFXFXFX",
"FXFXFXFXFXFXFXFXFXFXFXFXFXFXFXFXFXFXFXFXFXFXFXFXFXFXFXFXFXFXFXFXFXFXFXFXFXFXFXFXFXFXFXFXFXFXFXFXFXFXFXFXFXFXFXFXFXFXFXFXFXFXFXFX",
"FXFXFXFXFXFXFXFXFXFXFXFXFXFXFXFXFXFXFXFXFXFXFXFXFXFXFXFXFXFXFXFXFXFXFXFXFXFXFXFXFXFXFXFXFXFXFXFXFXFXFXFXFXFXFXFXFXFXFXFXFXFXFXFX",
"FXFXFXFXFXFXFXFXFXFXFXFXFXFXFXFXFXFXFXFXFXFXFXFXFXFXFXFXFXFXFXFXFXFXFXFXFXFXFXFXFXFXFXFXFXFXFXFXFXFXFXFXFXFXFXFXFXFXFXFXFXFXFXFX",
"FXFXFXFXFXFXFXFXFXFXFXFXFXFXFXFXFXFXFXFXFXFXFXFXFXFXFXFXFXFXFXFXFXFXFXFXFXFXFXFXFXFXFXFXFXFXFXFXFXFXFXFXFXFXFXFXFXFXFXFXFXFXFXFX",
"FXFXFXFXFXFXFXFXFXFXFXFXFXFXFXFXFXFXFXFXFXFXFXFXFXFXFXFXFXFXFXFXFXFXFXFXFXFXFXFXFXFXFXFXFXFXFXFXFXFXFXFXFXFXFXFXFXFXFXFXFXFXFXFX",
"FXFXFXFXFXFXFXFXFXFXFXFXFXFXFXFXFXFXFXFXFXFXFXFX7X6X6X6X6X6X6X6X6X7XFXFXFXFXFXFXFXFXFXFXFXFXFXFXFXFXFXFXFXFXFXFXFXFXFXFXFXFXFXFX",
"FXFXFXFXFXFXFXFXFXFXFXFXFXFXFXFXFXFXFXFXFXFXFX7XC.m N N E N N N m C.9XFXFXFXFXFXFXFXFXFXFXFXFXFXFXFXFXFXFXFXFXFXFXFXFXFXFXFXFXFX",
"FXFXFXFXFXFXFXFXFXFXFXFXFXFXFXFXFXFXFXFXFXFX0XF.N f M M M M M M f N F.0X5X6XFXFXFXFXFXFXFXFXFXFXFXFXFXFXFXFXFXFXFXFXFXFXFXFXFXFX",
"FXFXFXFXFXFXFXFXFXFXFXFXFXFXFXFXFXFXFXFXFX7XC.N 8.w.s.h.g.g.h.s.e.y.~ D p / qXFXFXFXFXFXFXFXFXFXFXFXFXFXFXFXFXFXFXFXFXFXFXFXFXFX",
"FXFXFXFXFXFXFXFXFXFXFXFXFXFXFXFXFXFXFXFX8XF.B h e.k.z.c.l.x.c.z.k.p.F ' ` &.K.8X6XFXFXFXFXFXFXFXFXFXFXFXFXFXFXFXFXFXFXFXFXFXFXFX",
"FXFXFXFXFXFXFXFXFXFXFXFXFXFXFXFXFXFXFX8XC.N s.h.h.z.z.l.l.l.l.l.f.j.~.}.W.Y.J t p / qXFXFXFXFXFXFXFXFXFXFXFXFXFXFXFXFXFXFXFXFXFX",
"FXFXFXFXFXFXFXFXFXFXFXFXFXFXFXFXFXFX8XF.N t.h.c.l.l.l.l.l.l.l.x.x.E.[.[.'.W.=.0 ` &.|.FXFXFXFXFXFXFXFXFXFXFXFXFXFXFXFXFXFXFXFXFX",
"FXFXFXFXFXFXFXFXFXFXFXFXFXFXFXFXFX8XC.0.r.h.l.l.l.l.l.l.l.l.l.b.(.].%X-X{.'.!.~.W.Y.D ^ 0XFXFXFXFXFXFXFXFXFXFXFXFXFXFXFXFXFXFXFX",
"FXFXFXFXFXFXFXFXFXFXFXFXFXFXFXFX8XF.N t.g.x.l.l.l.l.l.l.l.l.f.b.).{.*X-X/.^.[.[.'.W.=.G K.FXFXFXFXFXFXFXFXFXFXFXFXFXFXFXFXFXFXFX",
"FXFXFXFXFXFXFXFXFXFXFXFXFXFXFXFXC.m.9.Z.S.k.h.l.l.l.l.l.l.l.f.x.(._.{.~.U..X%X;X{.Q.W.Y.&./ FXFXFXFXFXFXFXFXFXFXFXFXFXFXFXFXFXFX",
"FXFXFXFXFXFXFXFXFXFXFXFXFXFXFX6Xm f 8.A.A.S.k.h.z.l.l.l.l.x.l.E.).`.'.^..X:.XX$X=X[.'.W.` i FXFXFXFXFXFXFXFXFXFXFXFXFXFXFXFXFXFX",
"FXFXFXFXFXFXFXFXFXFXFXFXFXFXFX9XE h N.A.A.A.S.k.z.z.l.l.l.b.(.{._.`.Q.[.%X Xi %.&X;X[.^.` D FXFXFXFXFXFXFXFXFXFXFXFXFXFXFXFXFXFX",
"FXFXFXFXFXFXFXFXFXFXFXFXFXFX0XG.M.M N.Z.A.A.A.S.k.z.j.h.f.b.).`.`.).^.=X%X#X%.G XX&X/.~.&./ FXFXFXFXFXFXFXFXFXFXFXFXFXFXFXFXFXFX",
"FXFXFXFXFXFXFXFXFXFXFXFXFXFXC.B 8.N.A.A.A.A.A.A.A.i.i.i.r.n.(.`.`.^.U..X&X&X#X X*.%.` *.K.FXFXFXFXFXFXFXFXFXFXFXFXFXFXFXFXFXFXFX",
"FXFXFXFXFXFXFXFXFXFXFXFXFXFX0.d 8.A.A.A.A.Z.i.8.N.Z.A.A.M.a.~.`.`.^..X:.%XhXjX&XD 8 w / FXFXFXFXFXFXFXFXFXFXFXFXFXFXFXFXFXFXFXFX",
"FXFXFXFXFXFXFXFXFXFXFXFXFXFXm.h q.A.A.A.A.w.b d d 4.u.Z.L.Y._.`.Q.].@XtXnXnXxX#Xe 5 J.0XFXFXFXFXFXFXFXFXFXFXFXFXFXFXFXFXFXFXFXFX",
"FXFXFXFXFXFXFXFXFXFXFXFXFXFXE n 8.A.A.N.N.u.C.^ N y.9.y./ U./.{.{.=X-XyXlXgX%X>.- < 3XwX4X4X6X4X4X8XFXFXFXFXFXFXFXFXFXFXFXFXFXFX",
"FXFXFXFXFXFXFXFXFXFXFXFXFXFX6.n q.A.A.i.4.C.uXbX&X|.7.b u %.*.Y.@XjXnXuXZ @ V V . , 9XqX^ > * : : W qXFXFXFXFXFXFXFXFXFXFXFXFXFX",
"FXFXFXFXFXFXFXFXFXFXFXFXFXFXm.m 8.A.N.7.d E mXZXjX&XC.n u } :. X+XtXVXlX! 1 t i w ^ 2XH.2 . I K o 9 G.FXFXFXFXFXFXFXFXFXFXFXFXFX",
"FXFXFXFXFXFXFXFXFXFXFXFXFXFXm.m 8.Z.7.M g C.bXZXvXhXrX|.p %.XX#X X+XbXnXAXMX<X1XXXoX^ j   ! NXBX3.) e W FXFXFXFXFXFXFXFXFXFXFXFX",
"FXFXFXFXFXFXFXFXFXFXFXFXFXFX6.m q.Z.M b d C.$XnXvXvXjX*XS D %X-X*.*.hXCXSXSX>X>XyX*Xe     ( SXSX1.X.o j FXFXFXFXFXFXFXFXFXFXFXFX",
"FXFXFXFXFXFXFXFXFXFXFXFXFXFX6.m e.i.5.s , r :.&XmXZXCXhX~ ' ].].V %.yXVXSXDX>X>XzX*X7     Z AXBX-.) + U FXFXFXFXFXFXFXFXFXFXFXFX",
"FXFXFXFXFXFXFXFXFXFXFXFXFXFXm.M 9.w.n k $ ; S :.uXvXVXzXt V W.`.V i yXCXZXDX<X,XeX>.^ 6   Z lXxX<.) O z FXFXFXFXFXFXFXFXFXFXFXFX",
"FXFXFXFXFXFXFXFXFXFXFXFXFXFXm.M M n 3 = = = # 9 :.&XjXtX6 4 ).W.V P gXZXVXVXzXeXy 4 G.G.: e kXcX1.) O T FXFXFXFXFXFXFXFXFXFXFXFX",
"FXFXFXFXFXFXFXFXFXFXFXFXFXFX6.s s l 5 K x 6 U K J *.+X.X* 4 )._.%.P yXnXvXzXiX>.4 U qXqX, 2 kXcX1.) O T FXFXFXFXFXFXFXFXFXFXFXFX",
"FXFXFXFXFXFXFXFXFXFXFXFXFXFXc   . 5 H.9X6X4X3X2XZ - r 6 & C ).`.%.i %XxXjX$Xt 4 H.9XwX9X, 2 kXxX<.) O T FXFXFXFXFXFXFXFXFXFXFXFX",
"FXFXFXFXFXFXFXFXFXFXFXFXFXFX^ 6 7 ^ 9XFXFXwXqXG.v X @ $ & C ].].%.u >.#X#X:.5 z G.8X0XH.> 2 kXcX<.) + c FXFXFXFXFXFXFXFXFXFXFXFX",
"FXFXFXFXFXFXFXFXFXFXFXFXFXFXFXFXFXFXFXFXFX6X^ 6 l b s k & t -X-Xr X 7 e ; ! 2X6XJ 0 G 9 . 6 kXcX1._ + T FXFXFXFXFXFXFXFXFXFXFXFX",
"FXFXFXFXFXFXFXFXFXFXFXFXFXFXFXFXFXFXFXFXFX4X2   m 7.M m $ r XXXXZ : > : X U 2X4X:.} %.P X 6 kXnX<.) + T FXFXFXFXFXFXFXFXFXFXFXFX",
"FXFXFXFXFXFXFXFXFXFXFXFXFXFXFXFXFXFXFXFXFXFXx - w.r.M b g k r r l b N q.w.N < R yXVXvXuX1 5 kXcX1.) O T FXFXFXFXFXFXFXFXFXFXFXFX",
"FXFXFXFXFXFXFXFXFXFXFXFXFXFXFXFXFXFXFXFXFXFXY 1 9.N.C.9.y.N : : n 9.e.P.P.u.% ~ uXBXZXbX2 2 lXxX<._ O T FXFXFXFXFXFXFXFXFXFXFXFX",
"FXFXFXFXFXFXFXFXFXFXFXFXFXFXFXFXFXFXFXFXFXqXK # f 6.J.aXaXF.N m 7.i.A.A.B.a.~.R.C ( VXnX6 1 rXiX<._ O T FXFXFXFXFXFXFXFXFXFXFXFX",
"FXFXFXFXFXFXFXFXFXFXFXFXFXFXFXFXFXFXFXFXFXF.x 1 m D.5XdXdXaX6.M 8.A.A.Z.8.a.'._.% * uXyX3 1 oX*X-.@.O T FXFXFXFXFXFXFXFXFXFXFXFX",
"FXFXFXFXFXFXFXFXFXFXFXFXFXFXFXFXFXFXFXFX^ 5 l N J.5XaXfXdXaX6.4.e.P.P.C.A %.'.`.C & x x X 6 OXiX-.X.O T FXFXFXFXFXFXFXFXFXFXFXFX",
"FXFXFXFXFXFXFXFXFXFXFXFXFXFXFXFXFXFXFXH.7 . l m.aXdXsXaX5XJ.H B y.u.u.y.G %.^.~.v & @ @ & x OX*X;.] O T FXFXFXFXFXFXFXFXFXFXFXFX",
"FXFXFXFXFXFXFXFXFXFXFXFXFXFXFXFXFXFXV.< - $ s m.aXdXsX5X7.s A u A u u S H u.n.A.k O ] ] - x OX*X3.a # z FXFXFXFXFXFXFXFXFXFXFXFX",
"FXFXFXFXFXFXFXFXFXFXFXFXFXFXFXFXFXG.t 8 - 3 l 7.J.aXfXaXN.v S 0 S S u J Z.P.Z.n , w #.#.- Y $X*X} a 6 FXFXFXFXFXFXFXFXFXFXFXFXFX",
"FXFXFXFXFXFXFXFXFXFXFXFXFXFXFXFXV.r | ] q , m M M D.gXvXmX$XD S s.j.j.j.P.N.k < w { $.+.@ c hX%Xq 1 FXFXFXFXFXFXFXFXFXFXFXFXFXFX",
"FXFXFXFXFXFXFXFXFXFXFXFXFXFXFXFXj o O.#.w : s s d H gXZXZXvX,.V x.c.c.v.i.N - q { | @. .@ 5 oXoXR FXFXFXFXFXFXFXFXFXFXFXFXFXFXFX",
"FXFXFXFXFXFXFXFXFXFXFXFXFXFXFXFXT O o.+.1 : , 3 9 :.vXZXZXvX,.S x.c.z.w., ; u [ O.@.w = X = + ! FXFXFXFXFXFXFXFXFXFXFXFXFXFXFXFX",
"FXFXFXFXFXFXFXFXFXFXFXFXFXFXFXFXU O o.O.w @ 1 1 9 D pXbXvXpXD C s.g.y.6.c e p [ o.| c U R R < FXFXFXFXFXFXFXFXFXFXFXFXFXFXFXFXFX",
"FXFXFXFXFXFXFXFXFXFXFXFXFXFXFXFXj o o.$.+.{ - : : y D %.%.p + X 1 3 X c 2X4X6 # o ! FXFXFXFXFXFXFXFXFXFXFXFXFXFXFXFXFXFXFXFXFXFX",
"FXFXFXFXFXFXFXFXFXFXFXFXFXFXFXFXFXr { +.$.#.{ 1 * > S F F F c x x x 5 ( FXFXFXz j FXFXFXFXFXFXFXFXFXFXFXFXFXFXFXFXFXFXFXFXFXFXFX",
"FXFXFXFXFXFXFXFXFXFXFXFXFXFXFXFXFXFX6 8 o.$.#. .o < FXFXFXFXFXFXFXFXFXFXFXFXFXFXFXFXFXFXFXFXFXFXFXFXFXFXFXFXFXFXFXFXFXFXFXFXFXFX",
"FXFXFXFXFXFXFXFXFXFXFXFXFXFXFXFXFXFXFXz { +.#.| Z FXFXFXFXFXFXFXFXFXFXFXFXFXFXFXFXFXFXFXFXFXFXFXFXFXFXFXFXFXFXFXFXFXFXFXFXFXFXFX",
"FXFXFXFXFXFXFXFXFXFXFXFXFXFXFXFXFXFXFXFXx o o Z FXFXFXFXFXFXFXFXFXFXFXFXFXFXFXFXFXFXFXFXFXFXFXFXFXFXFXFXFXFXFXFXFXFXFXFXFXFXFXFX",
"FXFXFXFXFXFXFXFXFXFXFXFXFXFXFXFXFXFXFXFXFXj j FXFXFXFXFXFXFXFXFXFXFXFXFXFXFXFXFXFXFXFXFXFXFXFXFXFXFXFXFXFXFXFXFXFXFXFXFXFXFXFXFX",
"FXFXFXFXFXFXFXFXFXFXFXFXFXFXFXFXFXFXFXFXFXFXFXFXFXFXFXFXFXFXFXFXFXFXFXFXFXFXFXFXFXFXFXFXFXFXFXFXFXFXFXFXFXFXFXFXFXFXFXFXFXFXFXFX",
"FXFXFXFXFXFXFXFXFXFXFXFXFXFXFXFXFXFXFXFXFXFXFXFXFXFXFXFXFXFXFXFXFXFXFXFXFXFXFXFXFXFXFXFXFXFXFXFXFXFXFXFXFXFXFXFXFXFXFXFXFXFXFXFX",
"FXFXFXFXFXFXFXFXFXFXFXFXFXFXFXFXFXFXFXFXFXFXFXFXFXFXFXFXFXFXFXFXFXFXFXFXFXFXFXFXFXFXFXFXFXFXFXFXFXFXFXFXFXFXFXFXFXFXFXFXFXFXFXFX",
"FXFXFXFXFXFXFXFXFXFXFXFXFXFXFXFXFXFXFXFXFXFXFXFXFXFXFXFXFXFXFXFXFXFXFXFXFXFXFXFXFXFXFXFXFXFXFXFXFXFXFXFXFXFXFXFXFXFXFXFXFXFXFXFX",
"FXFXFXFXFXFXFXFXFXFXFXFXFXFXFXFXFXFXFXFXFXFXFXFXFXFXFXFXFXFXFXFXFXFXFXFXFXFXFXFXFXFXFXFXFXFXFXFXFXFXFXFXFXFXFXFXFXFXFXFXFXFXFXFX",
"FXFXFXFXFXFXFXFXFXFXFXFXFXFXFXFXFXFXFXFXFXFXFXFXFXFXFXFXFXFXFXFXFXFXFXFXFXFXFXFXFXFXFXFXFXFXFXFXFXFXFXFXFXFXFXFXFXFXFXFXFXFXFXFX",
"FXFXFXFXFXFXFXFXFXFXFXFXFXFXFXFXFXFXFXFXFXFXFXFXFXFXFXFXFXFXFXFXFXFXFXFXFXFXFXFXFXFXFXFXFXFXFXFXFXFXFXFXFXFXFXFXFXFXFXFXFXFXFXFX",
"FXFXFXFXFXFXFXFXFXFXFXFXFXFXFXFXFXFXFXFXFXFXFXFXFXFXFXFXFXFXFXFXFXFXFXFXFXFXFXFXFXFXFXFXFXFXFXFXFXFXFXFXFXFXFXFXFXFXFXFXFXFXFXFX",
"FXFXFXFXFXFXFXFXFXFXFXFXFXFXFXFXFXFXFXFXFXFXFXFXFXFXFXFXFXFXFXFXFXFXFXFXFXFXFXFXFXFXFXFXFXFXFXFXFXFXFXFXFXFXFXFXFXFXFXFXFXFXFXFX",
"FXFXFXFXFXFXFXFXFXFXFXFXFXFXFXFXFXFXFXFXFXFXFXFXFXFXFXFXFXFXFXFXFXFXFXFXFXFXFXFXFXFXFXFXFXFXFXFXFXFXFXFXFXFXFXFXFXFXFXFXFXFXFXFX"
};
