/* XPM */
static char *result[] = {
/* columns rows colors chars-per-pixel */
"64 64 248 2 ",
"   c #050406",
".  c #160308",
"X  c #120F18",
"o  c #360007",
"O  c #39061E",
"+  c #35081C",
"@  c #2A1B19",
"#  c #250207",
"$  c #172B1D",
"%  c #0A0D26",
"&  c #250821",
"*  c #291D23",
"=  c #351924",
"-  c #1D2D22",
";  c #142623",
":  c #173227",
">  c #193837",
",  c #072A26",
"<  c #2C2B21",
"1  c #292525",
"2  c #372A2B",
"3  c #263726",
"4  c #353626",
"5  c #283B36",
"6  c #363737",
"7  c #342B3A",
"8  c #31221E",
"9  c #541309",
"0  c #4F2F16",
"q  c #74351D",
"w  c #4F1721",
"e  c #552727",
"r  c #432B36",
"t  c #473835",
"y  c #543131",
"u  c #652925",
"i  c #6A3A37",
"p  c #72342E",
"a  c #620F12",
"s  c #15581C",
"d  c #15620D",
"f  c #0F6912",
"g  c #2C6F10",
"h  c #1C4825",
"j  c #174534",
"k  c #18532D",
"l  c #265825",
"z  c #294538",
"x  c #36473C",
"c  c #2A4C2D",
"v  c #1A6620",
"b  c #147328",
"n  c #296D29",
"m  c #256B24",
"M  c #2B7421",
"N  c #267826",
"B  c #36783B",
"V  c #35752D",
"C  c #754B15",
"Z  c #44443A",
"A  c #4D4D2A",
"S  c #794934",
"D  c #785739",
"F  c #724B28",
"G  c #42733B",
"H  c #766A37",
"J  c #5B501F",
"K  c #363E40",
"L  c #392F4B",
"P  c #1B3C41",
"I  c #703E46",
"U  c #412F4B",
"Y  c #1D5543",
"T  c #364641",
"R  c #275641",
"E  c #345644",
"W  c #387640",
"Q  c #386F4E",
"!  c #267054",
"~  c #50524D",
"^  c #704845",
"/  c #4C6C51",
"(  c #6F785A",
")  c #6F6F56",
"_  c #70776B",
"`  c #B7050B",
"'  c #B40D19",
"]  c #923A06",
"[  c #943A1C",
"{  c #B51F20",
"}  c #A61E20",
"|  c #932524",
" . c #943630",
".. c #B82926",
"X. c #A82022",
"o. c #85051E",
"O. c #C81018",
"+. c #D81F20",
"@. c #E71F20",
"#. c #DB2223",
"$. c #CE2021",
"%. c #EB2122",
"&. c #FE2223",
"*. c #884B2E",
"=. c #8A6136",
"-. c #916A32",
";. c #AB5C22",
":. c #FA493D",
">. c #EB493C",
",. c #8B5248",
"<. c #976A48",
"1. c #947551",
"2. c #A87C52",
"3. c #FC4A4B",
"4. c #FC5549",
"5. c #FF5D5A",
"6. c #D94B4D",
"7. c #1A8F2C",
"8. c #2B812B",
"9. c #368822",
"0. c #36833D",
"q. c #398638",
"w. c #3B9D3C",
"e. c #379537",
"r. c #259038",
"t. c #3EA33D",
"y. c #3CAA3A",
"u. c #3EB83F",
"i. c #33BC33",
"p. c #2C8607",
"a. c #48883A",
"s. c #4A9638",
"d. c #45B93C",
"f. c #49AF33",
"g. c #70B53D",
"h. c #3AC930",
"j. c #2CE525",
"k. c #42C826",
"l. c #47DA24",
"z. c #49C737",
"x. c #51D32F",
"c. c #4EE922",
"v. c #4AE626",
"b. c #55EB22",
"n. c #4EFB28",
"m. c #50FC23",
"M. c #49E933",
"N. c #73E923",
"B. c #358B48",
"V. c #3EA640",
"C. c #478A58",
"Z. c #449955",
"A. c #4E9246",
"S. c #43AA43",
"D. c #46B246",
"F. c #46BB41",
"G. c #53B244",
"H. c #53BA6B",
"J. c #58B97B",
"K. c #58AB6F",
"L. c #6CB26D",
"P. c #6B9B4E",
"I. c #47C846",
"U. c #62C779",
"Y. c #AC8933",
"T. c #B9AD2C",
"R. c #8FEB26",
"E. c #F5E71F",
"W. c #F9F81C",
"Q. c #E2E01E",
"!. c #D4CC27",
"~. c #E7D929",
"^. c #EAD732",
"/. c #CDED23",
"(. c #E9E823",
"). c #F5EB23",
"_. c #FDF221",
"`. c #FFFF24",
"'. c #EBE235",
"]. c #FBFA36",
"[. c #F3EA36",
"{. c #E9D71F",
"}. c #948E57",
"|. c #B38B5B",
" X c #AB8751",
".X c #B38974",
"XX c #B28E6A",
"oX c #B9AB77",
"OX c #C29A5B",
"+X c #CEAE54",
"@X c #C99971",
"#X c #C9A976",
"$X c #DCB576",
"%X c #CEA973",
"&X c #E8AE75",
"*X c #E7D149",
"=X c #E7C478",
"-X c #ECD270",
";X c #EDD274",
":X c #274CFC",
">X c #3A5EE4",
",X c #506CED",
"<X c #4D5BD2",
"1X c #5AC584",
"2X c #5FDD93",
"3X c #65C984",
"4X c #79C986",
"5X c #69D488",
"6X c #6BDD92",
"7X c #70DD94",
"8X c #77D989",
"9X c #6BE896",
"0X c #73E595",
"qX c #7BF79D",
"wX c #6FFAA9",
"eX c #B08B84",
"rX c #BBB18F",
"tX c #D9B585",
"yX c #D8BB98",
"uX c #CCB08E",
"iX c #ECB385",
"pX c #D1AD92",
"aX c #8AD493",
"sX c #8ECF94",
"dX c #A8F3B4",
"fX c #A0D79B",
"gX c #D7C598",
"hX c #E4C498",
"jX c #FBCE97",
"kX c #DAD9B3",
"lX c #D5CBA8",
"zX c #E3C6A5",
"xX c #FCD6A8",
"cX c #FEDBB4",
"vX c #F8D9B2",
"bX c #E8D9AF",
"nX c #FEE5BB",
"mX c #EDE0B7",
"MX c #B4BCDC",
"NX c #BCCED1",
"BX c #F7D8C6",
"VX c #FDECC5",
"CX c #FFF6C9",
"ZX c #FFFAD7",
"AX c #ECE6C9",
"SX c #F9FDF5",
"DX c #D4DCE3",
"FX c None",
/* pixels */
"FXFXFXFXFXFXFXFXFXFXFXFXFXFXFXFXFXFXFXFXFXFXFXFXFXFXFXFXFXFXFXFXFXFXFXFXFXFXFXFXFXFXFXFXFXFXFXFXFXFXFXFXFXFXFXFXFXFXFXFXFXFXFXFX",
"FXFXFXFXFXFXFXFXFXFXFXFXFXFXFXFXFXFXFXFXFXFXFXFXFXFXFXFXFXFXFXFXFXFXFXFXFXFXFXFXFXFXFXFXFXFXFXFXFXFXFXFXFXFXFXFXFXFXFXFXFXFXFXFX",
"FXFXFXFXFXFXFXFXFXFXFXFXFXFXFXFXFXFXFXFXFXFXFXFXFXFXFXFXFXFXFXFXFXFXFXFXFXFXFXFXFXFXFXFXFXFXFXFXFXFXFXFXFXFXFXFXFXFXFXFXFXFXFXFX",
"FXFXFXFXFXFXFXFXFXFXFXFXFXFXFXFXFXFXFXFXFXFXFXFXFXFXFXFXFXFXFXFXFXFXFXFXFXFXFXFXFXFXFXFXFXFXFXFXFXFXFXFXFXFXFXFXFXFXFXFXFXFXFXFX",
"FXFXFXFXFXFXFXFXFXFXFXFXFXFXFXFXFXFXFXFXFXFXFXFXFXFXFXFXFXFXFXFXFXFXFXFXFXFXFXFXFXFXFXFXFXFXFXFXFXFXFXFXFXFXFXFXFXFXFXFXFXFXFXFX",
"FXFXFXFXFXFXFXFXFXFXFXFXFXFXFXFXFXFXFXFXFXFXFXFXFXFXFXFXFXFXFXFXFXFXFXFXFXFXFXFXFXFXFXFXFXFXFXFXFXFXFXFXFXFXFXFXFXFXFXFXFXFXFXFX",
"FXFXFXFXFXFXFXFXFXFXFXFXFXFXFXFXFXFXFXFXFXFXFXFXFXFXFXFXFXFXFXFXFXFXFXFXFXFXFXFXFXFXFXFXFXFXFXFXFXFXFXFXFXFXFXFXFXFXFXFXFXFXFXFX",
"FXFXFXFXFXFXFXFXFXFXFXFXFXFXFXFXFXFXFXFXFXFXFXFX8X5X5X5X5X5X5X5X5X6XFXFXFXFXFXFXFXFXFXFXFXFXFXFXFXFXFXFXFXFXFXFXFXFXFXFXFXFXFXFX",
"FXFXFXFXFXFXFXFXFXFXFXFXFXFXFXFXFXFXFXFXFXFXFX7XZ.b B 0.B B B B m Z.9XFXFXFXFXFXFXFXFXFXFXFXFXFXFXFXFXFXFXFXFXFXFXFXFXFXFXFXFXFX",
"FXFXFXFXFXFXFXFXFXFXFXFXFXFXFXFXFXFXFXFXFXFX7XH.B d M g M M N M d B H.0X4X8XFXFXFXFXFXFXFXFXFXFXFXFXFXFXFXFXFXFXFXFXFXFXFXFXFXFX",
"FXFXFXFXFXFXFXFXFXFXFXFXFXFXFXFXFXFXFXFXFX6XC.B e.f.f.l.h.k.l.f.f.s.^ S p ) 0XFXFXFXFXFXFXFXFXFXFXFXFXFXFXFXFXFXFXFXFXFXFXFXFXFX",
"FXFXFXFXFXFXFXFXFXFXFXFXFXFXFXFXFXFXFXFX7XH.9.g y.z.c.m.c.b.m.v.z.f.D [ ] =.L.0X5XFXFXFXFXFXFXFXFXFXFXFXFXFXFXFXFXFXFXFXFXFXFXFX",
"FXFXFXFXFXFXFXFXFXFXFXFXFXFXFXFXFXFXFX7XC.V f.l.l.v.c.c.c.c.c.v.j.x.!.E.E.T.H t p ( wXFXFXFXFXFXFXFXFXFXFXFXFXFXFXFXFXFXFXFXFXFX",
"FXFXFXFXFXFXFXFXFXFXFXFXFXFXFXFXFXFX7XH.B p.l.m.b.c.c.c.c.c.c.b.b.R.[.].`.E.;.q ] =.}.FXFXFXFXFXFXFXFXFXFXFXFXFXFXFXFXFXFXFXFXFX",
"FXFXFXFXFXFXFXFXFXFXFXFXFXFXFXFXFX7XC.9.h.l.v.c.c.c.c.c.c.c.v.N./.'.$X=X[.`.Q.!.{.T.S / 0XFXFXFXFXFXFXFXFXFXFXFXFXFXFXFXFXFXFXFX",
"FXFXFXFXFXFXFXFXFXFXFXFXFXFXFXFX7XH.V g h.m.b.c.c.c.c.c.b.c.j.N.).[.&X=X^.~.].].`.).;.F L.FXFXFXFXFXFXFXFXFXFXFXFXFXFXFXFXFXFXFX",
"FXFXFXFXFXFXFXFXFXFXFXFXFXFXFXFXZ.B.w.t.d.z.v.c.b.c.c.c.c.c.j.b./.).'.^.Y.2.$X-X].W.E.T.=.( FXFXFXFXFXFXFXFXFXFXFXFXFXFXFXFXFXFX",
"FXFXFXFXFXFXFXFXFXFXFXFXFXFXFX5Xm d w.D.D.F.x.x.M.c.c.c.c.b.c.R.(._.`.~. X1..X%X*X].`.).] S FXFXFXFXFXFXFXFXFXFXFXFXFXFXFXFXFXFX",
"FXFXFXFXFXFXFXFXFXFXFXFXFXFXFX9XB g w.D.D.D.F.z.l.c.c.c.c.N./.).(.`.W.].$X|.S S #X-X].{.] i FXFXFXFXFXFXFXFXFXFXFXFXFXFXFXFXFXFX",
"FXFXFXFXFXFXFXFXFXFXFXFXFXFX0XH.B.V t.D.D.D.D.F.x.v.x.l.j.N.(._._.(.~.*X$X@X*.F .X%X^.!.=.( FXFXFXFXFXFXFXFXFXFXFXFXFXFXFXFXFXFX",
"FXFXFXFXFXFXFXFXFXFXFXFXFXFXZ.V w.S.S.D.D.D.D.D.D.F.d.I.V.z./._._.~.Y. X%X$X@X|.<.*.] =.L.FXFXFXFXFXFXFXFXFXFXFXFXFXFXFXFXFXFXFX",
"FXFXFXFXFXFXFXFXFXFXFXFXFXFXV d t.D.D.D.D.S.y.t.V.V.V.D.V.g.~._._.~. X1.$XyXjX@Xq 9 u P.FXFXFXFXFXFXFXFXFXFXFXFXFXFXFXFXFXFXFXFX",
"FXFXFXFXFXFXFXFXFXFXFXFXFXFXB.g w.D.D.D.D.y.b f f 7.s.G.P.T.)._.W.'.+X$XnXVXxX@Xr > K.7XFXFXFXFXFXFXFXFXFXFXFXFXFXFXFXFXFXFXFXFX",
"FXFXFXFXFXFXFXFXFXFXFXFXFXFXB n w.D.D.S.S.w.A./ G a.w.s.H 2.!.'.[.*X=XyXlXyX$X2.@ P 6XwX3X3X5X3X5X5XFXFXFXFXFXFXFXFXFXFXFXFXFXFX",
"FXFXFXFXFXFXFXFXFXFXFXFXFXFXB.n t.D.D.t.7.A.rXzX%X}.r.b J *.2.T.+XjXnXuXZ 8 C C . : 9XqX/ ; - $ : ! wXFXFXFXFXFXFXFXFXFXFXFXFXFX",
"FXFXFXFXFXFXFXFXFXFXFXFXFXFXq.n w.D.y.e.f / mXZXjX$XA.n u p -.OXOXtXVXlX~ 1 y y u / 1XJ.1 . U U o 0 K.FXFXFXFXFXFXFXFXFXFXFXFXFX",
"FXFXFXFXFXFXFXFXFXFXFXFXFXFXB M V.V.e.N f B.bXZXcXzXrX}.*. ..X#X|.OXzXnXAXMX,X<X.X|./ j . ~ NXDX6.' r Q FXFXFXFXFXFXFXFXFXFXFXFX",
"FXFXFXFXFXFXFXFXFXFXFXFXFXFX0.m V.f.N v s A.#XnXcXcXjX@XS p $X$X-.-.hXZXSXSX:X:XyX&Xr     ~ SXSX4.O.o j FXFXFXFXFXFXFXFXFXFXFXFX",
"FXFXFXFXFXFXFXFXFXFXFXFXFXFX0.n V.V.8.v - y 1.%XmXZXCXhX^ C '.'.C *.yXVXSXDX:X:XzX&X2     Z AXBX:.` O Y FXFXFXFXFXFXFXFXFXFXFXFX",
"FXFXFXFXFXFXFXFXFXFXFXFXFXFXB.N e.y.n h - = J 1.tXmXCXzXi C ).W.C i yXCXZXDX,X<XeX|./ 5   t kXxX3.` O z FXFXFXFXFXFXFXFXFXFXFXFX",
"FXFXFXFXFXFXFXFXFXFXFXFXFXFXB.M 8.n 3 & & & . 0 1.%XjXtX7 4 ~.E.C I gXZXVXBXbXeXy 4 J.J.; 6 kXcX4.` O R FXFXFXFXFXFXFXFXFXFXFXFX",
"FXFXFXFXFXFXFXFXFXFXFXFXFXFXq.s s l z K 6 T P x C 1.OX X* 3 (.E.*.I yXVXvXzXtX2.4 z wX0X: 2 kXcX4.` O R FXFXFXFXFXFXFXFXFXFXFXFX",
"FXFXFXFXFXFXFXFXFXFXFXFXFXFXx   . 5 K.6X3XU.9XJ.Z = Z t % t (.W.C I $XxXjX@Xy 4 K.9XwX6X: 2 kXcX3.` O R FXFXFXFXFXFXFXFXFXFXFXFX",
"FXFXFXFXFXFXFXFXFXFXFXFXFXFX/ K 2 / 9XFXqXwXwXJ.c % @ $   A '.'.*.p 2.OX@X}.6 R U.9X0XK.; 6 kXcX3.` = z FXFXFXFXFXFXFXFXFXFXFXFX",
"FXFXFXFXFXFXFXFXFXFXFXFXFXFXFXFXFXFXFXFXFX5X/ L m k l h % y =X=Xy % 6 x 7 / 1X3XH q C y   t kXcX4.' O R FXFXFXFXFXFXFXFXFXFXFXFX",
"FXFXFXFXFXFXFXFXFXFXFXFXFXFXFXFXFXFXFXFXFX3X2   n 8.N v : t XX.XZ , $ & . z 1X5X<. .*.I . x kXcX3.` O R FXFXFXFXFXFXFXFXFXFXFXFX",
"FXFXFXFXFXFXFXFXFXFXFXFXFXFXFXFXFXFXFXFXFX5X6 * e.u.8.v v s e r l l 0 9 9 0 - / yXnXcXrX1 6 kXcX4.` O R FXFXFXFXFXFXFXFXFXFXFXFX",
"FXFXFXFXFXFXFXFXFXFXFXFXFXFXFXFXFXFXFXFXFX5XK 1 y.u.8.N q.B > > f G ) <.<.D # 2 rXVXZXmX2 1 lXxX3.' O R FXFXFXFXFXFXFXFXFXFXFXFX",
"FXFXFXFXFXFXFXFXFXFXFXFXFXFXFXFXFXFXFXFXFX9X7 @ V.h.8.q.L.aXsXK.f M oXcXvXtX^ 0 2 _ VXVX6 1 uXiX:.' O R FXFXFXFXFXFXFXFXFXFXFXFX",
"FXFXFXFXFXFXFXFXFXFXFXFXFXFXFXFXFXFXFXFXFXK.x z a.s.N B.sXdXdX8XB A.mXZXZXcX<.9   1 rXyX3 < XX&X:.$.O R FXFXFXFXFXFXFXFXFXFXFXFX",
"FXFXFXFXFXFXFXFXFXFXFXFXFXFXFXFXFXFXFXFX/ T B.a.D A v r.aXdXfXaX4XsXcXZXZXvX,.9 8 ; x T X 6 oX&X:.O.O R FXFXFXFXFXFXFXFXFXFXFXFX",
"FXFXFXFXFXFXFXFXFXFXFXFXFXFXFXFXFXFXFXK.* @ f.d.J p A G L.4XaXaXfXfXgXyXxXpX1.A < $ 1 @ % x oXiX>.{ O R FXFXFXFXFXFXFXFXFXFXFXFX",
"FXFXFXFXFXFXFXFXFXFXFXFXFXFXFXFXFXFXC.> & < S.I.s.a.u e l Z.4XdXdX4XC.A ,.,.G.t.: 2 { { * z rX&X6.a # z FXFXFXFXFXFXFXFXFXFXFXFX",
"FXFXFXFXFXFXFXFXFXFXFXFXFXFXFXFXFXJ.y o & c 0.F.I.f.H J g r.L.sXsXU.7.f 0 J s.w.h w &.%.= 5 #X&X .a 6 FXFXFXFXFXFXFXFXFXFXFXFXFX",
"FXFXFXFXFXFXFXFXFXFXFXFXFXFXFXFXQ t ..{ w : M e.V.F.x.l.l.i.q.Q G G h.l.z.a.k > e | &.#.8 x gX$Xw 3 FXFXFXFXFXFXFXFXFXFXFXFXFXFX",
"FXFXFXFXFXFXFXFXFXFXFXFXFXFXFXFXj o @.%.e , h n e.f.M.n.m.l.9.f f 9.v.M.z.V 1 w | { $.} @ z |.XXT FXFXFXFXFXFXFXFXFXFXFXFXFXFXFX",
"FXFXFXFXFXFXFXFXFXFXFXFXFXFXFXFXY O +.#.* , - h M e.y.l.m.m.v.v.c.v.M.y.h = u X.%.+.u & X . + ~ FXFXFXFXFXFXFXFXFXFXFXFXFXFXFXFX",
"FXFXFXFXFXFXFXFXFXFXFXFXFXFXFXFXY O +.+.u 1 @ 3 h n B s.k.l.l.l.v.k.e.0.T r u } +...x Y E E > FXFXFXFXFXFXFXFXFXFXFXFXFXFXFXFXFX",
"FXFXFXFXFXFXFXFXFXFXFXFXFXFXFXFXj o +.&.#.| = , - 3 1 1 < < < < < < X T 1X3X6 # o Z FXFXFXFXFXFXFXFXFXFXFXFXFXFXFXFXFXFXFXFXFXFX",
"FXFXFXFXFXFXFXFXFXFXFXFXFXFXFXFXFXt | #.&.#.u * @ * 6 T K K T K T 6 5 / FXFXFX5 j FXFXFXFXFXFXFXFXFXFXFXFXFXFXFXFXFXFXFXFXFXFXFX",
"FXFXFXFXFXFXFXFXFXFXFXFXFXFXFXFXFXFX5 a +.&.%...9 > FXFXFXFXFXFXFXFXFXFXFXFXFXFXFXFXFXFXFXFXFXFXFXFXFXFXFXFXFXFXFXFXFXFXFXFXFXFX",
"FXFXFXFXFXFXFXFXFXFXFXFXFXFXFXFXFXFXFXz | #.@...r FXFXFXFXFXFXFXFXFXFXFXFXFXFXFXFXFXFXFXFXFXFXFXFXFXFXFXFXFXFXFXFXFXFXFXFXFXFXFX",
"FXFXFXFXFXFXFXFXFXFXFXFXFXFXFXFXFXFXFXFXx o o Z FXFXFXFXFXFXFXFXFXFXFXFXFXFXFXFXFXFXFXFXFXFXFXFXFXFXFXFXFXFXFXFXFXFXFXFXFXFXFXFX",
"FXFXFXFXFXFXFXFXFXFXFXFXFXFXFXFXFXFXFXFXFXj j FXFXFXFXFXFXFXFXFXFXFXFXFXFXFXFXFXFXFXFXFXFXFXFXFXFXFXFXFXFXFXFXFXFXFXFXFXFXFXFXFX",
"FXFXFXFXFXFXFXFXFXFXFXFXFXFXFXFXFXFXFXFXFXFXFXFXFXFXFXFXFXFXFXFXFXFXFXFXFXFXFXFXFXFXFXFXFXFXFXFXFXFXFXFXFXFXFXFXFXFXFXFXFXFXFXFX",
"FXFXFXFXFXFXFXFXFXFXFXFXFXFXFXFXFXFXFXFXFXFXFXFXFXFXFXFXFXFXFXFXFXFXFXFXFXFXFXFXFXFXFXFXFXFXFXFXFXFXFXFXFXFXFXFXFXFXFXFXFXFXFXFX",
"FXFXFXFXFXFXFXFXFXFXFXFXFXFXFXFXFXFXFXFXFXFXFXFXFXFXFXFXFXFXFXFXFXFXFXFXFXFXFXFXFXFXFXFXFXFXFXFXFXFXFXFXFXFXFXFXFXFXFXFXFXFXFXFX",
"FXFXFXFXFXFXFXFXFXFXFXFXFXFXFXFXFXFXFXFXFXFXFXFXFXFXFXFXFXFXFXFXFXFXFXFXFXFXFXFXFXFXFXFXFXFXFXFXFXFXFXFXFXFXFXFXFXFXFXFXFXFXFXFX",
"FXFXFXFXFXFXFXFXFXFXFXFXFXFXFXFXFXFXFXFXFXFXFXFXFXFXFXFXFXFXFXFXFXFXFXFXFXFXFXFXFXFXFXFXFXFXFXFXFXFXFXFXFXFXFXFXFXFXFXFXFXFXFXFX",
"FXFXFXFXFXFXFXFXFXFXFXFXFXFXFXFXFXFXFXFXFXFXFXFXFXFXFXFXFXFXFXFXFXFXFXFXFXFXFXFXFXFXFXFXFXFXFXFXFXFXFXFXFXFXFXFXFXFXFXFXFXFXFXFX",
"FXFXFXFXFXFXFXFXFXFXFXFXFXFXFXFXFXFXFXFXFXFXFXFXFXFXFXFXFXFXFXFXFXFXFXFXFXFXFXFXFXFXFXFXFXFXFXFXFXFXFXFXFXFXFXFXFXFXFXFXFXFXFXFX",
"FXFXFXFXFXFXFXFXFXFXFXFXFXFXFXFXFXFXFXFXFXFXFXFXFXFXFXFXFXFXFXFXFXFXFXFXFXFXFXFXFXFXFXFXFXFXFXFXFXFXFXFXFXFXFXFXFXFXFXFXFXFXFXFX",
"FXFXFXFXFXFXFXFXFXFXFXFXFXFXFXFXFXFXFXFXFXFXFXFXFXFXFXFXFXFXFXFXFXFXFXFXFXFXFXFXFXFXFXFXFXFXFXFXFXFXFXFXFXFXFXFXFXFXFXFXFXFXFXFX",
"FXFXFXFXFXFXFXFXFXFXFXFXFXFXFXFXFXFXFXFXFXFXFXFXFXFXFXFXFXFXFXFXFXFXFXFXFXFXFXFXFXFXFXFXFXFXFXFXFXFXFXFXFXFXFXFXFXFXFXFXFXFXFXFX"
};
