/* XPM */
static char *result[] = {
/* columns rows colors chars-per-pixel */
"64 64 253 2 ",
"   c #060407",
".  c #190307",
"X  c #151018",
"o  c #260006",
"O  c #350006",
"+  c #38061E",
"@  c #37051D",
"#  c #23171A",
"$  c #240A1F",
"%  c #162F1F",
"&  c #312A1B",
"*  c #050921",
"=  c #171127",
"-  c #3A0920",
";  c #241B25",
":  c #2E0F22",
">  c #072825",
",  c #073726",
"<  c #153226",
"1  c #193735",
"2  c #132622",
"3  c #2B2C22",
"4  c #272625",
"5  c #392628",
"6  c #323428",
"7  c #2C3936",
"8  c #353737",
"9  c #2C2D32",
"0  c #470E17",
"q  c #6D120A",
"w  c #6E381D",
"e  c #471A21",
"r  c #480A21",
"t  c #462322",
"y  c #422B34",
"u  c #453936",
"i  c #55312D",
"p  c #772323",
"a  c #6B332B",
"s  c #781F20",
"d  c #105512",
"f  c #255819",
"g  c #15630C",
"h  c #0B6D17",
"j  c #296D18",
"k  c #184536",
"l  c #1D533D",
"z  c #164824",
"x  c #215B20",
"c  c #265728",
"v  c #294337",
"b  c #34453A",
"n  c #2F5436",
"m  c #177424",
"M  c #246A24",
"N  c #237223",
"B  c #297725",
"V  c #397529",
"C  c #36783B",
"Z  c #2D6832",
"A  c #744A10",
"S  c #524C2E",
"D  c #6D4827",
"F  c #784836",
"G  c #685336",
"H  c #755538",
"J  c #734B2D",
"K  c #476E38",
"L  c #6A6530",
"P  c #363440",
"I  c #2F3546",
"U  c #1D3F40",
"Y  c #47394A",
"T  c #6F3C45",
"R  c #1C5540",
"E  c #1E4E4E",
"W  c #374740",
"Q  c #245540",
"!  c #2A5642",
"~  c #3C5045",
"^  c #367540",
"/  c #327658",
"(  c #377E60",
")  c #4D524F",
"_  c #6A4540",
"`  c #744A45",
"'  c #57644B",
"]  c #497156",
"[  c #6F745F",
"{  c #B7050B",
"}  c #B5101A",
"|  c #8D3714",
" . c #8A1F20",
".. c #B71F21",
"X. c #8E2E28",
"o. c #B92423",
"O. c #A32222",
"+. c #85051E",
"@. c #C81018",
"#. c #D31F20",
"$. c #D72122",
"%. c #C42726",
"&. c #E82222",
"*. c #FC2323",
"=. c #E61F20",
"-. c #8F461A",
";. c #8C4E2A",
":. c #8F6B34",
">. c #AB6E34",
",. c #B25521",
"<. c #F7493D",
"1. c #85544B",
"2. c #94724F",
"3. c #A77D51",
"4. c #A77F73",
"5. c #FC4A4B",
"6. c #FD574C",
"7. c #D94B4D",
"8. c #2B822B",
"9. c #338934",
"0. c #3B9B3C",
"q. c #369538",
"w. c #2F852F",
"e. c #3EA33E",
"r. c #3DAB38",
"t. c #3ABA3F",
"y. c #1B8B31",
"u. c #4C933A",
"i. c #45A63C",
"p. c #45B93C",
"a. c #56AC35",
"s. c #6CAE37",
"d. c #39CD35",
"f. c #2CE525",
"g. c #43CA21",
"h. c #42C127",
"j. c #4ADC28",
"k. c #4ACB36",
"l. c #4CD436",
"z. c #54D026",
"x. c #64C93D",
"c. c #4EE922",
"v. c #4EE328",
"b. c #52EC22",
"n. c #59EB22",
"m. c #4EFC26",
"M. c #50FC22",
"N. c #49E533",
"B. c #73E823",
"V. c #2E8D41",
"C. c #3DA641",
"Z. c #2DB149",
"A. c #3A8262",
"S. c #469555",
"D. c #4E9348",
"F. c #40A640",
"G. c #43AD44",
"H. c #46B246",
"J. c #47BA42",
"K. c #45A45B",
"L. c #54B86A",
"P. c #58B776",
"I. c #5AAC6E",
"U. c #6DB070",
"Y. c #41C545",
"T. c #6DC479",
"R. c #59C171",
"E. c #AA8A36",
"W. c #BEB227",
"Q. c #C9BE24",
"!. c #8FEB26",
"~. c #F0DA1F",
"^. c #F3EA1E",
"/. c #FBFF18",
"(. c #D2C929",
"). c #E7D829",
"_. c #EADB34",
"`. c #EED232",
"'. c #DAEA27",
"]. c #C3EE22",
"[. c #F4EB23",
"{. c #FCF222",
"}. c #FCFD23",
"|. c #EDE235",
" X c #F6E635",
".X c #FDFE35",
"XX c #E8F430",
"oX c #D1C01E",
"OX c #AB8447",
"+X c #B3895A",
"@X c #B58D6D",
"#X c #B9A97D",
"$X c #B1A56A",
"%X c #948F57",
"&X c #CFAE54",
"*X c #C9996C",
"=X c #C8AA77",
"-X c #D4A778",
";X c #D9B675",
":X c #C8AC72",
">X c #E8B076",
",X c #C19C58",
"<X c #E8D349",
"1X c #E7C677",
"2X c #EBD26F",
"3X c #EFD175",
"4X c #274CFC",
"5X c #3A5EE4",
"6X c #506CED",
"7X c #4D5BD2",
"8X c #6FAA80",
"9X c #5BC283",
"0X c #65CC87",
"qX c #75CB86",
"wX c #6CDB8C",
"eX c #68D387",
"rX c #69DE93",
"tX c #73D78C",
"yX c #6CE998",
"uX c #76EB98",
"iX c #71F8A7",
"pX c #B68D84",
"aX c #BAB38C",
"sX c #DAB485",
"dX c #D9BB96",
"fX c #C9AB8B",
"gX c #EBB888",
"hX c #D1AD92",
"jX c #8AD694",
"kX c #92D296",
"lX c #94E69B",
"zX c #A5E8AB",
"xX c #D5C599",
"cX c #E3C497",
"vX c #FED694",
"bX c #F0C690",
"nX c #DAD9B3",
"mX c #D5CBA8",
"MX c #E6CAA8",
"NX c #F9D5AA",
"BX c #FDDAB4",
"VX c #EBD7B2",
"CX c #FDE6BC",
"ZX c #EFE1B1",
"AX c #B4BCDC",
"SX c #BCCED1",
"DX c #F8DAC6",
"FX c #FDECC6",
"GX c #FFFCD8",
"HX c #FAF2CA",
"JX c #F9FDF5",
"KX c #D4DCE3",
"LX c None",
/* pixels */
"LXLXLXLXLXLXLXLXLXLXLXLXLXLXLXLXLXLXLXLXLXLXLXLXLXLXLXLXLXLXLXLXLXLXLXLXLXLXLXLXLXLXLXLXLXLXLXLXLXLXLXLXLXLXLXLXLXLXLXLXLXLXLXLX",
"LXLXLXLXLXLXLXLXLXLXLXLXLXLXLXLXLXLXLXLXLXLXLXLXLXLXLXLXLXLXLXLXLXLXLXLXLXLXLXLXLXLXLXLXLXLXLXLXLXLXLXLXLXLXLXLXLXLXLXLXLXLXLXLX",
"LXLXLXLXLXLXLXLXLXLXLXLXLXLXLXLXLXLXLXLXLXLXLXLXLXLXLXLXLXLXLXLXLXLXLXLXLXLXLXLXLXLXLXLXLXLXLXLXLXLXLXLXLXLXLXLXLXLXLXLXLXLXLXLX",
"LXLXLXLXLXLXLXLXLXLXLXLXLXLXLXLXLXLXLXLXLXLXLXLXLXLXLXLXLXLXLXLXLXLXLXLXLXLXLXLXLXLXLXLXLXLXLXLXLXLXLXLXLXLXLXLXLXLXLXLXLXLXLXLX",
"LXLXLXLXLXLXLXLXLXLXLXLXLXLXLXLXLXLXLXLXLXLXLXLXLXLXLXLXLXLXLXLXLXLXLXLXLXLXLXLXLXLXLXLXLXLXLXLXLXLXLXLXLXLXLXLXLXLXLXLXLXLXLXLX",
"LXLXLXLXLXLXLXLXLXLXLXLXLXLXLXLXLXLXLXLXLXLXLXLXLXLXLXLXLXLXLXLXLXLXLXLXLXLXLXLXLXLXLXLXLXLXLXLXLXLXLXLXLXLXLXLXLXLXLXLXLXLXLXLX",
"LXLXLXLXLXLXLXLXLXLXLXLXLXLXLXLXLXLXLXLXLXLXLXLXLXLXLXLXLXLXLXLXLXLXLXLXLXLXLXLXLXLXLXLXLXLXLXLXLXLXLXLXLXLXLXLXLXLXLXLXLXLXLXLX",
"LXLXLXLXLXLXLXLXLXLXLXLXLXLXLXLXLXLXLXLXLXLXLXLXwXeXeXeXeXeXeXeXeXwXLXLXLXLXLXLXLXLXLXLXLXLXLXLXLXLXLXLXLXLXLXLXLXLXLXLXLXLXLXLX",
"LXLXLXLXLXLXLXLXLXLXLXLXLXLXLXLXLXLXLXLXLXLXLXwXS.M C C C C C C M S.yXLXLXLXLXLXLXLXLXLXLXLXLXLXLXLXLXLXLXLXLXLXLXLXLXLXLXLXLXLX",
"LXLXLXLXLXLXLXLXLXLXLXLXLXLXLXLXLXLXwXeXeXeXyXL.C g N B j B B j g C L.yXqXtXqXqXqXtXqXqXqXLXLXLXLXLXLXLXLXLXLXLXLXLXLXLXLXLXLXLX",
"LXLXLXLXLXLXLXLXLXLXLXLXLXLXLXLXLXwXS.N C C C C 0.r.h.j.h.g.j.d.r.u.G T T _ D J J G _ G D [ LXLXLXLXLXLXLXLXLXLXLXLXLXLXLXLXLXLX",
"LXLXLXLXLXLXLXLXLXLXLXLXLXLXLXLXrXL.^ g B B M V i.k.j.M.b.b.m.v.k.a.:.| -.-.;.X.X.X.-.| q H LXLXLXLXLXLXLXLXLXLXLXLXLXLXLXLXLXLX",
"LXLXLXLXLXLXLXLXLXLXLXLXLXLXLXwXS.V 0.r.d.j.g.g.j.v.v.b.c.c.c.c.f.z.(.~.).(.,XpXpX:X_.oX| ` LXLXLXLXLXLXLXLXLXLXLXLXLXLXLXLXLXLX",
"LXLXLXLXLXLXLXLXLXLXLXLXLXLXrXL.V j r.l.j.M.b.c.b.c.c.c.c.c.c.b.n.!.XX.X}..X2XcXcX2X.X^.;.G LXLXLXLXLXLXLXLXLXLXLXLXLXLXLXLXLXLX",
"LXLXLXLXLXLXLXLXLXLXLXLXLXwXS.V q.i.z.v.c.c.c.c.b.c.c.v.c.c.c.B.]._.>X2X X/.|.|.|. X}.[.| D LXLXLXLXLXLXLXLXLXLXLXLXLXLXLXLXLXLX",
"LXLXLXLXLXLXLXLXLXLXLXeXrXL.V B i.p.l.j.c.c.c.c.c.c.c.c.c.c.f.B.[. X>X1X_.)._. X{./.^.W.:.[ LXLXLXLXLXLXLXLXLXLXLXLXLXLXLXLXLXLX",
"LXLXLXLXLXLXLXLXLXwXS.M ^ V.0.C.G.H.J.k.j.b.b.c.b.c.c.c.c.c.f.b.'. X|.`.E.3.;X2X.X^.,.` U.LXLXLXLXLXLXLXLXLXLXLXLXLXLXLXLXLXLXLX",
"LXLXLXLXLXLXLXeXyXL.9.g j C i.H.H.G.H.p.l.j.j.j.v.c.c.c.c.b.c.!.'.{.}.).OX2.@X-X_.oXH ' LXLXLXLXLXLXLXLXLXLXLXLXLXLXLXLXLXLXLXLX",
"LXLXLXLXLXLXS.N C 9.0.0.i.i.G.H.H.H.H.H.J.p.J.k.j.b.c.c.c.B.].[./.[.}.XX;X*X` D -.E.U.LXLXLXLXLXLXLXLXLXLXLXLXLXLXLXLXLXLXLXLXLX",
"LXLXLXLXLXP.9.g j 9.C.H.G.H.H.G.C.F.G.H.H.H.H.J.l.j.j.j.d.B.[.{.{.[.).`.sX*X1.w 0 ) uXLXLXLXLXLXLXLXLXLXLXLXLXLXLXLXLXLXLXLXLXLX",
"LXLXLXLXK.9.0.r.e.e.H.H.H.H.H.e.9.9.F.H.H.H.H.H.Y.p.k.J.t.x.'.{.{.).E.OX:XsX-XOXe 7 tXLXLXLXLXLXLXLXLXLXLXLXLXLXLXLXLXLXLXLXLXLX",
"LXLXLXLXC f q.t.e.C.e.e.e.e.e.q.B B q.C.H.H.i.0.q.0.G.G.Z.x.).{.}.).3.2.sXgXbX*X& < eXLXLXLXLXLXLXLXLXLXLXLXLXLXLXLXLXLXLXLXLXLX",
"LXLXLXLXb   M w.8.8.8.8.8.8.8.B N N B q.F.F.y.h h y.C.C.Z.x.XX/./.|.&XsXCXFXvX*X5 1 wXLXLXLXLXLXLXLXLXLXLXLXLXLXLXLXLXLXLXLXLXLX",
"LXLXLXLX] 8 c x x x x x x x N N N N M B 9.F.D.K ' u.0.0.u.s.oX~.|.<X1XdXmXxX;X+X: 1 wXLXLXLXwXeXtXLXLXLXLXLXLXLXLXLXLXLXLXLXLXLX",
"LXLXLXLXLXI.7 o # = # # $ 4 x N N N N N m D.aXMX-X%Xy.h S H E.,X&XbXCXxXS 4 A A . , yXiX] 3 4 2 < / LXLXLXLXLXLXLXLXLXLXLXLXLXLX",
"LXLXLXLXLXLX] b W W W W W b c x x M M M d V.ZXGXvXfXD.V a a 2.+X*XsXCXmX) ; T i i ' 9XP.3 . P Y O t P.LXLXLXLXLXLXLXLXLXLXLXLXLX",
"LXLXLXLXLXLXLXLXLXLXLXLXLXP.8 . $ 4 x m h D.nXGXBXMX=X%XF X.@X*X+X,XMXCXHXAX5X7XpX@X' k   ) SXKX7.{ u ( LXLXLXLXLXLXLXLXLXLXLXLX",
"LXLXLXLXLXLXLXLXLXLXLXLXLXLX] 8 b n x x h ] ;XCXDXNXvX*Xa F ;X1X:.>.xXHXJXJX4X4XcX>X5     ' JXJX6.@.O k LXLXLXLXLXLXLXLXLXLXLXLX",
"LXLXLXLXLXLXLXLXLXLXLXLXLXLXLXLXLXP.7 o > S 2.:XCXFXvX*Xa w _.|.-.1.dXHXJXKX4X4XdX>X8     S DXDX<.{ @ R LXLXLXLXLXLXLXLXLXLXLXLX",
"LXLXLXLXLXLXLXLXLXLXLXLXLXLXLXLXLXLX] 9 ; : D OXcXNX#X3.1.:.[.^.A a dXHXJXKX6X7XpX+X' 7   8 nXNX5.{ + l LXLXLXLXLXLXLXLXLXLXLXLX",
"LXLXLXLXLXLXLXLXLXLXLXLXLXLXLXLXLXLXLXP.7   . t OX+XS Y 4.;X.X^.A a dXGXFXFXmXpXi 6 P.9X> y nXBX6.{ + ! LXLXLXLXLXLXLXLXLXLXLXLX",
"LXLXLXLXLXLXLXLXLXLXLXLXLXLXLXLXLXLXLXLX] b U W H G   9 *X3X XQ.;.` hXFXBXgX;X4.6 l iXuX< 5 nXBX5.{ - n LXLXLXLXLXLXLXLXLXLXLXLX",
"LXLXLXLXLXLXLXLXLXLXLXLXLXLXLXLXLXLXLXLXLXLXiX9XK : * S _. X>.;.:.OX>XvXvX-Xi 9 I.yXiXrX< 5 nXBX5.{ + ! LXLXLXLXLXLXLXLXLXLXLXLX",
"LXLXLXLXLXLXLXLXLXLXLXLXLXLXLXLXLXLXLXLXLXLXLXP.n X * S |. XD e H 3.+X*X*X%X7 E P.uXuXI.2 8 nXBX5.{ - n LXLXLXLXLXLXLXLXLXLXLXLX",
"LXLXLXLXLXLXLXLXLXLXLXLXLXLXLXLXLXLXLXLXLXLX] 7 c z * i 1X1Xy . & 6 4 ; # n 9X0XL w D S . b nXBX5.} - Q LXLXLXLXLXLXLXLXLXLXLXLX",
"LXLXLXLXLXLXLXLXLXLXLXLXLXLXLXLXLXLXLXLXLXLX8 . Z B , i 4.4.' 1 > = 8 9 4 ) qXT.2.O.;.T . b nXBX5.{ - Q LXLXLXLXLXLXLXLXLXLXLXLX",
"LXLXLXLXLXLXLXLXLXLXLXLXLXLXLXLXLXLXLXLXLXyX8 ; q.r.B c 4 Y 8X9Xm j #XVXMXfXH 2.dXDXBXfX5 9 nXBX6.{ - R LXLXLXLXLXLXLXLXLXLXLXLX",
"LXLXLXLXLXLXLXLXLXLXLXLXLXLXLXLXLXLXLXLXyXI.9 9 i.d.B Z < ! kXlXq.D.ZXGXGXBXX.w aXFXGXVX9 4 mXNX5.} - R LXLXLXLXLXLXLXLXLXLXLXLX",
"LXLXLXLXLXLXLXLXLXLXLXLXLXLXLXLXLXLX( 1 ~ b $ 9 C.k.B 9.$XjXjXkXqXkXDXGXGXVX` 0 5 [ FXFX8 # aXgX<.@.- R LXLXLXLXLXLXLXLXLXLXLXLX",
"LXLXLXLXLXLXLXLXLXLXLXLXLXLXLXLXLXLXi O * $ ; c u.u.9.V.T.lXkXlXkXkXxXdXVXfXE.A   ; dXdX6 3 *X>X<.@.- R LXLXLXLXLXLXLXLXLXLXLXLX",
"LXLXLXLXLXLXLXLXLXLXLXLXLXLXLXLXA.S o...e 2 z f i J i.r.V.C.qXzXzXjXS.K F >.`.(.u = F H X 9 aX>X<.#.- R LXLXLXLXLXLXLXLXLXLXLXLX",
"LXLXLXLXLXLXLXLXLXLXLXLXLXLXLXLXk O =.&.i , B K S J u.a.j Z I.jXkXU.j d & :.[.'.S X S G X 9 #X>X<...@ l LXLXLXLXLXLXLXLXLXLXLXLX",
"LXLXLXLXLXLXLXLXLXLXLXLXLXLXLXLXR - #.$.5 , q.k.u.u.G a e i K q.9.K i i L H.x.s.4 8 tXqX1 5 fX>X,.+.o v LXLXLXLXLXLXLXLXLXLXLXLX",
"LXLXLXLXLXLXLXLXLXLXLXLXLXLXLXLXR - $.$.5 z q.Y.d.i.L D ;.S V h m j A L H.Y.Z.Z ; ! 0X0X1 5 =X>XX.q 8 LXLXLXLXLXLXLXLXLXLXLXLXLX",
"LXLXLXLXLXLXLXLXLXLXLXLXLXLXLXLXR - =.$.: , M 9.C.J.z.z.z.z.g.g.d.g.j.z.l.C.Z > > , k k * ) cX;Xe = LXLXLXLXLXLXLXLXLXLXLXLXLXLX",
"LXLXLXLXLXLXLXLXLXLXLXLXLXLXLXLXR @ #.#.p 6 z N 9.p.N.m.b.M.b.b.b.M.m.v.p.C 5 r t e 5 e X u @X+XW ( LXLXLXLXLXLXLXLXLXLXLXLXLXLX",
"LXLXLXLXLXLXLXLXLXLXLXLXLXLXLXLX7 o  .%.&.o.0 > M q.p.v.m.M.M.M.M.m.l.i.c 4 a  .%.$.$.O.; > y ' LXLXLXLXLXLXLXLXLXLXLXLXLXLXLXLX",
"LXLXLXLXLXLXLXLXLXLXLXLXLXLXLXLXLX7 i  .$.%.S l c M V q.p.g.g.g.g.g.r.C 9 r s ..$.*.*.$.p 4   k LXLXLXLXLXLXLXLXLXLXLXLXLXLXLXLX",
"LXLXLXLXLXLXLXLXLXLXLXLXLXLXLXLXLXLX8 o O u 0X9X7 . ; 4 3 3 3 3 3 3 2 5 p  .O.O.O.o.&.*.&...r ! LXLXLXLXLXLXLXLXLXLXLXLXLXLXLXLX",
"LXLXLXLXLXLXLXLXLXLXLXLXLXLXLXLXLXLXLXv 1 A.LXLX] 9 W P P P P P 8 I I u p  .s s p  .o.#.&.} r ! LXLXLXLXLXLXLXLXLXLXLXLXLXLXLXLX",
"LXLXLXLXLXLXLXLXLXLXLXLXLXLXLXLXLXLXLXLXLXLXLXLXLXLXLXLXLXLXLXLXLXLXuXP.Y o : $ $ $ - - r -   v LXLXLXLXLXLXLXLXLXLXLXLXLXLXLXLX",
"LXLXLXLXLXLXLXLXLXLXLXLXLXLXLXLXLXLXLXLXLXLXLXLXLXLXLXLXLXLXLXLXLXLXLXLXA.v ! ! ! ! Q R R Q W LXLXLXLXLXLXLXLXLXLXLXLXLXLXLXLXLX",
"LXLXLXLXLXLXLXLXLXLXLXLXLXLXLXLXLXLXLXLXLXLXLXLXLXLXLXLXLXLXLXLXLXLXLXLXLXLXLXLXLXLXLXLXLXLXLXLXLXLXLXLXLXLXLXLXLXLXLXLXLXLXLXLX",
"LXLXLXLXLXLXLXLXLXLXLXLXLXLXLXLXLXLXLXLXLXLXLXLXLXLXLXLXLXLXLXLXLXLXLXLXLXLXLXLXLXLXLXLXLXLXLXLXLXLXLXLXLXLXLXLXLXLXLXLXLXLXLXLX",
"LXLXLXLXLXLXLXLXLXLXLXLXLXLXLXLXLXLXLXLXLXLXLXLXLXLXLXLXLXLXLXLXLXLXLXLXLXLXLXLXLXLXLXLXLXLXLXLXLXLXLXLXLXLXLXLXLXLXLXLXLXLXLXLX",
"LXLXLXLXLXLXLXLXLXLXLXLXLXLXLXLXLXLXLXLXLXLXLXLXLXLXLXLXLXLXLXLXLXLXLXLXLXLXLXLXLXLXLXLXLXLXLXLXLXLXLXLXLXLXLXLXLXLXLXLXLXLXLXLX",
"LXLXLXLXLXLXLXLXLXLXLXLXLXLXLXLXLXLXLXLXLXLXLXLXLXLXLXLXLXLXLXLXLXLXLXLXLXLXLXLXLXLXLXLXLXLXLXLXLXLXLXLXLXLXLXLXLXLXLXLXLXLXLXLX",
"LXLXLXLXLXLXLXLXLXLXLXLXLXLXLXLXLXLXLXLXLXLXLXLXLXLXLXLXLXLXLXLXLXLXLXLXLXLXLXLXLXLXLXLXLXLXLXLXLXLXLXLXLXLXLXLXLXLXLXLXLXLXLXLX",
"LXLXLXLXLXLXLXLXLXLXLXLXLXLXLXLXLXLXLXLXLXLXLXLXLXLXLXLXLXLXLXLXLXLXLXLXLXLXLXLXLXLXLXLXLXLXLXLXLXLXLXLXLXLXLXLXLXLXLXLXLXLXLXLX",
"LXLXLXLXLXLXLXLXLXLXLXLXLXLXLXLXLXLXLXLXLXLXLXLXLXLXLXLXLXLXLXLXLXLXLXLXLXLXLXLXLXLXLXLXLXLXLXLXLXLXLXLXLXLXLXLXLXLXLXLXLXLXLXLX",
"LXLXLXLXLXLXLXLXLXLXLXLXLXLXLXLXLXLXLXLXLXLXLXLXLXLXLXLXLXLXLXLXLXLXLXLXLXLXLXLXLXLXLXLXLXLXLXLXLXLXLXLXLXLXLXLXLXLXLXLXLXLXLXLX",
"LXLXLXLXLXLXLXLXLXLXLXLXLXLXLXLXLXLXLXLXLXLXLXLXLXLXLXLXLXLXLXLXLXLXLXLXLXLXLXLXLXLXLXLXLXLXLXLXLXLXLXLXLXLXLXLXLXLXLXLXLXLXLXLX",
"LXLXLXLXLXLXLXLXLXLXLXLXLXLXLXLXLXLXLXLXLXLXLXLXLXLXLXLXLXLXLXLXLXLXLXLXLXLXLXLXLXLXLXLXLXLXLXLXLXLXLXLXLXLXLXLXLXLXLXLXLXLXLXLX",
"LXLXLXLXLXLXLXLXLXLXLXLXLXLXLXLXLXLXLXLXLXLXLXLXLXLXLXLXLXLXLXLXLXLXLXLXLXLXLXLXLXLXLXLXLXLXLXLXLXLXLXLXLXLXLXLXLXLXLXLXLXLXLXLX"
};
