/* XPM */
static char *result[] = {
/* columns rows colors chars-per-pixel */
"64 64 251 2 ",
"   c #060408",
".  c #190307",
"X  c #1B151C",
"o  c #100E17",
"O  c #260006",
"+  c #350006",
"@  c #27091E",
"#  c #38061E",
"$  c #36071E",
"%  c #23181C",
"&  c #31101E",
"*  c #10311F",
"=  c #2A2B12",
"-  c #0E0925",
";  c #3A0920",
":  c #231B26",
">  c #361822",
",  c #290920",
"<  c #082725",
"1  c #152522",
"2  c #163427",
"3  c #193936",
"4  c #06362B",
"5  c #272824",
"6  c #392628",
"7  c #293325",
"8  c #373727",
"9  c #353837",
"0  c #322F36",
"q  c #4E0F14",
"w  c #6D1409",
"e  c #4D3819",
"r  c #6C361D",
"t  c #471821",
"y  c #480821",
"u  c #462424",
"i  c #453B36",
"p  c #502E31",
"a  c #772323",
"s  c #6A352D",
"d  c #781F20",
"f  c #115A13",
"g  c #28551A",
"h  c #15630C",
"j  c #0D6A17",
"k  c #2A6D19",
"l  c #184537",
"z  c #1D523D",
"x  c #154F25",
"c  c #215B20",
"v  c #285827",
"b  c #2A4438",
"n  c #34463B",
"m  c #2B543D",
"M  c #33533C",
"N  c #197225",
"B  c #236A24",
"V  c #237223",
"C  c #297825",
"Z  c #367729",
"A  c #36783B",
"S  c #2D6832",
"D  c #734A11",
"F  c #5B4437",
"G  c #4E4D30",
"H  c #6C4826",
"J  c #784836",
"K  c #755538",
"L  c #6E4D33",
"P  c #496931",
"I  c #64692D",
"U  c #54531E",
"Y  c #373944",
"T  c #1D3F40",
"R  c #47394A",
"E  c #6F3C45",
"W  c #1D5440",
"Q  c #374740",
"!  c #215441",
"~  c #295342",
"^  c #3C5045",
"/  c #367540",
"(  c #38785C",
")  c #387E60",
"_  c #504F4E",
"`  c #6A4540",
"'  c #704D44",
"]  c #47775E",
"[  c #506A4D",
"{  c #7A6E49",
"}  c #566866",
"|  c #B7050B",
" . c #B5101A",
".. c #8A1F20",
"X. c #B71F21",
"o. c #8E2E28",
"O. c #B92423",
"+. c #A32222",
"@. c #8E2914",
"#. c #C81018",
"$. c #D31F20",
"%. c #D72122",
"&. c #C42726",
"*. c #E82222",
"=. c #FC2323",
"-. c #E61F20",
";. c #8F461A",
":. c #8B512A",
">. c #916C35",
",. c #B06023",
"<. c #F7493D",
"1. c #943A4A",
"2. c #85544A",
"3. c #954B4B",
"4. c #94714C",
"5. c #A97E53",
"6. c #A27F75",
"7. c #FC4A4B",
"8. c #FD574C",
"9. c #D94B4D",
"0. c #1B8C2F",
"q. c #2B822B",
"w. c #338835",
"e. c #3B9B3C",
"r. c #37943A",
"t. c #2D8432",
"y. c #3EA33E",
"u. c #3BA836",
"i. c #39B83E",
"p. c #4E8F3C",
"a. c #44A73C",
"s. c #55A63C",
"d. c #45BA3C",
"f. c #52B620",
"g. c #69B139",
"h. c #2CE525",
"j. c #34DA2B",
"k. c #42C625",
"l. c #49DB27",
"z. c #56D626",
"x. c #4ACB36",
"c. c #4CD136",
"v. c #64C83A",
"b. c #4EE922",
"n. c #4DE427",
"m. c #54EA22",
"M. c #51F922",
"N. c #4CF42D",
"B. c #73E823",
"V. c #3C9141",
"C. c #3EA641",
"Z. c #32B447",
"A. c #388563",
"S. c #469555",
"D. c #4D9247",
"F. c #40A640",
"G. c #44AD44",
"H. c #46B246",
"J. c #46BB42",
"K. c #4EA75B",
"L. c #53BA6C",
"P. c #5AB977",
"I. c #5AAC6F",
"U. c #6CB273",
"Y. c #71835C",
"T. c #44C847",
"R. c #6CC378",
"E. c #5AC173",
"W. c #AB8D33",
"Q. c #9FB12F",
"!. c #CABB26",
"~. c #8FEB26",
"^. c #F0DA1F",
"/. c #F4EA1E",
"(. c #FBFF18",
"). c #CDCF2B",
"_. c #E7D829",
"`. c #EADB34",
"'. c #EAD134",
"]. c #DBE727",
"[. c #C3EE22",
"{. c #F4EB23",
"}. c #FCF222",
"|. c #FDFE24",
" X c #ECE235",
".X c #F6E635",
"XX c #FDFE35",
"oX c #E8F532",
"OX c #D1C01E",
"+X c #AB8447",
"@X c #B3895A",
"#X c #B48B6E",
"$X c #B8A778",
"%X c #948F57",
"&X c #CFAE54",
"*X c #C9996D",
"=X c #C7AA78",
"-X c #D3A778",
";X c #D9B675",
":X c #C8AC72",
">X c #E8B076",
",X c #C19C58",
"<X c #E8D349",
"1X c #E7C677",
"2X c #EBD26F",
"3X c #EFD175",
"4X c #274CFC",
"5X c #3A5EE4",
"6X c #506CED",
"7X c #4D5BD2",
"8X c #5AC684",
"9X c #64CC87",
"0X c #73CC86",
"qX c #6DDB8D",
"wX c #68D387",
"eX c #73D689",
"rX c #6DDE93",
"tX c #6CE597",
"yX c #75E996",
"uX c #6BF7A9",
"iX c #B68D84",
"pX c #BBB18E",
"aX c #DAB485",
"sX c #D8BA96",
"dX c #CDAD8B",
"fX c #EBB888",
"gX c #D1AD92",
"hX c #8BD794",
"jX c #8FD194",
"kX c #94E69B",
"lX c #A4E7AB",
"zX c #D6C599",
"xX c #E3C597",
"cX c #FDD694",
"vX c #F0C690",
"bX c #DAD9B3",
"nX c #D5CBA8",
"mX c #E4C8A6",
"MX c #FAD5AA",
"NX c #FBD8B3",
"BX c #EAD7B2",
"VX c #FDE6BC",
"CX c #B4BCDC",
"ZX c #BCCED1",
"AX c #F8DAC6",
"SX c #FDEBC5",
"DX c #FFFBD8",
"FX c #FAF2CA",
"GX c #F9FDF5",
"HX c #D4DCE3",
"JX c None",
/* pixels */
"JXJXJXJXJXJXJXJXJXJXJXJXJXJXJXJXJXJXJXJXJXJXJXJXJXJXJXJXJXJXJXJXJXJXJXJXJXJXJXJXJXJXJXJXJXJXJXJXJXJXJXJXJXJXJXJXJXJXJXJXJXJXJXJX",
"JXJXJXJXJXJXJXJXJXJXJXJXJXJXJXJXJXJXJXJXJXJXJXJXJXJXJXJXJXJXJXJXJXJXJXJXJXJXJXJXJXJXJXJXJXJXJXJXJXJXJXJXJXJXJXJXJXJXJXJXJXJXJXJX",
"JXJXJXJXJXJXJXJXJXJXJXJXJXJXJXJXJXJXJXJXJXJXJXJXJXJXJXJXJXJXJXJXJXJXJXJXJXJXJXJXJXJXJXJXJXJXJXJXJXJXJXJXJXJXJXJXJXJXJXJXJXJXJXJX",
"JXJXJXJXJXJXJXJXJXJXJXJXJXJXJXJXJXJXJXJXJXJXJXJXJXJXJXJXJXJXJXJXJXJXJXJXJXJXJXJXJXJXJXJXJXJXJXJXJXJXJXJXJXJXJXJXJXJXJXJXJXJXJXJX",
"JXJXJXJXJXJXJXJXJXJXJXJXJXJXJXJXJXJXJXJXJXJXJXJXJXJXJXJXJXJXJXJXJXJXJXJXJXJXJXJXJXJXJXJXJXJXJXJXJXJXJXJXJXJXJXJXJXJXJXJXJXJXJXJX",
"JXJXJXJXJXJXJXJXJXJXJXJXJXJXJXJXJXJXJXJXJXJXJXJXJXJXJXJXJXJXJXJXJXJXJXJXJXJXJXJXJXJXJXJXJXJXJXJXJXJXJXJXJXJXJXJXJXJXJXJXJXJXJXJX",
"JXJXJXJXJXJXJXJXJXJXJXJXJXJXJXJXJXJXJXJXJXJXJXJXJXJXJXJXJXJXJXJXJXJXJXJXJXJXJXJXJXJXJXJXJXJXJXJXJXJXJXJXJXJXJXJXJXJXJXJXJXJXJXJX",
"JXJXJXJXJXJXJXJXJXJXJXJXJXJXJXJXJXJXJXJXJXJXJXJXJXJXJXJXJXJXJXJXJXJXJXJXJXJXJXJXJXJXJXJXJXJXJXJXJXJXJXJXJXJXJXJXJXJXJXJXJXJXJXJX",
"JXJXJXJXJXJXJXJXJXJXJXJXJXJXJXJXJXJXJXJXJXJXJXJXJXJXJXJXJXJXJXJXJXJXJXJXJXJXJXJXJXJXJXJXJXJXJXJXJXJXJXJXJXJXJXJXJXJXJXJXJXJXJXJX",
"JXJXJXJXJXJXJXJXJXJXJXJXJXJXJXJXJXJXJXJXJXJXJXJXJXJXqXwXwXwXwXwXwXwXwXqXJXJXJXJXJXJXJXJXJXJXJXJXJXJXJXJXJXJXJXJXJXJXJXJXJXJXJXJX",
"JXJXJXJXJXJXJXJXJXJXJXJXJXJXJXJXJXJXJXJXJXJXJXJXJXqXS.B A / A A / / B S.tXJXJXJXJXJXJXJXJXJXJXJXJXJXJXJXJXJXJXJXJXJXJXJXJXJXJXJX",
"JXJXJXJXJXJXJXJXJXJXJXJXJXJXJXJXJXJXJXJXqXwXwXwXtXL.A h V C C C V C h w.U.rX0XeX0X0XeXeX0X0XeXJXJXJXJXJXJXJXJXJXJXJXJXJXJXJXJXJX",
"JXJXJXJXJXJXJXJXJXJXJXJXJXJXJXJXJXJXJXrXS.B A A A A e.a.k.l.k.k.l.f.a.D.F ` E ` H L L H ` ' L Y.JXJXJXJXJXJXJXJXJXJXJXJXJXJXJXJX",
"JXJXJXJXJXJXJXJXJXJXJXJXJXJXJXJXJXJXrXL.A h V C B Z d.c.n.M.b.b.M.n.x.s.:.;.;.;.:.o.o.:.;.;.w L JXJXJXJXJXJXJXJXJXJXJXJXJXJXJXJX",
"JXJXJXJXJXJXJXJXJXJXJXJXJXJXJXJXJXqXS.Z e.u.f.l.k.k.l.l.b.b.b.b.b.b.h.z.).^.^.).*XiXiX,X`.OX;.K JXJXJXJXJXJXJXJXJXJXJXJXJXJXJXJX",
"JXJXJXJXJXJXJXJXJXJXJXJXJXJXJXJXtXE.Z k u.x.n.M.M.b.b.b.b.b.b.n.b.b.b.~.oXXX|.XX2XaXvX2XXX/.;.' JXJXJXJXJXJXJXJXJXJXJXJXJXJXJXJX",
"JXJXJXJXJXJXJXJXJXJXJXJXJXJXJXrXS.Z r.a.c.n.b.b.b.b.b.b.b.b.b.b.b.B.[..X;X1X.X(..X X.X.X|./.;.' JXJXJXJXJXJXJXJXJXJXJXJXJXJXJXJX",
"JXJXJXJXJXJXJXJXJXJXJXJXJXwXtXI.Z k a.J.l.l.b.b.m.b.b.b.b.b.b.b.h.B.{..X>X1X'._. X.X}./.{.Q.>.Y.JXJXJXJXJXJXJXJXJXJXJXJXJXJXJXJX",
"JXJXJXJXJXJXJXJXJXJXJXrXS.V / V.e.C.G.H.J.x.n.b.m.b.b.b.b.b.b.b.h.M.[.}..X'.W.+X;X3XXX/.,.H %XJXJXJXJXJXJXJXJXJXJXJXJXJXJXJXJXJX",
"JXJXJXJXJXJXJXJXJXwXtXL.w.h k Z C.H.H.H.H.J.c.l.c.n.b.b.b.b.b.m.m.~.].}.|._.+X4.#X:X.X!.J [ JXJXJXJXJXJXJXJXJXJXJXJXJXJXJXJXJXJX",
"JXJXJXJXJXJXJXJXS.B / V.e.y.e.C.G.H.H.H.H.H.J.d.d.x.l.b.b.b.b.B.[./.{.}.(..X;X#X' H ;.+XU.JXJXJXJXJXJXJXJXJXJXJXJXJXJXJXJXJXJXJX",
"JXJXJXJXJXJXJXE.V.h k q.C.H.H.H.H.H.F.y.G.H.H.H.H.J.c.z.l.l.j.B./.}.}.{._.<X;X=X3.s q F tXJXJXJXJXJXJXJXJXJXJXJXJXJXJXJXJXJXJXJX",
"JXJXJXJXJXJXK.r.e.u.y.F.H.H.H.H.H.a.w.w.F.H.H.H.H.H.d.T.J.d.i.v.].}.}._.W.+X:X-X-X5.6 7 qXJXJXJXJXJXJXJXJXJXJXJXJXJXJXJXJXJXJXJX",
"JXJXJXJXJXJXB g r.d.y.y.y.y.y.y.y.r.C Z r.F.H.G.F.r.a.F.G.H.Z.T.].}.(._.5.4.;XvXvX=X6 4 qXJXJXJXJXJXJXJXJXJXJXJXJXJXJXJXJXJXJXJX",
"JXJXJXJXJXJXn   B q.q.q.q.q.q.q.q.C V V C w.u.C.0.j j 0.C.Z.Z.g.oX|.(. X&X-XVXSXMX*X6 2 qXJXJXJXJXJXJXJXJXJXJXJXJXJXJXJXJXJXJXJX",
"JXJXJXJXJXJX] 0 v c c c c c c c B V V V k C r.F.D.[ S p.p.C.D.g.!.^..X<XvXsXnXzXfX5.> l JXJXJXJXrXrXeXJXJXJXJXJXJXJXJXJXJXJXJXJX",
"JXJXJXJXJXJXJXI.9 O % : % , X 5 c V V V V N N D.pXmX:X%Xw.j G K W.,X&X3XVXsX_ % ;.D . 3 tXJXA.7 2 2 2 ( JXJXJXJXJXJXJXJXJXJXJXJX",
"JXJXJXJXJXJXJXJX] 9 n n Q n n n c c c c B N j D.BXDXcX=XD.k s o.4.@X*XaXSXzX_ % p p p [ 8XP.6 . Y R + u P.JXJXJXJXJXJXJXJXJXJXJX",
"JXJXJXJXJXJXJXJXJXJXJXJXJXJXJXP.n . @ 2 c V j A.BXDXNXxX$X%X:.o.#X-X@X,XxXVXFXCX6X5X#X@X[ l   _ ZXAX9.| i ) JXJXJXJXJXJXJXJXJXJX",
"JXJXJXJXJXJXJXJXJXJXJXJXJXJXJXJX] 9 n n v c j P aXVXSXBXcX*Xs J ;X>X>.4.xXDXGXGX5X4XmX-Xu     _ GXGX8.#.+ l JXJXJXJXJXJXJXJXJXJX",
"JXJXJXJXJXJXJXJXJXJXJXJXJXJXJXJXJXJXJXP.9 . < G %X=XVXFXcX*Xs r `.`.D ' sXFXGXHX4X4XmX>X0     _ bXAX<.| # ! JXJXJXJXJXJXJXJXJXJX",
"JXJXJXJXJXJXJXJXJXJXJXJXJXJXJXJXJXJXJXJX] 0 @ > D 4.zXMX=X5.E >.}./.D s sXFXGXHX6X7XiX5.[ 9   i bXMX7.| $ ~ JXJXJXJXJXJXJXJXJXJX",
"JXJXJXJXJXJXJXJXJXJXJXJXJXJXJXJXJXJXJXJXJXP.0 . . e 5.@XG R #X;XXX/.D E sXDXSXSXmXiXp 8 P.P.1 9 bXNX8.| # ! JXJXJXJXJXJXJXJXJXJX",
"JXJXJXJXJXJXJXJXJXJXJXJXJXJXJXJXJXJXJXJXJXJX] b W n K L   0 *X3X XOXD 2.aXSXNXvX;X+X0 W uXyX2 6 bXNX7.| # W JXJXJXJXJXJXJXJXJXJX",
"JXJXJXJXJXJXJXJXJXJXJXJXJXJXJXJXJXJXJXJXJXJXJXJXyX8XG > - n `..X>.:.>.+XfXcXcX-Xp 8 I.tXuXrX2 u bXNX7.| # ! JXJXJXJXJXJXJXJXJXJX",
"JXJXJXJXJXJXJXJXJXJXJXJXJXJXJXJXJXJXJXJXJXJXJXJXJX8Xm o - U  X.XH t :.5.@X#X*X4.9 z R.yXyXI.< 0 bXNX7.| # ! JXJXJXJXJXJXJXJXJXJX",
"JXJXJXJXJXJXJXJXJXJXJXJXJXJXJXJXJXJXJXJXJXJXJXJX] 9 v x   6 ;X1Xp - 8 u 0 0 y _ 8X9X[ r L e o 9 bXNX7.| ; ! JXJXJXJXJXJXJXJXJXJX",
"JXJXJXJXJXJXJXJXJXJXJXJXJXJXJXJXJXJXJXJXJXJXJXwX6 . B B _ _ #X6.G < : 5 < 2 o ! 8X9X4.o.:.J . 9 bXNX7.| ; ! JXJXJXJXJXJXJXJXJXJX",
"JXJXJXJXJXJXJXJXJXJXJXJXJXJXJXJXJXJXJXJXJXJXJXtXY @ f Z P.U.R 5 v c c B w.u.y.w.4 _ sXVXNXdX5 8 bXNX8.| # W JXJXJXJXJXJXJXJXJXJX",
"JXJXJXJXJXJXJXJXJXJXJXJXJXJXJXJXJXJXJXJXJXJXtXI.b 5 S K.kXhX_ 5 S V C r.Z.T.T.D.= E pXSXDXBX0 7 bXMX8. .# ! JXJXJXJXJXJXJXJXJXJX",
"JXJXJXJXJXJXJXJXJXJXJXJXJXJXJXJXJXJXJXJX( 3 M M v A I.jXjXhXjXU.A C r.C.H.G.Z.g.].!.G } SXVX9 % pXfX<.#.$ ! JXJXJXJXJXJXJXJXJXJX",
"JXJXJXJXJXJXJXJXJXJXJXJXJXJXJXJXJXJXJXP.p + @ % f D.jXlXhXhXkXU.r.t.C.H.H.G.V.g.|.{.= - sXsX0 5 @X>X<.&.# ! JXJXJXJXJXJXJXJXJXJX",
"JXJXJXJXJXJXJXJXJXJXJXJXJXJXJXJXJXJXA.i O.X.t * f V.jXlXkXjXC N a.Z.T.T.T.a.L :.}.}.e - J ' X 9 $XfX<.#.# W JXJXJXJXJXJXJXJXJXJX",
"JXJXJXJXJXJXJXJXJXJXJXJXJXJXJXJXJXJXl + -.*.u 4 V p.I.jXjXjXD.Z p.s.p.p.D.p.H :.`.).8 - I F o 0 =X>X<.X.# W JXJXJXJXJXJXJXJXJXJX",
"JXJXJXJXJXJXJXJXJXJXJXJXJXJXJXJXJXJXz # -.%.u x r.u.0.F.zXAXBX$X{ H F r s F P H.v.g.1 9 eX0X3 5 =X>X9.w O b JXJXJXJXJXJXJXJXJXJX",
"JXJXJXJXJXJXJXJXJXJXJXJXJXJXJXJXJXJXm # %.%.6 4 u.u.h P sXDXDXNX3.w D H H I s.T.Z.A 5 b wX9X3 > dX-Xo.q 9 JXJXJXJXJXJXJXJXJXJXJX",
"JXJXJXJXJXJXJXJXJXJXJXJXJXJXJXJXJXJXz # -.%.> 4 C Z e 2.MXDXDXMX1.r f.z.z.l.x.F.S < < 2 W l - _ aX;Xy 0 JXJXJXJXJXJXJXJXJXJXJXJX",
"JXJXJXJXJXJXJXJXJXJXJXJXJXJXJXJXJXJXm # &.&.a = x g e { dXNXBXdX>.I l.M.M.n.i.A 6 y u t > t - G #X#X^ JXJXJXJXJXJXJXJXJXJXJXJXJX",
"JXJXJXJXJXJXJXJXJXJXJXJXJXJXJXJXJXJXb O ..&.%.O.t < g P { 4.3.>.z.M.M.N.c.a.N 6 s ..O.$.%.+.5 < p [ JXJXJXJXJXJXJXJXJXJXJXJXJXJX",
"JXJXJXJXJXJXJXJXJXJXJXJXJXJXJXJXJXJXJX9 p ..%.O.F z c g e w q U f.b.l.k.y./ 5 y d O.%.=.=.%.a :   ~ JXJXJXJXJXJXJXJXJXJXJXJXJXJX",
"JXJXJXJXJXJXJXJXJXJXJXJXJXJXJXJXJXJXJXJX8 O + F 9X9Xb   @ $ @ > 5 = 5 5 1 6 a ..+...+.O.*.=.*.X.y ~ JXJXJXJXJXJXJXJXJXJXJXJXJXJX",
"JXJXJXJXJXJXJXJXJXJXJXJXJXJXJXJXJXJXJXJXJXb 3 A.JXJX] 9 n Q M n n Y Q Y Q i o...d d a ..X.$.*.X.y ~ JXJXJXJXJXJXJXJXJXJXJXJXJXJX",
"JXJXJXJXJXJXJXJXJXJXJXJXJXJXJXJXJXJXJXJXJXJXJXJXJXJXJXJXJXJXJXJXJXJXJXJXJXP.i O @ , , , $ ; y ;   b JXJXJXJXJXJXJXJXJXJXJXJXJXJX",
"JXJXJXJXJXJXJXJXJXJXJXJXJXJXJXJXJXJXJXJXJXJXJXJXJXJXJXJXJXJXJXJXJXJXJXJXJXJXJXb m m ~ ~ ~ W W ! b JXJXJXJXJXJXJXJXJXJXJXJXJXJXJX",
"JXJXJXJXJXJXJXJXJXJXJXJXJXJXJXJXJXJXJXJXJXJXJXJXJXJXJXJXJXJXJXJXJXJXJXJXJXJXJXJXJXJXJXJXJXJXJXJXJXJXJXJXJXJXJXJXJXJXJXJXJXJXJXJX",
"JXJXJXJXJXJXJXJXJXJXJXJXJXJXJXJXJXJXJXJXJXJXJXJXJXJXJXJXJXJXJXJXJXJXJXJXJXJXJXJXJXJXJXJXJXJXJXJXJXJXJXJXJXJXJXJXJXJXJXJXJXJXJXJX",
"JXJXJXJXJXJXJXJXJXJXJXJXJXJXJXJXJXJXJXJXJXJXJXJXJXJXJXJXJXJXJXJXJXJXJXJXJXJXJXJXJXJXJXJXJXJXJXJXJXJXJXJXJXJXJXJXJXJXJXJXJXJXJXJX",
"JXJXJXJXJXJXJXJXJXJXJXJXJXJXJXJXJXJXJXJXJXJXJXJXJXJXJXJXJXJXJXJXJXJXJXJXJXJXJXJXJXJXJXJXJXJXJXJXJXJXJXJXJXJXJXJXJXJXJXJXJXJXJXJX",
"JXJXJXJXJXJXJXJXJXJXJXJXJXJXJXJXJXJXJXJXJXJXJXJXJXJXJXJXJXJXJXJXJXJXJXJXJXJXJXJXJXJXJXJXJXJXJXJXJXJXJXJXJXJXJXJXJXJXJXJXJXJXJXJX",
"JXJXJXJXJXJXJXJXJXJXJXJXJXJXJXJXJXJXJXJXJXJXJXJXJXJXJXJXJXJXJXJXJXJXJXJXJXJXJXJXJXJXJXJXJXJXJXJXJXJXJXJXJXJXJXJXJXJXJXJXJXJXJXJX",
"JXJXJXJXJXJXJXJXJXJXJXJXJXJXJXJXJXJXJXJXJXJXJXJXJXJXJXJXJXJXJXJXJXJXJXJXJXJXJXJXJXJXJXJXJXJXJXJXJXJXJXJXJXJXJXJXJXJXJXJXJXJXJXJX",
"JXJXJXJXJXJXJXJXJXJXJXJXJXJXJXJXJXJXJXJXJXJXJXJXJXJXJXJXJXJXJXJXJXJXJXJXJXJXJXJXJXJXJXJXJXJXJXJXJXJXJXJXJXJXJXJXJXJXJXJXJXJXJXJX",
"JXJXJXJXJXJXJXJXJXJXJXJXJXJXJXJXJXJXJXJXJXJXJXJXJXJXJXJXJXJXJXJXJXJXJXJXJXJXJXJXJXJXJXJXJXJXJXJXJXJXJXJXJXJXJXJXJXJXJXJXJXJXJXJX",
"JXJXJXJXJXJXJXJXJXJXJXJXJXJXJXJXJXJXJXJXJXJXJXJXJXJXJXJXJXJXJXJXJXJXJXJXJXJXJXJXJXJXJXJXJXJXJXJXJXJXJXJXJXJXJXJXJXJXJXJXJXJXJXJX"
};
